<svg width="354" height="439" viewBox="0 0 354 439" fill="none" xmlns="http://www.w3.org/2000/svg">
<g clip-path="url(#clip0_1203_8033)">
<path d="M264.473 262.79L264.788 350.423L352.421 350.108L352.107 262.475L264.473 262.79Z" fill="#F6690B"/>
<path d="M264.158 175.157L264.263 204.368L293.474 204.263L293.579 233.474L322.79 233.369L322.895 262.58L352.106 262.475L351.792 174.842L264.158 175.157Z" fill="white"/>
<path d="M132.079 0.36199L88.4199 44.335L132.394 87.995L176.053 44.021L132.079 0.36199Z" fill="#F6690B"/>
<path d="M264.788 350.422C288.987 350.336 308.675 369.882 308.762 394.082C308.849 418.281 289.302 437.969 265.102 438.056L265.007 411.479C274.529 411.445 282.22 403.699 282.186 394.177C282.151 384.655 274.405 376.964 264.883 376.999L264.788 350.422Z" fill="#F6690B"/>
<path d="M352.736 437.741C328.536 437.828 308.849 418.281 308.762 394.082C308.675 369.883 328.222 350.195 352.421 350.108L352.516 376.684C342.995 376.718 335.304 384.465 335.338 393.986C335.372 403.508 343.118 411.199 352.64 411.165L352.736 437.741Z" fill="#F6690B"/>
<path d="M88.2626 0.518993C88.3495 24.719 68.8026 44.406 44.6033 44.493C20.4041 44.58 0.716282 25.033 0.629393 0.834L27.2055 0.738997C27.2397 10.26 34.9862 17.951 44.5079 17.917C54.0296 17.883 61.7207 10.136 61.6865 0.614972L88.2626 0.518993Z" fill="#F6690B"/>
<path d="M0.944136 88.467C0.857244 64.268 20.4041 44.58 44.6034 44.493C68.8026 44.406 88.4904 63.953 88.5773 88.152L62.0012 88.248C61.967 78.726 54.2205 71.035 44.6988 71.069C35.1772 71.103 27.4861 78.85 27.5203 88.371L0.944136 88.467Z" fill="#F6690B"/>
<path d="M204.797 234.946L220.656 262.947L236.315 234.833L264.316 218.973L236.202 203.315L220.342 175.314L204.684 203.428L176.683 219.288L204.797 234.946Z" fill="#F6690B"/>
<path fill-rule="evenodd" clip-rule="evenodd" d="M271.426 123.861C267.311 123.876 263.986 127.224 264.001 131.339C264.016 135.455 267.364 138.779 271.48 138.764L279.648 138.735L272.561 142.796C268.99 144.842 267.754 149.396 269.8 152.967C271.846 156.538 276.4 157.774 279.971 155.727L288.037 151.105L283.473 159.205C281.452 162.79 282.721 167.335 286.306 169.355C289.892 171.376 294.436 170.107 296.457 166.522L300.467 159.404L300.497 167.573C300.511 171.689 303.86 175.013 307.975 174.998C312.091 174.984 315.415 171.635 315.4 167.52L315.371 159.351L319.432 166.439C321.479 170.009 326.032 171.245 329.603 169.199C333.174 167.153 334.41 162.6 332.363 159.029L327.742 150.963L335.84 155.527C339.426 157.547 343.97 156.279 345.991 152.693C348.011 149.108 346.743 144.563 343.157 142.543L336.041 138.533L344.209 138.503C348.325 138.488 351.649 135.14 351.634 131.025C351.62 126.909 348.271 123.585 344.156 123.6L335.986 123.629L343.075 119.567C346.645 117.521 347.881 112.967 345.835 109.396C343.789 105.826 339.235 104.59 335.665 106.636L327.6 111.257L332.163 103.16C334.183 99.574 332.915 95.03 329.329 93.009C325.744 90.989 321.199 92.257 319.179 95.843L315.168 102.96L315.139 94.79C315.124 90.675 311.776 87.35 307.661 87.365C303.545 87.38 300.221 90.728 300.236 94.844L300.265 103.013L296.203 95.925C294.157 92.354 289.603 91.118 286.033 93.164C282.462 95.21 281.226 99.764 283.272 103.335L287.894 111.4L279.795 106.837C276.21 104.816 271.665 106.085 269.645 109.67C267.624 113.256 268.893 117.8 272.479 119.821L279.596 123.831L271.426 123.861Z" fill="#F6690B"/>
<path d="M99.4803 -31.135C111.536 -43.279 131.93 -43.455 131.93 -43.455C131.93 -43.455 132.779 -23.944 120.723 -11.801C108.667 0.342 88.2727 0.519009 88.2727 0.519009C88.2727 0.519009 87.4245 -18.992 99.4803 -31.135Z" fill="white"/>
<path d="M164.451 -31.369C152.309 -43.425 131.913 -43.455 131.913 -43.455C131.913 -43.455 131.205 -23.938 143.348 -11.882C155.491 0.174004 175.886 0.204002 175.886 0.204002C175.886 0.204002 176.594 -19.313 164.451 -31.369Z" fill="white"/>
<path d="M220.284 159.181C224.846 169.01 231.758 175.272 239.475 175.245C253.107 175.196 264.088 155.539 264.001 131.339C263.914 107.14 252.793 87.562 239.161 87.611C231.443 87.639 224.576 93.95 220.085 103.812C215.524 93.983 208.611 87.721 200.894 87.749C187.262 87.798 176.281 107.455 176.368 131.654C176.455 155.853 187.576 175.431 201.209 175.382C208.926 175.354 215.793 169.043 220.284 159.181Z" fill="white"/>
<path fill-rule="evenodd" clip-rule="evenodd" d="M231.345 -8.10401C227.672 2.69999 212.578 2.75398 208.828 -8.02302L207.864 -10.793L205.376 -9.28001C195.693 -3.39101 184.095 -13.159 188.074 -23.852L189.096 -26.6L186.228 -27.058C175.066 -28.84 172.391 -43.859 182.237 -49.464L184.767 -50.905L182.861 -53.12C175.443 -61.739 182.942 -74.982 194.049 -72.877L196.903 -72.336L196.851 -75.271C196.648 -86.694 210.812 -91.964 217.983 -83.134L219.825 -80.864L221.651 -83.147C228.758 -92.029 242.96 -86.86 242.839 -75.436L242.808 -72.5L245.658 -73.062C256.749 -75.247 264.343 -62.058 256.988 -53.386L255.097 -51.157L257.638 -49.735C267.524 -44.201 264.957 -29.163 253.808 -27.3L250.943 -26.822L251.985 -24.081C256.04 -13.417 244.513 -3.56602 234.788 -9.38502L232.289 -10.881L231.345 -8.10401ZM220.038 -21.561C222.876 -26.846 229.219 -29.206 234.768 -27.042C233.582 -32.935 236.941 -38.866 242.567 -40.814C237.912 -44.558 236.715 -51.284 239.786 -56.434C233.84 -56.276 228.646 -60.651 227.725 -66.591C223.27 -62.607 216.511 -62.583 212.028 -66.535C211.149 -60.588 205.987 -56.176 200.041 -56.291C203.149 -51.163 201.999 -44.429 197.371 -40.652C203.012 -38.744 206.412 -32.838 205.269 -26.936C210.802 -29.14 217.162 -26.826 220.038 -21.561Z" fill="#F6690B"/>
<path d="M214.971 32.156C215.494 13.648 217.397 0.0549876 219.713 0.0469875C222.028 0.0389874 224.028 13.617 224.684 32.121C238.142 19.404 249.098 11.138 250.742 12.769C252.385 14.401 244.198 25.417 231.577 38.965C250.085 39.488 263.678 41.39 263.686 43.706C263.695 46.022 250.116 48.022 231.612 48.678C244.329 62.135 252.596 73.092 250.964 74.735C249.332 76.379 238.317 68.191 224.768 55.571C224.245 74.079 222.343 87.672 220.027 87.68C217.711 87.688 215.711 74.11 215.055 55.606C201.598 68.323 190.642 76.589 188.998 74.958C187.355 73.326 195.542 62.31 208.163 48.762C189.654 48.239 176.062 46.337 176.053 44.021C176.045 41.705 189.624 39.705 208.128 39.049C195.41 25.592 187.144 14.635 188.776 12.992C190.407 11.348 201.423 19.536 214.971 32.156Z" fill="#F6690B"/>
<path fill-rule="evenodd" clip-rule="evenodd" d="M156.498 155.246L155.82 175.545L132.091 152.834L108.527 175.715L107.701 155.422L88.2755 153.19L110.211 131.892L88.123 110.752L107.532 108.38L108.212 88.082L131.94 110.793L155.505 87.912L156.33 108.205L175.756 110.437L153.821 131.735L175.909 152.876L156.498 155.246Z" fill="#F6690B"/>
<path fill-rule="evenodd" clip-rule="evenodd" d="M275.6 44.1133C275.663 61.5285 289.996 75.5963 307.615 75.5335C325.232 75.4707 339.463 61.3028 339.399 43.8867C339.337 26.4715 325.003 12.4046 307.385 12.4674C289.768 12.5293 275.536 26.6981 275.6 44.1133ZM307.655 86.9997C283.631 87.0851 264.086 67.9025 264 44.1546C263.914 20.4066 283.32 1.08565 307.344 1.00027C331.368 0.91489 350.913 20.0975 351 43.8454C351.086 67.5943 331.68 86.9143 307.655 86.9997Z" fill="white"/>
<path fill-rule="evenodd" clip-rule="evenodd" d="M295.864 43.591C295.887 50.019 301.117 55.211 307.545 55.188C313.973 55.165 319.165 49.935 319.142 43.507C319.119 37.079 313.889 31.887 307.461 31.91C301.033 31.933 295.841 37.163 295.864 43.591ZM307.587 66.827C294.731 66.873 284.272 56.488 284.226 43.633C284.179 30.777 294.564 20.318 307.42 20.271C320.275 20.225 330.735 30.61 330.781 43.465C330.827 56.321 320.443 66.78 307.587 66.827Z" fill="#F6690B"/>
<path d="M265.033 306.646C264.947 282.447 245.259 262.9 221.059 262.987C196.86 263.074 177.313 282.761 177.4 306.961L221.217 306.803L221.374 350.62C245.573 350.533 265.12 330.845 265.033 306.646Z" fill="white"/>
</g>
<defs>
<clipPath id="clip0_1203_8033">
<rect width="439" height="354" fill="white" transform="translate(0 439) rotate(-90)"/>
</clipPath>
</defs>
</svg>
