<svg width="590" height="552" viewBox="0 0 590 552" fill="none" xmlns="http://www.w3.org/2000/svg">
<g clip-path="url(#clip0_459_2)">
<rect width="590" height="552" fill="#171B16"/>
<rect x="-50" y="374" width="668" height="212" fill="url(#paint0_linear_459_2)"/>
<circle cx="559.4" cy="517.207" r="72.9968" transform="rotate(-120 559.4 517.207)" fill="url(#paint1_linear_459_2)"/>
<circle cx="245.638" cy="427.44" r="31.7286" transform="rotate(-120 245.638 427.44)" fill="url(#paint2_linear_459_2)"/>
<circle cx="506.068" cy="440.92" r="40.0648" transform="rotate(-120 506.068 440.92)" fill="url(#paint3_linear_459_2)"/>
<path d="M467.474 400.754C469.878 403.658 470.598 405.252 470.973 406.252C471.707 408.168 472.047 410.213 471.972 412.264C471.827 415.008 470.888 416.932 469.473 419.761C468.474 421.76 468.414 421.436 465.475 426.259C463.081 430.187 462.946 430.687 461.477 432.756C460.327 434.375 460.622 433.755 457.978 437.254C455.949 439.928 455.579 440.543 454.48 441.252C453.98 441.567 451.446 443.216 449.482 442.252C449.027 442.027 448.512 441.252 447.483 439.753C445.768 437.229 445.558 436.254 445.483 435.755C445.344 434.83 445.538 434.665 445.483 433.755C445.413 432.646 445.014 431.097 443.484 429.257C443.484 429.257 450.981 427.758 449.482 420.261C447.982 412.764 441.485 414.763 443.484 419.761C443.484 419.761 442.985 421.261 441.485 417.262C439.535 415.042 437.357 413.032 434.988 411.265C431.489 408.766 426.991 400.269 427.741 394.522C424.845 397.318 422.624 400.736 421.244 404.518C420.704 406.017 420.539 406.947 420.244 408.016C419.056 411.845 417.14 415.409 414.601 418.512C417.495 413.184 416.496 411.75 416.496 411.75L415.496 409.251C415.161 408.416 414.831 407.581 414.496 406.752C413.547 404.403 413.537 404.498 413.497 404.253C413.222 402.628 413.997 401.224 414.496 400.254C415.138 399.11 415.985 398.093 416.995 397.256C418.175 396.196 418.32 396.401 420.494 394.757C421.548 393.992 422.55 393.157 423.493 392.258C424.962 390.838 424.772 390.673 425.492 390.259C427.066 389.354 427.941 390.159 429.49 389.259C430.555 388.639 430.345 388.125 431.489 387.26C432.634 386.395 433.753 386.135 435.488 385.761C436.965 385.438 438.473 385.27 439.986 385.261C443.783 385.334 447.525 386.184 450.981 387.76C454.184 389.169 456.213 390.688 458.976 392.756L458.978 392.758C462.12 395.074 464.972 397.758 467.474 400.754Z" fill="white"/>
<path d="M334.03 410.75C332.845 408.532 331.128 406.643 329.032 405.253L328.986 405.22C327.688 404.31 326.004 403.129 323.534 402.754C323.009 402.671 321.432 402.697 318.295 402.749L318.037 402.754C316.152 402.784 315.613 402.814 314.538 402.754C312.434 402.634 312.259 402.389 310.54 402.254C308.361 402.101 306.172 402.27 304.043 402.754C302.856 403.01 301.687 403.344 300.544 403.753C298.109 404.494 295.763 405.5 293.547 406.752C290.53 408.459 287.96 410.857 286.05 413.749C284.259 416.524 283.618 419.029 283.054 421.236L283.051 421.246C282.398 423.862 282.062 426.547 282.052 429.243C282.082 431.583 282.248 433.919 282.552 436.24C282.931 439.698 283.136 439.863 283.051 441.238C282.853 443.521 282.172 445.735 281.052 447.735C279.998 449.824 279.728 449.529 277.304 453.483C275.44 456.516 275.05 457.586 274.805 458.48C274.42 459.947 274.252 461.463 274.305 462.979C274.358 464.158 274.525 465.33 274.805 466.477C275.165 468.141 275.425 468.696 276.304 471.475C277.184 474.254 277.649 475.753 277.804 476.973C277.989 478.466 277.989 479.977 277.804 481.471C277.629 482.855 277.184 484.245 276.304 486.968C275.35 489.912 275.25 489.847 274.805 491.467C274.241 493.25 273.905 495.097 273.805 496.964C273.746 498.645 273.914 500.326 274.305 501.962C274.691 503.727 275.367 505.416 276.304 506.96C277.485 509.049 279.213 510.777 281.302 511.958C283.148 512.941 285.208 513.456 287.3 513.457C289.015 513.459 290.714 513.119 292.297 512.458L293.237 511.728C293.537 509.579 293.877 507.495 294.047 505.731C294.627 499.142 295.798 492.618 297.545 486.239C299.679 478.332 301.454 475.243 302.043 474.244C303.923 471.204 306.1 468.358 308.541 465.747C311.494 462.409 312.244 462.139 315.038 458.75C317.567 455.677 318.936 453.987 320.036 451.253C320.977 448.863 321.484 446.325 321.535 443.757C321.737 440.682 321.224 437.603 320.036 434.76C319.5 433.524 318.83 432.351 318.037 431.262C318.859 430.375 319.533 429.363 320.036 428.263C320.8 426.713 321.145 424.99 321.035 423.265C320.922 421.847 320.466 420.834 319.567 418.836L319.536 418.767C319.028 417.646 318.443 416.56 317.787 415.518C317.467 415.019 316.992 414.344 314.788 411.52C314.122 410.664 313.455 409.831 312.789 409.021L314.788 408.521C317.167 408.275 319.57 408.618 321.785 409.521C323.466 410.217 324.994 411.236 326.283 412.52C327.015 413.262 327.683 414.257 329.018 416.247L329.032 416.268C330.376 418.272 330.312 418.407 331.031 419.267C331.966 420.509 333.159 421.532 334.53 422.266C334.996 421.315 335.332 420.307 335.529 419.267C336.289 415.184 334.63 411.89 334.03 410.75Z" fill="white"/>
<path d="M341.027 490.217C341.52 488.6 341.69 486.902 341.527 485.219C341.3 483.799 340.79 482.44 340.027 481.221C339.238 479.776 336.414 474.584 335.529 469.226C335.414 468.541 335.369 466.522 335.279 462.479L335.278 462.401C335.214 459.488 335.161 457.084 335.279 453.982C335.344 452.248 335.454 450.574 335.594 448.984C335.261 449.054 334.906 449.144 334.53 449.254C332.697 449.701 330.989 450.555 329.532 451.753C327.465 453.566 326.69 455.832 326.035 457.745L326.033 457.751C325.349 459.75 324.954 462.719 324.879 462.749C324.129 463.118 329.337 471.21 332.031 477.742C333.575 481.491 334.81 485.949 335.529 497.234C335.854 502.312 335.984 507.36 335.984 512.228C340.627 508.669 341.037 505.941 341.027 504.731C340.944 503.389 340.777 502.054 340.527 500.733C339.893 497.009 339.333 496.519 339.528 494.735C339.723 492.951 340.307 493.141 341.027 490.217Z" fill="white"/>
<path d="M327.453 544.589C323.909 544.589 318.666 544.184 310.9 543L310.695 542.97V542.76C310.544 537.202 310.879 531.642 311.694 526.142C303.393 525.892 293.507 525.017 292.797 522.264C291.928 518.895 292.617 514.157 293.232 509.979C293.457 508.439 293.667 506.98 293.792 505.685C294.365 499.153 295.521 492.685 297.245 486.359L297.3 486.144C298.75 480.776 300.274 476.718 301.828 474.084C303.883 470.585 306.257 467.916 308.351 465.547C309.68 464.048 310.545 463.183 311.384 462.344C312.51 461.244 313.578 460.086 314.583 458.875L314.823 458.585L314.998 458.915C316.077 460.979 319.201 465.537 324.894 463.328L325.129 463.238L325.214 463.473C325.578 464.418 326.508 466.152 327.578 468.156C329.077 470.97 330.966 474.474 332.261 477.617C333.915 481.616 335.084 486.314 335.759 497.184C336.594 510.259 336.294 525.022 334.865 541.071C334.835 541.403 334.824 541.737 334.83 542.07C334.83 542.215 334.83 542.36 334.83 542.505C334.815 542.676 334.762 542.841 334.676 542.988C334.589 543.136 334.471 543.263 334.33 543.36C333.685 543.939 331.931 544.589 327.453 544.589ZM311.184 542.535C329.057 545.244 333.12 543.76 334.04 542.99C334.122 542.932 334.192 542.858 334.244 542.772C334.297 542.686 334.331 542.59 334.345 542.49C334.345 542.35 334.345 542.21 334.345 542.065C334.345 541.725 334.345 541.376 334.38 541.026C335.809 525.002 336.109 510.264 335.274 497.219C334.585 486.414 333.43 481.78 331.776 477.807C330.491 474.688 328.617 471.2 327.113 468.391C326.073 466.447 325.234 464.893 324.819 463.893C319.181 465.932 315.972 461.749 314.708 459.485C313.444 460.984 312.599 461.819 311.709 462.708C310.82 463.598 310.015 464.403 308.711 465.892C306.285 468.496 304.124 471.334 302.258 474.364C300.724 476.958 299.22 480.976 297.76 486.299L297.7 486.514C295.989 492.81 294.842 499.246 294.272 505.745C294.142 507.06 293.932 508.519 293.707 510.064C293.102 514.197 292.417 518.88 293.262 522.154C293.762 524.033 300.759 525.347 311.969 525.652H312.254L312.209 525.932C311.381 531.426 311.038 536.981 311.184 542.535V542.535Z" fill="white"/>
<path d="M307.417 380.513C301.619 380.507 296.062 378.201 291.962 374.101C287.863 370.002 285.557 364.444 285.551 358.647C285.551 352.865 288.34 346.682 293.203 341.684C298.066 336.686 304.198 333.783 309.916 333.783C315.713 333.789 321.271 336.095 325.37 340.194C329.469 344.294 331.775 349.851 331.781 355.649C331.781 361.426 328.993 367.609 324.13 372.606C319.267 377.604 313.149 380.513 307.417 380.513ZM309.916 334.283C298.315 334.283 286.051 346.802 286.051 358.647C286.057 364.312 288.31 369.743 292.316 373.748C296.321 377.754 301.752 380.007 307.417 380.013C319.012 380.013 331.282 367.489 331.282 355.649C331.275 349.984 329.022 344.553 325.016 340.548C321.011 336.542 315.58 334.289 309.916 334.283V334.283ZM310.29 388.51C308.636 388.51 307.292 386.825 307.292 384.761C307.292 382.697 308.636 381.013 310.29 381.013C311.945 381.013 313.289 382.692 313.289 384.761C313.289 386.83 311.945 388.51 310.29 388.51ZM310.29 381.513C308.911 381.513 307.791 382.967 307.791 384.761C307.791 386.556 308.911 388.01 310.29 388.01C311.67 388.01 312.789 386.551 312.789 384.761C312.789 382.972 311.665 381.513 310.29 381.513ZM310.79 398.006C309.686 398.006 308.791 396.881 308.791 395.507C308.791 394.132 309.686 393.008 310.79 393.008C311.895 393.008 312.789 394.127 312.789 395.507C312.789 396.886 311.89 398.006 310.79 398.006ZM310.79 393.508C309.961 393.508 309.291 394.402 309.291 395.507C309.291 396.611 309.961 397.506 310.79 397.506C311.62 397.506 312.29 396.606 312.29 395.507C312.29 394.407 311.615 393.508 310.79 393.508Z" fill="white"/>
<path d="M327.828 544.599C324.255 544.599 318.922 544.159 311 542.94L311.075 542.44C328.468 545.119 332.921 543.939 334.026 543.04C334.115 542.977 334.189 542.896 334.245 542.802C334.3 542.708 334.334 542.603 334.346 542.495C334.346 542.34 334.346 542.19 334.346 542.035C334.34 541.702 334.352 541.368 334.381 541.036C335.79 525.277 336.1 510.124 335.275 497.229C334.585 486.409 333.431 481.781 331.777 477.817C330.487 474.699 328.613 471.2 327.109 468.391C325.109 464.613 324.39 463.243 324.555 462.734C324.572 462.678 324.601 462.627 324.64 462.584C324.67 462.469 324.72 462.184 324.775 461.889C325.016 460.454 325.35 459.037 325.774 457.646C326.424 455.756 327.229 453.402 329.348 451.543C330.831 450.319 332.572 449.448 334.441 448.994C335.436 448.705 336.457 448.513 337.489 448.42C338.569 448.295 339.219 448.225 339.823 447.565C340.893 446.4 340.823 444.566 340.758 443.746C340.713 442.867 340.423 442.062 339.758 440.323C339.283 439.053 338.939 438.324 338.664 437.694C338.297 436.925 337.992 436.128 337.754 435.31C337.254 433.636 336.934 432.531 337.254 431.182C337.492 430.291 337.836 429.432 338.279 428.623C338.429 428.343 338.564 428.123 338.684 427.918C338.936 427.535 339.128 427.115 339.253 426.674C339.398 426.174 339.593 425.439 339.278 424.864C339.024 424.4 338.559 424.225 337.969 424H337.909C336.275 423.38 334.91 422.74 334.411 422.5C333.007 421.755 331.784 420.711 330.827 419.442C330.503 419.053 330.212 418.639 329.957 418.202C329.727 417.822 329.408 417.308 328.813 416.418C327.483 414.419 326.814 413.419 326.094 412.709C324.831 411.447 323.331 410.447 321.681 409.766C320.426 409.246 319.103 408.909 317.753 408.766C316.772 408.666 315.784 408.666 314.804 408.766L313.219 409.166C313.814 409.896 314.404 410.635 314.974 411.365C317.278 414.319 317.688 414.914 317.972 415.363C318.637 416.414 319.226 417.509 319.737 418.642C320.671 420.706 321.141 421.746 321.261 423.225C321.373 424.991 321.02 426.756 320.236 428.343C319.753 429.405 319.111 430.387 318.332 431.257C319.084 432.316 319.724 433.45 320.241 434.64C321.436 437.518 321.949 440.633 321.741 443.741C321.697 446.338 321.189 448.905 320.241 451.323C319.107 454.152 317.638 455.936 315.204 458.885C314.11 460.227 312.942 461.507 311.705 462.719C310.875 463.548 310.016 464.408 308.706 465.892C306.627 468.246 304.268 470.89 302.239 474.349C300.71 476.938 299.205 480.951 297.741 486.284L297.676 486.519C295.97 492.809 294.824 499.238 294.252 505.731C294.127 507.045 293.912 508.504 293.688 510.054C293.083 514.187 292.398 518.87 293.243 522.139C293.888 524.638 305.158 525.637 314.609 525.697C314.727 525.699 314.842 525.659 314.934 525.584C315.025 525.509 315.087 525.404 315.109 525.287C317.433 512.083 316.503 480.806 316.493 480.476H316.993C316.993 480.791 317.932 512.138 315.603 525.387C315.562 525.621 315.438 525.832 315.255 525.984C315.072 526.135 314.841 526.216 314.604 526.212C309.711 526.167 293.658 525.757 292.758 522.279C291.888 518.91 292.583 514.177 293.193 509.994C293.418 508.454 293.628 506.995 293.753 505.701C294.326 499.179 295.479 492.721 297.196 486.404L297.256 486.169C298.71 480.791 300.23 476.738 301.784 474.109C303.838 470.61 306.212 467.946 308.306 465.577C309.631 464.078 310.496 463.213 311.305 462.379C312.531 461.18 313.689 459.913 314.774 458.585C317.378 455.427 318.677 453.792 319.732 451.153C320.669 448.792 321.177 446.282 321.231 443.741C321.421 440.702 320.908 437.66 319.732 434.85C319.202 433.632 318.54 432.475 317.758 431.402L317.638 431.237L317.777 431.087C318.582 430.22 319.241 429.229 319.732 428.153C320.488 426.645 320.832 424.964 320.731 423.28C320.616 421.886 320.161 420.876 319.232 418.862C318.73 417.749 318.151 416.674 317.498 415.643C317.208 415.188 316.808 414.604 314.499 411.645C313.854 410.815 313.184 409.981 312.5 409.146L312.25 408.841L314.634 408.246C317.064 407.985 319.521 408.328 321.786 409.246C323.499 409.954 325.054 410.993 326.364 412.305C327.119 413.064 327.793 414.074 329.143 416.088C329.742 416.983 330.062 417.502 330.297 417.882C330.536 418.301 330.814 418.696 331.127 419.062C332.038 420.279 333.205 421.283 334.545 422.001C335.045 422.245 336.41 422.875 338.044 423.5L338.104 423.525C338.734 423.765 339.333 423.99 339.673 424.614C340.083 425.369 339.848 426.229 339.673 426.799C339.534 427.284 339.322 427.746 339.044 428.168C338.929 428.358 338.799 428.578 338.654 428.848C338.223 429.617 337.888 430.436 337.654 431.287C337.379 432.456 337.624 433.366 338.154 435.155C338.385 435.953 338.681 436.73 339.039 437.479C339.318 438.089 339.663 438.854 340.148 440.138C340.768 441.797 341.108 442.717 341.148 443.711C341.188 444.571 341.293 446.575 340.083 447.89C339.348 448.689 338.549 448.779 337.439 448.889C336.434 448.982 335.44 449.17 334.471 449.449C332.673 449.885 330.997 450.72 329.568 451.893C327.568 453.662 326.799 455.851 326.139 457.786C325.722 459.152 325.396 460.544 325.164 461.954C325.024 462.694 324.999 462.833 324.925 462.893C324.925 463.393 326.199 465.807 327.423 468.131C328.923 470.95 330.812 474.459 332.111 477.602C333.766 481.601 334.93 486.284 335.61 497.169C336.435 510.094 336.11 525.267 334.71 541.056C334.68 541.376 334.68 541.685 334.68 542.015C334.68 542.175 334.68 542.33 334.68 542.49C334.669 542.67 334.618 542.845 334.531 543.002C334.445 543.16 334.325 543.298 334.181 543.405C333.596 544.054 331.797 544.599 327.828 544.599Z" fill="white"/>
<path d="M301.134 568.984C299.664 562.302 298.42 556.145 297.425 550.672C292.862 525.477 295.426 523.923 295.736 523.828L295.886 524.303C295.816 524.358 293.497 526.167 297.92 550.587C298.92 556.05 300.154 562.202 301.623 568.879L301.134 568.984ZM314.688 568.999C309.155 549.892 310.515 533.769 311.819 525.862L312.319 525.942C311.02 533.809 309.665 549.847 315.173 568.864L314.688 568.999Z" fill="white"/>
<path d="M295.895 568.644L295.395 568.549C296.335 563.771 298.239 555.054 300.428 550.191L300.653 550.291H300.908L300.883 550.396C298.724 555.194 296.829 563.891 295.895 568.644ZM336.428 568.599H335.928C336.138 556.639 335.203 548.372 333.144 544.034L333.594 543.819C335.688 548.227 336.643 556.564 336.428 568.599ZM324.773 416.952L324.273 416.867C324.501 415.888 325.03 415.004 325.786 414.34C326.541 413.676 327.485 413.265 328.486 413.164L328.556 413.664C325.292 414.123 324.793 416.837 324.773 416.952ZM338.272 439.228C337.665 439.243 337.063 439.123 336.509 438.875C335.954 438.628 335.462 438.26 335.068 437.798L335.473 437.504C335.558 437.619 336.81 439.228 339.313 438.617L339.469 438.959C339.469 438.959 339.699 439.165 338.272 439.228Z" fill="white"/>
<path d="M424.692 476.475L419.265 568.922L419.764 568.951L425.191 476.504L424.692 476.475Z" fill="white"/>
<path d="M424.877 476.723L398.163 465.867L398.278 465.628C398.278 465.588 400.237 461.449 402.241 456.187C404.74 449.629 406.275 444.132 406.665 440.283C406.704 439.918 406.729 439.573 406.749 439.234V438.874L435.772 451.663L435.572 452.118L407.204 439.623C407.204 439.858 407.169 440.093 407.139 440.338C406.739 444.282 405.24 449.679 402.686 456.366C400.952 460.93 399.263 464.653 398.818 465.608L425.047 476.273L424.877 476.723Z" fill="white"/>
<path d="M402.421 456.506C397.059 455.322 387.508 452.158 383.784 444.341C383.689 444.216 372.629 428.288 367.531 418.727C365.419 414.722 362.531 411.178 359.034 408.301C356.542 406.245 353.932 404.336 351.218 402.584C349.421 401.457 347.815 400.051 346.46 398.421C344.93 396.536 344.361 395.102 344.76 394.167C345.045 393.498 345.805 393.108 347.01 393.008L347.05 393.508C346.05 393.593 345.43 393.882 345.22 394.367C344.905 395.112 345.465 396.406 346.85 398.111C348.168 399.702 349.734 401.071 351.488 402.164C354.215 403.921 356.838 405.833 359.344 407.892C362.896 410.81 365.831 414.407 367.976 418.472C373.054 428.008 384.104 443.911 384.214 444.071C388.002 452.018 398.283 455.067 402.531 456.001L402.421 456.506Z" fill="white"/>
<path d="M351.627 398.181C350.628 398.181 349.018 396.941 347.829 395.492C346.704 394.122 346.065 392.213 346.33 390.954C346.354 390.75 346.424 390.554 346.535 390.381C346.646 390.208 346.794 390.062 346.969 389.954C347.184 389.856 347.416 389.801 347.652 389.793C347.888 389.786 348.123 389.825 348.344 389.909C349.608 390.294 350.983 391.563 351.762 393.068C352.807 395.067 352.982 397.491 352.132 398.066C351.98 398.155 351.803 398.195 351.627 398.181ZM347.629 390.289C347.524 390.281 347.419 390.295 347.319 390.33C347.22 390.365 347.128 390.419 347.051 390.49C346.973 390.561 346.911 390.648 346.868 390.744C346.824 390.84 346.801 390.943 346.799 391.049C346.614 391.993 347.049 393.757 348.214 395.172C349.668 396.946 351.357 397.951 351.837 397.631C352.317 397.311 352.302 395.222 351.302 393.293C350.655 391.973 349.54 390.942 348.174 390.399C347.999 390.335 347.815 390.298 347.629 390.289V390.289Z" fill="white"/>
<path d="M355.336 397.696C354.571 397.696 353.637 397.221 352.037 395.247L352.002 395.207V395.147C351.85 394.504 351.62 393.881 351.317 393.293C350.994 392.681 350.581 392.12 350.093 391.629L350.053 391.584V391.529C349.778 390.719 349.193 388.715 349.763 387.625C349.834 387.479 349.935 387.349 350.06 387.244C350.185 387.14 350.331 387.064 350.488 387.021C351.757 386.661 353.537 388.84 355.256 391.104C356.79 393.133 357.54 395.327 357.125 396.572C357.049 396.813 356.914 397.031 356.731 397.206C356.549 397.38 356.325 397.506 356.08 397.571C355.84 397.649 355.589 397.691 355.336 397.696ZM352.462 394.977C354.521 397.476 355.291 397.276 355.906 397.101C356.074 397.058 356.227 396.971 356.352 396.85C356.476 396.73 356.567 396.578 356.615 396.412C356.975 395.337 356.235 393.278 354.821 391.414C353.786 390.049 351.642 387.201 350.588 387.505C350.497 387.531 350.413 387.576 350.342 387.638C350.27 387.699 350.213 387.775 350.173 387.86C349.848 388.48 349.963 389.804 350.473 391.319C350.98 391.836 351.408 392.426 351.742 393.068C352.057 393.674 352.298 394.315 352.462 394.977ZM406.814 440.523C394.989 435.32 380.91 415.764 375.407 407.597C374.328 405.988 373.103 404.438 371.944 402.984C370.545 401.126 369.474 399.044 368.775 396.826C367.776 390.469 364.152 387.735 364.117 387.71C358.28 382.363 354.396 383.712 354.356 383.742C353.132 384.362 352.472 385.021 352.422 385.696C352.367 386.496 353.167 387.196 353.846 387.695C354.163 387.921 354.497 388.12 354.846 388.29C360.409 389.789 360.983 395.437 360.993 395.492L360.494 395.537C360.494 395.487 359.939 390.194 354.681 388.76C354.282 388.576 353.899 388.359 353.537 388.11C352.412 387.33 351.842 386.491 351.897 385.671C351.952 384.851 352.712 384.007 354.131 383.297C354.326 383.222 358.37 381.798 364.412 387.335C364.547 387.43 368.23 390.204 369.235 396.727C369.93 398.864 370.968 400.875 372.309 402.679C373.473 404.143 374.703 405.678 375.807 407.327C381.305 415.459 395.299 434.926 406.999 440.078L406.814 440.523Z" fill="white"/>
<path d="M353.022 388.774L352.663 388.425C352.943 388.153 353.248 387.907 353.572 387.69L353.857 388.1C353.559 388.298 353.279 388.524 353.022 388.774ZM350.089 385.181C349.804 384.871 343.057 377.634 341.562 375.14C340.917 374.071 340.718 373.196 340.957 372.546C341.016 372.383 341.107 372.233 341.225 372.105C341.343 371.977 341.484 371.874 341.642 371.802C341.892 371.587 343.211 370.702 345.53 372.871C346.36 373.641 347.105 374.335 347.9 374.975C350.109 376.764 354.112 380.208 356.136 383.187L355.726 383.467C353.727 380.543 349.774 377.134 347.585 375.365C346.78 374.71 346.025 374.016 345.191 373.236C343.002 371.192 341.962 372.181 341.952 372.191L341.912 372.231H341.857C341.753 372.279 341.661 372.348 341.586 372.434C341.511 372.521 341.455 372.622 341.422 372.731C341.297 373.076 341.297 373.731 341.992 374.885C343.456 377.334 350.383 384.766 350.453 384.836L350.089 385.181Z" fill="white"/>
<path d="M434.358 568.939L433.858 568.929L435.198 474.384L436.197 474.394L434.358 568.939Z" fill="white"/>
<path d="M466.285 568.964L465.785 568.904C466.935 559.358 467.165 536.603 467.21 527.262H467.709C467.669 536.613 467.439 559.393 466.285 568.964Z" fill="white"/>
<path d="M484.49 529.296L481.547 568.9L482.045 568.937L484.988 529.333L484.49 529.296Z" fill="white"/>
<path d="M488.036 530.84C487.065 530.783 486.129 530.458 485.332 529.901C481.439 527.467 463.656 527.442 463.476 527.442C463.396 527.442 461.477 527.442 460.712 526.237C460.277 525.577 460.282 524.703 460.712 523.643L460.212 488.208H460.712L461.212 523.748V523.793C460.817 524.713 460.792 525.447 461.137 525.967C461.767 526.932 463.461 526.967 463.481 526.967C464.216 526.967 481.588 526.967 485.602 529.501C486.891 530.305 487.976 530.55 488.825 530.225C489.153 530.077 489.445 529.862 489.685 529.594C489.925 529.327 490.107 529.012 490.22 528.671C490.245 527.936 490.555 515.177 486.222 487.768C482.013 461.104 454.105 444.786 451.121 443.112C446.623 455.892 436.282 467.292 436.177 467.407L435.678 467.942L435.728 467.222C436.522 456.096 435.323 446.73 432.809 444.436C430.81 442.632 428.986 442.502 428.966 442.502C428.502 442.481 428.039 442.54 427.596 442.677C427.076 442.813 426.549 442.919 426.017 442.997C424.332 443.242 422.888 443.447 421.409 442.997C419.484 442.397 417.88 440.798 416.761 438.369C416.608 438.052 416.498 437.716 416.436 437.369C416.336 436.96 416.166 436.265 415.746 434.825L415.691 434.63C415.006 432.306 414.666 431.132 414.262 430.372C413.407 428.733 412.737 427.433 411.343 426.464L411.133 426.319C410.531 425.99 410.049 425.477 409.759 424.855C409.491 424.149 409.491 423.371 409.759 422.665C410.13 421.848 410.78 421.189 411.593 420.806C412.077 420.537 412.531 420.217 412.947 419.852C413.468 419.387 413.956 418.886 414.407 418.352L414.786 418.677C414.326 419.227 413.825 419.742 413.287 420.217C412.85 420.596 412.376 420.931 411.873 421.216C411.152 421.545 410.571 422.119 410.233 422.835C410.014 423.42 410.014 424.065 410.233 424.65C410.491 425.178 410.909 425.612 411.428 425.889L411.643 426.034C413.142 427.079 413.837 428.423 414.721 430.127C415.146 430.937 415.491 432.127 416.186 434.476L416.241 434.67C416.666 436.12 416.836 436.82 416.936 437.239C416.995 437.548 417.092 437.849 417.225 438.134C418.285 440.433 419.789 441.942 421.574 442.497C422.943 442.922 424.337 442.722 425.952 442.497C426.471 442.425 426.985 442.321 427.491 442.187C427.976 442.039 428.484 441.975 428.99 441.997C429.075 441.997 431.02 442.127 433.144 444.062C435.753 446.431 436.992 455.407 436.277 466.517C438.387 464.078 446.853 453.872 450.731 442.662L450.831 442.387L451.086 442.522C451.396 442.692 482.238 459.405 486.701 487.688C491.154 515.871 490.7 528.596 490.7 528.721V528.776C490.569 529.198 490.349 529.586 490.055 529.916C489.761 530.245 489.4 530.508 488.995 530.685C488.688 530.795 488.362 530.847 488.036 530.84Z" fill="white"/>
<path d="M450.841 442.782C450.332 442.791 449.829 442.68 449.372 442.457C448.872 442.207 448.372 441.482 447.288 439.898C445.448 437.184 445.288 436.2 445.233 435.775C445.171 435.39 445.163 434.998 445.208 434.61C445.242 434.327 445.25 434.041 445.233 433.756C445.069 432.134 444.387 430.608 443.289 429.402L443.024 429.078L443.434 428.998C443.729 428.938 450.666 427.453 449.237 420.291C448.737 417.792 447.542 416.028 446.058 415.623C445.687 415.512 445.292 415.508 444.919 415.611C444.546 415.715 444.21 415.922 443.949 416.208C443.254 416.993 443.164 418.277 443.714 419.652L443.749 419.737L443.719 419.821C443.685 419.942 443.615 420.049 443.518 420.129C443.422 420.21 443.304 420.259 443.179 420.271C442.799 420.271 442.24 419.926 441.28 417.378C439.351 415.184 437.199 413.197 434.858 411.45C431.534 409.081 427.096 401.054 427.441 395.172C424.804 397.844 422.775 401.054 421.493 404.583C421.195 405.427 420.941 406.286 420.734 407.157C420.659 407.457 420.584 407.757 420.499 408.066C420.389 408.466 420.254 408.896 420.094 409.341C420.024 409.546 419.944 409.761 419.859 409.971V410.026C419.784 410.231 419.699 410.43 419.614 410.635C419.339 411.31 419.014 412.025 418.645 412.754L418.435 413.169C418.271 413.502 418.096 413.827 417.91 414.144C417.85 414.254 417.785 414.374 417.72 414.484L417.5 414.864L417.145 415.388C417.115 415.448 417.079 415.504 417.04 415.558C416.95 415.708 416.85 415.868 416.74 416.028C416.705 416.088 416.667 416.147 416.625 416.203C416.56 416.313 416.475 416.438 416.395 416.553C415.901 417.286 415.367 417.992 414.796 418.667L413.412 420.051L414.446 418.282L414.506 418.177C414.952 417.351 415.351 416.5 415.701 415.628L415.746 415.523C415.786 415.408 415.831 415.298 415.871 415.193C415.961 414.929 416.046 414.694 416.106 414.454C416.13 414.39 416.15 414.325 416.166 414.259C416.249 413.968 416.314 413.673 416.361 413.374C416.361 413.289 416.361 413.249 416.386 413.209C416.41 413.169 416.41 413.034 416.415 412.959C416.42 412.884 416.415 412.839 416.415 412.799C416.459 412.483 416.417 412.16 416.296 411.865L416.271 411.82L414.856 408.276L414.271 406.822C413.857 405.787 413.622 405.228 413.482 404.908C413.381 404.706 413.305 404.493 413.257 404.273C412.972 402.569 413.757 401.094 414.281 400.12C414.938 398.948 415.803 397.906 416.835 397.046C417.285 396.637 417.774 396.274 418.295 395.961C418.75 395.677 419.294 395.322 420.354 394.537C421.399 393.771 422.393 392.936 423.328 392.038C423.759 391.629 424.165 391.194 424.542 390.734C424.765 390.432 425.049 390.182 425.377 389.999C426.024 389.633 426.758 389.448 427.501 389.464C428.156 389.485 428.805 389.324 429.375 388.999C429.735 388.801 430.037 388.513 430.255 388.165C430.547 387.722 430.916 387.334 431.344 387.02C432.514 386.141 433.608 385.871 435.443 385.476C436.939 385.152 438.465 384.984 439.996 384.976C443.826 385.042 447.602 385.892 451.091 387.475C454.32 388.894 456.339 390.404 459.133 392.498C462.291 394.827 465.159 397.527 467.674 400.54C470.003 403.353 470.793 404.993 471.218 406.107C471.952 408.053 472.292 410.126 472.217 412.205C472.067 415.053 471.068 417.043 469.688 419.801C469.282 420.627 468.816 421.422 468.294 422.18C467.794 422.94 467.044 424.08 465.68 426.319C464.775 427.818 464.205 428.783 463.741 429.572C463.113 430.712 462.424 431.816 461.677 432.881C461.127 433.656 460.907 433.926 460.537 434.38C460.167 434.835 459.562 435.57 458.178 437.379L457.408 438.379C456.014 440.228 455.594 440.788 454.614 441.422C453.509 442.221 452.202 442.692 450.841 442.782ZM443.919 429.382C444.947 430.611 445.58 432.121 445.733 433.716C445.753 434.029 445.744 434.343 445.708 434.655C445.656 435 445.656 435.35 445.708 435.695C445.708 435.696 445.709 435.698 445.709 435.699C445.769 436.091 445.91 437.004 447.667 439.593C448.667 441.033 449.167 441.812 449.572 442.007C450.746 442.582 452.43 442.237 454.315 441.008C455.229 440.413 455.604 439.918 456.988 438.079L457.758 437.079C459.148 435.25 459.757 434.53 460.132 434.081C460.507 433.631 460.712 433.376 461.252 432.616C461.988 431.577 462.67 430.501 463.296 429.392C463.761 428.603 464.335 427.618 465.24 426.134C466.604 423.89 467.359 422.74 467.859 421.986C468.372 421.242 468.83 420.462 469.228 419.652C469.236 419.637 469.243 419.622 469.251 419.607C470.589 416.926 471.558 414.983 471.702 412.255C471.766 410.242 471.426 408.236 470.703 406.357C470.293 405.283 469.528 403.688 467.244 400.929C464.755 397.95 461.918 395.281 458.793 392.978C456.019 390.899 454.02 389.404 450.846 387.98C447.421 386.42 443.713 385.578 439.951 385.506C438.455 385.517 436.964 385.685 435.502 386.006C433.738 386.39 432.684 386.645 431.604 387.46C431.213 387.744 430.875 388.094 430.605 388.495C430.35 388.912 429.992 389.256 429.565 389.494C428.925 389.86 428.197 390.043 427.461 390.024C426.798 390.004 426.143 390.167 425.567 390.494C425.292 390.648 425.053 390.859 424.867 391.114C424.478 391.588 424.059 392.037 423.612 392.458C422.668 393.355 421.666 394.19 420.614 394.957C419.573 395.742 419 396.103 418.545 396.39C418.536 396.396 418.528 396.401 418.52 396.406C418.022 396.702 417.556 397.048 417.13 397.441C416.143 398.259 415.314 399.252 414.686 400.37C414.161 401.369 413.452 402.674 413.712 404.208C413.751 404.391 413.814 404.567 413.902 404.733C414.041 405.058 414.276 405.617 414.696 406.657L415.281 408.111L416.685 411.635C416.86 412.007 416.926 412.421 416.875 412.829C416.875 412.874 416.875 412.934 416.875 412.994C416.869 413.095 416.857 413.195 416.84 413.294C416.843 413.339 416.843 413.384 416.84 413.429C416.792 413.757 416.722 414.081 416.63 414.399C416.614 414.475 416.592 414.55 416.565 414.624C416.505 414.849 416.415 415.123 416.321 415.378L416.191 415.723L416.146 415.833L416.145 415.834C416.08 415.999 416.016 416.163 415.941 416.333L415.981 416.273C416.061 416.158 416.141 416.038 416.211 415.923C416.281 415.808 416.286 415.813 416.321 415.758C416.43 415.593 416.525 415.443 416.62 415.288C416.66 415.228 416.69 415.183 416.715 415.138L417.035 414.609L417.25 414.239L417.44 413.904C417.62 413.584 417.79 413.264 417.94 412.944L418.15 412.53C418.51 411.81 418.829 411.11 419.099 410.445C419.194 410.226 419.279 410.011 419.359 409.801L419.384 409.746C419.454 409.556 419.529 409.366 419.589 409.176C419.749 408.741 419.879 408.321 419.984 407.931C420.069 407.627 420.144 407.332 420.219 407.032C420.431 406.147 420.689 405.275 420.994 404.418C422.38 400.598 424.623 397.146 427.551 394.327L428.051 393.827L427.956 394.542C427.206 400.3 431.744 408.651 435.103 411.035C437.486 412.816 439.679 414.839 441.645 417.073L441.69 417.148C442.654 419.727 443.119 419.762 443.139 419.762C443.157 419.753 443.171 419.739 443.179 419.722C442.605 418.222 442.739 416.773 443.549 415.868C443.867 415.508 444.283 415.247 444.745 415.116C445.208 414.986 445.699 414.992 446.158 415.133C446.963 415.348 448.917 416.278 449.697 420.186C451.056 426.839 445.483 428.938 443.919 429.382Z" fill="white"/>
<path d="M443.919 429.382C444.947 430.611 445.58 432.121 445.733 433.716C445.753 434.029 445.744 434.343 445.708 434.655C445.656 435 445.656 435.35 445.708 435.695L445.709 435.699C445.769 436.091 445.91 437.004 447.667 439.593C448.667 441.033 449.167 441.812 449.572 442.007C450.746 442.582 452.43 442.237 454.315 441.008C455.229 440.413 455.604 439.918 456.988 438.079L457.758 437.079C459.148 435.25 459.757 434.53 460.132 434.081C460.507 433.631 460.712 433.376 461.252 432.616C461.988 431.577 462.67 430.501 463.296 429.392C463.761 428.603 464.335 427.618 465.24 426.134C466.604 423.89 467.359 422.74 467.859 421.986C468.372 421.242 468.83 420.462 469.228 419.652L469.251 419.607C470.589 416.926 471.558 414.983 471.702 412.255C471.766 410.242 471.426 408.236 470.703 406.357C470.293 405.283 469.528 403.688 467.244 400.929C464.755 397.95 461.918 395.281 458.793 392.978C456.019 390.899 454.02 389.404 450.846 387.98C447.421 386.42 443.713 385.578 439.951 385.506C438.455 385.517 436.964 385.685 435.502 386.006C433.738 386.39 432.684 386.645 431.604 387.46C431.213 387.744 430.875 388.094 430.605 388.495C430.35 388.912 429.992 389.256 429.565 389.494C428.925 389.86 428.197 390.043 427.461 390.024C426.798 390.004 426.143 390.167 425.567 390.494C425.292 390.648 425.053 390.859 424.867 391.114C424.478 391.588 424.059 392.037 423.612 392.458C422.668 393.355 421.666 394.19 420.614 394.957C419.573 395.742 419 396.103 418.545 396.39L418.52 396.406C418.022 396.702 417.556 397.048 417.13 397.441C416.143 398.259 415.314 399.252 414.686 400.37C414.161 401.369 413.452 402.674 413.712 404.208C413.751 404.391 413.814 404.567 413.902 404.733C414.041 405.058 414.276 405.617 414.696 406.657L415.281 408.111L416.685 411.635C416.86 412.007 416.926 412.421 416.875 412.829V412.994C416.869 413.095 416.857 413.195 416.84 413.294C416.843 413.339 416.843 413.384 416.84 413.429C416.792 413.757 416.722 414.081 416.63 414.399C416.614 414.475 416.592 414.55 416.565 414.624C416.505 414.849 416.415 415.123 416.321 415.378L416.191 415.723L416.146 415.833L416.145 415.834C416.08 415.999 416.016 416.163 415.941 416.333L415.981 416.273C416.061 416.158 416.141 416.038 416.211 415.923C416.281 415.808 416.286 415.813 416.321 415.758C416.43 415.593 416.525 415.443 416.62 415.288C416.66 415.228 416.69 415.183 416.715 415.138L417.035 414.609L417.25 414.239L417.44 413.904C417.62 413.584 417.79 413.264 417.94 412.944L418.15 412.53C418.51 411.81 418.829 411.11 419.099 410.445C419.194 410.226 419.279 410.011 419.359 409.801L419.384 409.746C419.454 409.556 419.529 409.366 419.589 409.176C419.749 408.741 419.879 408.321 419.984 407.931C420.069 407.627 420.144 407.332 420.219 407.032C420.431 406.147 420.689 405.275 420.994 404.418C422.38 400.598 424.623 397.146 427.551 394.327L428.051 393.827L427.956 394.542C427.206 400.3 431.744 408.651 435.103 411.035C437.486 412.816 439.679 414.839 441.645 417.073L441.69 417.148C442.654 419.727 443.119 419.762 443.139 419.762C443.157 419.753 443.171 419.739 443.179 419.722C442.605 418.222 442.739 416.773 443.549 415.868C443.867 415.508 444.283 415.247 444.745 415.116C445.208 414.986 445.699 414.992 446.158 415.133C446.963 415.348 448.917 416.278 449.697 420.186C451.056 426.839 445.483 428.938 443.919 429.382Z" fill="white"/>
<path d="M436.487 373.551L436.517 373.221C436.632 372.022 436.622 367.689 431.549 362.186C429.05 359.467 424.862 354.059 425.127 348.392C425.257 345.533 426.526 343.004 428.89 340.895C431.53 338.588 434.883 337.259 438.386 337.131C442.929 336.916 451.156 337.806 455.179 346.188C455.179 346.188 458.678 351.395 452.145 358.952C445.913 366.144 445.238 367.694 446.123 372.806L446.173 373.086L436.927 373.496C436.882 373.49 436.837 373.49 436.792 373.496L436.487 373.551ZM439.636 337.566C439.226 337.566 438.826 337.566 438.431 337.596C435.035 337.713 431.784 338.999 429.225 341.235C426.961 343.269 425.726 345.678 425.627 348.397C425.372 353.894 429.46 359.172 431.914 361.836C436.777 367.104 437.112 371.387 437.037 372.956L445.603 372.577C444.768 367.529 445.603 365.729 451.786 358.582C458.063 351.335 454.784 346.442 454.784 346.392C451.321 339.235 444.868 337.581 439.641 337.581L439.636 337.566Z" fill="white"/>
<path fill-rule="evenodd" clip-rule="evenodd" d="M443.478 377.693H439.48C438.949 377.693 438.441 377.483 438.066 377.108C437.691 376.733 437.48 376.224 437.48 375.694V374.864L445.477 374.53V375.694C445.477 376.224 445.266 376.733 444.892 377.108C444.517 377.483 444.008 377.693 443.478 377.693ZM437.98 375.684V375.334L444.977 375.044V375.684C444.977 376.082 444.819 376.463 444.538 376.744C444.257 377.025 443.876 377.183 443.478 377.183H439.48C439.082 377.183 438.701 377.025 438.419 376.744C438.138 376.463 437.98 376.082 437.98 375.684Z" fill="white"/>
<path d="M441.478 379.715C441.014 379.715 440.569 379.53 440.241 379.202C439.913 378.874 439.729 378.429 439.729 377.966V377.216H443.228V377.966C443.228 378.429 443.043 378.874 442.715 379.202C442.387 379.53 441.942 379.715 441.478 379.715V379.715ZM440.229 377.716V377.966C440.229 378.297 440.36 378.615 440.595 378.849C440.829 379.083 441.147 379.215 441.478 379.215C441.81 379.215 442.127 379.083 442.362 378.849C442.596 378.615 442.728 378.297 442.728 377.966V377.716H440.229Z" fill="white"/>
<path d="M430.515 373.784L429.024 378.476L429.5 378.628L430.991 373.936L430.515 373.784Z" fill="white"/>
<path d="M425.739 369.041L423.807 374.283L424.276 374.456L426.208 369.214L425.739 369.041Z" fill="white"/>
<path d="M421.225 363.903L417.527 366.825L417.837 367.217L421.535 364.295L421.225 363.903Z" fill="white"/>
<path d="M418.036 357.191L414.17 358.625L414.344 359.094L418.21 357.66L418.036 357.191Z" fill="white"/>
<path d="M413.952 351.093L413.909 351.591L418.987 352.033L419.031 351.535L413.952 351.093Z" fill="white"/>
<path d="M416.257 344.312L416.106 344.788L420.798 346.279L420.949 345.802L416.257 344.312Z" fill="white"/>
<path d="M419.494 335.675L419.158 336.045L423.089 339.618L423.426 339.248L419.494 335.675Z" fill="white"/>
<path d="M426.224 328.741L425.827 329.044L429.358 333.68L429.755 333.377L426.224 328.741Z" fill="white"/>
<path d="M433.415 325.452L432.978 325.694L436.123 331.379L436.561 331.137L433.415 325.452Z" fill="white"/>
<path d="M441.271 323.627L440.787 323.752L442.552 330.595L443.036 330.47L441.271 323.627Z" fill="white"/>
<path d="M447.92 324.366L446.649 331.043L447.14 331.137L448.411 324.46L447.92 324.366Z" fill="white"/>
<path d="M453.652 326.18L451.223 331.477L451.677 331.686L454.107 326.389L453.652 326.18Z" fill="white"/>
<path d="M458.72 330.622L455.246 335.535L455.654 335.824L459.128 330.911L458.72 330.622Z" fill="white"/>
<path d="M462.329 335.735L457.359 340.808L457.716 341.157L462.686 336.085L462.329 335.735Z" fill="white"/>
<path d="M465.437 340.897L461.739 343.819L462.049 344.211L465.747 341.289L465.437 340.897Z" fill="white"/>
<path d="M468.04 350.138L462.743 352.237L462.927 352.701L468.224 350.602L468.04 350.138Z" fill="white"/>
<path d="M465.45 357.946L459.986 358.552L460.041 359.049L465.506 358.443L465.45 357.946Z" fill="white"/>
<path d="M458.633 364.227L458.599 364.726L464.173 365.112L464.207 364.614L458.633 364.227Z" fill="white"/>
<path d="M455.231 368.681L454.977 369.112L459.282 371.651L459.536 371.221L455.231 368.681Z" fill="white"/>
<path d="M452.604 372.013L452.292 372.403L455.605 375.054L455.917 374.664L452.604 372.013Z" fill="white"/>
<path d="M306.771 364.41L306.682 363.25C306.412 360.831 307.216 358.192 309.455 355.509C311.455 353.14 312.584 351.395 312.584 349.381C312.584 347.102 311.155 345.583 308.336 345.538C306.731 345.535 305.163 346.018 303.838 346.922L302.743 344.118C304.218 343.049 306.771 342.329 309.14 342.329C314.283 342.329 316.607 345.508 316.607 348.906C316.607 351.95 314.908 354.139 312.764 356.688C310.795 359.017 310.08 360.981 310.215 363.265L310.26 364.425L306.771 364.41ZM305.772 370.672C305.748 370.307 305.799 369.942 305.924 369.598C306.048 369.254 306.243 368.94 306.495 368.675C306.748 368.411 307.052 368.202 307.39 368.061C307.727 367.92 308.09 367.851 308.456 367.858C310.02 367.858 311.095 369.018 311.095 370.672C311.11 371.031 311.053 371.39 310.926 371.727C310.799 372.063 310.606 372.37 310.357 372.63C310.109 372.89 309.81 373.096 309.479 373.238C309.149 373.379 308.793 373.451 308.433 373.451C308.074 373.451 307.718 373.379 307.387 373.238C307.057 373.096 306.758 372.89 306.509 372.63C306.261 372.37 306.067 372.063 305.94 371.727C305.814 371.39 305.756 371.031 305.772 370.672Z" fill="white"/>
<path d="M308.426 373.711C308.036 373.715 307.649 373.64 307.289 373.489C306.929 373.339 306.604 373.116 306.334 372.835C306.063 372.554 305.853 372.221 305.716 371.856C305.579 371.491 305.518 371.101 305.537 370.712C305.515 370.315 305.575 369.917 305.713 369.544C305.851 369.171 306.064 368.831 306.339 368.543C306.614 368.256 306.945 368.028 307.312 367.874C307.679 367.72 308.073 367.643 308.471 367.648C310.17 367.648 311.36 368.908 311.36 370.712C311.38 371.105 311.318 371.499 311.179 371.868C311.039 372.236 310.825 372.572 310.549 372.854C310.274 373.135 309.943 373.357 309.577 373.505C309.212 373.652 308.82 373.722 308.426 373.711ZM308.471 368.123C307.823 368.157 307.213 368.438 306.764 368.906C306.316 369.375 306.063 369.997 306.057 370.646C306.052 371.294 306.294 371.921 306.734 372.397C307.174 372.874 307.779 373.165 308.426 373.211C308.754 373.223 309.082 373.167 309.387 373.045C309.693 372.923 309.969 372.738 310.198 372.503C310.428 372.267 310.605 371.986 310.719 371.677C310.833 371.369 310.881 371.04 310.86 370.712C310.86 369.153 309.9 368.123 308.471 368.123ZM310.52 364.674H306.522L306.417 363.285C306.122 360.641 307.071 357.972 309.246 355.363C311.195 353.074 312.319 351.365 312.319 349.396C312.319 347.152 310.86 345.842 308.321 345.802C306.765 345.795 305.243 346.26 303.958 347.137L303.693 347.337L302.443 344.033L302.598 343.918C304.098 342.819 306.737 342.079 309.141 342.079C314.838 342.079 316.857 345.757 316.857 348.906C316.857 351.975 315.243 354.134 312.954 356.848C311.075 359.072 310.33 360.986 310.455 363.25L310.52 364.674ZM307.021 364.175H310.02L309.985 363.275C309.84 360.876 310.625 358.857 312.594 356.528C314.808 353.894 316.378 351.805 316.378 348.906C316.378 346.007 314.488 342.579 309.161 342.579C306.936 342.579 304.522 343.233 303.068 344.213L303.958 346.547C305.28 345.732 306.803 345.301 308.356 345.303C311.175 345.347 312.854 346.877 312.854 349.396C312.854 351.515 311.684 353.309 309.665 355.688C307.581 358.187 306.667 360.726 306.946 363.235L307.021 364.175Z" fill="white"/>
<path d="M446.983 457.741C447.143 457.92 450.086 461.204 453.98 460.239L459.822 448.554C457.013 446.413 454.059 444.469 450.981 442.737C446.483 455.731 435.987 467.227 435.987 467.227C436.31 463.097 436.32 458.948 436.017 454.817C434.783 456.901 432.704 459.67 430.24 459.98C430.24 459.98 435.238 470.475 435.737 475.973C435.935 475.428 436.173 474.899 436.447 474.389C437.801 471.784 439.804 469.572 442.263 467.967C444.721 466.363 447.552 465.419 450.481 465.227L446.983 457.731" fill="#06F71E"/>
<path d="M435.597 476.183C435.297 476.148 435.487 475.993 435.487 475.993C434.988 470.605 430.065 460.19 430.015 460.085L429.865 459.775L430.205 459.73C432.534 459.435 434.533 456.826 435.802 454.687L436.202 454.012L436.262 454.792C436.552 458.691 436.56 462.607 436.287 466.507C438.396 464.068 446.863 453.862 450.741 442.652L450.841 442.377L451.096 442.512C454.185 444.253 457.152 446.202 459.977 448.345L460.142 448.47L454.145 460.465L454.035 460.49C451.276 461.184 448.987 459.825 447.752 458.825L450.851 465.463L450.496 465.493C442.205 466.212 438.271 471.46 436.662 474.524C436.395 475.022 436.163 475.538 435.967 476.068C435.967 476.068 435.892 476.213 435.597 476.183ZM430.599 460.19C431.384 461.864 435.043 469.891 435.862 475.024C435.957 474.809 436.077 474.564 436.217 474.289C437.573 471.709 439.554 469.511 441.978 467.894C444.403 466.277 447.194 465.293 450.096 465.033L446.733 457.861V457.751H446.983L447.167 457.586L447.197 457.621C447.597 458.061 450.286 460.844 453.805 460.03L459.502 448.64C456.827 446.623 454.025 444.778 451.116 443.117C446.618 455.897 436.277 467.297 436.172 467.412L435.672 467.946L435.722 467.227C436.016 463.365 436.044 459.487 435.807 455.622C434.558 457.581 432.744 459.715 430.604 460.17L430.599 460.19Z" fill="white"/>
<ellipse cx="295" cy="-42" rx="576" ry="347" fill="white"/>
<g clip-path="url(#clip1_459_2)">
<path d="M147.451 194.865C142.53 194.842 137.635 194.143 132.904 192.787C129.848 192.019 126.868 190.975 124 189.67C113.567 184.575 105.154 176.114 100.119 165.651C95.0836 155.189 93.7197 143.335 96.2471 132.003C101.37 109.071 122.015 92.4467 145.851 92.0726C151.545 91.9999 157.249 92.1661 162.943 91.9999C166.382 91.9064 166.84 93.2467 166.756 97.7977C166.694 101.528 166.995 103.461 166.756 107.45C166.518 111.44 166.362 112.781 163.203 112.708C157.686 112.573 152.158 112.604 146.578 112.708C129.289 112.947 115.781 126.579 115.781 143.557C115.846 151.655 119.09 159.404 124.814 165.134C130.537 170.863 138.283 174.115 146.381 174.188C151.909 174.313 157.436 174.271 163.006 174.188C165.364 174.188 167.099 174.5 166.975 177.43C166.788 182.293 167.266 187.166 166.871 191.976C166.805 192.757 166.448 193.485 165.871 194.015C165.293 194.544 164.537 194.837 163.754 194.834L147.451 194.865Z" fill="#FF6A00"/>
<path d="M495.031 110.796C495.048 111.801 494.838 112.796 494.417 113.708C493.996 114.62 493.375 115.425 492.6 116.064C492.454 116.181 492.302 116.288 492.143 116.386C488.849 118.464 485.503 118.267 482.854 115.41C481.763 114.299 481.128 112.821 481.072 111.265C481.016 109.71 481.544 108.19 482.552 107.004C484.963 103.887 488.371 103.606 491.758 105.404C492.397 105.778 492.972 106.252 493.462 106.806C494.481 107.883 495.044 109.313 495.031 110.796V110.796Z" fill="#606062"/>
<path d="M166.985 143.339C166.985 148.649 166.881 153.958 166.985 159.257C167.078 162.374 166.289 164.026 162.673 163.85C157.478 163.6 152.283 163.923 147.16 163.756C135.201 163.372 126.244 154.488 126.317 143.277C126.4 132.232 135.221 123.535 146.963 123.119C152.303 122.932 157.654 123.182 162.995 123.047C165.863 122.974 167.047 123.982 166.975 126.901C166.881 132.377 166.975 137.863 166.985 143.339Z" fill="#606062"/>
<path d="M464.629 159.725C460.473 164.785 455.278 165.959 449.48 164.681C446.824 164.22 444.419 162.827 442.696 160.754C440.973 158.681 440.044 156.062 440.076 153.366C439.9 147.35 443.277 142.882 449.116 141.199C452.809 140.249 456.645 139.992 460.431 140.44C462.312 140.617 464.587 141.739 464.93 138.674C465.242 136.222 465.076 133.707 462.572 132.346C459.216 130.528 455.704 130.33 453.47 133.884C450.695 138.31 446.56 137.167 443.246 136.107C441.541 135.567 441.697 134.507 441.77 133.271C441.896 131.023 442.813 128.892 444.357 127.255C450.727 120.231 466.697 120.158 473.17 127.151C474.28 128.344 475.144 129.745 475.711 131.273C476.278 132.801 476.537 134.427 476.474 136.055C476.412 143.588 476.474 151.132 476.422 158.665C476.422 160.847 477.388 163.632 473.534 164.11C468.359 164.733 466.572 164.12 464.629 159.725ZM459.61 148.025C456.317 148.025 451.963 147.391 451.828 152.129C451.714 155.86 455.236 156.576 458.27 156.441C461.657 156.296 464.899 155.402 464.982 150.997C464.982 148.108 462.416 148.025 459.61 148.025V148.025Z" fill="#FF6A00"/>
<path d="M226.055 143.63C226.055 142.435 226.055 141.24 226.055 140.045C226.055 133.042 228.133 127.109 234.97 124.023C242.191 120.75 249.464 120.958 256.093 125.53C265.497 132.014 265.32 155.662 255.782 161.844C249.08 166.198 241.796 166.343 234.627 162.883C227.831 159.652 225.961 153.615 226.055 146.674C226.065 145.687 226.055 144.659 226.055 143.63ZM250.669 143.537H250.773C250.773 141.843 250.857 140.139 250.773 138.435C250.566 134.455 248.124 132.627 244.373 132.637C240.622 132.647 237.962 134.216 237.785 138.258C237.602 141.994 237.636 145.738 237.889 149.469C238.191 153.283 241.121 154.54 244.435 154.561C247.75 154.582 250.15 153.096 250.669 149.646C250.805 147.612 250.805 145.571 250.669 143.537V143.537Z" fill="#FF6A00"/>
<path d="M279.274 128.231C281.809 125.488 283.919 123.358 287.036 122.485C295.182 120.21 302.808 125.249 303.131 133.562C303.442 142.456 303.131 151.371 303.245 160.275C303.297 165.138 299.806 163.933 297.073 164.099C294.112 164.276 291.545 164.234 291.68 160.026C291.878 153.522 291.774 147.007 291.68 140.502C291.618 135.203 289.602 132.865 285.446 132.855C280.989 132.855 278.817 135.276 278.744 140.669C278.651 147.007 278.526 153.355 278.744 159.683C278.921 164.068 276.438 164.203 273.175 164.161C269.912 164.12 266.941 164.348 267.086 159.579C267.304 149.646 267.086 139.713 267.2 129.769C267.2 127.171 265.787 123.306 270.473 123.067C274.204 122.859 278.911 121.259 279.274 128.231Z" fill="#FF6A00"/>
<path d="M424.512 158.312C421.945 161.657 419.836 163.86 416.708 164.722C408.76 166.925 401.424 162.063 401.05 153.709C400.666 144.825 400.998 135.899 400.925 126.995C400.925 122.402 404.043 123.015 407.025 122.932C410.007 122.849 412.615 122.849 412.542 126.995C412.428 133.665 412.542 140.347 412.542 147.028C412.542 151.101 413.695 154.249 418.444 154.415C422.517 154.561 424.595 151.921 424.678 146.768C424.678 140.263 424.844 133.749 424.678 127.244C424.543 122.724 427.379 122.922 430.486 122.922C433.593 122.922 436.357 122.641 436.263 127.203C436.076 137.479 436.263 147.755 436.159 158.031C436.159 160.442 437.51 164.265 432.876 163.974C429.406 163.767 424.013 166.582 424.512 158.312Z" fill="#FF6A00"/>
<path d="M323.257 165.034C316.659 164.712 310.508 163.486 307.38 156.67C305.905 153.418 306.341 151.329 310.57 151.475C313.906 151.62 317.262 150.82 319.485 154.81C320.659 156.888 323.641 156.774 326.156 156.046C327.777 155.579 329.013 154.748 329.107 152.929C329.13 152.224 328.914 151.532 328.493 150.966C328.072 150.4 327.472 149.993 326.79 149.812C323.392 148.596 319.89 147.734 316.493 146.466C309.292 143.879 306.196 139.754 306.747 133.728C307.297 127.701 310.996 123.94 318.29 122.423C324.608 121.124 330.759 121.623 335.954 125.79C338.479 127.868 341.554 131.224 338.853 133.925C336.598 136.18 331.871 136.107 328.899 133.468C326.821 131.608 324.867 130.351 322.052 130.787C320.4 131.016 318.997 131.608 318.664 133.406C318.332 135.203 319.454 136.398 321.013 136.918C323.776 137.853 326.623 138.559 329.429 139.391C338.271 141.988 341.513 146.03 340.713 153.438C340.006 160.005 334.582 164.369 326.374 164.93C325.335 165.096 324.296 165.034 323.257 165.034Z" fill="#FF6A00"/>
<path d="M187.475 143.485C187.273 140.234 187.5 136.971 188.15 133.78C189.948 126.507 196.66 121.945 205.461 121.956C214.708 121.966 221.171 126.288 222.802 133.562C223.28 135.64 224.319 138.757 221.306 139.11C218.293 139.463 214.033 141.438 211.955 137.5C209.877 133.562 207.56 131.92 203.403 132.959C198.967 134.05 199.008 137.645 199.019 141.157C199.019 143.547 199.019 145.947 199.019 148.347C199.112 151.672 200.712 153.937 204.1 154.488C207.217 155.008 209.783 154.041 211.373 150.914C212.786 148.025 218.553 146.269 221.452 147.932C224.766 149.833 223.072 152.815 222.314 155.205C220.236 161.824 213.513 165.377 204.255 165.034C196.12 164.743 190.114 160.462 188.233 153.657C187.491 150.32 187.236 146.894 187.475 143.485Z" fill="#FF6A00"/>
<path d="M362.211 164.047C352.652 164.047 348.703 160.12 348.703 150.664C348.703 147.069 348.703 143.474 348.703 139.879C348.703 136.284 349.659 132.824 343.726 132.824C340.526 132.824 342.001 128.98 341.752 126.798C341.503 124.616 342.074 122.86 344.682 122.995C348.932 123.223 349.638 120.646 349.295 117.384C348.786 112.573 351.623 112.334 355.353 112.272C359.364 112.199 360.704 113.903 360.185 117.467C359.603 121.447 360.652 123.577 365.307 122.964C369.515 122.413 369.287 125.592 369.38 128.418C369.484 131.473 368.642 133.614 365.058 133.084C360.621 132.377 359.811 134.601 360.153 138.279C360.356 140.8 360.356 143.333 360.153 145.854C359.842 150.384 360.486 153.553 366.253 153.802C370.211 153.979 368.964 157.397 368.632 160.037C368.372 162.021 368.559 163.912 365.847 163.974C364.621 164.068 363.416 164.047 362.211 164.047Z" fill="#FF6A00"/>
<path d="M385.641 128.959C387.896 125.592 390.098 123.098 393.787 122.257C396.343 121.685 397.694 122.444 398.13 125.104C399.169 131.068 398.13 132.73 392.145 134.185C387.387 135.349 385.36 138.611 385.288 143.225C385.194 148.877 385.121 154.54 385.288 160.192C385.433 165.065 381.973 163.943 379.22 164.078C376.466 164.213 373.682 164.348 373.754 160.067C373.921 149.781 373.754 139.494 373.817 129.208C373.817 126.236 372.902 122.735 378.056 122.891C382.139 123.005 386.493 122.267 385.641 128.959Z" fill="#FF6A00"/>
<path d="M482.282 142.726C482.282 137.531 482.386 132.232 482.282 126.995C482.168 122.922 484.682 122.839 487.675 122.932C490.917 123.078 493.982 121.893 493.649 129.063C493.223 138.185 493.421 145.417 493.649 157.979C493.774 165.564 490.761 163.871 487.654 164.078C484.547 164.286 482.147 164.078 482.292 159.922C482.448 154.218 482.282 148.462 482.282 142.726Z" fill="#FF6A00"/>
</g>
</g>
<defs>
<linearGradient id="paint0_linear_459_2" x1="284" y1="1102.26" x2="293.477" y2="423.868" gradientUnits="userSpaceOnUse">
<stop stop-color="#06F71E"/>
<stop offset="1" stop-color="#06F71E" stop-opacity="0"/>
</linearGradient>
<linearGradient id="paint1_linear_459_2" x1="651.012" y1="193.68" x2="593.923" y2="578.054" gradientUnits="userSpaceOnUse">
<stop stop-color="#06F71E"/>
<stop offset="1" stop-color="#62F706" stop-opacity="0"/>
</linearGradient>
<linearGradient id="paint2_linear_459_2" x1="285.458" y1="286.817" x2="260.644" y2="453.888" gradientUnits="userSpaceOnUse">
<stop stop-color="#06F71E"/>
<stop offset="1" stop-color="#62F706" stop-opacity="0"/>
</linearGradient>
<linearGradient id="paint3_linear_459_2" x1="556.35" y1="263.35" x2="525.017" y2="474.316" gradientUnits="userSpaceOnUse">
<stop stop-color="#06F71E"/>
<stop offset="1" stop-color="#62F706" stop-opacity="0"/>
</linearGradient>
<clipPath id="clip0_459_2">
<rect width="590" height="552" fill="white"/>
</clipPath>
<clipPath id="clip1_459_2">
<rect width="400" height="102.886" fill="white" transform="translate(95 92)"/>
</clipPath>
</defs>
</svg>
