<svg width="285" height="141" viewBox="0 0 285 141" fill="none" xmlns="http://www.w3.org/2000/svg">
<path d="M2.51267 113.122C6.00499 110.366 10.4166 109.008 15.684 109.008C24.7425 109.008 29.2717 114.154 29.2717 124.446V139.71H19.85V137.013H19.4221C17.1958 139.034 14.282 140.131 11.2753 140.077C8.1501 140.077 5.57712 139.21 3.49271 137.444C1.47191 135.666 0.431152 133.581 0.431152 131.072C0.431152 126.967 2.14551 124.087 5.02494 122.688C7.91593 121.216 10.7231 120.664 14.1547 120.664H19.85C19.85 118.028 17.5834 115.825 13.9697 115.825C11.336 115.825 8.57797 116.865 5.69854 118.886L2.51267 113.122ZM19.8008 127.64V126.906H14.704C11.5817 126.906 9.98878 127.947 9.98878 130.086C9.98878 131.861 11.336 133.087 13.7846 133.087C17.0312 133.093 19.8008 130.887 19.8008 127.64ZM15.2562 99.0945H22.9144L16.9098 106.383H11.336L15.2562 99.0945Z" fill="white"/>
<path d="M54.4005 109.814L52.3768 118.268C51.3361 117.655 49.8038 117.348 47.9045 117.348C44.7244 117.348 42.0242 119.678 42.0242 122.801V139.71H32.5215V109.447H42.0762V113H42.3827C43.9149 110.609 46.7943 109.016 49.5494 109.016C51.5847 109.008 53.1776 109.262 54.4005 109.814Z" fill="white"/>
<path d="M62.9791 128.681C62.9791 131.927 65.4913 133.645 68.9837 133.645C72.1637 133.645 75.844 132.54 77.3675 130.754L81.9006 135.226C78.469 138.533 74.0574 140.187 68.7293 140.187C63.2768 140.187 59.3567 138.961 56.8444 136.452C54.3928 133.946 53.168 130.883 53.1699 127.261V122.555C53.1699 119.065 54.5171 115.94 57.1508 113.182C59.7845 110.424 63.4069 109.008 67.8793 109.008C76.5176 109.008 81.5421 112.991 81.5421 118.626C81.5421 121.517 80.3857 123.896 77.9862 125.793C75.659 127.692 72.7188 128.684 69.2265 128.684L62.9791 128.681ZM68.3072 122.555C70.9438 122.555 72.7795 121.147 72.7795 118.759C72.7795 116.799 71.1259 115.449 68.6136 115.449C65.367 115.449 62.794 118.085 62.794 122.555H68.3072Z" fill="white"/>
<path d="M83.3769 113.121C86.8721 110.366 91.2809 109.008 96.5483 109.008C105.607 109.008 110.136 114.154 110.136 124.445V139.71H100.714V137.013H100.286C98.0601 139.034 95.1463 140.13 92.1395 140.077C89.0144 140.077 86.4414 139.21 84.357 137.443C82.3333 135.665 81.2954 133.584 81.2954 131.083C81.2954 126.978 83.0098 124.099 85.8892 122.699C88.7802 121.228 91.5873 120.676 95.019 120.676H100.714C100.714 118.039 98.4477 115.836 94.8339 115.836C92.2002 115.836 89.4422 116.877 86.5628 118.898L83.3769 113.121ZM100.654 127.64V126.906H95.5682C92.446 126.906 90.853 127.946 90.853 130.086C90.853 131.861 92.2002 133.087 94.6489 133.087C97.8955 133.092 100.654 130.887 100.654 127.64Z" fill="white"/>
<path d="M139.922 130.641C138.39 136.218 133.672 140.138 126.138 140.138C121.801 140.138 118.297 138.851 115.539 136.339C112.784 133.766 111.437 130.641 111.437 127.027V122.188C111.41 120.41 111.768 118.647 112.487 117.021C113.205 115.395 114.267 113.943 115.6 112.766C118.358 110.254 121.911 108.967 126.138 108.967C133.796 108.967 138.635 113.133 139.922 118.707L130.731 121.037C130.506 119.945 129.904 118.967 129.032 118.273C128.159 117.579 127.07 117.213 125.956 117.238C125.3 117.234 124.65 117.359 124.042 117.605C123.434 117.852 122.882 118.217 122.415 118.677C121.948 119.138 121.577 119.686 121.322 120.291C121.068 120.895 120.935 121.544 120.931 122.199V126.978C120.931 129.673 123.258 131.878 125.956 131.878C127.033 131.893 128.084 131.544 128.94 130.889C129.795 130.233 130.405 129.309 130.671 128.265L139.922 130.641Z" fill="white"/>
<path d="M149.416 128.681C149.416 131.927 151.928 133.645 155.42 133.645C158.6 133.645 162.281 132.54 163.804 130.754L168.337 135.226C164.906 138.533 160.497 140.187 155.166 140.187C149.713 140.187 145.793 138.961 143.281 136.452C140.833 133.946 139.608 130.883 139.606 127.261V122.555C139.606 119.065 140.954 115.94 143.587 113.182C146.221 110.424 149.846 109.008 154.319 109.008C162.954 109.008 167.979 112.991 167.979 118.626C167.979 121.517 166.822 123.896 164.426 125.793C162.113 127.692 159.158 128.684 155.666 128.684L149.416 128.681ZM154.747 122.555C157.38 122.555 159.219 121.147 159.219 118.759C159.219 116.799 157.565 115.449 155.053 115.449C151.806 115.449 149.233 118.085 149.233 122.555H154.747Z" fill="white"/>
<path d="M198.855 139.711H189.298V124.761C189.329 123.444 189.203 122.128 188.925 120.841C188.497 118.817 187.211 117.227 184.513 117.227C181.622 117.227 179.552 119.251 179.552 122.128V139.711H170V109.448H179.619V113.001H179.865C181.272 110.734 184.779 109.017 188.379 109.017C195.363 109.017 198.855 112.999 198.855 120.962V139.711Z" fill="white"/>
<path d="M212.881 109.447H219.007V115.879H212.881V127.764C212.881 130.641 213.922 131.812 216.862 131.812H219.007V139.71H216.434C206.94 139.71 203.324 136.278 203.324 127.764V115.879H199.042V109.447H203.329V101.728H212.887L212.881 109.447Z" fill="white"/>
<path d="M242.47 109.814L240.447 118.268C239.406 117.655 237.874 117.348 235.974 117.348C232.794 117.348 230.094 119.678 230.094 122.801V139.71H220.6V109.447H230.14V113H230.447C231.979 110.609 234.858 109.016 237.616 109.016C239.652 109.008 241.25 109.262 242.47 109.814Z" fill="white"/>
<path d="M241.737 113.121C245.226 110.366 249.635 109.008 254.905 109.008C263.975 109.008 268.505 114.154 268.493 124.445V139.71H259.071V137.013H258.643C256.419 139.033 253.507 140.129 250.502 140.077C247.377 140.077 244.804 139.21 242.723 137.443C240.699 135.665 239.658 133.584 239.658 131.083C239.658 126.978 241.373 124.099 244.252 122.699C247.143 121.228 249.95 120.676 253.382 120.676H259.077C259.077 118.039 256.81 115.836 253.197 115.836C250.563 115.836 247.805 116.877 244.926 118.898L241.737 113.121ZM259.011 127.64V126.906H253.925C250.803 126.906 249.21 127.946 249.21 130.086C249.21 131.861 250.557 133.087 253.009 133.087C256.255 133.092 259.011 130.887 259.011 127.64Z" fill="white"/>
<path d="M284.862 131.745V139.771H280.759C273.96 139.771 270.589 135.911 270.589 128.253V96.4521H280.207V128.192C280.207 130.58 281.433 131.745 283.882 131.745H284.862Z" fill="white"/>
<path fill-rule="evenodd" clip-rule="evenodd" d="M100.66 0.842529H185.237V85.4203H100.66V0.842529ZM111.512 29.6649C115.645 26.4187 120.859 24.8177 127.089 24.8177C137.802 24.8177 143.158 30.881 143.158 43.0074L143.158 60.9928H132.016V57.8147H131.51C128.877 60.1968 125.431 61.4882 121.875 61.4254C118.179 61.4254 115.136 60.4035 112.671 58.3222C110.277 56.2273 109.05 53.7748 109.05 50.8283C109.05 45.9914 111.077 42.5987 114.483 40.95C117.902 39.2162 121.222 38.5656 125.28 38.5656H132.016C132.016 35.459 129.335 32.8634 125.061 32.8634C121.947 32.8634 118.685 34.0897 115.28 36.4707L111.512 29.6649ZM131.944 45.9062V46.7714C131.944 50.5967 128.682 53.1957 124.843 53.1889C121.947 53.1889 120.353 51.7446 120.353 49.6531C120.353 47.1325 122.237 45.9062 125.93 45.9062H131.944ZM160.546 61.4948C169.456 61.4948 175.036 56.8758 176.848 50.3051L165.907 47.5051C165.592 48.7355 164.871 49.8246 163.86 50.597C162.848 51.3694 161.605 51.7801 160.331 51.763C157.141 51.763 154.388 49.164 154.388 45.9893V40.3586C154.393 39.586 154.55 38.8218 154.851 38.1097C155.152 37.3977 155.591 36.7517 156.143 36.2089C156.695 35.666 157.349 35.2368 158.068 34.9459C158.786 34.655 159.555 34.508 160.331 34.5134C161.649 34.483 162.936 34.9143 163.968 35.7322C165 36.55 165.712 37.7026 165.979 38.9893L176.848 36.2438C175.327 29.6764 169.603 24.7679 160.546 24.7679C155.547 24.7679 151.345 26.2838 148.084 29.2438C146.507 30.6307 145.251 32.341 144.402 34.2573C143.552 36.1735 143.128 38.2503 143.16 40.345L143.16 46.0472C143.16 50.3051 144.753 53.9873 148.012 57.0189C151.274 59.979 155.417 61.4948 160.546 61.4948Z" fill="white"/>
</svg>
