<svg width="765" height="111" viewBox="0 0 765 111" fill="none" xmlns="http://www.w3.org/2000/svg">
<path opacity="0.5" d="M16.2726 107.379L16.0716 108.136L16.0827 108.139L16.2726 107.379ZM1.58459 101.331L0.874546 101.002L0.590169 101.614L1.15433 101.985L1.58459 101.331ZM9.07259 85.2035L9.49406 84.5438L8.73958 84.0618L8.36255 84.8738L9.07259 85.2035ZM21.6006 90.6755L21.3797 91.4265L21.3865 91.4285L21.3934 91.4304L21.6006 90.6755ZM46.3686 80.8835L46.0967 81.6176L46.0967 81.6176L46.3686 80.8835ZM34.4166 78.4355L34.2993 79.2095L34.3094 79.211L34.3195 79.2123L34.4166 78.4355ZM18.7206 75.1235L18.9471 74.3741L18.9471 74.3741L18.7206 75.1235ZM7.92059 68.4995L7.34995 69.0355L7.35859 69.0445L7.92059 68.4995ZM7.63259 42.0035L7.00631 41.5338L7.00439 41.5364L7.63259 42.0035ZM20.0166 33.0755L19.7347 32.3451L19.7303 32.3469L20.0166 33.0755ZM55.5846 31.7795L55.4076 32.5421L55.4154 32.5439L55.4233 32.5455L55.5846 31.7795ZM69.1206 36.6755L69.8295 37.0076L70.1305 36.3652L69.5207 36.0026L69.1206 36.6755ZM61.6326 52.6595L61.2483 53.3415L61.9835 53.7557L62.3415 52.9916L61.6326 52.6595ZM28.5126 48.9155L28.1301 48.2325L28.1301 48.2325L28.5126 48.9155ZM28.8006 59.1395L29.0725 58.4054L29.0725 58.4054L28.8006 59.1395ZM41.1846 61.8755L41.3133 61.1032L41.3026 61.1016L41.1846 61.8755ZM56.7366 65.3315L56.5051 66.0793L56.5133 66.0819L56.5215 66.0842L56.7366 65.3315ZM67.2486 71.8115L66.678 72.3475L66.678 72.3475L67.2486 71.8115ZM67.3926 97.8755L68.0131 98.3528L68.0131 98.3528L67.3926 97.8755ZM54.7206 106.659L54.9912 107.394L54.9982 107.391L54.7206 106.659ZM35.1366 108.901C28.7676 108.901 22.5434 108.14 16.4625 106.62L16.0827 108.139C22.2898 109.691 28.6416 110.466 35.1366 110.466V108.901ZM16.4736 106.623C10.3773 105.004 5.56827 103.015 2.01485 100.677L1.15433 101.985C4.89691 104.448 9.87984 106.491 16.0716 108.136L16.4736 106.623ZM2.29463 101.661L9.78263 85.5332L8.36255 84.8738L0.874546 101.002L2.29463 101.661ZM8.65112 85.8632C12.1823 88.1192 16.4294 89.9705 21.3797 91.4265L21.8215 89.9245C16.9798 88.5004 12.8748 86.7037 9.49406 84.5438L8.65112 85.8632ZM21.3934 91.4304C26.3516 92.7915 31.2213 93.4743 36.0006 93.4743V91.9087C31.3719 91.9087 26.6416 91.2475 21.8078 89.9206L21.3934 91.4304ZM36.0006 93.4743C40.792 93.4743 44.5013 92.8856 47.0399 91.6291C48.3201 90.9954 49.3283 90.1793 50.0149 89.1598C50.7051 88.135 51.0394 86.9501 51.0394 85.6355H49.4738C49.4738 86.6729 49.2141 87.546 48.7163 88.2852C48.2149 89.0297 47.4411 89.6835 46.3453 90.2259C44.1319 91.3214 40.7132 91.9087 36.0006 91.9087V93.4743ZM51.0394 85.6355C51.0394 84.3661 50.6622 83.239 49.8905 82.2958C49.1287 81.3647 48.0229 80.6614 46.6405 80.1494L46.0967 81.6176C47.3063 82.0656 48.1445 82.6343 48.6787 83.2872C49.203 83.928 49.4738 84.6969 49.4738 85.6355H51.0394ZM46.6405 80.1494C43.9611 79.157 39.904 78.3325 34.5137 77.6587L34.3195 79.2123C39.6812 79.8825 43.5921 80.69 46.0967 81.6176L46.6405 80.1494ZM34.5339 77.6615C28.2189 76.7047 23.0267 75.6075 18.9471 74.3741L18.494 75.8728C22.6705 77.1355 27.9423 78.2463 34.2993 79.2095L34.5339 77.6615ZM18.9471 74.3741C14.9496 73.1656 11.4642 71.0293 8.48259 67.9545L7.35859 69.0445C10.521 72.3057 14.2356 74.5854 18.494 75.8728L18.9471 74.3741ZM8.49116 67.9635C5.69316 64.985 4.23943 60.6908 4.23943 54.9635H2.67375C2.67375 60.9481 4.19602 65.678 7.35002 69.0355L8.49116 67.9635ZM4.23943 54.9635C4.23943 50.2269 5.58237 46.0726 8.26079 42.4706L7.00439 41.5364C4.11481 45.4224 2.67375 49.9081 2.67375 54.9635H4.23943ZM8.25886 42.4732C11.0355 38.771 15.0343 35.8739 20.3028 33.8041L19.7303 32.3469C14.2468 34.5011 9.9897 37.5559 7.00632 41.5338L8.25886 42.4732ZM20.2985 33.8058C25.6605 31.7363 31.9929 30.6903 39.3126 30.6903V29.1247C31.8483 29.1247 25.3167 30.1907 19.7347 32.3452L20.2985 33.8058ZM39.3126 30.6903C44.7245 30.6903 50.0891 31.3074 55.4076 32.5421L55.7616 31.0169C50.3281 29.7556 44.8447 29.1247 39.3126 29.1247V30.6903ZM55.4233 32.5455C60.8389 33.6856 65.2634 35.2928 68.7205 37.3484L69.5207 36.0026C65.8738 33.8342 61.2743 32.1773 55.7459 31.0134L55.4233 32.5455ZM68.4117 36.3434L60.9237 52.3274L62.3415 52.9916L69.8295 37.0076L68.4117 36.3434ZM62.0168 51.9774C55.0798 48.0693 47.5069 46.1166 39.3126 46.1166V47.6823C47.2463 47.6823 54.5533 49.5697 61.2483 53.3415L62.0168 51.9774ZM39.3126 46.1166C34.4652 46.1166 30.7044 46.7908 28.1301 48.2325L28.8951 49.5985C31.1208 48.3522 34.56 47.6823 39.3126 47.6823V46.1166ZM28.1301 48.2325C25.5692 49.6666 24.1298 51.6174 24.1298 54.0995H25.6954C25.6954 52.3576 26.656 50.8524 28.8951 49.5985L28.1301 48.2325ZM24.1298 54.0995C24.1298 55.4487 24.4974 56.6429 25.2648 57.6377C26.0258 58.6242 27.1359 59.3578 28.5287 59.8736L29.0725 58.4054C27.8733 57.9612 27.0394 57.3748 26.5044 56.6813C25.9758 55.9961 25.6954 55.1503 25.6954 54.0995H24.1298ZM28.5287 59.8736C31.1994 60.8628 35.3934 61.784 41.0665 62.6494L41.3026 61.1016C35.6478 60.239 31.5858 59.3362 29.0725 58.4054L28.5287 59.8736ZM41.0559 62.6477C47.3731 63.7005 52.5193 64.8456 56.5051 66.0793L56.9681 64.5837C52.8899 63.3214 47.6681 62.1624 41.3133 61.1033L41.0559 62.6477ZM56.5215 66.0842C60.4125 67.1959 63.7951 69.2786 66.678 72.3475L67.8192 71.2755C64.7501 68.0084 61.1247 65.7711 56.9517 64.5788L56.5215 66.0842ZM66.678 72.3475C69.4803 75.3305 70.9298 79.5324 70.9298 85.0595H72.4954C72.4954 79.2586 70.9689 74.6284 67.8192 71.2755L66.678 72.3475ZM70.9298 85.0595C70.9298 89.6899 69.545 93.7934 66.7721 97.3982L68.0131 98.3528C71.0002 94.4696 72.4954 90.0291 72.4954 85.0595H70.9298ZM66.7721 97.3982C64.0009 101.001 59.9103 103.854 54.443 105.928L54.9982 107.391C60.6668 105.241 65.0242 102.238 68.0131 98.3528L66.7721 97.3982ZM54.45 105.925C49.0863 107.901 42.6545 108.901 35.1366 108.901V110.466C42.7866 110.466 49.4109 109.45 54.9912 107.394L54.45 105.925ZM100.405 104.643L100.034 105.333L100.046 105.34L100.405 104.643ZM85.2846 90.3875L84.6142 90.7918L84.6142 90.7918L85.2846 90.3875ZM85.2846 49.2035L84.6142 48.7992L84.6142 48.7992L85.2846 49.2035ZM100.405 35.0915L100.767 35.7854L100.771 35.7834L100.405 35.0915ZM144.325 35.0915L143.954 35.7811L143.962 35.7854L144.325 35.0915ZM159.445 49.2035L160.115 48.7992L160.115 48.7992L159.445 49.2035ZM159.445 90.3875L160.115 90.7918L160.115 90.7918L159.445 90.3875ZM144.325 104.643L144.687 105.337L144.695 105.333L144.325 104.643ZM136.549 85.4915L135.981 84.9519L135.981 84.9523L136.549 85.4915ZM136.549 54.2435L135.974 54.7756L135.981 54.7829L135.988 54.79L136.549 54.2435ZM108.181 54.2435L108.741 54.79L108.748 54.783L108.181 54.2435ZM108.181 85.4915L107.613 86.0311L107.62 86.038L108.181 85.4915ZM122.437 108.901C114.387 108.901 107.168 107.244 100.763 103.947L100.046 105.34C106.697 108.763 114.166 110.466 122.437 110.466V108.901ZM100.775 103.954C94.4625 100.562 89.5279 95.9067 85.9549 89.9832L84.6142 90.7918C88.3373 96.9643 93.4827 101.813 100.034 105.333L100.775 103.954ZM85.9549 89.9832C82.3869 84.0678 80.5954 77.3459 80.5954 69.7955H79.0297C79.0297 77.6051 80.8863 84.6112 84.6142 90.7918L85.9549 89.9832ZM80.5954 69.7955C80.5954 62.2451 82.3869 55.5232 85.9549 49.6078L84.6142 48.7992C80.8863 54.9798 79.0297 61.9859 79.0297 69.7955H80.5954ZM85.9549 49.6078C89.5267 43.6862 94.4586 39.0808 100.767 35.7854L100.042 34.3976C93.4866 37.8222 88.3385 42.6247 84.6142 48.7992L85.9549 49.6078ZM100.771 35.7834C107.175 32.3932 114.391 30.6903 122.437 30.6903V29.1247C114.163 29.1247 106.691 30.8778 100.038 34.3996L100.771 35.7834ZM122.437 30.6903C130.483 30.6903 137.649 32.3932 143.954 35.7811L144.695 34.4019C138.136 30.8778 130.71 29.1247 122.437 29.1247V30.6903ZM143.962 35.7854C150.271 39.0808 155.203 43.6862 158.774 49.6078L160.115 48.7992C156.391 42.6247 151.243 37.8222 144.687 34.3976L143.962 35.7854ZM158.774 49.6078C162.342 55.5232 164.134 62.2451 164.134 69.7955H165.699C165.699 61.9859 163.843 54.9798 160.115 48.7992L158.774 49.6078ZM164.134 69.7955C164.134 77.3459 162.342 84.0678 158.774 89.9832L160.115 90.7918C163.843 84.6112 165.699 77.6051 165.699 69.7955H164.134ZM158.774 89.9832C155.201 95.9067 150.267 100.562 143.954 103.954L144.695 105.333C151.246 101.813 156.392 96.9643 160.115 90.7918L158.774 89.9832ZM143.962 103.95C137.655 107.244 130.486 108.901 122.437 108.901V110.466C130.707 110.466 138.13 108.763 144.687 105.337L143.962 103.95ZM122.437 92.0343C128.39 92.0343 133.307 90.0408 137.116 86.0307L135.981 84.9523C132.495 88.6222 128.003 90.4687 122.437 90.4687V92.0343ZM137.116 86.031C141.025 81.9211 142.947 76.4813 142.947 69.7955H141.382C141.382 76.1657 139.56 81.1899 135.981 84.9519L137.116 86.031ZM142.947 69.7955C142.947 63.1104 141.025 57.7137 137.109 53.697L135.988 54.79C139.56 58.4532 141.382 63.4246 141.382 69.7955H142.947ZM137.123 53.7113C133.315 49.6028 128.397 47.5567 122.437 47.5567V49.1223C127.997 49.1223 132.486 51.0122 135.974 54.7756L137.123 53.7113ZM122.437 47.5567C116.477 47.5567 111.515 49.6024 107.613 53.7039L108.748 54.783C112.334 51.0126 116.877 49.1223 122.437 49.1223V47.5567ZM107.62 53.697C103.704 57.7137 101.782 63.1104 101.782 69.7955H103.347C103.347 63.4246 105.169 58.4532 108.741 54.79L107.62 53.697ZM101.782 69.7955C101.782 76.4813 103.704 81.9211 107.613 86.031L108.748 84.9519C105.169 81.1899 103.347 76.1657 103.347 69.7955H101.782ZM107.62 86.038C111.523 90.0411 116.483 92.0343 122.437 92.0343V90.4687C116.87 90.4687 112.326 88.6219 108.741 84.945L107.62 86.038ZM245.308 34.9475L244.918 35.6265L244.925 35.6303L244.932 35.6339L245.308 34.9475ZM259.276 48.9155L258.592 49.2957L258.594 49.3003L259.276 48.9155ZM259.276 90.8195L259.958 91.2043L259.96 91.1997L259.276 90.8195ZM245.308 104.787L245.689 105.471L245.693 105.469L245.308 104.787ZM201.388 99.6035L201.991 99.104L200.605 97.4317V99.6035H201.388ZM201.388 108.531V109.314H202.171V108.531H201.388ZM179.932 108.531H179.149V109.314H179.932V108.531ZM179.932 1.68349V0.900647H179.149V1.68349H179.932ZM202.396 1.68349H203.179V0.900647H202.396V1.68349ZM202.396 39.2675H201.613V41.2947L202.976 39.7936L202.396 39.2675ZM235.948 85.4915L235.381 84.9519L235.38 84.9523L235.948 85.4915ZM235.948 54.2435L235.374 54.7756L235.381 54.7829L235.387 54.79L235.948 54.2435ZM207.58 54.2435L207.013 53.7039L207.012 53.7043L207.58 54.2435ZM207.58 85.4915L207.006 86.0236L207.013 86.0309L207.019 86.038L207.58 85.4915ZM225.724 30.6903C232.797 30.6903 239.189 32.3391 244.918 35.6265L245.698 34.2685C239.715 30.8359 233.051 29.1247 225.724 29.1247V30.6903ZM244.932 35.6339C250.751 38.8255 255.302 43.3741 258.592 49.2957L259.96 48.5353C256.53 42.3609 251.768 37.5975 245.684 34.2611L244.932 35.6339ZM258.594 49.3003C261.878 55.1167 263.533 61.9398 263.533 69.7955H265.099C265.099 61.7152 263.394 54.6183 259.958 48.5306L258.594 49.3003ZM263.533 69.7955C263.533 77.6508 261.878 84.5242 258.592 90.4393L259.96 91.1997C263.394 85.0188 265.099 77.8761 265.099 69.7955H263.533ZM258.594 90.4347C255.304 96.2625 250.751 100.816 244.923 104.106L245.693 105.469C251.769 102.039 256.528 97.2805 259.958 91.2043L258.594 90.4347ZM244.927 104.104C239.196 107.298 232.801 108.901 225.724 108.901V110.466C233.047 110.466 239.708 108.805 245.689 105.471L244.927 104.104ZM225.724 108.901C215.244 108.901 207.377 105.605 201.991 99.104L200.785 100.103C206.535 107.042 214.891 110.466 225.724 110.466V108.901ZM200.605 99.6035V108.531H202.171V99.6035H200.605ZM201.388 107.749H179.932V109.314H201.388V107.749ZM180.715 108.531V1.68349H179.149V108.531H180.715ZM179.932 2.46633H202.396V0.900647H179.932V2.46633ZM201.613 1.68349V39.2675H203.179V1.68349H201.613ZM202.976 39.7936C208.465 33.7458 216.015 30.6903 225.724 30.6903V29.1247C215.657 29.1247 207.655 32.3092 201.816 38.7413L202.976 39.7936ZM221.836 92.0343C227.79 92.0343 232.706 90.0408 236.516 86.0307L235.38 84.9523C231.894 88.6222 227.402 90.4687 221.836 90.4687V92.0343ZM236.515 86.031C240.425 81.9211 242.347 76.4813 242.347 69.7955H240.781C240.781 76.1657 238.959 81.1899 235.381 84.9519L236.515 86.031ZM242.347 69.7955C242.347 63.1104 240.425 57.7137 236.508 53.697L235.387 54.79C238.959 58.4532 240.781 63.4246 240.781 69.7955H242.347ZM236.522 53.7113C232.714 49.6028 227.796 47.5567 221.836 47.5567V49.1223C227.396 49.1223 231.886 51.0122 235.374 54.7756L236.522 53.7113ZM221.836 47.5567C215.876 47.5567 210.914 49.6024 207.013 53.7039L208.147 54.783C211.734 51.0126 216.276 49.1223 221.836 49.1223V47.5567ZM207.012 53.7043C203.196 57.7219 201.325 63.1159 201.325 69.7955H202.891C202.891 63.419 204.668 58.4451 208.148 54.7827L207.012 53.7043ZM201.325 69.7955C201.325 76.4758 203.196 81.913 207.006 86.0236L208.154 84.9593C204.668 81.198 202.891 76.1711 202.891 69.7955H201.325ZM207.019 86.038C210.922 90.0411 215.882 92.0343 221.836 92.0343V90.4687C216.27 90.4687 211.725 88.6219 208.14 84.945L207.019 86.038ZM300.81 41.2835H300.027V43.7162L301.446 41.7401L300.81 41.2835ZM311.61 32.7875L311.309 32.0648L311.303 32.0672L311.61 32.7875ZM327.45 29.9075H328.233V29.1247H327.45V29.9075ZM327.45 50.6435L327.39 51.424L328.233 51.4889V50.6435H327.45ZM307.29 55.8275L307.836 56.3884L307.843 56.381L307.29 55.8275ZM301.818 108.531V109.314H302.601V108.531H301.818ZM279.354 108.531H278.571V109.314H279.354V108.531ZM279.354 31.0595V30.2766H278.571V31.0595H279.354ZM300.81 31.0595H301.593V30.2766H300.81V31.0595ZM301.446 41.7401C304.045 38.12 307.527 35.3754 311.916 33.5078L311.303 32.0672C306.668 34.0395 302.951 36.959 300.174 40.8269L301.446 41.7401ZM311.911 33.5101C316.407 31.6367 321.582 30.6903 327.45 30.6903V29.1247C321.414 29.1247 316.029 30.0983 311.309 32.0649L311.911 33.5101ZM326.667 29.9075V50.6435H328.233V29.9075H326.667ZM327.51 49.863C325.018 49.6713 323.309 49.5727 322.41 49.5727V51.1383C323.239 51.1383 324.89 51.2317 327.39 51.424L327.51 49.863ZM322.41 49.5727C315.824 49.5727 310.565 51.4448 306.736 55.2739L307.843 56.381C311.31 52.9142 316.131 51.1383 322.41 51.1383V49.5727ZM306.744 55.2666C302.891 59.0182 301.035 64.6331 301.035 71.9555H302.601C302.601 64.8779 304.393 59.7408 307.836 56.3884L306.744 55.2666ZM301.035 71.9555V108.531H302.601V71.9555H301.035ZM301.818 107.749H279.354V109.314H301.818V107.749ZM280.137 108.531V31.0595H278.571V108.531H280.137ZM279.354 31.8423H300.81V30.2766H279.354V31.8423ZM300.027 31.0595V41.2835H301.593V31.0595H300.027ZM415.56 76.1315V76.9143H416.285L416.34 76.1915L415.56 76.1315ZM356.952 76.1315V75.3487H355.978L356.187 76.2997L356.952 76.1315ZM364.44 87.5075L364.892 86.8684L364.892 86.8684L364.44 87.5075ZM389.784 89.9555L390.059 90.6886L390.071 90.6839L389.784 89.9555ZM398.568 84.1955L399.143 83.6648L398.601 83.0763L398.024 83.632L398.568 84.1955ZM410.52 97.1555L411.109 97.6705L411.572 97.1413L411.095 96.6248L410.52 97.1555ZM355.368 104.643L355.01 105.34L355.018 105.344L355.368 104.643ZM339.816 90.3875L339.145 90.7918L339.145 90.7918L339.816 90.3875ZM339.672 49.3475L338.999 48.9478L338.997 48.951L339.672 49.3475ZM354.504 35.0915L354.875 35.7808L354.879 35.7787L354.504 35.0915ZM396.264 34.8035L396.631 34.1122L396.631 34.1122L396.264 34.8035ZM410.664 48.9155L409.982 49.2993L409.985 49.3056L409.989 49.3119L410.664 48.9155ZM363 51.2195L362.499 50.6181L362.499 50.6181L363 51.2195ZM356.664 63.0275L355.89 62.9085L355.751 63.8103H356.664V63.0275ZM394.824 63.0275V63.8103H395.739L395.597 62.9062L394.824 63.0275ZM388.488 51.3635L387.977 51.9568L387.987 51.9649L388.488 51.3635ZM415.209 70.0835C415.209 70.3318 415.07 72.2985 414.779 76.0715L416.34 76.1915C416.626 72.4765 416.775 70.4112 416.775 70.0835H415.209ZM415.56 75.3487H356.952V76.9143H415.56V75.3487ZM356.187 76.2997C357.284 81.286 359.889 85.2476 363.988 88.1466L364.892 86.8684C361.118 84.1993 358.731 80.577 357.716 75.9633L356.187 76.2997ZM363.988 88.1466C368.082 91.0427 373.145 92.4663 379.128 92.4663V90.9007C373.398 90.9007 368.669 89.5403 364.892 86.8684L363.988 88.1466ZM379.128 92.4663C383.233 92.4663 386.881 91.88 390.059 90.6885L389.509 89.2225C386.542 90.335 383.087 90.9007 379.128 90.9007V92.4663ZM390.071 90.6839C393.343 89.3948 396.357 87.4153 399.111 84.759L398.024 83.632C395.403 86.1597 392.561 88.0202 389.497 89.2271L390.071 90.6839ZM397.992 84.7262L409.944 97.6862L411.095 96.6248L399.143 83.6648L397.992 84.7262ZM409.93 96.6405C402.82 104.779 392.406 108.901 378.552 108.901V110.466C392.73 110.466 403.627 106.236 411.109 97.6705L409.93 96.6405ZM378.552 108.901C369.918 108.901 362.313 107.241 355.718 103.943L355.018 105.344C361.863 108.766 369.714 110.466 378.552 110.466V108.901ZM355.726 103.947C349.126 100.553 344.054 95.898 340.486 89.9832L339.145 90.7918C342.874 96.9729 348.17 101.822 355.01 105.34L355.726 103.947ZM340.486 89.9832C336.918 84.0678 335.127 77.3459 335.127 69.7955H333.561C333.561 77.6051 335.418 84.6112 339.145 90.7918L340.486 89.9832ZM335.127 69.7955C335.127 62.3392 336.871 55.662 340.347 49.7439L338.997 48.951C335.369 55.1289 333.561 62.0838 333.561 69.7955H335.127ZM340.345 49.7472C343.921 43.7242 348.761 39.0728 354.875 35.7808L354.133 34.4022C347.767 37.8301 342.719 42.6827 338.999 48.9478L340.345 49.7472ZM354.879 35.7787C361.091 32.3903 368.016 30.6903 375.672 30.6903V29.1247C367.775 29.1247 360.589 30.8807 354.129 34.4042L354.879 35.7787ZM375.672 30.6903C383.14 30.6903 389.876 32.2962 395.897 35.4948L396.631 34.1122C390.364 30.7828 383.372 29.1247 375.672 29.1247V30.6903ZM395.897 35.4948C401.906 38.6876 406.598 43.284 409.982 49.2993L411.346 48.5317C407.818 42.259 402.909 37.4474 396.631 34.1122L395.897 35.4948ZM409.989 49.3119C413.46 55.2227 415.209 62.1377 415.209 70.0835H416.775C416.775 61.9013 414.971 54.7043 411.339 48.519L409.989 49.3119ZM375.816 46.1166C370.57 46.1166 366.114 47.6055 362.499 50.6181L363.501 51.8209C366.798 49.0735 370.886 47.6823 375.816 47.6823V46.1166ZM362.499 50.6181C358.878 53.6354 356.683 57.7526 355.89 62.9085L357.438 63.1465C358.18 58.3183 360.21 54.5635 363.501 51.8209L362.499 50.6181ZM356.664 63.8103H394.824V62.2447H356.664V63.8103ZM395.597 62.9062C394.803 57.843 392.606 53.7765 388.989 50.7621L387.987 51.9649C391.281 54.7105 393.309 58.42 394.05 63.1488L395.597 62.9062ZM388.999 50.7703C385.387 47.66 380.976 46.1166 375.816 46.1166V47.6823C380.639 47.6823 384.677 49.1149 387.977 51.9567L388.999 50.7703ZM530.625 38.5475L530.103 39.1307L530.107 39.135L530.625 38.5475ZM540.273 108.531V109.314H541.056V108.531H540.273ZM519.249 108.531H518.466V109.314H519.249V108.531ZM519.249 98.8835H520.032V96.002L518.574 98.4874L519.249 98.8835ZM480.081 106.659L479.75 107.369L479.756 107.372L480.081 106.659ZM470.145 98.3075L470.802 97.8815L470.802 97.8815L470.145 98.3075ZM474.753 69.2195L474.281 68.5945L474.276 68.5986L474.753 69.2195ZM517.809 63.0275V63.8103H518.592V63.0275H517.809ZM513.345 51.7955L512.82 52.3765L512.831 52.3858L513.345 51.7955ZM487.713 49.7795L487.949 50.5258L487.96 50.5222L487.713 49.7795ZM477.633 54.9635L476.937 55.3212L477.372 56.1693L478.119 55.5768L477.633 54.9635ZM469.569 39.2675L469.118 38.6275L468.561 39.0197L468.873 39.6252L469.569 39.2675ZM484.689 32.3555L484.482 31.6005L484.479 31.6014L484.689 32.3555ZM511.473 91.9715L511.866 92.6485L511.874 92.6438L511.882 92.6389L511.473 91.9715ZM517.809 84.0515L518.545 84.3174L518.592 84.1885V84.0515H517.809ZM517.809 76.1315H518.592V75.3487H517.809V76.1315ZM491.889 92.1155L491.406 92.732L491.421 92.7435L491.436 92.7543L491.889 92.1155ZM502.977 30.6903C514.859 30.6903 523.862 33.5419 530.103 39.1307L531.147 37.9643C524.524 32.0331 515.094 29.1247 502.977 29.1247V30.6903ZM530.107 39.135C536.318 44.604 539.49 52.947 539.49 64.3235H541.056C541.056 52.66 537.796 43.819 531.142 37.96L530.107 39.135ZM539.49 64.3235V108.531H541.056V64.3235H539.49ZM540.273 107.749H519.249V109.314H540.273V107.749ZM520.032 108.531V98.8835H518.466V108.531H520.032ZM518.574 98.4874C514.541 105.361 506.993 108.901 495.633 108.901V110.466C507.312 110.466 515.509 106.806 519.924 99.2796L518.574 98.4874ZM495.633 108.901C489.768 108.901 484.7 107.907 480.406 105.947L479.756 107.372C484.294 109.444 489.593 110.466 495.633 110.466V108.901ZM480.412 105.95C476.208 103.988 473.016 101.295 470.802 97.8815L469.488 98.7335C471.882 102.424 475.314 105.299 479.75 107.369L480.412 105.95ZM470.802 97.8815C468.585 94.4648 467.472 90.5827 467.472 86.2115H465.906C465.906 90.8643 467.096 95.0462 469.488 98.7335L470.802 97.8815ZM467.472 86.2115C467.472 79.2372 470.06 73.8099 475.23 69.8404L474.276 68.5986C468.694 72.8851 465.906 78.7858 465.906 86.2115H467.472ZM475.224 69.8444C480.497 65.8667 488.693 63.8103 499.953 63.8103V62.2447C488.556 62.2447 479.953 64.3163 474.281 68.5945L475.224 69.8444ZM499.953 63.8103H517.809V62.2447H499.953V63.8103ZM518.592 63.0275C518.592 57.9641 517.046 53.9806 513.859 51.2052L512.831 52.3858C515.596 54.7943 517.026 58.2989 517.026 63.0275H518.592ZM513.87 51.2145C510.694 48.346 506.007 46.9807 499.953 46.9807V48.5463C505.803 48.5463 510.044 49.869 512.82 52.3764L513.87 51.2145ZM499.953 46.9807C495.738 46.9807 491.575 47.667 487.465 49.0368L487.96 50.5222C491.915 49.204 495.911 48.5463 499.953 48.5463V46.9807ZM487.476 49.0333C483.464 50.3054 480.016 52.0743 477.146 54.3501L478.119 55.5768C480.818 53.4367 484.09 51.7496 487.949 50.5257L487.476 49.0333ZM478.329 54.6058L470.265 38.9097L468.873 39.6252L476.937 55.3212L478.329 54.6058ZM470.02 39.9074C474.159 36.9912 479.114 34.7217 484.899 33.1096L484.479 31.6014C478.551 33.2533 473.427 35.5918 469.118 38.6275L470.02 39.9074ZM484.896 33.1105C490.78 31.4972 496.806 30.6903 502.977 30.6903V29.1247C496.668 29.1247 490.502 29.9498 484.482 31.6005L484.896 33.1105ZM501.249 95.3463C505.211 95.3463 508.757 94.4536 511.866 92.6485L511.08 91.2945C508.237 92.9454 504.967 93.7807 501.249 93.7807V95.3463ZM511.882 92.6389C515.018 90.717 517.24 87.931 518.545 84.3174L517.073 83.7856C515.881 87.084 513.88 89.578 511.064 91.304L511.882 92.6389ZM518.592 84.0515V76.1315H517.026V84.0515H518.592ZM517.809 75.3487H502.401V76.9143H517.809V75.3487ZM502.401 75.3487C497.732 75.3487 494.095 76.1101 491.603 77.745C489.055 79.4176 487.794 81.9461 487.794 85.2035H489.36C489.36 82.4129 490.403 80.4054 492.462 79.054C494.579 77.6649 497.854 76.9143 502.401 76.9143V75.3487ZM487.794 85.2035C487.794 88.3166 489.003 90.851 491.406 92.732L492.371 91.499C490.359 89.924 489.36 87.8504 489.36 85.2035H487.794ZM491.436 92.7543C493.916 94.5104 497.213 95.3463 501.249 95.3463V93.7807C497.413 93.7807 494.47 92.9846 492.341 91.4767L491.436 92.7543ZM660.281 38.5475L659.759 39.1307L659.764 39.135L660.281 38.5475ZM669.929 108.531V109.314H670.712V108.531H669.929ZM648.905 108.531H648.122V109.314H648.905V108.531ZM648.905 98.8835H649.688V96.002L648.23 98.4874L648.905 98.8835ZM609.737 106.659L609.406 107.369L609.412 107.372L609.737 106.659ZM599.801 98.3075L600.458 97.8815L600.458 97.8815L599.801 98.3075ZM604.409 69.2195L603.938 68.5945L603.932 68.5986L604.409 69.2195ZM647.465 63.0275V63.8103H648.248V63.0275H647.465ZM643.001 51.7955L642.476 52.3765L642.487 52.3858L643.001 51.7955ZM617.369 49.7795L617.606 50.5258L617.617 50.5222L617.369 49.7795ZM607.289 54.9635L606.593 55.3212L607.028 56.1693L607.776 55.5768L607.289 54.9635ZM599.225 39.2675L598.774 38.6275L598.218 39.0197L598.529 39.6252L599.225 39.2675ZM614.345 32.3555L614.138 31.6005L614.135 31.6014L614.345 32.3555ZM641.129 91.9715L641.522 92.6485L641.53 92.6438L641.538 92.6389L641.129 91.9715ZM647.465 84.0515L648.201 84.3174L648.248 84.1885V84.0515H647.465ZM647.465 76.1315H648.248V75.3487H647.465V76.1315ZM621.545 92.1155L621.063 92.732L621.077 92.7435L621.093 92.7543L621.545 92.1155ZM632.633 30.6903C644.516 30.6903 653.518 33.5419 659.759 39.1307L660.803 37.9643C654.18 32.0331 644.751 29.1247 632.633 29.1247V30.6903ZM659.764 39.135C665.974 44.604 669.146 52.947 669.146 64.3235H670.712C670.712 52.66 667.452 43.819 660.798 37.96L659.764 39.135ZM669.146 64.3235V108.531H670.712V64.3235H669.146ZM669.929 107.749H648.905V109.314H669.929V107.749ZM649.688 108.531V98.8835H648.122V108.531H649.688ZM648.23 98.4874C644.197 105.361 636.65 108.901 625.289 108.901V110.466C636.969 110.466 645.165 106.806 649.58 99.2796L648.23 98.4874ZM625.289 108.901C619.424 108.901 614.356 107.907 610.062 105.947L609.412 107.372C613.95 109.444 619.25 110.466 625.289 110.466V108.901ZM610.068 105.95C605.864 103.988 602.672 101.295 600.458 97.8815L599.144 98.7335C601.538 102.424 604.97 105.299 609.406 107.369L610.068 105.95ZM600.458 97.8815C598.242 94.4648 597.128 90.5827 597.128 86.2115H595.562C595.562 90.8643 596.753 95.0462 599.144 98.7335L600.458 97.8815ZM597.128 86.2115C597.128 79.2372 599.716 73.8099 604.886 69.8404L603.932 68.5986C598.35 72.8851 595.562 78.7858 595.562 86.2115H597.128ZM604.881 69.8444C610.153 65.8667 618.35 63.8103 629.609 63.8103V62.2447C618.212 62.2447 609.609 64.3163 603.938 68.5945L604.881 69.8444ZM629.609 63.8103H647.465V62.2447H629.609V63.8103ZM648.248 63.0275C648.248 57.9641 646.702 53.9806 643.515 51.2052L642.487 52.3858C645.252 54.7943 646.682 58.2989 646.682 63.0275H648.248ZM643.526 51.2145C640.35 48.346 635.663 46.9807 629.609 46.9807V48.5463C635.459 48.5463 639.7 49.869 642.476 52.3764L643.526 51.2145ZM629.609 46.9807C625.394 46.9807 621.231 47.667 617.122 49.0368L617.617 50.5222C621.571 49.204 625.568 48.5463 629.609 48.5463V46.9807ZM617.132 49.0333C613.12 50.3054 609.672 52.0743 606.803 54.3501L607.776 55.5768C610.474 53.4367 613.746 51.7496 617.606 50.5257L617.132 49.0333ZM607.985 54.6058L599.921 38.9097L598.529 39.6252L606.593 55.3212L607.985 54.6058ZM599.676 39.9074C603.815 36.9912 608.771 34.7217 614.555 33.1096L614.135 31.6014C608.208 33.2533 603.083 35.5918 598.774 38.6275L599.676 39.9074ZM614.552 33.1105C620.436 31.4972 626.462 30.6903 632.633 30.6903V29.1247C626.324 29.1247 620.158 29.9498 614.138 31.6005L614.552 33.1105ZM630.905 95.3463C634.867 95.3463 638.413 94.4536 641.522 92.6485L640.736 91.2945C637.893 92.9454 634.623 93.7807 630.905 93.7807V95.3463ZM641.538 92.6389C644.674 90.717 646.896 87.931 648.201 84.3174L646.729 83.7856C645.538 87.084 643.536 89.578 640.72 91.304L641.538 92.6389ZM648.248 84.0515V76.1315H646.682V84.0515H648.248ZM647.465 75.3487H632.057V76.9143H647.465V75.3487ZM632.057 75.3487C627.388 75.3487 623.751 76.1101 621.26 77.745C618.711 79.4176 617.45 81.9461 617.45 85.2035H619.016C619.016 82.4129 620.059 80.4054 622.119 79.054C624.235 77.6649 627.51 76.9143 632.057 76.9143V75.3487ZM617.45 85.2035C617.45 88.3166 618.659 90.851 621.063 92.732L622.028 91.499C620.015 89.924 619.016 87.8504 619.016 85.2035H617.45ZM621.093 92.7543C623.572 94.5104 626.869 95.3463 630.905 95.3463V93.7807C627.069 93.7807 624.126 92.9846 621.998 91.4767L621.093 92.7543ZM706.224 104.643L705.858 105.335L705.87 105.342L706.224 104.643ZM690.816 90.3875L690.145 90.7919L690.15 90.7995L690.816 90.3875ZM690.816 49.2035L690.15 48.7914L690.145 48.7992L690.816 49.2035ZM706.224 35.0915L706.582 35.7875L706.586 35.7855L706.224 35.0915ZM749.856 35.0915L749.467 35.7712L749.474 35.7748L749.48 35.7783L749.856 35.0915ZM763.248 49.6355L763.618 50.3251L764.256 49.9828L763.965 49.3206L763.248 49.6355ZM745.824 58.9955L745.143 59.3819L745.521 60.0471L746.194 59.6851L745.824 58.9955ZM713.856 54.0995L713.302 53.5459L713.302 53.5459L713.856 54.0995ZM745.824 80.5955L746.199 79.9082L745.516 79.5358L745.139 80.2161L745.824 80.5955ZM763.248 90.0995L763.961 90.4226L764.261 89.7604L763.623 89.4122L763.248 90.0995ZM749.856 104.499L749.472 103.817L749.467 103.82L749.856 104.499ZM728.544 108.901C720.397 108.901 713.08 107.244 706.578 103.945L705.87 105.342C712.615 108.763 720.179 110.466 728.544 110.466V108.901ZM706.59 103.952C700.18 100.558 695.149 95.9006 691.481 89.9754L690.15 90.7995C693.97 96.9704 699.212 101.817 705.858 105.335L706.59 103.952ZM691.486 89.9832C687.918 84.0678 686.127 77.3459 686.127 69.7955H684.561C684.561 77.6051 686.418 84.6112 690.145 90.7918L691.486 89.9832ZM686.127 69.7955C686.127 62.2451 687.918 55.5232 691.486 49.6078L690.145 48.7992C686.418 54.9798 684.561 61.9859 684.561 69.7955H686.127ZM691.481 49.6155C695.148 43.6924 700.176 39.0847 706.582 35.7875L705.866 34.3954C699.216 37.8183 693.971 42.6186 690.15 48.7914L691.481 49.6155ZM706.586 35.7855C713.087 32.3938 720.4 30.6903 728.544 30.6903V29.1247C720.175 29.1247 712.609 30.8772 705.862 34.3974L706.586 35.7855ZM728.544 30.6903C736.591 30.6903 743.557 32.3936 749.467 35.7712L750.244 34.4118C744.059 30.8774 736.817 29.1247 728.544 29.1247V30.6903ZM749.48 35.7783C755.475 39.0565 759.818 43.7747 762.531 49.9504L763.965 49.3206C761.11 42.8243 756.525 37.8465 750.231 34.4046L749.48 35.7783ZM762.877 48.9459L745.453 58.3059L746.194 59.6851L763.618 50.3251L762.877 48.9459ZM746.505 58.6091C742.347 51.2832 736.291 47.5567 728.4 47.5567V49.1223C735.676 49.1223 741.237 52.4998 745.143 59.3819L746.505 58.6091ZM728.4 47.5567C722.354 47.5567 717.301 49.5469 713.302 53.5459L714.409 54.653C718.09 50.9721 722.733 49.1223 728.4 49.1223V47.5567ZM713.302 53.5459C709.284 57.5639 707.313 63.0124 707.313 69.7955H708.879C708.879 63.3305 710.747 58.3151 714.409 54.653L713.302 53.5459ZM707.313 69.7955C707.313 76.5785 709.284 82.0271 713.302 86.045L714.409 84.9379C710.747 81.2759 708.879 76.2605 708.879 69.7955H707.313ZM713.302 86.045C717.301 90.0441 722.354 92.0343 728.4 92.0343V90.4687C722.733 90.4687 718.09 88.6189 714.409 84.9379L713.302 86.045ZM728.4 92.0343C732.365 92.0343 735.882 91.1158 738.924 89.2553C741.964 87.3962 744.488 84.6224 746.509 80.9749L745.139 80.2161C743.224 83.6725 740.875 86.2268 738.107 87.9196C735.342 89.6111 732.115 90.4687 728.4 90.4687V92.0343ZM745.449 81.2827L762.873 90.7867L763.623 89.4122L746.199 79.9082L745.449 81.2827ZM762.535 89.7764C759.823 95.7615 755.478 100.439 749.472 103.817L750.24 105.182C756.522 101.648 761.105 96.7254 763.961 90.4226L762.535 89.7764ZM749.467 103.82C743.557 107.197 736.591 108.901 728.544 108.901V110.466C736.817 110.466 744.059 108.714 750.244 105.179L749.467 103.82Z" fill="#CACACA"/>
</svg>
