<svg width="913" height="110" viewBox="0 0 913 110" fill="none" xmlns="http://www.w3.org/2000/svg">
<path opacity="0.5" d="M21.9074 75.6435L21.5411 76.3355L21.5533 76.3417L21.9074 75.6435ZM6.49943 61.3875L5.82905 61.7919L5.83381 61.7995L6.49943 61.3875ZM6.49943 20.2035L5.83377 19.7914L5.82909 19.7992L6.49943 20.2035ZM21.9074 6.09149L22.2657 6.78755L22.2695 6.78554L21.9074 6.09149ZM65.5394 6.09149L65.151 6.77118L65.1574 6.77481L65.1638 6.77833L65.5394 6.09149ZM78.9314 20.6355L79.3019 21.3251L79.9391 20.9828L79.6481 20.3206L78.9314 20.6355ZM61.5074 29.9955L60.8266 30.3819L61.2041 31.0471L61.8779 30.6851L61.5074 29.9955ZM29.5394 25.0995L28.9859 24.5459L29.5394 25.0995ZM61.5074 51.5955L61.8823 50.9082L61.1996 50.5358L60.8227 51.2161L61.5074 51.5955ZM78.9314 61.0995L79.6445 61.4226L79.9446 60.7604L79.3063 60.4122L78.9314 61.0995ZM65.5394 75.4995L65.1556 74.8172L65.151 74.8198L65.5394 75.4995ZM44.2274 79.9007C36.0806 79.9007 28.7641 78.2437 22.2616 74.9453L21.5533 76.3417C28.2988 79.7633 35.8623 81.4663 44.2274 81.4663V79.9007ZM22.2737 74.9516C15.8636 71.5581 10.833 66.9006 7.16506 60.9754L5.83381 61.7995C9.65386 67.9704 14.8952 72.8169 21.5412 76.3354L22.2737 74.9516ZM7.16977 60.9832C3.60176 55.0678 1.81028 48.3459 1.81028 40.7955H0.244593C0.244593 48.6051 2.10111 55.6112 5.82909 61.7918L7.16977 60.9832ZM1.81028 40.7955C1.81028 33.2451 3.60176 26.5232 7.16977 20.6078L5.82909 19.7992C2.10111 25.9798 0.244593 32.9859 0.244593 40.7955H1.81028ZM7.16506 20.6155C10.8318 14.6924 15.8598 10.0847 22.2657 6.78754L21.5492 5.39544C14.8991 8.81826 9.65508 13.6186 5.83381 19.7914L7.16506 20.6155ZM22.2695 6.78554C28.7704 3.3938 36.0841 1.69033 44.2274 1.69033V0.124653C35.8588 0.124653 28.2925 1.87718 21.5453 5.39743L22.2695 6.78554ZM44.2274 1.69033C52.2747 1.69033 59.2402 3.39357 65.151 6.77118L65.9278 5.41179C59.7427 1.87741 52.5001 0.124653 44.2274 0.124653V1.69033ZM65.1638 6.77833C71.1581 10.0565 75.5011 14.7747 78.2147 20.9504L79.6481 20.3206C76.7937 13.8243 72.2087 8.84651 65.9151 5.40464L65.1638 6.77833ZM78.561 19.9459L61.137 29.3059L61.8779 30.6851L79.3019 21.3251L78.561 19.9459ZM62.1883 29.6091C58.0303 22.2832 51.9748 18.5566 44.0834 18.5566V20.1223C51.3601 20.1223 56.9206 23.4998 60.8266 30.3819L62.1883 29.6091ZM44.0834 18.5566C38.0378 18.5566 32.9849 20.5469 28.9859 24.5459L30.093 25.653C33.7739 21.9721 38.4171 20.1223 44.0834 20.1223V18.5566ZM28.9859 24.5459C24.968 28.5639 22.9966 34.0125 22.9966 40.7955H24.5623C24.5623 34.3305 26.4309 29.3151 30.093 25.653L28.9859 24.5459ZM22.9966 40.7955C22.9966 47.5785 24.968 53.0271 28.9859 57.045L30.093 55.9379C26.4309 52.2759 24.5623 47.2605 24.5623 40.7955H22.9966ZM28.9859 57.045C32.9849 61.0441 38.0378 63.0343 44.0834 63.0343V61.4687C38.4171 61.4687 33.7739 59.6189 30.093 55.9379L28.9859 57.045ZM44.0834 63.0343C48.0486 63.0343 51.5657 62.1158 54.6079 60.2553C57.6478 58.3962 60.1713 55.6224 62.1922 51.9749L60.8227 51.2161C58.9076 54.6725 56.5591 57.2268 53.791 58.9196C51.0252 60.6111 47.7982 61.4687 44.0834 61.4687V63.0343ZM61.1326 52.2827L78.5566 61.7867L79.3063 60.4122L61.8823 50.9082L61.1326 52.2827ZM78.2184 60.7764C75.5064 66.7615 71.1615 71.4389 65.1556 74.8172L65.9232 76.1818C72.2054 72.6481 76.7885 67.7254 79.6445 61.4226L78.2184 60.7764ZM65.151 74.8198C59.2402 78.1974 52.2747 79.9007 44.2274 79.9007V81.4663C52.5001 81.4663 59.7427 79.7136 65.9278 76.1792L65.151 74.8198ZM113.322 12.2835H112.539V14.7162L113.957 12.7401L113.322 12.2835ZM124.122 3.78749L123.82 3.06485L123.815 3.06716L124.122 3.78749ZM139.962 0.907494H140.744V0.124653H139.962V0.907494ZM139.962 21.6435L139.902 22.424L140.744 22.4889V21.6435H139.962ZM119.802 26.8275L120.348 27.3884L120.355 27.381L119.802 26.8275ZM114.33 79.5315V80.3143H115.112V79.5315H114.33ZM91.8656 79.5315H91.0827V80.3143H91.8656V79.5315ZM91.8656 2.05949V1.27665H91.0827V2.05949H91.8656ZM113.322 2.05949H114.104V1.27665H113.322V2.05949ZM113.957 12.7401C116.557 9.11998 120.039 6.37544 124.428 4.50782L123.815 3.06716C119.18 5.03954 115.463 7.959 112.686 11.8269L113.957 12.7401ZM124.423 4.51011C128.919 2.63673 134.093 1.69033 139.962 1.69033V0.124653C133.926 0.124653 128.54 1.09825 123.82 3.06487L124.423 4.51011ZM139.179 0.907494V21.6435H140.744V0.907494H139.179ZM140.022 20.863C137.53 20.6713 135.82 20.5727 134.922 20.5727V22.1383C135.751 22.1383 137.401 22.2317 139.902 22.424L140.022 20.863ZM134.922 20.5727C128.336 20.5727 123.077 22.4448 119.248 26.2739L120.355 27.381C123.822 23.9142 128.643 22.1383 134.922 22.1383V20.5727ZM119.255 26.2666C115.402 30.0182 113.547 35.6331 113.547 42.9555H115.112C115.112 35.8779 116.905 30.7408 120.348 27.3884L119.255 26.2666ZM113.547 42.9555V79.5315H115.112V42.9555H113.547ZM114.33 78.7487H91.8656V80.3143H114.33V78.7487ZM92.6484 79.5315V2.05949H91.0827V79.5315H92.6484ZM91.8656 2.84233H113.322V1.27665H91.8656V2.84233ZM112.539 2.05949V12.2835H114.104V2.05949H112.539ZM167.448 75.6435L167.077 76.3332L167.089 76.3395L167.448 75.6435ZM152.328 61.3875L151.657 61.7918L152.328 61.3875ZM152.328 20.2035L151.657 19.7992L152.328 20.2035ZM167.448 6.09149L167.81 6.78537L167.814 6.78335L167.448 6.09149ZM211.368 6.09149L210.997 6.78113L211.005 6.78536L211.368 6.09149ZM226.488 20.2035L227.158 19.7992L226.488 20.2035ZM226.488 61.3875L227.158 61.7918L226.488 61.3875ZM211.368 75.6435L211.73 76.3374L211.738 76.3331L211.368 75.6435ZM203.592 56.4915L203.024 55.952L203.024 55.9523L203.592 56.4915ZM203.592 25.2435L203.017 25.7756L203.024 25.7829L203.031 25.79L203.592 25.2435ZM175.224 25.2435L175.784 25.79L175.791 25.783L175.224 25.2435ZM175.224 56.4915L174.656 57.0311L174.663 57.038L175.224 56.4915ZM189.48 79.9007C181.43 79.9007 174.211 78.2443 167.806 74.9474L167.089 76.3395C173.74 79.7627 181.209 81.4663 189.48 81.4663V79.9007ZM167.818 74.9539C161.505 71.562 156.571 66.9067 152.998 60.9832L151.657 61.7918C155.38 67.9643 160.526 72.813 167.077 76.3331L167.818 74.9539ZM152.998 60.9832C149.43 55.0678 147.638 48.3459 147.638 40.7955H146.073C146.073 48.6051 147.929 55.6112 151.657 61.7918L152.998 60.9832ZM147.638 40.7955C147.638 33.2451 149.43 26.5232 152.998 20.6078L151.657 19.7992C147.929 25.9798 146.073 32.9859 146.073 40.7955H147.638ZM152.998 20.6078C156.57 14.6862 161.502 10.0808 167.81 6.78536L167.085 5.39762C160.53 8.82217 155.381 13.6247 151.657 19.7992L152.998 20.6078ZM167.814 6.78335C174.218 3.39317 181.434 1.69033 189.48 1.69033V0.124653C181.205 0.124653 173.734 1.87782 167.081 5.39962L167.814 6.78335ZM189.48 1.69033C197.526 1.69033 204.692 3.39322 210.997 6.78109L211.738 5.40189C205.179 1.87777 197.753 0.124653 189.48 0.124653V1.69033ZM211.005 6.78536C217.314 10.0808 222.245 14.6862 225.817 20.6078L227.158 19.7992C223.434 13.6247 218.286 8.82217 211.73 5.39762L211.005 6.78536ZM225.817 20.6078C229.385 26.5232 231.177 33.2451 231.177 40.7955H232.742C232.742 32.9859 230.886 25.9798 227.158 19.7992L225.817 20.6078ZM231.177 40.7955C231.177 48.3459 229.385 55.0678 225.817 60.9832L227.158 61.7918C230.886 55.6112 232.742 48.6051 232.742 40.7955H231.177ZM225.817 60.9832C222.244 66.9067 217.31 71.562 210.997 74.9539L211.738 76.3331C218.289 72.813 223.435 67.9643 227.158 61.7918L225.817 60.9832ZM211.005 74.9496C204.698 78.2442 197.529 79.9007 189.48 79.9007V81.4663C197.75 81.4663 205.173 79.7628 211.73 76.3374L211.005 74.9496ZM189.48 63.0343C195.433 63.0343 200.35 61.0408 204.159 57.0307L203.024 55.9523C199.538 59.6222 195.046 61.4687 189.48 61.4687V63.0343ZM204.159 57.031C208.068 52.9211 209.99 47.4813 209.99 40.7955H208.425C208.425 47.1656 206.603 52.1899 203.024 55.952L204.159 57.031ZM209.99 40.7955C209.99 34.1104 208.068 28.7137 204.152 24.697L203.031 25.79C206.603 29.4532 208.425 34.4246 208.425 40.7955H209.99ZM204.166 24.7113C200.358 20.6028 195.44 18.5566 189.48 18.5566V20.1223C195.04 20.1223 199.529 22.0122 203.017 25.7756L204.166 24.7113ZM189.48 18.5566C183.52 18.5566 178.558 20.6024 174.656 24.7039L175.791 25.783C179.377 22.0126 183.919 20.1223 189.48 20.1223V18.5566ZM174.663 24.697C170.747 28.7137 168.825 34.1104 168.825 40.7955H170.39C170.39 34.4246 172.212 29.4532 175.784 25.79L174.663 24.697ZM168.825 40.7955C168.825 47.4813 170.747 52.9211 174.656 57.031L175.791 55.952C172.212 52.1899 170.39 47.1656 170.39 40.7955H168.825ZM174.663 57.038C178.566 61.0411 183.526 63.0343 189.48 63.0343V61.4687C183.913 61.4687 179.369 59.6219 175.784 55.945L174.663 57.038ZM317.247 9.54749L316.698 10.1056L316.703 10.11L317.247 9.54749ZM326.175 79.5315V80.3143H326.958V79.5315H326.175ZM303.711 79.5315H302.928V80.3143H303.711V79.5315ZM299.679 24.9555L299.09 25.4711L299.098 25.4802L299.679 24.9555ZM274.479 25.6755L275.04 26.2212L275.048 26.2135L274.479 25.6755ZM269.439 79.5315V80.3143H270.222V79.5315H269.439ZM246.975 79.5315H246.192V80.3143H246.975V79.5315ZM246.975 2.05949V1.27665H246.192V2.05949H246.975ZM268.431 2.05949H269.214V1.27665H268.431V2.05949ZM268.431 11.1315H267.648V13.152L269.009 11.6589L268.431 11.1315ZM279.519 3.64349L279.804 4.37251L279.811 4.36984L279.818 4.36704L279.519 3.64349ZM294.063 1.69033C303.495 1.69033 311.013 4.51382 316.698 10.1056L317.796 8.98938C311.769 3.06116 303.831 0.124653 294.063 0.124653V1.69033ZM316.703 10.11C322.453 15.6748 325.392 23.9833 325.392 35.1795H326.958C326.958 23.7196 323.945 14.9402 317.791 8.98494L316.703 10.11ZM325.392 35.1795V79.5315H326.958V35.1795H325.392ZM326.175 78.7487H303.711V80.3143H326.175V78.7487ZM304.494 79.5315V38.6355H302.928V79.5315H304.494ZM304.494 38.6355C304.494 32.3972 303.132 27.6105 300.26 24.4308L299.098 25.4802C301.602 28.2525 302.928 32.5858 302.928 38.6355H304.494ZM300.268 24.44C297.396 21.1576 293.269 19.5647 288.015 19.5647V21.1303C292.937 21.1303 296.586 22.6094 299.09 25.471L300.268 24.44ZM288.015 19.5647C282.173 19.5647 277.442 21.4041 273.91 25.1375L275.048 26.2135C278.236 22.8429 282.529 21.1303 288.015 21.1303V19.5647ZM273.918 25.1298C270.364 28.785 268.656 34.2003 268.656 41.2275H270.222C270.222 34.4307 271.874 29.4779 275.04 26.2212L273.918 25.1298ZM268.656 41.2275V79.5315H270.222V41.2275H268.656ZM269.439 78.7487H246.975V80.3143H269.439V78.7487ZM247.758 79.5315V2.05949H246.192V79.5315H247.758ZM246.975 2.84233H268.431V1.27665H246.975V2.84233ZM267.648 2.05949V11.1315H269.214V2.05949H267.648ZM269.009 11.6589C271.899 8.49018 275.492 6.06001 279.804 4.37251L279.234 2.91448C274.714 4.68298 270.915 7.2448 267.852 10.604L269.009 11.6589ZM279.818 4.36704C284.13 2.58611 288.875 1.69033 294.063 1.69033V0.124653C288.691 0.124653 283.74 1.05288 279.22 2.91994L279.818 4.36704ZM362.213 75.6435L361.843 76.3332L361.855 76.3395L362.213 75.6435ZM347.093 61.3875L346.423 61.7918L347.093 61.3875ZM347.093 20.2035L346.423 19.7992L347.093 20.2035ZM362.213 6.09149L362.576 6.78537L362.579 6.78335L362.213 6.09149ZM406.133 6.09149L405.763 6.78113L405.771 6.78536L406.133 6.09149ZM421.253 20.2035L421.924 19.7992L421.253 20.2035ZM421.253 61.3875L421.924 61.7918L421.253 61.3875ZM406.133 75.6435L406.496 76.3374L406.504 76.3331L406.133 75.6435ZM398.357 56.4915L397.79 55.952L397.79 55.9523L398.357 56.4915ZM398.357 25.2435L397.783 25.7756L397.79 25.7829L397.797 25.79L398.357 25.2435ZM369.989 25.2435L370.55 25.79L370.556 25.783L369.989 25.2435ZM369.989 56.4915L369.422 57.0311L369.429 57.038L369.989 56.4915ZM384.245 79.9007C376.196 79.9007 368.977 78.2443 362.571 74.9474L361.855 76.3395C368.506 79.7627 375.975 81.4663 384.245 81.4663V79.9007ZM362.584 74.9539C356.271 71.562 351.336 66.9067 347.764 60.9832L346.423 61.7918C350.146 67.9643 355.291 72.813 361.843 76.3331L362.584 74.9539ZM347.764 60.9832C344.195 55.0678 342.404 48.3459 342.404 40.7955H340.838C340.838 48.6051 342.695 55.6112 346.423 61.7918L347.764 60.9832ZM342.404 40.7955C342.404 33.2451 344.195 26.5232 347.764 20.6078L346.423 19.7992C342.695 25.9798 340.838 32.9859 340.838 40.7955H342.404ZM347.764 20.6078C351.335 14.6862 356.267 10.0808 362.576 6.78536L361.851 5.39762C355.295 8.82217 350.147 13.6247 346.423 19.7992L347.764 20.6078ZM362.579 6.78335C368.983 3.39317 376.199 1.69033 384.245 1.69033V0.124653C375.971 0.124653 368.499 1.87782 361.847 5.39962L362.579 6.78335ZM384.245 1.69033C392.291 1.69033 399.457 3.39322 405.763 6.78109L406.504 5.40189C399.945 1.87777 392.519 0.124653 384.245 0.124653V1.69033ZM405.771 6.78536C412.079 10.0808 417.011 14.6862 420.583 20.6078L421.924 19.7992C418.199 13.6247 413.051 8.82217 406.496 5.39762L405.771 6.78536ZM420.583 20.6078C424.151 26.5232 425.942 33.2451 425.942 40.7955H427.508C427.508 32.9859 425.652 25.9798 421.924 19.7992L420.583 20.6078ZM425.942 40.7955C425.942 48.3459 424.151 55.0678 420.583 60.9832L421.924 61.7918C425.652 55.6112 427.508 48.6051 427.508 40.7955H425.942ZM420.583 60.9832C417.01 66.9067 412.075 71.562 405.763 74.9539L406.504 76.3331C413.055 72.813 418.2 67.9643 421.924 61.7918L420.583 60.9832ZM405.771 74.9496C399.464 78.2442 392.295 79.9007 384.245 79.9007V81.4663C392.516 81.4663 399.938 79.7628 406.496 76.3374L405.771 74.9496ZM384.245 63.0343C390.199 63.0343 395.115 61.0408 398.925 57.0307L397.79 55.9523C394.303 59.6222 389.811 61.4687 384.245 61.4687V63.0343ZM398.924 57.031C402.834 52.9211 404.756 47.4813 404.756 40.7955H403.19C403.19 47.1656 401.368 52.1899 397.79 55.952L398.924 57.031ZM404.756 40.7955C404.756 34.1104 402.834 28.7137 398.918 24.697L397.797 25.79C401.368 29.4532 403.19 34.4246 403.19 40.7955H404.756ZM398.931 24.7113C395.123 20.6028 390.205 18.5566 384.245 18.5566V20.1223C389.805 20.1223 394.295 22.0122 397.783 25.7756L398.931 24.7113ZM384.245 18.5566C378.285 18.5566 373.323 20.6024 369.422 24.7039L370.556 25.783C374.143 22.0126 378.685 20.1223 384.245 20.1223V18.5566ZM369.429 24.697C365.512 28.7137 363.59 34.1104 363.59 40.7955H365.156C365.156 34.4246 366.978 29.4532 370.55 25.79L369.429 24.697ZM363.59 40.7955C363.59 47.4813 365.512 52.9211 369.422 57.031L370.556 55.952C366.978 52.1899 365.156 47.1656 365.156 40.7955H363.59ZM369.429 57.038C373.332 61.0411 378.291 63.0343 384.245 63.0343V61.4687C378.679 61.4687 374.135 59.6219 370.55 55.945L369.429 57.038ZM521.661 2.05949H522.443V1.27665H521.661V2.05949ZM510.573 98.2515L510.038 97.6797L510.573 98.2515ZM456.861 105.883L456.655 106.639L456.861 105.883ZM440.157 97.9635L439.472 97.5844L439.148 98.1685L439.674 98.58L440.157 97.9635ZM449.085 81.8355L449.582 81.2312L448.856 80.6328L448.4 81.4563L449.085 81.8355ZM461.469 88.1715L461.712 87.4273L461.699 87.4233L461.469 88.1715ZM493.581 85.2915L493.05 84.7163L493.042 84.7233L493.034 84.7306L493.581 85.2915ZM499.197 66.1395H499.979V64.1168L498.618 65.6125L499.197 66.1395ZM455.133 71.1795L454.76 71.868L454.767 71.8717L454.774 71.8751L455.133 71.1795ZM441.165 57.9315L441.833 57.5237L441.165 57.9315ZM441.165 18.7635L441.833 19.1712L441.165 18.7635ZM455.133 5.65949L455.496 6.35275L455.5 6.35054L455.133 5.65949ZM500.349 11.9955L499.735 12.4816L501.131 14.2444V11.9955H500.349ZM500.349 2.05949V1.27665H499.566V2.05949H500.349ZM493.725 52.1715L494.256 52.7467L494.256 52.7462L493.725 52.1715ZM493.725 24.6675L493.186 25.2354L493.193 25.2425L493.201 25.2494L493.725 24.6675ZM464.493 24.6675L465.016 25.2494L465.024 25.2422L464.493 24.6675ZM464.493 52.1715L463.961 52.7462L463.969 52.7534L464.493 52.1715ZM520.878 2.05949V66.5715H522.443V2.05949H520.878ZM520.878 66.5715C520.878 80.6525 517.216 90.9675 510.038 97.6797L511.107 98.8233C518.713 91.7115 522.443 80.9065 522.443 66.5715H520.878ZM510.038 97.6797C502.841 104.41 492.263 107.837 478.173 107.837V109.402C492.499 109.402 503.521 105.917 511.107 98.8233L510.038 97.6797ZM478.173 107.837C470.749 107.837 463.714 106.933 457.066 105.128L456.655 106.639C463.447 108.482 470.62 109.402 478.173 109.402V107.837ZM457.066 105.128C450.423 103.325 444.955 100.725 440.639 97.347L439.674 98.58C444.19 102.114 449.858 104.794 456.655 106.639L457.066 105.128ZM440.841 98.3426L449.769 82.2146L448.4 81.4563L439.472 97.5844L440.841 98.3426ZM448.587 82.4398C451.946 85.2061 456.171 87.3605 461.238 88.9197L461.699 87.4233C456.782 85.9105 452.751 83.8409 449.582 81.2312L448.587 82.4398ZM461.225 88.9156C466.292 90.5719 471.366 91.4023 476.445 91.4023V89.8367C471.539 89.8367 466.629 89.0351 461.712 87.4274L461.225 88.9156ZM476.445 91.4023C484.319 91.4023 490.271 89.6062 494.127 85.8524L493.034 84.7306C489.594 88.0808 484.122 89.8367 476.445 89.8367V91.4023ZM494.112 85.8667C498.071 82.2115 499.979 76.6853 499.979 69.4515H498.414C498.414 76.4257 496.578 81.4595 493.05 84.7163L494.112 85.8667ZM499.979 69.4515V66.1395H498.414V69.4515H499.979ZM498.618 65.6125C492.94 71.8488 485.009 75.0047 474.717 75.0047V76.5703C485.352 76.5703 493.741 73.2942 499.775 66.6665L498.618 65.6125ZM474.717 75.0047C467.73 75.0047 461.326 73.4951 455.492 70.4838L454.774 71.8751C460.843 75.0079 467.495 76.5703 474.717 76.5703V75.0047ZM455.505 70.491C449.77 67.3885 445.217 63.0692 441.833 57.5237L440.496 58.3392C444.025 64.1218 448.783 68.6345 454.76 71.868L455.505 70.491ZM441.833 57.5237C438.46 51.9962 436.763 45.6125 436.763 38.3475H435.198C435.198 45.8665 436.957 52.5388 440.496 58.3392L441.833 57.5237ZM436.763 38.3475C436.763 31.0825 438.46 24.6988 441.833 19.1712L440.496 18.3557C436.957 24.1562 435.198 30.8285 435.198 38.3475H436.763ZM441.833 19.1712C445.215 13.6278 449.766 9.35866 455.496 6.35273L454.769 4.96625C448.787 8.10432 444.026 12.5712 440.496 18.3557L441.833 19.1712ZM455.5 6.35054C461.333 3.24606 467.734 1.69033 474.717 1.69033V0.124653C467.491 0.124653 460.836 1.73692 454.765 4.96844L455.5 6.35054ZM474.717 1.69033C485.76 1.69033 494.056 5.31366 499.735 12.4816L500.962 11.5094C494.929 3.89333 486.137 0.124653 474.717 0.124653V1.69033ZM501.131 11.9955V2.05949H499.566V11.9955H501.131ZM500.349 2.84233H521.661V1.27665H500.349V2.84233ZM479.181 58.1383C485.294 58.1383 490.343 56.3584 494.256 52.7467L493.194 51.5963C489.618 54.8966 484.971 56.5727 479.181 56.5727V58.1383ZM494.256 52.7462C498.271 49.0328 500.267 44.2095 500.267 38.3475H498.702C498.702 43.8135 496.859 48.2062 493.193 51.5968L494.256 52.7462ZM500.267 38.3475C500.267 32.4855 498.27 27.7054 494.248 24.0856L493.201 25.2494C496.859 28.5416 498.702 32.8815 498.702 38.3475H500.267ZM494.263 24.0996C490.352 20.3884 485.3 18.5566 479.181 18.5566V20.1223C484.965 20.1223 489.61 21.8426 493.186 25.2354L494.263 24.0996ZM479.181 18.5566C473.061 18.5566 467.966 20.3884 463.961 24.0928L465.024 25.2422C468.699 21.8426 473.396 20.1223 479.181 20.1223V18.5566ZM463.969 24.0856C459.947 27.7054 457.95 32.4855 457.95 38.3475H459.515C459.515 32.8815 461.358 28.5416 465.016 25.2494L463.969 24.0856ZM457.95 38.3475C457.95 44.2095 459.947 49.0328 463.961 52.7462L465.024 51.5968C461.359 48.2062 459.515 43.8135 459.515 38.3475H457.95ZM463.969 52.7534C467.974 56.3583 473.067 58.1383 479.181 58.1383V56.5727C473.391 56.5727 468.691 54.8967 465.016 51.5896L463.969 52.7534ZM564.025 12.2835H563.242V14.7162L564.661 12.7401L564.025 12.2835ZM574.825 3.78749L574.524 3.06485L574.518 3.06716L574.825 3.78749ZM590.665 0.907494H591.448V0.124653H590.665V0.907494ZM590.665 21.6435L590.605 22.424L591.448 22.4889V21.6435H590.665ZM570.505 26.8275L571.051 27.3884L571.058 27.381L570.505 26.8275ZM565.033 79.5315V80.3143H565.816V79.5315H565.033ZM542.569 79.5315H541.786V80.3143H542.569V79.5315ZM542.569 2.05949V1.27665H541.786V2.05949H542.569ZM564.025 2.05949H564.808V1.27665H564.025V2.05949ZM564.661 12.7401C567.26 9.11998 570.742 6.37544 575.131 4.50782L574.518 3.06716C569.883 5.03954 566.166 7.959 563.389 11.8269L564.661 12.7401ZM575.126 4.51011C579.622 2.63673 584.797 1.69033 590.665 1.69033V0.124653C584.629 0.124653 579.243 1.09825 574.524 3.06487L575.126 4.51011ZM589.882 0.907494V21.6435H591.448V0.907494H589.882ZM590.725 20.863C588.233 20.6713 586.523 20.5727 585.625 20.5727V22.1383C586.454 22.1383 588.104 22.2317 590.605 22.424L590.725 20.863ZM585.625 20.5727C579.039 20.5727 573.78 22.4448 569.951 26.2739L571.058 27.381C574.525 23.9142 579.346 22.1383 585.625 22.1383V20.5727ZM569.959 26.2666C566.106 30.0182 564.25 35.6331 564.25 42.9555H565.816C565.816 35.8779 567.608 30.7408 571.051 27.3884L569.959 26.2666ZM564.25 42.9555V79.5315H565.816V42.9555H564.25ZM565.033 78.7487H542.569V80.3143H565.033V78.7487ZM543.352 79.5315V2.05949H541.786V79.5315H543.352ZM542.569 2.84233H564.025V1.27665H542.569V2.84233ZM563.242 2.05949V12.2835H564.808V2.05949H563.242ZM662.496 9.54749L661.974 10.1307L661.979 10.135L662.496 9.54749ZM672.144 79.5315V80.3143H672.927V79.5315H672.144ZM651.12 79.5315H650.337V80.3143H651.12V79.5315ZM651.12 69.8835H651.903V67.002L650.445 69.4874L651.12 69.8835ZM611.952 77.6595L611.621 78.3689L611.627 78.3716L611.952 77.6595ZM602.016 69.3075L602.673 68.8815L602.016 69.3075ZM606.624 40.2195L606.152 39.5945L606.147 39.5986L606.624 40.2195ZM649.68 34.0275V34.8103H650.463V34.0275H649.68ZM645.216 22.7955L644.691 23.3765L644.702 23.3858L645.216 22.7955ZM619.584 20.7795L619.821 21.5258L619.831 21.5222L619.584 20.7795ZM609.504 25.9635L608.808 26.3212L609.243 27.1693L609.99 26.5768L609.504 25.9635ZM601.44 10.2675L600.989 9.62753L600.432 10.0197L600.744 10.6252L601.44 10.2675ZM616.56 3.35549L616.353 2.60051L616.35 2.60138L616.56 3.35549ZM643.344 62.9715L643.737 63.6485L643.745 63.6438L643.753 63.6389L643.344 62.9715ZM649.68 55.0515L650.416 55.3174L650.463 55.1885V55.0515H649.68ZM649.68 47.1315H650.463V46.3486H649.68V47.1315ZM623.76 63.1155L623.277 63.732L623.292 63.7435L623.307 63.7543L623.76 63.1155ZM634.848 1.69033C646.73 1.69033 655.733 4.54186 661.974 10.1307L663.018 8.96431C656.395 3.03312 646.965 0.124653 634.848 0.124653V1.69033ZM661.979 10.135C668.189 15.604 671.361 23.947 671.361 35.3235H672.927C672.927 23.66 669.667 14.819 663.013 8.95998L661.979 10.135ZM671.361 35.3235V79.5315H672.927V35.3235H671.361ZM672.144 78.7487H651.12V80.3143H672.144V78.7487ZM651.903 79.5315V69.8835H650.337V79.5315H651.903ZM650.445 69.4874C646.412 76.3609 638.864 79.9007 627.504 79.9007V81.4663C639.183 81.4663 647.38 77.8061 651.795 70.2796L650.445 69.4874ZM627.504 79.9007C621.639 79.9007 616.571 78.9075 612.277 76.9474L611.627 78.3716C616.165 80.4435 621.465 81.4663 627.504 81.4663V79.9007ZM612.283 76.9501C608.079 74.9881 604.887 72.2953 602.673 68.8815L601.359 69.7335C603.753 73.4237 607.185 76.2989 611.621 78.3689L612.283 76.9501ZM602.673 68.8815C600.456 65.4648 599.343 61.5827 599.343 57.2115H597.777C597.777 61.8643 598.967 66.0462 601.359 69.7335L602.673 68.8815ZM599.343 57.2115C599.343 50.2372 601.931 44.8099 607.101 40.8404L606.147 39.5986C600.565 43.8851 597.777 49.7858 597.777 57.2115H599.343ZM607.095 40.8445C612.368 36.8667 620.565 34.8103 631.824 34.8103V33.2447C620.427 33.2447 611.824 35.3163 606.152 39.5945L607.095 40.8445ZM631.824 34.8103H649.68V33.2447H631.824V34.8103ZM650.463 34.0275C650.463 28.9641 648.917 24.9806 645.73 22.2052L644.702 23.3858C647.467 25.7943 648.897 29.2989 648.897 34.0275H650.463ZM645.741 22.2145C642.565 19.346 637.878 17.9807 631.824 17.9807V19.5463C637.674 19.5463 641.915 20.869 644.691 23.3764L645.741 22.2145ZM631.824 17.9807C627.609 17.9807 623.446 18.667 619.336 20.0368L619.831 21.5222C623.786 20.204 627.783 19.5463 631.824 19.5463V17.9807ZM619.347 20.0333C615.335 21.3054 611.887 23.0743 609.017 25.3501L609.99 26.5768C612.689 24.4367 615.961 22.7496 619.821 21.5257L619.347 20.0333ZM610.2 25.6058L602.136 9.90975L600.744 10.6252L608.808 26.3212L610.2 25.6058ZM601.891 10.9074C606.03 7.99117 610.985 5.72172 616.77 4.10959L616.35 2.60138C610.422 4.25326 605.298 6.59181 600.989 9.62753L601.891 10.9074ZM616.767 4.11046C622.651 2.49717 628.677 1.69033 634.848 1.69033V0.124653C628.539 0.124653 622.373 0.949818 616.353 2.60051L616.767 4.11046ZM633.12 66.3463C637.082 66.3463 640.628 65.4536 643.737 63.6485L642.951 62.2945C640.108 63.9454 636.838 64.7807 633.12 64.7807V66.3463ZM643.753 63.6389C646.889 61.717 649.111 58.931 650.416 55.3174L648.944 54.7856C647.753 58.084 645.751 60.578 642.935 62.304L643.753 63.6389ZM650.463 55.0515V47.1315H648.897V55.0515H650.463ZM649.68 46.3486H634.272V47.9143H649.68V46.3486ZM634.272 46.3486C629.603 46.3486 625.966 47.1101 623.474 48.745C620.926 50.4176 619.665 52.9461 619.665 56.2035H621.231C621.231 53.4129 622.274 51.4054 624.333 50.054C626.45 48.6649 629.725 47.9143 634.272 47.9143V46.3486ZM619.665 56.2035C619.665 59.3166 620.874 61.851 623.277 63.732L624.242 62.499C622.23 60.924 621.231 58.8504 621.231 56.2035H619.665ZM623.307 63.7543C625.787 65.5104 629.084 66.3463 633.12 66.3463V64.7807C629.284 64.7807 626.341 63.9846 624.212 62.4767L623.307 63.7543ZM814.731 9.54749L814.173 10.0964L814.182 10.1057L814.731 9.54749ZM823.371 79.5315V80.3143H824.154V79.5315H823.371ZM800.907 79.5315H800.124V80.3143H800.907V79.5315ZM797.019 24.9555L796.411 25.4492L796.42 25.4595L796.429 25.4697L797.019 24.9555ZM773.691 25.5315L774.269 26.0598L774.276 26.0516L773.691 25.5315ZM769.083 79.5315V80.3143H769.866V79.5315H769.083ZM746.619 79.5315H745.836V80.3143H746.619V79.5315ZM719.547 25.5315L720.125 26.0598L720.132 26.0516L719.547 25.5315ZM714.939 79.5315V80.3143H715.722V79.5315H714.939ZM692.475 79.5315H691.692V80.3143H692.475V79.5315ZM692.475 2.05949V1.27665H691.692V2.05949H692.475ZM713.931 2.05949H714.714V1.27665H713.931V2.05949ZM713.931 10.9875H713.148V13.0579L714.518 11.5054L713.931 10.9875ZM724.443 3.4995L724.146 2.77491L724.141 2.77737L724.443 3.4995ZM753.099 4.21949L752.749 4.9198L752.761 4.92572L753.099 4.21949ZM763.755 13.5795L763.099 14.0067L763.695 14.9225L764.37 14.0631L763.755 13.5795ZM775.707 4.21949L775.385 3.50585L775.38 3.50829L775.707 4.21949ZM791.691 1.69033C801.222 1.69033 808.685 4.5154 814.173 10.0964L815.289 8.99861C809.449 3.05958 801.552 0.124653 791.691 0.124653V1.69033ZM814.182 10.1057C819.74 15.5705 822.588 23.8773 822.588 35.1795H824.154C824.154 23.6337 821.242 14.8525 815.28 8.98931L814.182 10.1057ZM822.588 35.1795V79.5315H824.154V35.1795H822.588ZM823.371 78.7487H800.907V80.3143H823.371V78.7487ZM801.69 79.5315V38.6355H800.124V79.5315H801.69ZM801.69 38.6355C801.69 32.4029 800.378 27.6207 797.609 24.4413L796.429 25.4697C798.843 28.2422 800.124 32.5801 800.124 38.6355H801.69ZM797.627 24.4618C794.953 21.1717 791.109 19.5647 786.219 19.5647V21.1303C790.737 21.1303 794.093 22.5953 796.411 25.4492L797.627 24.4618ZM786.219 19.5647C780.75 19.5647 776.348 21.3637 773.106 25.0114L774.276 26.0516C777.178 22.7873 781.127 21.1303 786.219 21.1303V19.5647ZM773.113 25.0033C769.858 28.5632 768.3 33.8273 768.3 40.6515H769.866C769.866 34.0357 771.379 29.2198 774.269 26.0597L773.113 25.0033ZM768.3 40.6515V79.5315H769.866V40.6515H768.3ZM769.083 78.7487H746.619V80.3143H769.083V78.7487ZM747.402 79.5315V38.6355H745.836V79.5315H747.402ZM747.402 38.6355C747.402 32.4553 746.164 27.6752 743.557 24.4293C740.924 21.1506 736.999 19.5647 731.931 19.5647V21.1303C736.655 21.1303 740.074 22.5924 742.337 25.4097C744.626 28.2598 745.836 32.6237 745.836 38.6355H747.402ZM731.931 19.5647C726.553 19.5647 722.201 21.367 718.962 25.0114L720.132 26.0516C723.037 22.784 726.94 21.1303 731.931 21.1303V19.5647ZM718.969 25.0033C715.714 28.5632 714.156 33.8273 714.156 40.6515H715.722C715.722 34.0357 717.235 29.2198 720.125 26.0597L718.969 25.0033ZM714.156 40.6515V79.5315H715.722V40.6515H714.156ZM714.939 78.7487H692.475V80.3143H714.939V78.7487ZM693.258 79.5315V2.05949H691.692V79.5315H693.258ZM692.475 2.84233H713.931V1.27665H692.475V2.84233ZM713.148 2.05949V10.9875H714.714V2.05949H713.148ZM714.518 11.5054C717.317 8.33266 720.723 5.90526 724.745 4.22162L724.141 2.77737C719.907 4.54972 716.304 7.11432 713.344 10.4695L714.518 11.5054ZM724.739 4.22405C728.861 2.53801 733.367 1.69033 738.267 1.69033V0.124653C733.183 0.124653 728.473 1.00498 724.147 2.77494L724.739 4.22405ZM738.267 1.69033C743.631 1.69033 748.453 2.77171 752.749 4.91969L753.449 3.5193C748.913 1.25128 743.847 0.124653 738.267 0.124653V1.69033ZM752.761 4.92572C757.047 6.97527 760.489 9.99833 763.099 14.0067L764.411 13.1523C761.645 8.90464 757.983 5.68771 753.437 3.51327L752.761 4.92572ZM764.37 14.0631C767.459 10.1318 771.343 7.08843 776.034 4.9307L775.38 3.50829C770.471 5.76656 766.386 8.96316 763.139 13.0958L764.37 14.0631ZM776.029 4.93312C780.816 2.77398 786.034 1.69033 791.691 1.69033V0.124653C785.828 0.124653 780.389 1.249 775.385 3.50587L776.029 4.93312ZM902.402 9.54749L901.88 10.1307L901.885 10.135L902.402 9.54749ZM912.05 79.5315V80.3143H912.833V79.5315H912.05ZM891.026 79.5315H890.243V80.3143H891.026V79.5315ZM891.026 69.8835H891.809V67.002L890.351 69.4874L891.026 69.8835ZM851.858 77.6595L851.527 78.3689L851.533 78.3716L851.858 77.6595ZM841.922 69.3075L842.579 68.8815L841.922 69.3075ZM846.53 40.2195L846.059 39.5945L846.053 39.5986L846.53 40.2195ZM889.586 34.0275V34.8103H890.369V34.0275H889.586ZM885.122 22.7955L884.597 23.3765L884.608 23.3858L885.122 22.7955ZM859.49 20.7795L859.727 21.5258L859.738 21.5222L859.49 20.7795ZM849.41 25.9635L848.714 26.3212L849.15 27.1693L849.897 26.5768L849.41 25.9635ZM841.346 10.2675L840.895 9.62753L840.339 10.0197L840.65 10.6252L841.346 10.2675ZM856.466 3.35549L856.259 2.60051L856.256 2.60138L856.466 3.35549ZM883.25 62.9715L883.643 63.6485L883.651 63.6438L883.659 63.6389L883.25 62.9715ZM889.586 55.0515L890.323 55.3174L890.369 55.1885V55.0515H889.586ZM889.586 47.1315H890.369V46.3486H889.586V47.1315ZM863.666 63.1155L863.184 63.732L863.198 63.7435L863.214 63.7543L863.666 63.1155ZM874.754 1.69033C886.637 1.69033 895.639 4.54186 901.88 10.1307L902.924 8.96431C896.301 3.03312 886.872 0.124653 874.754 0.124653V1.69033ZM901.885 10.135C908.095 15.604 911.267 23.947 911.267 35.3235H912.833C912.833 23.66 909.573 14.819 902.92 8.95998L901.885 10.135ZM911.267 35.3235V79.5315H912.833V35.3235H911.267ZM912.05 78.7487H891.026V80.3143H912.05V78.7487ZM891.809 79.5315V69.8835H890.243V79.5315H891.809ZM890.351 69.4874C886.319 76.3609 878.771 79.9007 867.41 79.9007V81.4663C879.09 81.4663 887.286 77.8061 891.701 70.2796L890.351 69.4874ZM867.41 79.9007C861.546 79.9007 856.477 78.9075 852.183 76.9474L851.533 78.3716C856.071 80.4435 861.371 81.4663 867.41 81.4663V79.9007ZM852.189 76.9501C847.985 74.9881 844.793 72.2953 842.579 68.8815L841.265 69.7335C843.659 73.4237 847.091 76.2989 851.527 78.3689L852.189 76.9501ZM842.579 68.8815C840.363 65.4648 839.249 61.5827 839.249 57.2115H837.683C837.683 61.8643 838.874 66.0462 841.265 69.7335L842.579 68.8815ZM839.249 57.2115C839.249 50.2372 841.837 44.8099 847.007 40.8404L846.053 39.5986C840.471 43.8851 837.683 49.7858 837.683 57.2115H839.249ZM847.002 40.8445C852.275 36.8667 860.471 34.8103 871.73 34.8103V33.2447C860.334 33.2447 851.73 35.3163 846.059 39.5945L847.002 40.8445ZM871.73 34.8103H889.586V33.2447H871.73V34.8103ZM890.369 34.0275C890.369 28.9641 888.823 24.9806 885.636 22.2052L884.608 23.3858C887.373 25.7943 888.803 29.2989 888.803 34.0275H890.369ZM885.647 22.2145C882.471 19.346 877.784 17.9807 871.73 17.9807V19.5463C877.58 19.5463 881.821 20.869 884.597 23.3764L885.647 22.2145ZM871.73 17.9807C867.516 17.9807 863.352 18.667 859.243 20.0368L859.738 21.5222C863.692 20.204 867.689 19.5463 871.73 19.5463V17.9807ZM859.254 20.0333C855.241 21.3054 851.793 23.0743 848.924 25.3501L849.897 26.5768C852.595 24.4367 855.867 22.7496 859.727 21.5257L859.254 20.0333ZM850.107 25.6058L842.042 9.90975L840.65 10.6252L848.714 26.3212L850.107 25.6058ZM841.797 10.9074C845.936 7.99117 850.892 5.72172 856.676 4.10959L856.256 2.60138C850.329 4.25326 845.204 6.59181 840.895 9.62753L841.797 10.9074ZM856.673 4.11046C862.557 2.49717 868.583 1.69033 874.754 1.69033V0.124653C868.445 0.124653 862.279 0.949818 856.259 2.60051L856.673 4.11046ZM873.026 66.3463C876.988 66.3463 880.534 65.4536 883.643 63.6485L882.857 62.2945C880.014 63.9454 876.745 64.7807 873.026 64.7807V66.3463ZM883.659 63.6389C886.795 61.717 889.018 58.931 890.323 55.3174L888.85 54.7856C887.659 58.084 885.657 60.578 882.841 62.304L883.659 63.6389ZM890.369 55.0515V47.1315H888.803V55.0515H890.369ZM889.586 46.3486H874.178V47.9143H889.586V46.3486ZM874.178 46.3486C869.509 46.3486 865.872 47.1101 863.381 48.745C860.832 50.4176 859.571 52.9461 859.571 56.2035H861.137C861.137 53.4129 862.18 51.4054 864.24 50.054C866.356 48.6649 869.631 47.9143 874.178 47.9143V46.3486ZM859.571 56.2035C859.571 59.3166 860.78 61.851 863.184 63.732L864.149 62.499C862.136 60.924 861.137 58.8504 861.137 56.2035H859.571ZM863.214 63.7543C865.693 65.5104 868.99 66.3463 873.026 66.3463V64.7807C869.19 64.7807 866.247 63.9846 864.119 62.4767L863.214 63.7543Z" fill="#CACACA"/>
</svg>
