<svg width="388" height="561" viewBox="0 0 388 561" fill="none" xmlns="http://www.w3.org/2000/svg">
<rect x="0.5" y="0.8573" width="386.506" height="560.045" rx="13" fill="#26262E"/>
<mask id="mask0" style="mask-type:alpha" maskUnits="userSpaceOnUse" x="0" y="0" width="388" height="561">
<rect x="0.5" y="0.8573" width="386.506" height="560.045" rx="13" fill="#26262E"/>
</mask>
<g mask="url(#mask0)">
<rect x="0.5" y="381.917" width="428.581" height="211.355" fill="url(#paint0_linear)"/>
<circle cx="370.9" cy="524.847" r="72.9968" transform="rotate(-120 370.9 524.847)" fill="url(#paint1_linear)"/>
<circle cx="57.1379" cy="435.08" r="31.7286" transform="rotate(-120 57.1379 435.08)" fill="url(#paint2_linear)"/>
<circle cx="317.568" cy="448.56" r="40.0648" transform="rotate(-120 317.568 448.56)" fill="url(#paint3_linear)"/>
<path d="M282.067 402.288C284.558 405.298 285.304 406.95 285.693 407.986C286.453 409.972 286.806 412.091 286.728 414.216C286.578 417.06 285.604 419.054 284.139 421.985C283.103 424.057 283.041 423.72 279.995 428.718C277.514 432.789 277.375 433.307 275.852 435.451C274.661 437.129 274.966 436.487 272.226 440.113C270.124 442.884 269.74 443.521 268.601 444.256C268.083 444.582 265.457 446.292 263.422 445.292C262.95 445.059 262.417 444.256 261.35 442.702C259.573 440.087 259.356 439.077 259.278 438.559C259.133 437.601 259.335 437.43 259.278 436.487C259.206 435.337 258.791 433.732 257.206 431.826C257.206 431.826 264.975 430.272 263.422 422.503C261.868 414.734 255.135 416.806 257.206 421.985C257.206 421.985 256.689 423.539 255.135 419.396C253.114 417.095 250.857 415.011 248.402 413.18C244.776 410.591 240.115 401.786 240.892 395.83C237.891 398.728 235.589 402.27 234.159 406.188C233.599 407.742 233.428 408.706 233.123 409.814C231.892 413.782 229.907 417.475 227.275 420.69C230.274 415.169 229.238 413.683 229.238 413.683L228.202 411.093C227.855 410.228 227.514 409.363 227.167 408.504C226.183 406.069 226.172 406.168 226.131 405.914C225.846 404.231 226.649 402.775 227.167 401.771C227.831 400.584 228.709 399.531 229.756 398.663C230.979 397.565 231.129 397.777 233.382 396.073C234.474 395.28 235.513 394.415 236.489 393.484C238.012 392.013 237.815 391.842 238.561 391.412C240.193 390.474 241.099 391.308 242.704 390.376C243.808 389.734 243.59 389.2 244.776 388.304C245.962 387.408 247.122 387.139 248.92 386.751C250.451 386.416 252.013 386.242 253.581 386.233C257.516 386.308 261.394 387.19 264.975 388.822C268.294 390.282 270.397 391.857 273.26 394L273.262 394.002C276.518 396.402 279.474 399.184 282.067 402.288Z" fill="white"/>
<path d="M143.78 412.647C142.552 410.348 140.773 408.39 138.601 406.95L138.553 406.916C137.208 405.973 135.463 404.749 132.903 404.36C132.359 404.274 130.724 404.302 127.474 404.356L127.206 404.36C125.254 404.391 124.694 404.422 123.581 404.36C121.4 404.236 121.219 403.982 119.437 403.842C117.18 403.684 114.911 403.858 112.704 404.36C111.474 404.625 110.263 404.971 109.079 405.396C106.556 406.164 104.124 407.206 101.828 408.503C98.701 410.272 96.0384 412.757 94.0588 415.754C92.2024 418.63 91.5386 421.226 90.954 423.513L90.9513 423.523C90.274 426.234 89.9262 429.016 89.9154 431.81C89.9464 434.235 90.1193 436.656 90.4333 439.061C90.827 442.645 91.0393 442.816 90.9513 444.241C90.7458 446.606 90.0396 448.901 88.8795 450.974C87.7867 453.139 87.507 452.833 84.9951 456.93C83.0632 460.074 82.6592 461.182 82.4054 462.109C82.0067 463.629 81.8323 465.2 81.8875 466.77C81.9425 467.993 82.1159 469.207 82.4054 470.396C82.7784 472.121 83.0477 472.696 83.9592 475.575C84.8708 478.455 85.3525 480.009 85.513 481.272C85.7054 482.82 85.7054 484.386 85.513 485.934C85.3317 487.368 84.8708 488.808 83.9592 491.631C82.97 494.682 82.8664 494.614 82.4054 496.292C81.8211 498.14 81.4731 500.054 81.3696 501.99C81.3077 503.731 81.482 505.474 81.8875 507.169C82.2878 508.998 82.9878 510.748 83.9592 512.348C85.1834 514.513 86.9738 516.303 89.1385 517.527C91.0518 518.546 93.186 519.08 95.3537 519.081C97.1317 519.083 98.8923 518.731 100.533 518.045L101.507 517.289C101.817 515.062 102.17 512.902 102.346 511.074C102.947 504.246 104.161 497.486 105.971 490.875C108.183 482.681 110.021 479.48 110.633 478.445C112.581 475.294 114.836 472.345 117.366 469.64C120.427 466.18 121.203 465.9 124.099 462.389C126.719 459.203 128.139 457.453 129.278 454.62C130.253 452.143 130.779 449.512 130.832 446.851C131.041 443.665 130.509 440.474 129.278 437.528C128.723 436.247 128.028 435.031 127.206 433.903C128.058 432.984 128.757 431.935 129.278 430.795C130.07 429.189 130.427 427.403 130.314 425.616C130.196 424.146 129.724 423.097 128.792 421.026L128.76 420.954C128.233 419.792 127.628 418.667 126.947 417.588C126.616 417.07 126.124 416.371 123.84 413.445C123.149 412.557 122.459 411.694 121.768 410.855L123.84 410.337C126.305 410.082 128.795 410.438 131.091 411.373C132.833 412.094 134.416 413.15 135.752 414.48C136.511 415.249 137.203 416.281 138.586 418.343L138.601 418.365C139.994 420.442 139.927 420.582 140.672 421.472C141.641 422.759 142.878 423.82 144.298 424.58C144.781 423.595 145.129 422.55 145.334 421.472C146.121 417.241 144.401 413.828 143.78 412.647Z" fill="white"/>
<path d="M151.031 494.997C151.542 493.322 151.718 491.562 151.549 489.818C151.314 488.347 150.785 486.938 149.995 485.675C149.177 484.178 146.25 478.797 145.334 473.245C145.215 472.535 145.168 470.443 145.075 466.252L145.073 466.172C145.006 463.153 144.952 460.662 145.075 457.448C145.142 455.65 145.256 453.915 145.401 452.268C145.056 452.341 144.688 452.434 144.298 452.548C142.399 453.011 140.629 453.896 139.119 455.138C136.976 457.016 136.173 459.365 135.495 461.347L135.493 461.353C134.784 463.425 134.374 466.501 134.297 466.532C133.52 466.915 138.917 475.301 141.708 482.07C143.309 485.954 144.588 490.574 145.334 502.269C145.67 507.531 145.805 512.762 145.805 517.807C150.617 514.119 151.041 511.292 151.031 510.038C150.945 508.648 150.772 507.264 150.513 505.895C149.855 502.036 149.275 501.529 149.477 499.68C149.679 497.831 150.285 498.027 151.031 494.997Z" fill="white"/>
<path d="M136.964 551.343C133.292 551.343 127.859 550.923 119.81 549.696L119.598 549.665V549.447C119.442 543.688 119.789 537.925 120.634 532.226C112.031 531.967 101.786 531.061 101.051 528.207C100.15 524.716 100.864 519.806 101.501 515.476C101.735 513.881 101.952 512.369 102.082 511.027C102.676 504.258 103.874 497.555 105.66 490.999L105.717 490.776C107.219 485.214 108.799 481.008 110.41 478.279C112.539 474.653 114.999 471.887 117.169 469.433C118.546 467.879 119.443 466.983 120.313 466.113C121.479 464.973 122.586 463.773 123.627 462.518L123.876 462.218L124.057 462.56C125.176 464.699 128.413 469.422 134.312 467.133L134.556 467.04L134.644 467.283C135.022 468.262 135.985 470.059 137.093 472.136C138.647 475.052 140.605 478.683 141.946 481.94C143.661 486.084 144.873 490.952 145.572 502.217C146.437 515.766 146.126 531.066 144.645 547.697C144.614 548.041 144.602 548.387 144.609 548.733C144.609 548.883 144.609 549.033 144.609 549.183C144.593 549.36 144.538 549.531 144.449 549.684C144.359 549.837 144.237 549.969 144.091 550.069C143.423 550.67 141.605 551.343 136.964 551.343ZM120.105 549.214C138.627 552.021 142.837 550.483 143.79 549.686C143.876 549.625 143.948 549.548 144.002 549.459C144.056 549.37 144.092 549.271 144.106 549.168C144.106 549.023 144.106 548.878 144.106 548.727C144.106 548.375 144.106 548.013 144.142 547.65C145.624 531.045 145.935 515.772 145.07 502.254C144.355 491.056 143.158 486.255 141.444 482.137C140.113 478.905 138.171 475.29 136.612 472.38C135.535 470.365 134.664 468.754 134.235 467.718C128.392 469.831 125.067 465.496 123.757 463.15C122.446 464.704 121.571 465.569 120.649 466.491C119.727 467.413 118.893 468.246 117.542 469.79C115.028 472.488 112.789 475.429 110.855 478.569C109.265 481.257 107.706 485.421 106.194 490.937L106.132 491.16C104.359 497.684 103.17 504.354 102.579 511.089C102.444 512.452 102.227 513.964 101.993 515.564C101.367 519.848 100.657 524.701 101.533 528.093C102.05 530.04 109.301 531.403 120.919 531.719H121.214L121.167 532.009C120.309 537.702 119.954 543.459 120.105 549.214Z" fill="white"/>
<path d="M116.2 381.312C110.193 381.305 104.433 378.916 100.185 374.668C95.9374 370.42 93.5479 364.66 93.541 358.653C93.541 352.66 96.4311 346.254 101.47 341.074C106.51 335.895 112.865 332.886 118.79 332.886C124.798 332.893 130.557 335.282 134.805 339.53C139.053 343.778 141.443 349.538 141.449 355.545C141.449 361.533 138.559 367.939 133.52 373.119C128.48 378.298 122.141 381.312 116.2 381.312ZM118.79 333.404C106.769 333.404 94.0589 346.378 94.0589 358.653C94.0658 364.523 96.4007 370.151 100.552 374.302C104.702 378.453 110.33 380.787 116.2 380.794C128.216 380.794 140.931 367.815 140.931 355.545C140.925 349.675 138.59 344.047 134.439 339.897C130.288 335.746 124.66 333.411 118.79 333.404ZM119.178 389.599C117.464 389.599 116.071 387.854 116.071 385.715C116.071 383.576 117.464 381.83 119.178 381.83C120.893 381.83 122.286 383.57 122.286 385.715C122.286 387.859 120.893 389.599 119.178 389.599ZM119.178 382.348C117.749 382.348 116.589 383.855 116.589 385.715C116.589 387.574 117.749 389.081 119.178 389.081C120.608 389.081 121.768 387.569 121.768 385.715C121.768 383.86 120.603 382.348 119.178 382.348ZM119.696 399.44C118.552 399.44 117.625 398.274 117.625 396.85C117.625 395.426 118.552 394.26 119.696 394.26C120.841 394.26 121.768 395.421 121.768 396.85C121.768 398.28 120.836 399.44 119.696 399.44ZM119.696 394.778C118.837 394.778 118.143 395.706 118.143 396.85C118.143 397.995 118.837 398.922 119.696 398.922C120.556 398.922 121.25 397.99 121.25 396.85C121.25 395.711 120.551 394.778 119.696 394.778Z" fill="white"/>
<path d="M137.353 551.353C133.649 551.353 128.123 550.898 119.914 549.634L119.992 549.116C138.016 551.892 142.63 550.67 143.775 549.737C143.867 549.672 143.945 549.588 144.002 549.491C144.059 549.394 144.095 549.285 144.106 549.173C144.106 549.012 144.106 548.857 144.106 548.696C144.101 548.351 144.113 548.005 144.143 547.661C145.603 531.33 145.924 515.627 145.07 502.264C144.355 491.051 143.159 486.255 141.444 482.148C140.108 478.916 138.166 475.29 136.607 472.38C134.535 468.464 133.789 467.045 133.96 466.517C133.979 466.459 134.009 466.407 134.048 466.361C134.079 466.242 134.131 465.947 134.188 465.641C134.438 464.155 134.784 462.686 135.224 461.244C135.897 459.286 136.731 456.847 138.927 454.92C140.464 453.652 142.268 452.749 144.205 452.279C145.236 451.979 146.294 451.78 147.364 451.683C148.483 451.554 149.156 451.481 149.783 450.798C150.891 449.591 150.819 447.69 150.751 446.841C150.705 445.929 150.404 445.095 149.716 443.293C149.224 441.977 148.866 441.221 148.581 440.569C148.201 439.772 147.886 438.946 147.639 438.098C147.121 436.363 146.789 435.218 147.121 433.82C147.367 432.897 147.724 432.006 148.183 431.168C148.338 430.878 148.478 430.65 148.602 430.438C148.864 430.041 149.063 429.606 149.193 429.148C149.343 428.63 149.545 427.869 149.218 427.273C148.954 426.792 148.473 426.61 147.861 426.377H147.799C146.106 425.735 144.692 425.072 144.174 424.823C142.719 424.051 141.451 422.969 140.46 421.654C140.125 421.251 139.823 420.822 139.559 420.369C139.321 419.976 138.989 419.442 138.373 418.52C136.995 416.449 136.301 415.413 135.555 414.677C134.247 413.369 132.693 412.333 130.982 411.627C129.682 411.088 128.311 410.739 126.911 410.591C125.895 410.487 124.871 410.487 123.855 410.591L122.214 411.005C122.83 411.761 123.441 412.528 124.032 413.284C126.419 416.345 126.844 416.961 127.139 417.427C127.827 418.516 128.438 419.651 128.967 420.825C129.936 422.964 130.423 424.041 130.547 425.574C130.663 427.405 130.297 429.234 129.485 430.878C128.984 431.979 128.319 432.997 127.512 433.898C128.291 434.995 128.954 436.17 129.491 437.404C130.729 440.386 131.26 443.614 131.044 446.835C130.998 449.526 130.472 452.187 129.491 454.692C128.315 457.624 126.792 459.473 124.27 462.529C123.137 463.92 121.926 465.246 120.644 466.501C119.785 467.361 118.894 468.252 117.537 469.79C115.382 472.229 112.938 474.969 110.835 478.553C109.25 481.236 107.691 485.395 106.173 490.921L106.106 491.165C104.338 497.683 103.151 504.346 102.558 511.074C102.429 512.436 102.206 513.949 101.973 515.554C101.346 519.837 100.637 524.69 101.512 528.078C102.18 530.667 113.859 531.703 123.653 531.765C123.776 531.767 123.895 531.726 123.99 531.648C124.085 531.57 124.149 531.461 124.171 531.341C126.58 517.657 125.616 485.245 125.606 484.903H126.124C126.124 485.229 127.098 517.714 124.684 531.444C124.641 531.686 124.513 531.905 124.323 532.062C124.134 532.219 123.894 532.303 123.648 532.299C118.578 532.252 101.942 531.827 101.01 528.223C100.108 524.732 100.828 519.827 101.46 515.492C101.693 513.897 101.911 512.384 102.04 511.043C102.635 504.285 103.829 497.593 105.609 491.046L105.671 490.802C107.178 485.229 108.753 481.029 110.363 478.305C112.492 474.679 114.952 471.919 117.122 469.464C118.495 467.91 119.391 467.014 120.23 466.149C121.5 464.906 122.7 463.594 123.824 462.218C126.523 458.945 127.869 457.251 128.962 454.516C129.934 452.069 130.46 449.468 130.516 446.835C130.712 443.686 130.181 440.533 128.962 437.621C128.413 436.359 127.727 435.161 126.916 434.048L126.792 433.877L126.937 433.721C127.77 432.823 128.454 431.796 128.962 430.681C129.746 429.118 130.103 427.377 129.998 425.631C129.879 424.186 129.408 423.14 128.444 421.053C127.925 419.9 127.324 418.786 126.647 417.718C126.347 417.246 125.932 416.64 123.54 413.574C122.871 412.714 122.177 411.849 121.468 410.984L121.209 410.669L123.679 410.052C126.198 409.781 128.744 410.137 131.091 411.088C132.866 411.822 134.478 412.899 135.835 414.258C136.617 415.045 137.316 416.091 138.715 418.178C139.336 419.106 139.668 419.644 139.911 420.038C140.158 420.472 140.446 420.881 140.771 421.26C141.715 422.522 142.924 423.561 144.314 424.306C144.832 424.559 146.245 425.212 147.939 425.859L148.001 425.885C148.654 426.134 149.275 426.367 149.628 427.014C150.052 427.796 149.809 428.687 149.628 429.278C149.484 429.781 149.263 430.26 148.975 430.697C148.856 430.894 148.721 431.121 148.571 431.401C148.125 432.199 147.777 433.047 147.535 433.929C147.25 435.141 147.504 436.083 148.053 437.937C148.292 438.764 148.599 439.569 148.97 440.346C149.26 440.978 149.617 441.77 150.12 443.101C150.762 444.821 151.114 445.774 151.155 446.804C151.197 447.695 151.306 449.772 150.052 451.134C149.291 451.963 148.462 452.056 147.312 452.17C146.271 452.267 145.241 452.461 144.236 452.75C142.373 453.202 140.637 454.067 139.155 455.283C137.083 457.116 136.286 459.385 135.602 461.389C135.17 462.805 134.832 464.248 134.592 465.709C134.447 466.475 134.421 466.62 134.344 466.682C134.344 467.2 135.664 469.702 136.933 472.11C138.487 475.031 140.445 478.667 141.791 481.925C143.506 486.069 144.712 490.921 145.417 502.202C146.271 515.596 145.935 531.32 144.485 547.681C144.453 548.013 144.453 548.334 144.453 548.676C144.453 548.841 144.453 549.002 144.453 549.168C144.441 549.354 144.388 549.535 144.299 549.699C144.21 549.862 144.086 550.005 143.936 550.116C143.33 550.789 141.465 551.353 137.353 551.353Z" fill="white"/>
<path d="M109.69 576.623C108.167 569.698 106.878 563.317 105.847 557.646C101.118 531.537 103.775 529.927 104.096 529.828L104.252 530.32C104.179 530.377 101.776 532.252 106.36 557.558C107.396 563.219 108.675 569.595 110.198 576.514L109.69 576.623ZM123.736 576.639C118.003 556.838 119.411 540.13 120.763 531.936L121.281 532.019C119.935 540.171 118.531 556.792 124.239 576.499L123.736 576.639Z" fill="white"/>
<path d="M104.261 576.27L103.743 576.172C104.716 571.22 106.69 562.188 108.958 557.148L109.191 557.252H109.455L109.43 557.361C107.192 562.333 105.229 571.345 104.261 576.27ZM146.265 576.224H145.747C145.964 563.83 144.996 555.263 142.862 550.767L143.328 550.545C145.498 555.113 146.487 563.752 146.265 576.224ZM134.187 419.074L133.669 418.986C133.905 417.971 134.453 417.055 135.236 416.367C136.019 415.679 136.998 415.252 138.035 415.148L138.107 415.666C134.725 416.142 134.207 418.955 134.187 419.074ZM148.176 442.158C147.547 442.174 146.923 442.049 146.348 441.792C145.774 441.536 145.264 441.155 144.856 440.677L145.275 440.371C145.363 440.49 146.661 442.158 149.255 441.525L149.416 441.879C149.416 441.879 149.654 442.093 148.176 442.158Z" fill="white"/>
<path d="M237.732 480.757L232.108 576.559L232.625 576.589L238.25 480.787L237.732 480.757Z" fill="white"/>
<path d="M237.924 481.013L210.241 469.764L210.36 469.515C210.36 469.474 212.39 465.186 214.467 459.732C217.057 452.937 218.647 447.239 219.051 443.251C219.092 442.873 219.118 442.516 219.139 442.164V441.791L249.215 455.045L249.008 455.516L219.61 442.568C219.61 442.811 219.574 443.055 219.543 443.308C219.128 447.395 217.575 452.988 214.928 459.918C213.131 464.647 211.38 468.506 210.919 469.495L238.1 480.547L237.924 481.013Z" fill="white"/>
<path d="M214.653 460.063C209.096 458.836 199.198 455.557 195.34 447.457C195.241 447.327 183.779 430.821 178.497 420.913C176.308 416.763 173.315 413.09 169.692 410.109C167.109 407.978 164.404 406 161.591 404.184C159.73 403.016 158.066 401.56 156.661 399.87C155.076 397.917 154.485 396.431 154.9 395.462C155.195 394.768 155.982 394.364 157.23 394.26L157.272 394.778C156.236 394.866 155.594 395.167 155.376 395.669C155.05 396.441 155.63 397.782 157.065 399.549C158.431 401.198 160.054 402.616 161.871 403.749C164.697 405.569 167.415 407.551 170.013 409.684C173.694 412.708 176.734 416.436 178.957 420.649C184.22 430.531 195.671 447.011 195.785 447.177C199.711 455.412 210.365 458.572 214.767 459.54L214.653 460.063Z" fill="white"/>
<path d="M162.016 399.621C160.98 399.621 159.313 398.337 158.08 396.835C156.915 395.416 156.252 393.437 156.526 392.132C156.551 391.92 156.624 391.717 156.739 391.538C156.854 391.359 157.008 391.208 157.189 391.096C157.411 390.994 157.652 390.938 157.896 390.93C158.141 390.922 158.385 390.962 158.613 391.049C159.924 391.448 161.348 392.764 162.156 394.323C163.238 396.394 163.42 398.906 162.539 399.502C162.381 399.595 162.199 399.636 162.016 399.621ZM157.873 391.443C157.764 391.435 157.655 391.45 157.552 391.486C157.449 391.522 157.354 391.578 157.273 391.652C157.193 391.725 157.128 391.815 157.084 391.914C157.039 392.014 157.015 392.121 157.013 392.23C156.821 393.209 157.272 395.037 158.479 396.503C159.986 398.342 161.736 399.383 162.234 399.051C162.731 398.72 162.715 396.555 161.679 394.556C161.008 393.189 159.853 392.12 158.437 391.557C158.256 391.491 158.065 391.453 157.873 391.443Z" fill="white"/>
<path d="M165.859 399.119C165.067 399.119 164.098 398.627 162.441 396.581L162.405 396.539V396.477C162.247 395.81 162.008 395.165 161.695 394.556C161.36 393.921 160.932 393.34 160.426 392.831L160.385 392.784V392.727C160.1 391.888 159.494 389.811 160.084 388.682C160.158 388.53 160.262 388.396 160.392 388.288C160.521 388.18 160.673 388.1 160.835 388.056C162.151 387.683 163.995 389.941 165.776 392.287C167.366 394.39 168.143 396.664 167.713 397.953C167.635 398.203 167.495 398.429 167.305 398.61C167.116 398.791 166.884 398.922 166.631 398.989C166.382 399.07 166.121 399.114 165.859 399.119ZM162.881 396.301C165.015 398.891 165.813 398.684 166.45 398.502C166.624 398.457 166.783 398.368 166.912 398.242C167.041 398.117 167.135 397.96 167.185 397.788C167.558 396.674 166.792 394.54 165.326 392.608C164.254 391.194 162.032 388.242 160.939 388.558C160.845 388.585 160.758 388.632 160.684 388.695C160.61 388.758 160.55 388.837 160.509 388.926C160.172 389.568 160.292 390.941 160.82 392.51C161.345 393.046 161.789 393.657 162.135 394.323C162.461 394.95 162.711 395.615 162.881 396.301ZM219.206 443.5C206.952 438.108 192.362 417.842 186.659 409.379C185.541 407.711 184.272 406.106 183.07 404.598C181.621 402.673 180.51 400.516 179.786 398.217C178.751 391.629 174.996 388.796 174.959 388.77C168.91 383.229 164.886 384.627 164.844 384.658C163.575 385.3 162.892 385.984 162.84 386.683C162.783 387.512 163.611 388.237 164.316 388.755C164.643 388.989 164.99 389.195 165.352 389.371C171.116 390.925 171.712 396.778 171.722 396.835L171.204 396.881C171.204 396.829 170.629 391.345 165.181 389.858C164.767 389.668 164.37 389.443 163.995 389.185C162.829 388.377 162.239 387.507 162.296 386.657C162.353 385.808 163.14 384.933 164.611 384.197C164.813 384.119 169.003 382.643 175.265 388.382C175.405 388.48 179.222 391.355 180.263 398.114C180.983 400.329 182.058 402.413 183.448 404.282C184.655 405.8 185.929 407.39 187.074 409.099C192.771 417.526 207.273 437.699 219.398 443.039L219.206 443.5Z" fill="white"/>
<path d="M163.461 389.874L163.088 389.511C163.379 389.23 163.695 388.975 164.031 388.75L164.326 389.174C164.017 389.38 163.727 389.614 163.461 389.874ZM160.421 386.15C160.126 385.829 153.134 378.329 151.585 375.745C150.917 374.636 150.71 373.73 150.959 373.057C151.02 372.887 151.114 372.732 151.236 372.599C151.358 372.467 151.505 372.36 151.668 372.285C151.927 372.062 153.294 371.145 155.698 373.393C156.557 374.191 157.329 374.911 158.153 375.574C160.442 377.428 164.59 380.996 166.688 384.083L166.263 384.373C164.192 381.343 160.095 377.811 157.826 375.978C156.992 375.299 156.21 374.579 155.345 373.771C153.077 371.653 152 372.678 151.989 372.689L151.948 372.73H151.891C151.783 372.78 151.687 372.851 151.61 372.941C151.532 373.03 151.474 373.135 151.44 373.248C151.311 373.606 151.311 374.284 152.031 375.48C153.548 378.018 160.727 385.72 160.799 385.792L160.421 386.15Z" fill="white"/>
<path d="M247.749 576.576L247.231 576.566L248.619 478.59L249.655 478.6L247.749 576.576Z" fill="white"/>
<path d="M280.834 576.602L280.316 576.54C281.508 566.648 281.746 543.067 281.793 533.386H282.31C282.269 543.077 282.031 566.684 280.834 576.602Z" fill="white"/>
<path d="M299.7 535.494L296.65 576.536L297.166 576.574L300.216 535.532L299.7 535.494Z" fill="white"/>
<path d="M303.374 537.095C302.368 537.036 301.398 536.699 300.572 536.121C296.538 533.599 278.11 533.573 277.923 533.573C277.841 533.573 275.852 533.573 275.059 532.325C274.609 531.641 274.614 530.735 275.059 529.637L274.541 492.915H275.059L275.577 529.745V529.792C275.168 530.745 275.142 531.506 275.5 532.045C276.152 533.045 277.908 533.081 277.929 533.081C278.69 533.081 296.693 533.081 300.852 535.707C302.188 536.541 303.312 536.794 304.193 536.458C304.532 536.303 304.835 536.081 305.084 535.804C305.333 535.526 305.521 535.201 305.638 534.847C305.664 534.086 305.985 520.863 301.494 492.46C297.133 464.828 268.212 447.918 265.12 446.183C260.459 459.426 249.743 471.24 249.634 471.359L249.116 471.913L249.168 471.168C249.992 459.639 248.749 449.933 246.143 447.555C244.072 445.686 242.181 445.551 242.161 445.551C241.681 445.529 241.2 445.59 240.741 445.732C240.202 445.873 239.656 445.983 239.105 446.064C237.359 446.317 235.863 446.53 234.329 446.064C232.335 445.442 230.673 443.785 229.513 441.268C229.354 440.939 229.241 440.591 229.176 440.232C229.072 439.807 228.896 439.087 228.461 437.596L228.404 437.394C227.695 434.985 227.343 433.768 226.923 432.981C226.037 431.282 225.343 429.935 223.898 428.931L223.681 428.78C223.057 428.439 222.558 427.908 222.257 427.263C221.98 426.532 221.98 425.725 222.257 424.994C222.642 424.147 223.315 423.464 224.157 423.068C224.659 422.788 225.129 422.457 225.561 422.078C226.101 421.597 226.606 421.078 227.073 420.525L227.467 420.861C226.99 421.431 226.47 421.965 225.913 422.457C225.46 422.85 224.969 423.197 224.447 423.492C223.701 423.834 223.099 424.428 222.749 425.17C222.521 425.777 222.521 426.444 222.749 427.051C223.015 427.599 223.449 428.048 223.986 428.335L224.209 428.485C225.763 429.568 226.483 430.961 227.4 432.727C227.84 433.566 228.197 434.799 228.917 437.233L228.974 437.435C229.414 438.937 229.59 439.662 229.694 440.097C229.756 440.417 229.857 440.729 229.994 441.024C231.092 443.407 232.651 444.971 234.5 445.546C235.919 445.986 237.365 445.779 239.037 445.546C239.575 445.471 240.108 445.363 240.633 445.225C241.136 445.071 241.661 445.004 242.186 445.028C242.274 445.028 244.289 445.163 246.49 447.167C249.194 449.622 250.478 458.924 249.738 470.437C251.923 467.91 260.697 457.334 264.716 445.717L264.82 445.432L265.084 445.572C265.405 445.748 297.366 463.067 301.992 492.377C306.606 521.583 306.135 534.769 306.135 534.899V534.956C305.999 535.393 305.772 535.795 305.467 536.137C305.162 536.478 304.788 536.75 304.369 536.934C304.05 537.048 303.713 537.102 303.374 537.095Z" fill="white"/>
<path d="M264.83 445.841C264.303 445.85 263.781 445.735 263.308 445.504C262.79 445.245 262.272 444.494 261.148 442.853C259.242 440.04 259.076 439.02 259.019 438.58C258.955 438.18 258.946 437.774 258.993 437.373C259.028 437.079 259.036 436.783 259.019 436.487C258.848 434.806 258.142 433.225 257.004 431.976L256.73 431.639L257.155 431.556C257.46 431.494 264.649 429.956 263.168 422.534C262.65 419.945 261.412 418.116 259.874 417.697C259.489 417.581 259.08 417.577 258.693 417.684C258.307 417.792 257.958 418.006 257.688 418.303C256.968 419.116 256.875 420.447 257.445 421.871L257.481 421.959L257.45 422.047C257.414 422.172 257.342 422.283 257.242 422.366C257.142 422.45 257.02 422.501 256.89 422.513C256.497 422.513 255.917 422.156 254.922 419.515C252.924 417.241 250.693 415.182 248.267 413.372C244.823 410.917 240.223 402.599 240.581 396.503C237.848 399.272 235.746 402.599 234.418 406.256C234.108 407.13 233.845 408.021 233.63 408.923C233.553 409.234 233.475 409.545 233.387 409.866C233.273 410.28 233.133 410.725 232.967 411.186C232.895 411.399 232.812 411.621 232.724 411.839V411.896C232.646 412.108 232.558 412.315 232.47 412.528C232.185 413.227 231.849 413.968 231.465 414.724L231.248 415.154C231.079 415.499 230.897 415.836 230.704 416.164C230.642 416.278 230.574 416.402 230.507 416.516L230.279 416.909L229.912 417.453C229.88 417.515 229.843 417.574 229.803 417.629C229.71 417.785 229.606 417.951 229.492 418.116C229.455 418.179 229.416 418.239 229.373 418.298C229.306 418.411 229.218 418.541 229.135 418.66C228.622 419.42 228.069 420.151 227.477 420.851L226.043 422.286L227.115 420.452L227.177 420.343C227.639 419.487 228.052 418.605 228.415 417.702L228.461 417.593C228.503 417.474 228.549 417.36 228.591 417.251C228.684 416.977 228.772 416.733 228.834 416.485C228.86 416.419 228.881 416.352 228.896 416.283C228.982 415.982 229.05 415.675 229.098 415.366C229.098 415.278 229.098 415.237 229.124 415.195C229.15 415.154 229.15 415.014 229.155 414.936C229.161 414.858 229.155 414.812 229.155 414.77C229.2 414.442 229.157 414.108 229.031 413.802L229.005 413.755L227.539 410.083L226.933 408.576C226.504 407.504 226.26 406.924 226.115 406.592C226.011 406.384 225.932 406.163 225.882 405.935C225.587 404.168 226.4 402.641 226.944 401.631C227.624 400.416 228.521 399.337 229.59 398.445C230.056 398.022 230.563 397.645 231.103 397.321C231.574 397.026 232.139 396.658 233.237 395.845C234.32 395.051 235.349 394.186 236.318 393.256C236.766 392.832 237.186 392.381 237.577 391.904C237.808 391.591 238.103 391.332 238.442 391.143C239.112 390.763 239.873 390.572 240.643 390.588C241.322 390.61 241.994 390.443 242.585 390.107C242.958 389.901 243.271 389.603 243.497 389.242C243.8 388.783 244.182 388.381 244.626 388.056C245.838 387.144 246.972 386.864 248.873 386.455C250.423 386.12 252.005 385.946 253.591 385.937C257.561 386.005 261.474 386.887 265.089 388.527C268.435 389.998 270.527 391.562 273.423 393.732C276.696 396.146 279.668 398.944 282.274 402.066C284.688 404.982 285.506 406.68 285.946 407.835C286.707 409.852 287.059 412 286.982 414.154C286.827 417.106 285.791 419.168 284.361 422.027C283.94 422.882 283.457 423.706 282.916 424.492C282.398 425.279 281.621 426.46 280.208 428.78C279.27 430.334 278.68 431.334 278.198 432.152C277.547 433.333 276.833 434.477 276.059 435.581C275.489 436.384 275.261 436.663 274.878 437.135C274.495 437.606 273.868 438.367 272.433 440.242L271.636 441.278C270.191 443.194 269.756 443.774 268.741 444.432C267.595 445.26 266.24 445.748 264.83 445.841ZM257.657 431.955C258.723 433.228 259.378 434.793 259.537 436.446C259.557 436.77 259.549 437.096 259.511 437.419C259.457 437.777 259.457 438.14 259.511 438.497C259.511 438.498 259.512 438.5 259.512 438.501C259.574 438.908 259.72 439.853 261.541 442.537C262.577 444.028 263.095 444.836 263.515 445.038C264.732 445.634 266.477 445.276 268.43 444.002C269.378 443.386 269.766 442.873 271.201 440.967L271.998 439.931C273.438 438.036 274.07 437.29 274.459 436.824C274.847 436.358 275.059 436.094 275.619 435.306C276.381 434.23 277.088 433.115 277.737 431.966C278.219 431.147 278.814 430.127 279.752 428.589C281.166 426.263 281.948 425.072 282.466 424.29C282.998 423.52 283.472 422.711 283.885 421.871C283.893 421.856 283.9 421.84 283.908 421.825C285.294 419.047 286.299 417.034 286.449 414.206C286.515 412.12 286.163 410.042 285.413 408.094C284.988 406.981 284.196 405.329 281.829 402.47C279.249 399.383 276.309 396.616 273.07 394.229C270.196 392.075 268.124 390.526 264.835 389.05C261.286 387.434 257.444 386.561 253.545 386.486C251.994 386.498 250.449 386.672 248.935 387.004C247.107 387.403 246.014 387.667 244.895 388.511C244.49 388.806 244.139 389.168 243.859 389.584C243.596 390.016 243.224 390.373 242.782 390.619C242.119 390.998 241.365 391.188 240.602 391.168C239.915 391.148 239.236 391.317 238.639 391.655C238.354 391.815 238.106 392.034 237.914 392.298C237.511 392.79 237.077 393.255 236.614 393.691C235.635 394.62 234.597 395.485 233.506 396.28C232.428 397.094 231.834 397.468 231.362 397.766C231.353 397.771 231.344 397.777 231.336 397.782C230.82 398.089 230.337 398.448 229.896 398.855C228.873 399.702 228.014 400.731 227.363 401.89C226.82 402.925 226.084 404.277 226.353 405.867C226.394 406.057 226.46 406.24 226.55 406.411C226.695 406.748 226.939 407.328 227.374 408.405L227.98 409.912L229.435 413.564C229.616 413.95 229.684 414.379 229.632 414.802C229.632 414.848 229.632 414.91 229.632 414.972C229.625 415.077 229.613 415.18 229.596 415.283C229.599 415.33 229.599 415.376 229.596 415.423C229.545 415.762 229.473 416.098 229.378 416.428C229.361 416.507 229.338 416.585 229.311 416.661C229.249 416.894 229.155 417.179 229.057 417.443L228.922 417.8L228.876 417.914L228.875 417.915C228.808 418.086 228.741 418.256 228.663 418.432L228.705 418.37C228.788 418.251 228.87 418.127 228.943 418.008C229.016 417.888 229.021 417.894 229.057 417.837C229.171 417.666 229.269 417.51 229.368 417.35C229.409 417.288 229.44 417.241 229.466 417.194L229.798 416.645L230.02 416.262L230.217 415.915C230.404 415.584 230.58 415.252 230.735 414.921L230.953 414.491C231.325 413.745 231.657 413.02 231.937 412.331C232.035 412.103 232.123 411.88 232.206 411.663L232.232 411.606C232.304 411.409 232.382 411.212 232.444 411.015C232.61 410.565 232.745 410.13 232.853 409.726C232.941 409.41 233.019 409.104 233.097 408.794C233.316 407.877 233.584 406.973 233.9 406.085C235.336 402.126 237.661 398.549 240.695 395.628L241.213 395.11L241.114 395.851C240.337 401.817 245.04 410.472 248.521 412.942C250.991 414.788 253.263 416.884 255.3 419.199L255.347 419.276C256.347 421.949 256.828 421.985 256.849 421.985C256.867 421.976 256.881 421.962 256.89 421.944C256.295 420.39 256.435 418.888 257.274 417.951C257.603 417.577 258.034 417.307 258.513 417.171C258.993 417.036 259.501 417.043 259.977 417.189C260.811 417.412 262.836 418.375 263.644 422.425C265.053 429.319 259.278 431.494 257.657 431.955Z" fill="white"/>
<path d="M257.657 431.955C258.723 433.228 259.378 434.793 259.537 436.446C259.557 436.77 259.549 437.096 259.511 437.419C259.457 437.777 259.457 438.14 259.511 438.497L259.512 438.501C259.574 438.908 259.72 439.853 261.541 442.537C262.577 444.028 263.095 444.836 263.515 445.038C264.732 445.634 266.477 445.276 268.43 444.002C269.378 443.386 269.766 442.873 271.201 440.967L271.998 439.931C273.438 438.036 274.07 437.29 274.459 436.824C274.847 436.358 275.059 436.094 275.619 435.306C276.381 434.23 277.088 433.115 277.737 431.966C278.219 431.147 278.814 430.127 279.752 428.589C281.166 426.263 281.948 425.072 282.466 424.29C282.998 423.52 283.472 422.711 283.885 421.871L283.908 421.825C285.294 419.047 286.299 417.034 286.449 414.206C286.515 412.12 286.163 410.042 285.413 408.094C284.988 406.981 284.196 405.329 281.829 402.47C279.249 399.383 276.309 396.616 273.07 394.229C270.196 392.075 268.124 390.526 264.835 389.05C261.286 387.434 257.444 386.561 253.545 386.486C251.994 386.498 250.449 386.672 248.935 387.004C247.107 387.403 246.014 387.667 244.895 388.511C244.49 388.806 244.139 389.168 243.859 389.584C243.596 390.016 243.224 390.373 242.782 390.619C242.119 390.998 241.365 391.188 240.602 391.168C239.915 391.148 239.236 391.317 238.639 391.655C238.354 391.815 238.106 392.034 237.914 392.298C237.511 392.79 237.077 393.255 236.614 393.691C235.635 394.62 234.597 395.485 233.506 396.28C232.428 397.094 231.834 397.468 231.362 397.766L231.336 397.782C230.82 398.089 230.337 398.448 229.896 398.855C228.873 399.702 228.014 400.731 227.363 401.89C226.82 402.925 226.084 404.277 226.353 405.867C226.394 406.057 226.46 406.24 226.55 406.411C226.695 406.748 226.939 407.328 227.374 408.405L227.98 409.912L229.435 413.564C229.616 413.95 229.684 414.379 229.632 414.802V414.972C229.625 415.077 229.613 415.18 229.596 415.283C229.599 415.33 229.599 415.376 229.596 415.423C229.545 415.762 229.473 416.098 229.378 416.428C229.361 416.507 229.338 416.585 229.311 416.661C229.249 416.894 229.155 417.179 229.057 417.443L228.922 417.8L228.876 417.914L228.875 417.915C228.808 418.086 228.741 418.256 228.663 418.432L228.705 418.37C228.788 418.251 228.87 418.127 228.943 418.008C229.016 417.888 229.021 417.894 229.057 417.837C229.171 417.666 229.269 417.51 229.368 417.35C229.409 417.288 229.44 417.241 229.466 417.194L229.798 416.645L230.02 416.262L230.217 415.915C230.404 415.584 230.58 415.252 230.735 414.921L230.953 414.491C231.325 413.745 231.657 413.02 231.937 412.331C232.035 412.103 232.123 411.88 232.206 411.663L232.232 411.606C232.304 411.409 232.382 411.212 232.444 411.015C232.61 410.565 232.745 410.13 232.853 409.726C232.941 409.41 233.019 409.104 233.097 408.794C233.316 407.877 233.584 406.973 233.9 406.085C235.336 402.126 237.661 398.549 240.695 395.628L241.213 395.11L241.114 395.851C240.337 401.817 245.04 410.472 248.521 412.942C250.991 414.788 253.263 416.884 255.3 419.199L255.347 419.276C256.347 421.949 256.828 421.985 256.849 421.985C256.867 421.976 256.881 421.962 256.89 421.944C256.295 420.39 256.435 418.888 257.274 417.951C257.603 417.577 258.034 417.307 258.513 417.171C258.993 417.036 259.501 417.043 259.977 417.189C260.811 417.412 262.836 418.375 263.644 422.425C265.053 429.319 259.278 431.494 257.657 431.955Z" fill="white"/>
<path d="M249.955 374.098L249.986 373.756C250.106 372.513 250.095 368.022 244.838 362.32C242.249 359.502 237.908 353.898 238.183 348.025C238.317 345.062 239.633 342.442 242.083 340.256C244.818 337.866 248.293 336.489 251.923 336.356C256.631 336.133 265.157 337.055 269.326 345.741C269.326 345.741 272.951 351.138 266.182 358.969C259.723 366.422 259.024 368.027 259.941 373.326L259.993 373.616L250.411 374.041C250.365 374.035 250.318 374.035 250.271 374.041L249.955 374.098ZM253.218 336.807C252.794 336.807 252.379 336.807 251.97 336.838C248.451 336.959 245.081 338.291 242.43 340.608C240.084 342.716 238.804 345.213 238.701 348.03C238.437 353.727 242.673 359.197 245.216 361.957C250.256 367.416 250.603 371.855 250.525 373.481L259.402 373.088C258.537 367.856 259.402 365.992 265.809 358.586C272.314 351.076 268.917 346.005 268.917 345.953C265.327 338.537 258.641 336.822 253.223 336.822L253.218 336.807Z" fill="white"/>
<path fill-rule="evenodd" clip-rule="evenodd" d="M257.2 378.39H253.056C252.507 378.39 251.98 378.172 251.591 377.783C251.203 377.395 250.984 376.868 250.984 376.318V375.458L259.271 375.111V376.318C259.271 376.868 259.053 377.395 258.664 377.783C258.276 378.172 257.749 378.39 257.2 378.39ZM251.502 376.308V375.945L258.753 375.645V376.308C258.753 376.72 258.59 377.115 258.298 377.406C258.007 377.698 257.612 377.862 257.2 377.862H253.056C252.644 377.862 252.249 377.698 251.957 377.406C251.666 377.115 251.502 376.72 251.502 376.308Z" fill="white"/>
<path d="M255.128 380.485C254.647 380.485 254.186 380.294 253.846 379.954C253.506 379.614 253.315 379.153 253.315 378.672V377.895H256.94V378.672C256.94 379.153 256.749 379.614 256.41 379.954C256.07 380.294 255.608 380.485 255.128 380.485ZM253.833 378.413V378.672C253.833 379.016 253.969 379.345 254.212 379.588C254.455 379.831 254.784 379.967 255.128 379.967C255.471 379.967 255.8 379.831 256.043 379.588C256.286 379.345 256.423 379.016 256.423 378.672V378.413H253.833Z" fill="white"/>
<path d="M243.766 374.34L242.221 379.202L242.715 379.359L244.26 374.496L243.766 374.34Z" fill="white"/>
<path d="M238.817 369.423L236.814 374.856L237.3 375.036L239.303 369.603L238.817 369.423Z" fill="white"/>
<path d="M234.139 364.1L230.307 367.128L230.628 367.534L234.46 364.506L234.139 364.1Z" fill="white"/>
<path d="M230.834 357.144L226.828 358.63L227.008 359.116L231.014 357.629L230.834 357.144Z" fill="white"/>
<path d="M226.602 350.824L226.557 351.34L231.82 351.798L231.865 351.282L226.602 350.824Z" fill="white"/>
<path d="M228.991 343.797L228.834 344.291L233.697 345.835L233.853 345.342L228.991 343.797Z" fill="white"/>
<path d="M232.345 334.847L231.997 335.23L236.071 338.933L236.42 338.55L232.345 334.847Z" fill="white"/>
<path d="M239.32 327.662L238.908 327.975L242.567 332.78L242.979 332.466L239.32 327.662Z" fill="white"/>
<path d="M246.771 324.253L246.318 324.504L249.577 330.395L250.031 330.145L246.771 324.253Z" fill="white"/>
<path d="M254.912 322.362L254.411 322.492L256.24 329.583L256.741 329.454L254.912 322.362Z" fill="white"/>
<path d="M261.802 323.128L260.485 330.047L260.994 330.144L262.311 323.225L261.802 323.128Z" fill="white"/>
<path d="M267.743 325.008L265.226 330.497L265.696 330.713L268.214 325.223L267.743 325.008Z" fill="white"/>
<path d="M272.995 329.611L269.395 334.702L269.817 335.001L273.418 329.91L272.995 329.611Z" fill="white"/>
<path d="M276.735 334.909L271.584 340.166L271.954 340.528L277.105 335.271L276.735 334.909Z" fill="white"/>
<path d="M279.955 340.258L276.123 343.286L276.444 343.693L280.276 340.665L279.955 340.258Z" fill="white"/>
<path d="M282.652 349.835L277.163 352.01L277.354 352.491L282.843 350.316L282.652 349.835Z" fill="white"/>
<path d="M279.97 357.926L274.307 358.555L274.364 359.069L280.027 358.441L279.97 357.926Z" fill="white"/>
<path d="M272.904 364.435L272.869 364.952L278.645 365.353L278.681 364.836L272.904 364.435Z" fill="white"/>
<path d="M269.379 369.051L269.116 369.497L273.577 372.129L273.84 371.683L269.379 369.051Z" fill="white"/>
<path d="M266.656 372.504L266.333 372.908L269.766 375.655L270.089 375.251L266.656 372.504Z" fill="white"/>
<path d="M115.532 364.625L115.439 363.423C115.16 360.916 115.993 358.182 118.314 355.4C120.385 352.945 121.556 351.138 121.556 349.051C121.556 346.689 120.075 345.114 117.154 345.068C115.491 345.065 113.866 345.565 112.492 346.502L111.358 343.597C112.886 342.488 115.532 341.743 117.987 341.743C123.317 341.743 125.725 345.037 125.725 348.558C125.725 351.713 123.964 353.981 121.742 356.623C119.702 359.036 118.961 361.072 119.101 363.439L119.148 364.64L115.532 364.625ZM114.497 371.114C114.471 370.736 114.525 370.357 114.654 370.001C114.783 369.645 114.985 369.319 115.246 369.045C115.508 368.771 115.823 368.554 116.173 368.408C116.523 368.263 116.899 368.191 117.278 368.198C118.899 368.198 120.012 369.4 120.012 371.114C120.029 371.486 119.969 371.858 119.838 372.207C119.707 372.556 119.506 372.874 119.248 373.143C118.991 373.412 118.681 373.626 118.338 373.773C117.996 373.919 117.627 373.994 117.255 373.994C116.882 373.994 116.513 373.919 116.171 373.773C115.828 373.626 115.518 373.412 115.261 373.143C115.003 372.874 114.802 372.556 114.671 372.207C114.54 371.858 114.48 371.486 114.497 371.114Z" fill="white"/>
<path d="M117.246 374.263C116.842 374.268 116.441 374.19 116.069 374.034C115.696 373.878 115.359 373.647 115.078 373.356C114.798 373.065 114.58 372.72 114.438 372.341C114.296 371.963 114.233 371.559 114.253 371.156C114.23 370.744 114.292 370.332 114.435 369.946C114.578 369.559 114.799 369.206 115.084 368.909C115.369 368.611 115.712 368.375 116.092 368.215C116.472 368.056 116.881 367.976 117.293 367.981C119.054 367.981 120.287 369.286 120.287 371.156C120.308 371.564 120.244 371.971 120.099 372.353C119.955 372.735 119.733 373.083 119.447 373.375C119.162 373.667 118.819 373.897 118.44 374.05C118.061 374.203 117.655 374.275 117.246 374.263ZM117.293 368.473C116.622 368.509 115.989 368.799 115.525 369.285C115.06 369.77 114.798 370.415 114.792 371.087C114.786 371.759 115.037 372.409 115.493 372.902C115.949 373.396 116.576 373.698 117.246 373.745C117.587 373.758 117.926 373.7 118.243 373.573C118.559 373.447 118.846 373.255 119.083 373.011C119.321 372.767 119.505 372.476 119.623 372.156C119.741 371.837 119.791 371.496 119.769 371.156C119.769 369.54 118.774 368.473 117.293 368.473ZM119.417 364.899H115.273L115.164 363.459C114.859 360.719 115.843 357.954 118.096 355.25C120.116 352.878 121.281 351.107 121.281 349.066C121.281 346.741 119.769 345.384 117.138 345.342C115.525 345.334 113.948 345.817 112.616 346.725L112.342 346.932L111.047 343.509L111.207 343.39C112.761 342.25 115.496 341.484 117.987 341.484C123.891 341.484 125.984 345.296 125.984 348.559C125.984 351.739 124.311 353.976 121.939 356.788C119.991 359.093 119.22 361.077 119.349 363.423L119.417 364.899ZM115.791 364.381H118.899L118.862 363.449C118.712 360.963 119.525 358.87 121.566 356.457C123.86 353.727 125.487 351.563 125.487 348.559C125.487 345.555 123.529 342.002 118.008 342.002C115.703 342.002 113.201 342.68 111.694 343.695L112.616 346.114C113.986 345.27 115.564 344.823 117.174 344.824C120.095 344.871 121.835 346.456 121.835 349.066C121.835 351.262 120.623 353.121 118.531 355.587C116.371 358.176 115.423 360.808 115.713 363.408L115.791 364.381Z" fill="white"/>
<path d="M260.832 461.343C260.998 461.529 264.048 464.932 268.083 463.932L274.138 451.823C271.226 449.604 268.165 447.59 264.975 445.794C260.314 459.261 249.438 471.173 249.438 471.173C249.772 466.893 249.782 462.594 249.469 458.313C248.189 460.473 246.035 463.342 243.481 463.663C243.481 463.663 248.661 474.539 249.179 480.237C249.384 479.672 249.63 479.124 249.914 478.595C251.317 475.896 253.393 473.604 255.941 471.941C258.488 470.278 261.422 469.3 264.458 469.101L260.832 461.332" fill="#06F71E"/>
<path d="M249.033 480.454C248.723 480.418 248.919 480.257 248.919 480.257C248.402 474.674 243.3 463.88 243.248 463.772L243.093 463.451L243.445 463.404C245.859 463.098 247.93 460.395 249.246 458.178L249.66 457.479L249.722 458.287C250.022 462.328 250.031 466.385 249.748 470.427C251.934 467.9 260.708 457.324 264.727 445.706L264.83 445.422L265.094 445.561C268.295 447.366 271.37 449.385 274.298 451.606L274.469 451.735L268.254 464.165L268.14 464.191C265.281 464.911 262.909 463.502 261.629 462.467L264.841 469.345L264.473 469.376C255.88 470.122 251.804 475.56 250.137 478.735C249.86 479.251 249.619 479.785 249.417 480.335C249.417 480.335 249.339 480.485 249.033 480.454ZM243.854 463.88C244.667 465.616 248.459 473.933 249.308 479.253C249.406 479.03 249.531 478.776 249.676 478.491C251.081 475.818 253.134 473.54 255.646 471.864C258.158 470.189 261.051 469.169 264.059 468.899L260.573 461.467V461.353H260.832L261.023 461.182L261.055 461.218C261.469 461.674 264.255 464.559 267.902 463.715L273.806 451.911C271.033 449.821 268.13 447.91 265.115 446.188C260.454 459.431 249.738 471.245 249.629 471.365L249.111 471.919L249.163 471.173C249.467 467.171 249.497 463.153 249.251 459.147C247.956 461.177 246.076 463.388 243.859 463.86L243.854 463.88Z" fill="white"/>
</g>
<defs>
<linearGradient id="paint0_linear" x1="214.791" y1="1107.96" x2="229.468" y2="431.821" gradientUnits="userSpaceOnUse">
<stop stop-color="#06F71E"/>
<stop offset="1" stop-color="#06F71E" stop-opacity="0"/>
</linearGradient>
<linearGradient id="paint1_linear" x1="462.512" y1="201.319" x2="405.423" y2="585.694" gradientUnits="userSpaceOnUse">
<stop stop-color="#06F71E"/>
<stop offset="1" stop-color="#62F706" stop-opacity="0"/>
</linearGradient>
<linearGradient id="paint2_linear" x1="96.958" y1="294.456" x2="72.1438" y2="461.528" gradientUnits="userSpaceOnUse">
<stop stop-color="#06F71E"/>
<stop offset="1" stop-color="#62F706" stop-opacity="0"/>
</linearGradient>
<linearGradient id="paint3_linear" x1="367.85" y1="270.989" x2="336.517" y2="481.956" gradientUnits="userSpaceOnUse">
<stop stop-color="#06F71E"/>
<stop offset="1" stop-color="#62F706" stop-opacity="0"/>
</linearGradient>
</defs>
</svg>
