<svg width="785" height="145" viewBox="0 0 785 145" fill="none" xmlns="http://www.w3.org/2000/svg">
<path opacity="0.5" d="M21.9074 111.168L21.5411 111.86L21.5533 111.866L21.9074 111.168ZM6.49943 96.9115L5.82905 97.3159L5.83381 97.3236L6.49943 96.9115ZM6.49943 55.7275L5.83377 55.3155L5.82909 55.3232L6.49943 55.7275ZM21.9074 41.6155L22.2657 42.3116L22.2695 42.3096L21.9074 41.6155ZM65.5394 41.6155L65.151 42.2952L65.1574 42.2989L65.1638 42.3024L65.5394 41.6155ZM78.9314 56.1595L79.3019 56.8492L79.9391 56.5069L79.6481 55.8446L78.9314 56.1595ZM61.5074 65.5195L60.8266 65.906L61.2041 66.5711L61.8779 66.2092L61.5074 65.5195ZM29.5394 60.6235L28.9859 60.07L29.5394 60.6235ZM61.5074 87.1195L61.8823 86.4323L61.1996 86.0599L60.8227 86.7401L61.5074 87.1195ZM78.9314 96.6235L79.6445 96.9466L79.9446 96.2844L79.3063 95.9363L78.9314 96.6235ZM65.5394 111.024L65.1556 110.341L65.151 110.344L65.5394 111.024ZM44.2274 115.425C36.0806 115.425 28.7641 113.768 22.2616 110.469L21.5533 111.866C28.2988 115.287 35.8623 116.99 44.2274 116.99V115.425ZM22.2737 110.476C15.8636 107.082 10.833 102.425 7.16506 96.4995L5.83381 97.3236C9.65386 103.494 14.8952 108.341 21.5412 111.859L22.2737 110.476ZM7.16977 96.5072C3.60176 90.5918 1.81028 83.8699 1.81028 76.3195H0.244593C0.244593 84.1292 2.10111 91.1353 5.82909 97.3159L7.16977 96.5072ZM1.81028 76.3195C1.81028 68.7692 3.60176 62.0473 7.16977 56.1319L5.82909 55.3232C2.10111 61.5038 0.244593 68.5099 0.244593 76.3195H1.81028ZM7.16506 56.1396C10.8318 50.2164 15.8598 45.6088 22.2657 42.3116L21.5492 40.9195C14.8991 44.3423 9.65508 49.1427 5.83381 55.3155L7.16506 56.1396ZM22.2695 42.3096C28.7704 38.9179 36.0841 37.2144 44.2274 37.2144V35.6487C35.8588 35.6487 28.2925 37.4012 21.5453 40.9215L22.2695 42.3096ZM44.2274 37.2144C52.2747 37.2144 59.2402 38.9176 65.151 42.2952L65.9278 40.9358C59.7427 37.4015 52.5001 35.6487 44.2274 35.6487V37.2144ZM65.1638 42.3024C71.1581 45.5805 75.5011 50.2987 78.2147 56.4745L79.6481 55.8446C76.7937 49.3484 72.2087 44.3706 65.9151 40.9287L65.1638 42.3024ZM78.561 55.4699L61.137 64.8299L61.8779 66.2092L79.3019 56.8492L78.561 55.4699ZM62.1883 65.1331C58.0303 57.8072 51.9748 54.0807 44.0834 54.0807V55.6464C51.3601 55.6464 56.9206 59.0239 60.8266 65.906L62.1883 65.1331ZM44.0834 54.0807C38.0378 54.0807 32.9849 56.0709 28.9859 60.07L30.093 61.1771C33.7739 57.4961 38.4171 55.6464 44.0834 55.6464V54.0807ZM28.9859 60.07C24.968 64.0879 22.9966 69.5365 22.9966 76.3195H24.5623C24.5623 69.8546 26.4309 64.8392 30.093 61.1771L28.9859 60.07ZM22.9966 76.3195C22.9966 83.1026 24.968 88.5512 28.9859 92.5691L30.093 91.462C26.4309 87.7999 24.5623 82.7845 24.5623 76.3195H22.9966ZM28.9859 92.5691C32.9849 96.5681 38.0378 98.5584 44.0834 98.5584V96.9927C38.4171 96.9927 33.7739 95.1429 30.093 91.462L28.9859 92.5691ZM44.0834 98.5584C48.0486 98.5584 51.5657 97.6399 54.6079 95.7794C57.6478 93.9203 60.1713 91.1465 62.1922 87.4989L60.8227 86.7401C58.9076 90.1966 56.5591 92.7508 53.791 94.4437C51.0252 96.1352 47.7982 96.9927 44.0834 96.9927V98.5584ZM61.1326 87.8068L78.5566 97.3108L79.3063 95.9363L61.8823 86.4323L61.1326 87.8068ZM78.2184 96.3004C75.5064 102.286 71.1615 106.963 65.1556 110.341L65.9232 111.706C72.2054 108.172 76.7885 103.249 79.6445 96.9466L78.2184 96.3004ZM65.151 110.344C59.2402 113.721 52.2747 115.425 44.2274 115.425V116.99C52.5001 116.99 59.7427 115.238 65.9278 111.703L65.151 110.344ZM150.762 45.0715L150.239 45.6547L150.244 45.6591L150.762 45.0715ZM160.41 115.056V115.838H161.192V115.056H160.41ZM139.386 115.056H138.603V115.838H139.386V115.056ZM139.386 105.408H140.168V102.526L138.71 105.011L139.386 105.408ZM100.218 113.184L99.8865 113.893L99.8924 113.896L100.218 113.184ZM90.2816 104.832L90.9383 104.406L90.2816 104.832ZM94.8896 75.7435L94.4181 75.1186L94.4128 75.1226L94.8896 75.7435ZM137.946 69.5515V70.3344H138.728V69.5515H137.946ZM133.482 58.3195L132.957 58.9006L132.967 58.9099L133.482 58.3195ZM107.85 56.3035L108.086 57.0499L108.097 57.0462L107.85 56.3035ZM97.7696 61.4875L97.0732 61.8453L97.509 62.6934L98.256 62.1009L97.7696 61.4875ZM89.7056 45.7915L89.2547 45.1516L88.6981 45.5437L89.0092 46.1493L89.7056 45.7915ZM104.826 38.8795L104.619 38.1246L104.615 38.1254L104.826 38.8795ZM131.61 98.4955L132.003 99.1725L132.011 99.1679L132.019 99.163L131.61 98.4955ZM137.946 90.5755L138.682 90.8414L138.728 90.7126V90.5755H137.946ZM137.946 82.6555H138.728V81.8727H137.946V82.6555ZM112.026 98.6395L111.543 99.256L111.558 99.2676L111.573 99.2784L112.026 98.6395ZM123.114 37.2144C134.996 37.2144 143.998 40.0659 150.239 45.6547L151.284 44.4884C144.661 38.5572 135.231 35.6487 123.114 35.6487V37.2144ZM150.244 45.6591C156.455 51.128 159.627 59.471 159.627 70.8475H161.192C161.192 59.184 157.932 50.3431 151.279 44.484L150.244 45.6591ZM159.627 70.8475V115.056H161.192V70.8475H159.627ZM160.41 114.273H139.386V115.838H160.41V114.273ZM140.168 115.056V105.408H138.603V115.056H140.168ZM138.71 105.011C134.678 111.885 127.13 115.425 115.77 115.425V116.99C127.449 116.99 135.645 113.33 140.061 105.804L138.71 105.011ZM115.77 115.425C109.905 115.425 104.836 114.432 100.543 112.471L99.8924 113.896C104.431 115.968 109.73 116.99 115.77 116.99V115.425ZM100.549 112.474C96.3444 110.512 93.1527 107.819 90.9383 104.406L89.6248 105.258C92.0184 108.948 95.4507 111.823 99.8865 113.893L100.549 112.474ZM90.9383 104.406C88.7221 100.989 87.6084 97.1068 87.6084 92.7355H86.0427C86.0427 97.3883 87.233 101.57 89.6248 105.258L90.9383 104.406ZM87.6084 92.7355C87.6084 85.7613 90.1968 80.3339 95.3663 76.3644L94.4128 75.1226C88.8303 79.4092 86.0427 85.3098 86.0427 92.7355H87.6084ZM95.361 76.3685C100.634 72.3907 108.83 70.3344 120.09 70.3344V68.7687C108.693 68.7687 100.089 70.8404 94.4181 75.1186L95.361 76.3685ZM120.09 70.3344H137.946V68.7687H120.09V70.3344ZM138.728 69.5515C138.728 64.4882 137.182 60.5047 133.996 57.7292L132.967 58.9099C135.733 61.3184 137.163 64.8229 137.163 69.5515H138.728ZM134.006 57.7386C130.83 54.87 126.144 53.5047 120.09 53.5047V55.0704C125.939 55.0704 130.181 56.393 132.957 58.9005L134.006 57.7386ZM120.09 53.5047C115.875 53.5047 111.711 54.1911 107.602 55.5609L108.097 57.0462C112.052 55.728 116.048 55.0704 120.09 55.0704V53.5047ZM107.613 55.5573C103.601 56.8295 100.153 58.5983 97.2831 60.8742L98.256 62.1009C100.954 59.9607 104.226 58.2736 108.086 57.0498L107.613 55.5573ZM98.4659 61.1298L90.4019 45.4338L89.0092 46.1493L97.0732 61.8453L98.4659 61.1298ZM90.1564 46.4315C94.2957 43.5152 99.251 41.2458 105.036 39.6336L104.615 38.1254C98.6881 39.7773 93.5634 42.1159 89.2547 45.1516L90.1564 46.4315ZM105.033 39.6345C110.916 38.0212 116.943 37.2144 123.114 37.2144V35.6487C116.804 35.6487 110.639 36.4739 104.619 38.1246L105.033 39.6345ZM121.386 101.87C125.347 101.87 128.894 100.978 132.003 99.1725L131.216 97.8186C128.373 99.4694 125.104 100.305 121.386 100.305V101.87ZM132.019 99.163C135.155 97.241 137.377 94.4551 138.682 90.8414L137.209 90.3097C136.018 93.608 134.017 96.1021 131.2 97.8281L132.019 99.163ZM138.728 90.5755V82.6555H137.163V90.5755H138.728ZM137.946 81.8727H122.538V83.4384H137.946V81.8727ZM122.538 81.8727C117.869 81.8727 114.231 82.6341 111.74 84.2691C109.191 85.9417 107.931 88.4702 107.931 91.7275H109.496C109.496 88.9369 110.54 86.9294 112.599 85.578C114.716 84.1889 117.99 83.4384 122.538 83.4384V81.8727ZM107.931 91.7275C107.931 94.8407 109.14 97.375 111.543 99.256L112.508 98.023C110.496 96.4481 109.496 94.3744 109.496 91.7275H107.931ZM111.573 99.2784C114.052 101.034 117.349 101.87 121.386 101.87V100.305C117.55 100.305 114.607 99.5086 112.478 98.0007L111.573 99.2784ZM230.709 111.312L231.174 111.941L231.652 111.588L231.44 111.032L230.709 111.312ZM222.501 115.056L222.685 115.816L222.693 115.814L222.701 115.812L222.501 115.056ZM190.965 109.152L190.428 109.721L190.433 109.726L190.965 109.152ZM183.477 56.5915H184.259V55.8087H183.477V56.5915ZM171.525 56.5915H170.742V57.3744H171.525V56.5915ZM171.525 39.3115V38.5287H170.742V39.3115H171.525ZM183.477 39.3115V40.0944H184.259V39.3115H183.477ZM183.477 20.4475V19.6647H182.694V20.4475H183.477ZM205.941 20.4475H206.723V19.6647H205.941V20.4475ZM205.941 39.3115H205.158V40.0944H205.941V39.3115ZM225.237 39.3115H226.019V38.5287H225.237V39.3115ZM225.237 56.5915V57.3744H226.019V56.5915H225.237ZM205.941 56.5915V55.8087H205.158V56.5915H205.941ZM208.389 95.7595L207.805 96.2815L207.82 96.2977L207.835 96.3131L208.389 95.7595ZM224.661 95.4715L225.392 95.1923L225.017 94.2099L224.183 94.851L224.661 95.4715ZM230.243 110.682C228.131 112.243 225.49 113.454 222.3 114.299L222.701 115.812C226.039 114.929 228.87 113.644 231.174 111.941L230.243 110.682ZM222.316 114.295C219.214 115.047 215.916 115.425 212.421 115.425V116.99C216.029 116.99 219.451 116.6 222.685 115.816L222.316 114.295ZM212.421 115.425C203.335 115.425 196.397 113.108 191.496 108.577L190.433 109.726C195.708 114.603 203.074 116.99 212.421 116.99V115.425ZM191.501 108.582C186.713 104.07 184.259 97.3941 184.259 88.4155H182.694C182.694 97.677 185.232 104.825 190.428 109.721L191.501 108.582ZM184.259 88.4155V56.5915H182.694V88.4155H184.259ZM183.477 55.8087H171.525V57.3744H183.477V55.8087ZM172.307 56.5915V39.3115H170.742V56.5915H172.307ZM171.525 40.0944H183.477V38.5287H171.525V40.0944ZM184.259 39.3115V20.4475H182.694V39.3115H184.259ZM183.477 21.2304H205.941V19.6647H183.477V21.2304ZM205.158 20.4475V39.3115H206.723V20.4475H205.158ZM205.941 40.0944H225.237V38.5287H205.941V40.0944ZM224.454 39.3115V56.5915H226.019V39.3115H224.454ZM225.237 55.8087H205.941V57.3744H225.237V55.8087ZM205.158 56.5915V88.1275H206.723V56.5915H205.158ZM205.158 88.1275C205.158 91.5189 206.007 94.2718 207.805 96.2815L208.972 95.2375C207.506 93.5993 206.723 91.2642 206.723 88.1275H205.158ZM207.835 96.3131C209.745 98.2234 212.365 99.1344 215.589 99.1344V97.5687C212.668 97.5687 210.488 96.7517 208.942 95.206L207.835 96.3131ZM215.589 99.1344C219.29 99.1344 222.488 98.1306 225.138 96.092L224.183 94.851C221.841 96.6524 218.991 97.5687 215.589 97.5687V99.1344ZM223.929 95.7508L229.977 111.591L231.44 111.032L225.392 95.1923L223.929 95.7508ZM316.384 82.6555V83.4384H317.109L317.165 82.7156L316.384 82.6555ZM257.776 82.6555V81.8727H256.802L257.012 82.8237L257.776 82.6555ZM265.264 94.0315L265.716 93.3924L265.264 94.0315ZM290.608 96.4795L290.883 97.2126L290.895 97.2079L290.608 96.4795ZM299.392 90.7195L299.968 90.1888L299.425 89.6004L298.849 90.156L299.392 90.7195ZM311.344 103.68L311.934 104.195L312.396 103.665L311.92 103.149L311.344 103.68ZM256.192 111.168L255.834 111.864L255.842 111.868L256.192 111.168ZM240.64 96.9115L239.97 97.3159L240.64 96.9115ZM240.496 55.8715L239.823 55.4719L239.821 55.4751L240.496 55.8715ZM255.328 41.6155L255.699 42.3048L255.703 42.3028L255.328 41.6155ZM297.088 41.3275L297.455 40.6362L297.088 41.3275ZM311.488 55.4395L310.806 55.8233L310.809 55.8297L310.813 55.836L311.488 55.4395ZM263.824 57.7435L263.323 57.1421L263.824 57.7435ZM257.488 69.5515L256.714 69.4325L256.576 70.3344H257.488V69.5515ZM295.648 69.5515V70.3344H296.563L296.421 69.4302L295.648 69.5515ZM289.312 57.8875L288.801 58.4808L288.811 58.4889L289.312 57.8875ZM316.033 76.6075C316.033 76.8559 315.894 78.8225 315.604 82.5955L317.165 82.7156C317.45 79.0006 317.599 76.9352 317.599 76.6075H316.033ZM316.384 81.8727H257.776V83.4384H316.384V81.8727ZM257.012 82.8237C258.108 87.8101 260.713 91.7717 264.812 94.6707L265.716 93.3924C261.943 90.7234 259.556 87.101 258.541 82.4873L257.012 82.8237ZM264.812 94.6707C268.906 97.5667 273.97 98.9904 279.952 98.9904V97.4247C274.223 97.4247 269.494 96.0644 265.716 93.3924L264.812 94.6707ZM279.952 98.9904C284.057 98.9904 287.706 98.4041 290.883 97.2125L290.333 95.7465C287.367 96.859 283.911 97.4247 279.952 97.4247V98.9904ZM290.895 97.2079C294.167 95.9188 297.181 93.9394 299.935 91.2831L298.849 90.156C296.227 92.6837 293.385 94.5443 290.321 95.7512L290.895 97.2079ZM298.817 91.2503L310.769 104.21L311.92 103.149L299.968 90.1888L298.817 91.2503ZM310.754 103.165C303.645 111.303 293.23 115.425 279.376 115.425V116.99C293.554 116.99 304.451 112.76 311.934 104.195L310.754 103.165ZM279.376 115.425C270.742 115.425 263.137 113.765 256.542 110.467L255.842 111.868C262.687 115.29 270.538 116.99 279.376 116.99V115.425ZM256.55 110.471C249.95 107.077 244.878 102.422 241.31 96.5072L239.97 97.3159C243.698 103.497 248.994 108.346 255.834 111.864L256.55 110.471ZM241.31 96.5072C237.742 90.5918 235.951 83.8699 235.951 76.3195H234.385C234.385 84.1292 236.242 91.1353 239.97 97.3159L241.31 96.5072ZM235.951 76.3195C235.951 68.8632 237.695 62.1861 241.171 56.268L239.821 55.4751C236.193 61.653 234.385 68.6079 234.385 76.3195H235.951ZM241.169 56.2712C244.745 50.2483 249.585 45.5969 255.699 42.3048L254.957 40.9263C248.591 44.3542 243.543 49.2068 239.823 55.4719L241.169 56.2712ZM255.703 42.3028C261.915 38.9143 268.841 37.2144 276.496 37.2144V35.6487C268.599 35.6487 261.413 37.4048 254.953 40.9283L255.703 42.3028ZM276.496 37.2144C283.964 37.2144 290.7 38.8203 296.721 42.0189L297.455 40.6362C291.188 37.3068 284.196 35.6487 276.496 35.6487V37.2144ZM296.721 42.0189C302.731 45.2116 307.422 49.808 310.806 55.8233L312.17 55.0557C308.642 48.783 303.733 43.9714 297.455 40.6362L296.721 42.0189ZM310.813 55.836C314.284 61.7467 316.033 68.6617 316.033 76.6075H317.599C317.599 68.4253 315.796 61.2283 312.163 55.0431L310.813 55.836ZM276.64 52.6407C271.394 52.6407 266.938 54.1296 263.323 57.1421L264.325 58.3449C267.622 55.5975 271.71 54.2064 276.64 54.2064V52.6407ZM263.323 57.1421C259.702 60.1595 257.508 64.2767 256.714 69.4325L258.262 69.6706C259.005 64.8424 261.034 61.0876 264.325 58.3449L263.323 57.1421ZM257.488 70.3344H295.648V68.7687H257.488V70.3344ZM296.421 69.4302C295.627 64.367 293.43 60.3005 289.813 57.2861L288.811 58.4889C292.106 61.2346 294.133 64.9441 294.875 69.6729L296.421 69.4302ZM289.823 57.2943C286.211 54.1841 281.8 52.6407 276.64 52.6407V54.2064C281.464 54.2064 285.501 55.639 288.801 58.4808L289.823 57.2943ZM411.692 37.5835H412.475V36.8007H411.692V37.5835ZM400.604 133.776L400.069 133.204L400.604 133.776ZM346.892 141.408L346.687 142.163L346.892 141.408ZM330.188 133.488L329.503 133.108L329.18 133.693L329.705 134.104L330.188 133.488ZM339.116 117.36L339.613 116.755L338.887 116.157L338.431 116.98L339.116 117.36ZM351.5 123.696L351.743 122.951L351.73 122.947L351.5 123.696ZM383.612 120.816L383.081 120.24L383.073 120.247L383.066 120.255L383.612 120.816ZM389.228 101.664H390.011V99.6409L388.649 101.137L389.228 101.664ZM345.164 106.704L344.791 107.392L344.798 107.396L344.805 107.399L345.164 106.704ZM331.196 93.4555L331.864 93.0478L331.196 93.4555ZM331.196 54.2875L331.864 54.6953L331.196 54.2875ZM345.164 41.1835L345.527 41.8768L345.532 41.8746L345.164 41.1835ZM390.38 47.5195L389.766 48.0057L391.163 49.7684V47.5195H390.38ZM390.38 37.5835V36.8007H389.597V37.5835H390.38ZM383.756 87.6955L384.287 88.2708L384.287 88.2702L383.756 87.6955ZM383.756 60.1915L383.217 60.7595L383.224 60.7665L383.232 60.7734L383.756 60.1915ZM354.524 60.1915L355.048 60.7735L355.055 60.7662L354.524 60.1915ZM354.524 87.6955L353.992 88.2703L354 88.2774L354.524 87.6955ZM410.909 37.5835V102.096H412.475V37.5835H410.909ZM410.909 102.096C410.909 116.177 407.247 126.492 400.069 133.204L401.138 134.347C408.744 127.236 412.475 116.431 412.475 102.096H410.909ZM400.069 133.204C392.872 139.934 382.294 143.361 368.204 143.361V144.926C382.53 144.926 393.552 141.441 401.138 134.347L400.069 133.204ZM368.204 143.361C360.78 143.361 353.745 142.457 347.097 140.652L346.687 142.163C353.478 144.007 360.652 144.926 368.204 144.926V143.361ZM347.097 140.652C340.454 138.849 334.987 136.249 330.67 132.871L329.705 134.104C334.221 137.638 339.89 140.318 346.687 142.163L347.097 140.652ZM330.873 133.867L339.801 117.739L338.431 116.98L329.503 133.108L330.873 133.867ZM338.618 117.964C341.977 120.73 346.202 122.885 351.27 124.444L351.73 122.947C346.813 121.435 342.782 119.365 339.613 116.755L338.618 117.964ZM351.257 124.44C356.323 126.096 361.397 126.926 366.476 126.926V125.361C361.571 125.361 356.661 124.559 351.743 122.951L351.257 124.44ZM366.476 126.926C374.351 126.926 380.303 125.13 384.158 121.376L383.066 120.255C379.625 123.605 374.153 125.361 366.476 125.361V126.926ZM384.143 121.391C388.103 117.736 390.011 112.209 390.011 104.976H388.445C388.445 111.95 386.609 116.984 383.081 120.24L384.143 121.391ZM390.011 104.976V101.664H388.445V104.976H390.011ZM388.649 101.137C382.971 107.373 375.04 110.529 364.748 110.529V112.094C375.384 112.094 383.773 108.818 389.807 102.191L388.649 101.137ZM364.748 110.529C357.761 110.529 351.357 109.019 345.523 106.008L344.805 107.399C350.874 110.532 357.527 112.094 364.748 112.094V110.529ZM345.536 106.015C339.802 102.913 335.248 98.5933 331.864 93.0478L330.528 93.8633C334.056 99.6458 338.814 104.159 344.791 107.392L345.536 106.015ZM331.864 93.0478C328.491 87.5202 326.795 81.1366 326.795 73.8715H325.229C325.229 81.3905 326.988 88.0628 330.528 93.8633L331.864 93.0478ZM326.795 73.8715C326.795 66.6065 328.491 60.2228 331.864 54.6953L330.528 53.8798C326.988 59.6802 325.229 66.3526 325.229 73.8715H326.795ZM331.864 54.6953C335.247 49.1518 339.797 44.8827 345.527 41.8768L344.8 40.4903C338.818 43.6284 334.057 48.0952 330.528 53.8798L331.864 54.6953ZM345.532 41.8746C351.364 38.7701 357.765 37.2144 364.748 37.2144V35.6487C357.523 35.6487 350.867 37.261 344.796 40.4925L345.532 41.8746ZM364.748 37.2144C375.792 37.2144 384.088 40.8377 389.766 48.0057L390.993 47.0334C384.96 39.4174 376.168 35.6487 364.748 35.6487V37.2144ZM391.163 47.5195V37.5835H389.597V47.5195H391.163ZM390.38 38.3664H411.692V36.8007H390.38V38.3664ZM369.212 93.6624C375.325 93.6624 380.374 91.8824 384.287 88.2708L383.225 87.1203C379.649 90.4207 375.002 92.0967 369.212 92.0967V93.6624ZM384.287 88.2702C388.302 84.5569 390.299 79.7336 390.299 73.8715H388.733C388.733 79.3375 386.89 83.7302 383.224 87.1209L384.287 88.2702ZM390.299 73.8715C390.299 68.0095 388.301 63.2294 384.28 59.6097L383.232 60.7734C386.89 64.0657 388.733 68.4055 388.733 73.8715H390.299ZM384.295 59.6236C380.383 55.9125 375.331 54.0807 369.212 54.0807V55.6464C374.996 55.6464 379.641 57.3666 383.217 60.7595L384.295 59.6236ZM369.212 54.0807C363.092 54.0807 357.997 55.9124 353.992 59.6169L355.055 60.7662C358.731 57.3666 363.428 55.6464 369.212 55.6464V54.0807ZM354 59.6097C349.978 63.2294 347.981 68.0095 347.981 73.8715H349.547C349.547 68.4055 351.389 64.0657 355.048 60.7734L354 59.6097ZM347.981 73.8715C347.981 79.7336 349.978 84.5569 353.992 88.2702L355.055 87.1209C351.39 83.7302 349.547 79.3375 349.547 73.8715H347.981ZM354 88.2774C358.006 91.8824 363.098 93.6624 369.212 93.6624V92.0967C363.422 92.0967 358.722 90.4207 355.048 87.1137L354 88.2774ZM447.432 111.168L447.061 111.857L447.074 111.864L447.432 111.168ZM432.312 96.9115L431.642 97.3159L432.312 96.9115ZM432.312 55.7275L431.642 55.3232L432.312 55.7275ZM447.432 41.6155L447.794 42.3094L447.798 42.3074L447.432 41.6155ZM491.352 41.6155L490.981 42.3052L490.989 42.3094L491.352 41.6155ZM506.472 55.7275L507.142 55.3232L506.472 55.7275ZM506.472 96.9115L507.142 97.3159L506.472 96.9115ZM491.352 111.168L491.714 111.861L491.722 111.857L491.352 111.168ZM483.576 92.0155L483.009 91.476L483.008 91.4764L483.576 92.0155ZM483.576 60.7675L483.002 61.2997L483.009 61.307L483.015 61.314L483.576 60.7675ZM455.208 60.7675L455.768 61.3141L455.775 61.3071L455.208 60.7675ZM455.208 92.0155L454.641 92.5551L454.647 92.562L455.208 92.0155ZM469.464 115.425C461.414 115.425 454.195 113.768 447.79 110.471L447.074 111.864C453.724 115.287 461.193 116.99 469.464 116.99V115.425ZM447.802 110.478C441.49 107.086 436.555 102.431 432.982 96.5072L431.642 97.3159C435.365 103.488 440.51 108.337 447.061 111.857L447.802 110.478ZM432.982 96.5072C429.414 90.5918 427.623 83.8699 427.623 76.3195H426.057C426.057 84.1292 427.914 91.1353 431.642 97.3159L432.982 96.5072ZM427.623 76.3195C427.623 68.7692 429.414 62.0473 432.982 56.1319L431.642 55.3232C427.914 61.5038 426.057 68.5099 426.057 76.3195H427.623ZM432.982 56.1319C436.554 50.2103 441.486 45.6049 447.794 42.3094L447.069 40.9217C440.514 44.3462 435.366 49.1488 431.642 55.3232L432.982 56.1319ZM447.798 42.3074C454.202 38.9172 461.418 37.2144 469.464 37.2144V35.6487C461.19 35.6487 453.718 37.4019 447.066 40.9237L447.798 42.3074ZM469.464 37.2144C477.51 37.2144 484.676 38.9173 490.981 42.3051L491.722 40.9259C485.164 37.4018 477.738 35.6487 469.464 35.6487V37.2144ZM490.989 42.3094C497.298 45.6049 502.23 50.2103 505.802 56.1319L507.142 55.3232C503.418 49.1488 498.27 44.3462 491.714 40.9217L490.989 42.3094ZM505.802 56.1319C509.37 62.0473 511.161 68.7692 511.161 76.3195H512.727C512.727 68.5099 510.87 61.5038 507.142 55.3232L505.802 56.1319ZM511.161 76.3195C511.161 83.8699 509.37 90.5918 505.802 96.5072L507.142 97.3159C510.87 91.1353 512.727 84.1292 512.727 76.3195H511.161ZM505.802 96.5072C502.229 102.431 497.294 107.086 490.981 110.478L491.722 111.857C498.274 108.337 503.419 103.488 507.142 97.3159L505.802 96.5072ZM490.989 110.474C484.683 113.768 477.514 115.425 469.464 115.425V116.99C477.734 116.99 485.157 115.287 491.714 111.861L490.989 110.474ZM469.464 98.5584C475.418 98.5584 480.334 96.5648 484.143 92.5547L483.008 91.4764C479.522 95.1463 475.03 96.9927 469.464 96.9927V98.5584ZM484.143 92.5551C488.053 88.4451 489.975 83.0054 489.975 76.3195H488.409C488.409 82.6897 486.587 87.714 483.009 91.476L484.143 92.5551ZM489.975 76.3195C489.975 69.6344 488.053 64.2378 484.136 60.221L483.015 61.314C486.587 64.9773 488.409 69.9487 488.409 76.3195H489.975ZM484.15 60.2354C480.342 56.1269 475.424 54.0807 469.464 54.0807V55.6464C475.024 55.6464 479.514 57.5362 483.002 61.2997L484.15 60.2354ZM469.464 54.0807C463.504 54.0807 458.542 56.1265 454.641 60.228L455.775 61.3071C459.362 57.5366 463.904 55.6464 469.464 55.6464V54.0807ZM454.647 60.221C450.731 64.2378 448.809 69.6344 448.809 76.3195H450.375C450.375 69.9487 452.197 64.9773 455.768 61.314L454.647 60.221ZM448.809 76.3195C448.809 83.0054 450.731 88.4451 454.641 92.5551L455.775 91.476C452.197 87.714 450.375 82.6897 450.375 76.3195H448.809ZM454.647 92.562C458.55 96.5651 463.51 98.5584 469.464 98.5584V96.9927C463.898 96.9927 459.353 95.1459 455.768 91.469L454.647 92.562ZM548.415 47.8075H547.632V50.2402L549.051 48.2641L548.415 47.8075ZM559.215 39.3115L558.914 38.5889L558.909 38.5912L559.215 39.3115ZM575.055 36.4315H575.838V35.6487H575.055V36.4315ZM575.055 57.1675L574.995 57.9481L575.838 58.0129V57.1675H575.055ZM554.895 62.3515L555.441 62.9125L555.449 62.9051L554.895 62.3515ZM549.423 115.056V115.838H550.206V115.056H549.423ZM526.959 115.056H526.176V115.838H526.959V115.056ZM526.959 37.5835V36.8007H526.176V37.5835H526.959ZM548.415 37.5835H549.198V36.8007H548.415V37.5835ZM549.051 48.2641C551.65 44.644 555.133 41.8995 559.522 40.0319L558.909 38.5912C554.274 40.5636 550.556 43.483 547.779 47.351L549.051 48.2641ZM559.516 40.0342C564.013 38.1608 569.187 37.2144 575.055 37.2144V35.6487C569.019 35.6487 563.634 36.6223 558.914 38.5889L559.516 40.0342ZM574.272 36.4315V57.1675H575.838V36.4315H574.272ZM575.115 56.387C572.624 56.1953 570.914 56.0967 570.015 56.0967V57.6624C570.844 57.6624 572.495 57.7558 574.995 57.9481L575.115 56.387ZM570.015 56.0967C563.43 56.0967 558.171 57.9689 554.342 61.798L555.449 62.9051C558.916 59.4382 563.737 57.6624 570.015 57.6624V56.0967ZM554.349 61.7907C550.496 65.5422 548.64 71.1571 548.64 78.4795H550.206C550.206 71.402 551.998 66.2649 555.441 62.9124L554.349 61.7907ZM548.64 78.4795V115.056H550.206V78.4795H548.64ZM549.423 114.273H526.959V115.838H549.423V114.273ZM527.742 115.056V37.5835H526.176V115.056H527.742ZM526.959 38.3664H548.415V36.8007H526.959V38.3664ZM547.632 37.5835V47.8075H549.198V37.5835H547.632ZM588.412 37.5835V36.8007H587.63V37.5835H588.412ZM610.876 37.5835H611.659V36.8007H610.876V37.5835ZM610.876 115.056V115.838H611.659V115.056H610.876ZM588.412 115.056H587.63V115.838H588.412V115.056ZM589.564 23.1835L589.033 23.758L589.564 23.1835ZM589.564 5.32754L590.096 5.90196L589.564 5.32754ZM609.724 5.18354L609.204 5.76864L609.724 5.18354ZM609.724 23.1835L610.256 23.758L610.262 23.7528L610.267 23.7474L609.724 23.1835ZM588.412 38.3664H610.876V36.8007H588.412V38.3664ZM610.094 37.5835V115.056H611.659V37.5835H610.094ZM610.876 114.273H588.412V115.838H610.876V114.273ZM589.195 115.056V37.5835H587.63V115.056H589.195ZM599.644 26.0007C595.678 26.0007 592.52 24.8528 590.096 22.6091L589.033 23.758C591.793 26.3142 595.355 27.5664 599.644 27.5664V26.0007ZM590.096 22.6091C587.665 20.3582 586.459 17.5908 586.459 14.2555H584.894C584.894 18.0242 586.28 21.2089 589.033 23.758L590.096 22.6091ZM586.459 14.2555C586.459 10.9202 587.665 8.15286 590.096 5.90196L589.033 4.75312C586.28 7.30221 584.894 10.4868 584.894 14.2555H586.459ZM590.096 5.90196C592.52 3.65823 595.678 2.51037 599.644 2.51037V0.944693C595.355 0.944693 591.793 2.19684 589.033 4.75312L590.096 5.90196ZM599.644 2.51037C603.619 2.51037 606.782 3.61545 609.204 5.76864L610.245 4.59844C607.483 2.14362 603.926 0.944693 599.644 0.944693V2.51037ZM609.204 5.76864C611.63 7.92467 612.83 10.592 612.83 13.8235H614.395C614.395 10.143 613.003 7.0504 610.245 4.59844L609.204 5.76864ZM612.83 13.8235C612.83 17.3645 611.613 20.2778 609.181 22.6196L610.267 23.7474C613.02 21.0973 614.395 17.7706 614.395 13.8235H612.83ZM609.193 22.6091C606.769 24.8528 603.611 26.0007 599.644 26.0007V27.5664C603.934 27.5664 607.496 26.3142 610.256 23.758L609.193 22.6091ZM690.621 45.0715L690.099 45.6547L690.104 45.6591L690.621 45.0715ZM700.269 115.056V115.838H701.052V115.056H700.269ZM679.245 115.056H678.462V115.838H679.245V115.056ZM679.245 105.408H680.028V102.526L678.57 105.011L679.245 105.408ZM640.077 113.184L639.746 113.893L639.752 113.896L640.077 113.184ZM630.141 104.832L630.798 104.406L630.141 104.832ZM634.749 75.7435L634.277 75.1186L634.272 75.1226L634.749 75.7435ZM677.805 69.5515V70.3344H678.588V69.5515H677.805ZM673.341 58.3195L672.816 58.9006L672.827 58.9099L673.341 58.3195ZM647.709 56.3035L647.946 57.0499L647.956 57.0462L647.709 56.3035ZM637.629 61.4875L636.933 61.8453L637.368 62.6934L638.115 62.1009L637.629 61.4875ZM629.565 45.7915L629.114 45.1516L628.557 45.5437L628.869 46.1493L629.565 45.7915ZM644.685 38.8795L644.478 38.1246L644.475 38.1254L644.685 38.8795ZM671.469 98.4955L671.862 99.1725L671.87 99.1679L671.878 99.163L671.469 98.4955ZM677.805 90.5755L678.541 90.8414L678.588 90.7126V90.5755H677.805ZM677.805 82.6555H678.588V81.8727H677.805V82.6555ZM651.885 98.6395L651.402 99.256L651.417 99.2676L651.432 99.2784L651.885 98.6395ZM662.973 37.2144C674.855 37.2144 683.858 40.0659 690.099 45.6547L691.143 44.4884C684.52 38.5572 675.09 35.6487 662.973 35.6487V37.2144ZM690.104 45.6591C696.314 51.128 699.486 59.471 699.486 70.8475H701.052C701.052 59.184 697.792 50.3431 691.138 44.484L690.104 45.6591ZM699.486 70.8475V115.056H701.052V70.8475H699.486ZM700.269 114.273H679.245V115.838H700.269V114.273ZM680.028 115.056V105.408H678.462V115.056H680.028ZM678.57 105.011C674.537 111.885 666.989 115.425 655.629 115.425V116.99C667.308 116.99 675.505 113.33 679.92 105.804L678.57 105.011ZM655.629 115.425C649.764 115.425 644.696 114.432 640.402 112.471L639.752 113.896C644.29 115.968 649.59 116.99 655.629 116.99V115.425ZM640.408 112.474C636.204 110.512 633.012 107.819 630.798 104.406L629.484 105.258C631.878 108.948 635.31 111.823 639.746 113.893L640.408 112.474ZM630.798 104.406C628.581 100.989 627.468 97.1068 627.468 92.7355H625.902C625.902 97.3883 627.092 101.57 629.484 105.258L630.798 104.406ZM627.468 92.7355C627.468 85.7613 630.056 80.3339 635.226 76.3644L634.272 75.1226C628.69 79.4092 625.902 85.3098 625.902 92.7355H627.468ZM635.22 76.3685C640.493 72.3907 648.69 70.3344 659.949 70.3344V68.7687C648.552 68.7687 639.949 70.8404 634.277 75.1186L635.22 76.3685ZM659.949 70.3344H677.805V68.7687H659.949V70.3344ZM678.588 69.5515C678.588 64.4882 677.042 60.5047 673.855 57.7292L672.827 58.9099C675.592 61.3184 677.022 64.8229 677.022 69.5515H678.588ZM673.866 57.7386C670.69 54.87 666.003 53.5047 659.949 53.5047V55.0704C665.799 55.0704 670.04 56.393 672.816 58.9005L673.866 57.7386ZM659.949 53.5047C655.734 53.5047 651.571 54.1911 647.461 55.5609L647.956 57.0462C651.911 55.728 655.908 55.0704 659.949 55.0704V53.5047ZM647.472 55.5573C643.46 56.8295 640.012 58.5983 637.142 60.8742L638.115 62.1009C640.814 59.9607 644.086 58.2736 647.946 57.0498L647.472 55.5573ZM638.325 61.1298L630.261 45.4338L628.869 46.1493L636.933 61.8453L638.325 61.1298ZM630.016 46.4315C634.155 43.5152 639.11 41.2458 644.895 39.6336L644.475 38.1254C638.547 39.7773 633.423 42.1159 629.114 45.1516L630.016 46.4315ZM644.892 39.6345C650.776 38.0212 656.802 37.2144 662.973 37.2144V35.6487C656.664 35.6487 650.498 36.4739 644.478 38.1246L644.892 39.6345ZM661.245 101.87C665.207 101.87 668.753 100.978 671.862 99.1725L671.076 97.8186C668.233 99.4694 664.963 100.305 661.245 100.305V101.87ZM671.878 99.163C675.014 97.241 677.236 94.4551 678.541 90.8414L677.069 90.3097C675.878 93.608 673.876 96.1021 671.06 97.8281L671.878 99.163ZM678.588 90.5755V82.6555H677.022V90.5755H678.588ZM677.805 81.8727H662.397V83.4384H677.805V81.8727ZM662.397 81.8727C657.728 81.8727 654.091 82.6341 651.599 84.2691C649.051 85.9417 647.79 88.4702 647.79 91.7275H649.356C649.356 88.9369 650.399 86.9294 652.458 85.578C654.575 84.1889 657.85 83.4384 662.397 83.4384V81.8727ZM647.79 91.7275C647.79 94.8407 648.999 97.375 651.402 99.256L652.367 98.023C650.355 96.4481 649.356 94.3744 649.356 91.7275H647.79ZM651.432 99.2784C653.912 101.034 657.209 101.87 661.245 101.87V100.305C657.409 100.305 654.466 99.5086 652.337 98.0007L651.432 99.2784ZM727.8 113.904L727.599 114.66L727.61 114.663L727.8 113.904ZM713.112 107.856L712.402 107.526L712.117 108.138L712.682 108.51L713.112 107.856ZM720.6 91.7275L721.021 91.0678L720.267 90.5858L719.89 91.3979L720.6 91.7275ZM733.128 97.1995L732.907 97.9506L732.914 97.9526L732.921 97.9545L733.128 97.1995ZM757.896 87.4075L757.624 88.1416L757.896 87.4075ZM745.944 84.9595L745.827 85.7336L745.837 85.7351L745.847 85.7363L745.944 84.9595ZM730.248 81.6475L730.474 80.8982L730.248 81.6475ZM719.448 75.0235L718.877 75.5596L718.886 75.5685L719.448 75.0235ZM719.16 48.5275L718.534 48.0578L718.532 48.0604L719.16 48.5275ZM731.544 39.5995L731.262 38.8692L731.258 38.8709L731.544 39.5995ZM767.112 38.3035L766.935 39.0661L766.943 39.0679L766.951 39.0696L767.112 38.3035ZM780.648 43.1995L781.357 43.5316L781.658 42.8892L781.048 42.5267L780.648 43.1995ZM773.16 59.1835L772.776 59.8656L773.511 60.2798L773.869 59.5156L773.16 59.1835ZM740.04 55.4395L739.657 54.7565L740.04 55.4395ZM740.328 65.6635L740.6 64.9294L740.328 65.6635ZM752.712 68.3995L752.841 67.6273L752.83 67.6257L752.712 68.3995ZM768.264 71.8555L768.032 72.6034L768.041 72.6059L768.049 72.6083L768.264 71.8555ZM778.776 78.3355L778.205 78.8715L778.776 78.3355ZM778.92 104.4L779.54 104.877L778.92 104.4ZM766.248 113.184L766.519 113.918L766.526 113.915L766.248 113.184ZM746.664 115.425C740.295 115.425 734.071 114.664 727.99 113.144L727.61 114.663C733.817 116.215 740.169 116.99 746.664 116.99V115.425ZM728.001 113.147C721.905 111.528 717.096 109.539 713.542 107.202L712.682 108.51C716.424 110.972 721.407 113.015 727.599 114.66L728.001 113.147ZM713.822 108.185L721.31 92.0572L719.89 91.3979L712.402 107.526L713.822 108.185ZM720.178 92.3872C723.71 94.6433 727.957 96.4946 732.907 97.9506L733.349 96.4485C728.507 95.0245 724.402 93.2278 721.021 91.0678L720.178 92.3872ZM732.921 97.9545C737.879 99.3155 742.749 99.9984 747.528 99.9984V98.4327C742.899 98.4327 738.169 97.7716 733.335 96.4446L732.921 97.9545ZM747.528 99.9984C752.319 99.9984 756.029 99.4096 758.567 98.1531C759.847 97.5195 760.856 96.7033 761.542 95.6838C762.232 94.6591 762.567 93.4742 762.567 92.1595H761.001C761.001 93.1969 760.741 94.07 760.244 94.8092C759.742 95.5538 758.968 96.2076 757.873 96.7499C755.659 97.8455 752.241 98.4327 747.528 98.4327V99.9984ZM762.567 92.1595C762.567 90.8901 762.19 89.7631 761.418 88.8198C760.656 87.8887 759.55 87.1854 758.168 86.6734L757.624 88.1416C758.834 88.5896 759.672 89.1584 760.206 89.8113C760.73 90.452 761.001 91.221 761.001 92.1595H762.567ZM758.168 86.6734C755.488 85.6811 751.431 84.8565 746.041 84.1827L745.847 85.7363C751.209 86.4066 755.119 87.214 757.624 88.1416L758.168 86.6734ZM746.061 84.1855C739.746 83.2287 734.554 82.1315 730.474 80.8982L730.021 82.3969C734.198 83.6595 739.47 84.7704 745.827 85.7336L746.061 84.1855ZM730.474 80.8982C726.477 79.6896 722.992 77.5534 720.01 74.4786L718.886 75.5685C722.048 78.8297 725.763 81.1095 730.021 82.3969L730.474 80.8982ZM720.018 74.4875C717.221 71.509 715.767 67.2149 715.767 61.4875H714.201C714.201 67.4722 715.723 72.202 718.877 75.5595L720.018 74.4875ZM715.767 61.4875C715.767 56.7509 717.11 52.5967 719.788 48.9947L718.532 48.0604C715.642 51.9464 714.201 56.4321 714.201 61.4875H715.767ZM719.786 48.9972C722.563 45.2951 726.562 42.3979 731.83 40.3282L731.258 38.8709C725.774 41.0251 721.517 44.08 718.534 48.0578L719.786 48.9972ZM731.826 40.3299C737.188 38.2603 743.52 37.2144 750.84 37.2144V35.6487C743.376 35.6487 736.844 36.7148 731.262 38.8692L731.826 40.3299ZM750.84 37.2144C756.252 37.2144 761.616 37.8315 766.935 39.0661L767.289 37.541C761.855 36.2796 756.372 35.6487 750.84 35.6487V37.2144ZM766.951 39.0696C772.366 40.2097 776.791 41.8168 780.248 43.8724L781.048 42.5267C777.401 40.3582 772.802 38.7014 767.273 37.5375L766.951 39.0696ZM779.939 42.8674L772.451 58.8514L773.869 59.5156L781.357 43.5316L779.939 42.8674ZM773.544 58.5015C766.607 54.5933 759.034 52.6407 750.84 52.6407V54.2064C758.774 54.2064 766.081 56.0938 772.776 59.8656L773.544 58.5015ZM750.84 52.6407C745.993 52.6407 742.232 53.3149 739.657 54.7565L740.422 56.1226C742.648 54.8762 746.087 54.2064 750.84 54.2064V52.6407ZM739.657 54.7565C737.097 56.1906 735.657 58.1414 735.657 60.6235H737.223C737.223 58.8817 738.183 57.3765 740.422 56.1226L739.657 54.7565ZM735.657 60.6235C735.657 61.9727 736.025 63.167 736.792 64.1617C737.553 65.1482 738.663 65.8818 740.056 66.3976L740.6 64.9294C739.401 64.4853 738.567 63.8988 738.032 63.2054C737.503 62.5201 737.223 61.6744 737.223 60.6235H735.657ZM740.056 66.3976C742.727 67.3868 746.921 68.308 752.594 69.1734L752.83 67.6257C747.175 66.763 743.113 65.8603 740.6 64.9294L740.056 66.3976ZM752.583 69.1717C758.9 70.2246 764.047 71.3697 768.032 72.6034L768.495 71.1077C764.417 69.8454 759.195 68.6865 752.841 67.6273L752.583 69.1717ZM768.049 72.6083C771.94 73.72 775.322 75.8026 778.205 78.8715L779.346 77.7995C776.277 74.5325 772.652 72.2951 768.479 71.1028L768.049 72.6083ZM778.205 78.8715C781.008 81.8546 782.457 86.0564 782.457 91.5835H784.023C784.023 85.7827 782.496 81.1525 779.346 77.7995L778.205 78.8715ZM782.457 91.5835C782.457 96.2139 781.072 100.317 778.299 103.922L779.54 104.877C782.528 100.994 784.023 96.5532 784.023 91.5835H782.457ZM778.299 103.922C775.528 107.525 771.438 110.378 765.97 112.452L766.526 113.915C772.194 111.765 776.552 108.762 779.54 104.877L778.299 103.922ZM765.977 112.449C760.614 114.425 754.182 115.425 746.664 115.425V116.99C754.314 116.99 760.938 115.974 766.519 113.918L765.977 112.449Z" fill="#CACACA"/>
</svg>
