<svg width="590" height="552" viewBox="0 0 590 552" fill="none" xmlns="http://www.w3.org/2000/svg">
<g clip-path="url(#clip0_435_936)">
<rect width="590" height="552" fill="#171B16"/>
<rect width="45.1425" height="45.1425" transform="matrix(4.37114e-08 -1 -1 -4.37114e-08 45.582 177.858)" fill="#F7DF0D"/>
<path d="M45.582 87.5727L45.582 102.62L30.5345 102.62L30.5345 117.668L15.487 117.668L15.487 132.715L0.439551 132.715L0.439552 87.5727L45.582 87.5727Z" fill="white"/>
<path d="M113.296 -2.71225L135.867 19.859L113.296 42.4302L90.7247 19.859L113.296 -2.71225Z" fill="#F7DF0D"/>
<path d="M45.582 177.858C33.1163 177.858 23.0108 187.963 23.0108 200.429C23.0108 212.895 33.1163 223 45.582 223L45.582 209.31C40.6771 209.31 36.7009 205.334 36.7009 200.429C36.701 195.524 40.6771 191.548 45.582 191.548L45.582 177.858Z" fill="#F7DF0D"/>
<path d="M0.439935 223C12.9057 223 23.0112 212.895 23.0112 200.429C23.0112 187.963 12.9057 177.858 0.439941 177.858L0.43994 191.548C5.34483 191.548 9.32102 195.524 9.32102 200.429C9.32102 205.334 5.34482 209.31 0.439937 209.31L0.439935 223Z" fill="#F7DF0D"/>
<path d="M135.867 -2.71216C135.867 9.75359 145.973 19.8591 158.439 19.8591C170.904 19.8591 181.01 9.75359 181.01 -2.71216L167.32 -2.71216C167.32 2.19273 163.343 6.16892 158.439 6.16892C153.534 6.16892 149.557 2.19273 149.557 -2.71216L135.867 -2.71216Z" fill="#F7DF0D"/>
<path d="M181.01 42.4302C181.01 29.9645 170.904 19.859 158.438 19.859C145.973 19.859 135.867 29.9645 135.867 42.4302L149.557 42.4302C149.557 37.5254 153.534 33.5492 158.438 33.5492C163.343 33.5492 167.32 37.5254 167.32 42.4302L181.01 42.4302Z" fill="#F7DF0D"/>
<path d="M76.2713 118.262L68.1534 132.715L60.0354 118.262L45.5821 110.144L60.0354 102.026L68.1534 87.5727L76.2713 102.026L90.7246 110.144L76.2713 118.262Z" fill="#F7DF0D"/>
<path fill-rule="evenodd" clip-rule="evenodd" d="M41.7434 61.1628C43.8634 61.1628 45.582 62.8814 45.582 65.0014C45.582 67.1215 43.8634 68.8401 41.7434 68.8401L37.5354 68.8401L41.1939 70.9191C43.0371 71.9665 43.6822 74.3099 42.6348 76.1531C41.5873 77.9963 39.244 78.6413 37.4008 77.5939L33.2373 75.2279L35.6034 79.3915C36.6508 81.2347 36.0057 83.5781 34.1625 84.6255C32.3193 85.6729 29.976 85.0278 28.9285 83.1846L26.8494 79.526L26.8494 83.7339C26.8494 85.854 25.1308 87.5726 23.0108 87.5726C20.8908 87.5726 19.1721 85.854 19.1721 83.7339L19.1721 79.5257L17.093 83.1844C16.0456 85.0276 13.7023 85.6727 11.8591 84.6253C10.0159 83.5778 9.37078 81.2345 10.4182 79.3913L12.7839 75.2282L8.6208 77.594C6.77759 78.6415 4.43427 77.9964 3.38684 76.1532C2.3394 74.31 2.98449 71.9667 4.8277 70.9192L8.4864 68.8401L4.2782 68.8401C2.15817 68.8401 0.439549 67.1215 0.439549 65.0014C0.43955 62.8814 2.15817 61.1628 4.2782 61.1628L8.48654 61.1628L4.8277 59.0836C2.98449 58.0362 2.3394 55.6928 3.38684 53.8496C4.43427 52.0064 6.77759 51.3613 8.6208 52.4088L12.7839 54.7746L10.4182 50.6115C9.37078 48.7683 10.0159 46.425 11.8591 45.3776C13.7023 44.3301 16.0456 44.9752 17.093 46.8184L19.1721 50.4771L19.1721 46.2687C19.1721 44.1487 20.8908 42.4301 23.0108 42.4301C25.1308 42.4301 26.8494 44.1487 26.8494 46.2687L26.8494 50.4768L28.9285 46.8182C29.976 44.975 32.3193 44.3299 34.1625 45.3773C36.0057 46.4247 36.6508 48.7681 35.6034 50.6113L33.2373 54.7749L37.4008 52.4089C39.244 51.3615 41.5873 52.0066 42.6348 53.8498C43.6822 55.693 43.0371 58.0363 41.1939 59.0837L37.5353 61.1628L41.7434 61.1628Z" fill="#F7DF0D"/>
<path d="M68.1533 79.2626C65.8217 84.3343 62.2725 87.5727 58.2972 87.5727C51.2748 87.5727 45.582 77.4672 45.582 65.0015C45.582 52.5357 51.2748 42.4302 58.2972 42.4302C62.2724 42.4302 65.8217 45.6686 68.1533 50.7403C70.4849 45.6686 74.0341 42.4302 78.0094 42.4302C85.0317 42.4302 90.7245 52.5357 90.7245 65.0015C90.7245 77.4672 85.0318 87.5727 78.0094 87.5727C74.0341 87.5727 70.4849 84.3343 68.1533 79.2626Z" fill="white"/>
<path d="M70.6551 13.8193C70.3514 4.28619 69.3464 -2.71224 68.1534 -2.71224C66.9604 -2.71224 65.9554 4.28619 65.6516 13.8193C58.696 7.29314 53.0367 3.05515 52.1931 3.89873C51.3495 4.7423 55.5875 10.4016 62.1137 17.3573C52.5806 17.661 45.5821 18.666 45.5821 19.859C45.5821 21.052 52.5806 22.057 62.1137 22.3607C55.5875 29.3164 51.3495 34.9757 52.1931 35.8193C53.0367 36.6628 58.696 32.4249 65.6516 25.8987C65.9554 35.4318 66.9604 42.4302 68.1534 42.4302C69.3464 42.4302 70.3514 35.4318 70.6551 25.8987C77.6108 32.4249 83.2701 36.6629 84.1136 35.8193C84.9572 34.9757 80.7192 29.3164 74.193 22.3607C83.7262 22.057 90.7246 21.052 90.7246 19.859C90.7246 18.666 83.7262 17.661 74.1931 17.3573C80.7192 10.4016 84.9572 4.74229 84.1137 3.89872C83.2701 3.05515 77.6108 7.29314 70.6551 13.8193Z" fill="#F7DF0D"/>
<path fill-rule="evenodd" clip-rule="evenodd" d="M101.003 52.8855L101.39 42.4303L113.571 54.1731L125.752 42.4302L126.14 52.8849L136.143 54.0706L124.804 65.0015L136.143 75.9323L126.14 77.1181L125.752 87.5728L113.571 75.8298L101.39 87.5727L101.003 77.1174L91.0001 75.9322L102.339 65.0015L91.0001 54.0707L101.003 52.8855Z" fill="#F7DF0D"/>
<path fill-rule="evenodd" clip-rule="evenodd" d="M39.563 19.859C39.563 29.0005 32.1523 36.4112 23.0108 36.4112C13.8692 36.4112 6.45854 29.0005 6.45854 19.859C6.45855 10.7174 13.8692 3.30675 23.0108 3.30675C32.1523 3.30675 39.563 10.7174 39.563 19.859ZM23.0108 42.4302C35.4765 42.4302 45.582 32.3247 45.582 19.859C45.582 7.39324 35.4765 -2.71225 23.0108 -2.71225C10.545 -2.71225 0.439545 7.39324 0.439544 19.859C0.439544 32.3247 10.545 42.4302 23.0108 42.4302Z" fill="white"/>
<path fill-rule="evenodd" clip-rule="evenodd" d="M29.0065 19.8589C29.0065 23.1702 26.3222 25.8544 23.011 25.8544C19.6998 25.8544 17.0155 23.1702 17.0155 19.8589C17.0155 16.5477 19.6998 13.8635 23.011 13.8635C26.3222 13.8635 29.0065 16.5477 29.0065 19.8589ZM23.011 31.8499C29.6334 31.8499 35.002 26.4814 35.002 19.8589C35.002 13.2365 29.6334 7.86797 23.011 7.86797C16.3886 7.86797 11.02 13.2365 11.02 19.8589C11.02 26.4814 16.3886 31.8499 23.011 31.8499Z" fill="#F7DF0D"/>
<path d="M45.3751 155.308C45.3751 142.842 55.4806 132.736 67.9463 132.736C80.4121 132.736 90.5176 142.842 90.5176 155.308L67.9463 155.308L67.9463 177.879C55.4806 177.879 45.3751 167.773 45.3751 155.308Z" fill="white"/>
<rect x="544.428" y="177.858" width="45.1425" height="45.1425" transform="rotate(-90 544.428 177.858)" fill="#F7DF0D"/>
<path d="M544.428 87.5727L544.428 102.62L559.475 102.62L559.475 117.668L574.523 117.668L574.523 132.715L589.57 132.715L589.57 87.5727L544.428 87.5727Z" fill="white"/>
<path d="M476.714 -2.71225L454.143 19.859L476.714 42.4302L499.285 19.859L476.714 -2.71225Z" fill="#F7DF0D"/>
<path d="M544.428 177.858C556.893 177.858 566.999 187.963 566.999 200.429C566.999 212.895 556.893 223 544.428 223L544.428 209.31C549.333 209.31 553.309 205.334 553.309 200.429C553.309 195.524 549.333 191.548 544.428 191.548L544.428 177.858Z" fill="#F7DF0D"/>
<path d="M589.57 223C577.105 223 566.999 212.895 566.999 200.429C566.999 187.963 577.105 177.858 589.57 177.858L589.57 191.548C584.665 191.548 580.689 195.524 580.689 200.429C580.689 205.334 584.665 209.31 589.57 209.31L589.57 223Z" fill="#F7DF0D"/>
<path d="M454.142 -2.71216C454.142 9.75359 444.037 19.8591 431.571 19.8591C419.105 19.8591 409 9.75359 409 -2.71216L422.69 -2.71216C422.69 2.19273 426.666 6.16892 431.571 6.16892C436.476 6.16892 440.452 2.19273 440.452 -2.71216L454.142 -2.71216Z" fill="#F7DF0D"/>
<path d="M409 42.4302C409 29.9645 419.106 19.859 431.571 19.859C444.037 19.859 454.143 29.9645 454.143 42.4302L440.452 42.4302C440.452 37.5254 436.476 33.5492 431.571 33.5492C426.666 33.5492 422.69 37.5254 422.69 42.4302L409 42.4302Z" fill="#F7DF0D"/>
<path d="M513.738 118.262L521.856 132.715L529.974 118.262L544.428 110.144L529.974 102.026L521.856 87.5727L513.738 102.026L499.285 110.144L513.738 118.262Z" fill="#F7DF0D"/>
<path fill-rule="evenodd" clip-rule="evenodd" d="M548.266 61.1628C546.146 61.1628 544.428 62.8814 544.428 65.0014C544.428 67.1215 546.146 68.8401 548.266 68.8401L552.474 68.8401L548.816 70.9191C546.973 71.9665 546.328 74.3099 547.375 76.1531C548.422 77.9963 550.766 78.6413 552.609 77.5939L556.772 75.2279L554.406 79.3915C553.359 81.2347 554.004 83.5781 555.847 84.6255C557.69 85.6729 560.034 85.0278 561.081 83.1846L563.16 79.526L563.16 83.7339C563.16 85.854 564.879 87.5726 566.999 87.5726C569.119 87.5726 570.838 85.854 570.838 83.7339L570.838 79.5257L572.917 83.1844C573.964 85.0276 576.307 85.6727 578.151 84.6253C579.994 83.5778 580.639 81.2345 579.592 79.3913L577.226 75.2282L581.389 77.594C583.232 78.6415 585.575 77.9964 586.623 76.1532C587.67 74.31 587.025 71.9667 585.182 70.9192L581.523 68.8401L585.732 68.8401C587.852 68.8401 589.57 67.1215 589.57 65.0014C589.57 62.8814 587.852 61.1628 585.732 61.1628L581.523 61.1628L585.182 59.0836C587.025 58.0362 587.67 55.6928 586.623 53.8496C585.575 52.0064 583.232 51.3613 581.389 52.4088L577.226 54.7746L579.592 50.6115C580.639 48.7683 579.994 46.425 578.151 45.3776C576.307 44.3301 573.964 44.9752 572.917 46.8184L570.838 50.4771L570.838 46.2687C570.838 44.1487 569.119 42.4301 566.999 42.4301C564.879 42.4301 563.16 44.1487 563.16 46.2687L563.16 50.4768L561.081 46.8182C560.034 44.975 557.69 44.3299 555.847 45.3773C554.004 46.4247 553.359 48.7681 554.406 50.6113L556.772 54.7749L552.609 52.4089C550.766 51.3615 548.422 52.0066 547.375 53.8498C546.328 55.693 546.973 58.0363 548.816 59.0837L552.474 61.1628L548.266 61.1628Z" fill="#F7DF0D"/>
<path d="M521.856 79.2626C524.188 84.3343 527.737 87.5727 531.713 87.5727C538.735 87.5727 544.428 77.4672 544.428 65.0015C544.428 52.5357 538.735 42.4302 531.713 42.4302C527.737 42.4302 524.188 45.6686 521.856 50.7403C519.525 45.6686 515.976 42.4302 512 42.4302C504.978 42.4302 499.285 52.5357 499.285 65.0015C499.285 77.4672 504.978 87.5727 512 87.5727C515.976 87.5727 519.525 84.3343 521.856 79.2626Z" fill="white"/>
<path d="M519.355 13.8193C519.658 4.28619 520.663 -2.71224 521.856 -2.71224C523.049 -2.71224 524.054 4.28619 524.358 13.8193C531.314 7.29314 536.973 3.05515 537.817 3.89873C538.66 4.7423 534.422 10.4016 527.896 17.3573C537.429 17.661 544.428 18.666 544.428 19.859C544.428 21.052 537.429 22.057 527.896 22.3607C534.422 29.3164 538.66 34.9757 537.817 35.8193C536.973 36.6628 531.314 32.4249 524.358 25.8987C524.054 35.4318 523.049 42.4302 521.856 42.4302C520.663 42.4302 519.658 35.4318 519.355 25.8987C512.399 32.4249 506.74 36.6629 505.896 35.8193C505.053 34.9757 509.291 29.3164 515.817 22.3607C506.284 22.057 499.285 21.052 499.285 19.859C499.285 18.666 506.284 17.661 515.817 17.3573C509.291 10.4016 505.053 4.74229 505.896 3.89872C506.74 3.05515 512.399 7.29314 519.355 13.8193Z" fill="#F7DF0D"/>
<path fill-rule="evenodd" clip-rule="evenodd" d="M489.007 52.8855L488.62 42.4303L476.438 54.1731L464.257 42.4302L463.87 52.8849L453.867 54.0706L465.206 65.0015L453.867 75.9323L463.87 77.1181L464.257 87.5728L476.439 75.8298L488.62 87.5727L489.007 77.1174L499.01 75.9322L487.671 65.0015L499.01 54.0707L489.007 52.8855Z" fill="#F7DF0D"/>
<path fill-rule="evenodd" clip-rule="evenodd" d="M550.447 19.859C550.447 29.0005 557.857 36.4112 566.999 36.4112C576.141 36.4112 583.551 29.0005 583.551 19.859C583.551 10.7174 576.141 3.30675 566.999 3.30675C557.857 3.30675 550.447 10.7174 550.447 19.859ZM566.999 42.4302C554.533 42.4302 544.428 32.3247 544.428 19.859C544.428 7.39324 554.533 -2.71225 566.999 -2.71225C579.465 -2.71225 589.57 7.39324 589.57 19.859C589.57 32.3247 579.465 42.4302 566.999 42.4302Z" fill="white"/>
<path fill-rule="evenodd" clip-rule="evenodd" d="M561.003 19.8589C561.003 23.1702 563.688 25.8544 566.999 25.8544C570.31 25.8544 572.994 23.1702 572.994 19.8589C572.994 16.5477 570.31 13.8635 566.999 13.8635C563.688 13.8635 561.003 16.5477 561.003 19.8589ZM566.999 31.8499C560.376 31.8499 555.008 26.4814 555.008 19.8589C555.008 13.2365 560.376 7.86797 566.999 7.86797C573.621 7.86797 578.99 13.2365 578.99 19.8589C578.99 26.4814 573.621 31.8499 566.999 31.8499Z" fill="#F7DF0D"/>
<path d="M544.635 155.308C544.635 142.842 534.529 132.736 522.063 132.736C509.598 132.736 499.492 142.842 499.492 155.308L522.063 155.308L522.063 177.879C534.529 177.879 544.635 167.773 544.635 155.308Z" fill="white"/>
<path fill-rule="evenodd" clip-rule="evenodd" d="M205.155 172.206C205.519 172.377 205.913 172.474 206.315 172.491C206.716 172.508 207.117 172.445 207.495 172.306C207.568 172.288 207.634 172.246 207.681 172.186C207.728 172.126 207.753 172.052 207.753 171.977C207.753 171.901 207.728 171.827 207.681 171.767C207.634 171.707 207.568 171.665 207.495 171.646C205.94 170.978 204.618 169.865 203.695 168.446C203.671 168.373 203.623 168.31 203.559 168.268C203.495 168.226 203.417 168.207 203.341 168.214C203.264 168.221 203.192 168.253 203.137 168.307C203.081 168.36 203.045 168.43 203.035 168.506C202.938 169.27 203.093 170.044 203.475 170.711C203.858 171.379 204.447 171.904 205.155 172.206ZM355.655 123.386C337.655 125.726 325.815 127.386 325.815 127.386C325.495 127.386 325.615 127.706 325.615 128.026V216.906C325.615 217.066 326.115 217.206 326.295 217.226C341.115 218.906 362.955 220.586 385.335 222.086C400.535 223.086 474.035 227.046 474.035 227.046C474.242 227.046 474.442 226.968 474.595 226.826C474.675 226.758 474.74 226.671 474.787 226.575C474.831 226.478 474.853 226.373 474.853 226.266C474.973 218.766 476.413 111.846 476.413 111.846C476.413 111.734 476.391 111.623 476.347 111.52C476.3 111.417 476.235 111.324 476.155 111.246C476.075 111.167 475.976 111.105 475.871 111.064C475.762 111.023 475.649 111.003 475.533 111.006C451.915 112.486 424.975 115.126 400.515 117.886C383.795 119.826 368.215 121.746 355.655 123.386ZM474.755 112.786L473.275 225.486C469.395 225.326 400.615 221.926 385.395 221.026C363.175 219.706 341.395 218.206 326.615 216.666V128.666C329.895 128.206 399.695 119.566 415.675 117.906C435.495 115.826 456.115 113.946 474.755 112.786Z" fill="white"/>
<path fill-rule="evenodd" clip-rule="evenodd" d="M358.155 170.246C358.113 180.355 362.075 190.07 369.175 197.266C372.69 200.841 376.881 203.681 381.505 205.621C386.128 207.559 391.091 208.558 396.104 208.558C401.118 208.558 406.081 207.559 410.706 205.621C415.33 203.681 419.521 200.841 423.035 197.266C428.388 191.85 432 184.958 433.408 177.474C434.816 169.991 433.955 162.257 430.935 155.266C433.653 155.276 436.318 154.508 438.613 153.054C440.91 151.6 442.743 149.519 443.896 147.058C445.05 144.597 445.476 141.857 445.124 139.162C444.773 136.467 443.66 133.928 441.913 131.845C440.166 129.762 437.861 128.222 435.268 127.405C432.676 126.589 429.905 126.53 427.28 127.236C424.655 127.942 422.286 129.384 420.453 131.391C418.621 133.399 417.4 135.888 416.935 138.566C411.213 134.834 404.591 132.713 397.766 132.427C390.94 132.141 384.165 133.701 378.15 136.941C372.136 140.181 367.106 144.983 363.591 150.841C360.076 156.698 358.204 163.395 358.175 170.226L358.155 170.246ZM427.195 137.986L429.575 143.386L434.455 131.066L437.175 132.766L431.535 148.006L427.535 148.386L424.175 141.046L427.195 137.986ZM396.095 133.106C403.5 133.127 410.716 135.439 416.755 139.726V141.046C416.755 144.563 418.056 147.955 420.41 150.57C422.761 153.184 425.998 154.836 429.495 155.206C432.475 162 433.348 169.532 432 176.827C430.653 184.123 427.146 190.846 421.935 196.126C418.566 199.538 414.553 202.246 410.13 204.095C405.706 205.943 400.96 206.895 396.165 206.895C391.371 206.895 386.625 205.943 382.2 204.095C377.776 202.246 373.765 199.538 370.395 196.126C363.58 189.219 359.744 179.916 359.711 170.213C359.678 160.51 363.448 151.181 370.215 144.226C373.568 140.738 377.584 137.957 382.03 136.047C386.475 134.137 391.258 133.137 396.095 133.106Z" fill="white"/>
<path fill-rule="evenodd" clip-rule="evenodd" d="M374.695 155.666L381.395 155.846C381.515 156.786 385.395 182.506 385.395 182.506C385.424 182.699 385.52 182.875 385.667 183.003C385.814 183.132 386 183.203 386.195 183.206L409.435 182.706C409.509 182.688 409.574 182.646 409.622 182.586C409.669 182.526 409.694 182.452 409.694 182.376C409.694 182.3 409.669 182.227 409.622 182.167C409.574 182.107 409.509 182.065 409.435 182.046C409.435 182.046 397.815 181.666 395.435 181.626H386.835C386.715 180.806 386.475 179.306 386.175 177.406C388.175 177.406 407.455 176.926 407.455 176.926C407.647 176.923 407.832 176.85 407.975 176.722C408.119 176.593 408.212 176.417 408.235 176.226L410.235 162.066C410.247 161.951 410.237 161.835 410.202 161.725C410.167 161.615 410.11 161.513 410.035 161.426C409.959 161.338 409.862 161.267 409.755 161.219C409.649 161.171 409.532 161.146 409.415 161.146C409.415 161.146 385.415 161.686 383.595 161.766C382.375 154.986 382.455 154.806 381.815 154.806L374.615 155.066C374.526 155.066 374.439 155.102 374.375 155.166C374.31 155.23 374.275 155.316 374.275 155.406C374.275 155.497 374.31 155.583 374.375 155.647C374.439 155.71 374.526 155.746 374.615 155.746L374.695 155.666ZM400.555 174.846V175.606C399.915 175.606 394.375 176.006 392.395 176.166C392.4 174.109 392.226 172.054 391.875 170.026L400.775 169.826C400.562 171.491 400.489 173.17 400.555 174.846ZM402.835 163.846V162.706H408.575L407.775 168.506H406.095C405.135 168.506 403.935 168.406 402.615 168.386C402.786 166.879 402.859 165.363 402.835 163.846ZM402.455 169.846C403.855 169.746 405.115 169.626 406.115 169.526L407.655 169.366L406.835 175.366L401.455 175.646C401.455 175.466 401.455 175.266 401.595 175.046C402.02 173.305 402.307 171.533 402.455 169.746V169.846ZM401.935 162.806C401.469 164.619 401.14 166.464 400.955 168.326L391.655 168.586C391.38 166.555 390.946 164.549 390.355 162.586C394.655 162.646 397.635 162.686 401.935 162.706V162.806ZM391.595 176.326L386.175 176.726C385.835 174.726 385.455 172.346 385.055 169.926L387.235 170.046H390.235C390.51 172.141 390.966 174.209 391.595 176.226V176.326ZM389.595 162.626C389.61 164.636 389.777 166.642 390.095 168.626L387.295 168.866L384.995 169.086C384.835 168.066 384.075 163.606 383.875 162.446C384.875 162.506 387.035 162.506 389.515 162.506L389.595 162.626Z" fill="white"/>
<path fill-rule="evenodd" clip-rule="evenodd" d="M484.777 102.886C484.693 102.81 484.595 102.751 484.489 102.713C484.38 102.675 484.268 102.659 484.155 102.666C457.875 104.366 427.895 107.386 400.675 110.546C382.055 112.706 317.535 121.406 317.535 121.406C317.215 121.406 317.375 121.726 317.375 122.046V223.906C317.375 224.066 317.895 224.206 318.075 224.226C334.335 226.106 358.235 228.006 382.795 229.686C383.315 231.686 385.495 239.686 386.555 245.846C386.928 247.716 387.108 249.619 387.095 251.526C387.112 251.87 387.028 252.21 386.855 252.506C384.855 254.506 373.475 258.006 373.135 258.146C372.967 258.196 372.82 258.303 372.722 258.45C372.623 258.596 372.578 258.771 372.595 258.946L372.915 262.826C372.925 263.006 372.998 263.176 373.123 263.305C373.248 263.433 373.417 263.511 373.595 263.526C420.375 269.766 417.595 269.666 418.015 269.526C422.098 267.806 426.055 265.801 429.855 263.526C431.032 262.803 432.113 261.936 433.075 260.946C433.618 260.415 433.953 259.705 434.015 258.946C433.57 256.098 432.902 253.29 432.015 250.546C430.015 243.806 427.235 235.146 426.355 232.546L482.475 235.526C482.58 235.535 482.69 235.519 482.791 235.481C482.89 235.445 482.98 235.385 483.057 235.306C483.133 235.236 483.195 235.15 483.235 235.053C483.279 234.956 483.297 234.851 483.297 234.746C483.435 226.146 485.035 103.626 485.035 103.626C485.053 103.491 485.035 103.354 484.991 103.226C484.948 103.097 484.875 102.981 484.777 102.886ZM395.795 264.886L374.415 262.006L374.195 259.386H374.375C376.035 259.626 388.475 261.226 390.955 261.506C396.335 262.106 415.655 264.046 416.955 264.166C416.663 265.376 416.663 266.636 416.955 267.846L395.795 264.886ZM430.835 250.766C431.64 253.379 432.228 256.056 432.595 258.766C432.523 259.151 432.318 259.498 432.015 259.746C431.115 260.621 430.115 261.386 429.035 262.026C425.607 264.068 422.045 265.878 418.375 267.446C418.54 266.253 418.443 265.039 418.095 263.886C419.135 263.446 422.715 261.886 425.915 260.346C427.738 259.519 429.485 258.536 431.135 257.406C431.167 257.376 431.19 257.341 431.207 257.301C431.223 257.261 431.233 257.219 431.233 257.176C431.233 257.133 431.223 257.091 431.207 257.051C431.19 257.011 431.167 256.976 431.135 256.946C431.072 256.883 430.985 256.848 430.895 256.848C430.805 256.848 430.718 256.883 430.655 256.946C429.415 257.723 428.11 258.391 426.755 258.946C423.095 260.526 418.335 262.306 417.355 262.666C416.475 262.666 378.015 258.866 376.115 258.666C388.115 254.486 388.115 253.326 388.295 251.526C388.275 249.508 388.04 247.496 387.595 245.526C386.435 239.526 384.135 231.926 383.435 229.526L426.335 232.506H425.635C426.335 234.726 429.035 243.806 430.835 250.806V250.766ZM481.737 233.746C477.595 233.566 400.775 229.746 383.835 228.606C359.095 227.066 334.855 225.346 318.375 223.566V122.626C321.875 122.126 399.735 112.186 417.515 110.266C439.515 107.886 462.617 105.706 483.377 104.386L481.737 233.746Z" fill="white"/>
<path fill-rule="evenodd" clip-rule="evenodd" d="M417.575 252.946C416.495 252.946 401.955 252.226 400.615 252.206C399.275 252.186 392.115 252.206 392.115 252.206C392.07 252.203 392.025 252.21 391.983 252.225C391.942 252.24 391.902 252.261 391.868 252.291C391.835 252.321 391.808 252.358 391.788 252.398C391.768 252.438 391.758 252.481 391.755 252.526C391.755 252.613 391.788 252.696 391.848 252.76C391.907 252.823 391.988 252.861 392.075 252.866C392.935 252.866 403.975 254.246 417.515 254.426H426.015C426.058 254.431 426.102 254.428 426.142 254.416C426.183 254.403 426.222 254.383 426.253 254.355C426.287 254.325 426.312 254.29 426.328 254.251C426.347 254.211 426.355 254.17 426.355 254.126C426.358 254.081 426.352 254.036 426.337 253.995C426.322 253.953 426.3 253.913 426.27 253.88C426.24 253.846 426.203 253.82 426.163 253.8C426.123 253.78 426.08 253.77 426.035 253.766C426.035 253.766 419.535 253.106 417.575 252.946ZM453.495 177.506L455.675 181.506L457.415 180.246L455.315 176.626L458.575 175.046L449.855 167.346L450.355 179.026L453.495 177.506ZM443.735 189.426C443.715 189.465 443.703 189.508 443.7 189.551C443.698 189.596 443.705 189.64 443.72 189.681C443.735 189.723 443.758 189.76 443.788 189.791C443.818 189.825 443.855 189.85 443.895 189.866C444.59 190.37 445.312 190.838 446.055 191.266C446.895 191.746 448.815 192.606 449.715 192.966C450.255 193.186 453.355 194.326 453.595 193.806C453.615 193.768 453.627 193.725 453.63 193.681C453.632 193.636 453.625 193.593 453.61 193.551C453.595 193.51 453.572 193.473 453.542 193.441C453.512 193.408 453.475 193.383 453.435 193.366L452.575 192.766C450.365 191.355 447.96 190.276 445.435 189.566C444.655 189.346 444.175 189.266 444.175 189.266C444.095 189.231 444.005 189.228 443.923 189.258C443.842 189.288 443.773 189.348 443.735 189.426ZM435.895 206.826C434.742 204.955 433.113 203.423 431.175 202.386C431.145 202.356 431.108 202.331 431.07 202.316C431.03 202.3 430.988 202.291 430.945 202.291C430.902 202.291 430.86 202.3 430.82 202.316C430.781 202.331 430.745 202.356 430.715 202.386C430.685 202.416 430.662 202.453 430.645 202.491C430.628 202.531 430.62 202.573 430.62 202.616C430.62 202.66 430.628 202.701 430.645 202.741C430.662 202.78 430.685 202.816 430.715 202.846C430.848 203.13 431.003 203.405 431.175 203.666C432.327 205.463 433.917 206.936 435.795 207.946C435.823 207.98 435.858 208.006 435.898 208.026C435.938 208.045 435.982 208.053 436.025 208.053C436.068 208.053 436.112 208.045 436.152 208.026C436.192 208.006 436.227 207.98 436.255 207.946C436.313 207.883 436.345 207.801 436.345 207.716C436.345 207.631 436.313 207.55 436.255 207.486L435.895 206.826ZM351.575 181.526C351.527 181.454 351.452 181.402 351.368 181.38C351.283 181.358 351.193 181.367 351.115 181.406C346.95 182.959 343.065 185.181 339.615 187.986C339.543 188.035 339.49 188.11 339.468 188.193C339.447 188.278 339.455 188.368 339.495 188.446C339.542 188.523 339.615 188.578 339.7 188.6C339.787 188.623 339.878 188.61 339.955 188.566C344.112 186.993 347.993 184.771 351.455 181.986C351.528 181.937 351.58 181.864 351.602 181.779C351.623 181.694 351.615 181.605 351.575 181.526ZM361.035 197.986C359.115 199.121 357.325 200.463 355.695 201.986C349.515 207.366 351.115 207.486 351.455 207.166C351.455 207.166 352.015 206.846 352.875 206.266C356.067 204.056 358.963 201.448 361.495 198.506C361.528 198.478 361.555 198.445 361.575 198.406C361.595 198.37 361.607 198.328 361.61 198.285C361.613 198.241 361.61 198.2 361.597 198.158C361.583 198.116 361.563 198.08 361.535 198.046C361.508 198.013 361.473 197.986 361.435 197.966C361.398 197.946 361.357 197.935 361.313 197.931C361.27 197.928 361.228 197.931 361.187 197.945C361.147 197.958 361.108 197.978 361.075 198.006L361.035 197.986ZM392.255 288.986C390.655 287.895 388.893 287.058 387.035 286.506C386.965 286.17 386.83 285.85 386.635 285.566C386.28 285.088 385.832 284.686 385.315 284.386C383.555 283.39 381.608 282.77 379.595 282.566C377.088 282.255 374.543 282.578 372.195 283.506C368.435 285.066 359.215 290.726 348.935 294.406C343.662 296.451 338.07 297.548 332.415 297.646C324.705 297.686 317.018 298.51 309.475 300.106C299.655 302.106 290.875 304.746 287.735 306.686L281.475 297.566H281.655C283.048 297.028 284.388 296.358 285.655 295.566C286.578 295.071 287.388 294.391 288.035 293.566C288.08 293.495 288.103 293.411 288.103 293.326C288.103 293.241 288.08 293.158 288.035 293.086C287.967 292.961 287.852 292.868 287.715 292.826C287.503 292.691 287.274 292.585 287.035 292.506C284.568 292.41 282.098 292.45 279.635 292.626C274.305 279.145 267.49 266.298 259.315 254.326C254.483 247.23 249.135 240.498 243.315 234.186C245.635 229.826 248.255 224.646 252.695 214.706C254.324 213.911 255.727 212.72 256.775 211.241C257.823 209.765 258.483 208.046 258.695 206.246C261.095 207.166 262.695 203.726 263.195 200.966C266.275 202.166 271.835 204.286 274.975 205.286C275.487 205.473 276.017 205.606 276.555 205.686C278.695 205.686 286.555 194.186 287.955 191.686C288.363 191.023 288.623 190.28 288.715 189.506C288.693 189.246 288.612 188.996 288.475 188.775C288.34 188.553 288.155 188.365 287.935 188.226C284.855 185.866 271.255 182.746 266.075 181.966C261.595 181.306 261.735 181.466 258.995 184.946C257.955 186.266 256.815 187.826 255.835 189.186C254.019 189.25 252.215 189.511 250.455 189.966C244.335 191.566 242.455 193.766 241.415 197.506C240.55 200.425 240.151 203.463 240.235 206.506C235.275 211.406 231.595 215.286 227.655 219.546C217.379 210.975 206.12 203.658 194.115 197.746L195.315 189.746C202.195 189.746 211.695 187.746 214.135 181.286C215.268 178.099 216.125 174.821 216.695 171.486C217.475 167.106 217.795 163.286 217.895 161.966L221.775 160.146C221.943 160.068 222.078 159.932 222.155 159.764C222.231 159.595 222.246 159.405 222.195 159.226C222.195 159.226 217.375 141.226 217.075 139.986C219.575 139.426 221.435 138.906 221.435 138.906C221.435 106.906 191.435 100.206 191.435 100.206C191.435 100.206 200.915 88.2064 202.035 80.4464C203.155 72.6864 193.635 70.0864 181.135 73.4264C168.635 76.7664 176.795 98.8064 176.795 98.8064C171.095 97.5464 160.335 103.986 160.335 103.986C152.335 62.2864 130.435 79.7864 128.335 92.1264C126.235 104.466 154.035 107.286 154.035 107.286C135.415 115.086 128.875 178.006 128.875 178.006C133.155 181.306 141.675 183.326 150.875 184.546C133.519 196.785 120.216 213.933 112.675 233.786C109.37 242.348 107.12 251.28 105.975 260.386C103.849 278.603 105.207 297.056 109.975 314.766C113.001 326.543 117.016 338.045 121.975 349.146C122.01 349.226 122.074 349.288 122.155 349.32C122.195 349.336 122.238 349.345 122.28 349.343C122.323 349.343 122.366 349.333 122.405 349.316C122.444 349.3 122.48 349.275 122.51 349.243C122.54 349.213 122.563 349.176 122.579 349.136C122.595 349.096 122.603 349.055 122.602 349.011C122.601 348.968 122.592 348.926 122.575 348.886C117.792 337.761 113.932 326.263 111.035 314.506C106.477 296.888 105.269 278.57 107.475 260.506C108.649 251.53 110.898 242.726 114.175 234.286C121.716 214.555 135.054 197.57 152.435 185.566C184.895 190.126 229.175 213.566 258.295 255.026C266.554 266.891 273.47 279.635 278.915 293.026C271.607 299.76 263.555 305.637 254.915 310.546C250.582 313.023 246.093 315.213 241.475 317.106C236.878 319.01 232.127 320.521 227.275 321.626C223.675 316.506 206.295 286.506 206.155 286.346C206.136 286.308 206.11 286.273 206.077 286.245C206.044 286.216 206.006 286.196 205.965 286.183C205.924 286.17 205.88 286.165 205.838 286.17C205.795 286.173 205.753 286.186 205.715 286.206C205.674 286.225 205.637 286.253 205.607 286.286C205.577 286.321 205.554 286.361 205.541 286.405C205.528 286.448 205.524 286.495 205.53 286.54C205.536 286.585 205.551 286.628 205.575 286.666C205.575 286.666 206.375 288.426 207.735 291.206C212.335 300.586 219.895 314.066 226.675 322.026C224.675 325.246 221.195 332.426 224.995 332.126C227.375 331.946 230.355 328.906 230.995 328.526C240.078 338.175 250.489 346.478 261.915 353.186C270.035 357.706 278.935 361.006 287.635 361.186H287.755C299.415 359.186 311.755 352.626 323.195 344.486C342.615 330.666 359.575 312.486 366.895 305.106C368.105 303.895 369.395 302.765 370.755 301.726C372.942 302.11 375.155 302.316 377.375 302.346C379.042 302.375 380.707 302.268 382.355 302.026C385.193 301.697 387.925 300.748 390.355 299.246C391.655 298.451 392.8 297.428 393.735 296.226C394.448 295.336 394.83 294.226 394.815 293.086C394.785 292.38 394.578 291.693 394.215 291.086C393.717 290.256 393.05 289.54 392.255 288.986ZM161.035 185.586C175.355 186.686 188.615 186.366 188.615 186.366C187.895 181.606 181.455 158.846 181.455 158.846C176.435 159.246 172.035 155.646 175.135 148.666C178.235 141.686 185.475 146.666 185.475 146.666C191.493 144.622 196.918 141.134 201.275 136.506C201.876 138.183 202.831 139.711 204.075 140.986C205.355 142.286 211.675 141.166 216.315 140.146C216.635 141.906 217.175 144.526 217.775 147.246C218.215 149.346 220.235 157.966 220.475 158.966L216.715 160.506C215.795 160.926 216.715 161.626 214.995 171.006C214.451 174.243 213.635 177.427 212.555 180.526C212.035 181.74 211.279 182.838 210.331 183.758C209.384 184.678 208.263 185.401 207.035 185.886C203.135 187.476 198.984 188.363 194.775 188.506C194.635 188.501 194.499 188.55 194.394 188.643C194.29 188.736 194.225 188.866 194.215 189.006L192.115 196.786C182.22 191.871 171.791 188.113 161.035 185.586ZM259.035 204.906C258.035 204.906 259.495 200.066 259.555 199.766L262.135 200.766C261.755 202.146 260.595 204.886 259.035 204.906ZM262.095 183.026C266.955 183.246 284.495 187.646 286.675 189.706C286.255 191.806 279.815 200.286 277.355 202.946C275.755 204.646 279.355 205.526 255.015 197.226C256.255 195.346 258.155 191.986 256.035 191.226C255.734 191.143 255.416 191.143 255.115 191.226C257.251 188.313 259.612 185.571 262.175 183.026H262.095ZM257.955 199.026C257.615 200.166 257.095 203.526 256.075 203.026C255.055 202.526 255.475 199.586 255.935 198.246L257.955 199.026ZM230.215 221.766L228.215 220.066C229.375 219.026 236.215 212.766 236.835 212.066C239.475 209.526 241.655 207.386 241.655 207.386C241.742 207.301 241.808 207.198 241.849 207.083C241.891 206.97 241.907 206.848 241.895 206.726C241.713 203.783 241.983 200.828 242.695 197.966C243.074 196.143 244.105 194.523 245.595 193.406C248.474 191.635 251.688 190.478 255.035 190.006L253.935 191.566C249.935 193.726 244.975 200.866 244.815 201.066C244.787 201.1 244.767 201.136 244.754 201.178C244.741 201.22 244.736 201.261 244.74 201.305C244.743 201.348 244.756 201.39 244.775 201.426C244.795 201.465 244.822 201.498 244.855 201.526C244.888 201.555 244.926 201.575 244.967 201.588C245.008 201.601 245.051 201.605 245.094 201.601C245.136 201.598 245.178 201.586 245.216 201.566C245.254 201.546 245.287 201.52 245.315 201.486C246.075 200.766 254.395 192.266 255.495 192.706C256.595 193.146 249.495 202.346 250.155 202.886C250.815 203.426 254.335 198.386 254.715 197.806L255.375 198.066C254.255 200.246 253.375 203.226 255.535 204.446C255.799 204.591 256.094 204.668 256.395 204.668C256.696 204.668 256.992 204.591 257.255 204.446C257.315 204.883 257.472 205.3 257.715 205.666C257.322 207.976 256.116 210.068 254.315 211.566C250.315 215.106 252.795 209.246 245.635 226.046C244.995 227.526 244.415 228.966 243.915 230.206C243.415 231.446 242.875 232.826 242.595 233.566C238.668 229.428 234.536 225.49 230.215 221.766ZM225.635 330.266C225.395 330.38 225.138 330.453 224.875 330.486C225.494 327.87 226.52 325.365 227.915 323.066C232.738 321.933 237.46 320.408 242.035 318.506C246.692 316.538 251.21 314.251 255.555 311.666C264.214 306.543 272.237 300.413 279.455 293.406C281.907 293.258 284.363 293.258 286.815 293.406C286.25 293.883 285.64 294.305 284.995 294.666C283.78 295.378 282.502 295.973 281.175 296.446C280.802 296.526 280.45 296.69 280.148 296.926C279.847 297.161 279.603 297.463 279.435 297.806C278.975 298.986 279.915 300.026 278.735 301.806C277.135 304.146 274.915 302.866 272.115 303.526C268.775 304.306 270.115 309.526 268.115 311.246C266.115 312.966 261.995 309.926 260.115 312.726C259.075 314.306 259.595 316.886 258.675 318.326C257.755 319.766 252.975 315.766 250.155 318.646C249.227 320.057 248.392 321.526 247.655 323.046C246.275 325.166 244.255 322.566 241.655 322.426C236.855 322.186 240.675 333.546 234.235 328.426C233.619 327.903 232.948 327.448 232.235 327.066C229.915 325.766 229.215 328.766 225.635 330.266ZM365.635 303.846C358.355 311.126 341.475 329.306 322.195 343.146C310.975 351.146 298.935 357.766 287.475 359.786C278.995 359.786 270.295 356.546 262.355 352.226C251.212 345.815 241.008 337.893 232.035 328.686C232.544 329.008 233.032 329.361 233.495 329.746C241.155 335.746 240.255 323.966 241.855 324.046C244.775 324.186 247.195 328.746 250.715 321.186C250.922 320.663 251.212 320.177 251.575 319.746C253.715 317.546 258.255 322.346 260.275 319.146C261.635 316.966 260.695 313.386 262.275 313.146C263.855 312.906 265.295 313.706 266.975 313.446C272.295 312.666 269.835 305.446 272.475 304.826C273.468 304.618 274.482 304.53 275.495 304.566C276.278 304.586 277.06 304.458 277.795 304.186C278.62 303.838 279.318 303.245 279.795 302.486C281.135 300.486 280.275 299.006 280.535 298.266C280.575 298.166 280.645 298.083 280.735 298.026L287.275 307.926C287.302 307.97 287.337 308.005 287.377 308.033C287.418 308.061 287.467 308.08 287.515 308.086C287.612 308.125 287.718 308.125 287.815 308.086C290.595 306.206 299.575 303.306 309.635 301.426C317.107 299.845 324.718 299.013 332.355 298.946C338.173 298.91 343.937 297.831 349.375 295.766C359.695 292.146 368.975 286.546 372.755 285.006C374.858 284.183 377.135 283.901 379.375 284.186C380.935 284.365 382.455 284.796 383.875 285.466C384.4 285.688 384.867 286.031 385.235 286.466C385.307 286.578 385.36 286.7 385.395 286.826H384.995C384.358 286.53 383.687 286.315 382.995 286.186C380.272 285.685 377.478 285.685 374.755 286.186C374.65 286.201 374.548 286.238 374.458 286.293C374.367 286.348 374.288 286.42 374.225 286.505C374.162 286.591 374.115 286.688 374.09 286.791C374.065 286.895 374.06 287.001 374.075 287.106C374.092 287.211 374.127 287.313 374.181 287.403C374.237 287.495 374.308 287.573 374.395 287.636C374.48 287.7 374.577 287.746 374.68 287.771C374.783 287.796 374.89 287.801 374.995 287.786C376.923 287.516 378.872 287.43 380.815 287.526H381.855C382.262 287.591 382.662 287.685 383.055 287.806C384.095 288.036 385.018 288.633 385.655 289.486C382.413 288.986 379.102 289.17 375.935 290.026H375.695C375.507 290.1 375.35 290.238 375.255 290.418C375.16 290.596 375.133 290.805 375.18 291.001C375.227 291.2 375.342 291.373 375.507 291.491C375.672 291.61 375.873 291.665 376.075 291.646H376.355C378.4 291.201 380.483 290.948 382.575 290.886H384.035C384.66 290.941 385.277 291.061 385.875 291.246C386.087 291.321 386.288 291.423 386.475 291.546C386.573 291.606 386.682 291.648 386.795 291.666C387 291.775 387.178 291.925 387.32 292.108C387.462 292.29 387.562 292.501 387.615 292.726L387.355 292.846C386.998 292.983 386.63 293.091 386.255 293.166C382.817 293.778 379.462 294.785 376.255 296.166C372.297 298.061 368.718 300.665 365.695 303.846H365.635ZM392.395 295.046C391.55 296.146 390.505 297.075 389.315 297.786C387.088 299.15 384.602 300.035 382.015 300.386C380.435 300.661 378.838 300.835 377.235 300.906C375.363 301.006 373.487 301.006 371.615 300.906C372.695 300.146 373.735 299.506 374.755 298.906C378.855 296.861 383.225 295.415 387.735 294.606C388.955 294.206 389.395 293.546 389.315 292.766C389.25 292.273 389.072 291.801 388.795 291.388C388.517 290.975 388.148 290.633 387.715 290.386C387.555 289.426 387.093 288.545 386.395 287.866L386.635 287.626C386.745 287.48 386.833 287.318 386.895 287.146C387.935 287.618 388.938 288.165 389.895 288.786C391.067 289.5 392.054 290.48 392.775 291.646C393.074 292.178 393.203 292.788 393.147 293.396C393.088 294.003 392.848 294.58 392.455 295.046H392.395Z" fill="white"/>
<path fill-rule="evenodd" clip-rule="evenodd" d="M258.016 193.986C263.83 196.503 269.853 198.51 276.015 199.986C281.695 201.326 277.595 198.906 266.015 195.286C261.835 193.986 258.676 193.286 258.376 193.286C258.331 193.265 258.283 193.251 258.233 193.25C258.184 193.248 258.135 193.256 258.089 193.276C258.044 193.295 258.003 193.325 257.97 193.361C257.937 193.398 257.912 193.441 257.897 193.488C257.882 193.535 257.878 193.585 257.884 193.635C257.891 193.683 257.908 193.73 257.935 193.771C257.961 193.813 257.996 193.85 258.038 193.876C258.08 193.903 258.127 193.92 258.176 193.926L258.016 193.986ZM266.855 186.166L262.675 185.166L260.896 187.066L265.515 188.286L266.855 186.166ZM389.035 186.506C387.995 186.506 387.155 187.666 387.155 189.106C387.155 190.546 387.995 191.686 389.035 191.686C390.075 191.686 390.895 190.526 390.895 189.106C390.895 187.686 390.135 186.506 389.035 186.506ZM407.195 186.506C406.155 186.506 405.315 187.666 405.315 189.106C405.315 190.546 406.155 191.686 407.195 191.686C408.235 191.686 409.055 190.526 409.055 189.106C409.055 187.686 408.215 186.506 407.195 186.506ZM209.796 154.086C209.973 154.089 210.149 154.056 210.313 153.988C210.477 153.92 210.626 153.819 210.75 153.692C210.873 153.565 210.97 153.413 211.033 153.247C211.096 153.081 211.124 152.904 211.116 152.726C211.116 151.806 211.116 150.906 211.216 149.986C211.251 149.62 211.148 149.254 210.925 148.961C210.703 148.668 210.378 148.47 210.016 148.406C208.256 148.166 208.476 150.626 208.476 152.606C208.469 152.974 208.601 153.33 208.846 153.605C209.091 153.879 209.429 154.051 209.796 154.086Z" fill="white"/>
</g>
<defs>
<clipPath id="clip0_435_936">
<rect width="590" height="552" fill="white"/>
</clipPath>
</defs>
</svg>
