<svg width="631" height="143" viewBox="0 0 631 143" fill="none" xmlns="http://www.w3.org/2000/svg">
<path opacity="0.5" d="M21.9074 104.644L21.5411 105.336L21.5533 105.342L21.9074 104.644ZM6.49943 90.3881L5.82905 90.7925L5.83381 90.8002L6.49943 90.3881ZM6.49943 49.2041L5.83377 48.792L5.82909 48.7998L6.49943 49.2041ZM21.9074 35.0921L22.2657 35.7882L22.2695 35.7862L21.9074 35.0921ZM65.5394 35.0921L65.151 35.7718L65.1574 35.7754L65.1638 35.7789L65.5394 35.0921ZM78.9314 49.6361L79.3019 50.3257L79.9391 49.9834L79.6481 49.3212L78.9314 49.6361ZM61.5074 58.9961L60.8266 59.3825L61.2041 60.0477L61.8779 59.6857L61.5074 58.9961ZM29.5394 54.1001L28.9859 53.5465L29.5394 54.1001ZM61.5074 80.5961L61.8823 79.9089L61.1996 79.5365L60.8227 80.2167L61.5074 80.5961ZM78.9314 90.1001L79.6445 90.4232L79.9446 89.761L79.3063 89.4128L78.9314 90.1001ZM65.5394 104.5L65.1556 103.818L65.151 103.82L65.5394 104.5ZM44.2274 108.901C36.0806 108.901 28.7641 107.244 22.2616 103.946L21.5533 105.342C28.2988 108.764 35.8623 110.467 44.2274 110.467V108.901ZM22.2737 103.952C15.8636 100.559 10.833 95.9012 7.16506 89.9761L5.83381 90.8002C9.65386 96.971 14.8952 101.818 21.5412 105.336L22.2737 103.952ZM7.16977 89.9838C3.60176 84.0684 1.81028 77.3465 1.81028 69.7961H0.244593C0.244593 77.6057 2.10111 84.6118 5.82909 90.7924L7.16977 89.9838ZM1.81028 69.7961C1.81028 62.2457 3.60176 55.5238 7.16977 49.6084L5.82909 48.7998C2.10111 54.9804 0.244593 61.9865 0.244593 69.7961H1.81028ZM7.16506 49.6161C10.8318 43.693 15.8598 39.0853 22.2657 35.7882L21.5492 34.396C14.8991 37.8189 9.65508 42.6192 5.83381 48.792L7.16506 49.6161ZM22.2695 35.7862C28.7704 32.3944 36.0841 30.6909 44.2274 30.6909V29.1253C35.8588 29.1253 28.2925 30.8778 21.5453 34.398L22.2695 35.7862ZM44.2274 30.6909C52.2747 30.6909 59.2402 32.3942 65.151 35.7718L65.9278 34.4124C59.7427 30.878 52.5001 29.1253 44.2274 29.1253V30.6909ZM65.1638 35.7789C71.1581 39.0571 75.5011 43.7753 78.2147 49.951L79.6481 49.3212C76.7937 42.8249 72.2087 37.8471 65.9151 34.4053L65.1638 35.7789ZM78.561 48.9465L61.137 58.3065L61.8779 59.6857L79.3019 50.3257L78.561 48.9465ZM62.1883 58.6097C58.0303 51.2838 51.9748 47.5573 44.0834 47.5573V49.1229C51.3601 49.1229 56.9206 52.5004 60.8266 59.3825L62.1883 58.6097ZM44.0834 47.5573C38.0378 47.5573 32.9849 49.5475 28.9859 53.5465L30.093 54.6537C33.7739 50.9727 38.4171 49.1229 44.0834 49.1229V47.5573ZM28.9859 53.5465C24.968 57.5645 22.9966 63.0131 22.9966 69.7961H24.5623C24.5623 63.3311 26.4309 58.3157 30.093 54.6537L28.9859 53.5465ZM22.9966 69.7961C22.9966 76.5791 24.968 82.0277 28.9859 86.0457L30.093 84.9386C26.4309 81.2765 24.5623 76.2611 24.5623 69.7961H22.9966ZM28.9859 86.0457C32.9849 90.0447 38.0378 92.0349 44.0834 92.0349V90.4693C38.4171 90.4693 33.7739 88.6195 30.093 84.9386L28.9859 86.0457ZM44.0834 92.0349C48.0486 92.0349 51.5657 91.1164 54.6079 89.256C57.6478 87.3968 60.1713 84.623 62.1922 80.9755L60.8227 80.2167C58.9076 83.6732 56.5591 86.2274 53.791 87.9203C51.0252 89.6118 47.7982 90.4693 44.0834 90.4693V92.0349ZM61.1326 81.2834L78.5566 90.7874L79.3063 89.4128L61.8823 79.9089L61.1326 81.2834ZM78.2184 89.777C75.5064 95.7621 71.1615 100.44 65.1556 103.818L65.9232 105.182C72.2054 101.649 76.7885 96.7261 79.6445 90.4232L78.2184 89.777ZM65.151 103.82C59.2402 107.198 52.2747 108.901 44.2274 108.901V110.467C52.5001 110.467 59.7427 108.714 65.9278 105.18L65.151 103.82ZM105.713 104.644L105.343 105.334L105.355 105.34L105.713 104.644ZM90.5932 90.3881L89.9228 90.7924L90.5932 90.3881ZM90.5932 49.2041L89.9228 48.7998L90.5932 49.2041ZM105.713 35.0921L106.076 35.786L106.079 35.784L105.713 35.0921ZM149.633 35.0921L149.263 35.7817L149.271 35.786L149.633 35.0921ZM164.753 49.2041L165.424 48.7998L164.753 49.2041ZM164.753 90.3881L165.424 90.7924L164.753 90.3881ZM149.633 104.644L149.996 105.338L150.004 105.334L149.633 104.644ZM141.857 85.4921L141.29 84.9526L141.29 84.9529L141.857 85.4921ZM141.857 54.2441L141.283 54.7763L141.29 54.7835L141.297 54.7906L141.857 54.2441ZM113.489 54.2441L114.05 54.7906L114.056 54.7836L113.489 54.2441ZM113.489 85.4921L112.922 86.0317L112.929 86.0386L113.489 85.4921ZM127.745 108.901C119.696 108.901 112.477 107.245 106.071 103.948L105.355 105.34C112.006 108.763 119.475 110.467 127.745 110.467V108.901ZM106.084 103.955C99.7711 100.563 94.8365 95.9073 91.2635 89.9838L89.9228 90.7924C93.6459 96.9649 98.7913 101.814 105.343 105.334L106.084 103.955ZM91.2635 89.9838C87.6955 84.0684 85.904 77.3465 85.904 69.7961H84.3383C84.3383 77.6057 86.1949 84.6118 89.9228 90.7924L91.2635 89.9838ZM85.904 69.7961C85.904 62.2457 87.6955 55.5238 91.2635 49.6084L89.9228 48.7998C86.1949 54.9804 84.3383 61.9865 84.3383 69.7961H85.904ZM91.2635 49.6084C94.8353 43.6868 99.7672 39.0814 106.076 35.786L105.351 34.3982C98.7952 37.8228 93.6471 42.6254 89.9228 48.7998L91.2635 49.6084ZM106.079 35.784C112.483 32.3938 119.699 30.6909 127.745 30.6909V29.1253C119.471 29.1253 111.999 30.8784 105.347 34.4002L106.079 35.784ZM127.745 30.6909C135.791 30.6909 142.957 32.3938 149.263 35.7817L150.004 34.4025C143.445 30.8784 136.019 29.1253 127.745 29.1253V30.6909ZM149.271 35.786C155.579 39.0814 160.511 43.6868 164.083 49.6084L165.424 48.7998C161.699 42.6254 156.551 37.8228 149.996 34.3982L149.271 35.786ZM164.083 49.6084C167.651 55.5238 169.442 62.2457 169.442 69.7961H171.008C171.008 61.9865 169.152 54.9804 165.424 48.7998L164.083 49.6084ZM169.442 69.7961C169.442 77.3465 167.651 84.0684 164.083 89.9838L165.424 90.7924C169.152 84.6118 171.008 77.6057 171.008 69.7961H169.442ZM164.083 89.9838C160.51 95.9073 155.575 100.563 149.263 103.955L150.004 105.334C156.555 101.814 161.7 96.9649 165.424 90.7924L164.083 89.9838ZM149.271 103.95C142.964 107.245 135.795 108.901 127.745 108.901V110.467C136.016 110.467 143.438 108.763 149.996 105.338L149.271 103.95ZM127.745 92.0349C133.699 92.0349 138.615 90.0414 142.425 86.0313L141.29 84.9529C137.803 88.6228 133.311 90.4693 127.745 90.4693V92.0349ZM142.424 86.0316C146.334 81.9217 148.256 76.4819 148.256 69.7961H146.69C146.69 76.1663 144.868 81.1905 141.29 84.9526L142.424 86.0316ZM148.256 69.7961C148.256 63.111 146.334 57.7144 142.418 53.6976L141.297 54.7906C144.868 58.4538 146.69 63.4252 146.69 69.7961H148.256ZM142.431 53.712C138.623 49.6034 133.705 47.5573 127.745 47.5573V49.1229C133.305 49.1229 137.795 51.0128 141.283 54.7763L142.431 53.712ZM127.745 47.5573C121.785 47.5573 116.823 49.603 112.922 53.7046L114.056 54.7836C117.643 51.0132 122.185 49.1229 127.745 49.1229V47.5573ZM112.929 53.6976C109.012 57.7144 107.09 63.111 107.09 69.7961H108.656C108.656 63.4252 110.478 58.4538 114.05 54.7906L112.929 53.6976ZM107.09 69.7961C107.09 76.4819 109.012 81.9217 112.922 86.0316L114.056 84.9526C110.478 81.1905 108.656 76.1663 108.656 69.7961H107.09ZM112.929 86.0386C116.832 90.0417 121.791 92.0349 127.745 92.0349V90.4693C122.179 90.4693 117.635 88.6225 114.05 84.9456L112.929 86.0386ZM255.513 38.5481L254.964 39.1062L254.968 39.1107L255.513 38.5481ZM264.441 108.532V109.315H265.223V108.532H264.441ZM241.977 108.532H241.194V109.315H241.977V108.532ZM237.945 53.9561L237.355 54.4717L237.364 54.4808L237.945 53.9561ZM212.745 54.6761L213.306 55.2219L213.313 55.2141L212.745 54.6761ZM207.705 108.532V109.315H208.487V108.532H207.705ZM185.241 108.532H184.458V109.315H185.241V108.532ZM185.241 31.0601V30.2773H184.458V31.0601H185.241ZM206.697 31.0601H207.479V30.2773H206.697V31.0601ZM206.697 40.1321H205.914V42.1526L207.275 40.6595L206.697 40.1321ZM217.785 32.6441L218.07 33.3731L218.077 33.3704L218.083 33.3677L217.785 32.6441ZM232.329 30.6909C241.76 30.6909 249.279 33.5144 254.964 39.1062L256.062 37.99C250.035 32.0618 242.097 29.1253 232.329 29.1253V30.6909ZM254.968 39.1107C260.718 44.6754 263.658 52.9839 263.658 64.1801H265.223C265.223 52.7203 262.211 43.9408 256.057 37.9855L254.968 39.1107ZM263.658 64.1801V108.532H265.223V64.1801H263.658ZM264.441 107.749H241.977V109.315H264.441V107.749ZM242.759 108.532V67.6361H241.194V108.532H242.759ZM242.759 67.6361C242.759 61.3978 241.398 56.6111 238.526 53.4314L237.364 54.4808C239.868 57.2531 241.194 61.5864 241.194 67.6361H242.759ZM238.534 53.4406C235.662 50.1582 231.534 48.5653 226.281 48.5653V50.1309C231.203 50.1309 234.852 51.61 237.355 54.4716L238.534 53.4406ZM226.281 48.5653C220.439 48.5653 215.707 50.4047 212.176 54.1381L213.313 55.2141C216.502 51.8435 220.795 50.1309 226.281 50.1309V48.5653ZM212.183 54.1304C208.63 57.7857 206.922 63.2009 206.922 70.2281H208.487C208.487 63.4313 210.14 58.4786 213.306 55.2218L212.183 54.1304ZM206.922 70.2281V108.532H208.487V70.2281H206.922ZM207.705 107.749H185.241V109.315H207.705V107.749ZM186.023 108.532V31.0601H184.458V108.532H186.023ZM185.241 31.8429H206.697V30.2773H185.241V31.8429ZM205.914 31.0601V40.1321H207.479V31.0601H205.914ZM207.275 40.6595C210.164 37.4908 213.757 35.0606 218.07 33.3731L217.499 31.9151C212.98 33.6836 209.181 36.2454 206.118 39.6047L207.275 40.6595ZM218.083 33.3677C222.395 31.5867 227.14 30.6909 232.329 30.6909V29.1253C226.957 29.1253 222.006 30.0535 217.486 31.9206L218.083 33.3677ZM355.075 38.5481L354.526 39.1062L354.531 39.1107L355.075 38.5481ZM364.003 108.532V109.315H364.786V108.532H364.003ZM341.539 108.532H340.756V109.315H341.539V108.532ZM337.507 53.9561L336.918 54.4717L336.926 54.4808L337.507 53.9561ZM312.307 54.6761L312.868 55.2219L312.876 55.2141L312.307 54.6761ZM307.267 108.532V109.315H308.05V108.532H307.267ZM284.803 108.532H284.02V109.315H284.803V108.532ZM284.803 1.6841V0.901257H284.02V1.6841H284.803ZM307.267 1.6841H308.05V0.901257H307.267V1.6841ZM307.267 39.1241H306.484V41.014L307.821 39.6777L307.267 39.1241ZM318.067 32.3561L318.335 33.0918L318.342 33.0891L318.349 33.0863L318.067 32.3561ZM331.891 30.6909C341.323 30.6909 348.841 33.5144 354.526 39.1062L355.624 37.99C349.597 32.0618 341.659 29.1253 331.891 29.1253V30.6909ZM354.531 39.1107C360.281 44.6754 363.22 52.9839 363.22 64.1801H364.786C364.786 52.7203 361.773 43.9408 355.619 37.9855L354.531 39.1107ZM363.22 64.1801V108.532H364.786V64.1801H363.22ZM364.003 107.749H341.539V109.315H364.003V107.749ZM342.322 108.532V67.6361H340.756V108.532H342.322ZM342.322 67.6361C342.322 61.3978 340.96 56.6111 338.088 53.4314L336.926 54.4808C339.43 57.2531 340.756 61.5864 340.756 67.6361H342.322ZM338.096 53.4406C335.224 50.1582 331.097 48.5653 325.843 48.5653V50.1309C330.765 50.1309 334.414 51.61 336.918 54.4716L338.096 53.4406ZM325.843 48.5653C320.001 48.5653 315.27 50.4047 311.738 54.1381L312.876 55.2141C316.064 51.8435 320.357 50.1309 325.843 50.1309V48.5653ZM311.746 54.1304C308.192 57.7857 306.484 63.2009 306.484 70.2281H308.05C308.05 63.4313 309.702 58.4786 312.868 55.2218L311.746 54.1304ZM306.484 70.2281V108.532H308.05V70.2281H306.484ZM307.267 107.749H284.803V109.315H307.267V107.749ZM285.586 108.532V1.6841H284.02V108.532H285.586ZM284.803 2.46694H307.267V0.901257H284.803V2.46694ZM306.484 1.6841V39.1241H308.05V1.6841H306.484ZM307.821 39.6777C310.71 36.788 314.211 34.5914 318.335 33.0918L317.8 31.6204C313.475 33.1928 309.776 35.5082 306.714 38.5705L307.821 39.6777ZM318.349 33.0863C322.474 31.4925 326.986 30.6909 331.891 30.6909V29.1253C326.812 29.1253 322.108 29.9557 317.785 31.6259L318.349 33.0863ZM460.665 76.1321V76.9149H461.39L461.446 76.1921L460.665 76.1321ZM402.057 76.1321V75.3493H401.084L401.293 76.3003L402.057 76.1321ZM409.545 87.5081L409.997 86.869L409.545 87.5081ZM434.889 89.9561L435.164 90.6892L435.176 90.6845L434.889 89.9561ZM443.673 84.1961L444.249 83.6654L443.706 83.077L443.13 83.6326L443.673 84.1961ZM455.625 97.1561L456.215 97.6711L456.677 97.1419L456.201 96.6254L455.625 97.1561ZM400.473 104.644L400.115 105.34L400.123 105.344L400.473 104.644ZM384.921 90.3881L384.251 90.7924L384.921 90.3881ZM384.777 49.3481L384.104 48.9484L384.102 48.9517L384.777 49.3481ZM399.609 35.0921L399.98 35.7814L399.984 35.7794L399.609 35.0921ZM441.369 34.8041L441.737 34.1128L441.369 34.8041ZM455.769 48.9161L455.087 49.2999L455.091 49.3063L455.094 49.3125L455.769 48.9161ZM408.105 51.2201L407.604 50.6187L408.105 51.2201ZM401.769 63.0281L400.996 62.9091L400.857 63.8109H401.769V63.0281ZM439.929 63.0281V63.8109H440.845L440.703 62.9068L439.929 63.0281ZM433.593 51.3641L433.082 51.9574L433.092 51.9655L433.593 51.3641ZM460.314 70.0841C460.314 70.3324 460.175 72.2991 459.885 76.0721L461.446 76.1921C461.732 72.4771 461.88 70.4118 461.88 70.0841H460.314ZM460.665 75.3493H402.057V76.9149H460.665V75.3493ZM401.293 76.3003C402.39 81.2866 404.995 85.2482 409.093 88.1472L409.997 86.869C406.224 84.2 403.837 80.5776 402.822 75.9639L401.293 76.3003ZM409.093 88.1472C413.188 91.0433 418.251 92.4669 424.233 92.4669V90.9013C418.504 90.9013 413.775 89.5409 409.997 86.869L409.093 88.1472ZM424.233 92.4669C428.338 92.4669 431.987 91.8806 435.164 90.6891L434.614 89.2231C431.648 90.3356 428.192 90.9013 424.233 90.9013V92.4669ZM435.176 90.6845C438.449 89.3954 441.462 87.4159 444.217 84.7596L443.13 83.6326C440.509 86.1603 437.666 88.0208 434.602 89.2277L435.176 90.6845ZM443.098 84.7268L455.05 97.6868L456.201 96.6254L444.249 83.6654L443.098 84.7268ZM455.036 96.6411C447.926 104.78 437.511 108.901 423.657 108.901V110.467C437.835 110.467 448.733 106.236 456.215 97.6711L455.036 96.6411ZM423.657 108.901C415.023 108.901 407.418 107.241 400.823 103.944L400.123 105.344C406.968 108.767 414.82 110.467 423.657 110.467V108.901ZM400.831 103.948C394.231 100.554 389.159 95.8987 385.592 89.9838L384.251 90.7924C387.979 96.9736 393.276 101.823 400.115 105.34L400.831 103.948ZM385.592 89.9838C382.024 84.0684 380.232 77.3465 380.232 69.7961H378.666C378.666 77.6057 380.523 84.6118 384.251 90.7924L385.592 89.9838ZM380.232 69.7961C380.232 62.3398 381.977 55.6626 385.452 49.7446L384.102 48.9517C380.474 55.1296 378.666 62.0844 378.666 69.7961H380.232ZM385.45 49.7478C389.027 43.7249 393.867 39.0734 399.98 35.7814L399.238 34.4028C392.872 37.8308 387.824 42.6833 384.104 48.9484L385.45 49.7478ZM399.984 35.7794C406.196 32.3909 413.122 30.6909 420.777 30.6909V29.1253C412.881 29.1253 405.694 30.8813 399.234 34.4048L399.984 35.7794ZM420.777 30.6909C428.245 30.6909 434.981 32.2968 441.002 35.4954L441.737 34.1128C435.47 30.7834 428.478 29.1253 420.777 29.1253V30.6909ZM441.002 35.4954C447.012 38.6882 451.703 43.2846 455.087 49.2999L456.452 48.5323C452.923 42.2596 448.015 37.448 441.737 34.1128L441.002 35.4954ZM455.094 49.3125C458.566 55.2233 460.314 62.1383 460.314 70.0841H461.88C461.88 61.9019 460.077 54.7049 456.444 48.5197L455.094 49.3125ZM420.921 46.1173C415.676 46.1173 411.219 47.6061 407.604 50.6187L408.606 51.8215C411.903 49.0741 415.991 47.6829 420.921 47.6829V46.1173ZM407.604 50.6187C403.983 53.6361 401.789 57.7532 400.996 62.9091L402.543 63.1471C403.286 58.319 405.315 54.5641 408.606 51.8215L407.604 50.6187ZM401.769 63.8109H439.929V62.2453H401.769V63.8109ZM440.703 62.9068C439.908 57.8436 437.712 53.7771 434.094 50.7627L433.092 51.9655C436.387 54.7111 438.414 58.4206 439.156 63.1494L440.703 62.9068ZM434.104 50.7709C430.492 47.6607 426.082 46.1173 420.921 46.1173V47.6829C425.745 47.6829 429.782 49.1156 433.082 51.9573L434.104 50.7709ZM491.173 104.644L490.807 105.336L490.819 105.342L491.173 104.644ZM475.765 90.3881L475.095 90.7925L475.099 90.8002L475.765 90.3881ZM475.765 49.2041L475.099 48.792L475.095 48.7998L475.765 49.2041ZM491.173 35.0921L491.531 35.7882L491.535 35.7862L491.173 35.0921ZM534.805 35.0921L534.417 35.7718L534.423 35.7754L534.429 35.7789L534.805 35.0921ZM548.197 49.6361L548.568 50.3257L549.205 49.9834L548.914 49.3212L548.197 49.6361ZM530.773 58.9961L530.092 59.3825L530.47 60.0477L531.144 59.6857L530.773 58.9961ZM498.805 54.1001L498.251 53.5465L498.805 54.1001ZM530.773 80.5961L531.148 79.9089L530.465 79.5365L530.088 80.2167L530.773 80.5961ZM548.197 90.1001L548.91 90.4232L549.21 89.761L548.572 89.4128L548.197 90.1001ZM534.805 104.5L534.421 103.818L534.417 103.82L534.805 104.5ZM497.941 141.076L498.124 140.315L498.109 140.311L498.095 140.308L497.941 141.076ZM491.893 138.916L491.156 138.652L490.938 139.262L491.496 139.591L491.893 138.916ZM495.349 129.268L495.681 128.559L494.902 128.194L494.612 129.004L495.349 129.268ZM500.245 122.644L499.485 122.458L499.247 123.427H500.245V122.644ZM503.989 107.38V106.597H503.375L503.229 107.194L503.989 107.38ZM515.941 107.38L516.702 107.564L516.935 106.597H515.941V107.38ZM513.925 115.732L513.164 115.548L512.956 116.41L513.837 116.51L513.925 115.732ZM523.285 119.62L522.719 120.161L522.719 120.161L523.285 119.62ZM520.693 138.052L520.266 137.396L520.255 137.403L520.693 138.052ZM513.493 108.901C505.346 108.901 498.03 107.244 491.527 103.946L490.819 105.342C497.564 108.764 505.128 110.467 513.493 110.467V108.901ZM491.539 103.952C485.129 100.559 480.099 95.9012 476.431 89.9761L475.099 90.8002C478.919 96.971 484.161 101.818 490.807 105.336L491.539 103.952ZM476.435 89.9838C472.867 84.0684 471.076 77.3465 471.076 69.7961H469.51C469.51 77.6057 471.367 84.6118 475.095 90.7924L476.435 89.9838ZM471.076 69.7961C471.076 62.2457 472.867 55.5238 476.435 49.6084L475.095 48.7998C471.367 54.9804 469.51 61.9865 469.51 69.7961H471.076ZM476.431 49.6161C480.097 43.693 485.125 39.0853 491.531 35.7882L490.815 34.396C484.165 37.8189 478.921 42.6192 475.099 48.792L476.431 49.6161ZM491.535 35.7862C498.036 32.3944 505.35 30.6909 513.493 30.6909V29.1253C505.124 29.1253 497.558 30.8778 490.811 34.398L491.535 35.7862ZM513.493 30.6909C521.54 30.6909 528.506 32.3942 534.417 35.7718L535.193 34.4124C529.008 30.878 521.766 29.1253 513.493 29.1253V30.6909ZM534.429 35.7789C540.424 39.0571 544.767 43.7753 547.48 49.951L548.914 49.3212C546.059 42.8249 541.474 37.8471 535.181 34.4053L534.429 35.7789ZM547.827 48.9465L530.403 58.3065L531.144 59.6857L548.568 50.3257L547.827 48.9465ZM531.454 58.6097C527.296 51.2838 521.24 47.5573 513.349 47.5573V49.1229C520.626 49.1229 526.186 52.5004 530.092 59.3825L531.454 58.6097ZM513.349 47.5573C507.303 47.5573 502.251 49.5475 498.251 53.5465L499.359 54.6537C503.04 50.9727 507.683 49.1229 513.349 49.1229V47.5573ZM498.251 53.5465C494.234 57.5645 492.262 63.0131 492.262 69.7961H493.828C493.828 63.3311 495.697 58.3157 499.359 54.6537L498.251 53.5465ZM492.262 69.7961C492.262 76.5791 494.234 82.0277 498.251 86.0457L499.359 84.9386C495.697 81.2765 493.828 76.2611 493.828 69.7961H492.262ZM498.251 86.0457C502.251 90.0447 507.303 92.0349 513.349 92.0349V90.4693C507.683 90.4693 503.04 88.6195 499.359 84.9386L498.251 86.0457ZM513.349 92.0349C517.314 92.0349 520.831 91.1164 523.873 89.256C526.913 87.3968 529.437 84.623 531.458 80.9755L530.088 80.2167C528.173 83.6732 525.825 86.2274 523.057 87.9203C520.291 89.6118 517.064 90.4693 513.349 90.4693V92.0349ZM530.398 81.2834L547.822 90.7874L548.572 89.4128L531.148 79.9089L530.398 81.2834ZM547.484 89.777C544.772 95.7621 540.427 100.44 534.421 103.818L535.189 105.182C541.471 101.649 546.054 96.7261 548.91 90.4232L547.484 89.777ZM534.417 103.82C528.506 107.198 521.54 108.901 513.493 108.901V110.467C521.766 110.467 529.008 108.714 535.193 105.18L534.417 103.82ZM505.285 141.157C502.85 141.157 500.463 140.876 498.124 140.315L497.758 141.837C500.219 142.428 502.728 142.723 505.285 142.723V141.157ZM498.095 140.308C495.757 139.841 493.828 139.146 492.29 138.241L491.496 139.591C493.222 140.606 495.326 141.351 497.788 141.844L498.095 140.308ZM492.63 139.18L496.086 129.532L494.612 129.004L491.156 138.652L492.63 139.18ZM495.017 129.977C498.185 131.462 501.418 132.211 504.709 132.211V130.645C501.664 130.645 498.657 129.954 495.681 128.559L495.017 129.977ZM504.709 132.211C507.26 132.211 509.305 131.823 510.735 130.943C512.228 130.024 512.98 128.612 512.98 126.82H511.414C511.414 128.1 510.918 128.992 509.915 129.609C508.849 130.265 507.15 130.645 504.709 130.645V132.211ZM512.98 126.82C512.98 125.158 512.251 123.855 510.832 123.014C509.477 122.212 507.545 121.861 505.141 121.861V123.427C507.441 123.427 509.038 123.772 510.034 124.362C510.967 124.914 511.414 125.698 511.414 126.82H512.98ZM505.141 121.861H500.245V123.427H505.141V121.861ZM501.005 122.831L504.749 107.567L503.229 107.194L499.485 122.458L501.005 122.831ZM503.989 108.163H515.941V106.597H503.989V108.163ZM515.18 107.196L513.164 115.548L514.686 115.916L516.702 107.564L515.18 107.196ZM513.837 116.51C517.959 116.978 520.876 118.23 522.719 120.161L523.851 119.08C521.662 116.786 518.339 115.446 514.013 114.954L513.837 116.51ZM522.719 120.161C524.686 122.218 525.67 124.709 525.67 127.684H527.236C527.236 124.323 526.108 121.439 523.851 119.079L522.719 120.161ZM525.67 127.684C525.67 131.824 523.894 135.038 520.266 137.396L521.12 138.708C525.172 136.075 527.236 132.377 527.236 127.684H525.67ZM520.255 137.403C516.586 139.88 511.62 141.157 505.285 141.157V142.723C511.815 142.723 517.12 141.408 521.131 138.701L520.255 137.403ZM620.027 38.5481L619.505 39.1313L619.51 39.1356L620.027 38.5481ZM629.675 108.532V109.315H630.458V108.532H629.675ZM608.651 108.532H607.868V109.315H608.651V108.532ZM608.651 98.8841H609.434V96.0026L607.976 98.488L608.651 98.8841ZM569.483 106.66L569.152 107.37L569.158 107.372L569.483 106.66ZM559.547 98.3081L560.204 97.8821L559.547 98.3081ZM564.155 69.2201L563.684 68.5951L563.678 68.5992L564.155 69.2201ZM607.211 63.0281V63.8109H607.994V63.0281H607.211ZM602.747 51.7961L602.222 52.3771L602.233 52.3864L602.747 51.7961ZM577.115 49.7801L577.352 50.5264L577.363 50.5228L577.115 49.7801ZM567.035 54.9641L566.339 55.3218L566.775 56.1699L567.522 55.5775L567.035 54.9641ZM558.971 39.2681L558.52 38.6281L557.964 39.0203L558.275 39.6258L558.971 39.2681ZM574.091 32.3561L573.884 31.6011L573.881 31.602L574.091 32.3561ZM600.875 91.9721L601.268 92.6491L601.276 92.6444L601.284 92.6396L600.875 91.9721ZM607.211 84.0521L607.948 84.318L607.994 84.1891V84.0521H607.211ZM607.211 76.1321H607.994V75.3493H607.211V76.1321ZM581.291 92.1161L580.809 92.7326L580.823 92.7441L580.839 92.7549L581.291 92.1161ZM592.379 30.6909C604.262 30.6909 613.264 33.5425 619.505 39.1313L620.549 37.9649C613.926 32.0337 604.497 29.1253 592.379 29.1253V30.6909ZM619.51 39.1356C625.72 44.6046 628.892 52.9476 628.892 64.3241H630.458C630.458 52.6606 627.198 43.8196 620.545 37.9606L619.51 39.1356ZM628.892 64.3241V108.532H630.458V64.3241H628.892ZM629.675 107.749H608.651V109.315H629.675V107.749ZM609.434 108.532V98.8841H607.868V108.532H609.434ZM607.976 98.488C603.944 105.361 596.396 108.901 585.035 108.901V110.467C596.715 110.467 604.911 106.807 609.326 99.2802L607.976 98.488ZM585.035 108.901C579.171 108.901 574.102 107.908 569.808 105.948L569.158 107.372C573.696 109.444 578.996 110.467 585.035 110.467V108.901ZM569.814 105.951C565.61 103.989 562.418 101.296 560.204 97.8821L558.89 98.7341C561.284 102.424 564.716 105.299 569.152 107.37L569.814 105.951ZM560.204 97.8821C557.988 94.4654 556.874 90.5833 556.874 86.2121H555.308C555.308 90.8649 556.499 95.0468 558.89 98.7341L560.204 97.8821ZM556.874 86.2121C556.874 79.2378 559.462 73.8105 564.632 69.841L563.678 68.5992C558.096 72.8857 555.308 78.7864 555.308 86.2121H556.874ZM564.627 69.8451C569.9 65.8673 578.096 63.8109 589.355 63.8109V62.2453C577.959 62.2453 569.355 64.3169 563.684 68.5951L564.627 69.8451ZM589.355 63.8109H607.211V62.2453H589.355V63.8109ZM607.994 63.0281C607.994 57.9647 606.448 53.9812 603.261 51.2058L602.233 52.3864C604.998 54.795 606.428 58.2995 606.428 63.0281H607.994ZM603.272 51.2151C600.096 48.3466 595.409 46.9813 589.355 46.9813V48.5469C595.205 48.5469 599.446 49.8696 602.222 52.3771L603.272 51.2151ZM589.355 46.9813C585.141 46.9813 580.977 47.6676 576.868 49.0374L577.363 50.5228C581.317 49.2046 585.314 48.5469 589.355 48.5469V46.9813ZM576.879 49.0339C572.866 50.306 569.418 52.0749 566.549 54.3507L567.522 55.5775C570.22 53.4373 573.492 51.7502 577.352 50.5263L576.879 49.0339ZM567.732 54.6064L559.667 38.9104L558.275 39.6258L566.339 55.3218L567.732 54.6064ZM559.422 39.9081C563.561 36.9918 568.517 34.7223 574.301 33.1102L573.881 31.602C567.954 33.2539 562.829 35.5924 558.52 38.6281L559.422 39.9081ZM574.298 33.1111C580.182 31.4978 586.208 30.6909 592.379 30.6909V29.1253C586.07 29.1253 579.904 29.9504 573.884 31.6011L574.298 33.1111ZM590.651 95.3469C594.613 95.3469 598.159 94.4542 601.268 92.6491L600.482 91.2951C597.639 92.946 594.37 93.7813 590.651 93.7813V95.3469ZM601.284 92.6396C604.42 90.7176 606.643 87.9316 607.948 84.318L606.475 83.7862C605.284 87.0846 603.282 89.5786 600.466 91.3046L601.284 92.6396ZM607.994 84.0521V76.1321H606.428V84.0521H607.994ZM607.211 75.3493H591.803V76.9149H607.211V75.3493ZM591.803 75.3493C587.134 75.3493 583.497 76.1107 581.006 77.7456C578.457 79.4182 577.196 81.9467 577.196 85.2041H578.762C578.762 82.4135 579.805 80.406 581.865 79.0546C583.981 77.6655 587.256 76.9149 591.803 76.9149V75.3493ZM577.196 85.2041C577.196 88.3172 578.405 90.8516 580.809 92.7326L581.774 91.4996C579.761 89.9246 578.762 87.851 578.762 85.2041H577.196ZM580.839 92.7549C583.318 94.511 586.615 95.3469 590.651 95.3469V93.7813C586.815 93.7813 583.872 92.9852 581.744 91.4773L580.839 92.7549Z" fill="#CACACA"/>
</svg>
