<svg width="590" height="552" viewBox="0 0 590 552" fill="none" xmlns="http://www.w3.org/2000/svg">
<g clip-path="url(#clip0_435_438)">
<rect width="590" height="552" fill="#171B16"/>
<rect width="45.1425" height="45.1425" transform="matrix(4.37114e-08 -1 -1 -4.37114e-08 45.582 177.858)" fill="#39CFFE"/>
<path d="M45.582 87.5727L45.582 102.62L30.5345 102.62L30.5345 117.668L15.487 117.668L15.487 132.715L0.439551 132.715L0.439552 87.5727L45.582 87.5727Z" fill="white"/>
<path d="M113.295 -2.71225L135.867 19.859L113.295 42.4302L90.7242 19.859L113.295 -2.71225Z" fill="#39CFFE"/>
<path d="M45.5815 177.858C33.1158 177.858 23.0103 187.963 23.0103 200.429C23.0103 212.895 33.1158 223 45.5815 223L45.5815 209.31C40.6767 209.31 36.7005 205.334 36.7005 200.429C36.7005 195.524 40.6767 191.548 45.5815 191.548L45.5815 177.858Z" fill="#39CFFE"/>
<path d="M0.439447 223C12.9052 223 23.0107 212.895 23.0107 200.429C23.0107 187.963 12.9052 177.858 0.439453 177.858L0.439451 191.548C5.34434 191.548 9.32053 195.524 9.32053 200.429C9.32053 205.334 5.34434 209.31 0.439449 209.31L0.439447 223Z" fill="#39CFFE"/>
<path d="M135.867 -2.71216C135.867 9.75359 145.972 19.8591 158.438 19.8591C170.904 19.8591 181.009 9.75359 181.009 -2.71216L167.319 -2.71216C167.319 2.19273 163.343 6.16892 158.438 6.16892C153.533 6.16892 149.557 2.19273 149.557 -2.71216L135.867 -2.71216Z" fill="#39CFFE"/>
<path d="M181.009 42.4302C181.009 29.9645 170.904 19.859 158.438 19.859C145.972 19.859 135.867 29.9645 135.867 42.4302L149.557 42.4302C149.557 37.5254 153.533 33.5492 158.438 33.5492C163.343 33.5492 167.319 37.5254 167.319 42.4302L181.009 42.4302Z" fill="#39CFFE"/>
<path d="M76.2708 118.262L68.1529 132.715L60.035 118.262L45.5816 110.144L60.035 102.026L68.1529 87.5727L76.2708 102.026L90.7241 110.144L76.2708 118.262Z" fill="#39CFFE"/>
<path fill-rule="evenodd" clip-rule="evenodd" d="M41.7429 61.1628C43.8629 61.1628 45.5815 62.8814 45.5815 65.0014C45.5815 67.1215 43.8629 68.8401 41.7429 68.8401L37.5349 68.8401L41.1934 70.9191C43.0366 71.9665 43.6817 74.3099 42.6343 76.1531C41.5869 77.9963 39.2435 78.6413 37.4003 77.5939L33.2368 75.2279L35.6029 79.3915C36.6503 81.2347 36.0052 83.5781 34.162 84.6255C32.3188 85.6729 29.9755 85.0278 28.928 83.1846L26.8489 79.526L26.8489 83.7339C26.8489 85.854 25.1303 87.5726 23.0103 87.5726C20.8903 87.5726 19.1717 85.854 19.1717 83.7339L19.1717 79.5257L17.0925 83.1844C16.0451 85.0276 13.7018 85.6727 11.8586 84.6253C10.0154 83.5778 9.37029 81.2345 10.4177 79.3913L12.7835 75.2282L8.62031 77.594C6.7771 78.6415 4.43378 77.9964 3.38635 76.1532C2.33891 74.31 2.98401 71.9667 4.82721 70.9192L8.48591 68.8401L4.27771 68.8401C2.15768 68.8401 0.439061 67.1215 0.439061 65.0014C0.439061 62.8814 2.15768 61.1628 4.27771 61.1628L8.48605 61.1628L4.82721 59.0836C2.98401 58.0362 2.33891 55.6928 3.38635 53.8496C4.43379 52.0064 6.77711 51.3613 8.62031 52.4088L12.7835 54.7746L10.4177 50.6115C9.37029 48.7683 10.0154 46.425 11.8586 45.3776C13.7018 44.3301 16.0451 44.9752 17.0925 46.8184L19.1717 50.4771L19.1717 46.2687C19.1717 44.1487 20.8903 42.4301 23.0103 42.4301C25.1303 42.4301 26.8489 44.1487 26.8489 46.2687L26.8489 50.4768L28.928 46.8182C29.9755 44.975 32.3188 44.3299 34.162 45.3773C36.0052 46.4247 36.6503 48.7681 35.6029 50.6113L33.2368 54.7749L37.4003 52.4089C39.2435 51.3615 41.5869 52.0066 42.6343 53.8498C43.6817 55.693 43.0366 58.0363 41.1934 59.0837L37.5348 61.1628L41.7429 61.1628Z" fill="#39CFFE"/>
<path d="M68.1533 79.2626C65.8217 84.3343 62.2725 87.5727 58.2972 87.5727C51.2748 87.5727 45.582 77.4672 45.582 65.0015C45.582 52.5357 51.2748 42.4302 58.2972 42.4302C62.2724 42.4302 65.8217 45.6686 68.1533 50.7403C70.4849 45.6686 74.0341 42.4302 78.0094 42.4302C85.0317 42.4302 90.7245 52.5357 90.7245 65.0015C90.7245 77.4672 85.0318 87.5727 78.0094 87.5727C74.0341 87.5727 70.4849 84.3343 68.1533 79.2626Z" fill="white"/>
<path d="M70.6546 13.8193C70.3509 4.28619 69.3459 -2.71224 68.1529 -2.71224C66.9599 -2.71224 65.9549 4.28619 65.6512 13.8193C58.6955 7.29314 53.0362 3.05515 52.1926 3.89873C51.349 4.7423 55.587 10.4016 62.1132 17.3573C52.5801 17.661 45.5816 18.666 45.5816 19.859C45.5816 21.052 52.5801 22.057 62.1132 22.3607C55.587 29.3164 51.349 34.9757 52.1926 35.8193C53.0362 36.6628 58.6955 32.4249 65.6512 25.8987C65.9549 35.4318 66.9599 42.4302 68.1529 42.4302C69.3459 42.4302 70.3509 35.4318 70.6546 25.8987C77.6103 32.4249 83.2696 36.6629 84.1132 35.8193C84.9567 34.9757 80.7187 29.3164 74.1926 22.3607C83.7257 22.057 90.7241 21.052 90.7241 19.859C90.7241 18.666 83.7257 17.661 74.1926 17.3573C80.7188 10.4016 84.9567 4.74229 84.1132 3.89872C83.2696 3.05515 77.6103 7.29314 70.6546 13.8193Z" fill="#39CFFE"/>
<path fill-rule="evenodd" clip-rule="evenodd" d="M101.003 52.8855L101.39 42.4303L113.571 54.1731L125.752 42.4302L126.14 52.8849L136.143 54.0706L124.804 65.0015L136.143 75.9323L126.14 77.1181L125.752 87.5728L113.571 75.8298L101.39 87.5727L101.003 77.1174L91.0001 75.9322L102.339 65.0015L91.0001 54.0707L101.003 52.8855Z" fill="#39CFFE"/>
<path fill-rule="evenodd" clip-rule="evenodd" d="M39.563 19.859C39.563 29.0005 32.1523 36.4112 23.0108 36.4112C13.8692 36.4112 6.45854 29.0005 6.45854 19.859C6.45855 10.7174 13.8692 3.30675 23.0108 3.30675C32.1523 3.30675 39.563 10.7174 39.563 19.859ZM23.0108 42.4302C35.4765 42.4302 45.582 32.3247 45.582 19.859C45.582 7.39324 35.4765 -2.71225 23.0108 -2.71225C10.545 -2.71225 0.439545 7.39324 0.439544 19.859C0.439544 32.3247 10.545 42.4302 23.0108 42.4302Z" fill="white"/>
<path fill-rule="evenodd" clip-rule="evenodd" d="M29.0065 19.8589C29.0065 23.1702 26.3222 25.8544 23.011 25.8544C19.6998 25.8544 17.0155 23.1702 17.0155 19.8589C17.0155 16.5477 19.6998 13.8635 23.011 13.8635C26.3222 13.8635 29.0065 16.5477 29.0065 19.8589ZM23.011 31.8499C29.6334 31.8499 35.002 26.4814 35.002 19.8589C35.002 13.2365 29.6334 7.86797 23.011 7.86797C16.3886 7.86797 11.02 13.2365 11.02 19.8589C11.02 26.4814 16.3886 31.8499 23.011 31.8499Z" fill="#39CFFE"/>
<path d="M45.3741 155.308C45.3741 142.842 55.4796 132.736 67.9454 132.736C80.4111 132.736 90.5166 142.842 90.5166 155.308L67.9454 155.308L67.9454 177.879C55.4796 177.879 45.3741 167.773 45.3741 155.308Z" fill="white"/>
<rect x="544.427" y="177.858" width="45.1425" height="45.1425" transform="rotate(-90 544.427 177.858)" fill="#39CFFE"/>
<path d="M544.427 87.5727L544.427 102.62L559.475 102.62L559.475 117.668L574.522 117.668L574.522 132.715L589.57 132.715L589.57 87.5727L544.427 87.5727Z" fill="white"/>
<path d="M476.714 -2.71225L454.143 19.859L476.714 42.4302L499.285 19.859L476.714 -2.71225Z" fill="#39CFFE"/>
<path d="M544.428 177.858C556.893 177.858 566.999 187.963 566.999 200.429C566.999 212.895 556.893 223 544.428 223L544.428 209.31C549.333 209.31 553.309 205.334 553.309 200.429C553.309 195.524 549.333 191.548 544.428 191.548L544.428 177.858Z" fill="#39CFFE"/>
<path d="M589.57 223C577.104 223 566.999 212.895 566.999 200.429C566.999 187.963 577.104 177.858 589.57 177.858L589.57 191.548C584.665 191.548 580.689 195.524 580.689 200.429C580.689 205.334 584.665 209.31 589.57 209.31L589.57 223Z" fill="#39CFFE"/>
<path d="M454.142 -2.71216C454.142 9.75359 444.037 19.8591 431.571 19.8591C419.105 19.8591 409 9.75359 409 -2.71216L422.69 -2.71216C422.69 2.19273 426.666 6.16892 431.571 6.16892C436.476 6.16892 440.452 2.19273 440.452 -2.71216L454.142 -2.71216Z" fill="#39CFFE"/>
<path d="M409 42.4302C409 29.9645 419.106 19.859 431.571 19.859C444.037 19.859 454.143 29.9645 454.143 42.4302L440.452 42.4302C440.452 37.5254 436.476 33.5492 431.571 33.5492C426.666 33.5492 422.69 37.5254 422.69 42.4302L409 42.4302Z" fill="#39CFFE"/>
<path d="M513.738 118.262L521.856 132.715L529.974 118.262L544.428 110.144L529.974 102.026L521.856 87.5727L513.738 102.026L499.285 110.144L513.738 118.262Z" fill="#39CFFE"/>
<path fill-rule="evenodd" clip-rule="evenodd" d="M548.266 61.1628C546.146 61.1628 544.428 62.8814 544.428 65.0014C544.428 67.1215 546.146 68.8401 548.266 68.8401L552.474 68.8401L548.816 70.9191C546.973 71.9665 546.328 74.3099 547.375 76.1531C548.422 77.9963 550.766 78.6413 552.609 77.5939L556.772 75.2279L554.406 79.3915C553.359 81.2347 554.004 83.5781 555.847 84.6255C557.69 85.6729 560.034 85.0278 561.081 83.1846L563.16 79.526L563.16 83.7339C563.16 85.854 564.879 87.5726 566.999 87.5726C569.119 87.5726 570.838 85.854 570.838 83.7339L570.838 79.5257L572.917 83.1844C573.964 85.0276 576.307 85.6727 578.151 84.6253C579.994 83.5778 580.639 81.2345 579.592 79.3913L577.226 75.2282L581.389 77.594C583.232 78.6415 585.575 77.9964 586.623 76.1532C587.67 74.31 587.025 71.9667 585.182 70.9192L581.523 68.8401L585.732 68.8401C587.852 68.8401 589.57 67.1215 589.57 65.0014C589.57 62.8814 587.852 61.1628 585.732 61.1628L581.523 61.1628L585.182 59.0836C587.025 58.0362 587.67 55.6928 586.623 53.8496C585.575 52.0064 583.232 51.3613 581.389 52.4088L577.226 54.7746L579.592 50.6115C580.639 48.7683 579.994 46.425 578.151 45.3776C576.307 44.3301 573.964 44.9752 572.917 46.8184L570.838 50.4771L570.838 46.2687C570.838 44.1487 569.119 42.4301 566.999 42.4301C564.879 42.4301 563.16 44.1487 563.16 46.2687L563.16 50.4768L561.081 46.8182C560.034 44.975 557.69 44.3299 555.847 45.3773C554.004 46.4247 553.359 48.7681 554.406 50.6113L556.772 54.7749L552.609 52.4089C550.766 51.3615 548.422 52.0066 547.375 53.8498C546.328 55.693 546.973 58.0363 548.816 59.0837L552.474 61.1628L548.266 61.1628Z" fill="#39CFFE"/>
<path d="M521.856 79.2626C524.188 84.3343 527.737 87.5727 531.712 87.5727C538.734 87.5727 544.427 77.4672 544.427 65.0015C544.427 52.5357 538.734 42.4302 531.712 42.4302C527.737 42.4302 524.188 45.6686 521.856 50.7403C519.524 45.6686 515.975 42.4302 512 42.4302C504.978 42.4302 499.285 52.5357 499.285 65.0015C499.285 77.4672 504.978 87.5727 512 87.5727C515.975 87.5727 519.524 84.3343 521.856 79.2626Z" fill="white"/>
<path d="M519.355 13.8193C519.658 4.28619 520.663 -2.71224 521.856 -2.71224C523.049 -2.71224 524.054 4.28619 524.358 13.8193C531.314 7.29314 536.973 3.05515 537.817 3.89873C538.66 4.7423 534.422 10.4016 527.896 17.3573C537.429 17.661 544.428 18.666 544.428 19.859C544.428 21.052 537.429 22.057 527.896 22.3607C534.422 29.3164 538.66 34.9757 537.817 35.8193C536.973 36.6628 531.314 32.4249 524.358 25.8987C524.054 35.4318 523.049 42.4302 521.856 42.4302C520.663 42.4302 519.658 35.4318 519.355 25.8987C512.399 32.4249 506.74 36.6629 505.896 35.8193C505.053 34.9757 509.291 29.3164 515.817 22.3607C506.284 22.057 499.285 21.052 499.285 19.859C499.285 18.666 506.284 17.661 515.817 17.3573C509.291 10.4016 505.053 4.74229 505.896 3.89872C506.74 3.05515 512.399 7.29314 519.355 13.8193Z" fill="#39CFFE"/>
<path fill-rule="evenodd" clip-rule="evenodd" d="M489.006 52.8855L488.619 42.4303L476.438 54.1731L464.257 42.4302L463.869 52.8849L453.867 54.0706L465.206 65.0015L453.867 75.9323L463.869 77.1181L464.257 87.5728L476.438 75.8298L488.619 87.5727L489.006 77.1174L499.009 75.9322L487.671 65.0015L499.009 54.0707L489.006 52.8855Z" fill="#39CFFE"/>
<path fill-rule="evenodd" clip-rule="evenodd" d="M550.446 19.859C550.446 29.0005 557.857 36.4112 566.998 36.4112C576.14 36.4112 583.551 29.0005 583.551 19.859C583.551 10.7174 576.14 3.30675 566.998 3.30675C557.857 3.30675 550.446 10.7174 550.446 19.859ZM566.998 42.4302C554.533 42.4302 544.427 32.3247 544.427 19.859C544.427 7.39324 554.533 -2.71225 566.998 -2.71225C579.464 -2.71225 589.57 7.39324 589.57 19.859C589.57 32.3247 579.464 42.4302 566.998 42.4302Z" fill="white"/>
<path fill-rule="evenodd" clip-rule="evenodd" d="M561.003 19.8589C561.003 23.1702 563.687 25.8544 566.998 25.8544C570.31 25.8544 572.994 23.1702 572.994 19.8589C572.994 16.5477 570.31 13.8635 566.998 13.8635C563.687 13.8635 561.003 16.5477 561.003 19.8589ZM566.998 31.8499C560.376 31.8499 555.007 26.4814 555.007 19.8589C555.007 13.2365 560.376 7.86797 566.998 7.86797C573.621 7.86797 578.989 13.2365 578.989 19.8589C578.989 26.4814 573.621 31.8499 566.998 31.8499Z" fill="#39CFFE"/>
<path d="M544.635 155.308C544.635 142.842 534.53 132.736 522.064 132.736C509.598 132.736 499.493 142.842 499.493 155.308L522.064 155.308L522.064 177.879C534.53 177.879 544.635 167.773 544.635 155.308Z" fill="white"/>
<path fill-rule="evenodd" clip-rule="evenodd" d="M328.876 32.416C330.388 32.645 332.864 32.645 334.376 32.416C335.888 32.187 334.651 32 331.626 32C328.601 32 327.364 32.187 328.876 32.416ZM322.439 33.383C323.16 33.672 324.023 33.636 324.355 33.304C324.687 32.972 324.097 32.736 323.043 32.779C321.878 32.827 321.641 33.064 322.439 33.383ZM339.439 33.383C340.16 33.672 341.023 33.636 341.355 33.304C341.687 32.972 341.097 32.736 340.043 32.779C338.878 32.827 338.641 33.064 339.439 33.383ZM313.592 36.404C295.127 45.606 287.587 68.997 297.321 86.881C302.998 97.312 314.783 105.156 326.84 106.529C348.926 109.044 366.391 97.084 370.568 76.583C372.773 65.763 368.77 52.376 360.917 44.303C356.529 39.793 351.203 36.169 347.626 35.258C346.251 34.909 347.475 35.793 350.346 37.223C356.547 40.313 362.557 46.826 366.359 54.576C368.781 59.514 369.118 61.36 369.122 69.7C369.125 77.892 368.761 79.978 366.478 84.848C361.108 96.303 349.281 104.259 335.97 105.373C313.758 107.232 294.598 91.025 294.638 70.412C294.668 54.706 301.982 43.042 316.08 36.216C318.855 34.872 320.652 33.757 320.072 33.737C319.493 33.716 316.576 34.917 313.592 36.404ZM318.126 41.579C310.6 45.189 306.007 49.692 302.845 56.561C295.573 72.361 301.626 89.144 317.397 96.908C323.381 99.854 324.979 100.199 332.605 100.19C342.776 100.179 348.812 97.869 355.318 91.501C361.443 85.505 364.083 78.91 364.045 69.7C364.009 60.865 361.826 55.141 356.057 48.755C352.67 45.006 346.031 40.626 343.916 40.744C343.481 40.769 344.805 41.675 346.857 42.758C351.821 45.379 357.115 50.79 359.792 55.977C363.156 62.496 363.544 74.695 360.605 81.527C357.8 88.048 350.325 94.975 343.73 97.166C332.214 100.99 318.383 98.18 310.382 90.389C304.634 84.791 302.31 79.644 301.809 71.399C300.876 56.079 307.966 45.732 322.94 40.557C325.792 39.572 327.226 38.751 326.126 38.733C325.026 38.716 321.426 39.997 318.126 41.579ZM336.439 39.383C337.16 39.672 338.023 39.636 338.355 39.304C338.687 38.972 338.097 38.736 337.043 38.779C335.878 38.827 335.641 39.064 336.439 39.383ZM331.762 46.41C331.659 48.082 330.636 48.916 327.558 49.839C321.054 51.787 317.881 57.571 320.565 62.586C321.398 64.142 325.753 66.464 330.876 68.084C332.361 68.553 332.626 69.917 332.626 77.087C332.626 81.734 332.887 86.217 333.206 87.049C333.638 88.172 332.93 88.667 330.456 88.971L327.126 89.38L330.306 89.54C332.745 89.663 333.588 90.225 333.92 91.95C334.339 94.122 334.358 94.126 334.49 92.061C334.592 90.459 335.485 89.761 338.054 89.279C339.94 88.926 342.865 87.345 344.554 85.767C350.875 79.862 347.487 70.992 337.935 68.438C334.232 67.447 333.626 66.913 333.626 64.639C333.626 63.184 333.341 59.263 332.992 55.926L332.358 49.859L335.242 49.429L338.126 49L335.446 48.85C333.523 48.742 332.643 48.064 332.332 46.45L331.898 44.2L331.762 46.41ZM331.626 58.7C331.626 63.1 331.318 66.7 330.942 66.7C328.837 66.7 321.629 62.284 321.121 60.683C320.322 58.167 323.19 52.814 325.928 51.712C331.218 49.581 331.626 50.081 331.626 58.7ZM225.079 58.774C223.437 61.375 222.655 63.816 222.917 65.524C223.297 68.007 223.337 67.974 223.476 65.057C223.651 61.398 224.941 60.7 231.532 60.7C237.266 60.7 254.017 63.471 257.989 65.077L260.852 66.235L256.766 71.403L252.681 76.571L281.904 104.536C297.976 119.916 312.905 134.345 315.079 136.6C317.253 138.855 319.397 140.7 319.844 140.7C320.291 140.7 337.058 132.112 357.105 121.616C377.151 111.12 394.453 102.296 395.554 102.009C396.827 101.676 401.841 103.754 409.341 107.724C424.672 115.84 477.844 145.638 479.081 146.807C479.679 147.373 479.12 149.548 477.581 152.638L475.126 157.567L469.126 154.009C436.821 134.849 399.9 114.7 397.097 114.7C396.484 114.7 378.382 123.857 356.87 135.048L317.757 155.396L280.948 120.959L244.138 86.522L241.555 89.617C238.602 93.153 237.626 92.768 237.626 88.069C237.626 85.794 238.247 84.438 239.626 83.7C240.726 83.111 241.626 82.195 241.626 81.665C241.626 81.134 242.542 79.784 243.662 78.664C246.951 75.375 245.198 74.623 235.109 74.999L225.742 75.348L224.706 71.774C223.903 69.003 223.782 68.874 224.168 71.2C224.442 72.85 225.063 77.017 225.55 80.459L226.434 86.718L220.28 92.587C211.558 100.905 197.786 112.765 186.126 121.999C175.094 130.737 172.288 133.265 177.626 129.66C187.367 123.08 209.643 104.662 220.267 94.403L226.409 88.473L230.267 89.718C237.695 92.115 237.609 91.99 235.918 97.93C229.743 119.611 208.504 148.879 193.177 156.825C189.642 158.658 186.916 160.323 187.118 160.525C187.32 160.727 190.329 159.403 193.806 157.582C209.133 149.554 229.976 121.825 236.186 101.2C237.8 95.842 242.706 88.7 244.773 88.7C245.403 88.7 292.45 132.777 311.766 151.464L317.406 156.92L356.364 136.81C377.79 125.75 396.139 116.7 397.139 116.7C399.672 116.7 420.688 127.901 449.604 144.663C463.067 152.467 474.459 158.93 474.92 159.026C476.069 159.265 483.299 145.903 484.025 142.2L484.613 139.2L445.369 117.263C423.786 105.198 404.516 94.432 402.548 93.34L398.97 91.354L371.048 105.749C355.691 113.667 338.351 122.608 332.515 125.619L321.905 131.093L293.515 104.031C277.901 89.147 263.673 75.752 261.897 74.264L258.669 71.558L261.67 65.613L264.671 59.668L262.221 58.736C257.192 56.824 243.144 54.7 235.528 54.7H227.651L225.079 58.774ZM340.867 71.347C347.099 74.518 348.048 80.55 343.046 85.187C340.843 87.229 335.848 89.318 335.127 88.499C334.983 88.334 334.541 83.768 334.145 78.351L333.424 68.501L335.775 69.227C337.068 69.627 339.359 70.581 340.867 71.347ZM234.626 76.187C234.626 76.454 233.051 77.331 231.126 78.136C227.364 79.707 226.838 80.801 228.985 82.583C230.004 83.429 231.412 83.334 234.611 82.205C240.462 80.141 241.341 80.31 238.8 83.014C237.604 84.287 236.626 86.51 236.626 87.954V90.579L232.227 89.08C227.688 87.533 226.667 85.966 226.64 80.5C226.632 78.972 227.386 77.357 228.376 76.78C230.169 75.736 234.626 75.313 234.626 76.187ZM243.398 76.884C242.988 78.115 234.433 81.487 231.376 81.622C230.413 81.665 229.626 81.236 229.626 80.669C229.626 80.101 230.413 79.393 231.376 79.095C232.339 78.796 234.251 77.922 235.626 77.153C238.732 75.414 243.948 75.234 243.398 76.884ZM159.126 79.7C158.026 80.173 155.101 80.593 152.626 80.633C148.289 80.705 141.626 83.675 141.626 85.537C141.626 86.013 140.264 87.828 138.6 89.57C135.677 92.629 135.595 92.965 136.194 99.468C136.721 105.191 137.252 106.612 139.736 108.95C141.343 110.463 143.499 111.7 144.528 111.7C145.873 111.7 146.535 112.614 146.884 114.95C147.485 118.981 146.174 122.7 144.151 122.7C143.312 122.7 142.626 123.144 142.626 123.687C142.626 124.229 141.158 125.287 139.364 126.036C132.343 128.97 120.893 144.449 114.832 159.2C110.645 169.39 106.496 188.336 106.73 196.2C106.78 197.85 107.434 195.15 108.184 190.2C111.98 165.155 120.872 144.612 133.294 132.19C137.204 128.28 138.078 127.819 139.486 128.919C140.948 130.061 140.977 130.01 139.754 128.45C138.558 126.926 138.609 126.7 140.143 126.7C141.113 126.7 142.463 125.937 143.145 125.005C144.287 123.442 145.193 123.619 154.755 127.267C164.307 130.911 165.152 131.449 165.454 134.079L165.781 136.934L160.033 133.821C156.872 132.109 154.113 130.879 153.904 131.089C153.694 131.299 156.583 133.178 160.324 135.266C170.611 141.008 177.648 148.602 180.931 157.507C182.413 161.526 183.626 165.055 183.626 165.349C183.626 165.643 181.635 163.439 179.201 160.452C176.311 156.904 174.664 153.837 174.451 151.61C174.161 148.569 173.834 148.23 171.429 148.48C169.467 148.683 166.333 147.072 159.929 142.566C155.087 139.16 148.876 134.794 146.126 132.863C136.565 126.151 143.293 131.746 156.14 141.191C164.96 147.676 169.632 150.515 170.846 150.13C172.249 149.685 172.626 150.131 172.626 152.236C172.626 153.979 174.375 157.001 177.662 160.934C180.432 164.249 182.569 167.068 182.412 167.198C182.255 167.328 180.013 167.661 177.43 167.938C172.792 168.436 172.729 168.403 172.34 165.321C172.123 163.604 171.874 168.835 171.786 176.945L171.626 191.69L176.662 197.939C181.261 203.647 191.638 222.637 191.63 225.33C191.628 225.951 189.619 228.104 187.166 230.114L182.705 233.769L176.845 230.811C169.215 226.959 154.397 217.02 148.378 211.717C142.673 206.691 135.301 192.618 133.177 182.7C132.395 179.049 131.75 177.438 131.705 179.024C131.601 182.743 136.088 196.052 139.311 201.582C140.716 203.992 142.482 208.607 143.235 211.838C146.63 226.392 157.759 234.111 177.126 235.346C185.368 235.871 191.349 237.442 189.932 238.708C186.694 241.6 160.47 244.167 142.438 243.358C122.258 242.452 109.299 239.402 106.706 234.95C106.145 233.988 105.673 233.707 105.656 234.328C105.64 234.948 106.236 235.962 106.983 236.581C107.799 237.259 108.612 240.981 109.025 245.933C109.769 254.85 114.18 269.524 118.169 276.352C121.802 282.57 124.811 294.299 133.646 336.7C138.059 357.875 142.39 377.776 143.272 380.925C144.753 386.211 149.626 394.625 149.626 391.894C149.626 391.062 152.216 390.7 158.177 390.7H166.728L168.153 387.289C172.96 375.785 183.146 304.271 186.704 257.042L187.922 240.884L194.504 238.723C202.075 236.238 203.626 235.192 203.626 232.569C203.626 231.532 206.551 227.815 210.126 224.31C213.701 220.805 216.626 217.366 216.626 216.668C216.626 215.971 215.287 217.248 213.651 219.506C210.985 223.187 201.389 230.7 199.354 230.7C198.915 230.7 199.078 229.723 199.717 228.529C200.654 226.779 200.582 226.141 199.344 225.236C198.032 224.276 198.291 223.783 201.129 221.839C202.954 220.588 205.714 217.737 207.262 215.504C209.598 212.133 210.098 210.322 210.213 204.822C210.288 201.18 210.186 200 209.984 202.2C209.015 212.803 207.227 216.079 199.262 221.849C194.418 225.358 193.267 225.402 191.78 222.139C190.719 219.81 190.941 219.269 194.234 216.163C197.264 213.305 197.748 212.295 197.198 209.974C196.342 206.361 193.304 203.874 188.021 202.461C183.09 201.142 182.711 200.297 182.524 190.2C182.452 186.35 182.207 183.888 181.979 184.73C181.747 185.587 179.578 186.72 177.05 187.307L172.537 188.354L172.831 182.777L173.126 177.2L179.974 176.902C191.859 176.385 199.914 180.355 205.794 189.626C207.352 192.082 208.626 193.603 208.626 193.005C208.626 192.407 207.127 189.732 205.295 187.059C202.798 183.417 200.314 181.353 195.378 178.818C189.497 175.798 187.929 175.437 180.709 175.437H172.626V172.455V169.473L182.876 169.927C198.209 170.606 207.056 175.548 213.712 187.153C217.033 192.943 217.626 192.58 214.585 186.619C210.308 178.237 199.797 170.551 190.599 169.08C187.146 168.528 186.177 167.863 185.104 165.31C184.236 163.246 184.143 161.998 184.826 161.576C185.391 161.227 185.456 160.775 184.971 160.571C184.486 160.367 182.621 157.192 180.827 153.515C178.693 149.142 175.776 145.222 172.391 142.179C169.546 139.621 167.111 136.779 166.98 135.864C166.849 134.949 166.479 132.782 166.157 131.048C165.506 127.539 167.487 124.7 170.587 124.7C175.543 124.7 180.022 115.07 177.325 110.214C176.71 109.106 176.331 107.593 176.483 106.85C176.635 106.108 175.605 103.755 174.193 101.622C171.096 96.942 170.973 94.426 173.655 90.659C175.553 87.993 175.76 84.344 174.159 81.754C172.684 79.367 162.985 78.042 159.126 79.7ZM321.94 86.95C322.989 87.913 324.585 88.671 325.487 88.637C326.523 88.597 326.226 88.214 324.68 87.596C323.334 87.059 321.738 86.3 321.133 85.91C320.527 85.519 320.89 85.987 321.94 86.95ZM162.876 93.375C169.811 93.896 170.626 94.171 170.626 95.991C170.626 97.109 171.753 99.948 173.132 102.3C174.599 104.803 175.231 106.826 174.656 107.181C174.117 107.514 169.807 108.126 165.078 108.541C155.532 109.378 155.961 109.615 153.634 102.2C152.944 100 151.488 97.221 150.398 96.024C147.897 93.277 148.97 91.295 152.493 92.153C153.941 92.505 158.613 93.055 162.876 93.375ZM162.126 95.7C161.388 96.894 163.348 96.894 166.126 95.7C167.912 94.933 167.838 94.833 165.435 94.77C163.955 94.732 162.466 95.15 162.126 95.7ZM166.626 99.141C166.626 99.998 167.076 100.7 167.626 100.7C168.176 100.7 168.626 100.277 168.626 99.759C168.626 99.241 168.176 98.54 167.626 98.2C167.076 97.86 166.626 98.284 166.626 99.141ZM149.446 104.46C149.797 106.922 148.688 107.362 146.826 105.5C145.035 103.709 145.37 101.505 147.376 101.887C148.338 102.07 149.27 103.228 149.446 104.46ZM153.933 123.746C155.689 124.816 158.814 125.694 160.876 125.696C163.942 125.699 164.626 126.06 164.626 127.675C164.626 129.559 164.254 129.513 156.558 126.675C152.12 125.039 148.295 123.7 148.058 123.7C147.253 123.7 147.632 120.217 148.874 116.2L150.112 112.2L150.426 116.999C150.698 121.169 151.159 122.054 153.933 123.746ZM148.626 129.2C150.001 129.986 151.576 130.629 152.126 130.629C152.676 130.629 152.001 129.986 150.626 129.2C149.251 128.414 147.676 127.771 147.126 127.771C146.576 127.771 147.251 128.414 148.626 129.2ZM130.946 168.7C130.946 172.275 131.128 173.737 131.349 171.95C131.571 170.163 131.571 167.237 131.349 165.45C131.128 163.663 130.946 165.125 130.946 168.7ZM381.653 166.722C369.759 167.706 369.31 168.007 367.68 176.082C364.737 190.651 362.589 228.88 362.812 262.7L362.953 284.2L363.689 253.7C364.965 200.814 368.059 170.984 372.458 169.159C373.375 168.779 382.922 168.235 393.673 167.952C416.334 167.354 415.986 167.228 417.304 176.449C419.113 189.105 417.369 267.837 414.979 281.429L414.411 284.658L394.769 284.952L375.126 285.245L395.331 285.472L415.535 285.7L416.097 282.45C418.767 267.001 420.686 189.346 418.71 176.7C418.066 172.575 416.922 168.58 416.168 167.822C414.432 166.076 396.415 165.502 381.653 166.722ZM258.126 172.263C252.626 173.009 244.894 174.336 240.944 175.213C234.467 176.65 233.71 177.071 233.237 179.503C231.79 186.946 231.579 199.013 232.595 216.2C234.101 241.659 238.556 283.399 239.846 284.132C240 284.22 247.101 284.014 255.626 283.675L271.126 283.058L255.895 282.879C240.984 282.704 240.654 282.653 240.159 280.45C237.8 269.95 233.59 215.62 233.745 197.7C233.903 179.54 234.158 178.568 239.137 177.127C245.025 175.422 264.636 172.7 271.03 172.7H276.57L278.073 177.95C280.994 188.154 283.92 217.981 285.552 254.2C286.25 269.666 286.332 270.208 286.463 260.2C286.868 229.2 281.595 176.983 277.569 172.132C276.132 170.4 271.631 170.431 258.126 172.263ZM381.876 181.428C385.378 181.795 385.626 182.04 385.626 185.144C385.626 187.744 385.137 188.598 383.376 189.07C378.381 190.408 377.632 189.945 377.526 185.45L377.425 181.2L376.504 185.129C375.352 190.041 376.19 190.913 381.674 190.514C385.521 190.234 386.08 189.872 386.794 187.2C388.135 182.176 387.073 180.677 382.309 180.868L378.126 181.036L381.876 181.428ZM399.109 181.95C398.86 182.638 398.536 184.775 398.391 186.7L398.126 190.2H403.085C407.925 190.2 408.061 190.118 408.742 186.789C409.125 184.912 409.208 182.775 408.926 182.039C408.256 180.292 399.739 180.216 399.109 181.95ZM407.626 185.2C407.626 187.861 407.207 188.703 405.876 188.714C404.914 188.721 403.114 188.999 401.876 189.33C399.809 189.884 399.626 189.598 399.626 185.817V181.7H403.626C407.531 181.7 407.626 181.783 407.626 185.2ZM267.126 184.532C269.573 185.084 270.182 185.783 270.43 188.324C270.677 190.86 270.306 191.553 268.43 192.056C264.383 193.14 262.877 192.756 262.137 190.45C261.486 188.425 261.365 188.387 260.924 190.068C260.127 193.107 262.597 194.611 267.126 193.844C271.097 193.171 271.126 193.134 271.126 188.683C271.126 184.259 271.08 184.198 267.626 184.027C264.225 183.859 264.211 183.873 267.126 184.532ZM245.626 186.549C247.667 187.154 248.126 187.924 248.126 190.745C248.126 194.003 247.917 194.217 244.448 194.506C241.092 194.785 240.733 194.566 240.348 192.006C239.948 189.35 239.918 189.375 239.776 192.481C239.603 196.275 240.736 196.932 245.626 195.875C248.99 195.148 249.126 194.944 249.126 190.659C249.126 186.415 248.981 186.191 246.126 186.004C243.332 185.821 243.298 185.859 245.626 186.549ZM187.376 187.362C188.064 187.64 189.189 187.64 189.876 187.362C190.564 187.085 190.001 186.858 188.626 186.858C187.251 186.858 186.689 187.085 187.376 187.362ZM239.626 187.669C239.626 188.201 240.301 188.378 241.126 188.062C241.951 187.745 242.626 187.309 242.626 187.093C242.626 186.877 241.951 186.7 241.126 186.7C240.301 186.7 239.626 187.136 239.626 187.669ZM181.626 194.2C181.626 197.775 181.417 200.7 181.162 200.7C180.238 200.7 172.675 192.172 172.651 191.103C172.62 189.729 176.395 187.857 179.376 187.768C181.486 187.704 181.626 188.106 181.626 194.2ZM439.379 188.428C436.992 188.678 435.26 189.516 434.606 190.737C431.495 196.55 428.554 234.505 428.797 265.7L428.949 285.2L429.682 259.2C430.084 244.9 430.949 227.125 431.603 219.7C432.736 206.832 435.043 191.95 436.062 190.931C436.324 190.669 440.721 190.022 445.832 189.493C456.509 188.389 471.191 188.865 472.689 190.363C474.656 192.33 475.807 215.822 475.108 239.7C474.328 266.318 473.266 283.393 472.332 284.327C471.983 284.676 465.944 285.302 458.912 285.719L446.126 286.477L459.296 286.338C466.539 286.262 472.831 285.833 473.278 285.384C474.756 283.901 475.51 271.607 476.205 237.7C476.901 203.72 476.116 190.266 473.333 188.498C472.131 187.734 446.516 187.682 439.379 188.428ZM217.784 197.7C217.784 199.075 218.011 199.638 218.288 198.95C218.566 198.263 218.566 197.138 218.288 196.45C218.011 195.763 217.784 196.325 217.784 197.7ZM460.872 199.854C460.186 200.54 459.626 202.81 459.626 204.9V208.7H464.607C469.03 208.7 469.655 208.431 470.19 206.302C470.521 204.983 470.642 202.845 470.459 201.552C470.181 199.591 469.46 199.151 466.122 198.904C463.873 198.739 461.571 199.155 460.872 199.854ZM105.912 204.2C105.92 206.95 106.114 207.956 106.344 206.436C106.573 204.916 106.567 202.666 106.33 201.436C106.093 200.206 105.905 201.45 105.912 204.2ZM441.316 200.399C440.816 201.212 440.327 206.169 440.52 208.45C440.639 209.85 447.341 210.168 449.384 208.87C450.076 208.431 450.751 206.3 450.884 204.136L451.126 200.2L446.467 199.899C443.904 199.733 441.586 199.958 441.316 200.399ZM468.626 203.093C468.626 206.677 467.387 207.7 463.044 207.7C460.97 207.7 460.626 207.225 460.626 204.367C460.626 200.213 461.139 199.7 465.293 199.7C468.416 199.7 468.626 199.914 468.626 203.093ZM449.626 204.2C449.626 207.617 449.531 207.7 445.626 207.7C441.721 207.7 441.626 207.617 441.626 204.2C441.626 200.783 441.721 200.7 445.626 200.7C449.531 200.7 449.626 200.783 449.626 204.2ZM218.821 204.2C218.841 205.85 219.065 206.404 219.319 205.431C219.573 204.458 219.556 203.108 219.282 202.431C219.008 201.754 218.801 202.55 218.821 204.2ZM376.556 204.384C374.307 210.301 377.323 212.997 384.247 211.259C386.31 210.741 386.626 210.066 386.626 206.181V201.7H382.101C378.112 201.7 377.456 202.018 376.556 204.384ZM403.433 202.39C407.114 202.885 408.15 204.478 407.215 208.202C406.7 210.253 405.98 210.7 403.19 210.7C400.394 210.7 399.615 210.213 398.788 207.95L397.784 205.2L397.705 208.502L397.626 211.805L402.876 211.502L408.126 211.2V206.7V202.2L404.126 202.073C400.775 201.966 400.663 202.018 403.433 202.39ZM192.126 205.618C196.982 208.337 196.655 214.009 191.484 216.776C189.938 217.604 189.24 216.877 186.651 211.75C182.782 204.085 182.729 202.454 186.376 203.3C187.889 203.651 190.476 204.694 192.126 205.618ZM385.439 205.95C385.156 208.894 384.785 209.229 381.503 209.503C377.565 209.832 376.351 208.469 377.311 204.796C377.751 203.115 378.64 202.7 381.806 202.7C385.656 202.7 385.745 202.779 385.439 205.95ZM265.126 205.723C263.651 206.409 264.087 206.503 266.79 206.081C269.746 205.62 270.654 205.883 271.489 207.443C272.058 208.507 272.263 210.373 271.944 211.591C271.46 213.441 270.771 213.755 267.75 213.503C264.639 213.242 264.046 212.782 263.499 210.2C262.887 207.313 262.858 207.342 262.744 210.981C262.604 215.457 263.971 216.29 269.364 215.015C273.018 214.15 273.126 213.997 273.126 209.662C273.126 205.416 272.981 205.19 270.126 204.997C268.476 204.885 266.226 205.212 265.126 205.723ZM320.126 205.368C307.622 206.407 307.787 206.328 306.168 212.01C303.618 220.956 302.554 232.399 301.941 257.45L301.348 281.7L310.237 281.496L319.126 281.293L310.733 280.954L302.339 280.614L302.934 258.407C303.486 237.769 305.197 220.721 307.619 211.727C308.564 208.218 308.935 207.93 313.268 207.336C315.818 206.986 323.902 206.7 331.23 206.7C343.643 206.7 344.631 206.841 345.653 208.751C347.904 212.956 348.805 235.222 347.651 258.099C347.037 270.249 346.212 280.514 345.816 280.91C345.42 281.306 339.928 281.775 333.611 281.951L322.126 282.272L334.786 282.486L347.446 282.7L348.286 273.95C348.748 269.138 349.126 253.725 349.126 239.7C349.126 210.193 348.492 206.323 343.496 205.324C340.403 204.705 327.821 204.729 320.126 205.368ZM246.626 207.544C249.347 208.054 250.203 208.744 250.471 210.644C251.189 215.731 243.574 217.743 241.741 212.95L240.69 210.2L240.908 213.2C241.089 215.697 241.607 216.255 243.997 216.528C245.576 216.709 247.963 216.581 249.303 216.245C251.469 215.701 251.704 215.169 251.432 211.417C251.129 207.245 251.083 207.198 247.126 207.044L243.126 206.888L246.626 207.544ZM169.946 228.7C175.325 231.725 179.056 234.34 178.236 234.512C174.984 235.192 164.785 232.555 158.714 229.464C151.377 225.729 147.126 221.013 145.136 214.4L143.751 209.797L151.958 216.499C156.472 220.184 164.566 225.675 169.946 228.7ZM217.705 211.283C217.753 212.448 217.99 212.685 218.309 211.888C218.598 211.166 218.562 210.303 218.23 209.971C217.898 209.639 217.662 210.229 217.705 211.283ZM105 221.2C105.002 227.25 105.167 229.596 105.366 226.413C105.565 223.231 105.563 218.281 105.362 215.413C105.161 212.546 104.998 215.15 105 221.2ZM335.876 216.394C339.371 216.792 339.626 217.046 339.626 220.144C339.626 222.744 339.137 223.598 337.376 224.07C332.666 225.332 331.764 224.865 331.354 220.95L330.962 217.2L330.794 221.45L330.626 225.7H335.607C340.03 225.7 340.655 225.431 341.19 223.302C341.521 221.983 341.642 219.845 341.459 218.552C341.169 216.502 340.549 216.185 336.626 216.083C332.769 215.984 332.662 216.028 335.876 216.394ZM312.339 217.321C311.947 217.713 311.626 219.983 311.626 222.367V226.7L315.376 226.685C320.498 226.664 321.603 225.721 321.884 221.136L322.126 217.2L317.589 216.904C315.093 216.741 312.731 216.929 312.339 217.321ZM320.626 221.2C320.626 224.617 320.531 224.7 316.626 224.7C312.721 224.7 312.626 224.617 312.626 221.2C312.626 217.783 312.721 217.7 316.626 217.7C320.531 217.7 320.626 217.783 320.626 221.2ZM465.932 220.881C468.308 221.747 468.691 222.385 468.432 225.052C468.153 227.921 467.784 228.228 464.265 228.517L460.403 228.834L460.783 224.851C460.992 222.661 460.817 221.082 460.394 221.343C459.972 221.604 459.626 223.591 459.626 225.759V229.7H464.509C468.728 229.7 469.475 229.394 469.996 227.45C471.546 221.665 470.279 219.597 465.294 219.779C463.434 219.847 463.524 220.003 465.932 220.881ZM444.626 221.582C447.566 222.101 448.179 222.663 448.456 225.091C448.831 228.373 447.404 229.662 443.376 229.685C440.823 229.699 440.618 229.396 440.511 225.45L440.396 221.2L439.605 225.2C439.17 227.4 439.161 229.566 439.584 230.014C440.008 230.462 442.298 230.687 444.674 230.514C448.521 230.234 449.08 229.872 449.794 227.2C451.131 222.189 450.07 220.682 445.309 220.832L441.126 220.963L444.626 221.582ZM378.126 224.678C376.497 225.396 376.808 225.572 379.809 225.63C382.481 225.681 383.653 226.21 384.081 227.559C385.049 230.607 383.656 232.567 380.291 232.893C377.584 233.156 376.95 232.766 375.909 230.2L374.692 227.2L374.909 230.7C375.091 233.642 375.534 234.248 377.685 234.498C379.092 234.662 381.48 234.326 382.992 233.751C385.477 232.806 385.712 232.297 385.434 228.453C385.164 224.73 384.814 224.175 382.626 223.998C381.251 223.887 379.226 224.193 378.126 224.678ZM195.626 226.7C195.037 227.8 194.121 228.7 193.591 228.7C192.006 228.7 192.497 226.874 194.376 225.78C196.78 224.38 196.843 224.426 195.626 226.7ZM402.626 225.544C406.639 226.296 407.809 229.374 405.108 232.075C402.501 234.682 398.952 234.136 397.788 230.95L396.784 228.2L396.705 231.502L396.626 234.805L401.876 234.502L407.126 234.2V229.7V225.2L403.126 225.044L399.126 224.888L402.626 225.544ZM198.126 228.7C197.528 231.421 197.704 231.7 200.015 231.7C201.757 231.7 202.398 232.132 202.04 233.065C200.738 236.457 191.334 237.854 186.785 235.33L184.443 234.032L187.648 231.335C189.553 229.732 191.551 228.859 192.572 229.183C193.575 229.501 195.049 228.89 196.113 227.714C198.566 225.003 198.902 225.168 198.126 228.7ZM266.126 228.681C264.685 229.286 265.383 229.476 268.626 229.36C272.973 229.205 273.136 229.306 273.43 232.319C273.677 234.861 273.306 235.553 271.43 236.056C267.45 237.122 266.043 236.769 265.017 234.45C264.469 233.212 264.157 232.799 264.323 233.532C264.49 234.264 264.626 235.727 264.626 236.782C264.626 238.971 265.615 239.108 270.876 237.647C274.492 236.643 274.626 236.447 274.626 232.153C274.626 227.781 274.567 227.701 271.376 227.77C269.589 227.809 267.226 228.219 266.126 228.681ZM245.876 229.819C244.089 230.335 242.626 230.896 242.626 231.065C242.626 231.234 244.538 231.334 246.876 231.286C250.923 231.204 251.14 231.349 251.429 234.314C251.701 237.104 251.401 237.495 248.554 238.064C243.975 238.98 243.809 238.929 243.332 236.45C242.96 234.521 242.879 234.592 242.762 236.95C242.645 239.319 243.007 239.698 245.376 239.686C251.485 239.656 252.626 238.791 252.626 234.19C252.626 231.213 252.145 229.73 251.044 229.307C250.174 228.973 249.387 228.741 249.294 228.79C249.202 228.84 247.663 229.303 245.876 229.819ZM336.427 237.648C340.665 238.701 340.705 238.755 339.777 242.25C339.116 244.739 338.429 245.248 335.377 245.506C331.957 245.796 331.739 245.633 331.354 242.506C330.949 239.226 330.945 239.229 330.786 243.002L330.626 246.805L335.876 246.502L341.126 246.2V241.7V237.2L337.126 237.014C333.126 236.828 333.126 236.828 336.427 237.648ZM315.876 238.428C319.378 238.795 319.626 239.04 319.626 242.144C319.626 244.744 319.137 245.598 317.376 246.07C312.384 247.407 311.633 246.944 311.511 242.45L311.396 238.2L310.605 242.2C310.17 244.4 310.161 246.566 310.584 247.014C311.008 247.462 313.298 247.687 315.674 247.514C319.521 247.234 320.08 246.872 320.794 244.2C322.135 239.176 321.073 237.677 316.309 237.868L312.126 238.036L315.876 238.428ZM458.284 241.45C457.808 242.227 457.334 247.217 457.52 249.505C457.595 250.425 459.009 250.72 462.317 250.505C466.715 250.219 467.063 249.989 467.878 246.828C469.172 241.803 468.333 240.7 463.216 240.7C460.757 240.7 458.537 241.038 458.284 241.45ZM443.876 242.428C447.378 242.795 447.626 243.04 447.626 246.144C447.626 248.744 447.137 249.598 445.376 250.07C440.528 251.369 439.76 250.907 439.358 246.45L438.975 242.2L438.801 246.95L438.626 251.7H443.151C447.151 251.7 447.795 251.386 448.706 248.989C449.273 247.498 449.478 245.248 449.162 243.989C448.668 242.018 448.001 241.723 444.357 241.868L440.126 242.036L443.876 242.428ZM466.626 245.2C466.626 247.125 466.232 248.7 465.751 248.7C465.27 248.7 463.47 248.981 461.751 249.325C458.655 249.944 458.626 249.912 458.626 245.825V241.7H462.626C466.531 241.7 466.626 241.783 466.626 245.2ZM402.432 247.39C405.565 247.812 405.723 248.029 405.432 251.518C405.142 255.008 404.924 255.217 401.265 255.517L397.403 255.834L397.783 251.851C397.992 249.661 397.817 248.082 397.394 248.343C396.972 248.604 396.626 250.591 396.626 252.759V256.7H401.607C406.03 256.7 406.655 256.431 407.19 254.302C407.521 252.983 407.642 250.845 407.459 249.552C407.176 247.557 406.52 247.181 403.126 247.073C399.778 246.966 399.665 247.018 402.432 247.39ZM380.876 248.394C384.371 248.792 384.626 249.046 384.626 252.144C384.626 254.744 384.137 255.598 382.376 256.07C377.528 257.369 376.76 256.907 376.358 252.45L375.975 248.2L375.801 252.95L375.626 257.7H380.004C385.211 257.7 386.884 256.094 386.444 251.515C386.138 248.32 385.963 248.196 381.626 248.083C377.769 247.984 377.662 248.028 380.876 248.394ZM271.126 250.54C273.757 251.136 274.126 251.649 274.126 254.71C274.126 258.039 273.948 258.215 270.265 258.517L266.403 258.834L266.783 254.851C266.992 252.661 266.817 251.082 266.394 251.343C265.972 251.604 265.626 253.615 265.626 255.811V259.805L270.876 259.502L276.126 259.2V254.7V250.2L272.126 250.03C268.615 249.882 268.493 249.944 271.126 250.54ZM250.774 253.366C253.232 253.781 254.573 255.89 254.612 259.405C254.633 261.254 247.606 262.278 246.532 260.582C245.332 258.687 245.403 254.977 246.651 254.358C247.215 254.079 247.102 253.963 246.401 254.102C244.739 254.431 244.211 259.057 245.551 261.56C246.14 262.661 247.372 263.366 248.363 263.17C256.147 261.627 255.76 261.942 255.432 257.417C255.137 253.354 254.998 253.195 251.626 253.059C249.225 252.963 248.957 253.059 250.774 253.366ZM335.126 259.54C337.757 260.136 338.126 260.649 338.126 263.71C338.126 267.039 337.948 267.215 334.265 267.517L330.403 267.834L330.783 263.851C330.992 261.661 330.817 260.082 330.394 260.343C329.972 260.604 329.626 262.591 329.626 264.759V268.7H334.607C339.03 268.7 339.655 268.431 340.19 266.302C340.521 264.983 340.642 262.845 340.459 261.552C340.178 259.565 339.505 259.174 336.126 259.03C332.615 258.882 332.493 258.944 335.126 259.54ZM316.626 260.547C318.624 261.132 319.188 262.025 319.436 264.989L319.747 268.7H315.581H311.416L311.789 264.784C311.995 262.63 311.817 261.082 311.394 261.343C310.972 261.604 310.626 263.591 310.626 265.759V269.7H315.607C320.03 269.7 320.655 269.431 321.19 267.302C321.521 265.983 321.642 263.845 321.459 262.552C321.188 260.64 320.471 260.164 317.626 260.008C314.686 259.847 314.526 259.933 316.626 260.547ZM441.659 261.587C439.88 262.083 438.984 263.239 438.444 265.737C437.27 271.16 437.995 272.031 443.193 271.445C448.484 270.849 448.169 271.093 448.95 266.989C449.915 261.913 447.338 260.004 441.659 261.587ZM463.478 261.803C466.271 262.642 466.732 263.176 466.242 265.005C465.918 266.212 465.647 267.763 465.64 268.45C465.631 269.236 464.165 269.7 461.689 269.7C457.997 269.7 457.728 269.498 457.349 266.45C456.958 263.294 456.941 263.31 456.786 267.002L456.626 270.805L461.876 270.502L467.126 270.2V265.7C467.126 261.262 467.078 261.197 463.626 260.998L460.126 260.796L463.478 261.803ZM447.439 265.95C447.153 268.917 446.8 269.227 443.376 269.51C439.687 269.816 439.626 269.763 439.626 266.26C439.626 262.764 439.699 262.7 443.689 262.7C447.671 262.7 447.746 262.765 447.439 265.95ZM381.626 269.547C383.624 270.132 384.188 271.025 384.436 273.989L384.747 277.7H380.686C376.731 277.7 376.626 277.611 376.626 274.283C376.626 272.404 377.087 270.638 377.651 270.358C378.215 270.079 378.102 269.964 377.401 270.103C375.591 270.461 375.112 278.566 376.861 279.237C377.604 279.522 379.992 279.385 382.169 278.933C386.063 278.124 386.126 278.04 386.126 273.655C386.126 269.267 386.074 269.197 382.626 269.008C379.686 268.847 379.526 268.933 381.626 269.547ZM398.626 270.59C396.549 271.163 396.075 271.978 395.823 275.406C395.569 278.849 395.863 279.64 397.595 280.19C401.004 281.272 405.359 279.825 406.011 277.393C407.173 273.058 406.685 270.949 404.376 270.33C401.854 269.654 402.045 269.646 398.626 270.59ZM404.626 275.2C404.626 278.617 404.531 278.7 400.626 278.7C396.721 278.7 396.626 278.617 396.626 275.2C396.626 271.783 396.721 271.7 400.626 271.7C404.531 271.7 404.626 271.783 404.626 275.2ZM279.89 282.418C281.41 282.647 283.66 282.641 284.89 282.404C286.12 282.167 284.876 281.979 282.126 281.986C279.376 281.994 278.37 282.188 279.89 282.418ZM435.394 285.425C437.191 285.647 439.891 285.643 441.394 285.415C442.897 285.186 441.426 285.004 438.126 285.01C434.826 285.015 433.597 285.202 435.394 285.425ZM162.477 392.647C162.204 393.465 159.817 393.86 155.346 393.826L148.626 393.774V397.202C148.626 399.73 149.216 400.948 150.876 401.844C153.863 403.455 176.073 403.633 177.66 402.057C180.492 399.246 174.231 394.7 167.526 394.7C165.969 394.7 164.317 393.971 163.806 393.058C163.172 391.924 162.76 391.797 162.477 392.647Z" fill="white"/>
</g>
<defs>
<clipPath id="clip0_435_438">
<rect width="590" height="552" fill="white"/>
</clipPath>
</defs>
</svg>
