<svg width="590" height="552" viewBox="0 0 590 552" fill="none" xmlns="http://www.w3.org/2000/svg">
<g clip-path="url(#clip0_435_1683)">
<rect width="590" height="552" fill="#171B16"/>
<rect width="45.1425" height="45.1425" transform="matrix(4.37114e-08 -1 -1 -4.37114e-08 45.582 177.858)" fill="#0B31F6"/>
<path d="M45.582 87.5727L45.582 102.62L30.5345 102.62L30.5345 117.668L15.487 117.668L15.487 132.715L0.439551 132.715L0.439552 87.5727L45.582 87.5727Z" fill="white"/>
<path d="M113.296 -2.71225L135.867 19.859L113.296 42.4302L90.7247 19.859L113.296 -2.71225Z" fill="#0B31F6"/>
<path d="M45.582 177.858C33.1163 177.858 23.0108 187.963 23.0108 200.429C23.0108 212.895 33.1163 223 45.582 223L45.582 209.31C40.6771 209.31 36.7009 205.334 36.7009 200.429C36.701 195.524 40.6771 191.548 45.582 191.548L45.582 177.858Z" fill="#0B31F6"/>
<path d="M0.439447 223C12.9052 223 23.0107 212.895 23.0107 200.429C23.0107 187.963 12.9052 177.858 0.439453 177.858L0.439451 191.548C5.34434 191.548 9.32053 195.524 9.32053 200.429C9.32053 205.334 5.34434 209.31 0.439449 209.31L0.439447 223Z" fill="#0B31F6"/>
<path d="M135.867 -2.71216C135.867 9.75359 145.973 19.8591 158.439 19.8591C170.904 19.8591 181.01 9.75359 181.01 -2.71216L167.32 -2.71216C167.32 2.19273 163.343 6.16892 158.439 6.16892C153.534 6.16892 149.557 2.19273 149.557 -2.71216L135.867 -2.71216Z" fill="#0B31F6"/>
<path d="M181.01 42.4302C181.01 29.9645 170.904 19.859 158.438 19.859C145.973 19.859 135.867 29.9645 135.867 42.4302L149.557 42.4302C149.557 37.5254 153.534 33.5492 158.438 33.5492C163.343 33.5492 167.32 37.5254 167.32 42.4302L181.01 42.4302Z" fill="#0B31F6"/>
<path d="M76.2713 118.262L68.1534 132.715L60.0354 118.262L45.5821 110.144L60.0354 102.026L68.1534 87.5727L76.2713 102.026L90.7246 110.144L76.2713 118.262Z" fill="#0B31F6"/>
<path fill-rule="evenodd" clip-rule="evenodd" d="M41.7434 61.1628C43.8634 61.1628 45.582 62.8814 45.582 65.0014C45.582 67.1215 43.8634 68.8401 41.7434 68.8401L37.5354 68.8401L41.1939 70.9191C43.0371 71.9665 43.6822 74.3099 42.6348 76.1531C41.5873 77.9963 39.244 78.6413 37.4008 77.5939L33.2373 75.2279L35.6034 79.3915C36.6508 81.2347 36.0057 83.5781 34.1625 84.6255C32.3193 85.6729 29.976 85.0278 28.9285 83.1846L26.8494 79.526L26.8494 83.7339C26.8494 85.854 25.1308 87.5726 23.0108 87.5726C20.8908 87.5726 19.1721 85.854 19.1721 83.7339L19.1721 79.5257L17.093 83.1844C16.0456 85.0276 13.7023 85.6727 11.8591 84.6253C10.0159 83.5778 9.37078 81.2345 10.4182 79.3913L12.7839 75.2282L8.6208 77.594C6.77759 78.6415 4.43427 77.9964 3.38684 76.1532C2.3394 74.31 2.98449 71.9667 4.8277 70.9192L8.4864 68.8401L4.2782 68.8401C2.15817 68.8401 0.439549 67.1215 0.439549 65.0014C0.43955 62.8814 2.15817 61.1628 4.2782 61.1628L8.48654 61.1628L4.8277 59.0836C2.98449 58.0362 2.3394 55.6928 3.38684 53.8496C4.43427 52.0064 6.77759 51.3613 8.6208 52.4088L12.7839 54.7746L10.4182 50.6115C9.37078 48.7683 10.0159 46.425 11.8591 45.3776C13.7023 44.3301 16.0456 44.9752 17.093 46.8184L19.1721 50.4771L19.1721 46.2687C19.1721 44.1487 20.8908 42.4301 23.0108 42.4301C25.1308 42.4301 26.8494 44.1487 26.8494 46.2687L26.8494 50.4768L28.9285 46.8182C29.976 44.975 32.3193 44.3299 34.1625 45.3773C36.0057 46.4247 36.6508 48.7681 35.6034 50.6113L33.2373 54.7749L37.4008 52.4089C39.244 51.3615 41.5873 52.0066 42.6348 53.8498C43.6822 55.693 43.0371 58.0363 41.1939 59.0837L37.5353 61.1628L41.7434 61.1628Z" fill="#0B31F6"/>
<path d="M68.1533 79.2626C65.8217 84.3343 62.2725 87.5727 58.2972 87.5727C51.2748 87.5727 45.582 77.4672 45.582 65.0015C45.582 52.5357 51.2748 42.4302 58.2972 42.4302C62.2724 42.4302 65.8217 45.6686 68.1533 50.7403C70.4849 45.6686 74.0341 42.4302 78.0094 42.4302C85.0317 42.4302 90.7245 52.5357 90.7245 65.0015C90.7245 77.4672 85.0318 87.5727 78.0094 87.5727C74.0341 87.5727 70.4849 84.3343 68.1533 79.2626Z" fill="white"/>
<path d="M70.6551 13.8193C70.3514 4.28619 69.3464 -2.71224 68.1534 -2.71224C66.9604 -2.71224 65.9554 4.28619 65.6516 13.8193C58.696 7.29314 53.0367 3.05515 52.1931 3.89873C51.3495 4.7423 55.5875 10.4016 62.1137 17.3573C52.5806 17.661 45.5821 18.666 45.5821 19.859C45.5821 21.052 52.5806 22.057 62.1137 22.3607C55.5875 29.3164 51.3495 34.9757 52.1931 35.8193C53.0367 36.6628 58.696 32.4249 65.6516 25.8987C65.9554 35.4318 66.9604 42.4302 68.1534 42.4302C69.3464 42.4302 70.3514 35.4318 70.6551 25.8987C77.6108 32.4249 83.2701 36.6629 84.1136 35.8193C84.9572 34.9757 80.7192 29.3164 74.193 22.3607C83.7262 22.057 90.7246 21.052 90.7246 19.859C90.7246 18.666 83.7262 17.661 74.1931 17.3573C80.7192 10.4016 84.9572 4.74229 84.1137 3.89872C83.2701 3.05515 77.6108 7.29314 70.6551 13.8193Z" fill="#0B31F6"/>
<path fill-rule="evenodd" clip-rule="evenodd" d="M101.003 52.8855L101.39 42.4303L113.571 54.1731L125.752 42.4302L126.14 52.8849L136.143 54.0706L124.804 65.0015L136.143 75.9323L126.14 77.1181L125.752 87.5728L113.571 75.8298L101.39 87.5727L101.003 77.1174L91.0001 75.9322L102.339 65.0015L91.0001 54.0707L101.003 52.8855Z" fill="#0B31F6"/>
<path fill-rule="evenodd" clip-rule="evenodd" d="M39.563 19.859C39.563 29.0005 32.1523 36.4112 23.0108 36.4112C13.8692 36.4112 6.45854 29.0005 6.45854 19.859C6.45855 10.7174 13.8692 3.30675 23.0108 3.30675C32.1523 3.30675 39.563 10.7174 39.563 19.859ZM23.0108 42.4302C35.4765 42.4302 45.582 32.3247 45.582 19.859C45.582 7.39324 35.4765 -2.71225 23.0108 -2.71225C10.545 -2.71225 0.439545 7.39324 0.439544 19.859C0.439544 32.3247 10.545 42.4302 23.0108 42.4302Z" fill="white"/>
<path fill-rule="evenodd" clip-rule="evenodd" d="M29.0065 19.8589C29.0065 23.1702 26.3222 25.8544 23.011 25.8544C19.6998 25.8544 17.0155 23.1702 17.0155 19.8589C17.0155 16.5477 19.6998 13.8635 23.011 13.8635C26.3222 13.8635 29.0065 16.5477 29.0065 19.8589ZM23.011 31.8499C29.6334 31.8499 35.002 26.4814 35.002 19.8589C35.002 13.2365 29.6334 7.86797 23.011 7.86797C16.3886 7.86797 11.02 13.2365 11.02 19.8589C11.02 26.4814 16.3886 31.8499 23.011 31.8499Z" fill="#0B31F6"/>
<path d="M45.3751 155.308C45.3751 142.842 55.4806 132.736 67.9463 132.736C80.4121 132.736 90.5176 142.842 90.5176 155.308L67.9463 155.308L67.9463 177.879C55.4806 177.879 45.3751 167.773 45.3751 155.308Z" fill="white"/>
<rect x="544.428" y="177.858" width="45.1425" height="45.1425" transform="rotate(-90 544.428 177.858)" fill="#0B31F6"/>
<path d="M544.428 87.5727L544.428 102.62L559.475 102.62L559.475 117.668L574.523 117.668L574.523 132.715L589.57 132.715L589.57 87.5727L544.428 87.5727Z" fill="white"/>
<path d="M476.714 -2.71225L454.143 19.859L476.714 42.4302L499.285 19.859L476.714 -2.71225Z" fill="#0B31F6"/>
<path d="M544.428 177.858C556.893 177.858 566.999 187.963 566.999 200.429C566.999 212.895 556.893 223 544.428 223L544.428 209.31C549.333 209.31 553.309 205.334 553.309 200.429C553.309 195.524 549.333 191.548 544.428 191.548L544.428 177.858Z" fill="#0B31F6"/>
<path d="M589.57 223C577.105 223 566.999 212.895 566.999 200.429C566.999 187.963 577.105 177.858 589.57 177.858L589.57 191.548C584.665 191.548 580.689 195.524 580.689 200.429C580.689 205.334 584.665 209.31 589.57 209.31L589.57 223Z" fill="#0B31F6"/>
<path d="M454.142 -2.71216C454.142 9.75359 444.037 19.8591 431.571 19.8591C419.105 19.8591 409 9.75359 409 -2.71216L422.69 -2.71216C422.69 2.19273 426.666 6.16892 431.571 6.16892C436.476 6.16892 440.452 2.19273 440.452 -2.71216L454.142 -2.71216Z" fill="#0B31F6"/>
<path d="M409 42.4302C409 29.9645 419.106 19.859 431.571 19.859C444.037 19.859 454.143 29.9645 454.143 42.4302L440.452 42.4302C440.452 37.5254 436.476 33.5492 431.571 33.5492C426.666 33.5492 422.69 37.5254 422.69 42.4302L409 42.4302Z" fill="#0B31F6"/>
<path d="M513.738 118.262L521.856 132.715L529.974 118.262L544.428 110.144L529.974 102.026L521.856 87.5727L513.738 102.026L499.285 110.144L513.738 118.262Z" fill="#0B31F6"/>
<path fill-rule="evenodd" clip-rule="evenodd" d="M548.266 61.1628C546.146 61.1628 544.428 62.8814 544.428 65.0014C544.428 67.1215 546.146 68.8401 548.266 68.8401L552.474 68.8401L548.816 70.9191C546.973 71.9665 546.328 74.3099 547.375 76.1531C548.422 77.9963 550.766 78.6413 552.609 77.5939L556.772 75.2279L554.406 79.3915C553.359 81.2347 554.004 83.5781 555.847 84.6255C557.69 85.6729 560.034 85.0278 561.081 83.1846L563.16 79.526L563.16 83.7339C563.16 85.854 564.879 87.5726 566.999 87.5726C569.119 87.5726 570.838 85.854 570.838 83.7339L570.838 79.5257L572.917 83.1844C573.964 85.0276 576.307 85.6727 578.151 84.6253C579.994 83.5778 580.639 81.2345 579.592 79.3913L577.226 75.2282L581.389 77.594C583.232 78.6415 585.575 77.9964 586.623 76.1532C587.67 74.31 587.025 71.9667 585.182 70.9192L581.523 68.8401L585.732 68.8401C587.852 68.8401 589.57 67.1215 589.57 65.0014C589.57 62.8814 587.852 61.1628 585.732 61.1628L581.523 61.1628L585.182 59.0836C587.025 58.0362 587.67 55.6928 586.623 53.8496C585.575 52.0064 583.232 51.3613 581.389 52.4088L577.226 54.7746L579.592 50.6115C580.639 48.7683 579.994 46.425 578.151 45.3776C576.307 44.3301 573.964 44.9752 572.917 46.8184L570.838 50.4771L570.838 46.2687C570.838 44.1487 569.119 42.4301 566.999 42.4301C564.879 42.4301 563.16 44.1487 563.16 46.2687L563.16 50.4768L561.081 46.8182C560.034 44.975 557.69 44.3299 555.847 45.3773C554.004 46.4247 553.359 48.7681 554.406 50.6113L556.772 54.7749L552.609 52.4089C550.766 51.3615 548.422 52.0066 547.375 53.8498C546.328 55.693 546.973 58.0363 548.816 59.0837L552.474 61.1628L548.266 61.1628Z" fill="#0B31F6"/>
<path d="M521.856 79.2626C524.188 84.3343 527.737 87.5727 531.713 87.5727C538.735 87.5727 544.428 77.4672 544.428 65.0015C544.428 52.5357 538.735 42.4302 531.713 42.4302C527.737 42.4302 524.188 45.6686 521.856 50.7403C519.525 45.6686 515.976 42.4302 512 42.4302C504.978 42.4302 499.285 52.5357 499.285 65.0015C499.285 77.4672 504.978 87.5727 512 87.5727C515.976 87.5727 519.525 84.3343 521.856 79.2626Z" fill="white"/>
<path d="M519.355 13.8193C519.658 4.28619 520.663 -2.71224 521.856 -2.71224C523.049 -2.71224 524.054 4.28619 524.358 13.8193C531.314 7.29314 536.973 3.05515 537.817 3.89873C538.66 4.7423 534.422 10.4016 527.896 17.3573C537.429 17.661 544.428 18.666 544.428 19.859C544.428 21.052 537.429 22.057 527.896 22.3607C534.422 29.3164 538.66 34.9757 537.817 35.8193C536.973 36.6628 531.314 32.4249 524.358 25.8987C524.054 35.4318 523.049 42.4302 521.856 42.4302C520.663 42.4302 519.658 35.4318 519.355 25.8987C512.399 32.4249 506.74 36.6629 505.896 35.8193C505.053 34.9757 509.291 29.3164 515.817 22.3607C506.284 22.057 499.285 21.052 499.285 19.859C499.285 18.666 506.284 17.661 515.817 17.3573C509.291 10.4016 505.053 4.74229 505.896 3.89872C506.74 3.05515 512.399 7.29314 519.355 13.8193Z" fill="#0B31F6"/>
<path fill-rule="evenodd" clip-rule="evenodd" d="M489.007 52.8855L488.62 42.4303L476.438 54.1731L464.257 42.4302L463.87 52.8849L453.867 54.0706L465.206 65.0015L453.867 75.9323L463.87 77.1181L464.257 87.5728L476.439 75.8298L488.62 87.5727L489.007 77.1174L499.01 75.9322L487.671 65.0015L499.01 54.0707L489.007 52.8855Z" fill="#0B31F6"/>
<path fill-rule="evenodd" clip-rule="evenodd" d="M550.447 19.859C550.447 29.0005 557.857 36.4112 566.999 36.4112C576.141 36.4112 583.551 29.0005 583.551 19.859C583.551 10.7174 576.141 3.30675 566.999 3.30675C557.857 3.30675 550.447 10.7174 550.447 19.859ZM566.999 42.4302C554.533 42.4302 544.428 32.3247 544.428 19.859C544.428 7.39324 554.533 -2.71225 566.999 -2.71225C579.465 -2.71225 589.57 7.39324 589.57 19.859C589.57 32.3247 579.465 42.4302 566.999 42.4302Z" fill="white"/>
<path fill-rule="evenodd" clip-rule="evenodd" d="M561.003 19.8589C561.003 23.1702 563.688 25.8544 566.999 25.8544C570.31 25.8544 572.994 23.1702 572.994 19.8589C572.994 16.5477 570.31 13.8635 566.999 13.8635C563.688 13.8635 561.003 16.5477 561.003 19.8589ZM566.999 31.8499C560.376 31.8499 555.008 26.4814 555.008 19.8589C555.008 13.2365 560.376 7.86797 566.999 7.86797C573.621 7.86797 578.99 13.2365 578.99 19.8589C578.99 26.4814 573.621 31.8499 566.999 31.8499Z" fill="#0B31F6"/>
<path d="M544.635 155.308C544.635 142.842 534.529 132.736 522.063 132.736C509.598 132.736 499.492 142.842 499.492 155.308L522.063 155.308L522.063 177.879C534.529 177.879 544.635 167.773 544.635 155.308Z" fill="white"/>
<path fill-rule="evenodd" clip-rule="evenodd" d="M302.549 49.5506C301.547 50.5536 301.683 53.6986 302.758 54.3626C304.514 55.4486 306.957 53.6846 306.651 51.5516C306.348 49.4386 303.87 48.2296 302.549 49.5506ZM305.848 51.4186C305.848 52.2436 305.173 52.9186 304.348 52.9186C302.786 52.9186 302.364 51.7356 303.515 50.5856C304.665 49.4346 305.848 49.8566 305.848 51.4186ZM409.048 52.1186C404.749 56.4176 412.099 65.7906 419.038 64.8576C422.382 64.4086 423.857 65.1076 424.437 67.4186C424.782 68.7936 425.466 69.9186 425.956 69.9186C427.135 69.9186 427.081 69.2296 425.698 66.6026C424.095 63.5566 422.911 62.9516 418.521 62.9336C411.861 62.9076 405.928 54.7186 410.598 51.9986C411.56 51.4376 411.875 50.9656 411.298 50.9486C410.721 50.9326 409.708 51.4586 409.048 52.1186ZM327.848 56.9186C326.748 58.0186 325.804 59.4816 325.749 60.1686C325.695 60.8566 325.556 63.3926 325.441 65.8046C325.037 74.2846 316.427 77.8006 309.774 72.2026C306.878 69.7656 306.668 69.7136 307.727 71.6926C309.085 74.2296 313.778 76.9186 316.848 76.9186C322.691 76.9186 326.848 72.0036 326.848 65.0936C326.848 63.0426 327.549 60.3636 328.405 59.1416C330.321 56.4056 335.286 56.1246 336.768 58.6686C337.329 59.6306 337.801 59.9256 337.818 59.3236C337.866 57.5666 334.381 54.9186 332.019 54.9186C330.825 54.9186 328.948 55.8186 327.848 56.9186ZM205.147 60.5426C200.892 62.6406 198.868 65.9546 198.153 71.9926C197.828 74.7336 197.177 77.2156 196.705 77.5066C195.185 78.4466 195.793 81.7666 197.736 83.1276C199.078 84.0676 199.728 85.9736 199.986 89.7306C200.324 94.6586 200.209 94.9756 198.268 94.4886C196.674 94.0876 195.847 94.6866 194.726 97.0546C193.396 99.8616 192.401 100.36 183.806 102.52C169.909 106.011 160.934 110.801 152.363 119.299C144.365 127.229 136.588 138.064 137.003 140.699C137.152 141.645 135.941 143.839 134.311 145.575C130.354 149.789 126.504 154.876 125.667 156.995C125.255 158.04 123.373 158.992 120.896 159.411C116.999 160.069 116.548 160.541 111.327 169.411C105.833 178.747 104.987 180.919 106.848 180.919C108.809 180.919 107.8 184.705 104.848 188.419C101.197 193.013 101.112 194.391 104.348 196.511C105.723 197.412 106.848 198.772 106.848 199.534C106.848 201.098 129.173 201.416 133.848 199.919C135.309 199.451 135.665 199.077 134.705 199.019C133.801 198.964 132.806 198.252 132.493 197.436C132.18 196.62 131.278 196.201 130.488 196.503C129.699 196.806 128.445 196.4 127.701 195.601C126.655 194.478 124.615 194.266 118.721 194.668C106.165 195.524 100.922 193.59 105.503 189.791C106.413 189.037 107.769 186.956 108.516 185.169C110.165 181.224 115.848 180.256 115.848 183.919C115.848 186.609 121.042 186.692 122.976 184.032C123.898 182.764 126.08 181.958 129.63 181.575C135.457 180.947 135.406 180.617 130.592 187.724C127.67 192.038 127.525 194.919 130.23 194.919C131.034 194.919 133.993 190.594 136.899 185.169C144.907 170.224 147.202 166.481 147.61 167.705C147.816 168.323 144.811 174.841 140.932 182.19C133.949 195.422 133.392 197.919 137.426 197.919C138.074 197.919 141.854 190.098 145.826 180.54C153.477 162.127 153.633 161.007 148.997 157.72C145.554 155.279 146.688 149.059 151.327 144.947C153.515 143.006 158.334 138.607 162.037 135.169C168.302 129.352 169.093 128.919 173.447 128.919H178.125L177.509 137.669C177.17 142.482 176.596 150.327 176.233 155.104C175.658 162.688 175.824 164.213 177.546 167.131C178.844 169.331 179.73 173.231 180.14 178.551C181.138 191.486 186.609 204.611 195.603 215.643L199.046 219.867L193.779 227.143C190.882 231.145 184.947 238.794 180.59 244.141L172.669 253.862L175.825 259.379C179.181 265.245 179.148 267.685 175.738 265.86C172.722 264.246 171.244 260.352 172.893 258.365C173.629 257.478 172.008 258.059 169.29 259.655C163.707 262.936 162.783 265.027 165.783 267.596C166.919 268.568 167.848 270.399 167.848 271.664C167.848 273.896 175.172 282.919 176.984 282.919C177.469 282.919 177.579 280.48 177.228 277.498C176.353 270.047 177.311 266.545 180.03 267.256C183.28 268.106 208.324 253.273 218.642 244.386C226.156 237.915 231.787 223.305 231.831 210.169C231.848 204.809 231.218 204.115 227.927 205.877C221.281 209.434 205.487 208.9 197.88 204.862C188.581 199.926 186.989 195.884 196.099 200.341C207.694 206.014 219.339 206.046 231.588 200.438L237.234 197.853L244.791 205.131C248.947 209.134 257.129 217.072 262.972 222.772C271.259 230.854 274.027 232.997 275.554 232.512C277.706 231.829 280.184 234.014 281.255 237.537C281.609 238.702 282.762 240.436 283.816 241.39C285.645 243.045 285.841 243.017 288.078 240.772C289.485 239.361 291.317 238.548 292.654 238.741C294.917 239.068 304.848 232.628 304.848 230.834C304.848 230.331 302.023 229.919 298.571 229.919C289.71 229.919 285.727 226.92 289.317 222.953C290.627 221.506 290.236 220.414 285.714 212.875C275.358 195.608 261.987 176.292 257.585 172.24C252.014 167.11 242.635 163.919 233.131 163.919H226.625L227.206 160.669C229.863 145.797 230.569 132.21 229.053 125.126C228.596 122.992 228.291 125.633 228.187 132.626C228.043 142.269 226.599 156.79 225.214 162.519C224.548 165.275 210.678 167.899 192.761 168.659L180.175 169.193L178.48 164.957C176.978 161.204 176.909 159.276 177.874 148.07C179.598 128.064 179.368 128.661 185.848 127.297C190.914 126.229 190.48 126.178 180.348 126.647C167.526 127.24 167.656 127.178 156.117 138.256L147.685 146.351L143.076 143.885C140.541 142.529 138.312 140.922 138.123 140.314C137.123 137.108 157.364 114.736 164.606 111.042C170.726 107.921 181.742 104.078 187.977 102.889C193.053 101.922 193.838 102.071 202.277 105.605C208.663 108.278 211.326 108.986 211.625 108.089C211.943 107.135 212.374 107.111 213.432 107.989C214.199 108.625 215.948 108.86 217.335 108.512C218.788 108.147 219.848 108.311 219.848 108.9C219.848 110.494 221.999 110.095 223.347 108.251C224.47 106.716 224.878 106.773 228.458 108.963C234.619 112.734 242.617 120.777 246.406 127.015C250.312 133.444 249.873 133.279 266.151 134.465L274.954 135.107L274.651 139.263L274.348 143.419L267.348 144.639C250.508 147.573 241.071 146.361 233.941 140.35C232.067 138.77 230.753 138.139 231.02 138.948C231.903 141.619 239.255 145.911 245.004 147.112C251.136 148.392 274.986 145.877 275.681 143.878C275.865 143.35 277.748 142.919 279.866 142.919C287.199 142.919 293.728 138.377 293.812 133.216C293.846 131.156 293.523 131.052 288.825 131.608C284.565 132.113 283.892 131.969 284.393 130.662C285.576 127.579 282.63 127.712 279.744 130.872C277.007 133.869 276.515 134.028 271.59 133.519C268.707 133.221 262.884 132.703 258.651 132.367L250.953 131.758L246.115 124.62C243.454 120.693 238.817 115.556 235.812 113.204C232.807 110.852 228.392 107.126 226.002 104.923C223.611 102.721 220.911 100.917 220.002 100.915C218.986 100.913 219.578 100.162 221.534 98.9686C226.574 95.8956 227.17 93.8796 226.398 82.5146C225.52 69.5746 224.288 65.5126 220.141 61.8706C216.233 58.4396 210.45 57.9276 205.147 60.5426ZM220.049 63.9756C223.075 67.1846 224.47 71.6696 225.094 80.1966C225.524 86.0706 224.557 87.2186 222.419 83.3706C221.83 82.3096 220.73 80.5366 219.975 79.4296C218.671 77.5206 218.769 78.2086 220.363 82.1796C220.905 83.5276 220.692 83.7956 219.457 83.3216C217.069 82.4056 213.171 83.6556 210.936 86.0546L208.969 88.1656L206.912 84.7926C205.781 82.9366 204.854 80.6306 204.852 79.6686C204.849 78.5566 204.08 77.9186 202.741 77.9186C201.39 77.9186 200.819 78.3996 201.148 79.2596C201.851 81.0896 200.329 83.3336 198.96 82.4876C197.576 81.6326 197.502 78.2506 198.848 77.4186C199.398 77.0786 199.848 74.8366 199.848 72.4366C199.848 61.9446 212.957 56.4546 220.049 63.9756ZM444.401 66.6426C443.509 68.9656 446.63 71.3446 448.516 69.7796C449.249 69.1716 449.848 67.8286 449.848 66.7966C449.848 64.3416 445.332 64.2136 444.401 66.6426ZM448.619 67.1066C448.001 68.9606 445.848 69.2676 445.848 67.5016C445.848 66.6306 446.56 65.9186 447.431 65.9186C448.302 65.9186 448.837 66.4526 448.619 67.1066ZM218.848 69.9186C218.848 70.4686 219.55 70.9186 220.407 70.9186C221.264 70.9186 221.688 70.4686 221.348 69.9186C221.008 69.3686 220.307 68.9186 219.789 68.9186C219.271 68.9186 218.848 69.3686 218.848 69.9186ZM210.515 71.5856C209.3 72.7996 209.824 73.8656 211.348 73.2806C212.173 72.9636 212.848 72.3026 212.848 71.8116C212.848 70.7636 211.47 70.6296 210.515 71.5856ZM424.848 71.9186C424.848 72.6516 425.148 72.9516 425.515 72.5856C425.881 72.2186 425.881 71.6186 425.515 71.2516C425.148 70.8856 424.848 71.1856 424.848 71.9186ZM220.486 75.4186C220.803 76.2436 221.239 76.9186 221.455 76.9186C221.671 76.9186 221.848 76.2436 221.848 75.4186C221.848 74.5936 221.412 73.9186 220.879 73.9186C220.347 73.9186 220.17 74.5936 220.486 75.4186ZM408.048 76.1186C405.929 78.2376 406.609 80.9186 409.265 80.9186C412.025 80.9186 412.99 79.2196 411.678 76.6686C410.62 74.6126 409.695 74.4716 408.048 76.1186ZM212.848 77.3596C212.848 78.2166 213.298 78.9186 213.848 78.9186C214.398 78.9186 214.848 78.4956 214.848 77.9776C214.848 77.4596 214.398 76.7586 213.848 76.4186C213.298 76.0786 212.848 76.5026 212.848 77.3596ZM410.848 78.4186C410.848 79.2436 410.173 79.9186 409.348 79.9186C408.523 79.9186 407.848 79.2436 407.848 78.4186C407.848 77.5936 408.523 76.9186 409.348 76.9186C410.173 76.9186 410.848 77.5936 410.848 78.4186ZM330.598 86.3656C327.112 90.7346 327.15 91.3866 330.98 92.9736C333.983 94.2166 334.23 94.1286 336.953 90.8446C340.505 86.5616 340.503 86.3086 336.898 84.4446C333.193 82.5286 333.809 82.3416 330.598 86.3656ZM371.64 88.1086L372.132 93.2306L366.864 92.6066C361.708 91.9966 358.215 92.9196 356.613 95.3186C355.307 97.2756 355.803 100.64 357.598 101.998C359.087 103.125 359.161 103.113 358.098 101.921C356.144 99.7296 356.606 96.1186 359.005 94.8346C360.342 94.1186 363.179 93.9176 366.468 94.3036C372.716 95.0386 374.392 93.3376 373.277 87.3936C372.25 81.9186 371.094 82.4236 371.64 88.1086ZM337.848 86.5496C337.848 86.8576 336.93 88.3986 335.808 89.9746C334.014 92.4946 333.479 92.7076 331.361 91.7426L328.954 90.6456L331.504 87.3026C333.615 84.5356 334.382 84.1336 335.951 84.9736C336.995 85.5326 337.848 86.2416 337.848 86.5496ZM422.073 85.4736C419.968 86.9476 419.933 87.1826 421.399 90.0166C423.416 93.9176 427.095 95.3226 431.492 93.8706C435.967 92.3936 436.246 88.9186 431.888 88.9186C430.016 88.9186 428.077 87.9996 426.611 86.4186C424.446 84.0836 424.146 84.0216 422.073 85.4736ZM430.638 90.0806C434.544 90.6566 433.565 92.4026 429.157 92.7236C425.559 92.9846 424.721 92.6546 423.236 90.3876C420.93 86.8696 423.23 85.0046 426.333 87.8766C427.441 88.9036 429.378 89.8956 430.638 90.0806ZM215.848 89.0356C215.848 89.6866 216.889 89.9526 218.348 89.6736C220.876 89.1906 221.736 90.2516 219.791 91.4536C218.105 92.4956 213.848 91.0236 213.848 89.3996C213.848 88.5846 214.298 87.9186 214.848 87.9186C215.398 87.9186 215.848 88.4206 215.848 89.0356ZM206.327 94.7106L210.307 98.9726L206.327 97.6016C202.863 96.4076 202.305 95.7896 202.016 92.8256C201.834 90.9536 201.834 89.6526 202.016 89.9356C202.199 90.2176 204.139 92.3666 206.327 94.7106ZM206.198 98.6756L212.047 100.302L211.491 103.735C211.184 105.622 210.76 107.34 210.549 107.552C210.337 107.763 207.28 106.652 203.756 105.082C200.232 103.512 196.545 101.941 195.563 101.591C193.879 100.991 193.873 100.81 195.461 98.3866C196.564 96.7036 197.696 96.0306 198.746 96.4336C199.627 96.7716 202.98 97.7806 206.198 98.6756ZM217.848 101.325C217.848 102.239 217.148 102.549 215.848 102.209C214.748 101.921 213.848 101.288 213.848 100.802C213.848 100.317 214.748 99.9186 215.848 99.9186C216.948 99.9186 217.848 100.552 217.848 101.325ZM223.816 104.286C223.799 104.909 223.177 106.22 222.434 107.198C221.222 108.797 221.022 108.814 220.466 107.367C219.185 104.028 219.753 102.081 221.848 102.629C222.948 102.917 223.834 103.662 223.816 104.286ZM432.604 108.896C429.443 111.383 428.726 115.011 430.24 120.851L431.424 125.419L426.636 125.492L421.847 125.565L425.098 122.829L428.348 120.093L423.378 117.948C404.86 109.951 363.682 110.26 346.264 118.526L342.734 120.201L346.291 123.133C351.015 127.026 350.809 127.479 344.499 127.085L339.147 126.751L339.954 122.585C341.964 112.206 339.447 107.919 331.344 107.919C318.297 107.919 310.884 121.155 319.248 129.519C321.251 131.522 323.647 132.919 325.08 132.919C327.411 132.919 327.494 133.144 327.066 138.307C326.518 144.909 328.095 149.992 332.109 154.564C335.605 158.546 341.629 161.919 345.243 161.919C349.014 161.919 352.848 163.687 352.848 165.426C352.848 167.847 349.932 168.408 348.332 166.294C347.006 164.544 346.909 164.625 346.88 167.514C346.815 173.81 354.259 176.468 358.417 171.633C360.448 169.272 360.711 169.212 362.244 170.758C363.15 171.672 367.125 173.994 371.079 175.919C379.154 179.85 380.343 181.432 375.948 182.397C369.648 183.781 364.848 190.019 364.848 196.823C364.848 199.778 364.18 200.953 361.098 203.419C357.736 206.108 356.494 206.456 349.098 206.772L340.848 207.124V226.633V246.142L328.098 245.544C321.086 245.216 302.186 244.662 286.098 244.314L256.848 243.682V259.895V276.108L237.598 275.487C225.148 275.085 213.05 275.317 203.348 276.142L188.348 277.419L188.058 286.819L187.769 296.219L174.558 295.621C165.274 295.201 156.592 295.529 145.348 296.724L129.348 298.426L128.44 305.172L127.533 311.919L116.44 311.947C105.72 311.973 78.3564 315.08 77.0094 316.423C76.0304 317.399 75.5684 361.046 76.5274 361.955C76.9784 362.382 86.1234 364.401 96.8484 366.44C116.673 370.21 118.597 370.272 126.098 367.38C127.555 366.818 127.848 367.277 127.848 370.124V373.543L151.643 377.283L175.438 381.024L180.226 378.971C186.527 376.271 186.848 376.336 186.848 380.313V383.707L199.098 385.944C205.835 387.175 218.773 389.648 227.848 391.442L244.348 394.702L250.598 391.426L256.848 388.15V393.534C256.848 396.496 257.224 398.919 257.684 398.919C258.144 398.919 272.573 401.169 289.749 403.919C306.924 406.669 321.852 408.919 322.922 408.919C323.991 408.919 328.669 406.466 333.317 403.467L341.769 398.015L342.058 406.156C342.347 414.275 342.356 414.299 345.348 415.067C351.149 416.554 420.963 429.047 421.732 428.735C422.16 428.561 427.311 423.087 433.179 416.57L443.848 404.721L443.844 321.07C443.842 275.062 443.549 231.038 443.192 223.239L442.543 209.06L433.946 206.338C429.217 204.842 422.947 203.401 420.013 203.137C413.574 202.558 409.848 199.49 409.848 194.767C409.848 190.698 405.066 184.772 399.904 182.444C395.026 180.244 394.872 179.356 398.985 177.122C400.711 176.186 404.004 174.022 406.305 172.314C410.433 169.248 410.516 169.232 412.778 171.064C415.922 173.61 419.469 173.389 422.393 170.464C425.279 167.579 425.664 165.369 423.098 166.425C418.784 168.201 417.848 168.162 417.848 166.205C417.848 165.133 418.86 163.778 420.098 163.193C421.336 162.607 425.023 160.88 428.294 159.355C439.618 154.071 445.391 145.811 444.674 135.919C444.379 131.852 444.647 131.208 447.455 129.23C453.052 125.287 455.529 116.764 452.383 112.272C448.754 107.091 437.369 105.148 432.604 108.896ZM447.848 110.794C452.696 114.322 453.461 117.02 451.035 122.032C449.856 124.469 447.499 127.285 445.798 128.289C442.925 129.987 442.753 130.4 443.38 134.111C445.121 144.414 438.19 153.927 424.664 159.797C420.438 161.631 416.74 163.759 416.446 164.525C415.528 166.917 416.955 168.919 419.577 168.919C421.7 168.919 421.898 169.153 420.848 170.419C418.481 173.271 411.848 171.003 411.848 167.341C411.848 164.773 416.96 160.124 424.777 155.582C432.945 150.836 435.298 148.413 436.709 143.292C438.658 136.219 432.998 130.519 424.597 131.094C421.358 131.316 419.847 131.032 419.847 130.204C419.848 128.058 423.992 126.678 428.994 127.159C431.664 127.416 433.848 127.521 433.848 127.394C433.848 127.267 433.173 125.548 432.348 123.573C429.367 116.438 430.725 110.62 435.848 108.584C438.337 107.595 445.185 108.856 447.848 110.794ZM337.73 111.267C338.795 112.127 338.979 114.271 338.532 120.613L337.951 128.842L343.329 128.778C349.044 128.71 350.848 129.299 350.848 131.235C350.848 132.041 349.381 132.317 346.37 132.077C342.477 131.768 341.497 132.116 338.87 134.743C332.12 141.493 337.536 151.864 351.346 158.637C355.703 160.774 356.853 161.903 357.898 165.07C359.02 168.47 358.957 169.141 357.352 170.915C355.337 173.141 350.9 173.571 349.048 171.719C347.378 170.049 347.549 168.867 349.361 169.562C351.303 170.308 353.848 168.204 353.848 165.853C353.848 163.523 350.148 160.919 346.837 160.919C335.926 160.919 325.333 146.02 328.623 135.3C329.557 132.257 329.465 131.919 327.705 131.919C321.185 131.919 315.808 124.602 317.828 118.48C320.41 110.656 331.844 106.511 337.73 111.267ZM213.848 115.515C213.848 117.492 213.069 120.429 212.117 122.04C209.849 125.881 201.678 129.919 196.175 129.919C191.528 129.919 189.985 131.359 187.746 137.782C186.702 140.775 186.844 141.306 189.402 143.976C193.454 148.204 195.19 148.402 200.914 145.287C211.296 139.636 220.765 127.999 220.826 120.818C220.868 115.835 218.855 111.919 216.25 111.919C214.159 111.919 213.848 112.385 213.848 115.515ZM325.191 115.485C321.288 119.389 323.464 126.801 328.933 128.231C331.183 128.819 333.26 125.57 334.351 119.753C334.923 116.705 334.674 115.91 332.714 114.538C329.551 112.322 328.182 112.494 325.191 115.485ZM396.992 113.959C407.499 115.014 417.847 117.174 423.224 119.435L426.185 120.68L422.654 122.994L419.123 125.309L418.47 135.275C417.683 147.287 415.706 156.3 412.459 162.678C409.58 168.335 407.089 170.706 400.118 174.425C397.242 175.959 394.624 178.048 394.301 179.067C393.474 181.674 382.419 181.751 379.583 179.169C378.526 178.206 374.441 175.844 370.505 173.919C359.741 168.655 356.518 162.192 353.22 139.266C351.303 125.938 350.719 127.06 361.348 123.659C367.465 121.701 370.492 121.419 385.348 121.419C394.698 121.419 405.483 121.779 409.315 122.219C413.146 122.659 416.038 122.776 415.741 122.478C415.443 122.181 409.158 121.216 401.774 120.333C382.208 117.995 364.153 119.607 354.605 124.545C351.982 125.901 351.558 125.84 348.866 123.714C347.267 122.452 345.934 121.114 345.903 120.741C345.801 119.487 356.282 116.15 363.848 115.027C379.453 112.712 383.327 112.587 396.992 113.959ZM438.098 114.053C435.419 116.767 438.467 126.919 441.961 126.919C446.094 126.919 449.263 119.2 446.598 115.624C444.934 113.39 439.706 112.424 438.098 114.053ZM332.002 115.001C334.128 116.139 334.059 118.181 331.692 124.169C330.441 127.334 329.251 127.594 326.677 125.264C324.049 122.886 324.269 117.438 327.071 115.476C329.715 113.623 329.471 113.647 332.002 115.001ZM446.043 117.448C447.007 119.564 446.871 120.411 445.211 122.635C442.299 126.535 440.995 126.514 439.334 122.539C436.848 116.589 437.294 114.919 441.369 114.919C444.166 114.919 445.128 115.44 446.043 117.448ZM420.848 126.419C420.848 126.694 420.623 126.919 420.348 126.919C420.073 126.919 419.848 126.694 419.848 126.419C419.848 126.144 420.073 125.919 420.348 125.919C420.623 125.919 420.848 126.144 420.848 126.419ZM386.308 129.492C384.107 139.144 384.7 138.392 379.039 138.721C376.184 138.888 373.848 139.397 373.848 139.853C373.848 140.467 379.211 145.01 381.561 146.387C381.679 146.456 381.115 148.703 380.31 151.381C379.504 154.058 379.039 156.443 379.276 156.68C379.513 156.918 381.799 155.673 384.356 153.914L389.004 150.716L395.002 153.408C398.301 154.888 401.186 155.914 401.413 155.687C401.64 155.46 400.537 153.243 398.962 150.76L396.098 146.244L399.556 142.082L403.014 137.919H398.052C393.579 137.919 392.978 137.647 391.949 135.162C391.32 133.645 389.944 131.09 388.891 129.484L386.975 126.564L386.308 129.492ZM363.098 129.581C361.342 130.29 361.504 139.399 363.387 145.737C364.913 150.878 364.957 150.919 368.994 150.919C372.464 150.919 372.961 150.662 372.374 149.169C371.996 148.206 371.432 143.257 371.12 138.169L370.554 128.919L367.451 128.998C365.744 129.041 363.786 129.304 363.098 129.581ZM287.674 133.469L292.348 132.92L288.348 134.893C286.148 135.979 284.94 136.878 285.664 136.893C286.387 136.907 287.888 136.433 288.999 135.838C290.11 135.243 291.271 135.009 291.579 135.317C291.887 135.625 290.161 136.773 287.744 137.868C284.08 139.527 283.848 139.78 286.348 139.383L289.348 138.908L286.348 140.368C284.698 141.172 281.661 141.849 279.598 141.874C276.179 141.915 275.848 141.681 275.848 139.217C275.848 137.525 277.063 135.255 279.098 133.148C282.122 130.016 282.371 129.929 282.674 131.9C282.967 133.805 283.473 133.963 287.674 133.469ZM369.859 136.669C369.865 139.831 370.149 144.107 370.49 146.169C371.067 149.658 370.938 149.919 368.637 149.919C365.807 149.919 364.09 145.669 363.119 136.255L362.568 130.919H366.208H369.848L369.859 136.669ZM433.565 135.376C438.64 141.277 435.411 147.786 424.179 154.296C419.9 156.776 416.292 158.697 416.161 158.565C416.029 158.434 416.531 156.015 417.277 153.19C418.022 150.365 418.959 144.761 419.36 140.736C419.76 136.712 420.596 133.062 421.218 132.626C423.621 130.939 431.201 132.628 433.565 135.376ZM351.033 135.184C351.464 135.863 351.835 137.544 351.856 138.919C351.878 140.294 352.74 145.244 353.773 149.919C354.806 154.594 355.512 158.565 355.342 158.743C354.802 159.31 348.482 155.75 344.568 152.674C336.268 146.151 335.399 136.514 342.848 133.591C345.009 132.743 350.114 133.736 351.033 135.184ZM308.21 141.419C307.417 143.483 308.492 145.919 310.194 145.919C312.241 145.919 313.983 143.433 313.258 141.546C312.474 139.503 308.979 139.415 308.21 141.419ZM311.848 142.419C311.848 143.244 311.173 143.919 310.348 143.919C308.786 143.919 308.364 142.736 309.515 141.586C310.665 140.435 311.848 140.857 311.848 142.419ZM142.216 145.041C143.57 145.658 144.891 146.895 145.15 147.791C145.409 148.686 145.934 150.319 146.316 151.419C146.966 153.289 146.917 153.305 145.569 151.669C143.528 149.191 140.996 149.5 139.68 152.388C138.39 155.22 136.895 154.824 136.748 151.61C136.656 149.57 136.593 149.592 135.848 151.919L135.047 154.419L134.877 151.919C134.727 149.713 134.619 149.646 133.953 151.346C133.253 153.131 133.148 153.144 132.524 151.518C132.064 150.319 132.778 148.835 134.772 146.841C138.025 143.588 138.68 143.43 142.216 145.041ZM136.525 155.537C138.074 155.818 139.517 155.478 140.009 154.718C140.682 153.677 141.038 153.715 141.807 154.912C142.949 156.689 141.573 157.327 134.598 158.251C131.076 158.718 129.848 158.55 129.848 157.6C129.848 155.894 131.948 153.863 133.025 154.528C133.496 154.819 135.071 155.273 136.525 155.537ZM366.458 157.599C368.224 164.889 368.787 165.557 371.804 163.943C374.686 162.4 372.055 155.541 368.411 155.099C365.981 154.804 365.828 154.999 366.458 157.599ZM370.862 157.776C370.869 158.13 371.147 159.432 371.478 160.669C371.907 162.27 371.649 162.919 370.581 162.919C369.756 162.919 368.81 161.906 368.478 160.669C367.509 157.053 367.744 155.942 369.348 156.557C370.173 156.874 370.854 157.422 370.862 157.776ZM149.019 159.574C150.025 160.484 150.848 161.834 150.848 162.574C150.848 164.741 147.857 164.118 146.988 161.769C146.296 159.898 145.649 160.611 141.998 167.263C139.691 171.467 137.375 176.034 136.85 177.412C136.136 179.292 135.173 179.919 132.998 179.919C131.403 179.919 128.672 180.204 126.928 180.553C124.526 181.033 123.83 180.852 124.053 179.803C124.49 177.75 118.755 177.333 117.634 179.337C116.721 180.969 111.855 181.375 108.612 180.091C107.097 179.49 107.578 178.231 112.381 170.219C118.564 159.906 115.943 161.262 133.848 159.11C145.31 157.733 147.043 157.786 149.019 159.574ZM329.512 173.62C328.521 179.815 325.069 183.363 320.226 183.162C310.8 182.772 306.296 189.083 310.374 196.969C312.493 201.066 313.058 200.666 311.253 196.346C308.399 189.516 311.683 184.919 319.414 184.919C324.038 184.919 324.977 184.555 327.219 181.89C329.739 178.895 331.458 173.248 330.617 170.725C330.378 170.009 329.881 171.312 329.512 173.62ZM440.859 177.406C439.197 179.408 440.304 181.919 442.848 181.919C443.983 181.919 445.172 181.238 445.491 180.406C446.066 178.909 444.305 175.919 442.848 175.919C442.433 175.919 441.537 176.588 440.859 177.406ZM444.848 178.86C444.848 180.21 443.025 181.146 441.832 180.409C441.273 180.063 441.074 179.362 441.391 178.85C442.141 177.635 444.848 177.643 444.848 178.86ZM399.652 184.508C402.51 185.933 404.848 187.428 404.848 187.831C404.848 188.235 400.235 188.532 394.598 188.492C388.961 188.452 380.523 188.774 375.848 189.208L367.348 189.996L369.494 187.839C375.411 181.892 390.956 180.175 399.652 184.508ZM405.789 191.048C408.163 191.876 408.848 192.708 408.849 194.767L408.851 197.419L396.887 197.086C386.393 196.794 378.249 197.508 368.598 199.566C366.003 200.119 365.848 199.951 365.848 196.595C365.848 194.638 366.411 192.677 367.098 192.238C371.576 189.374 398.603 188.543 405.789 191.048ZM336.598 190.608C335.636 190.86 334.848 191.73 334.848 192.542C334.848 193.354 334.161 195.346 333.322 196.969C331.881 199.756 331.906 199.919 333.775 199.919C339.044 199.919 343.053 195.502 341.487 191.421C340.911 189.919 339.886 189.749 336.598 190.608ZM339.848 193.758C339.848 195.853 339.159 196.912 337.222 197.794C334.751 198.92 334.632 198.856 335.208 196.705C335.545 195.448 335.827 193.889 335.834 193.242C335.842 192.595 336.636 191.86 337.598 191.608C338.56 191.357 339.461 191.099 339.598 191.035C339.735 190.971 339.848 192.197 339.848 193.758ZM410.234 200.249C411.767 201.255 412.76 202.34 412.44 202.66C411.868 203.232 373.64 205.791 364.848 205.846L360.348 205.875L362.842 203.958C370.107 198.376 403.409 195.77 410.234 200.249ZM420.848 315.419V426.919L418.598 426.86C417.36 426.828 399.923 423.762 379.848 420.049L343.348 413.296L342.697 311.358C342.338 255.291 342.263 209.194 342.528 208.919C342.794 208.644 360.187 207.471 381.18 206.311C402.172 205.152 419.685 204.14 420.098 204.061C420.511 203.983 420.848 254.094 420.848 315.419ZM287.81 227.848C288.653 229.423 288.359 230.159 286.211 231.848C283.181 234.232 281.752 234.423 280.006 232.677C279.017 231.688 279.435 230.88 282.056 228.704C286.004 225.429 286.477 225.358 287.81 227.848ZM302.344 231.208C303.873 231.37 303.18 232.186 299.375 234.7C295.591 237.201 293.749 237.837 291.629 237.371C289.525 236.909 288.848 237.136 288.848 238.304C288.848 239.154 287.963 240.322 286.882 240.901C285.213 241.794 284.684 241.502 283.373 238.967C281.865 236.051 281.895 235.946 284.661 234.516C286.219 233.71 287.985 232.459 288.585 231.735C289.57 230.548 294.372 230.364 302.344 231.208ZM312.598 246.548L323.848 247.116V327.529V407.943L320.098 407.338C318.036 407.006 303.298 404.623 287.348 402.043L258.348 397.353L258.092 321.106L257.835 244.858L279.592 245.419C291.558 245.727 306.411 246.235 312.598 246.548ZM170.848 261.842C170.848 262.35 171.915 264.038 173.22 265.592C175.073 267.802 175.687 269.929 176.027 275.332L176.463 282.244L172.612 277.832C169.512 274.28 168.865 272.864 169.298 270.574C169.72 268.343 169.42 267.62 167.911 267.225C165.189 266.513 164.484 263.915 166.581 262.324C168.638 260.763 170.848 260.513 170.848 261.842ZM252.848 277.444C252.848 277.732 251.61 278.449 250.098 279.037C246.794 280.32 206.848 279.186 206.848 277.809C206.848 277.315 217.077 276.919 229.848 276.919C242.498 276.919 252.848 277.155 252.848 277.444ZM217.848 280.419C231.873 281.22 243.461 281.885 243.598 281.897C243.735 281.909 243.848 306.943 243.848 337.527V393.136L241.598 392.622C240.36 392.34 233.048 390.925 225.348 389.478C185.69 382.028 188.341 382.732 188.411 379.669C188.445 378.157 188.557 354.869 188.661 327.919C188.836 281.981 188.957 278.92 190.598 278.941C191.561 278.953 203.823 279.618 217.848 280.419ZM182.848 297.841C182.848 300.287 175.475 301.081 159.317 300.373C143.111 299.663 137.798 298.377 148.098 297.656C159.729 296.843 182.848 296.966 182.848 297.841ZM156.848 301.434C163.173 301.754 169.811 302.24 171.598 302.513L174.848 303.01V341.532C174.848 377.744 174.743 380.024 173.098 379.551C172.135 379.274 161.786 377.582 150.098 375.791L128.848 372.534L128.851 356.477C128.852 347.645 129.15 331.248 129.514 320.039L130.174 299.659L137.761 300.255C141.934 300.583 150.523 301.114 156.848 301.434ZM120.973 313.919C127.579 313.919 127.848 314.014 127.848 316.339C127.848 318.35 127.015 319.035 122.917 320.396C118.257 321.944 117.143 321.917 102.667 319.899C94.2424 318.725 86.2234 317.384 84.8484 316.92L82.3484 316.077L84.8484 315.932C86.2234 315.852 92.0734 315.176 97.8484 314.43C103.623 313.684 109.642 313.264 111.223 313.496C112.804 313.729 117.192 313.919 120.973 313.919ZM107.598 321.948L116.848 323.203V346.08V368.957L114.598 368.393C113.361 368.083 104.479 366.384 94.8603 364.618C79.6783 361.829 77.3234 361.148 76.9964 359.449C76.7894 358.373 76.9424 348.439 77.3384 337.374L78.0564 317.256L88.2024 318.975C93.7824 319.92 102.511 321.258 107.598 321.948Z" fill="white"/>
</g>
<defs>
<clipPath id="clip0_435_1683">
<rect width="590" height="552" fill="white"/>
</clipPath>
</defs>
</svg>
