<svg width="590" height="552" viewBox="0 0 590 552" fill="none" xmlns="http://www.w3.org/2000/svg">
<g clip-path="url(#clip0_435_1932)">
<rect width="590" height="552" fill="#171B16"/>
<rect width="45.1425" height="45.1425" transform="matrix(4.37114e-08 -1 -1 -4.37114e-08 45.582 177.858)" fill="#F60B8A"/>
<path d="M45.582 87.5727L45.582 102.62L30.5345 102.62L30.5345 117.668L15.487 117.668L15.487 132.715L0.439551 132.715L0.439552 87.5727L45.582 87.5727Z" fill="white"/>
<path d="M113.296 -2.71225L135.867 19.859L113.296 42.4302L90.7247 19.859L113.296 -2.71225Z" fill="#F60B8A"/>
<path d="M45.582 177.858C33.1163 177.858 23.0108 187.963 23.0108 200.429C23.0108 212.895 33.1163 223 45.582 223L45.582 209.31C40.6771 209.31 36.7009 205.334 36.7009 200.429C36.701 195.524 40.6771 191.548 45.582 191.548L45.582 177.858Z" fill="#F60B8A"/>
<path d="M0.439447 223C12.9052 223 23.0107 212.895 23.0107 200.429C23.0107 187.963 12.9052 177.858 0.439453 177.858L0.439451 191.548C5.34434 191.548 9.32053 195.524 9.32053 200.429C9.32053 205.334 5.34434 209.31 0.439449 209.31L0.439447 223Z" fill="#F60B8A"/>
<path d="M135.867 -2.71216C135.867 9.75359 145.973 19.8591 158.439 19.8591C170.904 19.8591 181.01 9.75359 181.01 -2.71216L167.32 -2.71216C167.32 2.19273 163.343 6.16892 158.439 6.16892C153.534 6.16892 149.557 2.19273 149.557 -2.71216L135.867 -2.71216Z" fill="#F60B8A"/>
<path d="M181.01 42.4302C181.01 29.9645 170.904 19.859 158.438 19.859C145.973 19.859 135.867 29.9645 135.867 42.4302L149.557 42.4302C149.557 37.5254 153.534 33.5492 158.438 33.5492C163.343 33.5492 167.32 37.5254 167.32 42.4302L181.01 42.4302Z" fill="#F60B8A"/>
<path d="M76.2713 118.262L68.1534 132.715L60.0354 118.262L45.5821 110.144L60.0354 102.026L68.1534 87.5727L76.2713 102.026L90.7246 110.144L76.2713 118.262Z" fill="#F60B8A"/>
<path fill-rule="evenodd" clip-rule="evenodd" d="M41.7434 61.1628C43.8634 61.1628 45.582 62.8814 45.582 65.0014C45.582 67.1215 43.8634 68.8401 41.7434 68.8401L37.5354 68.8401L41.1939 70.9191C43.0371 71.9665 43.6822 74.3099 42.6348 76.1531C41.5873 77.9963 39.244 78.6413 37.4008 77.5939L33.2373 75.2279L35.6034 79.3915C36.6508 81.2347 36.0057 83.5781 34.1625 84.6255C32.3193 85.6729 29.976 85.0278 28.9285 83.1846L26.8494 79.526L26.8494 83.7339C26.8494 85.854 25.1308 87.5726 23.0108 87.5726C20.8908 87.5726 19.1721 85.854 19.1721 83.7339L19.1721 79.5257L17.093 83.1844C16.0456 85.0276 13.7023 85.6727 11.8591 84.6253C10.0159 83.5778 9.37078 81.2345 10.4182 79.3913L12.7839 75.2282L8.6208 77.594C6.77759 78.6415 4.43427 77.9964 3.38684 76.1532C2.3394 74.31 2.98449 71.9667 4.8277 70.9192L8.4864 68.8401L4.2782 68.8401C2.15817 68.8401 0.439549 67.1215 0.439549 65.0014C0.43955 62.8814 2.15817 61.1628 4.2782 61.1628L8.48654 61.1628L4.8277 59.0836C2.98449 58.0362 2.3394 55.6928 3.38684 53.8496C4.43427 52.0064 6.77759 51.3613 8.6208 52.4088L12.7839 54.7746L10.4182 50.6115C9.37078 48.7683 10.0159 46.425 11.8591 45.3776C13.7023 44.3301 16.0456 44.9752 17.093 46.8184L19.1721 50.4771L19.1721 46.2687C19.1721 44.1487 20.8908 42.4301 23.0108 42.4301C25.1308 42.4301 26.8494 44.1487 26.8494 46.2687L26.8494 50.4768L28.9285 46.8182C29.976 44.975 32.3193 44.3299 34.1625 45.3773C36.0057 46.4247 36.6508 48.7681 35.6034 50.6113L33.2373 54.7749L37.4008 52.4089C39.244 51.3615 41.5873 52.0066 42.6348 53.8498C43.6822 55.693 43.0371 58.0363 41.1939 59.0837L37.5353 61.1628L41.7434 61.1628Z" fill="#F60B8A"/>
<path d="M68.1533 79.2626C65.8217 84.3343 62.2725 87.5727 58.2972 87.5727C51.2748 87.5727 45.582 77.4672 45.582 65.0015C45.582 52.5357 51.2748 42.4302 58.2972 42.4302C62.2724 42.4302 65.8217 45.6686 68.1533 50.7403C70.4849 45.6686 74.0341 42.4302 78.0094 42.4302C85.0317 42.4302 90.7245 52.5357 90.7245 65.0015C90.7245 77.4672 85.0318 87.5727 78.0094 87.5727C74.0341 87.5727 70.4849 84.3343 68.1533 79.2626Z" fill="white"/>
<path d="M70.6551 13.8193C70.3514 4.28619 69.3464 -2.71224 68.1534 -2.71224C66.9604 -2.71224 65.9554 4.28619 65.6516 13.8193C58.696 7.29314 53.0367 3.05515 52.1931 3.89873C51.3495 4.7423 55.5875 10.4016 62.1137 17.3573C52.5806 17.661 45.5821 18.666 45.5821 19.859C45.5821 21.052 52.5806 22.057 62.1137 22.3607C55.5875 29.3164 51.3495 34.9757 52.1931 35.8193C53.0367 36.6628 58.696 32.4249 65.6516 25.8987C65.9554 35.4318 66.9604 42.4302 68.1534 42.4302C69.3464 42.4302 70.3514 35.4318 70.6551 25.8987C77.6108 32.4249 83.2701 36.6629 84.1136 35.8193C84.9572 34.9757 80.7192 29.3164 74.193 22.3607C83.7262 22.057 90.7246 21.052 90.7246 19.859C90.7246 18.666 83.7262 17.661 74.1931 17.3573C80.7192 10.4016 84.9572 4.74229 84.1137 3.89872C83.2701 3.05515 77.6108 7.29314 70.6551 13.8193Z" fill="#F60B8A"/>
<path fill-rule="evenodd" clip-rule="evenodd" d="M101.003 52.8855L101.39 42.4303L113.571 54.1731L125.752 42.4302L126.14 52.8849L136.143 54.0706L124.804 65.0015L136.143 75.9323L126.14 77.1181L125.752 87.5728L113.571 75.8298L101.39 87.5727L101.003 77.1174L91.0001 75.9322L102.339 65.0015L91.0001 54.0707L101.003 52.8855Z" fill="#F60B8A"/>
<path fill-rule="evenodd" clip-rule="evenodd" d="M39.563 19.859C39.563 29.0005 32.1523 36.4112 23.0108 36.4112C13.8692 36.4112 6.45854 29.0005 6.45854 19.859C6.45855 10.7174 13.8692 3.30675 23.0108 3.30675C32.1523 3.30675 39.563 10.7174 39.563 19.859ZM23.0108 42.4302C35.4765 42.4302 45.582 32.3247 45.582 19.859C45.582 7.39324 35.4765 -2.71225 23.0108 -2.71225C10.545 -2.71225 0.439545 7.39324 0.439544 19.859C0.439544 32.3247 10.545 42.4302 23.0108 42.4302Z" fill="white"/>
<path fill-rule="evenodd" clip-rule="evenodd" d="M29.0065 19.8589C29.0065 23.1702 26.3222 25.8544 23.011 25.8544C19.6998 25.8544 17.0155 23.1702 17.0155 19.8589C17.0155 16.5477 19.6998 13.8635 23.011 13.8635C26.3222 13.8635 29.0065 16.5477 29.0065 19.8589ZM23.011 31.8499C29.6334 31.8499 35.002 26.4814 35.002 19.8589C35.002 13.2365 29.6334 7.86797 23.011 7.86797C16.3886 7.86797 11.02 13.2365 11.02 19.8589C11.02 26.4814 16.3886 31.8499 23.011 31.8499Z" fill="#F60B8A"/>
<path d="M45.3751 155.308C45.3751 142.842 55.4806 132.736 67.9463 132.736C80.4121 132.736 90.5176 142.842 90.5176 155.308L67.9463 155.308L67.9463 177.879C55.4806 177.879 45.3751 167.773 45.3751 155.308Z" fill="white"/>
<rect x="544.428" y="177.858" width="45.1425" height="45.1425" transform="rotate(-90 544.428 177.858)" fill="#F60B8A"/>
<path d="M544.428 87.5727L544.428 102.62L559.475 102.62L559.475 117.668L574.523 117.668L574.523 132.715L589.57 132.715L589.57 87.5727L544.428 87.5727Z" fill="white"/>
<path d="M476.714 -2.71225L454.143 19.859L476.714 42.4302L499.285 19.859L476.714 -2.71225Z" fill="#F60B8A"/>
<path d="M544.428 177.858C556.893 177.858 566.999 187.963 566.999 200.429C566.999 212.895 556.893 223 544.428 223L544.428 209.31C549.333 209.31 553.309 205.334 553.309 200.429C553.309 195.524 549.333 191.548 544.428 191.548L544.428 177.858Z" fill="#F60B8A"/>
<path d="M589.57 223C577.105 223 566.999 212.895 566.999 200.429C566.999 187.963 577.105 177.858 589.57 177.858L589.57 191.548C584.665 191.548 580.689 195.524 580.689 200.429C580.689 205.334 584.665 209.31 589.57 209.31L589.57 223Z" fill="#F60B8A"/>
<path d="M454.142 -2.71216C454.142 9.75359 444.037 19.8591 431.571 19.8591C419.105 19.8591 409 9.75359 409 -2.71216L422.69 -2.71216C422.69 2.19273 426.666 6.16892 431.571 6.16892C436.476 6.16892 440.452 2.19273 440.452 -2.71216L454.142 -2.71216Z" fill="#F60B8A"/>
<path d="M409 42.4302C409 29.9645 419.106 19.859 431.571 19.859C444.037 19.859 454.143 29.9645 454.143 42.4302L440.452 42.4302C440.452 37.5254 436.476 33.5492 431.571 33.5492C426.666 33.5492 422.69 37.5254 422.69 42.4302L409 42.4302Z" fill="#F60B8A"/>
<path d="M513.738 118.262L521.856 132.715L529.974 118.262L544.428 110.144L529.974 102.026L521.856 87.5727L513.738 102.026L499.285 110.144L513.738 118.262Z" fill="#F60B8A"/>
<path fill-rule="evenodd" clip-rule="evenodd" d="M548.266 61.1628C546.146 61.1628 544.428 62.8814 544.428 65.0014C544.428 67.1215 546.146 68.8401 548.266 68.8401L552.474 68.8401L548.816 70.9191C546.973 71.9665 546.328 74.3099 547.375 76.1531C548.422 77.9963 550.766 78.6413 552.609 77.5939L556.772 75.2279L554.406 79.3915C553.359 81.2347 554.004 83.5781 555.847 84.6255C557.69 85.6729 560.034 85.0278 561.081 83.1846L563.16 79.526L563.16 83.7339C563.16 85.854 564.879 87.5726 566.999 87.5726C569.119 87.5726 570.838 85.854 570.838 83.7339L570.838 79.5257L572.917 83.1844C573.964 85.0276 576.307 85.6727 578.151 84.6253C579.994 83.5778 580.639 81.2345 579.592 79.3913L577.226 75.2282L581.389 77.594C583.232 78.6415 585.575 77.9964 586.623 76.1532C587.67 74.31 587.025 71.9667 585.182 70.9192L581.523 68.8401L585.732 68.8401C587.852 68.8401 589.57 67.1215 589.57 65.0014C589.57 62.8814 587.852 61.1628 585.732 61.1628L581.523 61.1628L585.182 59.0836C587.025 58.0362 587.67 55.6928 586.623 53.8496C585.575 52.0064 583.232 51.3613 581.389 52.4088L577.226 54.7746L579.592 50.6115C580.639 48.7683 579.994 46.425 578.151 45.3776C576.307 44.3301 573.964 44.9752 572.917 46.8184L570.838 50.4771L570.838 46.2687C570.838 44.1487 569.119 42.4301 566.999 42.4301C564.879 42.4301 563.16 44.1487 563.16 46.2687L563.16 50.4768L561.081 46.8182C560.034 44.975 557.69 44.3299 555.847 45.3773C554.004 46.4247 553.359 48.7681 554.406 50.6113L556.772 54.7749L552.609 52.4089C550.766 51.3615 548.422 52.0066 547.375 53.8498C546.328 55.693 546.973 58.0363 548.816 59.0837L552.474 61.1628L548.266 61.1628Z" fill="#F60B8A"/>
<path d="M521.856 79.2626C524.188 84.3343 527.737 87.5727 531.713 87.5727C538.735 87.5727 544.428 77.4672 544.428 65.0015C544.428 52.5357 538.735 42.4302 531.713 42.4302C527.737 42.4302 524.188 45.6686 521.856 50.7403C519.525 45.6686 515.976 42.4302 512 42.4302C504.978 42.4302 499.285 52.5357 499.285 65.0015C499.285 77.4672 504.978 87.5727 512 87.5727C515.976 87.5727 519.525 84.3343 521.856 79.2626Z" fill="white"/>
<path d="M519.355 13.8193C519.658 4.28619 520.663 -2.71224 521.856 -2.71224C523.049 -2.71224 524.054 4.28619 524.358 13.8193C531.314 7.29314 536.973 3.05515 537.817 3.89873C538.66 4.7423 534.422 10.4016 527.896 17.3573C537.429 17.661 544.428 18.666 544.428 19.859C544.428 21.052 537.429 22.057 527.896 22.3607C534.422 29.3164 538.66 34.9757 537.817 35.8193C536.973 36.6628 531.314 32.4249 524.358 25.8987C524.054 35.4318 523.049 42.4302 521.856 42.4302C520.663 42.4302 519.658 35.4318 519.355 25.8987C512.399 32.4249 506.74 36.6629 505.896 35.8193C505.053 34.9757 509.291 29.3164 515.817 22.3607C506.284 22.057 499.285 21.052 499.285 19.859C499.285 18.666 506.284 17.661 515.817 17.3573C509.291 10.4016 505.053 4.74229 505.896 3.89872C506.74 3.05515 512.399 7.29314 519.355 13.8193Z" fill="#F60B8A"/>
<path fill-rule="evenodd" clip-rule="evenodd" d="M489.007 52.8855L488.62 42.4303L476.438 54.1731L464.257 42.4302L463.87 52.8849L453.867 54.0706L465.206 65.0015L453.867 75.9323L463.87 77.1181L464.257 87.5728L476.439 75.8298L488.62 87.5727L489.007 77.1174L499.01 75.9322L487.671 65.0015L499.01 54.0707L489.007 52.8855Z" fill="#F60B8A"/>
<path fill-rule="evenodd" clip-rule="evenodd" d="M550.447 19.859C550.447 29.0005 557.857 36.4112 566.999 36.4112C576.141 36.4112 583.551 29.0005 583.551 19.859C583.551 10.7174 576.141 3.30675 566.999 3.30675C557.857 3.30675 550.447 10.7174 550.447 19.859ZM566.999 42.4302C554.533 42.4302 544.428 32.3247 544.428 19.859C544.428 7.39324 554.533 -2.71225 566.999 -2.71225C579.465 -2.71225 589.57 7.39324 589.57 19.859C589.57 32.3247 579.465 42.4302 566.999 42.4302Z" fill="white"/>
<path fill-rule="evenodd" clip-rule="evenodd" d="M561.003 19.8589C561.003 23.1702 563.688 25.8544 566.999 25.8544C570.31 25.8544 572.994 23.1702 572.994 19.8589C572.994 16.5477 570.31 13.8635 566.999 13.8635C563.688 13.8635 561.003 16.5477 561.003 19.8589ZM566.999 31.8499C560.376 31.8499 555.008 26.4814 555.008 19.8589C555.008 13.2365 560.376 7.86797 566.999 7.86797C573.621 7.86797 578.99 13.2365 578.99 19.8589C578.99 26.4814 573.621 31.8499 566.999 31.8499Z" fill="#F60B8A"/>
<path d="M544.635 155.308C544.635 142.842 534.529 132.736 522.063 132.736C509.598 132.736 499.492 142.842 499.492 155.308L522.063 155.308L522.063 177.879C534.529 177.879 544.635 167.773 544.635 155.308Z" fill="white"/>
<path fill-rule="evenodd" clip-rule="evenodd" d="M317.642 44.6778C315.198 46.2968 310.614 50.5457 307.456 54.1207C301.764 60.5637 301.687 60.6097 298.479 59.4307C296.661 58.7627 290.059 58.2407 283.413 58.2377C266.892 58.2317 265.172 60.8508 274.987 71.0638L279.956 76.2337L275.299 70.8197C267.159 61.3557 270.267 57.9137 285.896 59.0837C290.106 59.3987 295.507 60.1487 297.9 60.7517L302.251 61.8477L311.308 52.7907C320.641 43.4577 324.912 41.3508 326.12 45.4838C327.312 49.5618 328.744 59.4357 328.757 63.6677C328.779 71.1527 329.488 72.3217 336.487 76.4087C344.232 80.9307 352.743 88.6158 352.743 91.0858C352.743 93.6858 346.818 95.7258 337.441 96.3528C326.138 97.1098 326.82 96.5058 328.347 104.399C330.262 114.299 330.174 124.631 328.167 125.401C325.708 126.345 319.004 121.009 310.947 111.694C306.318 106.343 303.007 103.336 301.936 103.512C301.005 103.665 293.7 104.064 285.702 104.4C272.815 104.94 270.967 104.816 269.454 103.302C266.894 100.742 269.195 97.6917 280.308 88.9157C281.922 87.6407 280.318 88.5958 276.743 91.0378C273.168 93.4798 269.375 96.9507 268.315 98.7517L266.387 102.028L268.815 104.01C271.078 105.859 272.34 105.958 287.407 105.469L303.571 104.946L309.907 112.544C326.622 132.588 334.128 131.303 330.486 109.021C329.608 103.649 328.97 99.1798 329.067 99.0908C329.164 99.0018 333.458 98.4188 338.61 97.7968C350.016 96.4178 353.743 94.7428 353.743 90.9948C353.743 87.6098 345.606 79.7127 337.052 74.7977L331.073 71.3628L329.884 59.9597C327.949 41.3947 326.094 39.0788 317.642 44.6778ZM282.243 77.7337C283.238 78.8337 284.278 79.7337 284.553 79.7337C284.828 79.7337 284.238 78.8337 283.243 77.7337C282.248 76.6337 281.208 75.7337 280.933 75.7337C280.658 75.7337 281.248 76.6337 282.243 77.7337ZM286.611 80.9777C287.804 82.4997 287.676 82.9858 285.611 84.7878L283.243 86.8527L285.993 85.1777C289.207 83.2217 289.371 82.4708 286.993 80.6058C285.408 79.3638 285.372 79.3987 286.611 80.9777ZM241.743 99.6458C241.743 100.148 239.943 100.862 237.743 101.234C233.103 102.018 232.747 103.397 236.143 107.433C237.582 109.143 239.142 113.076 240.039 117.259C241.703 125.016 242.307 122.979 240.761 114.827C240.22 111.978 238.592 108.091 237.142 106.19C234.244 102.391 234.794 101.381 237.799 104.984L239.676 107.234L239.71 104.793C239.742 102.431 239.791 102.415 241.211 104.293C242.61 106.142 242.684 106.091 242.779 103.234L242.878 100.234L244.007 102.734C244.628 104.109 245.234 105.383 245.354 105.565C245.474 105.747 246.565 105.365 247.778 104.715C250.118 103.463 249.954 104.36 247.226 107.734C246.258 108.931 246.503 110.819 248.44 117.089C251.461 126.867 252.294 126.769 249.601 116.952L247.609 109.686L249.857 106.049L252.105 102.412L249.061 103.02C246.499 103.533 245.84 103.241 244.901 101.182C243.82 98.8077 241.743 97.7978 241.743 99.6458ZM275.725 123.484C274.133 125.508 273.703 127.098 274.094 129.511C274.46 131.766 273.868 134.417 272.194 138.011C268.985 144.904 268.986 150.068 272.198 153.279C273.548 154.629 275.396 155.734 276.305 155.734C277.401 155.734 277.753 156.267 277.35 157.316C277.016 158.186 276.743 159.086 276.743 159.316C276.743 159.546 276.068 159.734 275.243 159.734C274.085 159.734 274.208 160.199 275.779 161.77C276.9 162.891 277.548 164.241 277.22 164.77C276.272 166.305 273.581 165.889 272.135 163.984C270.871 162.319 270.805 162.32 270.775 163.998C270.757 164.968 271.302 166.657 271.986 167.751C272.979 169.341 272.974 170.092 271.96 171.487C265.415 180.5 263.047 194.607 266.477 204.143C268.086 208.617 268.642 209.17 272.743 210.378C275.218 211.107 277.321 211.71 277.415 211.719C277.51 211.727 278.117 210.131 278.764 208.171C279.765 205.138 279.688 204.331 278.246 202.737C273.836 197.864 272.512 186.64 275.399 178.587C276.961 174.227 277.577 173.684 285.372 169.785C289.941 167.5 294.482 164.641 295.461 163.432C296.441 162.223 299.943 159.956 303.243 158.395C306.543 156.833 314.143 152.869 320.133 149.584C326.122 146.3 331.322 143.978 331.688 144.424C334.362 147.68 337.743 152.759 337.743 153.52C337.743 154.026 332.17 159.012 325.358 164.6C304.277 181.895 303.591 183.018 298.385 208.734C296.353 218.773 295.815 220.205 294.15 220.008C286.236 219.072 264.715 218.801 257.743 219.549L249.243 220.461L256.376 220.598C263.06 220.725 263.539 220.885 263.968 223.129C264.502 225.927 261.695 226.704 250.993 226.723C245.373 226.733 244.743 226.529 244.743 224.702C244.743 223.529 245.694 222.287 246.993 221.765C248.717 221.072 248.834 220.846 247.493 220.797C244.621 220.693 245.057 210.532 249.071 184.017C250.361 175.495 250.312 173.915 248.421 163.069C247.295 156.618 246.208 151.839 246.004 152.451C245.8 153.062 246.333 157.251 247.188 161.759C249.207 172.401 249.137 177.851 246.809 191.234C244.197 206.247 243.082 225.232 244.696 227.178C245.389 228.013 245.669 229.862 245.341 231.443C241.771 248.654 241.765 346.022 245.334 360.24C245.668 361.572 246.822 362.942 247.897 363.283C250.692 364.17 249.724 365.885 244.92 368.559C237.255 372.825 240.212 375.367 251.053 373.832C259.327 372.661 259.743 372.39 259.743 368.175C259.743 365.387 260.127 364.734 261.768 364.734C264.463 364.734 265.054 362.91 268.094 345.21C274.698 306.774 275.819 296.621 274.284 289.148C272.645 281.162 270.694 264.332 270.85 259.523C270.908 257.714 272.056 264.559 273.4 274.734L275.843 293.234L287.216 321.734C303.448 362.411 304.039 363.643 307.687 364.373C310.139 364.863 310.815 365.603 311.333 368.36C312.398 374.037 320.851 379.734 328.211 379.734C333.073 379.734 332.918 376.964 327.743 371.35C323.368 366.603 322.612 362.922 325.626 361.039C327.23 360.037 327.388 359.225 326.694 355.549C325.881 351.247 321.34 335.754 315.61 317.734C311.186 303.824 309.411 295.625 303.373 261.234C297.279 226.524 297.018 221.059 300.676 204.734C304.434 187.958 306.33 183.391 311.545 178.543C321.378 169.404 339.722 154.603 340.569 155.126C342.072 156.056 345.869 151.225 345.136 149.315C344.109 146.641 352.058 139.122 357.998 137.149C363.487 135.326 365.344 132.444 363.743 128.234C362.695 125.479 361.63 125.189 358.57 126.827C357.093 127.617 356.226 127.617 355.436 126.827C353.72 125.111 352.155 125.535 351.022 128.021C349.302 131.796 339.208 139.016 336.744 138.234C334.611 137.557 329.007 140.331 330.166 141.49C331.403 142.728 296.262 161.173 294.611 160.153C293.014 159.165 293.611 151.722 295.34 151.058C297.209 150.341 300.657 142.964 301.801 137.234C302.696 132.752 300.922 128.734 298.049 128.734C297.142 128.734 295.632 128.039 294.693 127.189C293.754 126.339 291.694 125.552 290.114 125.439C288.534 125.326 286.424 124.222 285.42 122.984C282.83 119.786 278.456 120.012 275.725 123.484ZM241.938 127.234C241.958 128.884 242.182 129.438 242.436 128.465C242.69 127.492 242.673 126.142 242.399 125.465C242.125 124.788 241.918 125.584 241.938 127.234ZM251.743 127.105C251.743 127.851 249.606 129.262 246.993 130.239C241.627 132.245 239.743 133.495 239.743 135.048C239.743 135.635 240.306 135.393 240.993 134.51C242.204 132.954 250.414 129.734 253.171 129.734C254.555 129.734 255.743 131.817 255.743 134.244C255.743 135.546 246.178 139.734 243.205 139.734C242.401 139.734 241.707 138.947 241.664 137.984C241.613 136.846 241.402 136.691 241.061 137.542C240.773 138.261 241.212 139.611 242.037 140.542C242.862 141.473 243.779 143.134 244.074 144.234C244.478 145.734 244.566 145.609 244.428 143.734C244.269 141.586 244.946 140.98 249.243 139.425C251.993 138.429 254.806 137.567 255.493 137.508C257.889 137.302 256.975 130.297 254.243 127.921C252.538 126.439 251.743 126.179 251.743 127.105ZM354.621 130.734C355.028 130.734 356.234 130.073 357.302 129.266C360.408 126.916 362.671 127.429 359.743 129.819L357.243 131.859L359.743 131.249C362.036 130.689 362.081 130.739 360.287 131.851C358.346 133.054 358.346 133.069 360.287 133.794C361.846 134.375 361.262 134.795 357.417 135.857C353.866 136.837 351.395 138.468 348.066 142.027C345.577 144.688 343.44 146.723 343.318 146.549C343.195 146.376 342.137 144.843 340.965 143.143L338.834 140.053L345.234 135.354C348.753 132.77 351.979 129.66 352.401 128.445L353.169 126.234L353.526 128.484C353.722 129.721 354.215 130.734 354.621 130.734ZM286.791 137.734C290.402 137.734 290.415 137.75 290.329 141.984C290.244 146.164 290.296 146.23 293.436 145.988C297.673 145.661 298.359 147.104 295.162 149.619C293.424 150.987 292.388 152.963 292.036 155.586C291.54 159.281 291.162 159.657 285.458 162.118C282.129 163.555 279.258 164.582 279.077 164.401C278.402 163.726 278.422 159.157 279.109 157.072C279.709 155.251 279.353 154.807 276.852 154.258C271.03 152.979 269.765 146.994 273.522 138.501L275.573 133.863L279.37 135.799C281.458 136.863 284.797 137.734 286.791 137.734ZM256.743 139.234C256.743 139.509 256.968 139.734 257.243 139.734C257.518 139.734 257.743 139.509 257.743 139.234C257.743 138.959 257.518 138.734 257.243 138.734C256.968 138.734 256.743 138.959 256.743 139.234ZM383.05 144.035C377.923 148.716 376.892 149.257 374.243 148.654C366.904 146.983 356.743 148.149 356.743 150.663C356.743 151.201 358.05 150.891 359.647 149.974C362.18 148.521 363.546 148.451 370.358 149.433L378.166 150.558L384.012 145.146C392.461 137.323 393.259 137.682 394.386 149.806L395.028 156.711L399.636 159.355C404.473 162.131 409.743 166.573 409.743 167.874C409.743 169.033 402.79 170.722 397.993 170.728C393.245 170.735 393.316 170.557 394.703 179.023C396.473 189.829 394.111 190.391 385.185 181.287L378.863 174.839L368.45 175.429C355.537 176.16 354.346 175.217 360.821 169.383C365.411 165.248 364.614 165.313 358.993 169.532C351.862 174.885 355.593 177.305 369.735 176.499L378.53 175.997L383.617 181.777C386.58 185.143 389.589 189.919 390.821 193.214C393.257 199.723 394.528 200.211 392.254 193.764C390.379 188.451 390.381 188.381 392.37 189.144C394.856 190.098 396.743 187.874 396.743 183.989C396.743 181.001 396.961 180.67 398.233 181.726C399.148 182.485 399.502 183.845 399.151 185.245C398.608 187.406 403.376 196.434 404.478 195.332C404.722 195.089 403.769 193.194 402.361 191.122C400.59 188.517 399.987 186.611 400.405 184.945C400.856 183.146 400.343 181.918 398.376 180.095C396.928 178.752 395.743 176.574 395.743 175.255C395.743 173.15 396.325 172.778 400.493 172.217C407.634 171.255 410.207 170.255 410.587 168.295C411.035 165.982 405.606 160.427 400.76 158.242C396.845 156.476 395.743 154.174 395.743 147.758C395.743 146.259 395.249 143.615 394.645 141.883C393.001 137.167 389.954 137.732 383.05 144.035ZM274.076 140.401C274.443 140.767 275.043 140.767 275.41 140.401C275.776 140.034 275.476 139.734 274.743 139.734C274.01 139.734 273.71 140.034 274.076 140.401ZM340.72 144.824C342.933 147.623 344.743 150.233 344.743 150.624C344.743 151.781 342.443 153.734 341.08 153.734C339.426 153.734 331.465 141.993 332.253 140.717C333.669 138.426 336.903 139.995 340.72 144.824ZM258.243 141.734C258.583 142.284 259.086 142.734 259.361 142.734C259.636 142.734 259.583 142.284 259.243 141.734C258.903 141.184 258.4 140.734 258.125 140.734C257.85 140.734 257.903 141.184 258.243 141.734ZM276.981 141.96C275.309 143.994 275.121 146.984 276.632 147.51C277.466 147.8 277.748 147.55 277.336 146.884C276.959 146.274 277.158 144.827 277.778 143.669C279.077 141.241 278.532 140.073 276.981 141.96ZM280.743 142.793C280.743 143.375 281.193 143.574 281.743 143.234C282.293 142.894 282.743 142.418 282.743 142.175C282.743 141.932 282.293 141.734 281.743 141.734C281.193 141.734 280.743 142.211 280.743 142.793ZM189.41 143.401C188.216 144.595 188.746 148.144 190.794 152.657L192.8 157.08L189.892 160.157C183.643 166.768 183.731 170.876 190.115 170.598C192.782 170.482 192.875 170.401 190.743 170.049C185.71 169.218 185.549 169.009 187.31 165.605C188.21 163.864 190.068 161.318 191.439 159.947L193.931 157.455L191.917 151.344C189.412 143.741 190.398 143.191 198.78 147.514L204.553 150.491L209.898 148.645C219.405 145.362 220.927 146.269 217.795 153.35C216.666 155.901 215.743 158.104 215.743 158.245C215.743 158.386 218.2 159.499 221.204 160.718C231.214 164.781 229.974 167.734 218.255 167.734C212.999 167.734 212.876 167.802 211.72 171.304C211.072 173.268 209.912 175.116 209.142 175.411C208.373 175.706 207.729 176.687 207.713 177.591C207.686 179.048 207.567 179.036 206.663 177.484C206.102 176.521 204.797 175.734 203.763 175.734C202.608 175.734 201.715 174.866 201.449 173.484C201.049 171.408 201.005 171.431 200.879 173.784C200.804 175.186 200.25 176.827 199.647 177.43C198.852 178.225 199.029 179.535 200.292 182.196C201.756 185.282 201.943 187.702 201.466 197.389C201.154 203.726 200.638 209.172 200.32 209.491C200.001 209.809 194.282 210.481 187.609 210.983C172.77 212.101 171.427 211.481 174.116 204.759C175.024 202.49 175.757 199.418 175.745 197.934C175.734 196.449 175.731 193.309 175.74 190.956C175.774 181.68 168.403 174.262 161.532 176.658C159.834 177.25 157.368 177.734 156.052 177.734C148.287 177.734 144.071 193.768 149.742 201.732C151.475 204.166 151.589 204.734 150.346 204.734C149.503 204.734 148.334 205.63 147.748 206.725C145.563 210.807 150.847 216.614 156.054 215.853C157.12 215.697 157.751 216.132 157.59 216.911C157.438 217.639 159.496 221.487 162.161 225.462C167.696 233.717 170.354 242.753 171.389 256.831L172.021 265.428L168.911 266.05C167.201 266.392 162.796 266.98 159.123 267.357L152.445 268.041L153.13 261.137C155.05 241.782 155.06 239.763 153.256 235.762L151.5 231.869L149.255 234.552C145.905 238.552 139.918 248.667 132.276 263.234C128.526 270.384 124.577 277.809 123.501 279.734C121.659 283.032 121.655 283.1 123.444 280.924C124.488 279.654 129.502 270.879 134.586 261.424C148.898 234.809 150.79 232.156 152.227 236.683C152.638 237.979 151.739 240.244 149.544 243.438C147.729 246.081 142.049 255.474 136.922 264.311C131.796 273.148 126.568 281.675 125.304 283.26C123.079 286.051 122.95 286.084 121.179 284.313C119.408 282.542 119.717 281.755 131.042 259.191C137.473 246.38 143.905 234.398 145.336 232.566C146.879 230.59 146.278 231.007 143.86 233.591C140.132 237.573 129.042 258.487 121.341 276.057C119.937 279.26 118.361 281.616 117.838 281.292C117.301 280.961 118.321 277.554 120.18 273.469C121.992 269.49 125.803 260.935 128.649 254.459C131.495 247.983 135.197 240.357 136.874 237.512C138.552 234.667 139.282 232.872 138.497 233.524C136.734 234.987 129.391 249.785 122.091 266.587C119.069 273.543 115.966 280.517 115.196 282.084C113.948 284.625 113.962 284.797 115.324 283.667C116.59 282.616 117.229 282.776 119.048 284.599C120.837 286.393 120.985 286.96 119.847 287.666C119.068 288.15 118.727 289.249 119.075 290.156C119.584 291.483 119.356 291.597 117.825 290.778C116.445 290.039 115.63 290.165 114.726 291.255C114.05 292.068 113.013 292.734 112.421 292.734C111.719 292.734 111.761 292.316 112.543 291.534C114.734 289.343 113.784 288.662 110.993 290.422L108.243 292.156L110.243 289.795L112.243 287.435L109.243 288.085C106.248 288.735 106.249 288.733 109.743 286.777C113.891 284.455 113.09 284.144 108.211 286.183C104.014 287.936 103.988 288.34 107.801 292.532L110.8 295.83L113.701 293.764C115.488 292.491 116.844 292.089 117.232 292.716C118.594 294.919 120.821 293.76 120.531 291C120.29 288.708 120.644 288.243 122.726 288.125C126.791 287.895 139.22 273.85 146.587 261.161C150.076 255.151 152.689 251.359 152.393 252.734C150.459 261.716 150.571 273.152 152.562 270.078C152.936 269.5 157.876 268.713 163.539 268.331C169.201 267.949 174.489 267.385 175.289 267.078C176.321 266.682 176.743 267.243 176.743 269.013C176.743 271.805 175.739 272.064 159.993 273.329C153.344 273.864 151.729 273.725 151.67 272.613C151.565 270.631 148.006 280.941 145.761 289.734C142.358 303.058 138.378 334.727 135.769 369.234C135.187 376.934 134.529 384.973 134.307 387.098C133.976 390.261 134.251 391.054 135.819 391.464C137.554 391.918 137.675 392.614 137.101 398.796C136.467 405.618 136.469 405.627 139.212 406.316C140.985 406.76 142.23 406.564 142.726 405.761C143.332 404.781 144.994 404.858 150.566 406.126C159.276 408.107 158.743 408.13 158.743 405.764C158.743 404.513 157.285 402.961 154.751 401.514C151.385 399.592 150.757 398.724 150.751 395.984C150.745 393.433 151.16 392.734 152.681 392.734C154.313 392.734 155.646 389.617 161.128 372.984C166.689 356.11 179.743 304.228 179.743 299.001C179.743 298.121 180.018 297.676 180.355 298.013C181.278 298.936 179.203 309.748 173.156 335.513L167.693 358.792L167.968 374.513L168.243 390.234L170.993 390.55C173.718 390.864 173.743 390.934 173.743 398.3V405.734H176.66C178.264 405.734 179.737 405.253 179.933 404.665C180.183 403.914 182.313 403.949 187.099 404.782C191.855 405.61 194.226 405.651 194.959 404.918C196.727 403.15 194.948 400.654 190.744 399.002C187.141 397.587 186.743 397.084 186.743 393.943C186.743 391.999 187.408 389.963 188.245 389.344C189.837 388.167 192.209 373.333 195.296 345.234C197.601 324.254 198.344 283.229 196.573 274.734C195.763 270.848 195.495 266.424 195.906 263.734C196.285 261.259 196.628 253.292 196.669 246.03L196.743 232.826L204.493 229.03C214.955 223.905 217.15 220.047 216.383 208.127C216.095 203.668 214.91 197.199 213.749 193.751C212.587 190.303 211.773 186.526 211.94 185.358C212.146 183.914 211.442 182.831 209.743 181.974C207.282 180.735 207.294 180.722 210.454 181.192C214.523 181.796 215.75 179.968 212.851 177.621C210.776 175.94 210.733 175.653 212.149 172.916C213.531 170.243 214.24 169.943 220.688 169.308C232.496 168.144 233.331 164.384 222.788 159.849L217.975 157.778L219.536 153.438C222.278 145.812 219.17 143.915 209.379 147.239C205.054 148.708 204.789 148.671 198.594 145.74C192.039 142.639 190.551 142.26 189.41 143.401ZM260.743 145.734C261.332 146.834 262.038 147.734 262.313 147.734C262.588 147.734 262.332 146.834 261.743 145.734C261.154 144.634 260.448 143.734 260.173 143.734C259.898 143.734 260.154 144.634 260.743 145.734ZM244.901 148.734C244.901 150.109 245.128 150.672 245.405 149.984C245.683 149.297 245.683 148.172 245.405 147.484C245.128 146.797 244.901 147.359 244.901 148.734ZM263.243 149.734C263.583 150.284 264.086 150.734 264.361 150.734C264.636 150.734 264.583 150.284 264.243 149.734C263.903 149.184 263.4 148.734 263.125 148.734C262.85 148.734 262.903 149.184 263.243 149.734ZM278.243 150.27C275.742 151.416 275.597 151.651 277.371 151.689C278.541 151.714 280.058 151.059 280.743 150.234C282.201 148.477 282.158 148.478 278.243 150.27ZM268.341 156.362C270.487 159.183 272.397 161.084 272.584 160.588C272.772 160.091 271.016 157.784 268.683 155.46L264.439 151.234L268.341 156.362ZM359.743 155.11C361.118 156.661 363.593 158.858 365.243 159.994C368.808 162.446 367.849 161.394 361.743 156.153C358.754 153.587 358.083 153.237 359.743 155.11ZM294.421 162.268C294.611 162.836 291.664 164.976 287.873 167.024C281.053 170.707 280.974 170.723 280.401 168.534C280.083 167.317 279.917 166.295 280.033 166.263C280.148 166.231 282.718 164.995 285.743 163.517C291.352 160.778 293.808 160.424 294.421 162.268ZM367.243 163.923L365.243 165.993L367.493 164.828C368.731 164.188 369.743 163.229 369.743 162.699C369.743 161.422 369.584 161.5 367.243 163.923ZM199.243 168.734C199.583 169.284 200.059 169.734 200.302 169.734C200.545 169.734 200.743 169.284 200.743 168.734C200.743 168.184 200.266 167.734 199.684 167.734C199.102 167.734 198.903 168.184 199.243 168.734ZM195.556 169.417C196.277 169.706 197.14 169.67 197.472 169.338C197.804 169.006 197.214 168.77 196.16 168.813C194.995 168.861 194.758 169.098 195.556 169.417ZM204.723 179.258C203.557 180.663 203.98 182.165 205.576 182.283C208.778 182.519 210.41 184.027 210.41 186.748C210.41 189.528 210.153 189.734 206.686 189.734C203.261 189.734 202.919 189.473 202.424 186.484C202.128 184.697 201.576 181.996 201.198 180.484C200.573 177.986 200.761 177.734 203.249 177.734C205.589 177.734 205.804 177.956 204.723 179.258ZM213.243 178.734C213.583 179.284 213.186 179.734 212.361 179.734C211.536 179.734 210.583 179.284 210.243 178.734C209.903 178.184 210.3 177.734 211.125 177.734C211.95 177.734 212.903 178.184 213.243 178.734ZM459.743 184.748C458.918 185.288 456.976 185.464 455.427 185.138C452.592 184.542 446.743 186.306 446.743 187.757C446.743 188.185 445.168 189.466 443.243 190.601C441.139 191.843 439.743 193.447 439.743 194.623C439.743 195.7 438.393 197.93 436.743 199.58C431.784 204.539 433.129 209.953 439.763 211.739C442.259 212.412 444.392 213.825 445.473 215.523C446.421 217.014 447.566 218.499 448.017 218.822C448.468 219.146 448.136 219.993 447.279 220.704C445.977 221.785 443.95 221.378 434.981 218.236C419.978 212.978 419.384 212.591 413.061 203.948C409.957 199.705 407.282 196.063 407.116 195.853C406.95 195.644 404.211 196.537 401.029 197.837C397.847 199.138 394.948 200.111 394.588 200C392.353 199.309 393.747 203.551 398.771 212.734C405.122 224.342 409.262 228.053 421.076 232.726C426.873 235.019 426.905 235.055 426.268 238.455C425.915 240.337 425.393 242.483 425.108 243.225C424.787 244.063 425.473 244.743 426.917 245.018C428.196 245.262 426.756 245.523 423.716 245.598C420.675 245.673 417.3 246.355 416.216 247.113C415.112 247.885 410.854 248.664 406.547 248.88C399.285 249.246 398.792 249.136 397.793 246.944C396.712 244.571 394.743 244.751 394.743 247.223C394.743 247.978 393.731 248.739 392.493 248.914C390.635 249.178 390.225 249.893 390.14 253.016C390.083 255.096 390.458 257.058 390.973 257.376C391.487 257.694 396.853 258.017 402.896 258.094C412.23 258.213 414.031 258.497 414.863 259.984C415.501 261.123 417.046 261.734 419.293 261.734C421.953 261.734 422.743 262.148 422.743 263.54C422.743 265.111 425.088 265.712 440.743 268.151C457.72 270.797 463.653 272.734 454.777 272.734C449.207 272.734 428.697 269.89 426.012 268.745C423.489 267.67 424.258 265.652 416.799 292.908C411.615 311.85 409.608 317.052 400.378 335.472C396.179 343.852 392.743 351.761 392.743 353.047C392.743 355.856 396.166 359.288 400.46 360.785L403.592 361.877L396.787 381.539L389.982 401.201L383.613 403.067C376.393 405.183 374.743 406.235 374.743 408.726C374.743 410.997 379.775 411.842 388.465 411.031C393.913 410.522 395.142 410.695 395.916 412.078C396.425 412.989 397.894 413.734 399.179 413.734C401.203 413.734 401.609 413.098 402.209 408.984C402.662 405.881 406.411 397.434 413.024 384.622L423.146 365.009L432.644 364.385C439.647 363.925 442.372 364.086 443.019 364.998C443.659 365.901 443.785 365.83 443.484 364.734C443.185 363.643 445.414 362.35 451.658 359.991C456.38 358.208 460.693 356.748 461.243 356.747C462.071 356.745 471.243 389.213 471.243 392.147C471.243 392.652 469.05 394.413 466.369 396.06L461.494 399.056L459.597 396.645C458.554 395.319 454.685 388.072 450.999 380.54C447.313 373.009 444.143 367.001 443.954 367.19C443.435 367.709 456.278 394.272 458.676 397.64L460.771 400.582L457.118 407.575C450.807 419.658 454.59 421.285 464.709 410.839C470.399 404.966 471.784 404.019 474.054 404.453C478.035 405.214 478.524 402.471 475.497 396.369C472.011 389.346 463.23 358.513 464.082 356.292C464.352 355.589 466.575 354.51 469.023 353.894C471.47 353.277 474.536 351.912 475.836 350.86L478.199 348.946L475.96 343.543C473.259 337.027 471.607 329.201 468.624 308.796C467.383 300.306 466.198 293.869 465.99 294.492C465.148 297.018 471.046 333.634 473.409 340.548C474.783 344.571 475.669 348.484 475.377 349.244C475.086 350.004 471.336 351.734 467.045 353.088C462.754 354.441 454.562 357.205 448.84 359.23C441.369 361.874 437.212 362.814 434.09 362.565C431.699 362.375 429.743 362.597 429.743 363.059C429.743 363.929 419.233 363.503 412.243 362.349C402.544 360.748 393.743 356.374 393.743 353.155C393.743 352.366 396.414 346.661 399.679 340.477C408.509 323.752 413.959 309.36 419.273 288.734C421.894 278.559 424.116 270.128 424.21 269.998C424.304 269.869 427.5 270.42 431.312 271.223C435.124 272.026 442.968 273.197 448.743 273.826C454.518 274.454 459.693 275.523 460.243 276.201C460.937 277.056 461.243 275.721 461.243 271.833C461.243 267.219 461.837 265.271 464.623 260.758C468.696 254.158 472.757 243.712 472.706 239.961C472.675 237.636 472.291 238.017 470.099 242.55C466.816 249.337 458.163 258.218 452.312 260.807C449.048 262.25 444.88 262.936 437.506 263.241L427.243 263.666L438.477 262.377C448.739 261.2 450.168 260.774 454.99 257.453C459.877 254.087 465.918 247.257 468.613 242.05C472.606 234.334 464.864 229.149 455.31 233.142C453.457 233.916 447.822 237.319 442.788 240.704C436.567 244.887 432.931 246.722 431.439 246.433L429.243 246.006L431.439 245.87C432.647 245.795 437.722 242.842 442.716 239.306C452.872 232.118 459.206 229.281 463.648 229.933C467.279 230.466 466.865 229.442 462.764 227.743C457.685 225.639 459.98 219.002 465.323 220.343C466.839 220.724 468.745 220.308 470.374 219.24C472.437 217.889 473.491 217.754 475.355 218.603C481.385 221.351 487.406 214.397 482.899 209.89C481.885 208.876 480.776 206.327 480.435 204.225C480.063 201.928 478.604 199.154 476.779 197.271C475.109 195.548 473.743 193.343 473.743 192.371C473.743 186.474 464.658 181.527 459.743 184.748ZM168.285 188.334C170.25 188.827 170.457 189.219 169.535 190.695C168.421 192.48 159.763 193.177 159.749 191.484C159.746 191.072 160.141 190.734 160.626 190.734C161.112 190.734 161.76 189.776 162.067 188.604C162.454 187.123 163.127 186.667 164.276 187.108C165.185 187.457 166.989 188.009 168.285 188.334ZM174.743 192.851C174.743 194.569 174.273 194.877 172.243 194.489C170.868 194.226 169.743 194.474 169.743 195.039C169.743 195.605 169.536 195.86 169.283 195.607C169.029 195.354 169.082 194.154 169.399 192.94C170.196 189.894 174.743 189.818 174.743 192.851ZM212.933 195.734C214.851 202.321 214.471 211.802 212.128 215.814C210.056 219.363 196.654 227.415 194.764 226.247C192.405 224.789 194.234 223.009 201.971 219.234C211.711 214.482 212.344 213.151 210.923 200.415L210.011 192.234L209.877 202.433L209.743 212.632L206.493 215.071C203.099 217.619 192.743 223.087 192.743 222.333C192.743 222.093 192.482 221.216 192.162 220.383C191.732 219.262 193.548 217.96 199.162 215.367L206.743 211.864L206.55 203.049C206.384 195.427 206.315 195.114 206.045 200.734C205.554 210.913 205.518 210.974 197.636 214.775L190.462 218.234L191.133 236.365C191.684 251.283 191.56 254.59 190.428 255.024C189.322 255.449 188.709 251.487 187.289 234.724C186.319 223.268 185.826 213.409 186.193 212.815C186.56 212.22 189.448 211.734 192.611 211.734C201.209 211.734 202.171 210.639 202.593 200.371C202.914 192.56 203.123 191.817 205.093 191.488C210.617 190.566 211.579 191.087 212.933 195.734ZM171.243 192.734C171.583 193.284 172.059 193.734 172.302 193.734C172.545 193.734 172.743 193.284 172.743 192.734C172.743 192.184 172.266 191.734 171.684 191.734C171.102 191.734 170.903 192.184 171.243 192.734ZM164.743 195.234C164.743 197.176 164.23 197.734 162.443 197.734C158.55 197.734 156.19 194.286 159.493 193.423C163.649 192.337 164.743 192.715 164.743 195.234ZM162.076 195.401C162.443 195.767 163.043 195.767 163.41 195.401C163.776 195.034 163.476 194.734 162.743 194.734C162.01 194.734 161.71 195.034 162.076 195.401ZM169.698 197.877C169.731 196.147 170.164 195.682 171.325 196.127C172.195 196.461 173.379 196.734 173.956 196.734C175.501 196.734 174.148 203.629 172.174 205.81C170.631 207.516 170.657 207.859 172.57 210.955C174.231 213.642 174.754 216.737 175.325 227.253L176.029 240.234L173.894 238.336C172.171 236.805 162.007 222.598 159.461 218.162C159.122 217.573 159.497 215.834 160.294 214.298C162.546 209.958 162.042 207.551 158.161 204.098C155.002 201.288 154.716 200.654 155.74 198.739C156.841 196.683 157.002 196.658 158.782 198.27C161.224 200.479 165.36 199.5 166.337 196.482C167.043 194.301 167.104 194.324 168.359 197.234C169.547 199.989 169.656 200.042 169.698 197.877ZM453.781 196.734C455.428 196.734 459.743 201.827 459.743 203.771C459.743 204.841 460.643 206.279 461.743 206.966C464.246 208.529 464.243 209.282 461.725 212.483C460.511 214.028 459.947 215.801 460.308 216.939C460.638 217.979 460.473 219.371 459.941 220.032C459.409 220.693 458.64 222.809 458.233 224.734C457.825 226.659 456.986 228.565 456.367 228.969C454.425 230.238 449.281 229.799 446.949 228.166L444.71 226.597L447.708 222.96L450.706 219.323L448.724 217.214C447.106 215.491 446.743 213.705 446.743 207.46C446.743 200.406 446.956 199.618 449.491 197.267C451.002 195.866 452.389 195.173 452.574 195.727C452.759 196.281 453.302 196.734 453.781 196.734ZM166.743 202.234C166.743 203.127 167.653 203.728 168.993 203.719C170.644 203.707 170.88 203.474 169.88 202.84C168.729 202.111 168.729 201.892 169.88 201.434C170.665 201.122 170.289 200.858 168.993 200.813C167.625 200.765 166.743 201.322 166.743 202.234ZM447.743 204.734C447.743 205.467 448.043 205.767 448.41 205.401C448.776 205.034 448.776 204.434 448.41 204.067C448.043 203.701 447.743 204.001 447.743 204.734ZM450.96 204.984C449.367 206.922 449.107 209.979 450.494 210.464C451.271 210.736 451.526 210.331 451.167 209.396C450.849 208.568 451.089 206.955 451.701 205.812C452.938 203.501 452.543 203.059 450.96 204.984ZM455.243 205.734C454.903 206.284 455.102 206.734 455.684 206.734C456.266 206.734 456.743 206.284 456.743 205.734C456.743 205.184 456.545 204.734 456.302 204.734C456.059 204.734 455.583 205.184 455.243 205.734ZM180.013 224.484C180.324 230.947 181.331 241.989 182.251 249.023C183.567 259.088 183.665 262.123 182.711 263.273C180.755 265.629 179.743 264.972 179.743 261.344C179.743 259.48 179.04 254.252 178.182 249.725C177.323 245.199 176.862 240.867 177.156 240.1C177.451 239.333 177.276 233.231 176.768 226.541C175.818 214.017 175.946 212.734 178.155 212.734C179.108 212.734 179.597 215.829 180.013 224.484ZM184.736 218.984C184.732 222.422 185.454 232.332 186.339 241.007C187.628 253.632 187.701 257.08 186.704 258.281C186.019 259.107 185.293 259.617 185.091 259.416C184.547 258.871 180.771 221.917 180.756 216.984C180.745 213.396 181.055 212.734 182.743 212.734C184.53 212.734 184.742 213.398 184.736 218.984ZM451.743 214.734C450.45 215.569 450.477 215.705 451.934 215.719C452.864 215.727 453.903 215.284 454.243 214.734C455.025 213.468 453.701 213.468 451.743 214.734ZM213.274 220.306C210.759 224.976 196.243 232.277 196.243 228.873C196.243 228.124 198.614 226.627 201.511 225.546C204.409 224.465 208.459 221.928 210.511 219.907C214.993 215.496 215.802 215.613 213.274 220.306ZM152.743 220.069C152.743 220.452 154.289 223.12 156.179 225.999C160.853 233.12 163.816 242.509 164.7 252.999C165.493 262.394 166.756 265.924 166.723 258.651C166.691 251.567 164.934 241.32 162.75 235.481C161.008 230.825 152.743 218.096 152.743 220.069ZM274.743 223.234C274.743 226.715 274.719 226.734 270.243 226.734C265.767 226.734 265.743 226.715 265.743 223.234C265.743 219.753 265.767 219.734 270.243 219.734C274.719 219.734 274.743 219.753 274.743 223.234ZM150.148 221.889C149.705 222.604 149.873 222.772 150.588 222.329C151.223 221.937 151.743 221.418 151.743 221.175C151.743 220.341 150.86 220.736 150.148 221.889ZM292.243 221.555C295.449 222.121 296.31 222.735 296.583 224.65C296.92 227.022 296.871 227.035 290.083 226.394C286.321 226.039 281.556 225.745 279.493 225.741C276.162 225.735 275.743 225.455 275.743 223.234C275.743 220.828 275.978 220.736 281.993 220.792C285.431 220.823 290.043 221.167 292.243 221.555ZM143.671 227.513C139.294 232.178 139.29 232.189 143.321 228.448C147.927 224.174 149.226 224.276 152.567 229.169C156.63 235.121 157.926 241.258 157.967 254.734C158.001 266.15 158.085 266.714 158.934 261.234C161.206 246.578 158.397 233.398 151.484 226.28L148.1 222.795L143.671 227.513ZM195.669 239.008C195.628 242.982 195.257 248.259 194.845 250.734L194.095 255.234L193.465 250.734C193.119 248.259 192.586 241.509 192.281 235.734L191.726 225.234L193.734 228.508C195.284 231.034 195.726 233.433 195.669 239.008ZM177.225 253.116C179.034 264.641 178.809 265.681 174.493 265.719C172.995 265.732 172.743 264.746 172.743 258.87C172.743 252.56 171.593 244.041 170.102 239.305C169.564 237.595 169.836 237.652 172.506 239.805C175.256 242.023 175.665 243.178 177.225 253.116ZM153.064 245.694C149.769 254.424 138.788 271.556 131.934 278.659L124.626 286.234L130.031 278.234C133.004 273.834 139.186 263.587 143.769 255.464C149.508 245.292 152.425 241.016 153.137 241.728C153.849 242.44 153.826 243.675 153.064 245.694ZM406.37 250.028L414.743 249.437V253.657V257.878L408.993 257.065C405.83 256.618 400.768 256.316 397.743 256.395C394.718 256.473 393.096 256.311 394.138 256.034C395.662 255.63 395.76 255.358 394.638 254.648C393.64 254.016 393.599 253.76 394.493 253.749C396.731 253.722 395.809 251.738 393.493 251.598L391.243 251.462L393.493 251.028C394.976 250.743 395.766 249.852 395.811 248.414L395.878 246.234L396.938 248.426C397.94 250.5 398.451 250.587 406.37 250.028ZM193.097 258.255C192.279 260.385 184.614 265.772 183.436 265.044C182.883 264.702 184.527 262.442 187.089 260.021C191.488 255.865 194.335 255.028 193.097 258.255ZM194.743 262.711C194.743 265.986 191.929 268.484 187.709 268.958C183.98 269.376 184.732 267.311 189.743 263.373C192.218 261.428 194.355 259.814 194.493 259.785C194.631 259.757 194.743 261.074 194.743 262.711ZM183.743 268.127C183.743 270.98 180.941 272.36 179.029 270.448C177.117 268.536 178.497 265.734 181.35 265.734C183.207 265.734 183.743 266.27 183.743 268.127ZM181.743 274.095C181.743 276.047 174.912 286.147 172.626 287.575C171.223 288.451 170.152 288.488 168.698 287.71C166.828 286.709 167.098 286.196 172.925 279.687C178.911 273.002 181.743 271.206 181.743 274.095ZM429.743 279.234C429.743 279.509 429.968 279.734 430.243 279.734C430.518 279.734 430.743 279.509 430.743 279.234C430.743 278.959 430.518 278.734 430.243 278.734C429.968 278.734 429.743 278.959 429.743 279.234ZM461.839 278.734C461.803 279.009 462.411 281.259 463.191 283.734C463.971 286.209 464.619 287.334 464.631 286.234C464.65 284.492 462.014 277.41 461.839 278.734ZM437.743 280.234C437.743 280.509 437.968 280.734 438.243 280.734C438.518 280.734 438.743 280.509 438.743 280.234C438.743 279.959 438.518 279.734 438.243 279.734C437.968 279.734 437.743 279.959 437.743 280.234ZM445.938 283.234C445.958 284.884 446.182 285.438 446.436 284.465C446.69 283.492 446.673 282.142 446.399 281.465C446.125 280.788 445.918 281.584 445.938 283.234ZM428.901 283.734C428.901 285.109 429.128 285.672 429.405 284.984C429.683 284.297 429.683 283.172 429.405 282.484C429.128 281.797 428.901 282.359 428.901 283.734ZM451.743 285.735C451.743 287.936 451.042 304.398 450.186 322.319C448.466 358.309 448.638 366.539 450.614 342.734C452.09 324.942 453.345 281.734 452.386 281.734C452.032 281.734 451.743 283.534 451.743 285.735ZM456.822 283.317C456.87 284.482 457.107 284.719 457.426 283.922C457.715 283.2 457.679 282.337 457.347 282.005C457.015 281.673 456.779 282.263 456.822 283.317ZM436.938 285.234C436.958 286.884 437.182 287.438 437.436 286.465C437.69 285.492 437.673 284.142 437.399 283.465C437.125 282.788 436.918 283.584 436.938 285.234ZM457.743 287.877C457.743 301.629 464.174 346.414 466.721 350.399C467.818 352.115 467.851 352.104 467.237 350.234C465.621 345.309 463.69 332.463 461.228 310.234C458.783 288.173 457.743 281.499 457.743 287.877ZM425.839 296.722C420.746 318.48 411.27 343.086 404.188 352.944C402.217 355.686 400.792 358.117 401.02 358.345C401.866 359.191 410.002 346.457 413.712 338.48C419.89 325.198 429.466 292.656 428.556 288.038C428.384 287.165 427.161 291.073 425.839 296.722ZM443.483 298.312C442.515 304.319 439.255 320.673 436.237 334.655C433.22 348.636 430.928 360.253 431.144 360.469C432.739 362.064 446.152 296.65 445.53 290.312C445.372 288.704 444.451 292.304 443.483 298.312ZM434.851 295.734C431.349 315.443 422.615 345.133 417.143 355.931C415.804 358.573 414.934 360.734 415.209 360.734C416.066 360.734 420.756 350.871 424.187 341.857C429.537 327.799 437.452 294.516 436.53 289.95C436.34 289.006 435.584 291.609 434.851 295.734ZM464.901 290.734C464.901 292.109 465.128 292.672 465.405 291.984C465.683 291.297 465.683 290.172 465.405 289.484C465.128 288.797 464.901 289.359 464.901 290.734ZM181.426 295.922C181.107 296.719 180.87 296.482 180.822 295.317C180.779 294.263 181.015 293.673 181.347 294.005C181.679 294.337 181.715 295.2 181.426 295.922ZM322.743 365.734C322.743 368.39 322.404 368.734 319.79 368.734C312.939 368.734 308.836 364.221 314.993 363.457C322.667 362.505 322.743 362.527 322.743 365.734ZM415.993 364.364C419.156 364.72 421.743 365.144 421.743 365.305C421.743 365.466 417.175 374.227 411.593 384.773L401.443 403.947L397.912 403.374C391.145 402.276 391.146 402.054 398.004 381.385L404.243 362.585L407.243 363.151C408.893 363.462 412.83 364.008 415.993 364.364ZM255.618 364.359C260.045 365.244 259.496 366.734 254.743 366.734C251.854 366.734 250.743 366.317 250.743 365.234C250.743 363.551 251.184 363.472 255.618 364.359ZM185.743 393.234V396.734H180.243H174.743V393.234V389.734H180.243H185.743V393.234ZM145.993 392.376C149.097 392.889 149.743 393.404 149.743 395.365C149.743 397.57 149.362 397.734 144.243 397.734C138.799 397.734 138.743 397.704 138.743 394.734C138.743 391.465 139.33 391.274 145.993 392.376Z" fill="white"/>
</g>
<defs>
<clipPath id="clip0_435_1932">
<rect width="590" height="552" fill="white"/>
</clipPath>
</defs>
</svg>
