<svg width="590" height="552" viewBox="0 0 590 552" fill="none" xmlns="http://www.w3.org/2000/svg">
<g clip-path="url(#clip0_435_109)">
<rect width="590" height="552" fill="#171B16"/>
<rect width="45.1425" height="45.1425" transform="matrix(4.37114e-08 -1 -1 -4.37114e-08 45.582 177.858)" fill="#30F443"/>
<path d="M45.582 87.5727L45.582 102.62L30.5345 102.62L30.5345 117.668L15.487 117.668L15.487 132.715L0.439551 132.715L0.439552 87.5727L45.582 87.5727Z" fill="white"/>
<path d="M113.295 -2.71225L135.867 19.859L113.295 42.4302L90.7242 19.859L113.295 -2.71225Z" fill="#30F443"/>
<path d="M45.5815 177.858C33.1158 177.858 23.0103 187.963 23.0103 200.429C23.0103 212.895 33.1158 223 45.5815 223L45.5815 209.31C40.6767 209.31 36.7005 205.334 36.7005 200.429C36.7005 195.524 40.6767 191.548 45.5815 191.548L45.5815 177.858Z" fill="#30F443"/>
<path d="M0.439447 223C12.9052 223 23.0107 212.895 23.0107 200.429C23.0107 187.963 12.9052 177.858 0.439453 177.858L0.439451 191.548C5.34434 191.548 9.32053 195.524 9.32053 200.429C9.32053 205.334 5.34434 209.31 0.439449 209.31L0.439447 223Z" fill="#30F443"/>
<path d="M135.867 -2.71216C135.867 9.75359 145.972 19.8591 158.438 19.8591C170.904 19.8591 181.009 9.75359 181.009 -2.71216L167.319 -2.71216C167.319 2.19273 163.343 6.16892 158.438 6.16892C153.533 6.16892 149.557 2.19273 149.557 -2.71216L135.867 -2.71216Z" fill="#30F443"/>
<path d="M181.009 42.4302C181.009 29.9645 170.904 19.859 158.438 19.859C145.972 19.859 135.867 29.9645 135.867 42.4302L149.557 42.4302C149.557 37.5254 153.533 33.5492 158.438 33.5492C163.343 33.5492 167.319 37.5254 167.319 42.4302L181.009 42.4302Z" fill="#30F443"/>
<path d="M76.2708 118.262L68.1529 132.715L60.035 118.262L45.5816 110.144L60.035 102.026L68.1529 87.5727L76.2708 102.026L90.7241 110.144L76.2708 118.262Z" fill="#30F443"/>
<path fill-rule="evenodd" clip-rule="evenodd" d="M41.7429 61.1628C43.8629 61.1628 45.5815 62.8814 45.5815 65.0014C45.5815 67.1215 43.8629 68.8401 41.7429 68.8401L37.5349 68.8401L41.1934 70.9191C43.0366 71.9665 43.6817 74.3099 42.6343 76.1531C41.5869 77.9963 39.2435 78.6413 37.4003 77.5939L33.2368 75.2279L35.6029 79.3915C36.6503 81.2347 36.0052 83.5781 34.162 84.6255C32.3188 85.6729 29.9755 85.0278 28.928 83.1846L26.8489 79.526L26.8489 83.7339C26.8489 85.854 25.1303 87.5726 23.0103 87.5726C20.8903 87.5726 19.1717 85.854 19.1717 83.7339L19.1717 79.5257L17.0925 83.1844C16.0451 85.0276 13.7018 85.6727 11.8586 84.6253C10.0154 83.5778 9.37029 81.2345 10.4177 79.3913L12.7835 75.2282L8.62031 77.594C6.7771 78.6415 4.43378 77.9964 3.38635 76.1532C2.33891 74.31 2.98401 71.9667 4.82721 70.9192L8.48591 68.8401L4.27771 68.8401C2.15768 68.8401 0.439061 67.1215 0.439061 65.0014C0.439061 62.8814 2.15768 61.1628 4.27771 61.1628L8.48605 61.1628L4.82721 59.0836C2.98401 58.0362 2.33891 55.6928 3.38635 53.8496C4.43379 52.0064 6.77711 51.3613 8.62031 52.4088L12.7835 54.7746L10.4177 50.6115C9.37029 48.7683 10.0154 46.425 11.8586 45.3776C13.7018 44.3301 16.0451 44.9752 17.0925 46.8184L19.1717 50.4771L19.1717 46.2687C19.1717 44.1487 20.8903 42.4301 23.0103 42.4301C25.1303 42.4301 26.8489 44.1487 26.8489 46.2687L26.8489 50.4768L28.928 46.8182C29.9755 44.975 32.3188 44.3299 34.162 45.3773C36.0052 46.4247 36.6503 48.7681 35.6029 50.6113L33.2368 54.7749L37.4003 52.4089C39.2435 51.3615 41.5869 52.0066 42.6343 53.8498C43.6817 55.693 43.0366 58.0363 41.1934 59.0837L37.5348 61.1628L41.7429 61.1628Z" fill="#30F443"/>
<path d="M68.1533 79.2626C65.8217 84.3343 62.2725 87.5727 58.2972 87.5727C51.2748 87.5727 45.582 77.4672 45.582 65.0015C45.582 52.5357 51.2748 42.4302 58.2972 42.4302C62.2724 42.4302 65.8217 45.6686 68.1533 50.7403C70.4849 45.6686 74.0341 42.4302 78.0094 42.4302C85.0317 42.4302 90.7245 52.5357 90.7245 65.0015C90.7245 77.4672 85.0318 87.5727 78.0094 87.5727C74.0341 87.5727 70.4849 84.3343 68.1533 79.2626Z" fill="white"/>
<path d="M70.6546 13.8193C70.3509 4.28619 69.3459 -2.71224 68.1529 -2.71224C66.9599 -2.71224 65.9549 4.28619 65.6512 13.8193C58.6955 7.29314 53.0362 3.05515 52.1926 3.89873C51.349 4.7423 55.587 10.4016 62.1132 17.3573C52.5801 17.661 45.5816 18.666 45.5816 19.859C45.5816 21.052 52.5801 22.057 62.1132 22.3607C55.587 29.3164 51.349 34.9757 52.1926 35.8193C53.0362 36.6628 58.6955 32.4249 65.6512 25.8987C65.9549 35.4318 66.9599 42.4302 68.1529 42.4302C69.3459 42.4302 70.3509 35.4318 70.6546 25.8987C77.6103 32.4249 83.2696 36.6629 84.1132 35.8193C84.9567 34.9757 80.7187 29.3164 74.1926 22.3607C83.7257 22.057 90.7241 21.052 90.7241 19.859C90.7241 18.666 83.7257 17.661 74.1926 17.3573C80.7188 10.4016 84.9567 4.74229 84.1132 3.89872C83.2696 3.05515 77.6103 7.29314 70.6546 13.8193Z" fill="#30F443"/>
<path fill-rule="evenodd" clip-rule="evenodd" d="M101.003 52.8855L101.39 42.4303L113.571 54.1731L125.752 42.4302L126.14 52.8849L136.143 54.0706L124.804 65.0015L136.143 75.9323L126.14 77.1181L125.752 87.5728L113.571 75.8298L101.39 87.5727L101.003 77.1174L91.0001 75.9322L102.339 65.0015L91.0001 54.0707L101.003 52.8855Z" fill="#30F443"/>
<path fill-rule="evenodd" clip-rule="evenodd" d="M39.563 19.859C39.563 29.0005 32.1523 36.4112 23.0108 36.4112C13.8692 36.4112 6.45854 29.0005 6.45854 19.859C6.45855 10.7174 13.8692 3.30675 23.0108 3.30675C32.1523 3.30675 39.563 10.7174 39.563 19.859ZM23.0108 42.4302C35.4765 42.4302 45.582 32.3247 45.582 19.859C45.582 7.39324 35.4765 -2.71225 23.0108 -2.71225C10.545 -2.71225 0.439545 7.39324 0.439544 19.859C0.439544 32.3247 10.545 42.4302 23.0108 42.4302Z" fill="white"/>
<path fill-rule="evenodd" clip-rule="evenodd" d="M29.0065 19.8589C29.0065 23.1702 26.3222 25.8544 23.011 25.8544C19.6998 25.8544 17.0155 23.1702 17.0155 19.8589C17.0155 16.5477 19.6998 13.8635 23.011 13.8635C26.3222 13.8635 29.0065 16.5477 29.0065 19.8589ZM23.011 31.8499C29.6334 31.8499 35.002 26.4814 35.002 19.8589C35.002 13.2365 29.6334 7.86797 23.011 7.86797C16.3886 7.86797 11.02 13.2365 11.02 19.8589C11.02 26.4814 16.3886 31.8499 23.011 31.8499Z" fill="#30F443"/>
<path d="M45.3741 155.308C45.3741 142.842 55.4796 132.736 67.9454 132.736C80.4111 132.736 90.5166 142.842 90.5166 155.308L67.9454 155.308L67.9454 177.879C55.4796 177.879 45.3741 167.773 45.3741 155.308Z" fill="white"/>
<rect x="544.427" y="177.858" width="45.1425" height="45.1425" transform="rotate(-90 544.427 177.858)" fill="#30F443"/>
<path d="M544.427 87.5727L544.427 102.62L559.475 102.62L559.475 117.668L574.522 117.668L574.522 132.715L589.57 132.715L589.57 87.5727L544.427 87.5727Z" fill="white"/>
<path d="M476.714 -2.71225L454.143 19.859L476.714 42.4302L499.285 19.859L476.714 -2.71225Z" fill="#30F443"/>
<path d="M544.428 177.858C556.893 177.858 566.999 187.963 566.999 200.429C566.999 212.895 556.893 223 544.428 223L544.428 209.31C549.333 209.31 553.309 205.334 553.309 200.429C553.309 195.524 549.333 191.548 544.428 191.548L544.428 177.858Z" fill="#30F443"/>
<path d="M589.57 223C577.104 223 566.999 212.895 566.999 200.429C566.999 187.963 577.104 177.858 589.57 177.858L589.57 191.548C584.665 191.548 580.689 195.524 580.689 200.429C580.689 205.334 584.665 209.31 589.57 209.31L589.57 223Z" fill="#30F443"/>
<path d="M454.142 -2.71216C454.142 9.75359 444.037 19.8591 431.571 19.8591C419.105 19.8591 409 9.75359 409 -2.71216L422.69 -2.71216C422.69 2.19273 426.666 6.16892 431.571 6.16892C436.476 6.16892 440.452 2.19273 440.452 -2.71216L454.142 -2.71216Z" fill="#30F443"/>
<path d="M409 42.4302C409 29.9645 419.106 19.859 431.571 19.859C444.037 19.859 454.143 29.9645 454.143 42.4302L440.452 42.4302C440.452 37.5254 436.476 33.5492 431.571 33.5492C426.666 33.5492 422.69 37.5254 422.69 42.4302L409 42.4302Z" fill="#30F443"/>
<path d="M513.738 118.262L521.856 132.715L529.974 118.262L544.428 110.144L529.974 102.026L521.856 87.5727L513.738 102.026L499.285 110.144L513.738 118.262Z" fill="#30F443"/>
<path fill-rule="evenodd" clip-rule="evenodd" d="M548.266 61.1628C546.146 61.1628 544.428 62.8814 544.428 65.0014C544.428 67.1215 546.146 68.8401 548.266 68.8401L552.474 68.8401L548.816 70.9191C546.973 71.9665 546.328 74.3099 547.375 76.1531C548.422 77.9963 550.766 78.6413 552.609 77.5939L556.772 75.2279L554.406 79.3915C553.359 81.2347 554.004 83.5781 555.847 84.6255C557.69 85.6729 560.034 85.0278 561.081 83.1846L563.16 79.526L563.16 83.7339C563.16 85.854 564.879 87.5726 566.999 87.5726C569.119 87.5726 570.838 85.854 570.838 83.7339L570.838 79.5257L572.917 83.1844C573.964 85.0276 576.307 85.6727 578.151 84.6253C579.994 83.5778 580.639 81.2345 579.592 79.3913L577.226 75.2282L581.389 77.594C583.232 78.6415 585.575 77.9964 586.623 76.1532C587.67 74.31 587.025 71.9667 585.182 70.9192L581.523 68.8401L585.732 68.8401C587.852 68.8401 589.57 67.1215 589.57 65.0014C589.57 62.8814 587.852 61.1628 585.732 61.1628L581.523 61.1628L585.182 59.0836C587.025 58.0362 587.67 55.6928 586.623 53.8496C585.575 52.0064 583.232 51.3613 581.389 52.4088L577.226 54.7746L579.592 50.6115C580.639 48.7683 579.994 46.425 578.151 45.3776C576.307 44.3301 573.964 44.9752 572.917 46.8184L570.838 50.4771L570.838 46.2687C570.838 44.1487 569.119 42.4301 566.999 42.4301C564.879 42.4301 563.16 44.1487 563.16 46.2687L563.16 50.4768L561.081 46.8182C560.034 44.975 557.69 44.3299 555.847 45.3773C554.004 46.4247 553.359 48.7681 554.406 50.6113L556.772 54.7749L552.609 52.4089C550.766 51.3615 548.422 52.0066 547.375 53.8498C546.328 55.693 546.973 58.0363 548.816 59.0837L552.474 61.1628L548.266 61.1628Z" fill="#30F443"/>
<path d="M521.856 79.2626C524.188 84.3343 527.737 87.5727 531.712 87.5727C538.734 87.5727 544.427 77.4672 544.427 65.0015C544.427 52.5357 538.734 42.4302 531.712 42.4302C527.737 42.4302 524.188 45.6686 521.856 50.7403C519.524 45.6686 515.975 42.4302 512 42.4302C504.978 42.4302 499.285 52.5357 499.285 65.0015C499.285 77.4672 504.978 87.5727 512 87.5727C515.975 87.5727 519.524 84.3343 521.856 79.2626Z" fill="white"/>
<path d="M519.355 13.8193C519.658 4.28619 520.663 -2.71224 521.856 -2.71224C523.049 -2.71224 524.054 4.28619 524.358 13.8193C531.314 7.29314 536.973 3.05515 537.817 3.89873C538.66 4.7423 534.422 10.4016 527.896 17.3573C537.429 17.661 544.428 18.666 544.428 19.859C544.428 21.052 537.429 22.057 527.896 22.3607C534.422 29.3164 538.66 34.9757 537.817 35.8193C536.973 36.6628 531.314 32.4249 524.358 25.8987C524.054 35.4318 523.049 42.4302 521.856 42.4302C520.663 42.4302 519.658 35.4318 519.355 25.8987C512.399 32.4249 506.74 36.6629 505.896 35.8193C505.053 34.9757 509.291 29.3164 515.817 22.3607C506.284 22.057 499.285 21.052 499.285 19.859C499.285 18.666 506.284 17.661 515.817 17.3573C509.291 10.4016 505.053 4.74229 505.896 3.89872C506.74 3.05515 512.399 7.29314 519.355 13.8193Z" fill="#30F443"/>
<path fill-rule="evenodd" clip-rule="evenodd" d="M489.006 52.8855L488.619 42.4303L476.438 54.1731L464.257 42.4302L463.869 52.8849L453.867 54.0706L465.206 65.0015L453.867 75.9323L463.869 77.1181L464.257 87.5728L476.438 75.8298L488.619 87.5727L489.006 77.1174L499.009 75.9322L487.671 65.0015L499.009 54.0707L489.006 52.8855Z" fill="#30F443"/>
<path fill-rule="evenodd" clip-rule="evenodd" d="M550.446 19.859C550.446 29.0005 557.857 36.4112 566.998 36.4112C576.14 36.4112 583.551 29.0005 583.551 19.859C583.551 10.7174 576.14 3.30675 566.998 3.30675C557.857 3.30675 550.446 10.7174 550.446 19.859ZM566.998 42.4302C554.533 42.4302 544.427 32.3247 544.427 19.859C544.427 7.39324 554.533 -2.71225 566.998 -2.71225C579.464 -2.71225 589.57 7.39324 589.57 19.859C589.57 32.3247 579.464 42.4302 566.998 42.4302Z" fill="white"/>
<path fill-rule="evenodd" clip-rule="evenodd" d="M561.003 19.8589C561.003 23.1702 563.687 25.8544 566.998 25.8544C570.31 25.8544 572.994 23.1702 572.994 19.8589C572.994 16.5477 570.31 13.8635 566.998 13.8635C563.687 13.8635 561.003 16.5477 561.003 19.8589ZM566.998 31.8499C560.376 31.8499 555.007 26.4814 555.007 19.8589C555.007 13.2365 560.376 7.86797 566.998 7.86797C573.621 7.86797 578.989 13.2365 578.989 19.8589C578.989 26.4814 573.621 31.8499 566.998 31.8499Z" fill="#30F443"/>
<path d="M544.635 155.308C544.635 142.842 534.53 132.736 522.064 132.736C509.598 132.736 499.493 142.842 499.493 155.308L522.064 155.308L522.064 177.879C534.53 177.879 544.635 167.773 544.635 155.308Z" fill="white"/>
<path fill-rule="evenodd" clip-rule="evenodd" d="M365.838 72.7906C358.543 80.0856 365.222 95.1786 376.768 97.4886L379.891 98.1126L379.457 110.971C379.13 120.661 379.335 124.019 380.29 124.599C380.988 125.022 382.56 127.468 383.786 130.035C386.259 135.217 388.551 137.08 394.737 138.933C398.801 140.15 400.195 142.185 397.665 143.206C396.665 143.609 396.665 143.726 397.665 143.789C398.353 143.832 398.915 144.549 398.915 145.382C398.915 146.214 399.335 147.677 399.849 148.632C400.897 150.582 402.915 158.925 402.915 161.311C402.915 162.573 402.536 162.489 400.915 160.868C399.757 159.71 398.915 157.535 398.915 155.701C398.915 149.967 398.168 153.22 397.614 161.368C397.315 165.768 397.373 167.829 397.743 165.947C398.112 164.066 398.874 162.376 399.434 162.191C400.844 161.727 403.764 167.632 404.219 171.868L404.595 175.368L404.755 171.792C404.862 169.403 405.754 167.429 407.442 165.842L409.97 163.468L412.418 165.918L414.866 168.368L411.906 177.57C406.222 195.239 403.039 215.226 401.316 244.061C400.778 253.059 400.553 253.875 398.172 255.435L395.607 257.116L396.29 248.919C396.666 244.411 398.536 227.237 400.444 210.755C403.593 183.57 404.442 173.591 403.372 176.368C402.489 178.658 396.908 226.585 395.803 241.368C395.145 250.168 394.271 257.75 393.862 258.217C391.803 260.564 391.816 238.713 393.891 209.476C395.093 192.547 395.815 178.434 395.495 178.115C395.176 177.796 394.906 178.847 394.894 180.451C394.883 182.056 393.992 193.943 392.915 206.868C391.838 219.793 390.886 233.968 390.799 238.368C390.597 248.72 390.404 247.536 386.983 214.92L384.104 187.472L388.259 183.711L392.415 179.95L387.665 179.909C385.052 179.886 382.915 179.44 382.915 178.918C382.915 178.395 384.496 173.601 386.428 168.264C388.36 162.927 389.761 158.38 389.541 158.161C389.064 157.684 383.003 174.197 382.217 178.118C381.692 180.735 381.852 180.87 385.54 180.909L389.415 180.949L386.05 183.827L382.685 186.706L384.335 204.037C386.136 222.947 389.597 252.784 390.485 257.046L391.042 259.725L385.729 258.092C382.806 257.194 380.323 256.422 380.211 256.377C380.099 256.331 380.646 252.711 381.426 248.331C383.717 235.474 383.279 213.507 380.469 200.368C379.078 193.859 378.092 190.797 378.056 192.868C378.022 194.793 378.848 200.418 379.892 205.368L381.79 214.368L376.102 220.167C366.747 229.707 360.385 231.921 317.897 240.421C315.919 240.817 315.031 240.329 313.752 238.146C311.831 234.866 305.915 218.348 305.915 216.264C305.915 214.318 308.315 213.485 330.415 207.769C342.944 204.528 349.861 202.26 350.725 201.111C351.446 200.152 355.456 192.843 359.637 184.868C366.807 171.192 374.082 158.932 377.772 154.309C378.676 153.177 377.731 154.077 375.672 156.309C372.179 160.097 367.103 168.642 354.55 191.868L349.415 201.368L334.915 205.059C309.63 211.495 307.533 212.159 305.244 214.448C304.011 215.681 301.633 216.991 299.959 217.358C298.285 217.726 296.915 218.666 296.915 219.447C296.915 220.302 295.819 220.915 294.165 220.986L291.415 221.105L294.273 221.736C296.684 222.269 297.503 223.362 299.523 228.74C300.838 232.244 301.915 235.498 301.915 235.969C301.915 236.441 300.086 237.76 297.852 238.9L293.788 240.973L294.946 238.81C295.961 236.914 295.648 236.179 292.418 232.871C289.827 230.217 289.13 228.937 290.073 228.561C290.886 228.237 290.615 227.995 289.388 227.947C288.272 227.904 286.359 227.167 285.135 226.31C283.032 224.837 282.857 224.891 281.937 227.31C280.526 231.022 276.915 230.816 276.915 227.023C276.915 222.914 279.577 221.038 285.927 220.674L291.415 220.359L286.518 219.845C283.534 219.531 280.799 219.811 279.518 220.56C276.412 222.376 276.094 222.477 267.599 224.348C263.3 225.295 259.972 226.258 260.202 226.489C260.433 226.719 263.632 226.209 267.312 225.356C274.277 223.74 276.196 223.972 275.294 226.322C274.49 228.417 276.73 231.868 278.893 231.868C279.943 231.868 281.422 230.982 282.181 229.899C283.475 228.051 283.708 228.03 285.987 229.553C290.052 232.268 293.915 236.168 293.915 237.555C293.915 239.311 290.767 239.223 288.356 237.4C284.768 234.686 283.449 235.833 286.871 238.691C288.895 240.379 289.96 241.986 289.525 242.691C288.24 244.769 285.354 243.953 283.073 240.868C281.853 239.218 280.017 237.868 278.992 237.868C277.967 237.868 276.87 237.193 276.553 236.368C275.825 234.471 271.508 234.418 269.643 236.283C268.865 237.061 267.662 239.064 266.971 240.733C266.082 242.879 264.497 244.225 261.564 245.324C259.179 246.219 258.69 246.582 260.415 246.18C265.525 244.987 272.175 245.765 274.377 247.813C276.499 249.785 281.059 249.673 283.699 247.583C284.405 247.024 288.905 244.677 293.699 242.367C300.234 239.218 302.816 238.417 304.018 239.166C305.096 239.839 306.629 239.815 308.697 239.094C311.391 238.155 311.95 238.287 313.196 240.165C314.571 242.235 314.868 242.265 322.017 241.055C336.839 238.544 360.198 232.909 364.584 230.786C367.057 229.589 371.69 226.193 374.881 223.239C378.072 220.285 381.025 217.868 381.445 217.868C382.439 217.868 381.099 240.354 379.568 249.368L378.379 256.368L371.397 257.665C356.089 260.509 339.043 265.208 332.2 268.47C321.609 273.519 317.051 280.473 316.959 291.725C316.921 296.409 316.695 296.997 315.165 296.406C314.202 296.035 308.24 294.151 301.915 292.219C290.387 288.699 285.136 288.356 276.165 290.538C274.009 291.062 273.908 290.798 273.738 284.226L273.562 277.368L272.988 284.291L272.415 291.214L257.415 294.598C249.165 296.459 240.278 298.339 237.665 298.776L232.915 299.569L232.755 294.469C232.657 291.351 232.445 290.534 232.21 292.368L231.826 295.368H220.076C207.052 295.368 202.84 296.792 202.994 301.141C203.037 302.366 203.265 302.909 203.5 302.349C203.758 301.735 206.923 301.481 211.453 301.71C218.011 302.041 223.125 301.363 230.303 299.212C232.013 298.699 232.147 299.103 231.721 303.507C231.169 309.23 228.446 315.45 226.1 316.35C225.187 316.701 221.734 317.232 218.427 317.531C212.729 318.046 212.267 317.918 209.586 315.084C208.03 313.439 206.137 310.355 205.38 308.231C204.622 306.106 203.983 305.143 203.959 306.09C203.928 307.3 202.353 308.252 198.665 309.29C177.329 315.297 160.826 319.868 160.477 319.868C160.248 319.868 159.856 319.081 159.604 318.118C159.234 316.699 159.125 316.762 159.031 318.451C158.936 320.15 157.397 321.02 150.665 323.178C138.168 327.186 143.68 325.851 174.179 317.484C189.449 313.295 202.449 309.868 203.069 309.868C203.688 309.868 204.776 310.656 205.487 311.618C206.598 313.123 206.415 313.661 204.179 315.458C200.848 318.135 201.654 320.443 206.651 322.533C211.41 324.524 227.582 323.932 233.165 321.562C237.987 319.515 238.322 316.254 233.87 314.702C230.521 313.535 230.395 311.542 233.639 311.062C236.639 310.618 239.103 307.452 239.393 303.665L239.646 300.368L255.531 296.675C264.267 294.644 275.387 292.416 280.241 291.723C288.132 290.597 289.826 290.657 296.241 292.29C306.078 294.794 331.463 304.048 383.295 324.027C407.429 333.33 427.343 340.774 427.548 340.569C427.752 340.364 421.844 337.799 414.417 334.869C404.888 331.109 400.927 329.075 400.956 327.955C400.979 327.082 401.991 324.343 403.206 321.868L405.415 317.368L418.415 317.706C439.916 318.266 460.914 314.549 468.889 308.772C472.95 305.83 478.889 296.809 478.906 293.555C478.912 292.262 479.545 291.832 481.11 292.055C484.191 292.494 484.698 289.932 484.81 273.368C485.066 235.505 480.5 187.237 475.446 174.368C474.582 172.168 474.108 171.493 474.393 172.868C476.638 183.692 477.168 194.716 476.088 208.12C474.795 224.169 472.283 235.032 467.438 245.521C462.754 255.663 457.449 261.043 448.43 264.797C435.662 270.113 401.939 277.38 399.952 275.244C399.503 274.762 398.386 271.668 397.469 268.368C396.552 265.068 395.586 261.625 395.323 260.718C394.954 259.449 398.721 256.934 411.629 249.832C420.861 244.752 429.599 239.765 431.047 238.748L433.679 236.9L433.661 216.134C433.644 197.015 433.844 194.615 436.185 185.868C437.583 180.643 439.029 175.468 439.397 174.368C440.005 172.55 439.962 172.53 438.926 174.144C438.3 175.121 436.614 180.296 435.18 185.644C432.819 194.451 432.555 197.293 432.38 215.782C432.204 234.501 432.031 236.311 430.301 237.585C426.574 240.33 404.789 252.075 404.311 251.597C402.979 250.266 410.945 223.47 417.548 207.07C421.6 197.006 424.915 188.041 424.915 187.149C424.915 186.256 424.17 184.703 423.26 183.697C421.686 181.958 421.779 181.868 425.152 181.868C429.604 181.868 429.609 181.849 430.388 161.868C430.721 153.343 431.234 144.415 431.529 142.028C432.037 137.911 432.201 137.722 434.74 138.341C436.211 138.7 439.89 140.089 442.915 141.428C445.94 142.767 447.542 143.189 446.475 142.366C444.102 140.536 434.545 136.871 430.312 136.169C427.564 135.713 427.089 135.124 426.16 131.011C424.913 125.49 425.931 117.613 428.218 115.086C433.135 109.652 434.567 96.0256 430.963 88.9616C428.578 84.2876 424.374 79.1836 421.753 77.7806C420.682 77.2076 417.018 76.3026 413.611 75.7706C410.203 75.2376 404.541 73.8596 401.028 72.7076C395.248 70.8126 394.129 70.7366 389.237 71.9106C384.542 73.0366 383.137 72.9876 378.536 71.5376C371.205 69.2266 369.205 69.4236 365.838 72.7906ZM177.267 77.8206C176.086 78.3196 174.818 79.2156 174.449 79.8116C174.081 80.4086 172.03 81.7886 169.893 82.8786C166.736 84.4896 165.876 85.5656 165.31 88.6146C164.927 90.6786 163.966 93.3616 163.175 94.5776C162.076 96.2666 161.839 99.2816 162.168 107.374L162.599 117.96L166.46 121.914C168.584 124.089 171.055 125.868 171.951 125.868C176.033 125.868 174.21 127.342 167.07 129.814C153.913 134.37 144.478 141.943 133.678 156.617C125.333 167.955 122.408 181.187 120.913 214.368C120.368 226.468 119.655 237.943 119.327 239.868C119 241.793 115.819 250.976 112.258 260.275C105.644 277.547 103.654 285.971 105.866 287.338C106.552 287.762 108.167 287.072 109.649 285.723C111.81 283.755 112.125 283.674 111.565 285.227C111.196 286.25 110.73 294.35 110.53 303.227C110.33 312.105 110.336 316.668 110.542 313.368C111.441 299.032 112.83 284.24 113.423 282.701C114.351 280.292 121.113 276.087 128.772 273.156C136.889 270.05 146.417 269.724 156.138 272.221C162.431 273.837 163.07 273.841 166.138 272.278C172.685 268.944 179.034 263.555 181.033 259.636L183.078 255.628L189.063 256.305C193.903 256.853 195.848 256.608 199.231 255.024C202.759 253.373 206.55 252.965 223.415 252.418L243.415 251.769L253.233 255.779C269.64 262.48 270.722 263.54 272.205 274.368L272.615 277.368L272.76 274.368C272.981 269.763 271.172 264.458 268.536 261.982C267.226 260.751 262.282 258.076 257.55 256.036L248.945 252.328L248.614 238.521C248.379 228.709 247.914 224.485 247.008 223.925C246.307 223.492 241.137 222.593 235.52 221.927L225.306 220.717L224.145 205.542C222.837 188.46 220.226 174.398 216.55 164.629C213.803 157.331 212.136 154.424 207.081 148.118L203.674 143.868H208.344C210.913 143.868 214.342 143.181 215.965 142.342C218.635 140.961 218.925 140.321 219.016 135.592C219.072 132.719 219.041 128.951 218.948 127.219C218.855 125.487 219.256 123.775 219.84 123.415C220.541 122.981 220.225 121.436 218.908 118.853C216.376 113.891 216.054 100.828 218.415 98.8676C220.111 97.4596 220.431 93.3046 218.915 92.3676C218.365 92.0276 217.915 91.1226 217.915 90.3566C217.915 89.5906 216.271 87.3676 214.262 85.4156C211.016 82.2636 210.021 81.8676 205.345 81.8676C202.423 81.8676 199.919 81.3806 199.717 80.7736C198.936 78.4306 181.311 76.1126 177.267 77.8206ZM214.483 100.868C215.657 100.868 215.916 102.326 215.771 108.118C215.641 113.334 216.077 116.306 217.326 118.711C218.281 120.55 218.767 122.35 218.405 122.711C218.043 123.072 215.423 123.395 212.581 123.428C209.74 123.461 204.771 124.057 201.539 124.752C198.307 125.447 195.321 125.645 194.903 125.192C194.485 124.739 193.834 121.78 193.457 118.618C192.888 113.846 193.029 112.868 194.286 112.868C195.12 112.868 196.39 112.051 197.108 111.052C197.827 110.053 199.206 108.941 200.174 108.58C201.141 108.219 202.451 106.787 203.084 105.396C203.718 104.006 204.842 102.868 205.582 102.868C206.322 102.868 207.915 101.734 209.12 100.347C210.964 98.2256 211.447 98.0666 212.163 99.3466C212.631 100.184 213.675 100.868 214.483 100.868ZM398.121 99.9636C401.846 99.8606 403.044 100.241 403.871 101.785C405.536 104.898 405.182 105.382 400.28 106.693C397.731 107.374 395.889 108.176 396.187 108.473C396.484 108.77 398.457 108.536 400.571 107.951C402.685 107.367 404.544 107.27 404.701 107.737C404.858 108.203 405.625 109.436 406.404 110.476C407.739 112.259 407.858 112.183 408.488 109.14C409.448 104.5 411.439 103.127 413.934 105.385C416.307 107.533 416.411 109.438 414.413 114.219C412.917 117.799 412.924 117.821 415.913 119.367C417.564 120.221 418.915 121.594 418.915 122.418C418.915 123.243 419.983 124.323 421.288 124.82C423.24 125.562 423.881 126.887 424.899 132.282L426.137 138.842L419.045 146.436C415.144 150.613 410.502 156.269 408.729 159.006L405.505 163.982L403.256 155.675C402.02 151.106 400.987 145.736 400.962 143.74C400.908 139.603 399.79 138.393 395.091 137.388C390.715 136.451 385.22 131.535 384.406 127.827C384.049 126.201 382.853 124.238 381.75 123.465C380.089 122.301 379.936 121.697 380.864 119.963C381.749 118.31 382.94 117.868 386.516 117.868C392.785 117.868 394.918 116.523 394.9 112.583C394.877 107.857 393.953 107.052 387.896 106.484L382.415 105.97L387.665 107.06C392.903 108.147 392.915 108.158 392.915 112.009V115.868H386.415H379.915V111.927C379.915 109.759 380.366 107.707 380.917 107.367C381.49 107.013 381.654 105.087 381.3 102.875L380.681 99.0026L384.548 98.6706C386.675 98.4876 389.54 98.7336 390.915 99.2156C392.29 99.6986 395.533 100.035 398.121 99.9636ZM207.915 110.868C206.696 111.656 206.825 111.84 208.606 111.853C209.811 111.861 211.075 111.418 211.415 110.868C212.202 109.595 209.885 109.595 207.915 110.868ZM383.095 112.118C383.271 113.355 383.865 114.368 384.415 114.368C384.965 114.368 385.559 113.355 385.735 112.118C385.954 110.57 385.543 109.868 384.415 109.868C383.287 109.868 382.876 110.57 383.095 112.118ZM187.826 117.653C188.46 119.185 188.888 121.772 188.777 123.403C188.556 126.619 192.679 138.868 193.982 138.868C195.794 138.868 195.968 143.29 194.358 148.409C193.414 151.411 192.365 153.866 192.028 153.863C191.691 153.86 187.93 148.131 183.671 141.131L175.928 128.405L179.519 126.563C182.809 124.875 183.058 124.445 182.492 121.428C182.153 119.618 182.157 117.401 182.502 116.502C183.493 113.92 186.554 114.581 187.826 117.653ZM209.915 116.868C209.915 117.979 210.582 118.868 211.415 118.868C212.248 118.868 212.915 117.979 212.915 116.868C212.915 115.757 212.248 114.868 211.415 114.868C210.582 114.868 209.915 115.757 209.915 116.868ZM390.201 128.618C388.775 130.067 388.464 130.868 389.328 130.868C390.89 130.868 393.263 128.298 392.76 127.152C392.57 126.721 391.419 127.381 390.201 128.618ZM182.227 141.682C186.455 148.73 189.915 155.044 189.915 155.715C189.915 158.13 184.787 166.992 183.614 166.603C182.032 166.079 177.854 157.722 172.997 145.368C167.64 131.743 167.298 130.163 169.579 129.574C174.007 128.431 174.642 129.039 182.227 141.682ZM210.915 132.109C210.915 133.25 209.469 133.022 208.115 131.668C206.203 129.756 206.725 128.733 208.915 130.1C210.015 130.787 210.915 131.691 210.915 132.109ZM171.273 144.618C176.844 159.758 180.618 167.018 183.598 168.326C184.968 168.928 187.272 172.467 189.783 177.826C194.622 188.156 195.925 192.793 195.836 199.368L195.769 204.368L193.922 199.175C191.264 191.701 184.404 178.857 180.917 174.827L177.923 171.368L180.964 178.31C183.468 184.028 188.592 197.574 194.131 213.118C194.734 214.811 195.842 215.868 197.013 215.868C198.586 215.868 198.913 215.132 198.905 211.618C198.888 204.88 196.885 183.795 195.892 179.907C195.118 176.875 195.053 177.156 195.439 181.868C195.687 184.893 195.627 186.693 195.305 185.868C194.984 185.043 192.917 180.655 190.712 176.116C188.188 170.922 186.955 167.217 187.383 166.116C188.004 164.522 188.222 164.563 189.865 166.575C191.325 168.364 192.343 168.673 195.237 168.203C197.352 167.86 198.978 166.96 199.224 165.996C199.453 165.101 199.518 165.488 199.37 166.857C199.222 168.227 199.463 170.027 199.905 170.857C200.347 171.688 202.127 181.818 203.86 193.368C205.594 204.918 207.246 215.155 207.531 216.118C207.971 217.602 207.366 217.868 203.547 217.868C194.373 217.868 194.667 218.264 185.412 193.368C177.362 171.711 167.02 156.178 159.065 153.795C151.571 151.549 139.492 157.619 135.222 165.775C130.791 174.24 132.266 187.929 139.594 206.368C148.09 227.746 159.351 241.379 174.415 248.527C177.165 249.832 178.29 250.616 176.915 250.271C172.139 249.069 164.486 244.338 158.745 239.037C149.215 230.236 141.954 217.871 134.866 198.368C131.991 190.458 131.584 188.096 131.505 178.868C131.427 169.722 131.696 167.917 133.595 164.868C140.417 153.914 154.193 148.692 162.655 153.851L165.896 155.827L165.252 143.847C164.84 136.197 164.964 131.868 165.595 131.868C166.138 131.868 168.693 137.605 171.273 144.618ZM430.363 144.118C430.073 148.105 429.434 157.623 428.943 165.267C428.327 174.861 427.642 179.425 426.733 180.002C426.008 180.461 423.728 180.844 421.665 180.853C417.152 180.871 416.914 181.846 420.854 184.173L423.793 185.909L421.988 191.139C420.995 194.015 417.648 202.546 414.551 210.096C411.454 217.646 407.785 228.193 406.397 233.533C405.01 238.873 403.751 243.365 403.6 243.516C403.051 244.065 404.04 230.044 405.516 216.368C407.473 198.226 409.805 187.732 415.838 169.903C421.005 154.634 421.876 150.683 417.82 160.909L415.415 166.973L413.262 164.276C411.865 162.525 410.542 161.797 409.492 162.2C408.286 162.663 408.492 161.913 410.303 159.247C414.769 152.675 424.051 142.834 425.145 143.51C425.787 143.907 425.935 143.709 425.51 143.023C425.118 142.388 425.225 141.868 425.748 141.868C426.27 141.868 426.981 140.743 427.326 139.368C427.671 137.993 428.614 136.868 429.421 136.868C430.626 136.868 430.795 138.171 430.363 144.118ZM202.33 148.752C206.292 154.15 206.635 155.378 204.415 156.23C202.057 157.134 202.648 159.295 205.915 161.71L208.915 163.928V185.565C208.915 197.465 208.702 206.988 208.442 206.728C208.182 206.468 205.708 193.231 202.946 177.312C200.183 161.393 197.687 147.355 197.4 146.118C196.555 142.483 198.485 143.515 202.33 148.752ZM393.115 147.567C391.568 152.607 392.244 152.805 394.179 147.879C395.045 145.673 395.416 143.868 395.002 143.868C394.589 143.868 393.74 145.533 393.115 147.567ZM450.915 145.162C450.915 145.394 453.514 147.188 456.69 149.148C459.865 151.108 463.353 153.707 464.44 154.923L466.415 157.134L463.915 156.388C461.889 155.783 462.079 156.096 464.915 158.037C466.84 159.354 469.642 162.667 471.142 165.4C472.641 168.132 473.879 169.981 473.892 169.508C473.957 167.095 467.036 156.265 463.372 153.047C459.479 149.628 450.915 144.207 450.915 145.162ZM386.665 147.44C382.788 149.543 383.227 150.269 387.165 148.267C390.935 146.349 391.602 145.853 390.332 145.908C389.828 145.93 388.177 146.619 386.665 147.44ZM197.815 156.126C197.906 158.642 197.739 158.775 195.915 157.636C193.595 156.187 193.449 154.984 195.144 151.266L196.372 148.569L197.044 150.968C197.413 152.288 197.76 154.609 197.815 156.126ZM390.539 154.407C389.574 156.921 389.858 157.57 391.037 155.543C391.621 154.539 391.888 153.507 391.63 153.25C391.373 152.992 390.881 153.513 390.539 154.407ZM455.677 155.575C456.921 155.814 458.721 155.805 459.677 155.555C460.633 155.305 459.615 155.109 457.415 155.12C455.215 155.131 454.433 155.336 455.677 155.575ZM166.915 156.694C166.915 157.148 168.026 158.563 169.384 159.839L171.854 162.159L172.884 159.448C174.285 155.764 174.357 155.868 170.415 155.868C168.49 155.868 166.915 156.24 166.915 156.694ZM196.915 163.483C196.915 166.569 196.653 166.868 193.95 166.868C189.822 166.868 188.326 163.908 190.413 159.872C191.926 156.947 192.043 156.906 194.443 158.478C196.266 159.673 196.915 160.986 196.915 163.483ZM446.787 159.618C445.544 161.204 445.579 161.239 447.165 159.996C448.127 159.241 448.915 158.453 448.915 158.246C448.915 157.423 448.094 157.952 446.787 159.618ZM444.162 163.118C442.669 164.989 439.718 171.005 440.104 171.39C440.289 171.576 441.624 169.509 443.069 166.798C445.706 161.854 446.022 160.787 444.162 163.118ZM396.167 173.368C396.178 175.568 396.383 176.35 396.622 175.106C396.861 173.862 396.852 172.062 396.602 171.106C396.352 170.15 396.156 171.168 396.167 173.368ZM193.994 174.451C194.042 175.616 194.279 175.853 194.598 175.056C194.887 174.334 194.851 173.471 194.519 173.139C194.187 172.807 193.951 173.397 193.994 174.451ZM480.883 214.868C482.159 228.999 483.516 286.861 482.625 289.182C482.114 290.512 481.277 290.46 475.813 288.759C472.386 287.693 465.049 286.139 459.507 285.307C449.421 283.792 444.077 281.867 434.066 276.143L428.718 273.085L439.066 269.885C453.439 265.441 458.42 262.531 463.533 255.594C471.935 244.193 476.728 227.049 477.712 204.868C478.38 189.815 478.715 190.872 480.883 214.868ZM310.718 237.398C310.549 237.567 309.236 238 307.801 238.36C304.969 239.071 304.363 238.06 299.831 225.056L297.98 219.744L301.155 218.409L304.33 217.074L307.677 227.083C309.519 232.587 310.887 237.23 310.718 237.398ZM252.665 226.574C254.827 226.99 254.915 227.416 254.915 237.438C254.915 246.042 254.652 247.868 253.415 247.868C252.59 247.868 251.915 248.318 251.915 248.868C251.915 250.283 254.481 250.111 255.641 248.618C256.176 247.931 256.54 243.181 256.451 238.063C256.321 230.602 256.599 228.556 257.852 227.738C259.197 226.859 259.171 226.793 257.665 227.261C256.702 227.56 255.915 227.369 255.915 226.837C255.915 226.304 254.677 225.929 253.165 226.004C250.807 226.121 250.736 226.202 252.665 226.574ZM274.915 238.145C274.915 241.533 272.158 244.868 269.358 244.868C266.533 244.868 266.341 243.879 268.394 239.909C270.665 235.518 274.915 234.369 274.915 238.145ZM280.915 241.752C280.915 244.008 278.116 247.868 276.481 247.868C273.414 247.868 272.987 245.35 275.508 242.129C278.077 238.846 280.915 238.649 280.915 241.752ZM283.686 245.056C283.468 245.709 282.755 246.421 282.102 246.639C281.371 246.883 281.148 246.425 281.521 245.452C282.219 243.634 284.286 243.256 283.686 245.056ZM198.415 253.479C196.072 255.291 185.636 254.989 183.7 253.053C182.787 252.14 184.566 251.875 191.465 251.9C199.74 251.929 200.264 252.048 198.415 253.479ZM395.376 267.05C397.269 273.424 397.289 274.51 395.526 275.187C394.532 275.569 393.664 274.034 392.472 269.786C390.873 264.086 391.003 261.868 392.935 261.868C393.432 261.868 394.53 264.2 395.376 267.05ZM384.807 263.692C388.969 264.333 389.269 264.604 390.542 268.868C392.331 274.863 392.265 275.622 389.895 276.374C388.784 276.727 385.796 278.602 383.256 280.541C378.747 283.983 378.451 284.059 370.855 283.714C359.533 283.2 358.364 281.185 368.626 279.871L374.415 279.13L368.915 278.984C363.826 278.848 359.832 277.61 360.944 276.512C361.203 276.256 364.565 275.614 368.415 275.085C373.75 274.352 374.464 274.092 371.415 273.99C366.31 273.82 359.915 272.058 359.915 270.821C359.915 270.297 363.177 269.861 367.165 269.853C371.153 269.844 375.09 269.358 375.915 268.772C377.029 267.98 376.323 267.859 373.165 268.299C369.728 268.778 368.915 268.593 368.915 267.332C368.915 265.521 374.275 262.93 377.915 262.981C379.29 263.001 382.391 263.32 384.807 263.692ZM180.006 288.289C173.18 291.881 166.568 295.784 165.312 296.964C163.146 298.999 161.776 303.389 160.505 312.368C160.194 314.568 161.015 312.399 162.331 307.549C163.743 302.341 165.479 298.161 166.569 297.341C167.584 296.578 174.353 292.918 181.611 289.207L194.808 282.461L209.947 283.707C228.043 285.196 230.674 285.664 231.262 287.502C231.518 288.303 231.643 288.146 231.553 287.138C231.329 284.641 222.59 282.996 205.915 282.313L192.415 281.759L180.006 288.289ZM363.016 288.405C359.316 292.62 357.249 297.253 355.448 305.368C353.819 312.704 353.499 310.485 355.008 302.322C356.549 293.988 361.56 285.054 364.769 284.923C365.55 284.891 364.81 286.363 363.016 288.405ZM237.915 303.257C237.915 305.952 234.781 310.358 233.289 309.76C232.675 309.514 232.631 307.784 233.172 305.118C233.829 301.873 234.492 300.868 235.974 300.868C237.354 300.868 237.915 301.559 237.915 303.257ZM301.915 306.873C293.116 307.724 285.638 308.924 286.122 309.408C286.309 309.596 289.912 309.42 294.127 309.017C301.268 308.335 301.826 308.421 302.313 310.283C302.601 311.382 302.691 312.425 302.514 312.602C302.337 312.779 298.417 313.358 293.804 313.889C286.395 314.742 285.269 314.658 284.165 313.17C283.037 311.65 282.915 311.644 282.915 313.109C282.915 315.646 285.735 315.98 298.009 314.896C314.843 313.409 319.021 311.804 316.81 307.672C315.762 305.714 314.567 305.65 301.915 306.873ZM315.915 309.289C315.915 310.071 314.568 310.969 312.915 311.289C311.265 311.607 308.565 312.129 306.915 312.447C304.207 312.97 303.915 312.776 303.915 310.447C303.915 307.961 304.132 307.868 309.915 307.868C314.433 307.868 315.915 308.219 315.915 309.289ZM257.846 314.045C239.607 324.303 223.915 334.112 223.915 335.256C223.915 336.873 250.407 362.243 264.627 374.242C266.825 376.098 266.95 376.048 285.44 365.961C295.671 360.379 305.835 354.681 308.027 353.297C311.979 350.802 312.01 350.735 311.714 345.199L311.415 339.617L294.915 329.689C285.84 324.228 277.065 319.058 275.415 318.2C268.868 314.794 275.212 319.109 290.415 328.4C312.574 341.943 310.765 340.371 306.508 342.391C304.532 343.329 302.915 344.416 302.915 344.808C302.915 345.199 304.04 346.576 305.415 347.868C306.79 349.16 307.915 350.558 307.915 350.975C307.915 351.619 301.842 355.076 270.721 372.147L267.027 374.173L263.221 370.885C250.896 360.235 225.915 336.553 225.915 335.518C225.915 334.323 236.308 327.61 254.308 317.176C261.337 313.102 263.657 312.195 265.09 312.961C266.094 313.499 266.915 313.713 266.915 313.438C266.915 313.163 266.096 312.5 265.096 311.965C263.713 311.225 261.972 311.725 257.846 314.045ZM267.915 314.298C267.915 314.573 268.815 315.279 269.915 315.868C271.015 316.457 271.915 316.713 271.915 316.438C271.915 316.163 271.015 315.457 269.915 314.868C268.815 314.279 267.915 314.023 267.915 314.298ZM234.474 316.349C236.156 317.632 236.215 317.966 234.915 318.849C227.563 323.845 203.143 323.153 204.129 317.978C204.54 315.817 208.273 315.39 209.875 317.32C211.912 319.774 224.966 319.474 228.054 316.901C230.917 314.517 231.955 314.427 234.474 316.349ZM333.915 317.768C331.601 318.416 331.418 318.911 331.45 324.418C331.47 327.691 331.845 331.563 332.285 333.024C332.947 335.221 332.725 335.794 331 336.341C328.458 337.148 328.294 339.997 330.665 342.138C335.137 346.175 351.98 346.957 360.229 343.51C364.696 341.644 364.941 339.45 360.915 337.368C359.265 336.515 357.922 335.716 357.93 335.592C357.938 335.469 358.594 333.568 359.386 331.368C360.179 329.168 360.847 325.706 360.871 323.675C360.939 317.96 358.545 316.847 346.442 316.968C340.927 317.023 335.29 317.383 333.915 317.768ZM358.915 324.4C358.915 328.338 356.688 334.357 354.222 337.081C352.955 338.481 351.049 338.868 345.415 338.868C339.781 338.868 337.875 338.481 336.608 337.081C334.309 334.541 331.915 328.426 331.915 325.094V322.256L338.2 323.195C343 323.912 346.011 323.776 350.95 322.618C354.506 321.784 357.752 321.049 358.165 320.985C358.578 320.921 358.915 322.457 358.915 324.4ZM134.415 327.868C133.154 328.41 132.97 328.727 133.915 328.727C134.74 328.727 136.315 328.341 137.415 327.868C138.676 327.326 138.86 327.009 137.915 327.009C137.09 327.009 135.515 327.395 134.415 327.868ZM258.915 331.467C254.24 333.426 248.84 335.636 246.915 336.378C244.99 337.12 243.968 337.759 244.644 337.798C245.321 337.836 250.271 336.1 255.644 333.94C272.22 327.275 275.015 327.399 265.292 334.367C257.549 339.915 251.379 346.732 252.807 348.16C253.614 348.967 257.429 347.826 266.945 343.932C274.114 340.998 280.176 338.796 280.418 339.038C280.66 339.279 277.486 342.313 273.365 345.779C259.572 357.379 261.172 359.122 279.32 352.266C286.237 349.653 291.744 347.364 291.56 347.179C291.375 346.995 285.529 348.864 278.569 351.333C271.609 353.802 265.915 355.431 265.915 354.952C265.915 354.474 269.74 350.862 274.415 346.926C282.551 340.074 284.754 336.868 281.326 336.868C280.451 336.868 274.285 339.118 267.622 341.868C260.959 344.618 255.061 346.868 254.515 346.868C252.844 346.868 260.057 339.93 266.665 335.183C277.594 327.331 273.486 325.361 258.915 331.467ZM336.143 338.574C337.378 339.692 340.281 340.424 344.561 340.696C350.052 341.046 351.549 340.775 353.955 338.996C356.239 337.308 357.332 337.076 359.366 337.849C366.16 340.432 358.64 343.873 346.222 343.862C338.413 343.856 332.705 342.525 330.838 340.275C329.772 338.99 329.797 338.555 330.979 337.807C333.04 336.503 334.014 336.648 336.143 338.574ZM429.915 341.868C430.74 342.401 431.865 342.837 432.415 342.837C432.965 342.837 432.74 342.401 431.915 341.868C431.09 341.335 429.965 340.899 429.415 340.899C428.865 340.899 429.09 341.335 429.915 341.868ZM310.9 344.118C310.872 348.126 309.496 349.168 307.355 346.801C305.47 344.719 305.47 344.666 307.369 343.278C310.062 341.309 310.917 341.513 310.9 344.118Z" fill="white"/>
</g>
<defs>
<clipPath id="clip0_435_109">
<rect width="590" height="552" fill="white"/>
</clipPath>
</defs>
</svg>
