<svg width="19" height="21" viewBox="0 0 19 21" fill="none" xmlns="http://www.w3.org/2000/svg">
<path d="M16.9609 2.09314H14.9609V0.0931396H12.9609V2.09314H6.96094V0.0931396H4.96094V2.09314H2.96094C1.85794 2.09314 0.960938 2.99014 0.960938 4.09314V18.0931C0.960938 19.1961 1.85794 20.0931 2.96094 20.0931H16.9609C18.0639 20.0931 18.9609 19.1961 18.9609 18.0931V4.09314C18.9609 2.99014 18.0639 2.09314 16.9609 2.09314ZM16.9629 18.0931H2.96094V6.09314H16.9609L16.9629 18.0931Z" fill="#F76706"/>
<path d="M8.96094 15.5071L14.6679 9.80014L13.2539 8.38614L8.96094 12.6791L6.66794 10.3861L5.25394 11.8001L8.96094 15.5071Z" fill="#F76706"/>
</svg>
