<svg width="202" height="52" viewBox="0 0 202 52" fill="none" xmlns="http://www.w3.org/2000/svg">
<path d="M3.80721 15V3.65844H8.0522C9.01353 3.65844 9.83985 3.81506 10.5311 4.1283C11.2224 4.43074 11.7517 4.8736 12.119 5.45688C12.497 6.02936 12.686 6.72606 12.686 7.54697C12.686 8.34628 12.497 9.03758 12.119 9.62086C11.7517 10.1933 11.2224 10.6362 10.5311 10.9494C9.83985 11.2627 9.01353 11.4193 8.0522 11.4193H4.47151L5.00618 10.8522V15H3.80721ZM5.00618 10.9494L4.47151 10.3662H8.0198C9.15395 10.3662 10.0127 10.1231 10.596 9.63706C11.19 9.14019 11.4871 8.4435 11.4871 7.54697C11.4871 6.63965 11.19 5.93755 10.596 5.44068C10.0127 4.94381 9.15395 4.69538 8.0198 4.69538H4.47151L5.00618 4.1283V10.9494ZM15.2785 15V3.65844H19.5235C20.4848 3.65844 21.3112 3.81506 22.0025 4.1283C22.6937 4.43074 23.223 4.8736 23.5903 5.45688C23.9683 6.02936 24.1573 6.72606 24.1573 7.54697C24.1573 8.34628 23.9683 9.03758 23.5903 9.62086C23.223 10.1933 22.6937 10.6362 22.0025 10.9494C21.3112 11.2519 20.4848 11.4031 19.5235 11.4031H15.9428L16.4775 10.8522V15H15.2785ZM23.0232 15L20.1068 10.8846H21.403L24.3356 15H23.0232ZM16.4775 10.9494L15.9428 10.3824H19.4911C20.6253 10.3824 21.484 10.1339 22.0673 9.63706C22.6613 9.14019 22.9584 8.4435 22.9584 7.54697C22.9584 6.63965 22.6613 5.93755 22.0673 5.44068C21.484 4.94381 20.6253 4.69538 19.4911 4.69538H15.9428L16.4775 4.1283V10.9494ZM28.0565 8.72973H34.0513V9.75048H28.0565V8.72973ZM28.1861 13.9631H35.0073V15H26.9872V3.65844H34.7642V4.69538H28.1861V13.9631ZM28.2185 2.73491L30.3086 0.725831H31.4752L33.5653 2.73491H32.4959L30.4382 1.01747H31.3456L29.2879 2.73491H28.2185ZM37.8256 15V3.65844H38.8139L43.9986 12.5049H43.4802L48.6163 3.65844H49.6046V15H48.4542V5.45688H48.7297L43.9986 13.558H43.4316L38.6681 5.45688H38.9759V15H37.8256ZM53.3 15V3.65844H54.4989V15H53.3ZM63.147 15.0972C62.2937 15.0972 61.4998 14.9568 60.7653 14.676C60.0416 14.3843 59.4097 13.9793 58.8696 13.4608C58.3403 12.9315 57.9245 12.3212 57.622 11.6299C57.3304 10.9278 57.1846 10.1609 57.1846 9.32922C57.1846 8.4975 57.3304 7.736 57.622 7.0447C57.9245 6.34261 58.3403 5.73232 58.8696 5.21385C59.4097 4.68458 60.0416 4.27952 60.7653 3.99868C61.489 3.70704 62.2829 3.56122 63.147 3.56122C64.0003 3.56122 64.7888 3.70704 65.5125 3.99868C66.2362 4.27952 66.8627 4.67918 67.392 5.19765C67.9321 5.71612 68.3479 6.3264 68.6396 7.0285C68.942 7.7306 69.0932 8.4975 69.0932 9.32922C69.0932 10.1609 68.942 10.9278 68.6396 11.6299C68.3479 12.332 67.9321 12.9423 67.392 13.4608C66.8627 13.9793 66.2362 14.3843 65.5125 14.676C64.7888 14.9568 64.0003 15.0972 63.147 15.0972ZM63.147 14.0279C63.8275 14.0279 64.454 13.9145 65.0265 13.6876C65.6097 13.45 66.112 13.1205 66.5333 12.6993C66.9653 12.2672 67.3002 11.7704 67.5378 11.2087C67.7754 10.6362 67.8943 10.0097 67.8943 9.32922C67.8943 8.64872 67.7754 8.02764 67.5378 7.46596C67.3002 6.89348 66.9653 6.39661 66.5333 5.97535C66.112 5.5433 65.6097 5.21385 65.0265 4.98702C64.454 4.74939 63.8275 4.63057 63.147 4.63057C62.4665 4.63057 61.8346 4.74939 61.2513 4.98702C60.6681 5.21385 60.1604 5.5433 59.7283 5.97535C59.3071 6.39661 58.9722 6.89348 58.7238 7.46596C58.4862 8.02764 58.3674 8.64872 58.3674 9.32922C58.3674 9.99891 58.4862 10.62 58.7238 11.1925C58.9722 11.765 59.3071 12.2672 59.7283 12.6993C60.1604 13.1205 60.6681 13.45 61.2513 13.6876C61.8346 13.9145 62.4665 14.0279 63.147 14.0279ZM75.5188 15V3.65844H80.4281C81.4434 3.65844 82.3183 3.82586 83.0529 4.1607C83.7874 4.48475 84.3544 4.95461 84.7541 5.5703C85.1537 6.18598 85.3536 6.92049 85.3536 7.7738C85.3536 8.61632 85.1537 9.34542 84.7541 9.9611C84.3544 10.566 83.7874 11.0305 83.0529 11.3545C82.3183 11.6785 81.4434 11.8406 80.4281 11.8406H76.977L78.1436 10.6902V15H75.5188ZM82.7288 15L79.8934 10.8846H82.6964L85.5642 15H82.7288ZM78.1436 10.9818L76.977 9.75048H80.2823C81.0924 9.75048 81.6973 9.57765 82.0969 9.232C82.4966 8.87556 82.6964 8.38949 82.6964 7.7738C82.6964 7.14732 82.4966 6.66125 82.0969 6.3156C81.6973 5.96995 81.0924 5.79713 80.2823 5.79713H76.977L78.1436 4.54956V10.9818ZM89.8473 8.22747H95.3074V10.2689H89.8473V8.22747ZM90.0417 12.8937H96.2148V15H87.4331V3.65844H96.0041V5.76473H90.0417V12.8937ZM98.3032 15V3.65844H103.456C104.687 3.65844 105.772 3.89607 106.712 4.37133C107.652 4.8358 108.386 5.48929 108.916 6.3318C109.445 7.17432 109.71 8.17346 109.71 9.32922C109.71 10.4742 109.445 11.4733 108.916 12.3266C108.386 13.1691 107.652 13.828 106.712 14.3033C105.772 14.7678 104.687 15 103.456 15H98.3032ZM100.928 12.8451H103.326C104.082 12.8451 104.735 12.7047 105.286 12.4238C105.848 12.1322 106.28 11.7217 106.583 11.1925C106.896 10.6632 107.052 10.0421 107.052 9.32922C107.052 8.60552 106.896 7.98443 106.583 7.46596C106.28 6.93669 105.848 6.53163 105.286 6.25079C104.735 5.95915 104.082 5.81333 103.326 5.81333H100.928V12.8451ZM114.103 8.22747H119.563V10.2689H114.103V8.22747ZM114.298 12.8937H120.471V15H111.689V3.65844H120.26V5.76473H114.298V12.8937ZM126.286 15.1944C125.378 15.1944 124.509 15.0756 123.677 14.838C122.845 14.5895 122.176 14.2709 121.668 13.882L122.559 11.9054C123.045 12.251 123.618 12.5373 124.277 12.7641C124.946 12.9801 125.621 13.0881 126.302 13.0881C126.82 13.0881 127.236 13.0395 127.549 12.9423C127.873 12.8343 128.111 12.6885 128.262 12.5049C128.413 12.3212 128.489 12.1106 128.489 11.873C128.489 11.5705 128.37 11.3329 128.133 11.1601C127.895 10.9764 127.582 10.8306 127.193 10.7226C126.804 10.6038 126.372 10.4958 125.897 10.3986C125.432 10.2906 124.962 10.1609 124.487 10.0097C124.023 9.85849 123.596 9.66406 123.207 9.42643C122.818 9.1888 122.5 8.87556 122.251 8.4867C122.014 8.09785 121.895 7.60098 121.895 6.9961C121.895 6.34801 122.068 5.75933 122.413 5.23005C122.77 4.68998 123.299 4.26332 124.001 3.95008C124.714 3.62603 125.605 3.46401 126.674 3.46401C127.387 3.46401 128.089 3.55042 128.781 3.72324C129.472 3.88527 130.082 4.1337 130.612 4.46855L129.801 6.46142C129.272 6.15898 128.743 5.93755 128.214 5.79713C127.684 5.64591 127.166 5.5703 126.658 5.5703C126.151 5.5703 125.735 5.62971 125.411 5.74852C125.087 5.86734 124.854 6.02396 124.714 6.21839C124.574 6.40201 124.503 6.61804 124.503 6.86648C124.503 7.15812 124.622 7.39575 124.86 7.57938C125.097 7.7522 125.411 7.89262 125.8 8.00063C126.188 8.10865 126.615 8.21666 127.08 8.32468C127.555 8.43269 128.025 8.55691 128.489 8.69733C128.964 8.83775 129.396 9.02678 129.785 9.26441C130.174 9.50204 130.487 9.81528 130.725 10.2041C130.973 10.593 131.098 11.0845 131.098 11.6785C131.098 12.3158 130.919 12.8991 130.563 13.4284C130.207 13.9577 129.672 14.3843 128.959 14.7084C128.257 15.0324 127.366 15.1944 126.286 15.1944ZM5.18111 25.2275H10.6413V27.2689H5.18111V25.2275ZM5.37554 29.8937H11.5486V32H2.76698V20.6584H11.338V22.7647H5.37554V29.8937ZM23.6533 32.1944C22.7784 32.1944 21.9629 32.054 21.2068 31.7732C20.4615 31.4815 19.8134 31.0711 19.2625 30.5418C18.7116 30.0125 18.2796 29.3914 17.9663 28.6785C17.6639 27.9656 17.5127 27.1825 17.5127 26.3292C17.5127 25.4759 17.6639 24.6928 17.9663 23.9799C18.2796 23.267 18.7116 22.6459 19.2625 22.1166C19.8242 21.5874 20.4777 21.1823 21.223 20.9015C21.9683 20.6098 22.7838 20.464 23.6695 20.464C24.6524 20.464 25.5382 20.6368 26.3267 20.9825C27.126 21.3173 27.7957 21.8142 28.3358 22.4731L26.6507 24.0285C26.2619 23.5856 25.8298 23.2562 25.3545 23.0402C24.8793 22.8133 24.3608 22.6999 23.7991 22.6999C23.2699 22.6999 22.7838 22.7863 22.3409 22.9592C21.8981 23.132 21.5146 23.3804 21.1906 23.7045C20.8665 24.0285 20.6127 24.412 20.4291 24.8548C20.2562 25.2977 20.1698 25.7891 20.1698 26.3292C20.1698 26.8693 20.2562 27.3608 20.4291 27.8036C20.6127 28.2465 20.8665 28.6299 21.1906 28.954C21.5146 29.278 21.8981 29.5265 22.3409 29.6993C22.7838 29.8721 23.2699 29.9585 23.7991 29.9585C24.3608 29.9585 24.8793 29.8505 25.3545 29.6345C25.8298 29.4076 26.2619 29.0674 26.6507 28.6137L28.3358 30.1691C27.7957 30.828 27.126 31.3303 26.3267 31.676C25.5382 32.0216 24.647 32.1944 23.6533 32.1944ZM32.5224 25.2275H37.9825V27.2689H32.5224V25.2275ZM32.7168 29.8937H38.8899V32H30.1083V20.6584H38.6792V22.7647H32.7168V29.8937ZM40.9783 32V20.6584H43.1494L49.8409 28.8244H48.7878V20.6584H51.3801V32H49.2252L42.5175 23.8341H43.5707V32H40.9783ZM56.4128 32V22.7971H52.7835V20.6584H62.6669V22.7971H59.0376V32H56.4128ZM64.0791 32V20.6584H68.9884C70.0038 20.6584 70.8787 20.8259 71.6132 21.1607C72.3477 21.4847 72.9148 21.9546 73.3144 22.5703C73.7141 23.186 73.9139 23.9205 73.9139 24.7738C73.9139 25.6163 73.7141 26.3454 73.3144 26.9611C72.9148 27.566 72.3477 28.0305 71.6132 28.3545C70.8787 28.6785 70.0038 28.8406 68.9884 28.8406H65.5373L66.7039 27.6902V32H64.0791ZM71.2891 32L68.4537 27.8846H71.2567L74.1245 32H71.2891ZM66.7039 27.9818L65.5373 26.7505H68.8426C69.6527 26.7505 70.2576 26.5777 70.6573 26.232C71.0569 25.8756 71.2567 25.3895 71.2567 24.7738C71.2567 24.1473 71.0569 23.6612 70.6573 23.3156C70.2576 22.97 69.6527 22.7971 68.8426 22.7971H65.5373L66.7039 21.5496V27.9818ZM74.5029 32L79.558 20.6584H82.1503L87.2216 32H84.4673L80.3195 21.987H81.3564L77.1924 32H74.5029ZM77.0304 29.5697L77.7271 27.5768H83.5599L84.2728 29.5697H77.0304ZM88.3983 32V20.6584H91.0231V32H88.3983ZM97.4412 32.1944C96.5339 32.1944 95.6644 32.0756 94.8326 31.838C94.0009 31.5895 93.3312 31.2709 92.8236 30.882L93.7147 28.9054C94.2007 29.251 94.7732 29.5373 95.4321 29.7641C96.1018 29.9801 96.7769 30.0881 97.4574 30.0881C97.9759 30.0881 98.3917 30.0395 98.705 29.9423C99.029 29.8343 99.2666 29.6885 99.4179 29.5049C99.5691 29.3212 99.6447 29.1106 99.6447 28.873C99.6447 28.5705 99.5259 28.3329 99.2883 28.1601C99.0506 27.9764 98.7374 27.8306 98.3485 27.7226C97.9597 27.6038 97.5276 27.4958 97.0523 27.3986C96.5879 27.2906 96.118 27.1609 95.6427 27.0097C95.1783 26.8585 94.7516 26.6641 94.3628 26.4264C93.9739 26.1888 93.6553 25.8756 93.4068 25.4867C93.1692 25.0978 93.0504 24.601 93.0504 23.9961C93.0504 23.348 93.2232 22.7593 93.5689 22.2301C93.9253 21.69 94.4546 21.2633 95.1567 20.9501C95.8696 20.626 96.7607 20.464 97.83 20.464C98.5429 20.464 99.245 20.5504 99.9363 20.7232C100.628 20.8853 101.238 21.1337 101.767 21.4685L100.957 23.4614C100.428 23.159 99.8985 22.9376 99.3693 22.7971C98.84 22.6459 98.3215 22.5703 97.8138 22.5703C97.3062 22.5703 96.8903 22.6297 96.5663 22.7485C96.2422 22.8673 96.01 23.024 95.8696 23.2184C95.7292 23.402 95.6589 23.618 95.6589 23.8665C95.6589 24.1581 95.7778 24.3958 96.0154 24.5794C96.253 24.7522 96.5663 24.8926 96.9551 25.0006C97.344 25.1086 97.7706 25.2167 98.2351 25.3247C98.7104 25.4327 99.1802 25.5569 99.6447 25.6973C100.12 25.8377 100.552 26.0268 100.941 26.2644C101.33 26.502 101.643 26.8153 101.881 27.2041C102.129 27.593 102.253 28.0845 102.253 28.6785C102.253 29.3158 102.075 29.8991 101.719 30.4284C101.362 30.9577 100.827 31.3843 100.115 31.7084C99.4125 32.0324 98.5213 32.1944 97.4412 32.1944ZM108.635 32V20.6584H113.788C115.019 20.6584 116.105 20.8961 117.044 21.3713C117.984 21.8358 118.718 22.4893 119.248 23.3318C119.777 24.1743 120.042 25.1735 120.042 26.3292C120.042 27.4742 119.777 28.4733 119.248 29.3266C118.718 30.1691 117.984 30.828 117.044 31.3033C116.105 31.7678 115.019 32 113.788 32H108.635ZM111.26 29.8451H113.658C114.414 29.8451 115.068 29.7047 115.618 29.4238C116.18 29.1322 116.612 28.7217 116.915 28.1925C117.228 27.6632 117.384 27.0421 117.384 26.3292C117.384 25.6055 117.228 24.9844 116.915 24.466C116.612 23.9367 116.18 23.5316 115.618 23.2508C115.068 22.9592 114.414 22.8133 113.658 22.8133H111.26V29.8451ZM124.435 25.2275H129.895V27.2689H124.435V25.2275ZM124.63 29.8937H130.803V32H122.021V20.6584H130.592V22.7647H124.63V29.8937ZM41.5637 49V37.6584H43.7348L50.4264 45.8244H49.3732V37.6584H51.9656V49H49.8107L43.1029 40.8341H44.1561V49H41.5637ZM57.0631 42.2275H62.5232V44.2689H57.0631V42.2275ZM57.2575 46.8937H63.4305V49H54.6489V37.6584H63.2199V39.7647H57.2575V46.8937ZM70.9953 49.1944C70.0988 49.1944 69.2725 49.054 68.5164 48.7732C67.7711 48.4815 67.1176 48.0711 66.5559 47.5418C66.0051 47.0125 65.573 46.3914 65.2598 45.6785C64.9573 44.9656 64.8061 44.1825 64.8061 43.3292C64.8061 42.4759 64.9573 41.6928 65.2598 40.9799C65.573 40.267 66.0105 39.6459 66.5721 39.1166C67.1338 38.5874 67.7927 38.1823 68.5488 37.9015C69.3049 37.6098 70.1366 37.464 71.044 37.464C72.0485 37.464 72.9504 37.6314 73.7497 37.9663C74.5598 38.3011 75.2403 38.7872 75.7912 39.4245L74.1062 40.9799C73.6957 40.5478 73.2475 40.2292 72.7614 40.024C72.2753 39.8079 71.7461 39.6999 71.1736 39.6999C70.6227 39.6999 70.1204 39.7863 69.6668 39.9592C69.2131 40.132 68.8188 40.3804 68.484 40.7045C68.16 41.0285 67.9061 41.412 67.7225 41.8548C67.5497 42.2977 67.4633 42.7891 67.4633 43.3292C67.4633 43.8585 67.5497 44.3446 67.7225 44.7874C67.9061 45.2303 68.16 45.6191 68.484 45.954C68.8188 46.278 69.2077 46.5265 69.6506 46.6993C70.1042 46.8721 70.6011 46.9585 71.1412 46.9585C71.6596 46.9585 72.1619 46.8775 72.648 46.7155C73.1448 46.5427 73.6255 46.2564 74.09 45.8568L75.5806 47.7524C74.9649 48.2169 74.2466 48.5733 73.4257 48.8218C72.6156 49.0702 71.8055 49.1944 70.9953 49.1944ZM73.1826 47.4122V43.151H75.5806V47.7524L73.1826 47.4122ZM83.5275 49.1944C82.631 49.1944 81.7993 49.0486 81.0324 48.757C80.2763 48.4653 79.6174 48.0549 79.0557 47.5256C78.5048 46.9963 78.0728 46.3752 77.7595 45.6623C77.4571 44.9494 77.3059 44.1717 77.3059 43.3292C77.3059 42.4867 77.4571 41.709 77.7595 40.9961C78.0728 40.2832 78.5102 39.6621 79.0719 39.1328C79.6336 38.6036 80.2925 38.1931 81.0486 37.9015C81.8047 37.6098 82.6256 37.464 83.5113 37.464C84.4078 37.464 85.2288 37.6098 85.9741 37.9015C86.7302 38.1931 87.3837 38.6036 87.9345 39.1328C88.4962 39.6621 88.9337 40.2832 89.2469 40.9961C89.5602 41.6982 89.7168 42.4759 89.7168 43.3292C89.7168 44.1717 89.5602 44.9548 89.2469 45.6785C88.9337 46.3914 88.4962 47.0125 87.9345 47.5418C87.3837 48.0603 86.7302 48.4653 85.9741 48.757C85.2288 49.0486 84.4132 49.1944 83.5275 49.1944ZM83.5113 46.9585C84.019 46.9585 84.4835 46.8721 84.9047 46.6993C85.3368 46.5265 85.7148 46.278 86.0389 45.954C86.3629 45.6299 86.6113 45.2465 86.7842 44.8036C86.9678 44.3608 87.0596 43.8693 87.0596 43.3292C87.0596 42.7891 86.9678 42.2977 86.7842 41.8548C86.6113 41.412 86.3629 41.0285 86.0389 40.7045C85.7256 40.3804 85.353 40.132 84.9209 39.9592C84.4889 39.7863 84.019 39.6999 83.5113 39.6999C83.0036 39.6999 82.5338 39.7863 82.1017 39.9592C81.6805 40.132 81.3078 40.3804 80.9838 40.7045C80.6597 41.0285 80.4059 41.412 80.2223 41.8548C80.0494 42.2977 79.963 42.7891 79.963 43.3292C79.963 43.8585 80.0494 44.35 80.2223 44.8036C80.4059 45.2465 80.6543 45.6299 80.9676 45.954C81.2916 46.278 81.6697 46.5265 82.1017 46.6993C82.5338 46.8721 83.0036 46.9585 83.5113 46.9585ZM82.0369 36.7349L84.2242 34.4018H86.9462L84.0136 36.7349H82.0369ZM97.1171 49.1944C96.2422 49.1944 95.4267 49.054 94.6706 48.7732C93.9253 48.4815 93.2772 48.0711 92.7263 47.5418C92.1755 47.0125 91.7434 46.3914 91.4302 45.6785C91.1277 44.9656 90.9765 44.1825 90.9765 43.3292C90.9765 42.4759 91.1277 41.6928 91.4302 40.9799C91.7434 40.267 92.1755 39.6459 92.7263 39.1166C93.288 38.5874 93.9415 38.1823 94.6868 37.9015C95.4321 37.6098 96.2476 37.464 97.1333 37.464C98.1163 37.464 99.002 37.6368 99.7905 37.9825C100.59 38.3173 101.26 38.8142 101.8 39.4731L100.115 41.0285C99.7257 40.5856 99.2936 40.2562 98.8184 40.0402C98.3431 39.8133 97.8246 39.6999 97.263 39.6999C96.7337 39.6999 96.2476 39.7863 95.8048 39.9592C95.3619 40.132 94.9785 40.3804 94.6544 40.7045C94.3304 41.0285 94.0765 41.412 93.8929 41.8548C93.7201 42.2977 93.6337 42.7891 93.6337 43.3292C93.6337 43.8693 93.7201 44.3608 93.8929 44.8036C94.0765 45.2465 94.3304 45.6299 94.6544 45.954C94.9785 46.278 95.3619 46.5265 95.8048 46.6993C96.2476 46.8721 96.7337 46.9585 97.263 46.9585C97.8246 46.9585 98.3431 46.8505 98.8184 46.6345C99.2936 46.4076 99.7257 46.0674 100.115 45.6137L101.8 47.1691C101.26 47.828 100.59 48.3303 99.7905 48.676C99.002 49.0216 98.1109 49.1944 97.1171 49.1944ZM103.572 49V37.6584H106.197V49H103.572ZM114.397 49.1944C113.501 49.1944 112.669 49.0486 111.902 48.757C111.146 48.4653 110.487 48.0549 109.925 47.5256C109.375 46.9963 108.942 46.3752 108.629 45.6623C108.327 44.9494 108.176 44.1717 108.176 43.3292C108.176 42.4867 108.327 41.709 108.629 40.9961C108.942 40.2832 109.38 39.6621 109.942 39.1328C110.503 38.6036 111.162 38.1931 111.918 37.9015C112.674 37.6098 113.495 37.464 114.381 37.464C115.278 37.464 116.098 37.6098 116.844 37.9015C117.6 38.1931 118.253 38.6036 118.804 39.1328C119.366 39.6621 119.803 40.2832 120.117 40.9961C120.43 41.6982 120.586 42.4759 120.586 43.3292C120.586 44.1717 120.43 44.9548 120.117 45.6785C119.803 46.3914 119.366 47.0125 118.804 47.5418C118.253 48.0603 117.6 48.4653 116.844 48.757C116.098 49.0486 115.283 49.1944 114.397 49.1944ZM114.381 46.9585C114.889 46.9585 115.353 46.8721 115.774 46.6993C116.206 46.5265 116.585 46.278 116.909 45.954C117.233 45.6299 117.481 45.2465 117.654 44.8036C117.837 44.3608 117.929 43.8693 117.929 43.3292C117.929 42.7891 117.837 42.2977 117.654 41.8548C117.481 41.412 117.233 41.0285 116.909 40.7045C116.595 40.3804 116.223 40.132 115.791 39.9592C115.359 39.7863 114.889 39.6999 114.381 39.6999C113.873 39.6999 113.403 39.7863 112.971 39.9592C112.55 40.132 112.178 40.3804 111.853 40.7045C111.529 41.0285 111.276 41.412 111.092 41.8548C110.919 42.2977 110.833 42.7891 110.833 43.3292C110.833 43.8585 110.919 44.35 111.092 44.8036C111.276 45.2465 111.524 45.6299 111.837 45.954C112.161 46.278 112.539 46.5265 112.971 46.6993C113.403 46.8721 113.873 46.9585 114.381 46.9585ZM126.286 49.1944C125.378 49.1944 124.509 49.0756 123.677 48.838C122.845 48.5895 122.176 48.2709 121.668 47.882L122.559 45.9054C123.045 46.251 123.618 46.5373 124.277 46.7641C124.946 46.9801 125.621 47.0881 126.302 47.0881C126.82 47.0881 127.236 47.0395 127.549 46.9423C127.873 46.8343 128.111 46.6885 128.262 46.5049C128.413 46.3212 128.489 46.1106 128.489 45.873C128.489 45.5705 128.37 45.3329 128.133 45.1601C127.895 44.9764 127.582 44.8306 127.193 44.7226C126.804 44.6038 126.372 44.4958 125.897 44.3986C125.432 44.2906 124.962 44.1609 124.487 44.0097C124.023 43.8585 123.596 43.6641 123.207 43.4264C122.818 43.1888 122.5 42.8756 122.251 42.4867C122.014 42.0978 121.895 41.601 121.895 40.9961C121.895 40.348 122.068 39.7593 122.413 39.2301C122.77 38.69 123.299 38.2633 124.001 37.9501C124.714 37.626 125.605 37.464 126.674 37.464C127.387 37.464 128.089 37.5504 128.781 37.7232C129.472 37.8853 130.082 38.1337 130.612 38.4685L129.801 40.4614C129.272 40.159 128.743 39.9376 128.214 39.7971C127.684 39.6459 127.166 39.5703 126.658 39.5703C126.151 39.5703 125.735 39.6297 125.411 39.7485C125.087 39.8673 124.854 40.024 124.714 40.2184C124.574 40.402 124.503 40.618 124.503 40.8665C124.503 41.1581 124.622 41.3958 124.86 41.5794C125.097 41.7522 125.411 41.8926 125.8 42.0006C126.188 42.1086 126.615 42.2167 127.08 42.3247C127.555 42.4327 128.025 42.5569 128.489 42.6973C128.964 42.8377 129.396 43.0268 129.785 43.2644C130.174 43.502 130.487 43.8153 130.725 44.2041C130.973 44.593 131.098 45.0845 131.098 45.6785C131.098 46.3158 130.919 46.8991 130.563 47.4284C130.207 47.9577 129.672 48.3843 128.959 48.7084C128.257 49.0324 127.366 49.1944 126.286 49.1944Z" fill="white"/>
<path d="M159.415 11.3296C156.562 11.3296 154.25 9.01725 154.25 6.16481C154.25 3.31236 156.562 1 159.415 1C162.267 1 164.58 3.31236 164.58 6.16481C164.58 9.01725 162.267 11.3296 159.415 11.3296Z" fill="white"/>
<path d="M179.743 6.16481C179.743 9.01725 182.055 11.3296 184.908 11.3296C187.76 11.3296 190.073 9.01725 190.073 6.16481C190.073 3.31236 187.76 1 184.908 1C182.055 1 179.743 3.31236 179.743 6.16481Z" fill="white"/>
<path fill-rule="evenodd" clip-rule="evenodd" d="M189.612 42.6619C187.394 27.1887 197.154 15.2658 201.887 9.88706C191.942 16.3382 181.144 15.3996 173.755 13.0222C174.719 11.8123 175.623 10.7629 176.394 9.88706C174.882 10.8676 173.351 11.6775 171.815 12.3375C169.961 11.6236 168.395 10.8419 167.207 10.1167L167.215 10.1249C167.976 10.9859 168.861 11.9856 169.804 13.117C158.185 17.1479 146.668 13.1404 141.714 10.1167C146.976 16.0641 157.88 29.3292 153.935 46.2001C148.363 47.8129 143.381 49.6357 139.647 51.2269C169.963 44.7962 192.241 45.6384 199.59 46.8633C196.824 44.7709 193.415 43.4264 189.612 42.6619ZM180.299 41.8506C181.55 30.7792 176.494 21.7842 171.798 15.613C167.133 22.1451 162.222 31.9159 164.278 43.6553C169.613 42.5848 175.106 41.8817 180.299 41.8506Z" fill="white"/>
</svg>
