<svg width="332" height="41" viewBox="0 0 332 41" fill="none" xmlns="http://www.w3.org/2000/svg">
<path d="M14.9847 3.54942C16.0632 3.54942 16.9082 3.80696 17.5199 4.32205C18.1315 4.83713 18.4374 5.54537 18.4374 6.44676C18.4374 7.34816 18.1315 8.0564 17.5199 8.57148C16.9082 9.07851 16.0632 9.33203 14.9847 9.33203H12.7151V12H11.8218V3.54942H14.9847ZM14.9606 8.54734C15.7976 8.54734 16.4374 8.36625 16.8801 8.00408C17.3227 7.63387 17.544 7.11476 17.544 6.44676C17.544 5.76267 17.3227 5.23954 16.8801 4.87737C16.4374 4.50715 15.7976 4.32205 14.9606 4.32205H12.7151V8.54734H14.9606ZM26.1396 12L24.208 9.28374C23.9907 9.30789 23.7654 9.31996 23.532 9.31996H21.2624V12H20.369V3.54942H23.532C24.6104 3.54942 25.4555 3.80696 26.0671 4.32205C26.6788 4.83713 26.9846 5.54537 26.9846 6.44676C26.9846 7.10671 26.8156 7.66606 26.4776 8.12481C26.1476 8.5755 25.6728 8.90145 25.0531 9.10266L27.1174 12H26.1396ZM23.5078 8.55941C24.3448 8.55941 24.9847 8.3743 25.4273 8.00408C25.87 7.63387 26.0913 7.11476 26.0913 6.44676C26.0913 5.76267 25.87 5.23954 25.4273 4.87737C24.9847 4.50715 24.3448 4.32205 23.5078 4.32205H21.2624V8.55941H23.5078ZM35.0689 11.2274V12H29.0931V3.54942H34.8878V4.32205H29.9865V7.32804H34.3566V8.08859H29.9865V11.2274H35.0689ZM33.1977 2.8613L32.0025 1.85931L30.8074 2.8613H30.0106L31.5679 1.36434H32.4371L33.9945 2.8613H33.1977ZM45.9453 3.54942V12H45.0882V5.23954L41.7683 10.9256H41.3458L38.0259 5.27575V12H37.1688V3.54942H37.9052L41.5752 9.81492L45.2089 3.54942H45.9453ZM48.6987 3.54942H49.5921V12H48.6987V3.54942ZM56.0358 12.0724C55.1987 12.0724 54.4382 11.8873 53.7541 11.5171C53.078 11.1388 52.5469 10.6238 52.1606 9.97186C51.7823 9.31996 51.5932 8.58758 51.5932 7.77471C51.5932 6.96185 51.7823 6.22946 52.1606 5.57756C52.5469 4.92566 53.078 4.4146 53.7541 4.04438C54.4382 3.66612 55.1987 3.47699 56.0358 3.47699C56.8728 3.47699 57.6253 3.6621 58.2933 4.03231C58.9693 4.40253 59.5005 4.91761 59.8868 5.57756C60.2731 6.22946 60.4663 6.96185 60.4663 7.77471C60.4663 8.58758 60.2731 9.32398 59.8868 9.98393C59.5005 10.6358 58.9693 11.1469 58.2933 11.5171C57.6253 11.8873 56.8728 12.0724 56.0358 12.0724ZM56.0358 11.2757C56.7037 11.2757 57.3074 11.1268 57.8466 10.829C58.3858 10.5232 58.8083 10.1047 59.1142 9.57348C59.42 9.03425 59.5729 8.43466 59.5729 7.77471C59.5729 7.11476 59.42 6.5192 59.1142 5.98802C58.8083 5.44879 58.3858 5.03029 57.8466 4.7325C57.3074 4.42667 56.7037 4.27376 56.0358 4.27376C55.3678 4.27376 54.7601 4.42667 54.2128 4.7325C53.6736 5.03029 53.2471 5.44879 52.9332 5.98802C52.6274 6.5192 52.4744 7.11476 52.4744 7.77471C52.4744 8.43466 52.6274 9.03425 52.9332 9.57348C53.2471 10.1047 53.6736 10.5232 54.2128 10.829C54.7601 11.1268 55.3678 11.2757 56.0358 11.2757ZM70.6382 12L69.0084 9.64591H68.9118H67.2097V12H65.254V3.54942H68.9118C69.6603 3.54942 70.3082 3.67417 70.8555 3.92366C71.4108 4.17315 71.8374 4.52727 72.1351 4.98602C72.4329 5.44477 72.5818 5.98802 72.5818 6.61577C72.5818 7.24353 72.4289 7.78678 72.1231 8.24553C71.8253 8.69623 71.3987 9.0423 70.8434 9.28374L72.7388 12H70.6382ZM70.602 6.61577C70.602 6.14093 70.449 5.77876 70.1432 5.52927C69.8374 5.27173 69.3907 5.14296 68.8032 5.14296H67.2097V8.08859H68.8032C69.3907 8.08859 69.8374 7.95982 70.1432 7.70228C70.449 7.44474 70.602 7.08257 70.602 6.61577ZM80.6745 10.4306V12H74.1313V3.54942H80.5175V5.11881H76.0749V6.9538H79.9984V8.4749H76.0749V10.4306H80.6745ZM82.2306 3.54942H86.0695C86.987 3.54942 87.7959 3.72648 88.4961 4.0806C89.2043 4.42667 89.7516 4.91761 90.1379 5.55342C90.5322 6.18922 90.7294 6.92965 90.7294 7.77471C90.7294 8.61977 90.5322 9.3602 90.1379 9.99601C89.7516 10.6318 89.2043 11.1268 88.4961 11.4809C87.7959 11.827 86.987 12 86.0695 12H82.2306V3.54942ZM85.973 10.3944C86.818 10.3944 87.49 10.161 87.989 9.6942C88.4961 9.21936 88.7496 8.57953 88.7496 7.77471C88.7496 6.96989 88.4961 6.33409 87.989 5.86729C87.49 5.39245 86.818 5.15503 85.973 5.15503H84.1863V10.3944H85.973ZM98.7475 10.4306V12H92.2043V3.54942H98.5905V5.11881H94.148V6.9538H98.0714V8.4749H94.148V10.4306H98.7475ZM103.08 12.1449C102.412 12.1449 101.764 12.0563 101.137 11.8793C100.517 11.6942 100.018 11.4567 99.6396 11.167L100.304 9.6942C100.666 9.95979 101.096 10.1731 101.595 10.334C102.094 10.495 102.593 10.5755 103.092 10.5755C103.648 10.5755 104.058 10.495 104.324 10.334C104.589 10.165 104.722 9.94369 104.722 9.67005C104.722 9.46885 104.642 9.30386 104.481 9.17509C104.328 9.03827 104.126 8.92962 103.877 8.84914C103.636 8.76866 103.306 8.68013 102.887 8.58355C102.243 8.43064 101.716 8.27772 101.306 8.12481C100.895 7.97189 100.541 7.72642 100.243 7.3884C99.9535 7.05038 99.8086 6.59968 99.8086 6.03631C99.8086 5.54537 99.9414 5.10272 100.207 4.70836C100.473 4.30595 100.871 3.98805 101.402 3.75465C101.941 3.52125 102.597 3.40455 103.37 3.40455C103.909 3.40455 104.436 3.46894 104.951 3.59771C105.466 3.72648 105.917 3.91159 106.303 4.15303L105.7 5.63792C104.919 5.19527 104.139 4.97395 103.358 4.97395C102.811 4.97395 102.404 5.06248 102.139 5.23954C101.881 5.4166 101.752 5.64999 101.752 5.93973C101.752 6.22946 101.901 6.44676 102.199 6.59163C102.505 6.72845 102.968 6.86527 103.587 7.00209C104.231 7.155 104.758 7.30792 105.169 7.46083C105.579 7.61375 105.929 7.85519 106.219 8.18517C106.517 8.51514 106.666 8.96182 106.666 9.52519C106.666 10.0081 106.529 10.4507 106.255 10.8531C105.99 11.2475 105.587 11.5614 105.048 11.7948C104.509 12.0282 103.853 12.1449 103.08 12.1449ZM17.5899 23.4306V25H11.0467V16.5494H17.4329V18.1188H12.9903V19.9538H16.9138V21.4749H12.9903V23.4306H17.5899ZM26.6091 25.1449C25.7479 25.1449 24.9672 24.9598 24.267 24.5895C23.5749 24.2113 23.0276 23.6922 22.6252 23.0322C22.2309 22.3642 22.0337 21.6117 22.0337 20.7747C22.0337 19.9377 22.2309 19.1892 22.6252 18.5293C23.0276 17.8613 23.5749 17.3422 24.267 16.972C24.9672 16.5937 25.7519 16.4046 26.6211 16.4046C27.3535 16.4046 28.0135 16.5333 28.601 16.7909C29.1966 17.0484 29.6955 17.4186 30.0979 17.9015L28.8424 19.0605C28.271 18.4005 27.5628 18.0705 26.7177 18.0705C26.1946 18.0705 25.7278 18.1872 25.3173 18.4206C24.9069 18.646 24.585 18.9639 24.3516 19.3743C24.1262 19.7848 24.0135 20.2516 24.0135 20.7747C24.0135 21.2978 24.1262 21.7646 24.3516 22.1751C24.585 22.5855 24.9069 22.9075 25.3173 23.1409C25.7278 23.3662 26.1946 23.4789 26.7177 23.4789C27.5628 23.4789 28.271 23.1449 28.8424 22.4769L30.0979 23.6358C29.6955 24.1268 29.1966 24.501 28.601 24.7586C28.0054 25.0161 27.3415 25.1449 26.6091 25.1449ZM37.9618 23.4306V25H31.4186V16.5494H37.8049V18.1188H33.3623V19.9538H37.2858V21.4749H33.3623V23.4306H37.9618ZM47.2683 16.5494V25H45.6627L41.4495 19.8693V25H39.5179V16.5494H41.1356L45.3367 21.6801V16.5494H47.2683ZM51.0181 18.143H48.3139V16.5494H55.678V18.143H52.9738V25H51.0181V18.143ZM62.1145 25L60.4848 22.6459H60.3882H58.686V25H56.7303V16.5494H60.3882C61.1367 16.5494 61.7845 16.6742 62.3318 16.9237C62.8871 17.1732 63.3137 17.5273 63.6115 17.986C63.9093 18.4448 64.0581 18.988 64.0581 19.6158C64.0581 20.2435 63.9052 20.7868 63.5994 21.2455C63.3016 21.6962 62.8751 22.0423 62.3197 22.2837L64.2151 25H62.1145ZM62.0783 19.6158C62.0783 19.1409 61.9254 18.7788 61.6195 18.5293C61.3137 18.2717 60.867 18.143 60.2795 18.143H58.686V21.0886H60.2795C60.867 21.0886 61.3137 20.9598 61.6195 20.7023C61.9254 20.4447 62.0783 20.0826 62.0783 19.6158ZM71.1729 23.1892H67.2495L66.501 25H64.497L68.2635 16.5494H70.1951L73.9737 25H71.9214L71.1729 23.1892ZM70.5573 21.7043L69.2172 18.4689L67.8772 21.7043H70.5573ZM74.8505 16.5494H76.8062V25H74.8505V16.5494ZM81.5883 25.1449C80.9203 25.1449 80.2724 25.0563 79.6446 24.8793C79.0249 24.6942 78.5259 24.4567 78.1477 24.167L78.8117 22.6942C79.1738 22.9598 79.6044 23.1731 80.1034 23.334C80.6024 23.495 81.1014 23.5755 81.6003 23.5755C82.1557 23.5755 82.5661 23.495 82.8317 23.334C83.0973 23.165 83.2301 22.9437 83.2301 22.6701C83.2301 22.4689 83.1496 22.3039 82.9887 22.1751C82.8357 22.0383 82.6345 21.9296 82.385 21.8491C82.1436 21.7687 81.8136 21.6801 81.3951 21.5836C80.7513 21.4306 80.2241 21.2777 79.8137 21.1248C79.4032 20.9719 79.0491 20.7264 78.7513 20.3884C78.4616 20.0504 78.3167 19.5997 78.3167 19.0363C78.3167 18.5454 78.4495 18.1027 78.7151 17.7084C78.9807 17.3059 79.3791 16.988 79.9102 16.7547C80.4495 16.5213 81.1054 16.4046 81.878 16.4046C82.4172 16.4046 82.9444 16.4689 83.4595 16.5977C83.9746 16.7265 84.4253 16.9116 84.8116 17.153L84.208 18.6379C83.4273 18.1953 82.6466 17.9739 81.8659 17.9739C81.3187 17.9739 80.9122 18.0625 80.6466 18.2395C80.3891 18.4166 80.2603 18.65 80.2603 18.9397C80.2603 19.2295 80.4092 19.4468 80.707 19.5916C81.0128 19.7284 81.4756 19.8653 82.0953 20.0021C82.7392 20.155 83.2663 20.3079 83.6768 20.4608C84.0872 20.6137 84.4373 20.8552 84.7271 21.1852C85.0248 21.5151 85.1737 21.9618 85.1737 22.5252C85.1737 23.0081 85.0369 23.4507 84.7633 23.8531C84.4977 24.2475 84.0953 24.5614 83.5561 24.7948C83.0168 25.0282 82.3609 25.1449 81.5883 25.1449ZM89.929 16.5494H93.768C94.6855 16.5494 95.4943 16.7265 96.1945 17.0806C96.9027 17.4267 97.45 17.9176 97.8363 18.5534C98.2307 19.1892 98.4279 19.9297 98.4279 20.7747C98.4279 21.6198 98.2307 22.3602 97.8363 22.996C97.45 23.6318 96.9027 24.1268 96.1945 24.4809C95.4943 24.827 94.6855 25 93.768 25H89.929V16.5494ZM93.6714 23.3944C94.5164 23.3944 95.1885 23.161 95.6874 22.6942C96.1945 22.2194 96.448 21.5795 96.448 20.7747C96.448 19.9699 96.1945 19.3341 95.6874 18.8673C95.1885 18.3925 94.5164 18.155 93.6714 18.155H91.8847V23.3944H93.6714ZM106.446 23.4306V25H99.9027V16.5494H106.289V18.1188H101.846V19.9538H105.77V21.4749H101.846V23.4306H106.446ZM47.7281 29.5494V38H46.1225L41.9092 32.8693V38H39.9777V29.5494H41.5954L45.7965 34.6801V29.5494H47.7281ZM56.2706 36.4306V38H49.7274V29.5494H56.1137V31.1188H51.6711V32.9538H55.5945V34.4749H51.6711V36.4306H56.2706ZM63.5133 33.6419H65.3V37.0704C64.8412 37.4165 64.3101 37.6821 63.7064 37.8672C63.1028 38.0523 62.4952 38.1449 61.8835 38.1449C61.0063 38.1449 60.2176 37.9598 59.5174 37.5895C58.8172 37.2113 58.2659 36.6922 57.8635 36.0322C57.4691 35.3642 57.2719 34.6117 57.2719 33.7747C57.2719 32.9377 57.4691 32.1892 57.8635 31.5293C58.2659 30.8613 58.8212 30.3422 59.5294 29.972C60.2377 29.5937 61.0345 29.4046 61.9198 29.4046C62.6602 29.4046 63.3322 29.5293 63.9358 29.7788C64.5394 30.0283 65.0465 30.3905 65.4569 30.8653L64.2014 32.0242C63.5978 31.3884 62.8694 31.0705 62.0163 31.0705C61.4771 31.0705 60.9982 31.1832 60.5797 31.4085C60.1612 31.6339 59.8353 31.9518 59.6019 32.3623C59.3685 32.7727 59.2518 33.2435 59.2518 33.7747C59.2518 34.2978 59.3685 34.7646 59.6019 35.1751C59.8353 35.5855 60.1572 35.9075 60.5677 36.1409C60.9862 36.3662 61.461 36.4789 61.9922 36.4789C62.5556 36.4789 63.0626 36.3582 63.5133 36.1167V33.6419ZM71.2092 38.1449C70.3319 38.1449 69.5392 37.9557 68.8309 37.5775C68.1307 37.1992 67.5794 36.6801 67.177 36.0202C66.7827 35.3522 66.5855 34.6037 66.5855 33.7747C66.5855 32.9457 66.7827 32.2013 67.177 31.5413C67.5794 30.8733 68.1307 30.3502 68.8309 29.972C69.5392 29.5937 70.3319 29.4046 71.2092 29.4046C72.0864 29.4046 72.8751 29.5937 73.5753 29.972C74.2755 30.3502 74.8268 30.8733 75.2292 31.5413C75.6316 32.2013 75.8328 32.9457 75.8328 33.7747C75.8328 34.6037 75.6316 35.3522 75.2292 36.0202C74.8268 36.6801 74.2755 37.1992 73.5753 37.5775C72.8751 37.9557 72.0864 38.1449 71.2092 38.1449ZM71.2092 36.4789C71.7081 36.4789 72.1588 36.3662 72.5613 36.1409C72.9637 35.9075 73.2775 35.5855 73.5029 35.1751C73.7363 34.7646 73.853 34.2978 73.853 33.7747C73.853 33.2516 73.7363 32.7848 73.5029 32.3743C73.2775 31.9639 72.9637 31.646 72.5613 31.4206C72.1588 31.1872 71.7081 31.0705 71.2092 31.0705C70.7102 31.0705 70.2595 31.1872 69.8571 31.4206C69.4547 31.646 69.1368 31.9639 68.9034 32.3743C68.678 32.7848 68.5653 33.2516 68.5653 33.7747C68.5653 34.2978 68.678 34.7646 68.9034 35.1751C69.1368 35.5855 69.4547 35.9075 69.8571 36.1409C70.2595 36.3662 70.7102 36.4789 71.2092 36.4789ZM71.7403 27.1229H73.7685L71.5834 28.8613H70.1106L71.7403 27.1229ZM81.3468 38.1449C80.4857 38.1449 79.705 37.9598 79.0048 37.5895C78.3127 37.2113 77.7654 36.6922 77.363 36.0322C76.9686 35.3642 76.7715 34.6117 76.7715 33.7747C76.7715 32.9377 76.9686 32.1892 77.363 31.5293C77.7654 30.8613 78.3127 30.3422 79.0048 29.972C79.705 29.5937 80.4897 29.4046 81.3589 29.4046C82.0913 29.4046 82.7512 29.5333 83.3388 29.7909C83.9343 30.0484 84.4333 30.4186 84.8357 30.9015L83.5802 32.0605C83.0088 31.4005 82.3005 31.0705 81.4555 31.0705C80.9324 31.0705 80.4656 31.1872 80.0551 31.4206C79.6447 31.646 79.3227 31.9639 79.0893 32.3743C78.864 32.7848 78.7513 33.2516 78.7513 33.7747C78.7513 34.2978 78.864 34.7646 79.0893 35.1751C79.3227 35.5855 79.6447 35.9075 80.0551 36.1409C80.4656 36.3662 80.9324 36.4789 81.4555 36.4789C82.3005 36.4789 83.0088 36.1449 83.5802 35.4769L84.8357 36.6358C84.4333 37.1268 83.9343 37.501 83.3388 37.7586C82.7432 38.0161 82.0792 38.1449 81.3468 38.1449ZM86.1564 29.5494H88.1121V38H86.1564V29.5494ZM94.2101 38.1449C93.3329 38.1449 92.5401 37.9557 91.8319 37.5775C91.1317 37.1992 90.5804 36.6801 90.178 36.0202C89.7836 35.3522 89.5864 34.6037 89.5864 33.7747C89.5864 32.9457 89.7836 32.2013 90.178 31.5413C90.5804 30.8733 91.1317 30.3502 91.8319 29.972C92.5401 29.5937 93.3329 29.4046 94.2101 29.4046C95.0874 29.4046 95.8761 29.5937 96.5763 29.972C97.2765 30.3502 97.8278 30.8733 98.2302 31.5413C98.6326 32.2013 98.8338 32.9457 98.8338 33.7747C98.8338 34.6037 98.6326 35.3522 98.2302 36.0202C97.8278 36.6801 97.2765 37.1992 96.5763 37.5775C95.8761 37.9557 95.0874 38.1449 94.2101 38.1449ZM94.2101 36.4789C94.7091 36.4789 95.1598 36.3662 95.5622 36.1409C95.9646 35.9075 96.2785 35.5855 96.5038 35.1751C96.7372 34.7646 96.8539 34.2978 96.8539 33.7747C96.8539 33.2516 96.7372 32.7848 96.5038 32.3743C96.2785 31.9639 95.9646 31.646 95.5622 31.4206C95.1598 31.1872 94.7091 31.0705 94.2101 31.0705C93.7111 31.0705 93.2604 31.1872 92.858 31.4206C92.4556 31.646 92.1377 31.9639 91.9043 32.3743C91.679 32.7848 91.5663 33.2516 91.5663 33.7747C91.5663 34.2978 91.679 34.7646 91.9043 35.1751C92.1377 35.5855 92.4556 35.9075 92.858 36.1409C93.2604 36.3662 93.7111 36.4789 94.2101 36.4789ZM103.08 38.1449C102.412 38.1449 101.764 38.0563 101.137 37.8793C100.517 37.6942 100.018 37.4567 99.6396 37.167L100.304 35.6942C100.666 35.9598 101.096 36.1731 101.595 36.334C102.094 36.495 102.593 36.5755 103.092 36.5755C103.648 36.5755 104.058 36.495 104.324 36.334C104.589 36.165 104.722 35.9437 104.722 35.6701C104.722 35.4689 104.642 35.3039 104.481 35.1751C104.328 35.0383 104.126 34.9296 103.877 34.8491C103.636 34.7687 103.306 34.6801 102.887 34.5836C102.243 34.4306 101.716 34.2777 101.306 34.1248C100.895 33.9719 100.541 33.7264 100.243 33.3884C99.9535 33.0504 99.8086 32.5997 99.8086 32.0363C99.8086 31.5454 99.9414 31.1027 100.207 30.7084C100.473 30.3059 100.871 29.988 101.402 29.7547C101.941 29.5213 102.597 29.4046 103.37 29.4046C103.909 29.4046 104.436 29.4689 104.951 29.5977C105.466 29.7265 105.917 29.9116 106.303 30.153L105.7 31.6379C104.919 31.1953 104.139 30.9739 103.358 30.9739C102.811 30.9739 102.404 31.0625 102.139 31.2395C101.881 31.4166 101.752 31.65 101.752 31.9397C101.752 32.2295 101.901 32.4468 102.199 32.5916C102.505 32.7284 102.968 32.8653 103.587 33.0021C104.231 33.155 104.758 33.3079 105.169 33.4608C105.579 33.6137 105.929 33.8552 106.219 34.1852C106.517 34.5151 106.666 34.9618 106.666 35.5252C106.666 36.0081 106.529 36.4507 106.255 36.8531C105.99 37.2475 105.587 37.5614 105.048 37.7948C104.509 38.0282 103.853 38.1449 103.08 38.1449Z" fill="black"/>
<path d="M127.765 8.69658C125.639 8.69658 123.917 6.97364 123.917 4.84829C123.917 2.72294 125.639 1 127.765 1C129.89 1 131.613 2.72294 131.613 4.84829C131.613 6.97364 129.89 8.69658 127.765 8.69658Z" fill="black"/>
<path d="M142.911 4.84829C142.911 6.97364 144.634 8.69658 146.76 8.69658C148.885 8.69658 150.608 6.97364 150.608 4.84829C150.608 2.72294 148.885 1 146.76 1C144.634 1 142.911 2.72294 142.911 4.84829Z" fill="black"/>
<path fill-rule="evenodd" clip-rule="evenodd" d="M150.265 32.0422C148.612 20.5131 155.884 11.6294 159.411 7.62173C152 12.4284 143.955 11.7291 138.45 9.95773C139.168 9.05619 139.842 8.27432 140.416 7.62173C139.29 8.35236 138.149 8.95578 137.004 9.44755C135.623 8.91564 134.456 8.33317 133.571 7.79286L133.576 7.79894C134.144 8.44047 134.803 9.18537 135.506 10.0283C126.848 13.0318 118.267 10.0458 114.576 7.79286C118.496 12.2242 126.621 22.108 123.682 34.6785C119.53 35.8802 115.818 37.2384 113.036 38.424C135.625 33.6325 152.224 34.26 157.7 35.1726C155.638 33.6136 153.098 32.6118 150.265 32.0422ZM143.325 31.4377C144.257 23.1884 140.491 16.4863 136.991 11.8881C133.516 16.7551 129.856 24.0354 131.388 32.7824C135.364 31.9848 139.456 31.4609 143.325 31.4377Z" fill="black"/>
<path d="M225.191 18.0866C226.48 17.0722 228.109 16.5718 230.053 16.5718C233.396 16.5718 235.069 18.4666 235.069 22.2563V27.8769H231.59V26.8837H231.433C230.611 27.6281 229.535 28.0317 228.425 28.0121C227.272 28.0121 226.323 27.6927 225.553 27.0424C224.807 26.3877 224.423 25.6202 224.423 24.6962C224.423 23.1845 225.055 22.1243 226.118 21.6091C227.185 21.0672 228.221 20.8639 229.489 20.8639H231.59C231.59 19.8931 230.754 19.0819 229.419 19.0819C228.448 19.0819 227.429 19.4651 226.367 20.2092L225.191 18.0866ZM231.572 23.4326V23.1621H229.69C228.538 23.1621 227.95 23.5454 227.95 24.3332C227.95 24.9867 228.448 25.4381 229.351 25.4381C230.549 25.4402 231.572 24.628 231.572 23.4326ZM229.895 12.9216H232.721L230.505 15.6052H228.448L229.895 12.9216Z" fill="#CD2228"/>
<path d="M244.344 16.8686L243.597 19.9812C243.212 19.7555 242.647 19.6426 241.946 19.6426C240.773 19.6426 239.775 20.5006 239.775 21.6503V27.8766H236.268V16.7334H239.794V18.0416H239.908C240.474 17.1612 241.537 16.5748 242.553 16.5748C243.305 16.5716 243.893 16.6653 244.344 16.8686Z" fill="#CD2228"/>
<path d="M247.51 23.8155C247.51 25.0109 248.437 25.6432 249.726 25.6432C250.9 25.6432 252.258 25.2366 252.821 24.5787L254.494 26.2255C253.227 27.4433 251.599 28.0522 249.632 28.0522C247.62 28.0522 246.173 27.6008 245.246 26.6768C244.341 25.7543 243.888 24.6263 243.889 23.2928V21.5598C243.889 20.2749 244.387 19.1241 245.358 18.1087C246.331 17.0931 247.668 16.5715 249.319 16.5715C252.507 16.5715 254.362 18.0384 254.362 20.1131C254.362 21.1777 253.935 22.0537 253.049 22.752C252.19 23.4514 251.105 23.8165 249.816 23.8165L247.51 23.8155ZM249.477 21.5598C250.45 21.5598 251.127 21.0413 251.127 20.1621C251.127 19.4403 250.517 18.9432 249.59 18.9432C248.392 18.9432 247.441 19.914 247.441 21.5598H249.477Z" fill="#CD2228"/>
<path d="M255.04 18.0863C256.329 17.0718 257.957 16.5715 259.901 16.5715C263.244 16.5715 264.917 18.4664 264.917 22.256V27.8766H261.438V26.8834H261.281C260.459 27.6279 259.384 28.0314 258.274 28.0118C257.12 28.0118 256.171 27.6924 255.401 27.0419C254.655 26.3873 254.271 25.6209 254.271 24.7001C254.271 23.1884 254.904 22.1282 255.967 21.613C257.034 21.0712 258.071 20.8678 259.337 20.8678H261.438C261.438 19.897 260.603 19.0859 259.269 19.0859C258.296 19.0859 257.279 19.4691 256.215 20.2132L255.04 18.0863ZM261.416 23.4323V23.1618H259.54C258.387 23.1618 257.799 23.5451 257.799 24.3329C257.799 24.9864 258.296 25.4378 259.201 25.4378C260.399 25.4399 261.416 24.6277 261.416 23.4323Z" fill="#CD2228"/>
<path d="M275.911 24.5374C275.345 26.591 273.604 28.0344 270.823 28.0344C269.222 28.0344 267.929 27.5607 266.911 26.6356C265.895 25.6882 265.397 24.5374 265.397 23.2068V21.4249C265.387 20.7702 265.519 20.1212 265.784 19.5224C266.05 18.9235 266.441 18.3891 266.933 17.9556C267.952 17.0306 269.262 16.5569 270.823 16.5569C273.65 16.5569 275.436 18.0908 275.911 20.1432L272.519 21.0012C272.435 20.5991 272.213 20.2389 271.891 19.9833C271.569 19.7277 271.168 19.5929 270.756 19.6024C270.514 19.6007 270.274 19.6467 270.05 19.7376C269.826 19.8285 269.622 19.9626 269.449 20.1323C269.277 20.3019 269.14 20.5038 269.046 20.7263C268.951 20.9488 268.902 21.1876 268.901 21.4291V23.1887C268.901 24.1809 269.76 24.993 270.756 24.993C271.153 24.9985 271.541 24.8701 271.857 24.6287C272.173 24.3873 272.398 24.047 272.496 23.6624L275.911 24.5374Z" fill="#CD2228"/>
<path d="M279.415 23.8155C279.415 25.0109 280.343 25.6432 281.631 25.6432C282.805 25.6432 284.164 25.2366 284.726 24.5787L286.399 26.2255C285.133 27.4433 283.506 28.0522 281.538 28.0522C279.525 28.0522 278.078 27.6008 277.15 26.6768C276.247 25.7543 275.795 24.6263 275.795 23.2928V21.5598C275.795 20.2749 276.291 19.1241 277.264 18.1087C278.236 17.0931 279.574 16.5715 281.225 16.5715C284.413 16.5715 286.267 18.0384 286.267 20.1131C286.267 21.1777 285.84 22.0537 284.956 22.752C284.102 23.4514 283.011 23.8165 281.722 23.8165L279.415 23.8155ZM281.383 21.5598C282.355 21.5598 283.034 21.0413 283.034 20.1621C283.034 19.4403 282.424 18.9432 281.497 18.9432C280.297 18.9432 279.348 19.914 279.348 21.5598H281.383Z" fill="#CD2228"/>
<path d="M297.665 27.8766H294.136V22.372C294.149 21.8871 294.102 21.4026 293.999 20.9285C293.841 20.1834 293.367 19.5979 292.371 19.5979C291.304 19.5979 290.54 20.3431 290.54 21.4023V27.8766H287.014V16.7333H290.564V18.0415H290.655C291.175 17.207 292.469 16.5747 293.797 16.5747C296.375 16.5747 297.665 18.0409 297.665 20.9733V27.8766Z" fill="#CD2228"/>
<path d="M302.841 16.7332H305.102V19.1017H302.841V23.4779C302.841 24.5371 303.225 24.9682 304.31 24.9682H305.102V27.8765H304.152C300.647 27.8765 299.313 26.6129 299.313 23.4779V19.1017H297.732V16.7332H299.315V13.891H302.843L302.841 16.7332Z" fill="#CD2228"/>
<path d="M313.763 16.8686L313.017 19.9812C312.632 19.7555 312.066 19.6426 311.366 19.6426C310.192 19.6426 309.195 20.5006 309.195 21.6503V27.8766H305.691V16.7334H309.213V18.0416H309.325C309.891 17.1612 310.954 16.5748 311.971 16.5748C312.723 16.5716 313.313 16.6653 313.763 16.8686Z" fill="#CD2228"/>
<path d="M313.491 18.0863C314.78 17.0718 316.408 16.5715 318.353 16.5715C321.701 16.5715 323.372 18.4664 323.367 22.256V27.8766H319.89V26.8834H319.732C318.911 27.6275 317.837 28.031 316.728 28.0118C315.574 28.0118 314.624 27.6924 313.856 27.0419C313.109 26.3873 312.725 25.6209 312.725 24.7001C312.725 23.1884 313.358 22.1282 314.421 21.613C315.487 21.0712 316.524 20.8678 317.79 20.8678H319.893C319.893 19.897 319.056 19.0859 317.722 19.0859C316.75 19.0859 315.732 19.4691 314.668 20.2132L313.491 18.0863ZM319.868 23.4323V23.1618H317.99C316.838 23.1618 316.25 23.5451 316.25 24.3329C316.25 24.9864 316.748 25.4378 317.653 25.4378C318.851 25.4399 319.868 24.6277 319.868 23.4323Z" fill="#CD2228"/>
<path d="M329.411 24.9439V27.899H327.896C325.386 27.899 324.142 26.478 324.142 23.658V11.9485H327.692V23.6357C327.692 24.5149 328.145 24.9439 329.048 24.9439H329.411Z" fill="#CD2228"/>
<path fill-rule="evenodd" clip-rule="evenodd" d="M169.411 1H207.503V39H169.411V1ZM174.298 13.9496C176.16 12.4911 178.508 11.7718 181.314 11.7718C186.138 11.7718 188.551 14.496 188.551 19.9443V28.0249H183.532V26.597H183.305C182.119 27.6673 180.567 28.2475 178.965 28.2192C177.301 28.2192 175.93 27.7602 174.82 26.8251C173.742 25.8838 173.189 24.7819 173.189 23.4581C173.189 21.2849 174.103 19.7606 175.637 19.0199C177.176 18.2409 178.672 17.9486 180.499 17.9486H183.532C183.532 16.5528 182.325 15.3867 180.401 15.3867C178.998 15.3867 177.528 15.9377 175.995 17.0074L174.298 13.9496ZM183.5 21.2467V21.6354C183.5 23.354 182.032 24.5217 180.302 24.5187C178.998 24.5187 178.28 23.8698 178.28 22.9302C178.28 21.7976 179.128 21.2467 180.791 21.2467H183.5ZM196.382 28.2505C200.395 28.2505 202.908 26.1752 203.725 23.223L198.798 21.965C198.655 22.5178 198.33 23.0072 197.875 23.3543C197.42 23.7012 196.86 23.8857 196.285 23.8781C194.849 23.8781 193.609 22.7104 193.609 21.2839V18.7543C193.611 18.407 193.682 18.0637 193.818 17.7438C193.953 17.4239 194.151 17.1336 194.4 16.8897C194.648 16.6459 194.942 16.453 195.266 16.3223C195.59 16.1916 195.936 16.1255 196.285 16.128C196.879 16.1144 197.459 16.3081 197.924 16.6756C198.389 17.043 198.709 17.5608 198.83 18.139L203.725 16.9054C203.04 13.9548 200.462 11.7494 196.382 11.7494C194.131 11.7494 192.238 12.4305 190.77 13.7604C190.059 14.3836 189.494 15.152 189.111 16.0129C188.729 16.8739 188.538 17.8069 188.552 18.7481V21.31C188.552 23.2231 189.27 24.8774 190.738 26.2395C192.206 27.5694 194.072 28.2505 196.382 28.2505Z" fill="#CD2228"/>
</svg>
