<svg width="767" height="117" viewBox="0 0 767 117" fill="none" xmlns="http://www.w3.org/2000/svg">
<path opacity="0.5" d="M71.0594 44.4052L70.5105 44.9633L70.515 44.9677L71.0594 44.4052ZM79.9874 114.389V115.172H80.7703V114.389H79.9874ZM57.5234 114.389H56.7406V115.172H57.5234V114.389ZM53.4914 59.8132L52.9022 60.3287L52.9105 60.3379L53.4914 59.8132ZM28.2914 60.5332L28.8528 61.0789L28.8601 61.0711L28.2914 60.5332ZM23.2514 114.389V115.172H24.0343V114.389H23.2514ZM0.787435 114.389H0.0045929V115.172H0.787435V114.389ZM0.787435 36.9172V36.1343H0.0045929V36.9172H0.787435ZM22.2434 36.9172H23.0263V36.1343H22.2434V36.9172ZM22.2434 45.9892H21.4606V48.0097L22.8219 46.5166L22.2434 45.9892ZM33.3314 38.5012L33.6167 39.2302L33.6235 39.2275L33.6303 39.2247L33.3314 38.5012ZM47.8754 36.548C57.3074 36.548 64.8255 39.3715 70.5105 44.9633L71.6084 43.847C65.5814 37.9188 57.6435 34.9823 47.8754 34.9823V36.548ZM70.515 44.9677C76.2653 50.5325 79.2046 58.841 79.2046 70.0372H80.7703C80.7703 58.5773 77.7576 49.7978 71.6038 43.8426L70.515 44.9677ZM79.2046 70.0372V114.389H80.7703V70.0372H79.2046ZM79.9874 113.606H57.5234V115.172H79.9874V113.606ZM58.3063 114.389V73.4932H56.7406V114.389H58.3063ZM58.3063 73.4932C58.3063 67.2549 56.9444 62.4682 54.0724 59.2884L52.9105 60.3379C55.4145 63.1101 56.7406 67.4435 56.7406 73.4932H58.3063ZM54.0806 59.2977C51.2085 56.0152 47.0811 54.4223 41.8274 54.4223V55.988C46.7498 55.988 50.3984 57.4671 52.9023 60.3287L54.0806 59.2977ZM41.8274 54.4223C35.9855 54.4223 31.2544 56.2618 27.7227 59.9952L28.8601 61.0711C32.0485 57.7006 36.3414 55.988 41.8274 55.988V54.4223ZM27.7301 59.9875C24.1764 63.6427 22.4686 69.0579 22.4686 76.0852H24.0343C24.0343 69.2884 25.6864 64.3356 28.8527 61.0789L27.7301 59.9875ZM22.4686 76.0852V114.389H24.0343V76.0852H22.4686ZM23.2514 113.606H0.787435V115.172H23.2514V113.606ZM1.57028 114.389V36.9172H0.0045929V114.389H1.57028ZM0.787435 37.7H22.2434V36.1343H0.787435V37.7ZM21.4606 36.9172V45.9892H23.0263V36.9172H21.4606ZM22.8219 46.5166C25.7111 43.3479 29.3042 40.9177 33.6167 39.2302L33.0462 37.7721C28.5267 39.5406 24.7278 42.1025 21.665 45.4617L22.8219 46.5166ZM33.6303 39.2247C37.942 37.4438 42.6872 36.548 47.8754 36.548V34.9823C42.5037 34.9823 37.5528 35.9105 33.0326 37.7776L33.6303 39.2247ZM116.026 110.501L115.655 111.191L115.667 111.197L116.026 110.501ZM100.906 96.2452L100.235 96.6495L100.906 96.2452ZM100.906 55.0612L100.235 54.6568L100.906 55.0612ZM116.026 40.9492L116.388 41.643L116.392 41.641L116.026 40.9492ZM159.946 40.9492L159.575 41.6388L159.583 41.643L159.946 40.9492ZM175.066 55.0612L175.736 54.6568L175.066 55.0612ZM175.066 96.2452L175.736 96.6495L175.066 96.2452ZM159.946 110.501L160.308 111.195L160.316 111.191L159.946 110.501ZM152.17 91.3492L151.602 90.8096L151.602 90.81L152.17 91.3492ZM152.17 60.1012L151.596 60.6333L151.602 60.6406L151.609 60.6477L152.17 60.1012ZM123.802 60.1012L124.362 60.6477L124.369 60.6407L123.802 60.1012ZM123.802 91.3492L123.234 91.8887L123.241 91.8957L123.802 91.3492ZM138.058 114.758C130.008 114.758 122.789 113.102 116.384 109.805L115.667 111.197C122.318 114.62 129.787 116.324 138.058 116.324V114.758ZM116.396 109.812C110.084 106.42 105.149 101.764 101.576 95.8408L100.235 96.6495C103.958 102.822 109.104 107.671 115.655 111.191L116.396 109.812ZM101.576 95.8408C98.008 89.9254 96.2165 83.2035 96.2165 75.6532H94.6508C94.6508 83.4628 96.5074 90.4689 100.235 96.6495L101.576 95.8408ZM96.2165 75.6532C96.2165 68.1028 98.008 61.3809 101.576 55.4655L100.235 54.6568C96.5074 60.8374 94.6508 67.8435 94.6508 75.6532H96.2165ZM101.576 55.4655C105.148 49.5439 110.08 44.9385 116.388 41.643L115.663 40.2553C109.108 43.6798 103.96 48.4824 100.235 54.6568L101.576 55.4655ZM116.392 41.641C122.796 38.2508 130.012 36.548 138.058 36.548V34.9823C129.784 34.9823 122.312 36.7355 115.659 40.2573L116.392 41.641ZM138.058 36.548C146.104 36.548 153.27 38.2509 159.575 41.6388L160.316 40.2596C153.757 36.7354 146.332 34.9823 138.058 34.9823V36.548ZM159.583 41.643C165.892 44.9385 170.824 49.5439 174.395 55.4655L175.736 54.6568C172.012 48.4824 166.864 43.6798 160.308 40.2553L159.583 41.643ZM174.395 55.4655C177.963 61.3809 179.755 68.1028 179.755 75.6532H181.321C181.321 67.8435 179.464 60.8374 175.736 54.6568L174.395 55.4655ZM179.755 75.6532C179.755 83.2035 177.963 89.9254 174.395 95.8408L175.736 96.6495C179.464 90.4689 181.321 83.4628 181.321 75.6532H179.755ZM174.395 95.8408C170.822 101.764 165.888 106.42 159.575 109.812L160.316 111.191C166.868 107.671 172.013 102.822 175.736 96.6495L174.395 95.8408ZM159.583 109.807C153.276 113.102 146.107 114.758 138.058 114.758V116.324C146.328 116.324 153.751 114.62 160.308 111.195L159.583 109.807ZM138.058 97.892C144.011 97.892 148.928 95.8984 152.737 91.8883L151.602 90.81C148.116 94.4799 143.624 96.3263 138.058 96.3263V97.892ZM152.737 91.8887C156.646 87.7787 158.569 82.339 158.569 75.6532H157.003C157.003 82.0233 155.181 87.0476 151.602 90.8096L152.737 91.8887ZM158.569 75.6532C158.569 68.968 156.647 63.5714 152.73 59.5547L151.609 60.6477C155.181 64.3109 157.003 69.2823 157.003 75.6532H158.569ZM152.744 59.569C148.936 55.4605 144.018 53.4143 138.058 53.4143V54.98C143.618 54.98 148.107 56.8698 151.596 60.6333L152.744 59.569ZM138.058 53.4143C132.098 53.4143 127.136 55.4601 123.234 59.5616L124.369 60.6407C127.955 56.8702 132.498 54.98 138.058 54.98V53.4143ZM123.241 59.5547C119.325 63.5714 117.403 68.968 117.403 75.6532H118.969C118.969 69.2823 120.791 64.3109 124.362 60.6477L123.241 59.5547ZM117.403 75.6532C117.403 82.339 119.325 87.7787 123.234 91.8887L124.369 90.8096C120.79 87.0476 118.969 82.0233 118.969 75.6532H117.403ZM123.241 91.8957C127.144 95.8988 132.104 97.892 138.058 97.892V96.3263C132.491 96.3263 127.947 94.4796 124.362 90.8027L123.241 91.8957ZM270.34 36.9172L271.061 37.2215L271.52 36.1343H270.34V36.9172ZM237.652 114.389V115.172H238.171L238.373 114.693L237.652 114.389ZM214.468 114.389L213.746 114.692L213.947 115.172H214.468V114.389ZM181.924 36.9172V36.1343H180.746L181.202 37.2203L181.924 36.9172ZM205.108 36.9172L205.833 36.622L205.634 36.1343H205.108V36.9172ZM226.564 89.6212L225.839 89.9163L226.552 91.668L227.285 89.9248L226.564 89.6212ZM248.74 36.9172V36.1343H248.22L248.018 36.6135L248.74 36.9172ZM269.618 36.6128L236.93 114.085L238.373 114.693L271.061 37.2215L269.618 36.6128ZM237.652 113.606H214.468V115.172H237.652V113.606ZM215.189 114.086L182.645 36.614L181.202 37.2203L213.746 114.692L215.189 114.086ZM181.924 37.7H205.108V36.1343H181.924V37.7ZM204.383 37.2123L225.839 89.9163L227.289 89.326L205.833 36.622L204.383 37.2123ZM227.285 89.9248L249.461 37.2208L248.018 36.6135L225.842 89.3176L227.285 89.9248ZM248.74 37.7H270.34V36.1343H248.74V37.7ZM279.506 36.9172V36.1343H278.723V36.9172H279.506ZM301.97 36.9172H302.753V36.1343H301.97V36.9172ZM301.97 114.389V115.172H302.753V114.389H301.97ZM279.506 114.389H278.723V115.172H279.506V114.389ZM280.658 22.5172L280.126 23.0916L280.658 22.5172ZM280.658 4.66116L281.19 5.23557L280.658 4.66116ZM300.818 4.51716L300.298 5.10226L300.818 4.51716ZM300.818 22.5172L301.35 23.0916L301.356 23.0864L301.361 23.0811L300.818 22.5172ZM279.506 37.7H301.97V36.1343H279.506V37.7ZM301.187 36.9172V114.389H302.753V36.9172H301.187ZM301.97 113.606H279.506V115.172H301.97V113.606ZM280.289 114.389V36.9172H278.723V114.389H280.289ZM290.738 25.3343C286.772 25.3343 283.613 24.1865 281.19 21.9427L280.126 23.0916C282.887 25.6479 286.448 26.9 290.738 26.9V25.3343ZM281.19 21.9427C278.759 19.6918 277.553 16.9245 277.553 13.5892H275.987C275.987 17.3579 277.373 20.5425 280.126 23.0916L281.19 21.9427ZM277.553 13.5892C277.553 10.2539 278.759 7.48648 281.19 5.23557L280.126 4.08674C277.373 6.63583 275.987 9.82046 275.987 13.5892H277.553ZM281.19 5.23557C283.613 2.99185 286.772 1.84399 290.738 1.84399V0.278311C286.448 0.278311 282.887 1.53046 280.126 4.08674L281.19 5.23557ZM290.738 1.84399C294.713 1.84399 297.876 2.94907 300.298 5.10226L301.338 3.93206C298.577 1.47724 295.019 0.278311 290.738 0.278311V1.84399ZM300.298 5.10226C302.724 7.25829 303.923 9.92566 303.923 13.1572H305.489C305.489 9.47666 304.097 6.38402 301.338 3.93206L300.298 5.10226ZM303.923 13.1572C303.923 16.6981 302.707 19.6114 300.275 21.9533L301.361 23.0811C304.113 20.4309 305.489 17.1042 305.489 13.1572H303.923ZM300.286 21.9427C297.863 24.1865 294.704 25.3343 290.738 25.3343V26.9C295.028 26.9 298.589 25.6479 301.35 23.0916L300.286 21.9427ZM401.731 7.54115H402.514V6.75831H401.731V7.54115ZM401.731 114.389V115.172H402.514V114.389H401.731ZM380.275 114.389H379.492V115.172H380.275V114.389ZM380.275 105.461H381.058V103.289L379.672 104.962L380.275 105.461ZM336.211 110.645L335.83 111.329L335.834 111.332L336.211 110.645ZM322.387 96.6772L323.071 96.297L322.387 96.6772ZM322.387 54.6292L323.071 55.0093L322.387 54.6292ZM336.211 40.6612L335.834 39.9747L335.83 39.9774L336.211 40.6612ZM379.267 45.1252L378.683 45.6464L380.05 47.1783V45.1252H379.267ZM379.267 7.54115V6.75831H378.484V7.54115H379.267ZM374.083 91.3492L374.643 91.8957L374.65 91.8887L374.083 91.3492ZM374.083 60.1012L373.515 60.6407L373.522 60.6477L374.083 60.1012ZM345.715 60.1012L346.275 60.6477L346.282 60.6407L345.715 60.1012ZM345.715 91.3492L345.147 91.8887L345.154 91.8957L345.715 91.3492ZM400.948 7.54115V114.389H402.514V7.54115H400.948ZM401.731 113.606H380.275V115.172H401.731V113.606ZM381.058 114.389V105.461H379.492V114.389H381.058ZM379.672 104.962C374.284 111.464 366.464 114.758 356.083 114.758V116.324C366.822 116.324 375.129 112.898 380.878 105.961L379.672 104.962ZM356.083 114.758C348.908 114.758 342.415 113.155 336.587 109.959L335.834 111.332C341.91 114.664 348.665 116.324 356.083 116.324V114.758ZM336.592 109.961C330.867 106.771 326.363 102.222 323.071 96.297L321.702 97.0573C325.131 103.229 329.842 107.992 335.83 111.329L336.592 109.961ZM323.071 96.297C319.785 90.3819 318.13 83.5085 318.13 75.6532H316.564C316.564 83.7338 318.269 90.8764 321.702 97.0573L323.071 96.297ZM318.13 75.6532C318.13 67.7978 319.785 60.9244 323.071 55.0093L321.702 54.249C318.269 60.4299 316.564 67.5725 316.564 75.6532H318.13ZM323.071 55.0093C326.363 49.0845 330.867 44.5356 336.592 41.345L335.83 39.9774C329.842 43.3147 325.131 48.0778 321.702 54.249L323.071 55.0093ZM336.587 41.3476C342.415 38.1515 348.908 36.548 356.083 36.548V34.9823C348.665 34.9823 341.91 36.6428 335.834 39.9748L336.587 41.3476ZM356.083 36.548C365.792 36.548 373.29 39.6034 378.683 45.6464L379.851 44.604C374.107 38.1669 366.149 34.9823 356.083 34.9823V36.548ZM380.05 45.1252V7.54115H378.484V45.1252H380.05ZM379.267 8.324H401.731V6.75831H379.267V8.324ZM359.971 97.892C365.833 97.892 370.743 95.896 374.643 91.8957L373.522 90.8027C369.934 94.4823 365.437 96.3263 359.971 96.3263V97.892ZM374.65 91.8887C378.559 87.7787 380.482 82.339 380.482 75.6532H378.916C378.916 82.0233 377.094 87.0476 373.515 90.8096L374.65 91.8887ZM380.482 75.6532C380.482 68.968 378.56 63.5714 374.643 59.5547L373.522 60.6477C377.094 64.3109 378.916 69.2823 378.916 75.6532H380.482ZM374.65 59.5616C370.751 55.463 365.839 53.4143 359.971 53.4143V54.98C365.431 54.98 369.926 56.8673 373.515 60.6407L374.65 59.5616ZM359.971 53.4143C354.011 53.4143 349.049 55.4601 345.147 59.5616L346.282 60.6407C349.868 56.8702 354.411 54.98 359.971 54.98V53.4143ZM345.154 59.5547C341.238 63.5714 339.316 68.968 339.316 75.6532H340.882C340.882 69.2823 342.704 64.3109 346.275 60.6477L345.154 59.5547ZM339.316 75.6532C339.316 82.339 341.238 87.7787 345.147 91.8887L346.282 90.8096C342.703 87.0476 340.882 82.0233 340.882 75.6532H339.316ZM345.154 91.8957C349.057 95.8988 354.017 97.892 359.971 97.892V96.3263C354.404 96.3263 349.86 94.4796 346.275 90.8027L345.154 91.8957ZM481.418 44.4052L480.896 44.9884L480.9 44.9927L481.418 44.4052ZM491.066 114.389V115.172H491.849V114.389H491.066ZM470.042 114.389H469.259V115.172H470.042V114.389ZM470.042 104.741H470.825V101.86L469.367 104.345L470.042 104.741ZM430.874 112.517L430.543 113.227L430.549 113.229L430.874 112.517ZM420.938 104.165L421.595 103.739L420.938 104.165ZM425.546 75.0772L425.074 74.4522L425.069 74.4563L425.546 75.0772ZM468.602 68.8852V69.668H469.385V68.8852H468.602ZM464.138 57.6532L463.613 58.2342L463.624 58.2435L464.138 57.6532ZM438.506 55.6372L438.742 56.3835L438.753 56.3798L438.506 55.6372ZM428.426 60.8212L427.729 61.1789L428.165 62.027L428.912 61.4345L428.426 60.8212ZM420.362 45.1252L419.911 44.4852L419.354 44.8773L419.665 45.4829L420.362 45.1252ZM435.482 38.2132L435.275 37.4582L435.272 37.459L435.482 38.2132ZM462.266 97.8292L462.659 98.5061L462.667 98.5015L462.675 98.4966L462.266 97.8292ZM468.602 89.9092L469.338 90.175L469.385 90.0462V89.9092H468.602ZM468.602 81.9892H469.385V81.2063H468.602V81.9892ZM442.682 97.9732L442.199 98.5897L442.214 98.6012L442.229 98.612L442.682 97.9732ZM453.77 36.548C465.652 36.548 474.655 39.3995 480.896 44.9883L481.94 43.822C475.317 37.8908 465.887 34.9823 453.77 34.9823V36.548ZM480.9 44.9927C487.111 50.4616 490.283 58.8047 490.283 70.1812H491.849C491.849 58.5177 488.589 49.6767 481.935 43.8176L480.9 44.9927ZM490.283 70.1812V114.389H491.849V70.1812H490.283ZM491.066 113.606H470.042V115.172H491.066V113.606ZM470.825 114.389V104.741H469.259V114.389H470.825ZM469.367 104.345C465.334 111.219 457.786 114.758 446.426 114.758V116.324C458.105 116.324 466.301 112.664 470.717 105.137L469.367 104.345ZM446.426 114.758C440.561 114.758 435.492 113.765 431.199 111.805L430.549 113.229C435.087 115.301 440.386 116.324 446.426 116.324V114.758ZM431.205 111.808C427.001 109.846 423.809 107.153 421.595 103.739L420.281 104.591C422.675 108.281 426.107 111.157 430.543 113.227L431.205 111.808ZM421.595 103.739C419.378 100.322 418.265 96.4404 418.265 92.0692H416.699C416.699 96.722 417.889 100.904 420.281 104.591L421.595 103.739ZM418.265 92.0692C418.265 85.0949 420.853 79.6675 426.023 75.6981L425.069 74.4563C419.487 78.7428 416.699 84.6434 416.699 92.0692H418.265ZM426.017 75.7021C431.29 71.7243 439.486 69.668 450.746 69.668V68.1023C439.349 68.1023 430.745 70.174 425.074 74.4522L426.017 75.7021ZM450.746 69.668H468.602V68.1023H450.746V69.668ZM469.385 68.8852C469.385 63.8218 467.839 59.8383 464.652 57.0628L463.624 58.2435C466.389 60.652 467.819 64.1565 467.819 68.8852H469.385ZM464.663 57.0722C461.487 54.2037 456.8 52.8383 450.746 52.8383V54.404C456.596 54.404 460.837 55.7267 463.613 58.2341L464.663 57.0722ZM450.746 52.8383C446.531 52.8383 442.368 53.5247 438.258 54.8945L438.753 56.3798C442.708 55.0616 446.704 54.404 450.746 54.404V52.8383ZM438.269 54.8909C434.257 56.1631 430.809 57.932 427.939 60.2078L428.912 61.4345C431.611 59.2944 434.883 57.6072 438.742 56.3834L438.269 54.8909ZM429.122 60.4634L421.058 44.7674L419.665 45.4829L427.729 61.1789L429.122 60.4634ZM420.813 45.7651C424.952 42.8488 429.907 40.5794 435.692 38.9673L435.272 37.459C429.344 39.1109 424.22 41.4495 419.911 44.4852L420.813 45.7651ZM435.689 38.9681C441.573 37.3548 447.599 36.548 453.77 36.548V34.9823C447.461 34.9823 441.295 35.8075 435.275 37.4582L435.689 38.9681ZM452.042 101.204C456.004 101.204 459.55 100.311 462.659 98.5061L461.873 97.1522C459.03 98.8031 455.76 99.6383 452.042 99.6383V101.204ZM462.675 98.4966C465.811 96.5746 468.033 93.7887 469.338 90.175L467.866 89.6433C466.674 92.9416 464.673 95.4357 461.857 97.1617L462.675 98.4966ZM469.385 89.9092V81.9892H467.819V89.9092H469.385ZM468.602 81.2063H453.194V82.772H468.602V81.2063ZM453.194 81.2063C448.525 81.2063 444.888 81.9678 442.396 83.6027C439.848 85.2753 438.587 87.8038 438.587 91.0612H440.153C440.153 88.2705 441.196 86.263 443.255 84.9117C445.372 83.5226 448.647 82.772 453.194 82.772V81.2063ZM438.587 91.0612C438.587 94.1743 439.796 96.7086 442.199 98.5897L443.164 97.3567C441.152 95.7817 440.153 93.708 440.153 91.0612H438.587ZM442.229 98.612C444.709 100.368 448.006 101.204 452.042 101.204V99.6383C448.206 99.6383 445.263 98.8422 443.134 97.3343L442.229 98.612ZM591.153 7.54115H591.935V6.75831H591.153V7.54115ZM591.153 114.389V115.172H591.935V114.389H591.153ZM569.697 114.389H568.914V115.172H569.697V114.389ZM569.697 105.461H570.479V103.289L569.094 104.962L569.697 105.461ZM525.633 110.645L525.251 111.329L525.256 111.332L525.633 110.645ZM511.809 96.6772L512.493 96.297L511.809 96.6772ZM511.809 54.6292L512.493 55.0093L511.809 54.6292ZM525.633 40.6612L525.256 39.9747L525.251 39.9774L525.633 40.6612ZM568.689 45.1252L568.104 45.6464L569.471 47.1783V45.1252H568.689ZM568.689 7.54115V6.75831H567.906V7.54115H568.689ZM563.505 91.3492L564.065 91.8957L564.072 91.8887L563.505 91.3492ZM563.505 60.1012L562.937 60.6407L562.944 60.6477L563.505 60.1012ZM535.137 60.1012L535.697 60.6477L535.704 60.6407L535.137 60.1012ZM535.137 91.3492L534.569 91.8887L534.576 91.8957L535.137 91.3492ZM590.37 7.54115V114.389H591.935V7.54115H590.37ZM591.153 113.606H569.697V115.172H591.153V113.606ZM570.479 114.389V105.461H568.914V114.389H570.479ZM569.094 104.962C563.706 111.464 555.885 114.758 545.505 114.758V116.324C556.244 116.324 564.551 112.898 570.299 105.961L569.094 104.962ZM545.505 114.758C538.33 114.758 531.837 113.155 526.009 109.959L525.256 111.332C531.332 114.664 538.087 116.324 545.505 116.324V114.758ZM526.014 109.961C520.289 106.771 515.784 102.222 512.493 96.297L511.124 97.0573C514.553 103.229 519.264 107.992 525.251 111.329L526.014 109.961ZM512.493 96.297C509.207 90.3819 507.551 83.5085 507.551 75.6532H505.986C505.986 83.7338 507.69 90.8764 511.124 97.0573L512.493 96.297ZM507.551 75.6532C507.551 67.7978 509.207 60.9244 512.493 55.0093L511.124 54.249C507.69 60.4299 505.986 67.5725 505.986 75.6532H507.551ZM512.493 55.0093C515.784 49.0845 520.289 44.5356 526.014 41.345L525.251 39.9774C519.264 43.3147 514.553 48.0778 511.124 54.249L512.493 55.0093ZM526.009 41.3476C531.837 38.1515 538.33 36.548 545.505 36.548V34.9823C538.087 34.9823 531.332 36.6428 525.256 39.9748L526.009 41.3476ZM545.505 36.548C555.214 36.548 562.712 39.6034 568.104 45.6464L569.273 44.604C563.529 38.1669 555.571 34.9823 545.505 34.9823V36.548ZM569.471 45.1252V7.54115H567.906V45.1252H569.471ZM568.689 8.324H591.153V6.75831H568.689V8.324ZM549.393 97.892C555.254 97.892 560.165 95.896 564.065 91.8957L562.944 90.8027C559.356 94.4823 554.859 96.3263 549.393 96.3263V97.892ZM564.072 91.8887C567.981 87.7787 569.903 82.339 569.903 75.6532H568.338C568.338 82.0233 566.516 87.0476 562.937 90.8096L564.072 91.8887ZM569.903 75.6532C569.903 68.968 567.981 63.5714 564.065 59.5547L562.944 60.6477C566.516 64.3109 568.338 69.2823 568.338 75.6532H569.903ZM564.072 59.5616C560.173 55.463 555.261 53.4143 549.393 53.4143V54.98C554.852 54.98 559.348 56.8673 562.937 60.6407L564.072 59.5616ZM549.393 53.4143C543.433 53.4143 538.471 55.4601 534.569 59.5616L535.704 60.6407C539.29 56.8702 543.833 54.98 549.393 54.98V53.4143ZM534.576 59.5547C530.66 63.5714 528.738 68.968 528.738 75.6532H530.303C530.303 69.2823 532.125 64.3109 535.697 60.6477L534.576 59.5547ZM528.738 75.6532C528.738 82.339 530.66 87.7787 534.569 91.8887L535.704 90.8096C532.125 87.0476 530.303 82.0233 530.303 75.6532H528.738ZM534.576 91.8957C538.479 95.8988 543.439 97.892 549.393 97.892V96.3263C543.826 96.3263 539.282 94.4796 535.697 90.8027L534.576 91.8957ZM687.4 81.9892V82.772H688.125L688.18 82.0492L687.4 81.9892ZM628.792 81.9892V81.2063H627.818L628.027 82.1574L628.792 81.9892ZM636.28 93.3652L636.732 92.726L636.28 93.3652ZM661.624 95.8132L661.899 96.5463L661.911 96.5415L661.624 95.8132ZM670.408 90.0532L670.983 89.5224L670.44 88.934L669.864 89.4896L670.408 90.0532ZM682.36 103.013L682.949 103.528L683.412 102.999L682.935 102.482L682.36 103.013ZM627.208 110.501L626.85 111.197L626.858 111.201L627.208 110.501ZM611.656 96.2452L610.985 96.6495L611.656 96.2452ZM611.512 55.2052L610.839 54.8055L610.837 54.8087L611.512 55.2052ZM626.344 40.9492L626.715 41.6384L626.719 41.6364L626.344 40.9492ZM668.104 40.6612L668.471 39.9698L668.104 40.6612ZM682.504 54.7732L681.821 55.157L681.825 55.1633L681.829 55.1696L682.504 54.7732ZM634.84 57.0772L634.339 56.4758L634.84 57.0772ZM628.504 68.8852L627.73 68.7661L627.591 69.668H628.504V68.8852ZM666.664 68.8852V69.668H667.579L667.437 68.7638L666.664 68.8852ZM660.328 57.2212L659.817 57.8144L659.827 57.8226L660.328 57.2212ZM687.049 75.9412C687.049 76.1895 686.909 78.1561 686.619 81.9291L688.18 82.0492C688.466 78.3342 688.615 76.2688 688.615 75.9412H687.049ZM687.4 81.2063H628.792V82.772H687.4V81.2063ZM628.027 82.1574C629.124 87.1437 631.729 91.1053 635.828 94.0043L636.732 92.726C632.958 90.057 630.571 86.4346 629.556 81.821L628.027 82.1574ZM635.828 94.0043C639.922 96.9003 644.985 98.324 650.968 98.324V96.7583C645.238 96.7583 640.509 95.398 636.732 92.726L635.828 94.0043ZM650.968 98.324C655.073 98.324 658.721 97.7377 661.899 96.5462L661.349 95.0802C658.382 96.1926 654.927 96.7583 650.968 96.7583V98.324ZM661.911 96.5415C665.183 95.2524 668.196 93.273 670.951 90.6167L669.864 89.4896C667.243 92.0173 664.4 93.8779 661.337 95.0848L661.911 96.5415ZM669.832 90.5839L681.784 103.544L682.935 102.482L670.983 89.5224L669.832 90.5839ZM681.77 102.498C674.66 110.637 664.246 114.758 650.392 114.758V116.324C664.57 116.324 675.467 112.093 682.949 103.528L681.77 102.498ZM650.392 114.758C641.757 114.758 634.153 113.098 627.558 109.801L626.858 111.201C633.703 114.624 641.554 116.324 650.392 116.324V114.758ZM627.566 109.805C620.965 106.411 615.894 101.756 612.326 95.8408L610.985 96.6495C614.714 102.831 620.01 107.68 626.85 111.197L627.566 109.805ZM612.326 95.8408C608.758 89.9254 606.967 83.2035 606.967 75.6532H605.401C605.401 83.4628 607.257 90.4689 610.985 96.6495L612.326 95.8408ZM606.967 75.6532C606.967 68.1968 608.711 61.5197 612.187 55.6016L610.837 54.8087C607.208 60.9866 605.401 67.9415 605.401 75.6532H606.967ZM612.185 55.6048C615.761 49.5819 620.601 44.9305 626.715 41.6384L625.973 40.2599C619.606 43.6878 614.558 48.5404 610.839 54.8055L612.185 55.6048ZM626.719 41.6364C632.931 38.2479 639.856 36.548 647.512 36.548V34.9823C639.615 34.9823 632.429 36.7384 625.969 40.2619L626.719 41.6364ZM647.512 36.548C654.979 36.548 661.716 38.1539 667.736 41.3525L668.471 39.9698C662.204 36.6404 655.212 34.9823 647.512 34.9823V36.548ZM667.736 41.3525C673.746 44.5452 678.438 49.1417 681.821 55.157L683.186 54.3894C679.658 48.1167 674.749 43.3051 668.471 39.9698L667.736 41.3525ZM681.829 55.1696C685.3 61.0804 687.049 67.9954 687.049 75.9412H688.615C688.615 67.759 686.811 60.562 683.179 54.3767L681.829 55.1696ZM647.656 51.9743C642.41 51.9743 637.954 53.4632 634.339 56.4758L635.341 57.6786C638.638 54.9311 642.725 53.54 647.656 53.54V51.9743ZM634.339 56.4758C630.718 59.4931 628.523 63.6103 627.73 68.7661L629.277 69.0042C630.02 64.176 632.05 60.4212 635.341 57.6786L634.339 56.4758ZM628.504 69.668H666.664V68.1023H628.504V69.668ZM667.437 68.7638C666.643 63.7006 664.446 59.6341 660.829 56.6198L659.827 57.8226C663.121 60.5682 665.149 64.2777 665.89 69.0065L667.437 68.7638ZM660.839 56.6279C657.227 53.5177 652.816 51.9743 647.656 51.9743V53.54C652.479 53.54 656.517 54.9726 659.817 57.8144L660.839 56.6279ZM709.987 113.237L709.786 113.994L709.798 113.997L709.987 113.237ZM695.299 107.189L694.589 106.859L694.305 107.472L694.869 107.843L695.299 107.189ZM702.787 91.0612L703.209 90.4015L702.454 89.9194L702.077 90.7315L702.787 91.0612ZM715.315 96.5332L715.095 97.2842L715.101 97.2862L715.108 97.2881L715.315 96.5332ZM740.083 86.7412L739.812 87.4753L740.083 86.7412ZM728.131 84.2932L728.014 85.0672L728.024 85.0687L728.034 85.07L728.131 84.2932ZM712.435 80.9812L712.662 80.2318L712.435 80.9812ZM701.635 74.3572L701.065 74.8932L701.073 74.9021L701.635 74.3572ZM701.347 47.8612L700.721 47.3914L700.719 47.394L701.347 47.8612ZM713.731 38.9332L713.45 38.2028L713.445 38.2045L713.731 38.9332ZM749.299 37.6372L749.122 38.3997L749.13 38.4015L749.138 38.4032L749.299 37.6372ZM762.835 42.5332L763.544 42.8653L763.845 42.2228L763.236 41.8603L762.835 42.5332ZM755.347 58.5172L754.963 59.1992L755.698 59.6134L756.056 58.8493L755.347 58.5172ZM722.227 54.7732L721.845 54.0901L722.227 54.7732ZM722.515 64.9972L722.787 64.263L722.515 64.9972ZM734.899 67.7332L735.028 66.9609L735.018 66.9593L734.899 67.7332ZM750.451 71.1892L750.22 71.937L750.228 71.9395L750.236 71.9419L750.451 71.1892ZM760.963 77.6692L760.393 78.2051L760.963 77.6692ZM761.107 103.733L761.728 104.21L761.107 103.733ZM748.435 112.517L748.706 113.252L748.713 113.249L748.435 112.517ZM728.851 114.758C722.482 114.758 716.258 113.998 710.177 112.478L709.798 113.997C716.005 115.548 722.356 116.324 728.851 116.324V114.758ZM710.188 112.481C704.092 110.861 699.283 108.873 695.73 106.535L694.869 107.843C698.612 110.305 703.595 112.349 709.786 113.994L710.188 112.481ZM696.009 107.519L703.497 91.3908L702.077 90.7315L694.589 106.859L696.009 107.519ZM702.366 91.7209C705.897 93.9769 710.144 95.8282 715.095 97.2842L715.536 95.7821C710.695 94.3581 706.59 92.5614 703.209 90.4015L702.366 91.7209ZM715.108 97.2881C720.066 98.6491 724.936 99.332 729.715 99.332V97.7663C725.087 97.7663 720.356 97.1052 715.523 95.7782L715.108 97.2881ZM729.715 99.332C734.507 99.332 738.216 98.7432 740.755 97.4868C742.035 96.8531 743.043 96.0369 743.73 95.0175C744.42 93.9927 744.754 92.8078 744.754 91.4932H743.189C743.189 92.5305 742.929 93.4036 742.431 94.1429C741.93 94.8874 741.156 95.5412 740.06 96.0835C737.847 97.1791 734.428 97.7663 729.715 97.7663V99.332ZM744.754 91.4932C744.754 90.2237 744.377 89.0967 743.605 88.1534C742.844 87.2223 741.738 86.5191 740.355 86.007L739.812 87.4753C741.021 87.9233 741.859 88.492 742.394 89.1449C742.918 89.7856 743.189 90.5546 743.189 91.4932H744.754ZM740.355 86.007C737.676 85.0147 733.619 84.1901 728.229 83.5164L728.034 85.07C733.396 85.7402 737.307 86.5476 739.812 87.4753L740.355 86.007ZM728.249 83.5191C721.934 82.5623 716.742 81.4652 712.662 80.2318L712.209 81.7305C716.385 82.9932 721.657 84.104 728.014 85.0672L728.249 83.5191ZM712.662 80.2318C708.664 79.0232 705.179 76.887 702.197 73.8122L701.073 74.9021C704.236 78.1633 707.95 80.4431 712.209 81.7305L712.662 80.2318ZM702.206 73.8212C699.408 70.8426 697.954 66.5485 697.954 60.8212H696.389C696.389 66.8058 697.911 71.5357 701.065 74.8932L702.206 73.8212ZM697.954 60.8212C697.954 56.0846 699.297 51.9303 701.976 48.3283L700.719 47.394C697.83 51.28 696.389 55.7658 696.389 60.8212H697.954ZM701.974 48.3309C704.75 44.6287 708.749 41.7315 714.018 39.6618L713.445 38.2045C707.962 40.3588 703.705 43.4136 700.721 47.3915L701.974 48.3309ZM714.013 39.6635C719.375 37.5939 725.708 36.548 733.027 36.548V34.9823C725.563 34.9823 719.031 36.0484 713.45 38.2028L714.013 39.6635ZM733.027 36.548C738.439 36.548 743.804 37.1651 749.122 38.3997L749.476 36.8746C744.043 35.6132 738.56 34.9823 733.027 34.9823V36.548ZM749.138 38.4032C754.554 39.5433 758.978 41.1505 762.435 43.206L763.236 41.8603C759.589 39.6919 754.989 38.035 749.461 36.8711L749.138 38.4032ZM762.127 42.2011L754.639 58.1851L756.056 58.8493L763.544 42.8653L762.127 42.2011ZM755.732 57.8351C748.795 53.9269 741.222 51.9743 733.027 51.9743V53.54C740.961 53.54 748.268 55.4274 754.963 59.1992L755.732 57.8351ZM733.027 51.9743C728.18 51.9743 724.419 52.6485 721.845 54.0901L722.61 55.4562C724.836 54.2098 728.275 53.54 733.027 53.54V51.9743ZM721.845 54.0901C719.284 55.5242 717.845 57.475 717.845 59.9572H719.41C719.41 58.2153 720.371 56.7101 722.61 55.4562L721.845 54.0901ZM717.845 59.9572C717.845 61.3063 718.212 62.5006 718.98 63.4953C719.741 64.4819 720.851 65.2154 722.244 65.7313L722.787 64.263C721.588 63.8189 720.754 63.2325 720.219 62.539C719.691 61.8537 719.41 61.008 719.41 59.9572H717.845ZM722.244 65.7313C724.914 66.7204 729.108 67.6417 734.781 68.507L735.018 66.9593C729.363 66.0967 725.301 65.1939 722.787 64.263L722.244 65.7313ZM734.771 68.5053C741.088 69.5582 746.234 70.7033 750.22 71.937L750.683 70.4413C746.605 69.179 741.383 68.0201 735.028 66.961L734.771 68.5053ZM750.236 71.9419C754.127 73.0536 757.51 75.1362 760.393 78.2051L761.534 77.1332C758.465 73.8661 754.839 71.6287 750.667 70.4364L750.236 71.9419ZM760.393 78.2051C763.195 81.1882 764.645 85.39 764.645 90.9172H766.21C766.21 85.1163 764.684 80.4861 761.534 77.1332L760.393 78.2051ZM764.645 90.9172C764.645 95.5475 763.26 99.6511 760.487 103.256L761.728 104.21C764.715 100.327 766.21 95.8868 766.21 90.9172H764.645ZM760.487 103.256C757.716 106.858 753.625 109.711 748.158 111.785L748.713 113.249C754.382 111.099 758.739 108.096 761.728 104.21L760.487 103.256ZM748.165 111.783C742.801 113.759 736.369 114.758 728.851 114.758V116.324C736.501 116.324 743.126 115.308 748.706 113.252L748.165 111.783Z" fill="#838383"/>
</svg>
