<svg width="445" height="354" viewBox="0 0 445 354" fill="none" xmlns="http://www.w3.org/2000/svg">
<rect x="88.5771" y="264.788" width="87.6338" height="87.6338" transform="rotate(-0.205724 88.5771 264.788)" fill="#F6690B"/>
<path d="M263.843 264.158L234.632 264.263L234.737 293.474L205.526 293.579L205.631 322.79L176.42 322.895L176.525 352.106L264.158 351.792L263.843 264.158Z" fill="white"/>
<path d="M438.638 132.079L394.665 88.42L351.005 132.394L394.979 176.053L438.638 132.079Z" fill="#F6690B"/>
<path d="M88.5776 264.788C88.6645 288.987 69.1175 308.675 44.9183 308.762C20.719 308.849 1.03123 289.302 0.944336 265.102L27.5205 265.007C27.5547 274.529 35.3012 282.22 44.8228 282.186C54.3445 282.151 62.0356 274.405 62.0014 264.883L88.5776 264.788Z" fill="#F6690B"/>
<path d="M439.128 263.932C463.327 263.845 483.015 283.392 483.102 307.592C483.189 331.791 463.642 351.479 439.443 351.566L439.347 324.989C448.869 324.955 456.56 317.209 456.526 307.687C456.492 298.165 448.745 290.474 439.224 290.508L439.128 263.932Z" fill="#F6690B"/>
<path d="M1.25886 352.736C1.17197 328.536 20.7189 308.849 44.9181 308.762C69.1174 308.675 88.8052 328.222 88.8921 352.421L62.316 352.516C62.2818 342.995 54.5352 335.304 45.0136 335.338C35.4919 335.372 27.8008 343.118 27.835 352.64L1.25886 352.736Z" fill="#F6690B"/>
<path d="M438.481 88.2626C414.281 88.3495 394.594 68.8026 394.507 44.6033C394.42 20.4041 413.967 0.716283 438.166 0.629395L438.261 27.2055C428.74 27.2397 421.049 34.9862 421.083 44.5079C421.117 54.0296 428.864 61.7207 438.385 61.6865L438.481 88.2626Z" fill="#F6690B"/>
<path d="M350.533 0.944107C374.732 0.857216 394.42 20.4041 394.507 44.6034C394.594 68.8026 375.047 88.4904 350.848 88.5773L350.752 62.0012C360.274 61.967 367.965 54.2205 367.931 44.6988C367.897 35.1772 360.15 27.4861 350.629 27.5203L350.533 0.944107Z" fill="#F6690B"/>
<path d="M204.054 204.797L176.053 220.656L204.167 236.315L220.027 264.316L235.685 236.202L263.686 220.342L235.572 204.684L219.712 176.683L204.054 204.797Z" fill="#F6690B"/>
<path fill-rule="evenodd" clip-rule="evenodd" d="M315.139 271.426C315.124 267.311 311.776 263.986 307.661 264.001C303.545 264.016 300.221 267.364 300.236 271.48L300.265 279.648L296.204 272.561C294.158 268.99 289.604 267.754 286.033 269.8C282.462 271.846 281.226 276.4 283.273 279.971L287.895 288.037L279.795 283.473C276.21 281.452 271.665 282.721 269.645 286.306C267.624 289.892 268.893 294.436 272.478 296.457L279.596 300.467L271.427 300.497C267.311 300.511 263.987 303.86 264.002 307.975C264.016 312.091 267.365 315.415 271.48 315.4L279.649 315.371L272.561 319.432C268.991 321.479 267.755 326.032 269.801 329.603C271.847 333.174 276.4 334.41 279.971 332.363L288.037 327.742L283.473 335.84C281.453 339.426 282.721 343.97 286.307 345.991C289.892 348.011 294.437 346.743 296.457 343.157L300.467 336.041L300.497 344.209C300.512 348.325 303.86 351.649 307.975 351.634C312.091 351.62 315.415 348.271 315.4 344.156L315.371 335.986L319.433 343.075C321.479 346.645 326.033 347.881 329.604 345.835C333.174 343.789 334.41 339.235 332.364 335.665L327.743 327.6L335.84 332.163C339.426 334.183 343.97 332.915 345.991 329.329C348.011 325.744 346.743 321.199 343.157 319.179L336.04 315.168L344.21 315.139C348.325 315.124 351.65 311.776 351.635 307.661C351.62 303.545 348.272 300.221 344.156 300.236L335.987 300.265L343.075 296.203C346.646 294.157 347.882 289.603 345.836 286.033C343.79 282.462 339.236 281.226 335.665 283.272L327.6 287.894L332.163 279.795C334.184 276.21 332.915 271.665 329.33 269.645C325.744 267.624 321.2 268.893 319.179 272.479L315.169 279.596L315.139 271.426Z" fill="#F6690B"/>
<path d="M470.135 99.4803C482.279 111.536 482.455 131.93 482.455 131.93C482.455 131.93 462.944 132.779 450.801 120.723C438.658 108.667 438.481 88.2727 438.481 88.2727C438.481 88.2727 457.992 87.4245 470.135 99.4803Z" fill="white"/>
<path d="M494.542 99.3926C482.485 111.535 482.455 131.93 482.455 131.93C482.455 131.93 501.972 132.638 514.028 120.496C526.084 108.353 526.114 87.9581 526.114 87.9581C526.114 87.9581 506.598 87.25 494.542 99.3926Z" fill="white"/>
<path d="M470.369 164.451C482.425 152.309 482.455 131.913 482.455 131.913C482.455 131.913 462.938 131.205 450.882 143.348C438.826 155.491 438.796 175.886 438.796 175.886C438.796 175.886 458.313 176.594 470.369 164.451Z" fill="white"/>
<path d="M494.775 164.364C482.632 152.308 482.455 131.913 482.455 131.913C482.455 131.913 501.966 131.065 514.109 143.121C526.252 155.177 526.429 175.571 526.429 175.571C526.429 175.571 506.918 176.419 494.775 164.364Z" fill="white"/>
<path d="M279.819 220.284C269.99 224.846 263.728 231.758 263.755 239.475C263.804 253.107 283.461 264.088 307.661 264.001C331.86 263.914 351.438 252.793 351.389 239.161C351.361 231.443 345.05 224.576 335.188 220.085C345.017 215.524 351.279 208.611 351.251 200.894C351.202 187.262 331.545 176.281 307.346 176.368C283.147 176.455 263.569 187.576 263.618 201.209C263.646 208.926 269.957 215.793 279.819 220.284Z" fill="white"/>
<path fill-rule="evenodd" clip-rule="evenodd" d="M447.104 231.345C436.3 227.672 436.246 212.578 447.023 208.828L449.793 207.864L448.28 205.376C442.391 195.693 452.159 184.095 462.852 188.074L465.6 189.096L466.058 186.228C467.84 175.066 482.859 172.391 488.464 182.237L489.905 184.767L492.12 182.861C500.739 175.443 513.982 182.942 511.877 194.049L511.336 196.903L514.271 196.851C525.694 196.648 530.964 210.812 522.134 217.983L519.864 219.825L522.147 221.651C531.029 228.758 525.86 242.96 514.436 242.839L511.5 242.808L512.062 245.658C514.247 256.749 501.058 264.343 492.386 256.988L490.157 255.097L488.735 257.638C483.201 267.524 468.163 264.957 466.3 253.808L465.822 250.943L463.081 251.985C452.417 256.04 442.566 244.513 448.385 234.788L449.881 232.289L447.104 231.345ZM460.561 220.038C465.846 222.876 468.206 229.219 466.042 234.768C471.935 233.582 477.866 236.941 479.814 242.567C483.558 237.912 490.284 236.715 495.434 239.786C495.276 233.84 499.651 228.646 505.591 227.725C501.607 223.27 501.583 216.511 505.535 212.028C499.588 211.149 495.176 205.987 495.291 200.041C490.163 203.149 483.429 201.999 479.652 197.371C477.744 203.012 471.838 206.412 465.936 205.269C468.14 210.802 465.826 217.162 460.561 220.038Z" fill="#F6690B"/>
<path d="M406.844 214.971C425.352 215.494 438.945 217.397 438.953 219.713C438.961 222.028 425.383 224.028 406.879 224.684C419.596 238.142 427.862 249.098 426.231 250.742C424.599 252.385 413.583 244.198 400.035 231.577C399.512 250.085 397.61 263.678 395.294 263.686C392.978 263.695 390.978 250.116 390.322 231.612C376.865 244.329 365.908 252.596 364.265 250.964C362.621 249.332 370.809 238.317 383.429 224.768C364.921 224.245 351.328 222.343 351.32 220.027C351.312 217.711 364.89 215.711 383.394 215.055C370.677 201.598 362.411 190.642 364.042 188.998C365.674 187.355 376.69 195.542 390.238 208.163C390.761 189.654 392.663 176.062 394.979 176.053C397.295 176.045 399.295 189.624 399.951 208.128C413.408 195.41 424.365 187.144 426.008 188.776C427.652 190.407 419.464 201.423 406.844 214.971Z" fill="#F6690B"/>
<path fill-rule="evenodd" clip-rule="evenodd" d="M283.754 156.498L263.455 155.82L286.166 132.091L263.285 108.527L283.578 107.701L285.81 88.2756L307.108 110.211L328.248 88.1231L330.62 107.532L350.918 108.212L328.207 131.94L351.088 155.505L330.795 156.33L328.563 175.756L307.265 153.821L286.124 175.909L283.754 156.498Z" fill="#F6690B"/>
<path fill-rule="evenodd" clip-rule="evenodd" d="M395.336 275.371C377.59 275.435 363.255 289.872 363.319 307.619C363.383 325.365 377.82 339.699 395.567 339.635C413.313 339.572 427.647 325.134 427.583 307.388C427.52 289.642 413.082 275.307 395.336 275.371ZM351.635 307.66C351.548 283.461 371.095 263.773 395.294 263.687C419.493 263.6 439.181 283.147 439.268 307.346C439.355 331.545 419.808 351.233 395.609 351.32C371.409 351.407 351.722 331.86 351.635 307.66Z" fill="white"/>
<path fill-rule="evenodd" clip-rule="evenodd" d="M395.409 295.864C388.981 295.887 383.789 301.117 383.812 307.545C383.835 313.973 389.065 319.165 395.493 319.142C401.921 319.119 407.113 313.889 407.09 307.461C407.067 301.033 401.837 295.841 395.409 295.864ZM372.173 307.587C372.127 294.731 382.512 284.272 395.367 284.226C408.223 284.179 418.682 294.564 418.729 307.42C418.775 320.275 408.39 330.735 395.535 330.781C382.679 330.827 372.22 320.443 372.173 307.587Z" fill="#F6690B"/>
<path d="M132.354 265.033C156.553 264.947 176.1 245.259 176.013 221.059C175.926 196.86 156.239 177.313 132.039 177.4L132.197 221.217L88.38 221.374C88.4669 245.573 108.155 265.12 132.354 265.033Z" fill="white"/>
</svg>
