<svg width="22" height="21" viewBox="0 0 22 21" fill="none" xmlns="http://www.w3.org/2000/svg">
<path fill-rule="evenodd" clip-rule="evenodd" d="M4.78566 1.08592C4.78566 0.537624 5.23015 0.0931396 5.77845 0.0931396H17.156C17.7043 0.0931396 18.1488 0.537624 18.1488 1.08592V3.41161H20.9485C21.4968 3.41161 21.9412 3.85609 21.9412 4.40439C21.9412 7.76762 19.9905 9.84268 17.6681 10.1087C16.8017 12.3168 14.8442 13.9669 12.4597 14.3297C12.4599 14.3396 12.4601 14.3497 12.4601 14.3597V15.2632H13.858C14.1917 15.2632 14.5031 15.4308 14.6868 15.7094L16.5627 18.5538C16.7638 18.8587 16.7812 19.2494 16.608 19.571C16.4349 19.8926 16.0991 20.0932 15.7339 20.0932H7.20073C6.84111 20.0932 6.50961 19.8987 6.33414 19.5848C6.15867 19.2709 6.16668 18.8866 6.35507 18.5803L8.10437 15.7359C8.28502 15.4422 8.60517 15.2632 8.95002 15.2632H10.4745V14.3597C10.4745 14.3497 10.4747 14.3397 10.475 14.3297C8.09032 13.967 6.13278 12.3169 5.2663 10.1087C2.94395 9.8427 0.993164 7.76764 0.993164 4.40439C0.993164 3.85609 1.43765 3.41161 1.98595 3.41161H4.78566V1.08592ZM11.4634 17.2488H9.50497L8.97679 18.1076H13.8899L13.3235 17.2488H11.4712L11.4673 17.2488L11.4634 17.2488ZM16.1632 4.39421L16.1632 4.40439V7.57851C16.1512 10.2811 14.0264 12.4188 11.4672 12.4188C8.90497 12.4188 6.77819 10.276 6.77125 7.56878V4.40439L6.77123 4.39851V2.07871H16.1632V4.39421ZM18.1487 7.58249V7.93627C18.9313 7.58571 19.6474 6.78814 19.8783 5.39717H18.1488V7.55548L18.1487 7.58249ZM4.78566 7.55548V5.39717H3.05615C3.28696 6.78814 4.00311 7.58571 4.78568 7.93627V7.57118L4.78566 7.55548Z" fill="#F76706"/>
</svg>
