<svg width="791" height="149" viewBox="0 0 791 149" fill="none" xmlns="http://www.w3.org/2000/svg">
<path opacity="0.5" d="M66.1634 40.6282L65.7738 41.3072L65.7804 41.3109L65.787 41.3146L66.1634 40.6282ZM80.1314 54.5962L79.4471 54.9763L79.4497 54.981L80.1314 54.5962ZM80.1314 96.5002L80.8132 96.885L80.8158 96.8803L80.1314 96.5002ZM66.1634 110.468L66.5446 111.152L66.5483 111.15L66.1634 110.468ZM23.2514 106.004L23.8311 105.478L22.4686 103.977V106.004H23.2514ZM23.2514 142.148V142.931H24.0343V142.148H23.2514ZM0.787435 142.148H0.0045929V142.931H0.787435V142.148ZM0.787435 36.7402V35.9573H0.0045929V36.7402H0.787435ZM22.2434 36.7402H23.0263V35.9573H22.2434V36.7402ZM22.2434 45.6682H21.4606V47.84L22.8462 46.1676L22.2434 45.6682ZM56.8034 91.1722L56.2362 90.6326L56.2359 90.633L56.8034 91.1722ZM56.8034 59.9242L56.2293 60.4563L56.236 60.4636L56.2429 60.4707L56.8034 59.9242ZM28.4354 59.9242L27.8682 59.3846L27.8679 59.385L28.4354 59.9242ZM28.4354 91.1722L27.8613 91.7043L27.868 91.7116L27.8749 91.7187L28.4354 91.1722ZM46.5794 36.371C53.6521 36.371 60.0443 38.0197 65.7738 41.3072L66.553 39.9491C60.5706 36.5166 53.9067 34.8053 46.5794 34.8053V36.371ZM65.787 41.3146C71.607 44.5061 76.1574 49.0548 79.4471 54.9763L80.8158 54.216C77.3855 48.0415 72.6239 43.2782 66.5399 39.9417L65.787 41.3146ZM79.4497 54.981C82.7332 60.7974 84.3886 67.6205 84.3886 75.4762H85.9543C85.9543 67.3958 84.2497 60.2989 80.8132 54.2113L79.4497 54.981ZM84.3886 75.4762C84.3886 83.3315 82.7333 90.2049 79.4471 96.12L80.8158 96.8803C84.2496 90.6994 85.9543 83.5568 85.9543 75.4762H84.3886ZM79.4497 96.1153C76.1598 101.943 71.6065 106.497 65.7786 109.786L66.5483 111.15C72.6244 107.72 77.3831 102.961 80.8132 96.885L79.4497 96.1153ZM65.7823 109.784C60.0514 112.979 53.6562 114.581 46.5794 114.581V116.147C53.9027 116.147 60.5635 114.486 66.5446 111.152L65.7823 109.784ZM46.5794 114.581C36.8703 114.581 29.3207 111.526 23.8311 105.478L22.6718 106.53C28.5102 112.962 36.5126 116.147 46.5794 116.147V114.581ZM22.4686 106.004V142.148H24.0343V106.004H22.4686ZM23.2514 141.365H0.787435V142.931H23.2514V141.365ZM1.57028 142.148V36.7402H0.0045929V142.148H1.57028ZM0.787435 37.523H22.2434V35.9573H0.787435V37.523ZM21.4606 36.7402V45.6682H23.0263V36.7402H21.4606ZM22.8462 46.1676C28.2328 39.6666 36.1 36.371 46.5794 36.371V34.8053C35.7469 34.8053 27.39 38.2298 21.6406 45.1687L22.8462 46.1676ZM42.6914 97.715C48.6452 97.715 53.5614 95.7214 57.371 91.7113L56.2359 90.633C52.7495 94.3029 48.2577 96.1493 42.6914 96.1493V97.715ZM57.3707 91.7117C61.2801 87.6017 63.2023 82.162 63.2023 75.4762H61.6366C61.6366 81.8463 59.8147 86.8706 56.2362 90.6326L57.3707 91.7117ZM63.2023 75.4762C63.2023 68.791 61.2803 63.3944 57.364 59.3777L56.2429 60.4707C59.8146 64.1339 61.6366 69.1053 61.6366 75.4762H63.2023ZM57.3776 59.392C53.5697 55.2835 48.6515 53.2373 42.6914 53.2373V54.803C48.2514 54.803 52.7412 56.6928 56.2293 60.4563L57.3776 59.392ZM42.6914 53.2373C36.7315 53.2373 31.7697 55.2831 27.8682 59.3846L29.0026 60.4637C32.5892 56.6932 37.1314 54.803 42.6914 54.803V53.2373ZM27.8679 59.385C24.0512 63.4026 22.1806 68.7966 22.1806 75.4762H23.7463C23.7463 69.0997 25.5237 64.1258 29.003 60.4633L27.8679 59.385ZM22.1806 75.4762C22.1806 82.1565 24.0514 87.5936 27.8613 91.7043L29.0096 90.64C25.5235 86.8787 23.7463 81.8518 23.7463 75.4762H22.1806ZM27.8749 91.7187C31.7779 95.7218 36.7377 97.715 42.6914 97.715V96.1493C37.1251 96.1493 32.5809 94.3026 28.9959 90.6257L27.8749 91.7187ZM121.665 46.9642H120.882V49.3969L122.301 47.4207L121.665 46.9642ZM132.465 38.4682L132.164 37.7455L132.159 37.7478L132.465 38.4682ZM148.305 35.5882H149.088V34.8053H148.305V35.5882ZM148.305 56.3242L148.245 57.1047L149.088 57.1695V56.3242H148.305ZM128.145 61.5082L128.691 62.0691L128.699 62.0617L128.145 61.5082ZM122.673 114.212V114.995H123.456V114.212H122.673ZM100.209 114.212H99.4265V114.995H100.209V114.212ZM100.209 36.7402V35.9573H99.4265V36.7402H100.209ZM121.665 36.7402H122.448V35.9573H121.665V36.7402ZM122.301 47.4207C124.9 43.8006 128.383 41.0561 132.772 39.1885L132.159 37.7478C127.524 39.7202 123.806 42.6397 121.029 46.5076L122.301 47.4207ZM132.766 39.1908C137.263 37.3174 142.437 36.371 148.305 36.371V34.8053C142.269 34.8053 136.884 35.7789 132.164 37.7455L132.766 39.1908ZM147.522 35.5882V56.3242H149.088V35.5882H147.522ZM148.365 55.5436C145.874 55.3519 144.164 55.2533 143.265 55.2533V56.819C144.094 56.819 145.745 56.9124 148.245 57.1047L148.365 55.5436ZM143.265 55.2533C136.68 55.2533 131.421 57.1255 127.592 60.9546L128.699 62.0617C132.166 58.5948 136.987 56.819 143.265 56.819V55.2533ZM127.599 60.9473C123.746 64.6988 121.89 70.3137 121.89 77.6362H123.456C123.456 70.5586 125.248 65.4215 128.691 62.069L127.599 60.9473ZM121.89 77.6362V114.212H123.456V77.6362H121.89ZM122.673 113.429H100.209V114.995H122.673V113.429ZM100.992 114.212V36.7402H99.4265V114.212H100.992ZM100.209 37.523H121.665V35.9573H100.209V37.523ZM120.882 36.7402V46.9642H122.448V36.7402H120.882ZM236.415 81.8122V82.595H237.14L237.196 81.8722L236.415 81.8122ZM177.807 81.8122V81.0293H176.834L177.043 81.9804L177.807 81.8122ZM185.295 93.1882L185.747 92.549L185.295 93.1882ZM210.639 95.6362L210.914 96.3693L210.926 96.3645L210.639 95.6362ZM219.423 89.8762L219.999 89.3454L219.456 88.757L218.88 89.3126L219.423 89.8762ZM231.375 102.836L231.965 103.351L232.427 102.822L231.951 102.305L231.375 102.836ZM176.223 110.324L175.865 111.02L175.873 111.024L176.223 110.324ZM160.671 96.0682L160.001 96.4725L160.671 96.0682ZM160.527 55.0282L159.854 54.6285L159.852 54.6317L160.527 55.0282ZM175.359 40.7722L175.73 41.4614L175.734 41.4594L175.359 40.7722ZM217.119 40.4842L217.487 39.7928L217.119 40.4842ZM231.519 54.5962L230.837 54.9799L230.841 54.9863L230.844 54.9926L231.519 54.5962ZM183.855 56.9002L183.354 56.2988L183.855 56.9002ZM177.519 68.7082L176.746 68.5891L176.607 69.491H177.519V68.7082ZM215.679 68.7082V69.491H216.595L216.453 68.5868L215.679 68.7082ZM209.343 57.0442L208.832 57.6374L208.842 57.6456L209.343 57.0442ZM236.064 75.7642C236.064 76.0125 235.925 77.9791 235.635 81.7521L237.196 81.8722C237.482 78.1572 237.63 76.0918 237.63 75.7642H236.064ZM236.415 81.0293H177.807V82.595H236.415V81.0293ZM177.043 81.9804C178.14 86.9667 180.745 90.9283 184.843 93.8273L185.747 92.549C181.974 89.88 179.587 86.2576 178.572 81.644L177.043 81.9804ZM184.843 93.8273C188.938 96.7233 194.001 98.147 199.983 98.147V96.5813C194.254 96.5813 189.525 95.221 185.747 92.549L184.843 93.8273ZM199.983 98.147C204.088 98.147 207.737 97.5607 210.914 96.3692L210.364 94.9032C207.398 96.0156 203.942 96.5813 199.983 96.5813V98.147ZM210.926 96.3645C214.199 95.0754 217.212 93.096 219.967 90.4397L218.88 89.3126C216.259 91.8403 213.416 93.7009 210.352 94.9078L210.926 96.3645ZM218.848 90.4069L230.8 103.367L231.951 102.305L219.999 89.3454L218.848 90.4069ZM230.786 102.321C223.676 110.46 213.261 114.581 199.407 114.581V116.147C213.585 116.147 224.483 111.916 231.965 103.351L230.786 102.321ZM199.407 114.581C190.773 114.581 183.168 112.921 176.573 109.624L175.873 111.024C182.718 114.447 190.57 116.147 199.407 116.147V114.581ZM176.581 109.628C169.981 106.234 164.909 101.579 161.342 95.6638L160.001 96.4725C163.729 102.654 169.026 107.503 175.865 111.02L176.581 109.628ZM161.342 95.6638C157.774 89.7484 155.982 83.0265 155.982 75.4762H154.416C154.416 83.2858 156.273 90.2919 160.001 96.4725L161.342 95.6638ZM155.982 75.4762C155.982 68.0198 157.727 61.3427 161.202 55.4246L159.852 54.6317C156.224 60.8096 154.416 67.7645 154.416 75.4762H155.982ZM161.2 55.4278C164.777 49.4049 169.617 44.7535 175.73 41.4614L174.988 40.0829C168.622 43.5108 163.574 48.3634 159.854 54.6285L161.2 55.4278ZM175.734 41.4594C181.946 38.0709 188.872 36.371 196.527 36.371V34.8053C188.631 34.8053 181.444 36.5614 174.984 40.0849L175.734 41.4594ZM196.527 36.371C203.995 36.371 210.731 37.9769 216.752 41.1755L217.487 39.7928C211.22 36.4634 204.228 34.8053 196.527 34.8053V36.371ZM216.752 41.1755C222.762 44.3682 227.453 48.9647 230.837 54.9799L232.202 54.2124C228.673 47.9397 223.765 43.1281 217.487 39.7928L216.752 41.1755ZM230.844 54.9926C234.316 60.9034 236.064 67.8184 236.064 75.7642H237.63C237.63 67.582 235.827 60.3849 232.194 54.1997L230.844 54.9926ZM196.671 51.7973C191.426 51.7973 186.969 53.2862 183.354 56.2988L184.356 57.5015C187.653 54.7541 191.741 53.363 196.671 53.363V51.7973ZM183.354 56.2988C179.733 59.3161 177.539 63.4333 176.746 68.5891L178.293 68.8272C179.036 63.999 181.065 60.2442 184.356 57.5015L183.354 56.2988ZM177.519 69.491H215.679V67.9253H177.519V69.491ZM216.453 68.5868C215.658 63.5236 213.462 59.4571 209.844 56.4428L208.842 57.6456C212.137 60.3912 214.164 64.1007 214.906 68.8295L216.453 68.5868ZM209.854 56.4509C206.242 53.3407 201.832 51.7973 196.671 51.7973V53.363C201.495 53.363 205.532 54.7956 208.832 57.6374L209.854 56.4509ZM374.059 44.2282L373.501 44.7771L373.51 44.7863L374.059 44.2282ZM382.699 114.212V114.995H383.482V114.212H382.699ZM360.235 114.212H359.452V114.995H360.235V114.212ZM356.347 59.6362L355.74 60.1298L355.748 60.1402L355.757 60.1503L356.347 59.6362ZM333.019 60.2122L333.597 60.7404L333.604 60.7322L333.019 60.2122ZM328.411 114.212V114.995H329.194V114.212H328.411ZM305.947 114.212H305.164V114.995H305.947V114.212ZM278.875 60.2122L279.453 60.7404L279.46 60.7322L278.875 60.2122ZM274.267 114.212V114.995H275.05V114.212H274.267ZM251.803 114.212H251.02V114.995H251.803V114.212ZM251.803 36.7402V35.9573H251.02V36.7402H251.803ZM273.259 36.7402H274.042V35.9573H273.259V36.7402ZM273.259 45.6682H272.476V47.7386L273.846 46.1861L273.259 45.6682ZM283.771 38.1802L283.475 37.4556L283.469 37.458L283.771 38.1802ZM312.427 38.9002L312.077 39.6005L312.089 39.6064L312.427 38.9002ZM323.083 48.2602L322.427 48.6873L323.023 49.6032L323.699 48.7438L323.083 48.2602ZM335.035 38.9002L334.713 38.1865L334.708 38.189L335.035 38.9002ZM351.019 36.371C360.55 36.371 368.013 39.1961 373.501 44.777L374.617 43.6793C368.777 37.7402 360.88 34.8053 351.019 34.8053V36.371ZM373.51 44.7863C379.068 50.2511 381.916 58.5579 381.916 69.8602H383.482C383.482 58.3144 380.571 49.5332 374.608 43.67L373.51 44.7863ZM381.916 69.8602V114.212H383.482V69.8602H381.916ZM382.699 113.429H360.235V114.995H382.699V113.429ZM361.018 114.212V73.3162H359.452V114.212H361.018ZM361.018 73.3162C361.018 67.0836 359.707 62.3014 356.937 59.122L355.757 60.1503C358.172 62.9229 359.452 67.2607 359.452 73.3162H361.018ZM356.955 59.1425C354.281 55.8524 350.437 54.2453 345.547 54.2453V55.811C350.065 55.811 353.421 57.2759 355.74 60.1298L356.955 59.1425ZM345.547 54.2453C340.079 54.2453 335.676 56.0443 332.434 59.6921L333.604 60.7322C336.506 57.468 340.456 55.811 345.547 55.811V54.2453ZM332.441 59.6839C329.187 63.2438 327.628 68.508 327.628 75.3322H329.194C329.194 68.7163 330.708 63.9005 333.597 60.7404L332.441 59.6839ZM327.628 75.3322V114.212H329.194V75.3322H327.628ZM328.411 113.429H305.947V114.995H328.411V113.429ZM306.73 114.212V73.3162H305.164V114.212H306.73ZM306.73 73.3162C306.73 67.136 305.492 62.3559 302.885 59.1099C300.252 55.8312 296.327 54.2453 291.259 54.2453V55.811C295.983 55.811 299.402 57.2731 301.665 60.0904C303.954 62.9404 305.164 67.3043 305.164 73.3162H306.73ZM291.259 54.2453C285.882 54.2453 281.529 56.0476 278.29 59.6921L279.46 60.7322C282.365 57.4647 286.268 55.811 291.259 55.811V54.2453ZM278.297 59.6839C275.043 63.2438 273.484 68.508 273.484 75.3322H275.05C275.05 68.7163 276.564 63.9005 279.453 60.7404L278.297 59.6839ZM273.484 75.3322V114.212H275.05V75.3322H273.484ZM274.267 113.429H251.803V114.995H274.267V113.429ZM252.586 114.212V36.7402H251.02V114.212H252.586ZM251.803 37.523H273.259V35.9573H251.803V37.523ZM272.476 36.7402V45.6682H274.042V36.7402H272.476ZM273.846 46.1861C276.646 43.0133 280.051 40.5859 284.073 38.9023L283.469 37.458C279.235 39.2304 275.633 41.795 272.672 45.1502L273.846 46.1861ZM284.067 38.9047C288.189 37.2187 292.695 36.371 297.595 36.371V34.8053C292.511 34.8053 287.801 35.6856 283.475 37.4556L284.067 38.9047ZM297.595 36.371C302.959 36.371 307.781 37.4524 312.077 39.6004L312.777 38.2C308.241 35.9319 303.175 34.8053 297.595 34.8053V36.371ZM312.089 39.6064C316.375 41.6559 319.817 44.679 322.427 48.6873L323.739 47.833C320.973 43.5853 317.311 40.3684 312.765 38.1939L312.089 39.6064ZM323.699 48.7438C326.788 44.8125 330.671 41.7691 335.362 39.6114L334.708 38.189C329.799 40.4472 325.715 43.6438 322.467 47.7765L323.699 48.7438ZM335.357 39.6138C340.145 37.4546 345.362 36.371 351.019 36.371V34.8053C345.156 34.8053 339.718 35.9297 334.713 38.1865L335.357 39.6138ZM402.834 36.7402V35.9573H402.051V36.7402H402.834ZM425.298 36.7402H426.081V35.9573H425.298V36.7402ZM425.298 114.212V114.995H426.081V114.212H425.298ZM402.834 114.212H402.051V114.995H402.834V114.212ZM403.986 22.3402L403.454 22.9146L403.986 22.3402ZM403.986 4.48415L404.518 5.05857L403.986 4.48415ZM424.146 4.34016L423.626 4.92526L424.146 4.34016ZM424.146 22.3402L424.678 22.9146L424.684 22.9094L424.689 22.9041L424.146 22.3402ZM402.834 37.523H425.298V35.9573H402.834V37.523ZM424.515 36.7402V114.212H426.081V36.7402H424.515ZM425.298 113.429H402.834V114.995H425.298V113.429ZM403.617 114.212V36.7402H402.051V114.212H403.617ZM414.066 25.1573C410.1 25.1573 406.941 24.0095 404.518 21.7657L403.454 22.9146C406.215 25.4709 409.777 26.723 414.066 26.723V25.1573ZM404.518 21.7657C402.087 19.5148 400.881 16.7475 400.881 13.4122H399.315C399.315 17.1809 400.701 20.3655 403.454 22.9146L404.518 21.7657ZM400.881 13.4122C400.881 10.0768 402.087 7.30948 404.518 5.05857L403.454 3.90974C400.701 6.45882 399.315 9.64345 399.315 13.4122H400.881ZM404.518 5.05857C406.941 2.81485 410.1 1.66699 414.066 1.66699V0.101309C409.777 0.101309 406.215 1.35345 403.454 3.90974L404.518 5.05857ZM414.066 1.66699C418.041 1.66699 421.204 2.77206 423.626 4.92526L424.666 3.75505C421.905 1.30024 418.348 0.101309 414.066 0.101309V1.66699ZM423.626 4.92526C426.052 7.08129 427.251 9.74865 427.251 12.9802H428.817C428.817 9.29966 427.425 6.20702 424.666 3.75505L423.626 4.92526ZM427.251 12.9802C427.251 16.5211 426.035 19.4344 423.603 21.7763L424.689 22.9041C427.441 20.2539 428.817 16.9272 428.817 12.9802H427.251ZM423.614 21.7657C421.191 24.0095 418.033 25.1573 414.066 25.1573V26.723C418.356 26.723 421.917 25.4709 424.678 22.9146L423.614 21.7657ZM505.043 44.2282L504.521 44.8114L504.525 44.8157L505.043 44.2282ZM514.691 114.212V114.995H515.474V114.212H514.691ZM493.667 114.212H492.884V114.995H493.667V114.212ZM493.667 104.564H494.45V101.683L492.992 104.168L493.667 104.564ZM454.499 112.34L454.168 113.05L454.174 113.052L454.499 112.34ZM444.563 103.988L445.22 103.562L444.563 103.988ZM449.171 74.9002L448.699 74.2752L448.694 74.2793L449.171 74.9002ZM492.227 68.7082V69.491H493.01V68.7082H492.227ZM487.763 57.4762L487.238 58.0572L487.249 58.0665L487.763 57.4762ZM462.131 55.4602L462.367 56.2065L462.378 56.2028L462.131 55.4602ZM452.051 60.6442L451.354 61.0019L451.79 61.85L452.537 61.2575L452.051 60.6442ZM443.987 44.9482L443.536 44.3082L442.979 44.7003L443.29 45.3059L443.987 44.9482ZM459.107 38.0362L458.9 37.2812L458.897 37.282L459.107 38.0362ZM485.891 97.6522L486.284 98.3291L486.292 98.3245L486.3 98.3196L485.891 97.6522ZM492.227 89.7322L492.963 89.998L493.01 89.8692V89.7322H492.227ZM492.227 81.8122H493.01V81.0293H492.227V81.8122ZM466.307 97.7962L465.824 98.4127L465.839 98.4242L465.854 98.435L466.307 97.7962ZM477.395 36.371C489.277 36.371 498.28 39.2225 504.521 44.8113L505.565 43.645C498.942 37.7138 489.512 34.8053 477.395 34.8053V36.371ZM504.525 44.8157C510.736 50.2846 513.908 58.6277 513.908 70.0042H515.474C515.474 58.3407 512.214 49.4997 505.56 43.6406L504.525 44.8157ZM513.908 70.0042V114.212H515.474V70.0042H513.908ZM514.691 113.429H493.667V114.995H514.691V113.429ZM494.45 114.212V104.564H492.884V114.212H494.45ZM492.992 104.168C488.959 111.042 481.411 114.581 470.051 114.581V116.147C481.73 116.147 489.926 112.487 494.342 104.96L492.992 104.168ZM470.051 114.581C464.186 114.581 459.117 113.588 454.824 111.628L454.174 113.052C458.712 115.124 464.011 116.147 470.051 116.147V114.581ZM454.83 111.631C450.626 109.669 447.434 106.976 445.22 103.562L443.906 104.414C446.3 108.104 449.732 110.98 454.168 113.05L454.83 111.631ZM445.22 103.562C443.003 100.145 441.89 96.2634 441.89 91.8922H440.324C440.324 96.545 441.514 100.727 443.906 104.414L445.22 103.562ZM441.89 91.8922C441.89 84.9179 444.478 79.4905 449.648 75.5211L448.694 74.2793C443.112 78.5658 440.324 84.4664 440.324 91.8922H441.89ZM449.642 75.5251C454.915 71.5473 463.111 69.491 474.371 69.491V67.9253C462.974 67.9253 454.37 69.997 448.699 74.2752L449.642 75.5251ZM474.371 69.491H492.227V67.9253H474.371V69.491ZM493.01 68.7082C493.01 63.6448 491.464 59.6613 488.277 56.8858L487.249 58.0665C490.014 60.475 491.444 63.9795 491.444 68.7082H493.01ZM488.288 56.8952C485.112 54.0266 480.425 52.6613 474.371 52.6613V54.227C480.221 54.227 484.462 55.5497 487.238 58.0571L488.288 56.8952ZM474.371 52.6613C470.156 52.6613 465.993 53.3477 461.883 54.7175L462.378 56.2028C466.333 54.8846 470.329 54.227 474.371 54.227V52.6613ZM461.894 54.7139C457.882 55.9861 454.434 57.755 451.564 60.0308L452.537 61.2575C455.236 59.1174 458.508 57.4302 462.367 56.2064L461.894 54.7139ZM452.747 60.2864L444.683 44.5904L443.29 45.3059L451.354 61.0019L452.747 60.2864ZM444.438 45.5881C448.577 42.6718 453.532 40.4024 459.317 38.7903L458.897 37.282C452.969 38.9339 447.845 41.2725 443.536 44.3082L444.438 45.5881ZM459.314 38.7911C465.198 37.1778 471.224 36.371 477.395 36.371V34.8053C471.086 34.8053 464.92 35.6305 458.9 37.2812L459.314 38.7911ZM475.667 101.027C479.629 101.027 483.175 100.134 486.284 98.3291L485.498 96.9752C482.655 98.6261 479.385 99.4613 475.667 99.4613V101.027ZM486.3 98.3196C489.436 96.3976 491.658 93.6117 492.963 89.998L491.491 89.4663C490.299 92.7646 488.298 95.2587 485.482 96.9847L486.3 98.3196ZM493.01 89.7322V81.8122H491.444V89.7322H493.01ZM492.227 81.0293H476.819V82.595H492.227V81.0293ZM476.819 81.0293C472.15 81.0293 468.513 81.7908 466.021 83.4257C463.473 85.0983 462.212 87.6268 462.212 90.8842H463.778C463.778 88.0935 464.821 86.086 466.88 84.7346C468.997 83.3456 472.272 82.595 476.819 82.595V81.0293ZM462.212 90.8842C462.212 93.9973 463.421 96.5316 465.824 98.4127L466.789 97.1797C464.777 95.6047 463.778 93.531 463.778 90.8842H462.212ZM465.854 98.435C468.334 100.191 471.631 101.027 475.667 101.027V99.4613C471.831 99.4613 468.888 98.6652 466.759 97.1573L465.854 98.435ZM550.986 110.324L550.619 111.016L550.631 111.022L550.986 110.324ZM535.578 96.0682L534.907 96.4725L534.912 96.4802L535.578 96.0682ZM535.578 54.8842L534.912 54.4721L534.907 54.4798L535.578 54.8842ZM550.986 40.7722L551.344 41.4682L551.348 41.4662L550.986 40.7722ZM594.618 40.7722L594.229 41.4518L594.236 41.4555L594.242 41.459L594.618 40.7722ZM608.01 55.3162L608.38 56.0058L609.017 55.6635L608.726 55.0012L608.01 55.3162ZM590.586 64.6762L589.905 65.0626L590.282 65.7277L590.956 65.3658L590.586 64.6762ZM558.618 59.7802L558.064 59.2266L558.618 59.7802ZM590.586 86.2762L590.96 85.5889L590.278 85.2165L589.901 85.8968L590.586 86.2762ZM608.01 95.7802L608.723 96.1033L609.023 95.441L608.384 95.0929L608.01 95.7802ZM594.618 110.18L594.234 109.498L594.229 109.5L594.618 110.18ZM557.754 146.756L557.936 145.995L557.922 145.991L557.907 145.989L557.754 146.756ZM551.706 144.596L550.969 144.332L550.75 144.942L551.309 145.271L551.706 144.596ZM555.162 134.948L555.494 134.239L554.715 133.874L554.425 134.684L555.162 134.948ZM560.058 128.324L559.297 128.138L559.06 129.107H560.058V128.324ZM563.802 113.06V112.277H563.188L563.041 112.874L563.802 113.06ZM575.754 113.06L576.515 113.244L576.748 112.277H575.754V113.06ZM573.738 121.412L572.977 121.228L572.769 122.09L573.649 122.19L573.738 121.412ZM583.098 125.3L582.531 125.841L582.532 125.841L583.098 125.3ZM580.506 143.732L580.079 143.076L580.068 143.083L580.506 143.732ZM573.306 114.581C565.159 114.581 557.842 112.924 551.34 109.626L550.631 111.022C557.377 114.444 564.94 116.147 573.306 116.147V114.581ZM551.352 109.632C544.942 106.239 539.911 101.581 536.243 95.6561L534.912 96.4802C538.732 102.651 543.973 107.498 550.619 111.016L551.352 109.632ZM536.248 95.6638C532.68 89.7484 530.888 83.0265 530.888 75.4762H529.323C529.323 83.2858 531.179 90.2919 534.907 96.4725L536.248 95.6638ZM530.888 75.4762C530.888 67.9258 532.68 61.2039 536.248 55.2885L534.907 54.4798C531.179 60.6604 529.323 67.6665 529.323 75.4762H530.888ZM536.243 55.2962C539.91 49.373 544.938 44.7654 551.344 41.4682L550.627 40.0761C543.977 43.4989 538.733 48.2993 534.912 54.4721L536.243 55.2962ZM551.348 41.4662C557.849 38.0745 565.162 36.371 573.306 36.371V34.8053C564.937 34.8053 557.371 36.5578 550.623 40.0781L551.348 41.4662ZM573.306 36.371C581.353 36.371 588.318 38.0742 594.229 41.4518L595.006 40.0925C588.821 36.5581 581.578 34.8053 573.306 34.8053V36.371ZM594.242 41.459C600.236 44.7371 604.579 49.4553 607.293 55.6311L608.726 55.0012C605.872 48.505 601.287 43.5272 594.993 40.0853L594.242 41.459ZM607.639 54.6265L590.215 63.9865L590.956 65.3658L608.38 56.0058L607.639 54.6265ZM591.266 64.2897C587.108 56.9638 581.053 53.2373 573.162 53.2373V54.803C580.438 54.803 585.999 58.1805 589.905 65.0626L591.266 64.2897ZM573.162 53.2373C567.116 53.2373 562.063 55.2276 558.064 59.2266L559.171 60.3337C562.852 56.6528 567.495 54.803 573.162 54.803V53.2373ZM558.064 59.2266C554.046 63.2445 552.075 68.6931 552.075 75.4762H553.64C553.64 69.0112 555.509 63.9958 559.171 60.3337L558.064 59.2266ZM552.075 75.4762C552.075 82.2592 554.046 87.7078 558.064 91.7257L559.171 90.6186C555.509 86.9565 553.64 81.9411 553.64 75.4762H552.075ZM558.064 91.7257C562.063 95.7248 567.116 97.715 573.162 97.715V96.1493C567.495 96.1493 562.852 94.2996 559.171 90.6186L558.064 91.7257ZM573.162 97.715C577.127 97.715 580.644 96.7965 583.686 94.936C586.726 93.0769 589.249 90.3031 591.27 86.6556L589.901 85.8968C587.986 89.3532 585.637 91.9074 582.869 93.6003C580.103 95.2918 576.876 96.1493 573.162 96.1493V97.715ZM590.211 86.9634L607.635 96.4674L608.384 95.0929L590.96 85.5889L590.211 86.9634ZM607.297 95.4571C604.584 101.442 600.24 106.12 594.234 109.498L595.001 110.862C601.284 107.329 605.867 102.406 608.723 96.1033L607.297 95.4571ZM594.229 109.5C588.318 112.878 581.353 114.581 573.306 114.581V116.147C581.578 116.147 588.821 114.394 595.006 110.86L594.229 109.5ZM565.098 146.837C562.662 146.837 560.276 146.556 557.936 145.995L557.571 147.517C560.031 148.108 562.541 148.403 565.098 148.403V146.837ZM557.907 145.989C555.569 145.521 553.641 144.826 552.102 143.921L551.309 145.271C553.034 146.286 555.138 147.031 557.6 147.524L557.907 145.989ZM552.443 144.86L555.899 135.212L554.425 134.684L550.969 144.332L552.443 144.86ZM554.829 135.657C557.998 137.142 561.231 137.891 564.522 137.891V136.325C561.476 136.325 558.469 135.634 555.494 134.239L554.829 135.657ZM564.522 137.891C567.072 137.891 569.117 137.503 570.548 136.623C572.041 135.704 572.792 134.292 572.792 132.5H571.227C571.227 133.78 570.731 134.672 569.727 135.289C568.662 135.945 566.963 136.325 564.522 136.325V137.891ZM572.792 132.5C572.792 130.838 572.064 129.535 570.644 128.694C569.289 127.892 567.357 127.541 564.954 127.541V129.107C567.254 129.107 568.85 129.452 569.847 130.042C570.779 130.594 571.227 131.378 571.227 132.5H572.792ZM564.954 127.541H560.058V129.107H564.954V127.541ZM560.818 128.511L564.562 113.247L563.041 112.874L559.297 128.138L560.818 128.511ZM563.802 113.843H575.754V112.277H563.802V113.843ZM574.993 112.876L572.977 121.228L574.499 121.596L576.515 113.244L574.993 112.876ZM573.649 122.19C577.772 122.658 580.689 123.91 582.531 125.841L583.664 124.76C581.475 122.466 578.151 121.126 573.826 120.634L573.649 122.19ZM582.532 125.841C584.499 127.898 585.483 130.39 585.483 133.364H587.048C587.048 130.003 585.92 127.119 583.663 124.759L582.532 125.841ZM585.483 133.364C585.483 137.504 583.707 140.718 580.079 143.076L580.932 144.389C584.984 141.755 587.048 138.057 587.048 133.364H585.483ZM580.068 143.083C576.398 145.56 571.432 146.837 565.098 146.837V148.403C571.627 148.403 576.933 147.088 580.944 144.381L580.068 143.083ZM679.84 44.2282L679.317 44.8114L679.322 44.8157L679.84 44.2282ZM689.488 114.212V114.995H690.271V114.212H689.488ZM668.464 114.212H667.681V114.995H668.464V114.212ZM668.464 104.564H669.247V101.683L667.788 104.168L668.464 104.564ZM629.296 112.34L628.965 113.05L628.971 113.052L629.296 112.34ZM619.36 103.988L620.016 103.562L619.36 103.988ZM623.968 74.9002L623.496 74.2752L623.491 74.2793L623.968 74.9002ZM667.024 68.7082V69.491H667.807V68.7082H667.024ZM662.56 57.4762L662.035 58.0572L662.046 58.0665L662.56 57.4762ZM636.928 55.4602L637.164 56.2065L637.175 56.2028L636.928 55.4602ZM626.848 60.6442L626.151 61.0019L626.587 61.85L627.334 61.2575L626.848 60.6442ZM618.784 44.9482L618.333 44.3082L617.776 44.7003L618.087 45.3059L618.784 44.9482ZM633.904 38.0362L633.697 37.2812L633.694 37.282L633.904 38.0362ZM660.688 97.6522L661.081 98.3291L661.089 98.3245L661.097 98.3196L660.688 97.6522ZM667.024 89.7322L667.76 89.998L667.807 89.8692V89.7322H667.024ZM667.024 81.8122H667.807V81.0293H667.024V81.8122ZM641.104 97.7962L640.621 98.4127L640.636 98.4242L640.651 98.435L641.104 97.7962ZM658.384 25.7962L658.006 26.4821L658.026 26.4931L658.047 26.503L658.384 25.7962ZM651.904 21.6202L651.434 22.2464L651.44 22.251L651.446 22.2555L651.904 21.6202ZM648.016 19.0282L647.613 19.6994L647.627 19.7077L647.641 19.7154L648.016 19.0282ZM640.24 20.3242L640.813 20.8568L640.823 20.847L640.831 20.8369L640.24 20.3242ZM638.224 26.2282V27.011H638.978L639.006 26.2571L638.224 26.2282ZM626.848 26.2282L626.065 26.2048L626.041 27.011H626.848V26.2282ZM631.6 10.9642L630.988 10.4751L630.987 10.477L631.6 10.9642ZM650.32 6.78815L649.942 7.47409L649.962 7.48511L649.983 7.49495L650.32 6.78815ZM657.088 10.9642L657.557 10.3378L657.55 10.3321L657.088 10.9642ZM660.832 13.5561L660.429 14.2274L660.443 14.2357L660.457 14.2434L660.832 13.5561ZM668.608 12.4042L668.035 11.87L668.034 11.8715L668.608 12.4042ZM670.768 6.64415V5.86131H670.016L669.985 6.61286L670.768 6.64415ZM682.144 6.64415L682.926 6.66823L682.951 5.86131H682.144V6.64415ZM677.248 21.6202L676.642 21.1235L676.635 21.133L677.248 21.6202ZM652.192 36.371C664.074 36.371 673.077 39.2225 679.317 44.8113L680.362 43.645C673.739 37.7138 664.309 34.8053 652.192 34.8053V36.371ZM679.322 44.8157C685.533 50.2846 688.705 58.6277 688.705 70.0042H690.271C690.271 58.3407 687.011 49.4997 680.357 43.6406L679.322 44.8157ZM688.705 70.0042V114.212H690.271V70.0042H688.705ZM689.488 113.429H668.464V114.995H689.488V113.429ZM669.247 114.212V104.564H667.681V114.212H669.247ZM667.788 104.168C663.756 111.042 656.208 114.581 644.848 114.581V116.147C656.527 116.147 664.723 112.487 669.139 104.96L667.788 104.168ZM644.848 114.581C638.983 114.581 633.914 113.588 629.621 111.628L628.971 113.052C633.509 115.124 638.808 116.147 644.848 116.147V114.581ZM629.627 111.631C625.422 109.669 622.231 106.976 620.016 103.562L618.703 104.414C621.096 108.104 624.529 110.98 628.965 113.05L629.627 111.631ZM620.016 103.562C617.8 100.145 616.687 96.2634 616.687 91.8922H615.121C615.121 96.545 616.311 100.727 618.703 104.414L620.016 103.562ZM616.687 91.8922C616.687 84.9179 619.275 79.4905 624.444 75.5211L623.491 74.2793C617.908 78.5658 615.121 84.4664 615.121 91.8922H616.687ZM624.439 75.5251C629.712 71.5473 637.908 69.491 649.168 69.491V67.9253C637.771 67.9253 629.167 69.997 623.496 74.2752L624.439 75.5251ZM649.168 69.491H667.024V67.9253H649.168V69.491ZM667.807 68.7082C667.807 63.6448 666.26 59.6613 663.074 56.8858L662.046 58.0665C664.811 60.475 666.241 63.9795 666.241 68.7082H667.807ZM663.084 56.8952C659.909 54.0266 655.222 52.6613 649.168 52.6613V54.227C655.018 54.227 659.259 55.5497 662.035 58.0571L663.084 56.8952ZM649.168 52.6613C644.953 52.6613 640.79 53.3477 636.68 54.7175L637.175 56.2028C641.13 54.8846 645.126 54.227 649.168 54.227V52.6613ZM636.691 54.7139C632.679 55.9861 629.231 57.755 626.361 60.0308L627.334 61.2575C630.033 59.1174 633.305 57.4302 637.164 56.2064L636.691 54.7139ZM627.544 60.2864L619.48 44.5904L618.087 45.3059L626.151 61.0019L627.544 60.2864ZM619.235 45.5881C623.374 42.6718 628.329 40.4024 634.114 38.7903L633.694 37.282C627.766 38.9339 622.642 41.2725 618.333 44.3082L619.235 45.5881ZM634.111 38.7911C639.995 37.1778 646.021 36.371 652.192 36.371V34.8053C645.883 34.8053 639.717 35.6305 633.697 37.2812L634.111 38.7911ZM650.464 101.027C654.425 101.027 657.972 100.134 661.081 98.3291L660.295 96.9752C657.451 98.6261 654.182 99.4613 650.464 99.4613V101.027ZM661.097 98.3196C664.233 96.3976 666.455 93.6117 667.76 89.998L666.287 89.4663C665.096 92.7646 663.095 95.2587 660.279 96.9847L661.097 98.3196ZM667.807 89.7322V81.8122H666.241V89.7322H667.807ZM667.024 81.0293H651.616V82.595H667.024V81.0293ZM651.616 81.0293C646.947 81.0293 643.309 81.7908 640.818 83.4257C638.269 85.0983 637.009 87.6268 637.009 90.8842H638.575C638.575 88.0935 639.618 86.086 641.677 84.7346C643.794 83.3456 647.068 82.595 651.616 82.595V81.0293ZM637.009 90.8842C637.009 93.9973 638.218 96.5316 640.621 98.4127L641.586 97.1797C639.574 95.6047 638.575 93.531 638.575 90.8842H637.009ZM640.651 98.435C643.13 100.191 646.428 101.027 650.464 101.027V99.4613C646.628 99.4613 643.685 98.6652 641.556 97.1573L640.651 98.435ZM665.296 26.4533C662.801 26.4533 660.615 25.9918 658.72 25.0894L658.047 26.503C660.184 27.5205 662.606 28.019 665.296 28.019V26.4533ZM658.761 25.1102C656.876 24.0737 654.744 22.7003 652.361 20.9849L651.446 22.2555C653.864 23.996 656.051 25.4066 658.006 26.4821L658.761 25.1102ZM652.373 20.9939C650.823 19.8309 649.493 18.9423 648.391 18.3409L647.641 19.7154C648.65 20.266 649.913 21.1054 651.434 22.2464L652.373 20.9939ZM648.418 18.3569C647.357 17.7202 646.26 17.3813 645.136 17.3813V18.947C645.932 18.947 646.754 19.1841 647.613 19.6994L648.418 18.3569ZM645.136 17.3813C642.908 17.3813 641.054 18.1889 639.648 19.8115L640.831 20.8369C641.921 19.5794 643.332 18.947 645.136 18.947V17.3813ZM639.666 19.7915C638.246 21.3204 637.542 23.4965 637.441 26.1992L639.006 26.2571C639.098 23.7758 639.737 22.0159 640.813 20.8568L639.666 19.7915ZM638.224 25.4453H626.848V27.011H638.224V25.4453ZM627.63 26.2515C627.819 19.9306 629.373 15.024 632.213 11.4513L630.987 10.477C627.875 14.3923 626.26 19.6617 626.065 26.2048L627.63 26.2515ZM632.211 11.4532C635.132 7.80215 638.937 5.987 643.696 5.987V4.42131C638.47 4.42131 634.212 6.44617 630.988 10.4751L632.211 11.4532ZM643.696 5.987C646.078 5.987 648.153 6.49005 649.942 7.47409L650.697 6.10221C648.646 4.97425 646.305 4.42131 643.696 4.42131V5.987ZM649.983 7.49495C651.942 8.42774 654.155 9.79088 656.626 11.5962L657.55 10.3321C655.028 8.48942 652.729 7.06856 650.656 6.08135L649.983 7.49495ZM656.618 11.5904C658.163 12.7489 659.435 13.6312 660.429 14.2274L661.234 12.8849C660.308 12.3291 659.085 11.4834 657.557 10.3379L656.618 11.5904ZM660.457 14.2434C661.599 14.8665 662.736 15.203 663.856 15.203V13.6373C663.056 13.6373 662.176 13.3978 661.207 12.8689L660.457 14.2434ZM663.856 15.203C665.982 15.203 667.778 14.4486 669.181 12.9368L668.034 11.8715C666.942 13.0477 665.57 13.6373 663.856 13.6373V15.203ZM669.18 12.9383C670.678 11.3328 671.448 9.21997 671.55 6.67544L669.985 6.61286C669.895 8.86833 669.225 10.5955 668.035 11.87L669.18 12.9383ZM670.768 7.42699H682.144V5.86131H670.768V7.42699ZM681.361 6.62008C681.173 12.7377 679.577 17.5475 676.643 21.1236L677.853 22.1167C681.063 18.2048 682.73 13.0306 682.926 6.66823L681.361 6.62008ZM676.635 21.133C673.815 24.6809 670.061 26.4533 665.296 26.4533V28.019C670.514 28.019 674.729 26.0474 677.861 22.1073L676.635 21.133ZM725.494 110.324L725.124 111.014L725.136 111.02L725.494 110.324ZM710.374 96.0682L709.704 96.4725L710.374 96.0682ZM710.374 54.8842L709.704 54.4798L710.374 54.8842ZM725.494 40.7722L725.857 41.466L725.861 41.464L725.494 40.7722ZM769.414 40.7722L769.044 41.4618L769.052 41.466L769.414 40.7722ZM784.534 54.8842L785.205 54.4798L784.534 54.8842ZM784.534 96.0682L785.205 96.4725L784.534 96.0682ZM769.414 110.324L769.777 111.018L769.785 111.014L769.414 110.324ZM761.638 91.1722L761.071 90.6326L761.071 90.633L761.638 91.1722ZM761.638 59.9242L761.064 60.4563L761.071 60.4636L761.078 60.4707L761.638 59.9242ZM733.27 59.9242L733.831 60.4707L733.838 60.4637L733.27 59.9242ZM733.27 91.1722L732.703 91.7117L732.71 91.7187L733.27 91.1722ZM747.526 114.581C739.477 114.581 732.258 112.925 725.853 109.628L725.136 111.02C731.787 114.443 739.256 116.147 747.526 116.147V114.581ZM725.865 109.635C719.552 106.243 714.618 101.587 711.045 95.6638L709.704 96.4725C713.427 102.645 718.573 107.494 725.124 111.014L725.865 109.635ZM711.045 95.6638C707.477 89.7484 705.685 83.0265 705.685 75.4762H704.12C704.12 83.2858 705.976 90.2919 709.704 96.4725L711.045 95.6638ZM705.685 75.4762C705.685 67.9258 707.477 61.2039 711.045 55.2885L709.704 54.4798C705.976 60.6604 704.12 67.6665 704.12 75.4762H705.685ZM711.045 55.2885C714.617 49.3669 719.548 44.7615 725.857 41.466L725.132 40.0783C718.576 43.5028 713.428 48.3054 709.704 54.4798L711.045 55.2885ZM725.861 41.464C732.264 38.0738 739.48 36.371 747.526 36.371V34.8053C739.252 34.8053 731.78 36.5585 725.128 40.0803L725.861 41.464ZM747.526 36.371C755.573 36.371 762.739 38.0739 769.044 41.4618L769.785 40.0826C763.226 36.5584 755.8 34.8053 747.526 34.8053V36.371ZM769.052 41.466C775.36 44.7615 780.292 49.3669 783.864 55.2885L785.205 54.4798C781.481 48.3054 776.332 43.5028 769.777 40.0783L769.052 41.466ZM783.864 55.2885C787.432 61.2039 789.224 67.9258 789.224 75.4762H790.789C790.789 67.6665 788.933 60.6604 785.205 54.4798L783.864 55.2885ZM789.224 75.4762C789.224 83.0265 787.432 89.7484 783.864 95.6638L785.205 96.4725C788.933 90.2919 790.789 83.2858 790.789 75.4762H789.224ZM783.864 95.6638C780.291 101.587 775.357 106.243 769.044 109.635L769.785 111.014C776.336 107.494 781.482 102.645 785.205 96.4725L783.864 95.6638ZM769.052 109.63C762.745 112.925 755.576 114.581 747.526 114.581V116.147C755.797 116.147 763.22 114.443 769.777 111.018L769.052 109.63ZM747.526 97.715C753.48 97.715 758.396 95.7214 762.206 91.7113L761.071 90.633C757.584 94.3029 753.093 96.1493 747.526 96.1493V97.715ZM762.206 91.7117C766.115 87.6017 768.037 82.162 768.037 75.4762H766.472C766.472 81.8463 764.65 86.8706 761.071 90.6326L762.206 91.7117ZM768.037 75.4762C768.037 68.791 766.115 63.3944 762.199 59.3777L761.078 60.4707C764.65 64.1339 766.472 69.1053 766.472 75.4762H768.037ZM762.213 59.392C758.405 55.2835 753.486 53.2373 747.526 53.2373V54.803C753.086 54.803 757.576 56.6928 761.064 60.4563L762.213 59.392ZM747.526 53.2373C741.566 53.2373 736.605 55.2831 732.703 59.3846L733.838 60.4637C737.424 56.6932 741.966 54.803 747.526 54.803V53.2373ZM732.71 59.3777C728.794 63.3944 726.872 68.791 726.872 75.4762H728.437C728.437 69.1053 730.259 64.1339 733.831 60.4707L732.71 59.3777ZM726.872 75.4762C726.872 82.162 728.794 87.6017 732.703 91.7117L733.838 90.6326C730.259 86.8706 728.437 81.8463 728.437 75.4762H726.872ZM732.71 91.7187C736.613 95.7218 741.573 97.715 747.526 97.715V96.1493C741.96 96.1493 737.416 94.3026 733.831 90.6257L732.71 91.7187Z" fill="#CACACA"/>
</svg>
