<svg width="590" height="552" viewBox="0 0 590 552" fill="none" xmlns="http://www.w3.org/2000/svg">
<g clip-path="url(#clip0_435_1185)">
<rect width="590" height="552" fill="#171B16"/>
<rect width="45.1425" height="45.1425" transform="matrix(4.37114e-08 -1 -1 -4.37114e-08 45.582 177.858)" fill="#F6690B"/>
<path d="M45.582 87.5727L45.582 102.62L30.5345 102.62L30.5345 117.668L15.487 117.668L15.487 132.715L0.439551 132.715L0.439552 87.5727L45.582 87.5727Z" fill="white"/>
<path d="M113.296 -2.71225L135.867 19.859L113.296 42.4302L90.7247 19.859L113.296 -2.71225Z" fill="#F6690B"/>
<path d="M45.582 177.858C33.1163 177.858 23.0108 187.963 23.0108 200.429C23.0108 212.895 33.1163 223 45.582 223L45.582 209.31C40.6771 209.31 36.7009 205.334 36.7009 200.429C36.701 195.524 40.6771 191.548 45.582 191.548L45.582 177.858Z" fill="#F6690B"/>
<path d="M0.439447 223C12.9052 223 23.0107 212.895 23.0107 200.429C23.0107 187.963 12.9052 177.858 0.439453 177.858L0.439451 191.548C5.34434 191.548 9.32053 195.524 9.32053 200.429C9.32053 205.334 5.34434 209.31 0.439449 209.31L0.439447 223Z" fill="#F6690B"/>
<path d="M135.867 -2.71216C135.867 9.75359 145.973 19.8591 158.439 19.8591C170.904 19.8591 181.01 9.75359 181.01 -2.71216L167.32 -2.71216C167.32 2.19273 163.343 6.16892 158.439 6.16892C153.534 6.16892 149.557 2.19273 149.557 -2.71216L135.867 -2.71216Z" fill="#F6690B"/>
<path d="M181.01 42.4302C181.01 29.9645 170.904 19.859 158.438 19.859C145.973 19.859 135.867 29.9645 135.867 42.4302L149.557 42.4302C149.557 37.5254 153.534 33.5492 158.438 33.5492C163.343 33.5492 167.32 37.5254 167.32 42.4302L181.01 42.4302Z" fill="#F6690B"/>
<path d="M76.2713 118.262L68.1534 132.715L60.0354 118.262L45.5821 110.144L60.0354 102.026L68.1534 87.5727L76.2713 102.026L90.7246 110.144L76.2713 118.262Z" fill="#F6690B"/>
<path fill-rule="evenodd" clip-rule="evenodd" d="M41.7434 61.1628C43.8634 61.1628 45.582 62.8814 45.582 65.0014C45.582 67.1215 43.8634 68.8401 41.7434 68.8401L37.5354 68.8401L41.1939 70.9191C43.0371 71.9665 43.6822 74.3099 42.6348 76.1531C41.5873 77.9963 39.244 78.6413 37.4008 77.5939L33.2373 75.2279L35.6034 79.3915C36.6508 81.2347 36.0057 83.5781 34.1625 84.6255C32.3193 85.6729 29.976 85.0278 28.9285 83.1846L26.8494 79.526L26.8494 83.7339C26.8494 85.854 25.1308 87.5726 23.0108 87.5726C20.8908 87.5726 19.1721 85.854 19.1721 83.7339L19.1721 79.5257L17.093 83.1844C16.0456 85.0276 13.7023 85.6727 11.8591 84.6253C10.0159 83.5778 9.37078 81.2345 10.4182 79.3913L12.7839 75.2282L8.6208 77.594C6.77759 78.6415 4.43427 77.9964 3.38684 76.1532C2.3394 74.31 2.98449 71.9667 4.8277 70.9192L8.4864 68.8401L4.2782 68.8401C2.15817 68.8401 0.439549 67.1215 0.439549 65.0014C0.43955 62.8814 2.15817 61.1628 4.2782 61.1628L8.48654 61.1628L4.8277 59.0836C2.98449 58.0362 2.3394 55.6928 3.38684 53.8496C4.43427 52.0064 6.77759 51.3613 8.6208 52.4088L12.7839 54.7746L10.4182 50.6115C9.37078 48.7683 10.0159 46.425 11.8591 45.3776C13.7023 44.3301 16.0456 44.9752 17.093 46.8184L19.1721 50.4771L19.1721 46.2687C19.1721 44.1487 20.8908 42.4301 23.0108 42.4301C25.1308 42.4301 26.8494 44.1487 26.8494 46.2687L26.8494 50.4768L28.9285 46.8182C29.976 44.975 32.3193 44.3299 34.1625 45.3773C36.0057 46.4247 36.6508 48.7681 35.6034 50.6113L33.2373 54.7749L37.4008 52.4089C39.244 51.3615 41.5873 52.0066 42.6348 53.8498C43.6822 55.693 43.0371 58.0363 41.1939 59.0837L37.5353 61.1628L41.7434 61.1628Z" fill="#F6690B"/>
<path d="M68.1533 79.2626C65.8217 84.3343 62.2725 87.5727 58.2972 87.5727C51.2748 87.5727 45.582 77.4672 45.582 65.0015C45.582 52.5357 51.2748 42.4302 58.2972 42.4302C62.2724 42.4302 65.8217 45.6686 68.1533 50.7403C70.4849 45.6686 74.0341 42.4302 78.0094 42.4302C85.0317 42.4302 90.7245 52.5357 90.7245 65.0015C90.7245 77.4672 85.0318 87.5727 78.0094 87.5727C74.0341 87.5727 70.4849 84.3343 68.1533 79.2626Z" fill="white"/>
<path d="M70.6551 13.8193C70.3514 4.28619 69.3464 -2.71224 68.1534 -2.71224C66.9604 -2.71224 65.9554 4.28619 65.6516 13.8193C58.696 7.29314 53.0367 3.05515 52.1931 3.89873C51.3495 4.7423 55.5875 10.4016 62.1137 17.3573C52.5806 17.661 45.5821 18.666 45.5821 19.859C45.5821 21.052 52.5806 22.057 62.1137 22.3607C55.5875 29.3164 51.3495 34.9757 52.1931 35.8193C53.0367 36.6628 58.696 32.4249 65.6516 25.8987C65.9554 35.4318 66.9604 42.4302 68.1534 42.4302C69.3464 42.4302 70.3514 35.4318 70.6551 25.8987C77.6108 32.4249 83.2701 36.6629 84.1136 35.8193C84.9572 34.9757 80.7192 29.3164 74.193 22.3607C83.7262 22.057 90.7246 21.052 90.7246 19.859C90.7246 18.666 83.7262 17.661 74.1931 17.3573C80.7192 10.4016 84.9572 4.74229 84.1137 3.89872C83.2701 3.05515 77.6108 7.29314 70.6551 13.8193Z" fill="#F6690B"/>
<path fill-rule="evenodd" clip-rule="evenodd" d="M101.003 52.8855L101.39 42.4303L113.571 54.1731L125.752 42.4302L126.14 52.8849L136.143 54.0706L124.804 65.0015L136.143 75.9323L126.14 77.1181L125.752 87.5728L113.571 75.8298L101.39 87.5727L101.003 77.1174L91.0001 75.9322L102.339 65.0015L91.0001 54.0707L101.003 52.8855Z" fill="#F6690B"/>
<path fill-rule="evenodd" clip-rule="evenodd" d="M39.563 19.859C39.563 29.0005 32.1523 36.4112 23.0108 36.4112C13.8692 36.4112 6.45854 29.0005 6.45854 19.859C6.45855 10.7174 13.8692 3.30675 23.0108 3.30675C32.1523 3.30675 39.563 10.7174 39.563 19.859ZM23.0108 42.4302C35.4765 42.4302 45.582 32.3247 45.582 19.859C45.582 7.39324 35.4765 -2.71225 23.0108 -2.71225C10.545 -2.71225 0.439545 7.39324 0.439544 19.859C0.439544 32.3247 10.545 42.4302 23.0108 42.4302Z" fill="white"/>
<path fill-rule="evenodd" clip-rule="evenodd" d="M29.0065 19.8589C29.0065 23.1702 26.3222 25.8544 23.011 25.8544C19.6998 25.8544 17.0155 23.1702 17.0155 19.8589C17.0155 16.5477 19.6998 13.8635 23.011 13.8635C26.3222 13.8635 29.0065 16.5477 29.0065 19.8589ZM23.011 31.8499C29.6334 31.8499 35.002 26.4814 35.002 19.8589C35.002 13.2365 29.6334 7.86797 23.011 7.86797C16.3886 7.86797 11.02 13.2365 11.02 19.8589C11.02 26.4814 16.3886 31.8499 23.011 31.8499Z" fill="#F6690B"/>
<path d="M45.3751 155.308C45.3751 142.842 55.4806 132.736 67.9463 132.736C80.4121 132.736 90.5176 142.842 90.5176 155.308L67.9463 155.308L67.9463 177.879C55.4806 177.879 45.3751 167.773 45.3751 155.308Z" fill="white"/>
<rect x="544.428" y="177.858" width="45.1425" height="45.1425" transform="rotate(-90 544.428 177.858)" fill="#F6690B"/>
<path d="M544.428 87.5727L544.428 102.62L559.475 102.62L559.475 117.668L574.523 117.668L574.523 132.715L589.57 132.715L589.57 87.5727L544.428 87.5727Z" fill="white"/>
<path d="M476.714 -2.71225L454.143 19.859L476.714 42.4302L499.285 19.859L476.714 -2.71225Z" fill="#F6690B"/>
<path d="M544.428 177.858C556.893 177.858 566.999 187.963 566.999 200.429C566.999 212.895 556.893 223 544.428 223L544.428 209.31C549.333 209.31 553.309 205.334 553.309 200.429C553.309 195.524 549.333 191.548 544.428 191.548L544.428 177.858Z" fill="#F6690B"/>
<path d="M589.57 223C577.105 223 566.999 212.895 566.999 200.429C566.999 187.963 577.105 177.858 589.57 177.858L589.57 191.548C584.665 191.548 580.689 195.524 580.689 200.429C580.689 205.334 584.665 209.31 589.57 209.31L589.57 223Z" fill="#F6690B"/>
<path d="M454.142 -2.71216C454.142 9.75359 444.037 19.8591 431.571 19.8591C419.105 19.8591 409 9.75359 409 -2.71216L422.69 -2.71216C422.69 2.19273 426.666 6.16892 431.571 6.16892C436.476 6.16892 440.452 2.19273 440.452 -2.71216L454.142 -2.71216Z" fill="#F6690B"/>
<path d="M409 42.4302C409 29.9645 419.106 19.859 431.571 19.859C444.037 19.859 454.143 29.9645 454.143 42.4302L440.452 42.4302C440.452 37.5254 436.476 33.5492 431.571 33.5492C426.666 33.5492 422.69 37.5254 422.69 42.4302L409 42.4302Z" fill="#F6690B"/>
<path d="M513.738 118.262L521.856 132.715L529.974 118.262L544.428 110.144L529.974 102.026L521.856 87.5727L513.738 102.026L499.285 110.144L513.738 118.262Z" fill="#F6690B"/>
<path fill-rule="evenodd" clip-rule="evenodd" d="M548.266 61.1628C546.146 61.1628 544.428 62.8814 544.428 65.0014C544.428 67.1215 546.146 68.8401 548.266 68.8401L552.474 68.8401L548.816 70.9191C546.973 71.9665 546.328 74.3099 547.375 76.1531C548.422 77.9963 550.766 78.6413 552.609 77.5939L556.772 75.2279L554.406 79.3915C553.359 81.2347 554.004 83.5781 555.847 84.6255C557.69 85.6729 560.034 85.0278 561.081 83.1846L563.16 79.526L563.16 83.7339C563.16 85.854 564.879 87.5726 566.999 87.5726C569.119 87.5726 570.838 85.854 570.838 83.7339L570.838 79.5257L572.917 83.1844C573.964 85.0276 576.307 85.6727 578.151 84.6253C579.994 83.5778 580.639 81.2345 579.592 79.3913L577.226 75.2282L581.389 77.594C583.232 78.6415 585.575 77.9964 586.623 76.1532C587.67 74.31 587.025 71.9667 585.182 70.9192L581.523 68.8401L585.732 68.8401C587.852 68.8401 589.57 67.1215 589.57 65.0014C589.57 62.8814 587.852 61.1628 585.732 61.1628L581.523 61.1628L585.182 59.0836C587.025 58.0362 587.67 55.6928 586.623 53.8496C585.575 52.0064 583.232 51.3613 581.389 52.4088L577.226 54.7746L579.592 50.6115C580.639 48.7683 579.994 46.425 578.151 45.3776C576.307 44.3301 573.964 44.9752 572.917 46.8184L570.838 50.4771L570.838 46.2687C570.838 44.1487 569.119 42.4301 566.999 42.4301C564.879 42.4301 563.16 44.1487 563.16 46.2687L563.16 50.4768L561.081 46.8182C560.034 44.975 557.69 44.3299 555.847 45.3773C554.004 46.4247 553.359 48.7681 554.406 50.6113L556.772 54.7749L552.609 52.4089C550.766 51.3615 548.422 52.0066 547.375 53.8498C546.328 55.693 546.973 58.0363 548.816 59.0837L552.474 61.1628L548.266 61.1628Z" fill="#F6690B"/>
<path d="M521.856 79.2626C524.188 84.3343 527.737 87.5727 531.713 87.5727C538.735 87.5727 544.428 77.4672 544.428 65.0015C544.428 52.5357 538.735 42.4302 531.713 42.4302C527.737 42.4302 524.188 45.6686 521.856 50.7403C519.525 45.6686 515.976 42.4302 512 42.4302C504.978 42.4302 499.285 52.5357 499.285 65.0015C499.285 77.4672 504.978 87.5727 512 87.5727C515.976 87.5727 519.525 84.3343 521.856 79.2626Z" fill="white"/>
<path d="M519.355 13.8193C519.658 4.28619 520.663 -2.71224 521.856 -2.71224C523.049 -2.71224 524.054 4.28619 524.358 13.8193C531.314 7.29314 536.973 3.05515 537.817 3.89873C538.66 4.7423 534.422 10.4016 527.896 17.3573C537.429 17.661 544.428 18.666 544.428 19.859C544.428 21.052 537.429 22.057 527.896 22.3607C534.422 29.3164 538.66 34.9757 537.817 35.8193C536.973 36.6628 531.314 32.4249 524.358 25.8987C524.054 35.4318 523.049 42.4302 521.856 42.4302C520.663 42.4302 519.658 35.4318 519.355 25.8987C512.399 32.4249 506.74 36.6629 505.896 35.8193C505.053 34.9757 509.291 29.3164 515.817 22.3607C506.284 22.057 499.285 21.052 499.285 19.859C499.285 18.666 506.284 17.661 515.817 17.3573C509.291 10.4016 505.053 4.74229 505.896 3.89872C506.74 3.05515 512.399 7.29314 519.355 13.8193Z" fill="#F6690B"/>
<path fill-rule="evenodd" clip-rule="evenodd" d="M489.007 52.8855L488.62 42.4303L476.438 54.1731L464.257 42.4302L463.87 52.8849L453.867 54.0706L465.206 65.0015L453.867 75.9323L463.87 77.1181L464.257 87.5728L476.439 75.8298L488.62 87.5727L489.007 77.1174L499.01 75.9322L487.671 65.0015L499.01 54.0707L489.007 52.8855Z" fill="#F6690B"/>
<path fill-rule="evenodd" clip-rule="evenodd" d="M550.447 19.859C550.447 29.0005 557.857 36.4112 566.999 36.4112C576.141 36.4112 583.551 29.0005 583.551 19.859C583.551 10.7174 576.141 3.30675 566.999 3.30675C557.857 3.30675 550.447 10.7174 550.447 19.859ZM566.999 42.4302C554.533 42.4302 544.428 32.3247 544.428 19.859C544.428 7.39324 554.533 -2.71225 566.999 -2.71225C579.465 -2.71225 589.57 7.39324 589.57 19.859C589.57 32.3247 579.465 42.4302 566.999 42.4302Z" fill="white"/>
<path fill-rule="evenodd" clip-rule="evenodd" d="M561.003 19.8589C561.003 23.1702 563.688 25.8544 566.999 25.8544C570.31 25.8544 572.994 23.1702 572.994 19.8589C572.994 16.5477 570.31 13.8635 566.999 13.8635C563.688 13.8635 561.003 16.5477 561.003 19.8589ZM566.999 31.8499C560.376 31.8499 555.008 26.4814 555.008 19.8589C555.008 13.2365 560.376 7.86797 566.999 7.86797C573.621 7.86797 578.99 13.2365 578.99 19.8589C578.99 26.4814 573.621 31.8499 566.999 31.8499Z" fill="#F6690B"/>
<path d="M544.635 155.308C544.635 142.842 534.529 132.736 522.063 132.736C509.598 132.736 499.492 142.842 499.492 155.308L522.063 155.308L522.063 177.879C534.529 177.879 544.635 167.773 544.635 155.308Z" fill="white"/>
<path fill-rule="evenodd" clip-rule="evenodd" d="M327.339 391.918C331.739 387.66 346.399 371.92 351.139 368.24C351.285 368.085 351.481 367.985 351.693 367.96C351.903 367.935 352.116 367.986 352.294 368.103C352.471 368.221 352.601 368.398 352.661 368.601C352.721 368.806 352.706 369.025 352.619 369.22C350.259 373.48 329.679 392.82 328.479 393.958C327.659 394.98 324.139 399.22 323.179 400.1C323.209 400.896 323.001 401.682 322.581 402.358C322.159 403.038 321.546 403.573 320.819 403.9C318.243 404.776 315.719 405.798 313.259 406.958C312.899 407.278 312.479 406.958 312.579 406.62C313.813 405.074 314.848 403.38 315.659 401.58C315.834 400.387 316.439 399.3 317.361 398.522C318.281 397.747 319.454 397.333 320.659 397.358C320.799 397.1 326.099 392.74 327.339 391.918ZM320.599 397.678C319.519 397.74 318.496 398.191 317.719 398.944C316.941 399.696 316.458 400.7 316.359 401.78C315.909 403.136 315.233 404.409 314.359 405.54C319.419 403.438 321.139 403.74 322.239 402.038C322.588 401.474 322.806 400.838 322.879 400.18C321.479 399.798 320.499 397.438 320.599 397.678ZM326.939 392.66C325.379 394.078 323.759 395.598 321.379 397.66C321.729 398.354 322.253 398.947 322.899 399.38L328.119 393.798C327.659 393.504 327.265 393.114 326.959 392.66H326.939ZM318.039 369.1C320.319 367.6 351.259 347.24 351.559 348.24C351.859 349.24 321.199 372.44 320.939 372.6C319.639 374.08 310.939 383.46 309.799 383.86C308.349 383.805 306.974 383.198 305.959 382.158C304.569 380.74 303.539 379.003 302.959 377.1C302.579 375.74 316.799 369.62 318.039 369.1ZM303.939 378C304.333 379.268 305.046 380.413 306.009 381.325C306.971 382.242 308.153 382.893 309.439 383.22C307.999 381.86 304.959 378.96 303.939 378ZM309.939 373.38C307.745 374.426 305.636 375.652 303.639 377.04C303.899 377.9 303.639 377.04 305.639 378.7C307.263 379.973 308.686 381.482 309.859 383.18C310.859 382.438 314.919 378.4 314.679 378.62C313.181 376.783 311.578 375.033 309.879 373.38H309.939ZM318.119 369.38C314.819 370.92 312.619 372 310.119 373.22C312.103 374.486 313.713 376.261 314.779 378.36C315.979 377.16 320.059 373.02 320.659 372.36C320.079 371.8 318.559 370.06 318.059 369.42L318.119 369.38ZM366.579 346.52C367.599 337.56 369.099 326.42 370.319 326.36C371.539 326.3 370.219 337.56 368.959 346.58C372.959 346.92 377.719 349.12 376.959 352.92C376.996 353.597 376.908 354.275 376.699 354.92C378.699 368.5 376.919 371.3 377.059 371.08C375.894 372.483 374.438 373.613 372.789 374.395C371.141 375.175 369.343 375.586 367.519 375.6C365.689 375.61 363.878 375.228 362.205 374.485C360.533 373.74 359.038 372.646 357.819 371.28C356.159 368.78 357.219 358.22 357.539 355.28C357.363 354.661 357.261 354.023 357.239 353.38C356.998 352.328 357.134 351.225 357.625 350.263C358.114 349.301 358.926 348.543 359.919 348.12C361.965 347.023 364.259 346.472 366.579 346.52ZM376.319 364.08C374.739 367.32 370.319 368.34 366.759 368.34C366.711 369.298 366.605 370.253 366.439 371.2C366.279 371.96 366.099 372.62 365.319 372.6C364.194 372.372 363.203 371.712 362.559 370.76C362.039 369.98 362.159 369.58 362.819 367.86C361.953 367.633 361.146 367.221 360.456 366.652C359.765 366.081 359.206 365.368 358.819 364.56C358.828 366.346 359.009 368.128 359.359 369.88C359.781 370.675 360.385 371.36 361.119 371.88C365.639 375.56 371.119 374.52 375.699 370.58C375.899 369.1 376.179 366.2 376.319 364.08ZM357.959 356.08C357.819 358.5 357.279 368.72 358.639 370.72C359.686 371.937 361.009 372.883 362.499 373.48C360.938 372.718 359.668 371.468 358.879 369.92C358.536 367.778 358.421 365.606 358.539 363.44C358.413 362.833 358.436 362.205 358.608 361.608C358.778 361.013 359.091 360.468 359.519 360.02C360.939 358.38 361.279 359.32 359.979 358.42C359.129 357.846 358.434 357.07 357.959 356.16V356.08ZM363.339 367.88C363.098 368.528 362.916 369.198 362.799 369.88C362.799 370.56 364.599 372.08 365.399 372C365.679 372 365.759 371.58 365.859 371.08C366.038 370.175 366.158 369.26 366.219 368.34C365.248 368.32 364.283 368.193 363.339 367.96V367.88ZM376.459 355.6C375.773 356.866 374.721 357.898 373.439 358.56C375.739 359.28 377.259 360.82 376.639 363.16C376.639 364.42 376.639 365.66 376.519 366.78C376.319 370.96 376.179 370.78 376.379 370.48C377.319 366.92 376.839 359.44 376.459 355.68V355.6ZM373.099 358.74C371.229 359.645 369.178 360.117 367.099 360.12C367.103 361.315 366.948 362.505 366.639 363.66C366.721 364.992 366.721 366.328 366.639 367.66C369.145 367.745 371.621 367.113 373.779 365.84C376.959 363.84 377.459 360.22 373.099 358.82V358.74ZM364.839 363.74C364.719 364.02 363.719 366.8 363.539 367.3C364.436 367.518 365.356 367.632 366.279 367.64C366.279 366.66 366.479 364.78 366.459 363.8C365.926 363.917 365.376 363.923 364.839 363.82V363.74ZM361.099 359.1C357.259 361.74 358.879 365.94 363.099 367.22C363.519 366.16 364.179 364.68 364.659 363.66C364.714 362.465 364.848 361.277 365.059 360.1C363.693 359.995 362.353 359.657 361.099 359.1ZM365.239 360.12L365.059 363.36C365.399 363.36 366.499 363.52 366.379 363.36C366.259 363.2 366.639 361.48 366.779 360.16C366.259 360.2 365.739 360.18 365.239 360.14V360.12ZM376.119 354.82C372.559 359.28 361.799 359.34 358.119 354.82C358.508 355.821 359.149 356.708 359.979 357.39C360.809 358.073 361.801 358.532 362.859 358.72C367.419 359.96 374.279 358.96 376.119 354.84V354.82ZM368.659 348.66C368.059 352.8 367.539 356.16 367.359 357.26C370.379 357.26 374.419 356.16 375.819 353.72C375.379 350.6 371.819 348.98 368.659 348.68V348.66ZM366.339 348.66C364.688 348.741 363.089 349.265 361.709 350.177C360.331 351.088 359.223 352.353 358.499 353.84C359.779 355.84 362.999 356.94 365.479 357.18C365.579 356.08 365.899 352.76 366.339 348.68V348.66ZM366.539 346.9C364.359 346.98 362.234 347.605 360.359 348.72C358.579 349.86 357.379 351.62 358.359 353.52C359.041 351.945 360.154 350.593 361.569 349.62C362.985 348.646 364.645 348.093 366.359 348.02L366.539 346.9ZM368.959 347.1C368.959 347.44 368.859 347.78 368.799 348.12C372.099 348.42 375.559 350.12 376.099 353.32C376.819 351.5 375.619 349.86 373.939 348.8C372.421 347.881 370.723 347.301 368.959 347.1ZM388.119 355.22C387.179 350.56 379.579 315.84 382.119 313.82C383.021 313.323 384.003 312.985 385.019 312.82C387.819 312.22 405.679 309.82 406.499 312.24C407.319 314.66 402.499 351.52 402.139 353.5C402.139 354.84 401.639 358.58 401.639 358.58C401.121 359.665 400.351 360.61 399.396 361.34C398.439 362.07 397.325 362.561 396.141 362.777C394.959 362.992 393.741 362.921 392.591 362.575C391.439 362.228 390.386 361.613 389.519 360.78C388.851 358.983 388.383 357.118 388.119 355.22ZM405.479 316.68C397.821 316.781 390.179 317.45 382.619 318.68C383.239 327.08 386.879 346.68 388.459 355.04C390.541 356.178 392.914 356.673 395.278 356.463C397.643 356.253 399.891 355.348 401.739 353.86C401.959 352.16 405.319 318.92 405.479 316.68ZM403.679 328.28C403.679 328.28 403.799 326.92 402.119 327.26C400.439 327.6 397.379 330.48 393.619 330.16C389.859 329.84 386.279 327.74 385.159 329.14C384.039 330.54 388.779 334.96 394.919 333.92C401.959 332.74 403.819 329.84 403.679 328.28ZM383.879 314.08C383.579 314.08 382.759 314.4 382.679 314.66C382.509 315.928 382.509 317.212 382.679 318.48L384.679 318.1C384.228 316.803 383.958 315.45 383.879 314.08ZM387.339 313.34C386.319 313.52 385.119 313.74 384.139 314C384.436 315.32 384.658 316.655 384.799 318C385.559 317.86 387.679 317.5 388.299 317.44C388.239 317.3 387.759 315.64 387.339 313.34ZM391.159 312.84C389.899 312.98 388.699 313.14 387.599 313.3C388.089 314.638 388.386 316.038 388.479 317.46L391.839 317.04C391.719 316.38 391.299 314.3 391.159 312.84ZM394.899 312.48C394.219 312.48 392.779 312.64 391.419 312.8C391.841 314.166 392.049 315.59 392.039 317.02L395.639 316.68C395.579 316.34 395.159 314.54 394.959 312.48H394.899ZM398.899 312.22L395.159 312.46C395.591 313.818 395.819 315.233 395.839 316.66C396.999 316.66 398.279 316.5 399.419 316.46C399.419 316.42 398.959 312.48 398.959 312.22H398.899ZM403.739 312.22C403.668 313.621 403.514 315.017 403.279 316.4H405.499C405.499 315.9 405.839 312.54 405.499 312.4C404.919 312.285 404.331 312.232 403.739 312.24V312.22ZM403.479 312.22H399.179C399.566 313.598 399.714 315.032 399.619 316.46H403.099C403.039 315.037 403.168 313.61 403.479 312.22ZM252.959 339.76C255.579 339.76 257.719 340.72 257.719 341.94C257.719 343.16 255.579 344.12 252.959 344.12C250.339 344.12 248.219 343.14 248.219 341.94C248.219 340.74 250.259 339.76 252.959 339.76ZM202.399 328.24C202.399 328.68 201.579 329.08 200.539 329.12C199.499 329.16 198.539 328.82 198.539 328.36C198.579 327.3 202.359 327.1 202.399 328.24Z" fill="white"/>
<path d="M221.34 378.72C222.621 378.72 223.66 378.102 223.66 377.34C223.66 376.579 222.621 375.96 221.34 375.96C220.058 375.96 219.02 376.579 219.02 377.34C219.02 378.102 220.058 378.72 221.34 378.72Z" fill="white"/>
<path fill-rule="evenodd" clip-rule="evenodd" d="M321.22 311.1C323.22 311.1 324.94 311.68 324.94 312.38C324.94 313.08 323.28 313.68 321.22 313.68C319.16 313.68 317.52 313.1 317.52 312.38C317.52 311.66 319.18 311.1 321.22 311.1ZM193.88 260.04C193.88 260.54 193.58 264.32 193.74 269.84C193.74 270.58 193.88 273.1 193.88 273.1C193.88 273.1 194.12 273.24 194.12 273.1C194.12 272.96 194.24 270.58 194.26 269.84C194.38 265.24 194.12 259.84 194.12 260.04C194.12 260.008 194.108 259.978 194.085 259.955C194.062 259.933 194.032 259.92 194 259.92C193.968 259.92 193.938 259.933 193.915 259.955C193.893 259.978 193.88 260.008 193.88 260.04ZM277.18 41.5C279.68 42.18 284.1 43.6 285.7 45.66C285.758 45.7355 285.79 45.8276 285.79 45.9226C285.79 46.0176 285.762 46.1103 285.705 46.1868C285.648 46.2633 285.568 46.3196 285.478 46.3471C285.386 46.3748 285.29 46.3723 285.2 46.34C277.2 43.08 264.46 47.24 256.38 50.6C253.18 51.94 272.38 30.2799 286.18 33.6799C286.275 33.7087 286.357 33.767 286.417 33.8461C286.475 33.9255 286.506 34.0213 286.506 34.12C286.506 34.2185 286.475 34.3145 286.417 34.3936C286.357 34.473 286.275 34.5311 286.18 34.56C283.043 35.2956 279.963 36.2513 276.96 37.42C279.26 37.52 284.56 37.86 286.34 39.42C286.411 39.481 286.462 39.5611 286.488 39.651C286.513 39.7406 286.513 39.8358 286.485 39.925C286.457 40.014 286.405 40.0931 286.333 40.1526C286.26 40.2121 286.173 40.2495 286.08 40.26C283.095 40.5195 280.123 40.9333 277.18 41.5ZM283.82 34.24C279.891 34.2256 276.028 35.2465 272.62 37.2C266.522 40.4356 261.092 44.7995 256.62 50.06C264.28 46.74 275.18 42.98 283.36 44.86C280.78 43.542 278.037 42.5735 275.2 41.98C275.097 41.9581 275.005 41.9015 274.938 41.8195C274.871 41.7376 274.835 41.6353 274.835 41.53C274.835 41.4245 274.871 41.3223 274.938 41.2403C275.005 41.1585 275.097 41.1018 275.2 41.08C278.248 40.2588 281.358 39.6968 284.5 39.4C281.433 38.6766 278.291 38.3141 275.14 38.32C275.038 38.3228 274.937 38.2913 274.855 38.2305C274.771 38.1695 274.711 38.0826 274.683 37.9838C274.657 37.8848 274.663 37.7795 274.702 37.6846C274.742 37.5896 274.811 37.5106 274.9 37.46C277.743 36.056 280.737 34.9758 283.82 34.24ZM148.76 201.54C146.771 201.8 144.766 201.922 142.76 201.9C142.658 201.903 142.558 201.873 142.477 201.812C142.396 201.75 142.338 201.662 142.315 201.562C142.291 201.463 142.303 201.358 142.347 201.267C142.392 201.175 142.467 201.102 142.56 201.06C145.04 199.72 150.88 198.4 153.88 196.32L161.3 191.36C161.315 191.343 161.334 191.33 161.354 191.32C161.375 191.31 161.398 191.305 161.42 191.305C161.443 191.305 161.465 191.31 161.486 191.32C161.507 191.33 161.525 191.343 161.54 191.36C161.76 191.62 161.3 191.64 158.8 194.94C157.141 196.983 155.793 199.262 154.8 201.7C153.728 204.25 152.786 206.853 151.98 209.5C151.98 210.1 150.54 210.54 150.94 207.26C151.106 206.037 151.333 204.822 151.62 203.62C149.545 205.118 147.359 206.455 145.08 207.62C144.998 207.667 144.903 207.688 144.809 207.68C144.715 207.67 144.626 207.633 144.554 207.572C144.481 207.51 144.43 207.428 144.406 207.337C144.382 207.245 144.387 207.148 144.42 207.06C145.443 204.923 146.925 203.038 148.76 201.54ZM160.08 192.68C150.28 199.58 154.66 197.08 144.88 200.98C146.752 200.975 148.612 200.693 150.4 200.14L150.62 199.96C151.06 199.62 151.84 200.3 150.98 200.86C149.058 202.372 147.361 204.15 145.94 206.14C148.155 205.007 150.229 203.617 152.12 202C152.191 201.918 152.287 201.863 152.394 201.847C152.501 201.828 152.61 201.848 152.703 201.903C152.795 201.958 152.866 202.045 152.902 202.147C152.938 202.248 152.938 202.358 152.9 202.46C152.486 203.968 152.153 205.497 151.9 207.04C153.481 201.685 156.281 196.77 160.08 192.68ZM161.44 183.34C164.832 177.845 169.677 173.394 175.44 170.48C183.2 166.82 186.04 170.72 182.52 177.72C179.523 183.312 175.238 188.11 170.02 191.72C170.608 193.772 170.844 195.908 170.72 198.04C170.2 200.04 160.42 203.4 159.08 203.24C158.979 203.235 158.88 203.203 158.796 203.147C158.711 203.09 158.644 203.012 158.6 202.92C158.4 202.46 158.86 202.04 159.3 201.7C161.742 199.917 164.301 198.3 166.96 196.86L166.82 193.54L165.68 194.1C165.606 194.12 165.527 194.12 165.453 194.098C165.379 194.078 165.313 194.037 165.26 193.98L158.96 187.84C158.931 187.807 158.914 187.765 158.914 187.72C158.914 187.675 158.931 187.633 158.96 187.6C158.96 187.6 159.16 187.18 159.58 186.44H156.08C155.56 187.52 152.08 194.56 150.96 195.04C150.88 195.078 150.791 195.098 150.702 195.095C150.613 195.093 150.525 195.07 150.447 195.027C150.368 194.983 150.302 194.922 150.252 194.848C150.202 194.773 150.17 194.688 150.16 194.6C149.92 193.1 152.88 183.32 154.84 182.74C157.017 182.54 159.211 182.689 161.34 183.18C161.372 183.193 161.398 183.215 161.416 183.244C161.434 183.272 161.443 183.306 161.44 183.34ZM169.58 191.86C168.786 192.39 167.965 192.877 167.12 193.32L167.54 197.1C167.54 197.4 167.54 197.22 163.54 199.86C162.32 200.64 161.08 201.46 160.24 202.08C163.275 201.243 166.202 200.055 168.96 198.54C169.18 198.4 169.76 198 169.84 197.74C170.051 195.778 169.964 193.795 169.58 191.86ZM160.76 185.32C159.98 186.48 159.5 187.32 159.32 187.66L165.52 193.4C166.24 193.04 167.02 192.6 167.84 192.1C165.257 190.085 162.885 187.813 160.76 185.32ZM161.26 183.62C159.197 183.327 157.103 183.327 155.04 183.62C154.34 183.86 153.14 187.04 152.92 187.62C152.214 189.503 151.646 191.435 151.22 193.4C152.42 191.62 155.7 185.8 155.56 186.08C155.587 186.023 155.63 185.977 155.683 185.945C155.737 185.913 155.798 185.898 155.86 185.9L159.76 186.1C160.16 185.34 160.64 184.56 161.26 183.62ZM172.28 173.24C167.747 176.317 163.894 180.293 160.96 184.92C163.616 186.958 166.043 189.278 168.2 191.84C172.764 188.832 176.681 184.943 179.72 180.4L172.28 173.24ZM168.7 178.26C168.315 178.663 168.014 179.138 167.813 179.658C167.611 180.177 167.515 180.732 167.528 181.289C167.541 181.846 167.663 182.395 167.889 182.905C168.114 183.415 168.437 183.875 168.84 184.26C169.243 184.645 169.718 184.947 170.238 185.148C170.758 185.348 171.312 185.445 171.869 185.433C172.426 185.42 172.975 185.297 173.485 185.072C173.995 184.847 174.455 184.523 174.84 184.12C175.617 183.306 176.039 182.216 176.013 181.091C175.987 179.966 175.514 178.897 174.7 178.12C173.886 177.343 172.797 176.921 171.671 176.947C170.546 176.973 169.477 177.446 168.7 178.26ZM174.28 178.58C174.924 179.241 175.284 180.127 175.284 181.05C175.284 181.973 174.924 182.859 174.28 183.52C173.649 184.105 172.818 184.428 171.957 184.422C171.096 184.415 170.27 184.082 169.647 183.486C169.025 182.892 168.652 182.082 168.606 181.222C168.561 180.362 168.844 179.517 169.4 178.86C170.019 178.19 170.874 177.787 171.784 177.735C172.694 177.682 173.589 177.985 174.28 178.58ZM173.18 179.72C173.453 180.002 173.636 180.359 173.707 180.745C173.778 181.131 173.734 181.529 173.581 181.89C173.427 182.251 173.171 182.56 172.844 182.776C172.516 182.993 172.133 183.108 171.74 183.108C171.348 183.108 170.964 182.993 170.637 182.776C170.31 182.56 170.053 182.251 169.9 181.89C169.746 181.529 169.702 181.131 169.774 180.745C169.845 180.359 170.028 180.002 170.3 179.72C170.487 179.526 170.71 179.373 170.958 179.267C171.205 179.162 171.471 179.108 171.74 179.108C172.009 179.108 172.275 179.162 172.522 179.267C172.77 179.373 172.994 179.526 173.18 179.72Z" fill="white"/>
<path fill-rule="evenodd" clip-rule="evenodd" d="M236.499 43.8799C236.316 43.7248 236.173 43.5284 236.08 43.3073C235.988 43.0859 235.949 42.8459 235.967 42.607C235.985 42.3678 236.06 42.1363 236.184 41.9315C236.309 41.7265 236.48 41.5539 236.684 41.4279C236.888 41.3018 237.119 41.2258 237.358 41.2061C237.597 41.1865 237.837 41.2235 238.059 41.3145C238.281 41.4053 238.478 41.5473 238.634 41.7291C238.791 41.9108 238.902 42.127 238.96 42.3599C238.974 42.6116 238.928 42.8631 238.827 43.0941C238.726 43.325 238.572 43.5288 238.376 43.6886C238.181 43.8485 237.952 43.9599 237.705 44.0141C237.459 44.0683 237.204 44.0633 236.96 43.9999C236.96 44.1999 236.66 46.4199 236.06 49.0199C238.838 49.0304 241.521 50.0383 243.62 51.8599C243.65 51.8041 243.7 51.7615 243.76 51.7399C259.36 49.5399 260.979 54.6999 255.959 58.8399C250.319 63.4999 232.999 68.8399 223.439 67.5799C220.939 67.2799 217.059 66.1199 217.019 63.7599C217.019 60.7199 225.16 57.3399 225.48 57.1799C226.783 53.8781 229.302 51.2011 232.519 49.6999C231.099 48.1599 229.62 45.9199 229.28 45.5399C227.58 46.4599 225.98 44.2799 227.28 43.1599C227.566 42.9088 227.939 42.7796 228.32 42.7999C228.637 42.7356 228.966 42.7801 229.255 42.9261C229.544 43.0721 229.774 43.3111 229.911 43.6046C230.047 43.8979 230.081 44.2288 230.006 44.5436C229.932 44.8585 229.753 45.139 229.499 45.3399C230.172 45.8246 230.772 46.4039 231.28 47.0599C234.16 50.5399 231.72 49.3399 235.28 49.0599C235.385 47.2759 235.798 45.5236 236.499 43.8799ZM225.139 57.7399C223.339 58.6199 217.539 61.7399 217.619 63.7399C217.619 64.3999 218.199 65.0599 219.259 65.6399C226.699 69.6399 248.84 63.3599 255.26 58.1399C258.92 55.1999 258.539 52.3799 251.579 51.8799C248.91 51.759 246.236 51.8391 243.579 52.1199C243.079 53.2799 238.259 62.3999 225.139 57.7399ZM223.139 62.4999C223.052 62.685 223.005 62.8864 223.001 63.0908C222.996 63.2951 223.035 63.4984 223.114 63.6868C223.194 63.8751 223.312 64.045 223.46 64.1853C223.609 64.3253 223.786 64.4326 223.98 64.4999C224.171 64.5475 224.37 64.557 224.566 64.5275C224.761 64.498 224.949 64.4304 225.118 64.3282C225.287 64.226 225.434 64.0911 225.551 63.9319C225.668 63.7726 225.752 63.5919 225.799 63.3999C225.919 63.0471 225.893 62.6613 225.728 62.3275C225.563 61.9937 225.272 61.7391 224.92 61.6199C224.566 61.5006 224.181 61.526 223.847 61.6911C223.513 61.8562 223.259 62.1471 223.139 62.4999ZM224.78 61.9399C225.66 62.3399 225.059 63.9399 224.219 63.6999C223.379 63.4599 223.82 61.7599 224.78 61.9399ZM238.579 60.7999C238.438 60.6944 238.274 60.6224 238.102 60.5882C237.928 60.5544 237.75 60.5595 237.58 60.6039C237.409 60.6479 237.25 60.7297 237.115 60.8431C236.98 60.957 236.872 61.0991 236.799 61.2599C236.646 61.6184 236.63 62.021 236.756 62.3904C236.881 62.7595 237.139 63.0693 237.48 63.2599C237.642 63.3606 237.825 63.4235 238.015 63.4442C238.205 63.465 238.397 63.4428 238.577 63.3791C238.757 63.3159 238.921 63.213 239.057 63.0784C239.192 62.9435 239.296 62.7799 239.359 62.5999C239.472 62.2562 239.454 61.8835 239.31 61.5522C239.167 61.2206 238.907 60.953 238.579 60.7999ZM238.42 61.0799C239.22 61.6799 238.7 63.0799 237.86 62.5999C237.02 62.1199 237.46 60.6799 238.42 61.0999V61.0799ZM249.12 55.3599C249.003 55.2511 248.864 55.1697 248.712 55.1224C248.56 55.0748 248.399 55.062 248.242 55.085C248.084 55.1082 247.934 55.1664 247.802 55.2555C247.67 55.3446 247.56 55.4624 247.48 55.5999C247.325 55.9202 247.292 56.2857 247.388 56.6282C247.484 56.9708 247.701 57.2664 247.999 57.4599C248.133 57.5686 248.288 57.646 248.455 57.6871C248.622 57.7282 248.796 57.7315 248.965 57.6973C249.133 57.6628 249.292 57.5911 249.429 57.4879C249.567 57.3846 249.68 57.2522 249.76 57.0999C249.833 56.9439 249.875 56.7748 249.882 56.6024C249.89 56.4301 249.864 56.2577 249.804 56.0959C249.745 55.9337 249.653 55.7853 249.536 55.6588C249.418 55.5326 249.277 55.4308 249.12 55.3599ZM248.959 55.6199C249.559 56.1799 249.14 57.2999 248.44 56.8199C247.74 56.3399 248.139 55.2199 248.959 55.6199ZM228.32 43.0999C228.578 43.1095 228.824 43.2151 229.009 43.3965C229.194 43.5776 229.305 43.8213 229.319 44.0799C229.309 44.3116 229.21 44.5303 229.042 44.6906C228.874 44.8508 228.652 44.9401 228.42 44.9399C228.299 44.9465 228.178 44.9291 228.064 44.889C227.949 44.8488 227.844 44.7866 227.754 44.7058C227.572 44.5426 227.462 44.3139 227.449 44.0699C227.436 43.8259 227.52 43.5866 227.684 43.4046C227.846 43.2228 228.076 43.1131 228.32 43.0999ZM237.18 41.3999C237.438 41.4095 237.684 41.5151 237.869 41.6965C238.054 41.8776 238.165 42.1213 238.179 42.3799C238.169 42.6116 238.07 42.8303 237.902 42.9906C237.734 43.1508 237.512 43.2401 237.28 43.2399C237.15 43.265 237.018 43.2621 236.89 43.2315C236.762 43.201 236.642 43.1433 236.538 43.0625C236.435 42.9816 236.349 42.8796 236.289 42.7631C236.228 42.6466 236.193 42.5185 236.185 42.3873C236.178 42.2559 236.199 42.1248 236.247 42.0023C236.294 41.8799 236.368 41.7691 236.462 41.6775C236.556 41.5858 236.669 41.5153 236.793 41.471C236.917 41.4265 237.049 41.4091 237.18 41.4199V41.3999ZM335.88 140.7C336.818 138.961 338.356 137.623 340.21 136.935C342.061 136.247 344.101 136.257 345.948 136.961C347.793 137.667 349.32 139.019 350.241 140.767C351.165 142.515 351.42 144.538 350.96 146.46C353.901 147.891 356.711 149.578 359.36 151.5C360.52 152.54 360.36 153.5 358.3 153.36C354.723 153.041 351.185 152.371 347.74 151.36C346.636 152.165 345.35 152.68 343.996 152.858C342.643 153.035 341.266 152.869 339.993 152.375C338.72 151.881 337.591 151.075 336.713 150.031C335.833 148.987 335.23 147.738 334.96 146.4C332.96 145.44 326.02 141.86 325.6 139.84C325.46 139.1 326.18 138.76 326.94 138.68C330.013 138.841 333.034 139.525 335.88 140.7ZM350.8 146.88C350.41 148.239 349.671 149.473 348.66 150.46C352.058 151.44 355.54 152.109 359.06 152.46C357.92 150.98 352.44 147.82 350.8 146.88ZM335.68 146.7C336.005 147.825 336.583 148.861 337.373 149.726C338.163 150.591 339.141 151.262 340.231 151.688C341.323 152.113 342.498 152.282 343.665 152.18C344.831 152.078 345.958 151.708 346.96 151.1C343.096 149.915 339.325 148.444 335.68 146.7ZM348.04 150.28C349.445 149.028 350.34 147.301 350.554 145.431C350.768 143.561 350.286 141.677 349.2 140.14C348.63 139.3 347.894 138.586 347.04 138.04C346.183 137.494 345.226 137.129 344.225 136.966C343.223 136.803 342.198 136.846 341.214 137.093C340.23 137.339 339.306 137.784 338.5 138.4C337.413 139.199 336.556 140.271 336.016 141.507C335.474 142.743 335.27 144.099 335.42 145.44C339.49 147.39 343.71 149.009 348.04 150.28ZM335.68 141.1C334.2 140.62 327.68 138.74 326.5 139.66C326.96 141.1 333.46 144.48 334.96 145.1C334.846 143.726 335.093 142.347 335.68 141.1ZM190.679 264.36C193.094 265.947 195.636 267.332 198.279 268.5C198.305 268.508 198.333 268.507 198.358 268.498C198.383 268.488 198.404 268.47 198.418 268.447C198.432 268.423 198.437 268.397 198.434 268.37C198.431 268.343 198.418 268.318 198.399 268.3C195.982 266.717 193.44 265.333 190.799 264.16C190.774 264.151 190.746 264.153 190.721 264.162C190.696 264.172 190.674 264.19 190.661 264.213C190.647 264.235 190.641 264.263 190.645 264.29C190.648 264.317 190.66 264.342 190.679 264.36ZM147.319 88.7599C147.319 83.9199 147.599 79.3599 147.599 79.5599C147.612 79.5199 147.638 79.485 147.672 79.4602C147.706 79.4355 147.747 79.4224 147.789 79.4224C147.832 79.4224 147.872 79.4355 147.906 79.4602C147.941 79.485 147.966 79.5199 147.979 79.5599C147.979 81.0199 148.239 82.3199 148.259 89.0799C149.737 88.1181 151.266 87.2366 152.839 86.4399C152.86 86.4268 152.884 86.4181 152.908 86.4137C152.933 86.4097 152.958 86.4104 152.982 86.4159C153.006 86.4217 153.029 86.4319 153.049 86.4464C153.069 86.4606 153.086 86.4788 153.099 86.4999C153.112 86.521 153.121 86.5442 153.125 86.569C153.13 86.593 153.129 86.6181 153.123 86.6424C153.118 86.6664 153.107 86.6893 153.093 86.7093C153.078 86.7297 153.06 86.7468 153.039 86.7599C151.759 87.81 150.424 88.7915 149.039 89.6999C151.919 91.2799 152.499 91.6999 153.879 92.5399C155.259 93.3799 155.279 93.3799 155.179 93.5799C155.079 93.7799 154.979 93.6999 153.599 93.0599C152.219 92.4199 151.279 92.0199 148.259 90.3599C148.259 98.0199 147.959 101.52 147.959 101.32C147.946 101.36 147.921 101.395 147.886 101.42C147.852 101.444 147.812 101.457 147.769 101.457C147.727 101.457 147.686 101.444 147.652 101.42C147.618 101.395 147.592 101.36 147.579 101.32C147.579 99.8799 147.299 98.6199 147.299 90.8199C145.739 91.8537 144.123 92.8017 142.459 93.6599C142.438 93.673 142.415 93.682 142.39 93.686C142.366 93.69 142.341 93.6893 142.317 93.6839C142.293 93.6781 142.27 93.6679 142.25 93.6533C142.23 93.6391 142.212 93.621 142.199 93.5999C142.186 93.5788 142.177 93.5555 142.173 93.5311C142.169 93.5068 142.17 93.4817 142.176 93.4573C142.181 93.4333 142.191 93.4104 142.206 93.3904C142.22 93.3701 142.238 93.353 142.259 93.3399C143.834 92.0504 145.484 90.8548 147.199 89.7599C145.579 88.8599 145.059 88.5399 143.779 87.7599C142.499 86.9799 142.079 86.7399 142.179 86.5199C142.217 86.4922 142.262 86.4773 142.309 86.4773C142.356 86.4773 142.402 86.4922 142.439 86.5199C144.959 87.4599 146.459 88.3199 147.319 88.7599Z" fill="white"/>
<path fill-rule="evenodd" clip-rule="evenodd" d="M190.801 268.5C193.041 267.325 195.164 265.938 197.141 264.36C197.281 264.36 197.141 264.08 197.021 264.16C194.782 265.337 192.659 266.723 190.681 268.3C190.561 268.38 190.681 268.58 190.801 268.5ZM252.801 147.9C252.801 153.52 253.001 154.42 253.001 155.44C252.992 155.461 252.989 155.484 252.991 155.507C252.994 155.529 253.002 155.551 253.014 155.57C253.027 155.589 253.045 155.605 253.065 155.615C253.085 155.626 253.107 155.632 253.13 155.632C253.153 155.632 253.176 155.626 253.196 155.615C253.216 155.605 253.234 155.589 253.246 155.57C253.259 155.551 253.267 155.529 253.27 155.507C253.272 155.484 253.269 155.461 253.261 155.44C253.261 155.64 253.481 152.4 253.481 147.56C255.031 148.437 256.626 149.231 258.261 149.94C258.421 149.94 258.561 149.78 258.401 149.7C256.993 148.759 255.537 147.891 254.041 147.1C255.031 146.488 255.986 145.82 256.901 145.1C256.927 145.079 256.946 145.049 256.953 145.016C256.959 144.982 256.954 144.947 256.936 144.918C256.919 144.889 256.892 144.866 256.859 144.856C256.827 144.845 256.792 144.846 256.761 144.86C256.761 144.86 255.121 145.7 253.481 146.76C253.481 141.78 253.281 140.76 253.281 139.92C253.281 139.883 253.266 139.847 253.239 139.821C253.213 139.794 253.178 139.78 253.141 139.78C253.103 139.78 253.068 139.794 253.042 139.821C253.015 139.847 253.001 139.883 253.001 139.92C253.001 139.72 252.821 143.14 252.801 146.54C252.221 146.24 251.061 145.62 249.301 144.86C249.141 144.86 249.001 145.02 249.161 145.1C249.321 145.18 250.641 146.12 252.721 147.26C251.489 148.005 250.3 148.82 249.161 149.7C249.001 149.7 249.161 150.04 249.301 149.94C249.101 150.04 250.601 149.3 252.801 147.9ZM303.08 289.22C300.9 288.32 277.9 286.9 277.7 286.88C277.08 286.88 272.6 287.78 272.3 287.86C272 287.94 272.3 287.86 272.3 287.96C274.049 288.758 275.854 289.426 277.7 289.96C279.7 290.38 283.7 290.42 302.66 292.46C303.02 292.46 303.78 291.22 303.34 289.42C303.32 289.36 303.18 289.28 303.08 289.22ZM277.6 289.76L274.58 288.7C274.697 288.54 274.774 288.355 274.8 288.16C274.829 287.965 274.809 287.765 274.74 287.58C275.718 287.383 276.707 287.241 277.7 287.16C278.18 287.64 276.9 287.82 277.86 288.44C277.98 288.44 278 288.44 277.86 288.58C277.81 288.605 277.765 288.64 277.729 288.683C277.69 288.726 277.663 288.777 277.647 288.832C277.63 288.885 277.623 288.943 277.63 288.998C277.635 289.055 277.654 289.11 277.68 289.16C277.84 289.44 278.02 289.56 277.6 289.76ZM277.84 289.76C278.4 289.46 277.64 289 278.02 288.76C278.86 288.18 274.86 288.34 301.28 290.76C301.225 291.172 301.317 291.59 301.54 291.94L277.84 289.76ZM301.3 290.6C300.4 290.5 278.26 288.4 278.12 288.28C277.98 288.16 277.62 288.06 277.8 287.82C277.98 287.58 278.08 287.36 277.8 287.12C278 287.12 297.62 288.68 301.8 289.38C301.509 289.738 301.334 290.178 301.3 290.64V290.6ZM302.58 291.98C302.44 291.84 302.42 291.88 302.28 291.48C302.14 291.08 302.28 289.72 302.92 289.72C303.018 290.106 303.038 290.508 302.98 290.903C302.922 291.298 302.787 291.678 302.58 292.02V291.98ZM316.48 232.96C316.458 232.886 316.42 232.818 316.369 232.761C316.317 232.705 316.254 232.66 316.182 232.63C316.112 232.6 316.035 232.586 315.957 232.592C315.88 232.595 315.805 232.615 315.738 232.652C315.67 232.688 315.612 232.738 315.565 232.8C315.52 232.861 315.489 232.933 315.474 233.008C315.458 233.083 315.46 233.161 315.478 233.237C315.497 233.312 315.532 233.38 315.58 233.44C315.78 233.76 315.98 234.08 316.2 234.4C316.23 234.468 316.275 234.53 316.332 234.58C316.389 234.63 316.455 234.666 316.529 234.688C316.6 234.71 316.677 234.717 316.75 234.705C316.825 234.695 316.897 234.666 316.96 234.626C317.023 234.585 317.077 234.53 317.117 234.466C317.157 234.403 317.183 234.332 317.192 234.257C317.202 234.181 317.195 234.105 317.172 234.033C317.15 233.961 317.112 233.895 317.06 233.84C316.96 233.56 316.66 233.26 316.48 232.96ZM291.56 190.48C291.68 189.54 292.78 184.76 292.36 184.66C292.337 184.65 292.312 184.646 292.287 184.646C292.262 184.648 292.237 184.655 292.214 184.666C292.19 184.678 292.17 184.693 292.155 184.713C292.138 184.733 292.127 184.755 292.12 184.78C291.554 186.177 291.118 187.621 290.82 189.1C290.707 189.62 290.634 190.148 290.6 190.68C290.603 190.761 290.627 190.841 290.669 190.912C290.71 190.981 290.77 191.038 290.84 191.08C291.342 191.335 291.883 191.505 292.44 191.58C292.88 191.58 294.44 191.7 294.26 191.28C294.08 190.86 293.84 191.62 291.56 190.48ZM300.54 187.58V186.54C300.54 185.82 299.54 185.72 299.52 186.54V187.68C299.515 187.755 299.525 187.832 299.554 187.901C299.58 187.973 299.622 188.037 299.675 188.09C299.73 188.143 299.795 188.183 299.867 188.208C299.938 188.233 300.015 188.243 300.09 188.235C300.165 188.228 300.238 188.203 300.303 188.165C300.369 188.126 300.425 188.075 300.467 188.012C300.51 187.95 300.538 187.878 300.552 187.805C300.565 187.73 300.56 187.653 300.54 187.58ZM301.86 193.1C301.22 195.5 300.36 195.86 299.32 195.98C299.107 195.997 298.894 195.997 298.68 195.98C298.634 195.963 298.58 195.968 298.535 195.99C298.49 196.013 298.457 196.052 298.44 196.1C298.425 196.148 298.429 196.2 298.45 196.245C298.474 196.29 298.514 196.323 298.56 196.34C300.3 197.34 302.68 196.12 302.24 193.1C302.227 193.06 302.202 193.025 302.169 193C302.134 192.975 302.092 192.961 302.05 192.961C302.009 192.961 301.967 192.975 301.934 193C301.898 193.025 301.874 193.06 301.86 193.1ZM309.38 218.1C309.369 218.035 309.343 217.972 309.309 217.915C309.272 217.86 309.225 217.81 309.17 217.773C309.115 217.735 309.054 217.708 308.989 217.693C308.923 217.68 308.857 217.678 308.79 217.69C308.725 217.701 308.662 217.726 308.605 217.761C308.55 217.798 308.502 217.845 308.463 217.9C308.425 217.955 308.398 218.017 308.383 218.081C308.37 218.146 308.369 218.215 308.38 218.28C308.465 218.652 308.574 219.02 308.7 219.38C308.707 219.457 308.73 219.532 308.769 219.598C308.807 219.665 308.858 219.721 308.922 219.766C308.985 219.81 309.058 219.84 309.134 219.852C309.21 219.865 309.287 219.86 309.362 219.84C309.435 219.818 309.503 219.78 309.562 219.73C309.62 219.678 309.665 219.617 309.697 219.545C309.727 219.475 309.742 219.398 309.738 219.32C309.735 219.243 309.715 219.168 309.68 219.1C309.56 218.76 309.46 218.42 309.38 218.1ZM289.7 184.6C289.715 184.525 289.714 184.446 289.695 184.372C289.677 184.297 289.642 184.228 289.592 184.168C289.543 184.108 289.482 184.061 289.414 184.028C289.343 183.995 289.267 183.978 289.19 183.978C289.114 183.978 289.037 183.995 288.969 184.028C288.898 184.061 288.837 184.108 288.789 184.168C288.74 184.228 288.705 184.297 288.687 184.372C288.667 184.446 288.665 184.525 288.68 184.6V185.74C288.665 185.815 288.667 185.893 288.687 185.968C288.705 186.041 288.74 186.112 288.789 186.172C288.837 186.23 288.898 186.278 288.969 186.312C289.037 186.345 289.114 186.361 289.19 186.361C289.267 186.361 289.343 186.345 289.414 186.312C289.482 186.278 289.543 186.23 289.592 186.172C289.642 186.112 289.677 186.041 289.695 185.968C289.714 185.893 289.715 185.815 289.7 185.74C289.677 185.36 289.677 184.98 289.7 184.6ZM447.8 268.38C447.8 268.38 447.68 268.4 447.8 268.38V268.38Z" fill="white"/>
<path fill-rule="evenodd" clip-rule="evenodd" d="M457.78 267.1C455.56 266.02 450.28 266.92 447.78 267.44C446.862 266.413 445.703 265.632 444.408 265.165C443.113 264.697 441.722 264.558 440.36 264.76C438.12 265.32 437.58 268.08 437.68 270.4C436.24 270.14 434.68 269.96 433.24 269.82C433.36 269.38 433.74 268.76 433.62 268.32C433.555 268.163 433.457 268.021 433.333 267.906C433.208 267.79 433.06 267.703 432.898 267.65C432.737 267.597 432.566 267.578 432.397 267.598C432.228 267.617 432.065 267.672 431.92 267.76C431.522 268.078 431.153 268.433 430.82 268.82C430.82 268.12 431.4 267 430.7 266.82C430 266.64 427.82 268.6 427.2 269.3C422.606 268.795 417.973 268.795 413.38 269.3C407.366 269.732 401.7 272.275 397.38 276.48C421.7 248.48 432.38 229.24 432.1 205.26C431.82 181.28 403.32 169.84 391.6 169.54C380.22 169.26 368.48 175.54 367.88 175.54C357.6 177.54 330.64 174.56 324.98 176.92C325.05 174.385 324.595 171.864 323.645 169.514C322.695 167.163 321.27 165.034 319.46 163.26C316.22 159.72 311.04 158.4 305.78 158.62C298.28 158.96 290.84 162.1 287.12 168.62C285.886 170.731 285.162 173.1 285 175.54C285 176.16 283.72 186.36 287 194.08C287.74 196.035 288.923 197.792 290.457 199.21C291.991 200.63 293.833 201.673 295.84 202.26C292.606 206.546 289.642 211.028 286.96 215.68C286.34 216.98 286.8 217.68 287.7 217.68C288.6 217.68 289.8 217.44 290.64 217.48C289.32 221.1 285.96 230.54 285.14 234.28C281.028 237.048 277.325 240.381 274.14 244.18C268.14 251.06 265.34 258.52 258.54 262.5L256.54 263.62C259.26 255.36 264.4 238.96 262.54 238.94C260.68 238.92 256.16 254.7 253.28 265.4C250.2 267.1 248.64 268.18 247.56 271.54C247.208 272.39 247.027 273.3 247.027 274.22C247.027 275.14 247.208 276.05 247.56 276.9C247.688 277.172 247.885 277.408 248.13 277.583C248.375 277.758 248.661 277.866 248.96 277.9C249.2 277.9 249.2 277.68 248.54 279.14C248.226 279.23 247.928 279.371 247.66 279.56L238.04 273.7C237.82 273.7 240.58 273.32 182.04 280.94C180.94 280.12 179.78 279.26 178.58 278.32C149.82 255.94 243.74 231.92 251.26 201.34C258 173.96 219.26 168.44 227.86 142.72C236.46 117 292.7 124.2 345.64 121.12C398.58 118.04 419.64 64.5999 381.1 36.7598C342.56 8.9197 302.96 48.4598 293.6 58.5599C284.24 68.6599 273.44 81.8799 243.12 80.5599C212.8 79.2399 173.12 84.3799 158.58 128.34C151.58 149.38 157.86 164.14 167.2 175.84C170.328 172.657 174.197 170.3 178.46 168.98C180.94 168.38 183.4 168.7 184.1 171.16C185.42 175.68 179.94 182.7 176.76 186.2C184.76 193.92 192.44 200.44 195.46 207.18C200.5 218.5 176.34 226.88 166.14 233.5C155.94 240.12 140.36 260.6 149.92 280.48C150.638 282.003 151.439 283.485 152.32 284.92C132.04 287.54 131.34 287.54 131.14 287.66C130.94 287.78 131 288.14 131.14 288.34H131C132.8 290.34 185.78 366.06 218.3 404.54L218.88 404.66C225.92 401.278 353.68 339.26 346.88 335.44C346.88 335.44 253.48 283.3 251.26 281.98C251.607 281.383 251.908 280.761 252.16 280.12C252.271 280.111 252.375 280.065 252.455 279.988C252.535 279.911 252.587 279.81 252.6 279.7V278.62C253.84 279.04 255.78 277.84 256.78 276.94C258.78 275.1 261.78 269.98 264 269.3C268.426 268.197 272.793 266.861 277.08 265.3C294.9 258.62 302.3 251.14 310.06 239.06C311.343 237.173 312.435 235.163 313.32 233.06C317.848 237.95 323.353 241.835 329.48 244.46C313.32 263.12 315.86 274.96 321.7 281.42C327.04 287.32 335.7 285.24 337.12 284.8C337.12 293.68 340.12 313.4 341.12 315.38C341.64 316.52 339.9 317.38 339.54 319.64C339.351 320.788 339.5 321.966 339.968 323.032C340.437 324.098 341.205 325.003 342.18 325.64C344.4 327.04 348.18 327.12 346.7 324.9C346.206 324.265 345.65 323.683 345.04 323.16C345.62 323.34 346.26 323.58 347.04 323.86C354.34 326.72 355.3 328.02 356.64 327.64C356.82 327.598 356.988 327.517 357.133 327.403C357.278 327.29 357.397 327.145 357.48 326.98C357.64 327.09 357.822 327.166 358.011 327.201C358.203 327.237 358.398 327.232 358.588 327.186C358.777 327.141 358.953 327.057 359.106 326.938C359.262 326.82 359.388 326.67 359.48 326.5C359.548 326.37 359.585 326.226 359.585 326.08C359.585 325.933 359.548 325.79 359.48 325.66C359.733 325.233 359.82 324.726 359.72 324.24C359.72 322.44 352.84 316.56 351.44 315.4C351.64 313.4 352.7 308.96 355.34 297.16C368.98 312.54 414.84 291.16 417.34 290.08C417.76 290.52 434.7 283.3 436.66 282.26C436.46 282.26 458.14 272.46 458.96 268.86C458.96 268.02 458.42 267.48 457.78 267.1ZM380.42 86.0199C380.751 86.0301 381.065 86.1704 381.291 86.4097C381.52 86.6493 381.645 86.969 381.64 87.2999C381.645 87.4642 381.618 87.6282 381.56 87.7821C381.5 87.9355 381.411 88.0762 381.298 88.1955C381.185 88.3144 381.048 88.4101 380.898 88.4759C380.746 88.5417 380.585 88.577 380.42 88.5799C380.255 88.577 380.091 88.5421 379.94 88.4762C379.788 88.4104 379.65 88.3155 379.535 88.1966C379.42 88.0777 379.33 87.9373 379.268 87.7835C379.208 87.6297 379.178 87.465 379.18 87.2999C379.178 87.1344 379.208 86.9697 379.268 86.8159C379.33 86.6621 379.42 86.5217 379.535 86.4028C379.65 86.2839 379.788 86.189 379.94 86.1232C380.091 86.0573 380.255 86.0224 380.42 86.0199ZM369.12 51.0998C369.282 51.0997 369.442 51.132 369.591 51.1945C369.742 51.257 369.877 51.3486 369.99 51.4641C370.103 51.5795 370.193 51.7163 370.253 51.8666C370.313 52.017 370.343 52.1778 370.34 52.3398C370.362 52.5117 370.348 52.6863 370.297 52.8521C370.246 53.018 370.162 53.1712 370.046 53.3013C369.931 53.4315 369.791 53.5359 369.633 53.6072C369.475 53.6788 369.303 53.7155 369.13 53.7155C368.957 53.7155 368.785 53.6788 368.626 53.6072C368.47 53.5359 368.328 53.4315 368.213 53.3013C368.1 53.1712 368.015 53.018 367.963 52.8521C367.913 52.6863 367.898 52.5117 367.92 52.3398C367.918 52.1795 367.946 52.0203 368.005 51.8713C368.065 51.7223 368.151 51.5863 368.263 51.4712C368.375 51.356 368.508 51.264 368.655 51.2001C368.802 51.1365 368.96 51.1023 369.12 51.0998ZM331.52 106.28C331.377 106.254 331.248 106.178 331.155 106.067C331.062 105.956 331.011 105.815 331.011 105.67C331.011 105.525 331.062 105.384 331.155 105.273C331.248 105.161 331.377 105.086 331.52 105.06C331.686 105.06 331.848 105.126 331.965 105.244C332.083 105.362 332.15 105.523 332.15 105.69C332.15 105.857 332.083 106.017 331.965 106.135C331.848 106.253 331.686 106.32 331.52 106.32V106.28ZM326.08 51.3398C326.08 50.5398 328.08 50.1398 328.96 50.0198C330.413 49.8277 331.886 49.8277 333.34 50.0198C334.242 48.3655 335.35 46.833 336.64 45.4598C337.06 45.1198 337.44 44.9998 337.82 45.4598C338.725 47.2863 339.306 49.2552 339.54 51.2798C342.64 52.0798 346.96 53.5599 344.36 55.4199C343.56 55.9999 342.14 56.5999 340.6 57.4199C340.773 59.0337 340.826 60.6581 340.76 62.2799C340.76 63.0199 340.56 64.1399 339.82 64.2799C338.32 64.5399 337.16 62.4599 334.8 60.4199C332.54 61.5399 328.02 64.0199 327.92 61.6399C328.165 59.6097 328.768 57.6392 329.7 55.8199C327.4 53.6399 325.94 52.5798 326.08 51.3798V51.3398ZM324.08 88.1199C324.075 89.5159 323.711 90.8872 323.022 92.101C322.333 93.3152 321.343 94.3312 320.146 95.0512C318.95 95.7708 317.588 96.1697 316.193 96.2101C314.798 96.2501 313.415 95.9297 312.18 95.2799L323.82 86.0399C323.998 86.7326 324.093 87.4442 324.1 88.1599L324.08 88.1199ZM323.58 85.2999C320.38 87.7599 316.08 91.2999 311.78 95.0399C311.457 94.8446 311.148 94.6239 310.86 94.3799C315.04 90.1599 319.14 85.3999 321.68 82.3799C322.517 83.2242 323.17 84.2319 323.6 85.3399L323.58 85.2999ZM321.24 81.9599C320.44 82.8199 313.48 90.6599 310.48 93.9599C309.626 93.1755 308.945 92.2221 308.48 91.1599C311.52 88.9599 315.66 85.8999 320.26 82.2799L320.98 81.6999L321.24 81.9599ZM315.98 79.9599C317.585 79.9581 319.153 80.4388 320.48 81.3399L317.66 83.3399C317.02 83.8199 312.16 87.6399 308.32 90.6399C307.913 89.421 307.8 88.1228 307.99 86.8515C308.182 85.5806 308.67 84.373 309.418 83.3272C310.165 82.2813 311.148 81.4275 312.29 80.8352C313.43 80.2432 314.695 79.9293 315.98 79.9199V79.9599ZM296.7 76.6799C296.943 76.6719 297.183 76.7366 297.388 76.8657C297.595 76.9948 297.757 77.1824 297.855 77.4046C297.953 77.6268 297.983 77.873 297.942 78.1122C297.898 78.3515 297.786 78.5726 297.617 78.7472C297.448 78.9221 297.231 79.0421 296.993 79.0926C296.755 79.1432 296.508 79.1213 296.283 79.0301C296.058 78.9392 295.865 78.7832 295.728 78.5813C295.593 78.3802 295.52 78.1428 295.52 77.8999C295.54 77.5955 295.677 77.3104 295.898 77.1024C296.122 76.8944 296.415 76.7792 296.72 76.7799L296.7 76.6799ZM285.68 106.96C286.146 106.976 286.6 107.128 286.98 107.399C287.36 107.67 287.653 108.047 287.822 108.483C287.988 108.919 288.025 109.395 287.925 109.851C287.823 110.308 287.591 110.724 287.255 111.049C286.92 111.374 286.495 111.593 286.037 111.678C285.577 111.764 285.102 111.712 284.671 111.53C284.242 111.348 283.875 111.043 283.617 110.653C283.358 110.264 283.22 109.807 283.22 109.34C283.237 108.7 283.503 108.091 283.963 107.646C284.423 107.201 285.04 106.954 285.68 106.96ZM254.56 101.32C255.42 101.32 255.42 102.86 254.56 102.86C253.7 102.86 253.68 101.32 254.56 101.32ZM173.22 145.54C173.125 145.557 173.028 145.552 172.935 145.527C172.842 145.502 172.755 145.457 172.681 145.395C172.607 145.333 172.548 145.256 172.507 145.169C172.467 145.081 172.446 144.986 172.446 144.89C172.446 144.793 172.467 144.698 172.507 144.611C172.548 144.524 172.607 144.446 172.681 144.384C172.755 144.322 172.842 144.277 172.935 144.252C173.028 144.227 173.125 144.223 173.22 144.24C173.315 144.223 173.412 144.227 173.506 144.252C173.598 144.277 173.685 144.322 173.759 144.384C173.833 144.446 173.892 144.524 173.933 144.611C173.974 144.698 173.994 144.793 173.994 144.89C173.994 144.986 173.974 145.081 173.933 145.169C173.892 145.256 173.833 145.333 173.759 145.395C173.685 145.457 173.598 145.502 173.506 145.527C173.412 145.552 173.315 145.557 173.22 145.54ZM216.22 224.06C215.951 224.028 215.697 223.921 215.489 223.748C215.28 223.577 215.126 223.346 215.045 223.09C214.963 222.832 214.959 222.555 215.031 222.295C215.103 222.033 215.25 221.8 215.453 221.62C215.655 221.441 215.905 221.325 216.173 221.285C216.441 221.245 216.714 221.283 216.96 221.395C217.206 221.506 217.415 221.688 217.56 221.917C217.706 222.143 217.782 222.41 217.78 222.68C217.754 223.068 217.576 223.432 217.284 223.69C216.992 223.95 216.61 224.081 216.22 224.06ZM220.96 90.2999C221.234 90.2959 221.502 90.3733 221.732 90.5224C221.962 90.6719 222.142 90.8857 222.249 91.1377C222.357 91.3893 222.387 91.6675 222.336 91.9366C222.285 92.2053 222.155 92.4533 221.963 92.6482C221.771 92.8432 221.525 92.9766 221.257 93.0315C220.989 93.0864 220.71 93.0602 220.457 92.9566C220.203 92.8526 219.987 92.6759 219.834 92.4486C219.682 92.221 219.6 91.9533 219.6 91.6799C219.6 91.317 219.743 90.969 219.997 90.7112C220.252 90.4526 220.598 90.305 220.96 90.2999ZM222.12 162.12C222.118 162.315 222.06 162.506 221.953 162.669C221.846 162.833 221.694 162.962 221.516 163.041C221.338 163.121 221.14 163.148 220.947 163.118C220.754 163.089 220.573 163.005 220.426 162.876C220.28 162.747 220.173 162.579 220.119 162.391C220.066 162.203 220.067 162.004 220.123 161.817C220.179 161.63 220.288 161.463 220.437 161.336C220.585 161.208 220.766 161.126 220.96 161.1C221.101 161.089 221.242 161.107 221.375 161.153C221.508 161.2 221.63 161.273 221.734 161.369C221.837 161.465 221.919 161.581 221.975 161.71C222.032 161.839 222.061 161.979 222.06 162.12H222.12ZM222.58 191.66C223.78 190.72 227.32 187.8 228.38 188.72C229.44 189.64 228.52 191.58 228.38 194.34C230.6 195.4 235.2 197.42 233.4 198.7C231.638 199.561 229.746 200.128 227.8 200.38C227.46 203.28 227.48 204.76 226.5 205.26C225.82 205.58 224.32 204.36 223.76 203.84C222.684 202.921 221.742 201.858 220.96 200.68C219.133 200.9 217.287 200.9 215.46 200.68C214.98 200.56 214.62 200.34 214.72 199.86C214.94 198.76 217.42 196.42 218.24 195.64C217.72 194.5 216.5 191.64 216.92 190.5C217.52 188.92 220.1 190.66 222.52 191.66H222.58ZM216.08 127.22C216.5 127.22 216.72 127.52 216.66 128.04C216.242 129.524 215.608 130.939 214.78 132.24C215.638 133.138 216.371 134.147 216.96 135.24C218.96 139.1 216.18 138.12 212.06 137.24C211.089 138.684 209.854 139.933 208.42 140.92C206.56 141.84 206.14 137.92 205.82 135.7C203 134.96 200.76 135.06 200.18 133.92C199.6 132.78 203.92 131.04 205.16 130.48C205.02 128.48 204.16 125.8 205.88 125.88C207.623 126.406 209.224 127.323 210.56 128.56C212.318 127.824 214.181 127.372 216.08 127.22ZM190.6 183.1C190.377 183.136 190.149 183.123 189.931 183.062C189.714 183.001 189.512 182.894 189.34 182.748C189.168 182.601 189.03 182.419 188.935 182.214C188.84 182.009 188.791 181.786 188.791 181.56C188.791 181.334 188.84 181.111 188.935 180.905C189.03 180.701 189.168 180.518 189.34 180.372C189.512 180.225 189.714 180.118 189.931 180.057C190.149 179.997 190.377 179.984 190.6 180.02C190.823 179.984 191.051 179.997 191.269 180.057C191.486 180.118 191.688 180.225 191.86 180.372C192.032 180.518 192.17 180.701 192.265 180.905C192.36 181.111 192.409 181.334 192.409 181.56C192.409 181.786 192.36 182.009 192.265 182.214C192.17 182.419 192.032 182.601 191.86 182.748C191.688 182.894 191.486 183.001 191.269 183.062C191.051 183.123 190.823 183.136 190.6 183.1ZM179.32 122.68C179.246 122.661 179.181 122.619 179.134 122.559C179.087 122.5 179.062 122.426 179.062 122.35C179.062 122.274 179.087 122.2 179.134 122.14C179.181 122.081 179.246 122.038 179.32 122.02C183.7 121.72 188.68 121.58 193.06 121.58C189.41 119.02 185.502 116.848 181.4 115.1C181.313 115.073 181.24 115.014 181.194 114.936C181.149 114.857 181.135 114.764 181.155 114.676C181.175 114.587 181.228 114.509 181.303 114.458C181.378 114.407 181.47 114.386 181.56 114.4C186.106 114.448 190.578 115.558 194.62 117.64C191.962 114.991 189.15 112.5 186.2 110.18C186.137 110.129 186.094 110.056 186.079 109.976C186.065 109.896 186.08 109.814 186.121 109.744C186.162 109.673 186.227 109.62 186.304 109.594C186.381 109.568 186.465 109.57 186.54 109.6C191.582 111.225 196.314 113.686 200.54 116.88C204.712 119.937 208.33 123.684 211.24 127.96C211.24 128.14 211.06 128.28 210.94 128.1C208.033 123.852 204.421 120.132 200.26 117.1C196.554 114.381 192.471 112.219 188.14 110.68C189.6 111.86 195.52 116.68 196.3 118.46C196.46 118.78 196.06 119.08 195.72 118.88C193.584 117.69 191.315 116.757 188.96 116.1C187.125 115.551 185.232 115.215 183.32 115.1C185.62 116.2 192.76 119.7 194.22 121.78C194.258 121.836 194.278 121.901 194.281 121.968C194.283 122.034 194.267 122.101 194.234 122.159C194.201 122.217 194.152 122.265 194.093 122.297C194.034 122.329 193.967 122.344 193.9 122.34C193.68 122.34 188.16 122.34 182.3 122.54C189.22 123.86 198.3 126.4 204.08 130.54C204.24 130.66 204.08 130.9 203.88 130.78C197.6 126.4 186.74 123.68 179.32 122.68ZM292.56 163.98C299.38 158.84 312.9 157.48 318.82 163.98C320.563 165.68 321.933 167.724 322.843 169.983C323.751 172.242 324.18 174.666 324.1 177.1C323.633 181.51 321.738 185.648 318.7 188.88C318.34 189.24 318.34 188.88 318.46 188.7C318.805 188.205 319.031 187.64 319.126 187.045C319.222 186.45 319.182 185.841 319.008 185.265C318.835 184.688 318.535 184.158 318.128 183.714C317.722 183.27 317.22 182.923 316.66 182.7C312.88 180.98 311.74 187.32 308.98 188.1C306.58 188.8 307.48 183.2 307.66 179.46C307.911 177.816 307.533 176.137 306.6 174.76C304.938 172.977 302.885 171.608 300.6 170.76C296.595 169.147 292.246 168.576 287.96 169.1C289.13 167.099 290.695 165.357 292.56 163.98ZM287.82 193.8C284.52 186 285.96 175.64 285.96 175.64C286.122 173.536 286.728 171.491 287.74 169.64C292.062 169.201 296.423 169.89 300.4 171.64C302.563 172.45 304.513 173.742 306.1 175.42C308.1 178.06 306.1 183.1 306.74 187.04C306.98 188.58 307.7 189.56 309.2 189.04C312.3 188.16 313.34 182.28 316.32 183.64C319.3 185 318.76 188.9 315.24 190.38C313.88 190.96 314 192.26 315.04 192.38C315.58 192.38 316.64 192.08 318.26 190.78C320.633 188.461 322.498 185.677 323.74 182.6C326.522 183.187 329.211 184.141 331.74 185.44C335.3 187.06 339.5 189.32 342.82 191.26C337.76 192.466 333.148 195.086 329.522 198.817C325.895 202.545 323.405 207.228 322.34 212.32C321.58 212.32 321.64 211.24 321.12 210.84C320.6 210.44 320.28 210.84 319.66 211.04C319.673 210.546 319.563 210.06 319.34 209.62C319.34 208.46 317.44 209.14 316.34 209.5C316.353 209.003 316.278 208.51 316.12 208.04C316.58 206.56 313.9 207.3 312.4 207.72C312.513 207.152 312.513 206.568 312.4 206C312.54 204.84 310 205.58 308.94 206C309.031 205.332 308.99 204.652 308.82 204C308.26 203.22 305.3 204.86 305.18 204.12C305.19 203.572 305.298 203.03 305.5 202.52C305.84 201.3 304.18 202.06 303.7 201.98C303.682 201.99 303.662 201.997 303.64 201.997C303.618 201.997 303.598 201.99 303.58 201.98V201.74C305.253 201.281 306.86 200.61 308.36 199.74C309.123 200.863 310.266 201.673 311.58 202.02C312.773 202.375 314.043 202.378 315.238 202.03C316.433 201.68 317.502 200.992 318.315 200.05C319.128 199.108 319.651 197.95 319.823 196.718C319.995 195.485 319.806 194.228 319.28 193.1C319.28 192.88 318.84 193.1 318.94 193.24C319.2 194.006 319.3 194.817 319.238 195.623C319.177 196.43 318.951 197.215 318.578 197.933C318.203 198.65 317.688 199.285 317.063 199.798C316.438 200.312 315.717 200.693 314.94 200.92L310.1 197.94C309.92 197.82 309.94 197.94 308.88 198.62C308.215 197.306 308.037 195.801 308.377 194.368C308.718 192.937 309.555 191.673 310.74 190.8C312.138 189.863 313.8 189.4 315.48 189.48C315.52 189.466 315.555 189.441 315.58 189.406C315.605 189.373 315.618 189.332 315.618 189.29C315.618 189.248 315.605 189.206 315.58 189.173C315.555 189.138 315.52 189.113 315.48 189.1C313.68 188.881 311.857 189.268 310.3 190.2C308.886 191.138 307.871 192.57 307.455 194.215C307.037 195.858 307.245 197.6 308.04 199.1C304.495 201.117 300.428 202.03 296.36 201.72C294.41 201.172 292.618 200.168 291.133 198.792C289.648 197.413 288.513 195.703 287.82 193.8ZM318.96 211.56C319.485 211.446 319.997 211.273 320.48 211.04C321.36 210.72 321.12 212.48 322.24 212.5C322.04 213.44 321.92 214.18 321.86 214.64C320.92 214.3 320.04 213.92 319.16 213.56C319.198 212.886 319.131 212.212 318.96 211.56ZM318.96 211.12C318.96 211.12 318.96 211.02 319.16 210.34C319.21 210.592 319.311 210.83 319.46 211.04L318.96 211.1V211.12ZM318.76 211.5C318.658 212.163 318.658 212.837 318.76 213.5C317.36 212.92 316.06 212.32 314.76 211.72C314.76 211.341 314.685 210.968 314.54 210.62C315.46 210.62 318.54 209.14 318.68 209.58C318.82 210.02 318.1 211.1 318.76 211.5ZM314.34 210.48C314.337 210.792 314.383 211.103 314.48 211.4C313.96 211.16 311.82 210.08 311.28 209.8C311.27 209.373 311.203 208.948 311.08 208.54C312.278 208.375 313.463 208.113 314.62 207.76C314.76 207.76 315.66 207.64 315.58 207.76C315.5 208.34 313.46 210.02 314.34 210.48ZM310.84 209.56C309.82 209.02 308.84 208.5 308.08 208.02C308.093 207.595 308.018 207.173 307.86 206.78C308.183 206.835 308.513 206.778 308.8 206.62C309.72 206.201 310.711 205.963 311.72 205.92C311.297 206.408 310.935 206.945 310.64 207.52C310.562 208.206 310.63 208.901 310.84 209.56ZM307.62 207.76L305.4 206.42C305.445 205.826 305.385 205.232 305.22 204.66C305.86 204.8 307.52 204.14 308.28 204.2C307.918 204.69 307.591 205.205 307.3 205.74C307.3 206.426 307.408 207.108 307.62 207.76ZM308.48 204.86C308.43 205.258 308.43 205.661 308.48 206.06C308.34 206.06 307.88 206.28 307.84 206.06C307.8 205.84 308.24 205.1 308.48 204.86ZM312 206.58C311.988 206.972 312.035 207.363 312.14 207.74C311.833 207.853 311.508 207.915 311.18 207.92C311.18 207.92 311.1 207.64 312 206.58ZM315.84 208.58C315.866 208.908 315.94 209.232 316.06 209.54C315.662 209.692 315.255 209.818 314.84 209.92C315.08 209.56 315.4 209.1 315.84 208.56V208.58ZM304.82 204.42C304.81 205.02 304.885 205.62 305.04 206.2C304.7 205.992 304.365 205.772 304.04 205.54L303.58 202.18C304.08 202.18 305.12 201.88 305.12 202.18C305.12 202.48 304.28 203.8 304.82 204.4V204.42ZM309.1 199.02C309.38 198.84 309.68 198.62 309.96 198.4L314.36 201.1C313.383 201.297 312.371 201.213 311.442 200.858C310.511 200.505 309.7 199.895 309.1 199.1V199.02ZM287.68 216.78C287.2 216.64 289.96 212.36 290.28 211.86C291.26 210.28 296 202.96 296.4 202.36C298.053 202.457 299.711 202.357 301.34 202.06C301.66 213.9 303.8 218.82 306.4 223.44C305.06 223.02 303.7 223.64 302.52 223.22C300.86 222.66 300.92 220.26 298.52 220.12C296.951 220.305 295.443 220.83 294.1 221.66C293.56 221.88 293.44 221.66 293.3 221.42C293.102 220.066 292.808 218.73 292.42 217.42C291.5 215.84 288.62 217.1 287.68 216.78ZM237.82 274.22L247.26 279.92C246.71 280.44 246.114 280.908 245.48 281.32C243.94 282.14 242.34 281.52 242.32 282.74C233.7 286.04 220.72 301.26 236.9 315.16C257.58 332.9 281.12 339.98 259.22 356.9C253.22 361.6 247.04 360.9 239.9 356.28C232.06 351.14 232.14 328.5 224.62 314.52C212.12 291.26 206.96 299.1 182.8 281.62L237.82 274.22ZM265.6 358.22C265.573 358.22 265.548 358.215 265.523 358.205C265.5 358.195 265.477 358.18 265.458 358.161C265.44 358.143 265.425 358.12 265.415 358.097C265.405 358.072 265.4 358.046 265.4 358.02C265.4 357.993 265.405 357.968 265.415 357.943C265.425 357.918 265.44 357.897 265.458 357.878C265.477 357.86 265.5 357.845 265.523 357.835C265.548 357.825 265.573 357.82 265.6 357.82C265.64 357.833 265.675 357.858 265.7 357.893C265.725 357.926 265.738 357.968 265.738 358.01C265.738 358.051 265.725 358.093 265.7 358.126C265.675 358.161 265.64 358.186 265.6 358.2V358.22ZM255.36 364.22C255.276 364.235 255.19 364.233 255.107 364.212C255.025 364.19 254.948 364.15 254.882 364.097C254.817 364.041 254.764 363.973 254.728 363.897C254.692 363.82 254.673 363.735 254.673 363.65C254.673 363.565 254.692 363.48 254.728 363.403C254.764 363.326 254.817 363.258 254.882 363.203C254.948 363.148 255.025 363.11 255.107 363.088C255.19 363.066 255.276 363.065 255.36 363.08C255.522 363.08 255.677 363.145 255.791 363.258C255.906 363.373 255.97 363.528 255.97 363.69C255.97 363.852 255.906 364.006 255.791 364.121C255.677 364.235 255.522 364.3 255.36 364.3V364.22ZM229.6 362.82C229.805 362.226 230.109 361.672 230.5 361.18C229.6 359.94 229.06 359.32 230.62 359.4C231.077 359.433 231.528 359.528 231.96 359.68C233.56 357.92 233.84 358.04 233.78 360.44C234.18 360.64 235.12 361.12 235.3 361.52C235.48 361.92 234.46 362.16 233.74 362.38C233.74 362.86 233.56 364.38 233.1 364.38C232.64 364.38 232.38 363.64 231.78 362.88C230.96 363.1 229.5 363.62 229.6 362.9V362.82ZM229.34 337.34C229.256 337.355 229.17 337.353 229.087 337.331C229.005 337.31 228.928 337.27 228.862 337.217C228.797 337.161 228.744 337.093 228.708 337.017C228.672 336.94 228.653 336.855 228.653 336.77C228.653 336.685 228.672 336.6 228.708 336.523C228.744 336.446 228.797 336.378 228.862 336.323C228.928 336.268 229.005 336.23 229.087 336.208C229.17 336.186 229.256 336.185 229.34 336.2C229.502 336.2 229.657 336.265 229.771 336.378C229.886 336.493 229.95 336.648 229.95 336.81C229.95 336.971 229.886 337.126 229.771 337.241C229.657 337.355 229.502 337.42 229.34 337.42V337.34ZM205.18 308.34C205.096 308.355 205.01 308.353 204.927 308.331C204.845 308.31 204.768 308.27 204.702 308.217C204.637 308.161 204.584 308.093 204.548 308.017C204.512 307.94 204.493 307.855 204.493 307.77C204.493 307.685 204.512 307.6 204.548 307.523C204.584 307.446 204.637 307.378 204.702 307.323C204.768 307.268 204.845 307.23 204.927 307.208C205.01 307.186 205.096 307.185 205.18 307.2C205.264 307.185 205.35 307.186 205.433 307.208C205.515 307.23 205.592 307.268 205.658 307.323C205.723 307.378 205.776 307.446 205.812 307.523C205.849 307.6 205.867 307.685 205.867 307.77C205.867 307.855 205.849 307.94 205.812 308.017C205.776 308.093 205.723 308.161 205.658 308.217C205.592 308.27 205.515 308.31 205.433 308.331C205.35 308.353 205.264 308.355 205.18 308.34ZM197.18 295.86C197.096 295.875 197.01 295.873 196.927 295.852C196.845 295.83 196.768 295.79 196.702 295.737C196.637 295.681 196.584 295.613 196.548 295.537C196.512 295.46 196.493 295.375 196.493 295.29C196.493 295.205 196.512 295.12 196.548 295.043C196.584 294.966 196.637 294.898 196.702 294.843C196.768 294.788 196.845 294.75 196.927 294.728C197.01 294.706 197.096 294.703 197.18 294.72C197.263 294.7 197.349 294.7 197.432 294.717C197.515 294.735 197.593 294.77 197.661 294.82C197.729 294.872 197.785 294.937 197.825 295.011C197.865 295.086 197.888 295.17 197.892 295.253C197.897 295.338 197.882 295.423 197.85 295.501C197.819 295.581 197.77 295.651 197.708 295.71C197.646 295.766 197.571 295.81 197.491 295.837C197.41 295.863 197.324 295.87 197.24 295.86H197.18ZM173.72 291.86C173.804 291.845 173.89 291.846 173.973 291.868C174.055 291.89 174.132 291.928 174.198 291.983C174.263 292.038 174.316 292.106 174.352 292.183C174.389 292.26 174.407 292.345 174.407 292.43C174.407 292.515 174.389 292.6 174.352 292.677C174.316 292.753 174.263 292.821 174.198 292.877C174.132 292.93 174.055 292.97 173.973 292.992C173.89 293.013 173.804 293.015 173.72 293C173.636 293.01 173.55 293.003 173.47 292.977C173.389 292.95 173.315 292.906 173.253 292.85C173.19 292.792 173.142 292.721 173.11 292.641C173.078 292.563 173.064 292.478 173.068 292.393C173.073 292.31 173.095 292.226 173.135 292.151C173.175 292.077 173.231 292.012 173.299 291.96C173.367 291.91 173.445 291.875 173.529 291.857C173.611 291.84 173.698 291.84 173.78 291.86H173.72ZM160.54 251.86C161.367 251.193 162.31 250.685 163.32 250.36C163.32 247.76 163.12 246.36 165.18 247.9C165.782 248.39 166.319 248.955 166.78 249.58C167.709 249.298 168.67 249.145 169.64 249.12C169.92 249.12 170.1 249.28 170.08 249.56C169.738 250.592 169.224 251.558 168.56 252.42C169.137 253.317 169.493 254.338 169.6 255.4C169.42 256.38 167.88 255.52 166.64 255.16C166.1 255.8 164.44 257.92 163.82 257.44C163.2 256.96 163.54 255.72 163.46 254.04C162.24 253.6 159.76 252.8 160.6 251.86H160.54ZM153.18 269.5C153.264 269.483 153.35 269.486 153.433 269.508C153.515 269.53 153.592 269.568 153.658 269.623C153.723 269.678 153.776 269.746 153.812 269.823C153.849 269.9 153.867 269.985 153.867 270.07C153.867 270.155 153.849 270.24 153.812 270.317C153.776 270.393 153.723 270.461 153.658 270.517C153.592 270.57 153.515 270.61 153.433 270.631C153.35 270.653 153.264 270.655 153.18 270.64C153.096 270.65 153.01 270.643 152.93 270.617C152.849 270.59 152.775 270.546 152.713 270.49C152.65 270.431 152.602 270.361 152.57 270.281C152.538 270.203 152.524 270.118 152.528 270.033C152.533 269.95 152.555 269.866 152.595 269.791C152.635 269.717 152.691 269.652 152.759 269.6C152.827 269.55 152.905 269.515 152.989 269.497C153.071 269.48 153.158 269.48 153.24 269.5H153.18ZM346.08 335.92C338.76 345.46 229.46 398.5 218.82 403.638C193.84 373.98 154.96 319.9 132.16 288.34L152.76 285.64C165.6 305.9 185.28 301.2 195.84 307.64C207.72 314.9 213.84 320.38 217.44 334.46C222.34 353.6 216.16 361.86 230.48 367.96C244.2 373.78 271.44 371.44 282.48 352.5C293.52 333.56 271.9 325.28 252.48 316.5C233.06 307.72 236.48 295.56 239.12 292.12C241.136 289.503 243.474 287.15 246.08 285.12C247.066 285.123 248.035 284.868 248.891 284.38C249.747 283.893 250.46 283.19 250.96 282.34C253.3 283.6 342.06 333.62 346.14 335.92H346.08ZM272.08 359.5C272.106 359.5 272.131 359.505 272.157 359.515C272.182 359.525 272.203 359.54 272.222 359.558C272.24 359.577 272.255 359.598 272.265 359.623C272.275 359.648 272.28 359.673 272.28 359.7C272.28 359.726 272.275 359.751 272.265 359.777C272.255 359.8 272.24 359.823 272.222 359.841C272.203 359.86 272.182 359.875 272.157 359.885C272.131 359.895 272.106 359.9 272.08 359.9C272.053 359.898 272.028 359.892 272.005 359.881C271.98 359.87 271.96 359.853 271.942 359.835C271.923 359.815 271.91 359.791 271.902 359.766C271.893 359.741 271.888 359.717 271.89 359.69C271.891 359.663 271.898 359.638 271.91 359.613C271.92 359.59 271.937 359.568 271.957 359.552C271.975 359.533 271.998 359.52 272.023 359.512C272.048 359.503 272.073 359.498 272.1 359.5H272.08ZM277.2 339.24C276.96 339.4 276.6 339.24 276.04 338.96C275.16 339.94 274.74 340.22 274.84 338.56C273.98 338.28 273.5 338.14 274.3 337.68C274.54 337.55 274.795 337.448 275.06 337.38C275.28 336 275.46 335.98 276.22 337.14C276.588 337.05 276.971 337.05 277.34 337.14C277.62 337.3 277.16 337.68 276.84 338.06C276.96 338.34 277.44 339.1 277.22 339.24H277.2ZM247.68 283.92C246.909 284.175 246.081 284.206 245.292 284.012C244.503 283.817 243.785 283.405 243.22 282.82H243.4C247.18 282.24 246.62 280.68 248.58 279.72C248.76 279.92 248.58 279.86 251.76 280.1C250.957 281.861 249.491 283.235 247.68 283.92ZM252.3 275.92C252.011 276.458 251.899 277.075 251.98 277.68C251.98 277.82 251.84 278.46 251.76 279.06L249.6 278.88C249.6 278.78 251.02 275.4 251.12 275.08H252.48L252.3 275.92ZM251.9 270.3C250.52 272.88 249.9 277.68 248.68 276.84C248.254 276.398 248.011 275.813 248 275.2C247.936 274.046 248.099 272.892 248.48 271.8C248.806 270.655 249.38 269.595 250.161 268.697C250.942 267.798 251.912 267.081 253 266.6C251.94 270.68 252.24 269.76 251.9 270.38V270.3ZM253.34 273.32C253.66 272.38 254.1 271 254.72 269.2C254.98 269.06 255.04 269.2 255.38 270.04C255.92 271.44 252.76 275 252.76 275C252.96 274.42 253.18 273.86 253.34 273.4V273.32ZM309.82 238.66C302.76 249.28 297.52 254.04 289.28 258.66C281.248 262.933 272.706 266.172 263.86 268.3C260.3 269.4 257.32 277.3 253.42 277.66C252.98 277.66 252.68 277.66 253.04 276.66C253.94 274.16 257.2 272.08 256.26 269.7C256.141 269.341 255.98 269 255.78 268.68C255.618 268.418 255.371 268.22 255.08 268.12C255.2 267.72 255.6 266.56 256.14 264.92C256.6 264.6 256.92 264.5 259.02 263.26C266.06 259.1 268.82 251.64 274.74 244.66C277.866 240.835 281.517 237.468 285.58 234.66C285.88 234.48 285.38 234.78 287.7 227.46C289.04 223.24 290.6 218.78 291.06 217.46C291.146 217.472 291.23 217.503 291.302 217.552C291.375 217.6 291.437 217.665 291.48 217.74C292 218.72 291.9 220.6 292.34 221.74C293.38 224.26 295.96 220.88 298.34 220.94C300.34 220.94 300.34 223.24 302.34 223.82C303.84 224.26 305.34 223.34 306.74 224C308.575 227.118 310.733 230.035 313.18 232.7C312.271 234.823 311.145 236.848 309.82 238.74V238.66ZM322.1 239.3C316.046 234.972 310.986 229.401 307.26 222.96C304.8 218.68 302.52 213.9 301.74 201.9C302.211 201.818 302.68 201.71 303.14 201.58L303.56 205.58C305.763 207.248 308.09 208.745 310.52 210.06C310.52 210.06 308.82 219.68 316.52 232.06C320.22 238.14 322.1 239.38 322.1 239.38V239.3ZM359.28 265.1C359.64 269.46 355.68 293.26 355.14 296.5C355.108 296.511 355.08 296.53 355.055 296.555C355.031 296.578 355.011 296.608 355 296.64C355.26 295.66 350.76 310.8 350.42 315.54C350.42 315.92 350.42 315.74 353.84 318.7C355 319.72 358.98 323.1 359.18 324.28C359.271 324.586 359.271 324.913 359.18 325.22C357.393 323.326 355.262 321.793 352.9 320.7C352.858 320.673 352.806 320.665 352.758 320.677C352.708 320.686 352.666 320.717 352.64 320.76C352.613 320.801 352.605 320.853 352.617 320.901C352.628 320.952 352.658 320.993 352.7 321.02L354.32 322.34C355.94 323.44 357.43 324.721 358.76 326.16C358.56 326.66 358.12 326.7 357.6 326.56C357.6 325.52 353.04 323 351.6 322.14C351.38 322.02 351.18 322.34 351.4 322.46C353.408 323.62 355.28 325.001 356.98 326.58C356.34 328.02 354.4 325.96 347.34 323.06C346.068 322.488 344.722 322.097 343.34 321.9C343.246 321.893 343.153 321.917 343.075 321.968C342.995 322.018 342.933 322.092 342.9 322.18C342.72 322.7 343.28 322.68 345.08 324.5C345.463 324.835 345.793 325.226 346.06 325.66C344.862 325.801 343.651 325.518 342.64 324.86C341.838 324.323 341.206 323.572 340.817 322.69C340.426 321.808 340.297 320.833 340.44 319.88C340.78 317.88 342.76 316.86 341.94 315.08C341.12 313.3 339.44 301.74 339.2 300.08C336.98 285.06 337.82 284.74 337.4 284.62C337.4 263.78 338.06 263.7 337.9 262.62C337.9 262.4 333.42 231.64 333.38 231.4C334.7 231.4 335.64 232.86 336.38 234.06C337.46 235.78 338.38 236.9 340.54 236.24C342.7 235.58 344.54 233.76 346.54 233.04C348.54 232.32 349.6 233.04 351.78 233.74C352.62 234.141 353.568 234.255 354.48 234.063C355.39 233.872 356.213 233.385 356.82 232.68C360.3 229.78 358.66 229.06 365.78 231.86C364.4 237.24 361.3 252.44 361.24 252.68C359.977 256.7 359.317 260.885 359.28 265.1ZM333.14 230.42C331.571 230.986 330.042 231.653 328.56 232.42C328.22 232.42 328.08 232.42 327.98 232.02C327.36 229.16 334.64 195.3 352.78 194.02C361.06 193.46 366.78 208.32 369.28 216.24C370.925 221.273 372.202 226.421 373.1 231.64C373.46 235.26 362.9 228.48 359.86 229.18C358.66 229.46 358.12 230.48 356.4 231.92C354.68 233.36 353.8 233.36 352.28 232.82C350.485 231.837 348.38 231.578 346.4 232.1C344.28 232.86 342.52 234.64 340.4 235.3C338.6 235.88 338.04 234.64 337.02 233.04C336 231.44 334.96 230.08 333.14 230.34V230.42ZM362.94 249.3C363.78 245.98 365.26 239.1 366.36 231.9C368.2 232.62 372.22 234.38 373.56 233.1C373.76 232.886 373.903 232.626 373.98 232.345C374.057 232.061 374.063 231.765 374 231.48C373.275 227.258 372.273 223.09 371 219C368.32 210.1 362.06 193 352.74 193.58C333.82 194.9 326.44 229.04 327.08 232.12C327.098 232.318 327.162 232.508 327.266 232.678C327.37 232.848 327.511 232.992 327.68 233.098C327.848 233.203 328.038 233.27 328.237 233.292C328.433 233.313 328.633 233.288 328.82 233.22C329.96 232.94 331.58 231.7 333.06 231.36C333.28 235 333.7 239.84 334.58 246.1C331.206 244.773 327.948 243.166 324.84 241.3C318.565 235.205 314.142 227.461 312.08 218.96C311.377 216.178 310.975 213.328 310.88 210.46C314.511 212.488 318.282 214.258 322.16 215.76C322.225 215.785 322.293 215.795 322.363 215.788C322.431 215.781 322.498 215.76 322.557 215.721C322.615 215.685 322.663 215.635 322.7 215.575C322.735 215.517 322.755 215.448 322.76 215.38C323.491 209.73 325.886 204.425 329.64 200.14C333.465 195.901 338.546 193 344.14 191.86C344.23 191.845 344.313 191.801 344.378 191.738C344.443 191.673 344.486 191.59 344.502 191.5C344.518 191.41 344.505 191.317 344.465 191.235C344.425 191.152 344.36 191.083 344.28 191.04C340.318 188.753 336.231 186.69 332.04 184.86C329.443 183.653 326.72 182.741 323.92 182.14C324.462 180.648 324.825 179.097 325 177.52C329 175.82 349.18 178.32 362.78 176.9C364.84 176.772 366.883 176.444 368.88 175.92C381.14 175.58 399.6 190.66 403 197.46C406.4 204.26 405.86 212.76 398.32 223.34C391.22 233.24 365.7 247.68 362.96 249.22L362.94 249.3ZM417.36 289.68C420.14 280.92 415.74 272.72 414.16 270.18L427.4 269.82C429.105 270.828 430.405 272.398 431.08 274.26C432.165 277.048 432.741 280.008 432.78 283C428.82 284.78 421.48 288.14 417.36 289.6V289.68ZM433.64 282.46C433.53 279.53 432.851 276.65 431.64 273.98C430.838 272.097 429.43 270.533 427.64 269.54C428.438 268.683 429.405 268.001 430.48 267.54C430.48 268.18 429.7 269.54 430.64 269.68C431.58 269.82 431.68 268.9 432.26 268.6C432.5 268.48 432.98 268.46 432.78 268.98C432.58 269.5 432.14 270.28 432.6 270.98C432.938 271.378 433.405 271.646 433.92 271.74C434.04 271.74 433.24 272.3 433.02 272.94C432.968 273.092 432.977 273.257 433.043 273.401C433.11 273.548 433.231 273.661 433.38 273.72C434.06 273.98 435.24 273.3 435.98 274.04C436.28 274.36 436.12 274.66 435.74 274.88C434.82 275.46 434.7 276.14 435.56 276.88C435.991 277.18 436.377 277.545 436.7 277.96C436.071 277.955 435.46 278.16 434.96 278.54C434.865 278.613 434.788 278.706 434.735 278.813C434.681 278.921 434.653 279.04 434.653 279.16C434.653 279.28 434.681 279.398 434.735 279.505C434.788 279.613 434.865 279.706 434.96 279.78C435.4 280.16 436.48 280.56 436.72 280.9C435.768 281.535 434.731 282.033 433.64 282.38V282.46ZM457.9 268.62C457.08 271.96 439.08 280.02 437.8 280.62C437.58 279.84 436.32 279.46 435.8 279.08C436.36 278.78 437.48 278.9 437.7 278.2C437.92 277.5 436.36 276.34 436 275.88C436.34 275.56 437.56 274.98 437.02 273.88C436.775 273.466 436.405 273.141 435.962 272.95C435.52 272.76 435.03 272.715 434.56 272.82H434.26C434.7 272.26 435.42 271.54 434.76 271.06C434.1 270.58 433.66 271.06 433.32 270.4C435.22 270.64 436.78 270.9 437.98 271.16C438.02 271.165 438.062 271.163 438.1 271.151C438.138 271.14 438.175 271.12 438.205 271.093C438.235 271.066 438.26 271.033 438.275 270.997C438.291 270.96 438.3 270.92 438.3 270.88C438.3 271.68 437.74 266.26 440.58 265.62C441.848 265.486 443.13 265.666 444.311 266.143C445.495 266.621 446.541 267.383 447.36 268.36C447.406 268.418 447.47 268.463 447.54 268.486C447.611 268.512 447.686 268.517 447.76 268.5C448.5 268.36 454.64 267.1 457.1 268C457.38 267.98 457.96 268.26 457.9 268.54V268.62Z" fill="white"/>
</g>
<defs>
<clipPath id="clip0_435_1185">
<rect width="590" height="552" fill="white"/>
</clipPath>
</defs>
</svg>
