<svg width="590" height="552" viewBox="0 0 590 552" fill="none" xmlns="http://www.w3.org/2000/svg">
<g clip-path="url(#clip0_435_687)">
<rect width="590" height="552" fill="#171B16"/>
<rect width="45.1425" height="45.1425" transform="matrix(4.37114e-08 -1 -1 -4.37114e-08 45.582 177.858)" fill="#730CF6"/>
<path d="M45.582 87.5727L45.582 102.62L30.5345 102.62L30.5345 117.668L15.487 117.668L15.487 132.715L0.439551 132.715L0.439552 87.5727L45.582 87.5727Z" fill="white"/>
<path d="M113.295 -2.71225L135.867 19.859L113.295 42.4302L90.7242 19.859L113.295 -2.71225Z" fill="#730CF6"/>
<path d="M45.5815 177.858C33.1158 177.858 23.0103 187.963 23.0103 200.429C23.0103 212.895 33.1158 223 45.5815 223L45.5815 209.31C40.6767 209.31 36.7005 205.334 36.7005 200.429C36.7005 195.524 40.6767 191.548 45.5815 191.548L45.5815 177.858Z" fill="#730CF6"/>
<path d="M0.439447 223C12.9052 223 23.0107 212.895 23.0107 200.429C23.0107 187.963 12.9052 177.858 0.439453 177.858L0.439451 191.548C5.34434 191.548 9.32053 195.524 9.32053 200.429C9.32053 205.334 5.34434 209.31 0.439449 209.31L0.439447 223Z" fill="#730CF6"/>
<path d="M135.867 -2.71216C135.867 9.75359 145.972 19.8591 158.438 19.8591C170.904 19.8591 181.009 9.75359 181.009 -2.71216L167.319 -2.71216C167.319 2.19273 163.343 6.16892 158.438 6.16892C153.533 6.16892 149.557 2.19273 149.557 -2.71216L135.867 -2.71216Z" fill="#730CF6"/>
<path d="M181.009 42.4302C181.009 29.9645 170.904 19.859 158.438 19.859C145.972 19.859 135.867 29.9645 135.867 42.4302L149.557 42.4302C149.557 37.5254 153.533 33.5492 158.438 33.5492C163.343 33.5492 167.319 37.5254 167.319 42.4302L181.009 42.4302Z" fill="#730CF6"/>
<path d="M76.2708 118.262L68.1529 132.715L60.035 118.262L45.5816 110.144L60.035 102.026L68.1529 87.5727L76.2708 102.026L90.7241 110.144L76.2708 118.262Z" fill="#730CF6"/>
<path fill-rule="evenodd" clip-rule="evenodd" d="M41.7429 61.1628C43.8629 61.1628 45.5815 62.8814 45.5815 65.0014C45.5815 67.1215 43.8629 68.8401 41.7429 68.8401L37.5349 68.8401L41.1934 70.9191C43.0366 71.9665 43.6817 74.3099 42.6343 76.1531C41.5869 77.9963 39.2435 78.6413 37.4003 77.5939L33.2368 75.2279L35.6029 79.3915C36.6503 81.2347 36.0052 83.5781 34.162 84.6255C32.3188 85.6729 29.9755 85.0278 28.928 83.1846L26.8489 79.526L26.8489 83.7339C26.8489 85.854 25.1303 87.5726 23.0103 87.5726C20.8903 87.5726 19.1717 85.854 19.1717 83.7339L19.1717 79.5257L17.0925 83.1844C16.0451 85.0276 13.7018 85.6727 11.8586 84.6253C10.0154 83.5778 9.37029 81.2345 10.4177 79.3913L12.7835 75.2282L8.62031 77.594C6.7771 78.6415 4.43378 77.9964 3.38635 76.1532C2.33891 74.31 2.98401 71.9667 4.82721 70.9192L8.48591 68.8401L4.27771 68.8401C2.15768 68.8401 0.439061 67.1215 0.439061 65.0014C0.439061 62.8814 2.15768 61.1628 4.27771 61.1628L8.48605 61.1628L4.82721 59.0836C2.98401 58.0362 2.33891 55.6928 3.38635 53.8496C4.43379 52.0064 6.77711 51.3613 8.62031 52.4088L12.7835 54.7746L10.4177 50.6115C9.37029 48.7683 10.0154 46.425 11.8586 45.3776C13.7018 44.3301 16.0451 44.9752 17.0925 46.8184L19.1717 50.4771L19.1717 46.2687C19.1717 44.1487 20.8903 42.4301 23.0103 42.4301C25.1303 42.4301 26.8489 44.1487 26.8489 46.2687L26.8489 50.4768L28.928 46.8182C29.9755 44.975 32.3188 44.3299 34.162 45.3773C36.0052 46.4247 36.6503 48.7681 35.6029 50.6113L33.2368 54.7749L37.4003 52.4089C39.2435 51.3615 41.5869 52.0066 42.6343 53.8498C43.6817 55.693 43.0366 58.0363 41.1934 59.0837L37.5348 61.1628L41.7429 61.1628Z" fill="#730CF6"/>
<path d="M68.1533 79.2626C65.8217 84.3343 62.2725 87.5727 58.2972 87.5727C51.2748 87.5727 45.582 77.4672 45.582 65.0015C45.582 52.5357 51.2748 42.4302 58.2972 42.4302C62.2724 42.4302 65.8217 45.6686 68.1533 50.7403C70.4849 45.6686 74.0341 42.4302 78.0094 42.4302C85.0317 42.4302 90.7245 52.5357 90.7245 65.0015C90.7245 77.4672 85.0318 87.5727 78.0094 87.5727C74.0341 87.5727 70.4849 84.3343 68.1533 79.2626Z" fill="white"/>
<path d="M70.6546 13.8193C70.3509 4.28619 69.3459 -2.71224 68.1529 -2.71224C66.9599 -2.71224 65.9549 4.28619 65.6512 13.8193C58.6955 7.29314 53.0362 3.05515 52.1926 3.89873C51.349 4.7423 55.587 10.4016 62.1132 17.3573C52.5801 17.661 45.5816 18.666 45.5816 19.859C45.5816 21.052 52.5801 22.057 62.1132 22.3607C55.587 29.3164 51.349 34.9757 52.1926 35.8193C53.0362 36.6628 58.6955 32.4249 65.6512 25.8987C65.9549 35.4318 66.9599 42.4302 68.1529 42.4302C69.3459 42.4302 70.3509 35.4318 70.6546 25.8987C77.6103 32.4249 83.2696 36.6629 84.1132 35.8193C84.9567 34.9757 80.7187 29.3164 74.1926 22.3607C83.7257 22.057 90.7241 21.052 90.7241 19.859C90.7241 18.666 83.7257 17.661 74.1926 17.3573C80.7188 10.4016 84.9567 4.74229 84.1132 3.89872C83.2696 3.05515 77.6103 7.29314 70.6546 13.8193Z" fill="#730CF6"/>
<path fill-rule="evenodd" clip-rule="evenodd" d="M101.003 52.8855L101.39 42.4303L113.571 54.1731L125.752 42.4302L126.14 52.8849L136.143 54.0706L124.804 65.0015L136.143 75.9323L126.14 77.1181L125.752 87.5728L113.571 75.8298L101.39 87.5727L101.003 77.1174L91.0001 75.9322L102.339 65.0015L91.0001 54.0707L101.003 52.8855Z" fill="#730CF6"/>
<path fill-rule="evenodd" clip-rule="evenodd" d="M39.563 19.859C39.563 29.0005 32.1523 36.4112 23.0108 36.4112C13.8692 36.4112 6.45854 29.0005 6.45854 19.859C6.45855 10.7174 13.8692 3.30675 23.0108 3.30675C32.1523 3.30675 39.563 10.7174 39.563 19.859ZM23.0108 42.4302C35.4765 42.4302 45.582 32.3247 45.582 19.859C45.582 7.39324 35.4765 -2.71225 23.0108 -2.71225C10.545 -2.71225 0.439545 7.39324 0.439544 19.859C0.439544 32.3247 10.545 42.4302 23.0108 42.4302Z" fill="white"/>
<path fill-rule="evenodd" clip-rule="evenodd" d="M29.0065 19.8589C29.0065 23.1702 26.3222 25.8544 23.011 25.8544C19.6998 25.8544 17.0155 23.1702 17.0155 19.8589C17.0155 16.5477 19.6998 13.8635 23.011 13.8635C26.3222 13.8635 29.0065 16.5477 29.0065 19.8589ZM23.011 31.8499C29.6334 31.8499 35.002 26.4814 35.002 19.8589C35.002 13.2365 29.6334 7.86797 23.011 7.86797C16.3886 7.86797 11.02 13.2365 11.02 19.8589C11.02 26.4814 16.3886 31.8499 23.011 31.8499Z" fill="#730CF6"/>
<path d="M45.3741 155.308C45.3741 142.842 55.4796 132.736 67.9454 132.736C80.4111 132.736 90.5166 142.842 90.5166 155.308L67.9454 155.308L67.9454 177.879C55.4796 177.879 45.3741 167.773 45.3741 155.308Z" fill="white"/>
<rect x="544.427" y="177.858" width="45.1425" height="45.1425" transform="rotate(-90 544.427 177.858)" fill="#730CF6"/>
<path d="M544.427 87.5727L544.427 102.62L559.475 102.62L559.475 117.668L574.522 117.668L574.522 132.715L589.57 132.715L589.57 87.5727L544.427 87.5727Z" fill="white"/>
<path d="M476.714 -2.71225L454.143 19.859L476.714 42.4302L499.285 19.859L476.714 -2.71225Z" fill="#730CF6"/>
<path d="M544.428 177.858C556.893 177.858 566.999 187.963 566.999 200.429C566.999 212.895 556.893 223 544.428 223L544.428 209.31C549.333 209.31 553.309 205.334 553.309 200.429C553.309 195.524 549.333 191.548 544.428 191.548L544.428 177.858Z" fill="#730CF6"/>
<path d="M589.57 223C577.104 223 566.999 212.895 566.999 200.429C566.999 187.963 577.104 177.858 589.57 177.858L589.57 191.548C584.665 191.548 580.689 195.524 580.689 200.429C580.689 205.334 584.665 209.31 589.57 209.31L589.57 223Z" fill="#730CF6"/>
<path d="M454.142 -2.71216C454.142 9.75359 444.037 19.8591 431.571 19.8591C419.105 19.8591 409 9.75359 409 -2.71216L422.69 -2.71216C422.69 2.19273 426.666 6.16892 431.571 6.16892C436.476 6.16892 440.452 2.19273 440.452 -2.71216L454.142 -2.71216Z" fill="#730CF6"/>
<path d="M409 42.4302C409 29.9645 419.106 19.859 431.571 19.859C444.037 19.859 454.143 29.9645 454.143 42.4302L440.452 42.4302C440.452 37.5254 436.476 33.5492 431.571 33.5492C426.666 33.5492 422.69 37.5254 422.69 42.4302L409 42.4302Z" fill="#730CF6"/>
<path d="M513.738 118.262L521.856 132.715L529.974 118.262L544.428 110.144L529.974 102.026L521.856 87.5727L513.738 102.026L499.285 110.144L513.738 118.262Z" fill="#730CF6"/>
<path fill-rule="evenodd" clip-rule="evenodd" d="M548.266 61.1628C546.146 61.1628 544.428 62.8814 544.428 65.0014C544.428 67.1215 546.146 68.8401 548.266 68.8401L552.474 68.8401L548.816 70.9191C546.973 71.9665 546.328 74.3099 547.375 76.1531C548.422 77.9963 550.766 78.6413 552.609 77.5939L556.772 75.2279L554.406 79.3915C553.359 81.2347 554.004 83.5781 555.847 84.6255C557.69 85.6729 560.034 85.0278 561.081 83.1846L563.16 79.526L563.16 83.7339C563.16 85.854 564.879 87.5726 566.999 87.5726C569.119 87.5726 570.838 85.854 570.838 83.7339L570.838 79.5257L572.917 83.1844C573.964 85.0276 576.307 85.6727 578.151 84.6253C579.994 83.5778 580.639 81.2345 579.592 79.3913L577.226 75.2282L581.389 77.594C583.232 78.6415 585.575 77.9964 586.623 76.1532C587.67 74.31 587.025 71.9667 585.182 70.9192L581.523 68.8401L585.732 68.8401C587.852 68.8401 589.57 67.1215 589.57 65.0014C589.57 62.8814 587.852 61.1628 585.732 61.1628L581.523 61.1628L585.182 59.0836C587.025 58.0362 587.67 55.6928 586.623 53.8496C585.575 52.0064 583.232 51.3613 581.389 52.4088L577.226 54.7746L579.592 50.6115C580.639 48.7683 579.994 46.425 578.151 45.3776C576.307 44.3301 573.964 44.9752 572.917 46.8184L570.838 50.4771L570.838 46.2687C570.838 44.1487 569.119 42.4301 566.999 42.4301C564.879 42.4301 563.16 44.1487 563.16 46.2687L563.16 50.4768L561.081 46.8182C560.034 44.975 557.69 44.3299 555.847 45.3773C554.004 46.4247 553.359 48.7681 554.406 50.6113L556.772 54.7749L552.609 52.4089C550.766 51.3615 548.422 52.0066 547.375 53.8498C546.328 55.693 546.973 58.0363 548.816 59.0837L552.474 61.1628L548.266 61.1628Z" fill="#730CF6"/>
<path d="M521.856 79.2626C524.188 84.3343 527.737 87.5727 531.712 87.5727C538.734 87.5727 544.427 77.4672 544.427 65.0015C544.427 52.5357 538.734 42.4302 531.712 42.4302C527.737 42.4302 524.188 45.6686 521.856 50.7403C519.524 45.6686 515.975 42.4302 512 42.4302C504.978 42.4302 499.285 52.5357 499.285 65.0015C499.285 77.4672 504.978 87.5727 512 87.5727C515.975 87.5727 519.524 84.3343 521.856 79.2626Z" fill="white"/>
<path d="M519.355 13.8193C519.658 4.28619 520.663 -2.71224 521.856 -2.71224C523.049 -2.71224 524.054 4.28619 524.358 13.8193C531.314 7.29314 536.973 3.05515 537.817 3.89873C538.66 4.7423 534.422 10.4016 527.896 17.3573C537.429 17.661 544.428 18.666 544.428 19.859C544.428 21.052 537.429 22.057 527.896 22.3607C534.422 29.3164 538.66 34.9757 537.817 35.8193C536.973 36.6628 531.314 32.4249 524.358 25.8987C524.054 35.4318 523.049 42.4302 521.856 42.4302C520.663 42.4302 519.658 35.4318 519.355 25.8987C512.399 32.4249 506.74 36.6629 505.896 35.8193C505.053 34.9757 509.291 29.3164 515.817 22.3607C506.284 22.057 499.285 21.052 499.285 19.859C499.285 18.666 506.284 17.661 515.817 17.3573C509.291 10.4016 505.053 4.74229 505.896 3.89872C506.74 3.05515 512.399 7.29314 519.355 13.8193Z" fill="#730CF6"/>
<path fill-rule="evenodd" clip-rule="evenodd" d="M489.006 52.8855L488.619 42.4303L476.438 54.1731L464.257 42.4302L463.869 52.8849L453.867 54.0706L465.206 65.0015L453.867 75.9323L463.869 77.1181L464.257 87.5728L476.438 75.8298L488.619 87.5727L489.006 77.1174L499.009 75.9322L487.671 65.0015L499.009 54.0707L489.006 52.8855Z" fill="#730CF6"/>
<path fill-rule="evenodd" clip-rule="evenodd" d="M550.446 19.859C550.446 29.0005 557.857 36.4112 566.998 36.4112C576.14 36.4112 583.551 29.0005 583.551 19.859C583.551 10.7174 576.14 3.30675 566.998 3.30675C557.857 3.30675 550.446 10.7174 550.446 19.859ZM566.998 42.4302C554.533 42.4302 544.427 32.3247 544.427 19.859C544.427 7.39324 554.533 -2.71225 566.998 -2.71225C579.464 -2.71225 589.57 7.39324 589.57 19.859C589.57 32.3247 579.464 42.4302 566.998 42.4302Z" fill="white"/>
<path fill-rule="evenodd" clip-rule="evenodd" d="M561.003 19.8589C561.003 23.1702 563.687 25.8544 566.998 25.8544C570.31 25.8544 572.994 23.1702 572.994 19.8589C572.994 16.5477 570.31 13.8635 566.998 13.8635C563.687 13.8635 561.003 16.5477 561.003 19.8589ZM566.998 31.8499C560.376 31.8499 555.007 26.4814 555.007 19.8589C555.007 13.2365 560.376 7.86797 566.998 7.86797C573.621 7.86797 578.989 13.2365 578.989 19.8589C578.989 26.4814 573.621 31.8499 566.998 31.8499Z" fill="#730CF6"/>
<path d="M544.635 155.308C544.635 142.842 534.53 132.736 522.064 132.736C509.598 132.736 499.493 142.842 499.493 155.308L522.064 155.308L522.064 177.879C534.53 177.879 544.635 167.773 544.635 155.308Z" fill="white"/>
<path d="M237.977 314.8C241.238 313.646 244.579 312.73 247.973 312.061L248.384 313.568C248.43 313.746 248.538 313.9 248.689 314.005C248.84 314.109 249.023 314.155 249.206 314.135L262.645 312.57C266.343 304.138 273.131 291.364 273.229 291.168C273.131 287.98 273.229 285.299 273.229 282.248C265.541 285.104 251.319 290.523 243.885 293.985C243.717 294.093 243.587 294.253 243.513 294.438C243.44 294.624 243.426 294.828 243.474 295.022C243.474 295.022 243.611 295.511 243.787 296.215C240.148 296.215 229.252 295.687 226.63 298.172C226.223 298.739 226.023 299.43 226.063 300.128C225.907 302.828 227.256 323.799 229.408 329.961C230.523 333.189 232.871 332.837 234.475 329.746C236.332 325.092 237.524 320.198 238.016 315.211C238.016 314.957 237.957 314.976 237.977 314.8ZM235.727 297.291C238.114 297.096 238.857 297.135 243.983 296.978C244.902 300.461 246.8 307.621 247.778 311.279C244.326 311.813 240.919 312.604 237.586 313.646C236.547 308.25 235.925 302.782 235.727 297.291Z" fill="white"/>
<path d="M418.033 126.077C418.522 125.393 417.896 124.512 417.368 123.828C418.864 122.289 420.524 120.918 422.317 119.739C425.344 118.231 428.111 116.25 430.514 113.87C431.512 112.833 433.39 110.701 432.685 109.449C431.981 108.197 430.729 108.119 429.027 108.843C429.764 108.069 430.367 107.175 430.807 106.202C431.355 104.676 430.064 103.443 427.267 104.578C428.284 102.954 428.519 101.252 426.797 100.431C425.408 99.7654 423.374 101.35 422.2 102.387C419.895 104.401 417.731 106.571 415.724 108.882C414.492 106.299 412.536 103.326 410.09 104.265C407.645 105.204 409.543 109.41 410.795 111.699L406.354 114.77C405.682 114.408 404.924 114.239 404.163 114.281C399.116 115.142 375.934 132.787 373.586 132.787C371.786 132.787 346.081 120.463 323.857 116.902C323.815 116.769 323.735 116.651 323.628 116.561C323.52 116.471 323.39 116.413 323.251 116.394C319.374 115.732 315.445 115.438 311.513 115.514C311.394 115.522 311.278 115.555 311.174 115.613C311.068 115.67 310.979 115.75 310.907 115.846H309.263C308.872 114.261 307.425 110.603 306.916 109.195C308.246 108.041 310.085 107.454 311.044 105.595C312.804 102.152 312.726 96.1659 312.237 92.3315C314.448 90.6491 314.506 87.9495 313.998 85.1911C313.802 84.076 313.196 81.5524 312.257 80.9264C311.728 80.5743 310.613 80.9264 309.655 81.2785C308.696 79.0484 308.696 80.0656 309.087 79.1657C309.27 78.751 309.376 78.3071 309.4 77.855C310.437 78.168 312.589 76.0944 311.846 73.3556C311.456 72.3753 310.979 71.4324 310.418 70.5385C310.692 69.8734 311.278 69.0713 309.44 66.626C308.647 65.7716 307.619 65.1723 306.486 64.9044H305.586C304.937 63.9622 303.983 63.2715 302.886 62.9481C301.23 62.5256 299.472 62.7717 297.995 63.6328C297.604 63.9263 297.291 64.3175 296.9 64.5914C296.014 64.0543 295.001 63.7705 293.965 63.7705C292.93 63.7705 291.916 64.0543 291.031 64.5914C290.513 64.7945 290.041 65.1004 289.645 65.4902C289.249 65.8804 288.934 66.3464 288.722 66.8607C287.764 66.5299 286.747 66.4026 285.736 66.4869C284.727 66.5712 283.744 66.865 282.854 67.3498C279.474 69.1823 276.946 72.265 275.811 75.9379C275.78 76.4917 275.78 77.0469 275.811 77.6007H275.596C272.661 77.1703 268.925 84.1347 271.918 89.5536C272.27 90.1992 272.72 90.8056 273.15 91.5099C274.402 93.4662 273.913 94.0531 276.711 96.4397C277.533 97.144 277.669 97.0853 278.178 97.5157C278.687 97.9461 278.491 97.7309 278.785 98.8264C278.944 99.4716 279.231 100.079 279.628 100.613C280.024 101.147 280.522 101.597 281.093 101.937C281.302 103.85 282.117 105.647 283.421 107.062C283.834 107.525 284.316 107.92 284.849 108.236C284.993 108.317 285.154 108.364 285.319 108.373C285.905 112.012 286.629 116.746 286.942 118.761L285.201 119.7C282.924 120.617 280.708 121.682 278.569 122.889C278.401 123.005 278.283 123.179 278.237 123.378C276.163 124.473 274.207 125.51 273.092 126.175C257.559 135.389 213.445 196.132 212.995 198.91C212.945 199.07 212.945 199.239 212.995 199.399C213.627 200.408 214.398 201.323 215.284 202.118C215.011 202.617 214.682 203.082 214.305 203.507C210.393 206.07 204.524 209.885 201.375 213.289C201.154 213.486 200.988 213.737 200.894 214.017C200.8 214.298 200.78 214.598 200.837 214.888C200.895 215.178 201.027 215.449 201.22 215.674C201.414 215.897 201.663 216.067 201.942 216.164C202.529 216.36 202.627 216.301 206.442 214.208C205.393 215.128 204.535 216.244 203.918 217.495C203.664 218.571 204.642 219.197 205.874 219.001C206.567 218.818 207.228 218.528 207.83 218.14C207.477 218.685 207.29 219.321 207.29 219.969C207.29 220.618 207.477 221.254 207.83 221.798C209.787 224.263 214.912 216.497 217.612 214.58C218.707 215.969 220.194 219.216 222.561 218.355C224.615 217.592 222.365 213.073 222.561 211.763C223.357 210.998 224.207 210.292 225.104 209.65C226.613 210.768 228.339 211.562 230.171 211.978C233.399 211.978 267.086 177.978 269.649 175.258C268.729 183.905 264.093 221.016 265.071 228.235C265.521 231.502 273.366 231.971 276.672 232.147C275.674 255.623 275.009 291.188 274.833 291.56C269.649 302.73 268.24 305.782 266.499 309.166C263.33 315.231 249.988 337.61 248.482 342.697C248.267 343.499 248.247 343.812 249.088 345.299C246.567 347.95 244.228 350.767 242.085 353.73C241.009 355.687 245.626 373.919 248.893 380.375C249.636 381.823 250.849 384.053 252.473 383.996C257.363 383.818 257.344 366.251 257.207 361.34C257.206 361.189 257.151 361.044 257.05 360.929C257.937 359.606 258.904 358.339 259.946 357.134C260.568 357.563 261.222 357.941 261.902 358.269C262.567 358.562 263.31 358.054 263.858 357.604C270.373 352.478 305.507 308.697 313.039 288.038C316.463 278.609 321.021 265.58 322.312 256.346C323.101 250.509 323.174 244.596 322.527 238.74C322.527 238.657 322.56 238.577 322.618 238.518C322.677 238.46 322.757 238.427 322.84 238.427C322.923 238.427 323.003 238.46 323.062 238.518C323.121 238.577 323.153 238.657 323.153 238.74C324.133 244.628 324.324 250.623 323.72 256.562C322.273 269.375 312.159 296.079 306.759 305.899C311.415 305.038 320.884 303.16 325.462 301.791C340.721 297.155 354.806 283.324 356.038 267.791C356.438 260.473 356.438 253.14 356.038 245.822C355.906 235.719 354.594 225.667 352.126 215.871C356.273 213.621 360.068 210.98 361.301 208.554C363.942 203.37 356.958 173.537 355.432 165.164C363.785 166.083 378.007 167.746 384.639 162.562C392.229 156.459 408.623 139.282 418.033 126.077ZM256.15 360.264C252.629 358.132 247.699 353.065 246.956 349.094C247.758 348.077 248.599 347.138 249.382 346.081C252.033 350.128 255.339 353.704 259.163 356.665C258.089 357.804 257.083 359.006 256.15 360.264ZM411.675 112.247C411.776 112.182 411.85 112.081 411.877 111.965C411.907 111.848 411.89 111.725 411.831 111.621C411.147 110.349 409.093 105.869 410.521 105.36C411.342 105.047 412.066 105.556 412.673 106.241C413.599 107.416 414.319 108.738 414.805 110.153C414.841 110.268 414.908 110.371 414.999 110.451C415.089 110.531 415.199 110.585 415.317 110.608C415.436 110.63 415.558 110.619 415.673 110.577C415.785 110.535 415.884 110.463 415.959 110.368C417.916 108.197 422.493 103.248 425.076 101.917C427.032 100.9 427.501 102.778 422.708 107.16C421.608 108 420.55 108.894 419.539 109.84C419.484 109.917 419.453 110.01 419.453 110.105C419.453 110.199 419.484 110.292 419.539 110.368C419.539 110.877 419.95 111.444 420.654 110.916C422.355 109.423 424.153 108.045 426.034 106.788C426.994 106.106 428.111 105.676 429.282 105.536C428.695 107.336 423.237 112.227 422.767 112.775C422.619 112.908 422.527 113.095 422.515 113.294C422.503 113.494 422.568 113.691 422.699 113.842C422.831 113.993 423.015 114.087 423.214 114.103C423.414 114.12 423.612 114.057 423.765 113.929C425.936 112.52 429.731 109.234 431.042 109.723C432.353 110.212 428.46 113.851 427.482 114.711C421.867 119.583 423.315 116.453 416.82 123.065C413.993 119.968 410.747 117.281 407.176 115.083L411.675 112.247ZM326.674 205.816C326.342 203.116 325.931 200.201 325.422 197.169L326.264 196.054C330.176 191.026 331.35 183.025 330.978 176.745C333.071 185.92 334.734 194.939 336.006 203.898L326.674 205.816ZM297.584 138.832C292.439 134.92 284.164 128.171 279.352 123.554L287.177 119.641C294.363 126.353 300.514 134.093 305.429 142.608C312.946 156.416 318.522 171.195 321.999 186.527L294.102 147.068L297.741 139.517C297.79 139.401 297.8 139.272 297.772 139.15C297.744 139.027 297.679 138.916 297.584 138.832ZM310.809 116.648C310.926 116.863 312.276 119.739 314.33 124.767C314.33 124.982 313.959 129.873 313.782 131.594C311.285 130.605 308.931 129.289 306.779 127.682C307.209 125.98 309.146 118.252 309.283 116.511L310.809 116.648ZM303.864 137.659C304.001 137.307 304.138 136.837 304.295 136.289L305.605 136.974C306.349 137.463 306.055 135.976 306.72 140.28C306.72 141.004 306.916 141.806 306.955 142.686C306.055 141.063 304.94 139.321 303.884 137.659H303.864ZM302.769 136.015C299.073 130.773 294.865 125.911 290.209 121.5L304.94 127.897C304.373 129.247 303.551 133.374 302.788 136.015H302.769ZM317.812 147.479C315.856 142.139 314.35 136.172 313.606 134.607C313.651 134.119 313.651 133.628 313.606 133.14C313.89 133.245 314.185 133.311 314.487 133.335C314.676 133.337 314.858 133.271 315.002 133.149C315.147 133.027 315.242 132.857 315.269 132.67C315.426 132.025 315.68 128.758 315.719 128.034C321.411 142.402 326.161 157.125 329.941 172.109C318.888 148.594 320.59 155.402 317.832 147.479H317.812ZM333.991 184.825C329.531 163.442 321.686 136.778 312.765 117.02C316.042 117.022 319.312 117.283 322.547 117.802C324.209 132.67 322.821 132.161 323.936 132.748C325.051 133.335 331.761 136.035 332.758 136.446C332.661 137.952 334.069 181.029 334.01 184.825H333.991ZM311.474 82.1784C312.495 84.404 312.853 86.8753 312.511 89.2993C312.351 89.9164 312.025 90.477 311.565 90.9187C311.106 91.3609 310.534 91.6668 309.911 91.8026C309.29 91.9385 308.641 91.899 308.039 91.6885C307.438 91.4779 306.908 91.1044 306.505 90.61C305.571 88.6438 304.87 86.5758 304.412 84.4477C304.94 83.763 310.574 82.3936 311.474 82.1784ZM284.556 101.741C283.842 101.416 283.11 101.129 282.365 100.881C281.864 100.675 281.419 100.358 281.061 99.9529C280.702 99.5481 280.441 99.0669 280.298 98.5454C280.154 98.0243 280.131 97.4773 280.232 96.9459C280.333 96.4148 280.553 95.9137 280.878 95.4812C282.11 94.4443 283.225 94.503 284.243 96.0485C284.888 97.2418 284.869 97.3396 285.162 97.457C285.247 97.494 285.338 97.5128 285.43 97.5118C285.521 97.5107 285.612 97.4901 285.695 97.4513C285.778 97.4125 285.854 97.356 285.912 97.2863C285.972 97.2166 286.016 97.1347 286.042 97.0462C286.333 95.8219 286.378 94.5521 286.179 93.3097C285.945 91.9598 285.905 85.9736 285.945 85.778C286.517 86.0793 287.157 86.2212 287.803 86.1888C291.344 86.0519 292.048 84.2325 293.457 82.7457C295.08 82.9022 295.413 83.6848 297.252 82.7457C298.113 82.256 298.903 81.6506 299.599 80.946C300.162 81.1761 300.705 81.451 301.223 81.7676C302.396 82.3314 303.718 82.5046 304.996 82.2617C306.274 82.0187 307.441 81.3724 308.324 80.4178C308.54 80.8286 308.735 81.2394 308.911 81.6698C307.113 82.2279 305.421 83.0805 303.903 84.1934C303.571 84.6042 304.06 86.8344 304.177 87.3626C302.539 87.5689 300.952 88.0796 299.502 88.8689C299.208 87.8516 298.563 85.954 297.545 85.4259C297.239 85.3323 296.913 85.3323 296.606 85.4259C294.846 85.6997 288.527 87.5973 287.764 88.6342C287.099 89.358 288.996 94.953 289.583 95.8724C291.833 99.3546 298.426 98.3373 299.658 94.2683C299.963 92.9028 299.963 91.4864 299.658 90.1209C300.225 90.1209 301.927 89.5145 302.123 89.4558C303.473 92.488 303.864 92.6641 305.429 95.9311C305.214 96.1072 304.862 96.4006 304.568 96.5962C303.179 97.5157 302.886 97.3592 302.964 97.7504C302.987 97.828 303.038 97.8949 303.106 97.9379C303.174 97.9813 303.256 97.998 303.336 97.9852C304.158 97.8678 304.96 97.6445 305.723 97.3201C306.179 97.1497 306.556 96.8146 306.779 96.381C307.327 95.1486 304.295 90.5122 303.101 89.1232C303.336 89.1232 303.884 88.732 304.295 88.5168C304.842 90.7078 305.214 92.4294 307.327 93.2901C307.938 93.5206 308.589 93.6255 309.241 93.5989C309.893 93.5718 310.532 93.4135 311.122 93.1336C311.435 96.5767 311.376 102.172 309.733 105.223C308.892 106.808 306.818 107.414 305.488 108.725C305.097 109.097 305.351 109.625 305.488 110.192C307.659 116.237 307.698 116.218 307.581 117C307.006 120.248 306.202 123.451 305.175 126.586C304.686 126.371 299.189 123.456 288.429 119.27C288.096 117.059 286.316 105.263 285.749 103.091C285.788 102.328 285.69 102.152 284.556 101.643V101.741ZM298.25 93.7596C297.624 95.892 294.67 96.8114 292.557 96.2245C290.444 95.6377 290.307 94.5617 289.309 92.0185C288.842 91.0471 288.519 90.0121 288.351 88.9472C288.996 88.2429 296.059 86.7953 296.939 86.6583C298.173 88.7707 298.638 91.246 298.25 93.6618V93.7596ZM221.701 211.215C220.957 211.939 221.955 214.306 222.111 216.36C222.111 216.536 222.111 217.299 221.994 217.358C220.918 217.71 219.92 216.086 219.314 215.108C218.707 214.13 218.101 212.8 217.142 213.152C215.186 214.071 210.647 220.096 208.867 220.722C207.967 219.001 213.112 214.091 213.289 213.817C213.364 213.691 213.403 213.546 213.403 213.401C213.402 213.254 213.361 213.109 213.285 212.986C213.208 212.86 213.098 212.759 212.968 212.69C212.838 212.623 212.691 212.594 212.545 212.604C212.193 212.604 211.958 212.917 211.41 213.406C209.744 215.031 207.837 216.391 205.756 217.436C207.643 215.271 209.662 213.227 211.801 211.313C211.907 211.204 211.982 211.068 212.017 210.921C212.017 210.921 211.606 209.885 210.804 210.295C209.669 210.921 204.152 214.11 202.412 214.932C202.177 214.775 202.314 214.541 202.412 214.306C205.17 210.921 211.234 206.813 214.951 204.211C215.387 203.761 215.751 203.248 216.027 202.686C218.601 205.08 221.347 207.285 224.243 209.278C223.351 209.864 222.502 210.511 221.701 211.215ZM267.223 228.998C266.793 228.724 266.48 228.469 266.421 228.117C265.345 220.136 271.331 174.906 271.233 173.126C271.233 173.022 271.212 172.918 271.171 172.822C271.132 172.726 271.072 172.639 270.997 172.566C270.922 172.493 270.834 172.436 270.736 172.397C270.64 172.359 270.536 172.341 270.431 172.344C269.434 172.344 271.194 172.344 246.271 196.21C244.628 197.756 232.068 209.767 229.975 210.569C227.1 210.354 216.281 201.727 214.521 199.008C217.925 192.122 259.202 135.468 273.483 126.801C274.579 126.136 276.457 125.099 278.511 124.004C279.222 124.674 279.986 125.282 280.8 125.823C285.338 130.127 291.657 135.487 296.45 139.517L292.713 146.931C292.656 147.03 292.627 147.141 292.627 147.254C292.627 147.368 292.656 147.479 292.713 147.577C323.055 191.104 322.605 190.615 322.801 190.615C324.746 200.674 325.956 210.86 326.42 221.094C326.42 223.853 326.42 223.618 326.537 223.422C326.655 223.227 326.537 223.559 326.537 223.559C321.803 228.724 274.95 233.536 267.223 228.998ZM375.366 164.186C366.504 165.418 356.488 163.579 354.551 163.501C353.476 158.286 351.33 153.351 348.252 149.005C348.205 148.942 348.137 148.898 348.058 148.884C347.982 148.87 347.902 148.885 347.835 148.927C347.768 148.969 347.719 149.035 347.698 149.111C347.679 149.187 347.687 149.268 347.724 149.338C348.859 151.646 352.654 161.604 353.593 164.029C353.299 164.968 362.435 202.744 359.853 207.831C357.545 212.428 344.105 218.218 339.253 219.881C338.295 208.99 336.727 198.162 334.558 187.446C335.223 181.812 334.363 148.32 334.108 135.937C334.1 135.793 334.053 135.654 333.97 135.537C333.887 135.419 333.773 135.327 333.639 135.272L324.855 131.575C324.816 126.926 324.521 122.282 323.975 117.665C345.905 121.461 371.454 134 373.586 134.02C376.677 134.02 399.644 116.413 404.398 115.709C406.51 115.377 415.588 123.3 416.644 125.491C407.371 138.441 391.075 155.461 383.524 161.349C381.092 162.976 378.283 163.952 375.366 164.186Z" fill="white"/>
<path d="M296.235 89.8471C296.21 89.7187 296.161 89.5963 296.09 89.4871C296.018 89.3776 295.925 89.2833 295.817 89.2097C295.708 89.1364 295.587 89.0848 295.459 89.0581C295.332 89.0315 295.2 89.0304 295.07 89.0549C294.942 89.0791 294.82 89.1286 294.711 89.2004C294.601 89.2723 294.507 89.3644 294.433 89.4725C294.36 89.5807 294.308 89.7023 294.282 89.8303C294.256 89.9584 294.254 90.0904 294.278 90.2188C294.67 92.175 294.748 92.625 295.609 92.625C295.772 92.6253 295.931 92.5855 296.075 92.5087C296.218 92.4315 296.341 92.3202 296.428 92.1839C296.518 92.0481 296.572 91.8919 296.587 91.7297C296.6 91.5675 296.574 91.4046 296.509 91.2556C296.45 90.9426 296.274 90.0231 296.235 89.8471ZM302.221 102.798C303.492 103.169 304.705 102.563 304.666 102.25C304.627 101.937 304.666 102.093 302.945 101.448C301.79 101.017 300.519 99.4915 300.069 99.7263C299.619 99.9611 300.304 101.213 300.46 101.448C300.879 102.083 301.499 102.558 302.221 102.798ZM338.001 84.213C335.439 94.953 333.561 104.069 333.248 105.889C333.039 106.68 333 107.507 333.13 108.314C334.167 110.525 347.568 114.888 349.27 114.027C350.971 113.166 355.393 103.208 360.538 92.938C363.689 93.0387 366.843 92.8092 369.947 92.2533C373.216 91.6536 376.397 90.6481 379.416 89.2602C386.028 86.2084 393.266 73.1404 394.245 66.5673C394.978 59.4308 393.467 52.2434 389.921 46.0068C373.508 17.5428 325.364 32.8605 329.276 64.4741C330.393 71.7077 333.404 78.5177 338.001 84.213ZM349.935 107.512C349.935 107.825 349.583 107.786 347.978 107.512C344.697 107.1 341.519 106.085 338.608 104.519C337.238 103.776 336.867 103.619 337.004 103.287C337.141 102.954 337.434 103.072 339.547 103.658C339.742 103.658 345.807 105.615 347.548 106.221C349.798 107.238 349.935 107.238 349.935 107.512ZM349.583 75.6836C351.671 75.7917 353.753 75.361 355.627 74.4315C357.369 75.2752 359.253 75.7864 361.183 75.9379C357.897 82.0611 351.226 94.5421 349.074 101.194L340.779 98.9047C342.736 94.0922 347.059 82.824 349.543 75.6836H349.583ZM348.898 74.0598C347.437 73.8393 346.089 73.1457 345.062 72.0858C344.033 71.0255 343.381 69.6575 343.205 68.191C342.657 64.2784 345.161 59.8964 348.937 60.9332C351.304 61.5788 351.598 63.4568 351.187 65.8239C350.835 67.5454 349.563 71.8688 348.859 73.9816L348.898 74.0598ZM354.219 69.3648C354.428 68.0846 354.909 66.8639 355.627 65.7848C355.97 65.1965 356.47 64.7159 357.072 64.3979C357.673 64.0796 358.352 63.9366 359.031 63.985C360.479 64.4154 361.105 67.1542 359.912 68.8757C358.764 70.3977 357.338 71.686 355.706 72.6709C355.143 72.3415 354.697 71.8482 354.424 71.257C354.152 70.6662 354.066 70.0057 354.18 69.3648H354.219ZM336.241 44.5004C345.005 33.956 361.496 29.7696 373.41 34.1125C379.882 36.3342 385.325 40.8325 388.728 46.7697C392.101 52.7043 393.543 59.541 392.856 66.3325C391.956 72.4166 385.03 85.0542 378.946 87.8517C373.384 90.3891 367.315 91.6202 361.203 91.4512C360.538 91.4512 359.833 91.4512 359.579 91.9207C358.425 94.2683 356.312 98.8068 354.239 103.072C352.805 102.38 351.322 101.804 349.798 101.35C352.067 94.8552 359.227 82.1002 362.631 75.9183C365.58 76.1709 368.545 75.659 371.239 74.4315C371.966 74.0485 372.569 73.4659 372.978 72.7516C373.386 72.0378 373.583 71.2222 373.544 70.4005C373.505 69.5792 373.231 68.7861 372.758 68.1138C372.284 67.4419 371.628 66.9187 370.867 66.6064C367.835 65.1196 365.115 68.6801 363.531 71.6732C363.1 72.4557 362.611 73.3751 362.064 74.412C360.481 74.3081 358.92 73.9855 357.427 73.4534C358.914 72.4077 360.234 71.1414 361.34 69.6973C361.959 68.7619 362.272 67.6575 362.238 66.5363C362.202 65.4149 361.821 64.3321 361.144 63.4372C360.613 62.8201 359.874 62.4178 359.067 62.3061C358.26 62.1945 357.44 62.3812 356.762 62.8308C355.391 63.6727 354.294 64.892 353.599 66.3425C352.906 67.793 352.646 69.4131 352.85 71.008C353.062 71.9083 353.547 72.7214 354.239 73.336C352.956 73.8674 351.578 74.1338 350.189 74.1185C350.971 71.8101 352.243 67.6432 352.576 65.9413C352.784 64.971 352.83 63.9729 352.713 62.9873C352.561 62.1415 352.168 61.3572 351.581 60.729C350.996 60.1005 350.24 59.6556 349.406 59.4464C344.653 58.0966 341.151 63.359 341.836 68.2693C342.028 70.0288 342.784 71.6792 343.989 72.9761C345.194 74.2729 346.785 75.1468 348.526 75.4684C346.022 82.511 342.11 93.877 340.153 98.7286L335.849 97.6135C338.608 83.763 338.94 84.0956 338.549 83.9195C334.103 78.2523 331.26 71.4968 330.313 64.3567C329.852 60.8162 330.142 57.2184 331.163 53.7975C332.183 50.3763 333.914 47.2086 336.241 44.5004ZM363.394 74.5294C364.763 72.0449 367.502 66.6064 370.163 67.9367C370.694 68.1512 371.159 68.5068 371.503 68.9653C371.848 69.4238 372.06 69.9677 372.119 70.5385C372.08 73.9816 366.72 74.588 363.316 74.5294H363.394ZM438.28 83.1566C440.638 81.7701 443.422 81.2967 446.106 81.8263C449.053 81.8789 451.868 83.0573 453.975 85.12C456.083 87.1826 457.317 89.9726 457.431 92.9184C455.659 91.8901 453.587 91.5031 451.564 91.8229C446.653 92.2533 440.237 94.9138 441.098 99.648C441.802 103.561 446.966 103.032 450.879 101.976C454.792 100.92 457.9 99.0025 458.704 95.2268C463.456 98.6895 464.573 104.754 464.769 110.681C464.769 110.764 464.801 110.844 464.861 110.903C464.918 110.961 465 110.994 465.082 110.994C465.163 110.994 465.245 110.961 465.302 110.903C465.363 110.844 465.395 110.764 465.395 110.681C465.53 104.05 464.338 97.5548 458.918 93.7792C458.974 92.0808 458.683 90.3888 458.067 88.8053C457.452 87.2221 456.517 85.7805 455.329 84.5676C454.138 83.355 452.713 82.3968 451.141 81.7505C449.57 81.1046 447.883 80.7841 446.184 80.809C443.468 80.4124 440.7 80.9801 438.359 82.4132C437.635 82.7653 437.967 83.2935 438.28 83.1566ZM456.122 97.1831C453.911 100.078 447.651 101.585 444.756 101.096C443.68 100.92 442.799 100.47 442.565 99.3546C441.86 95.442 448.61 93.3097 452.64 93.1727C454.28 93.0468 455.915 93.4665 457.296 94.3661C457.146 95.389 456.744 96.3579 456.122 97.1831ZM429.321 60.2876C431.414 57.7053 430.005 53.2059 424.156 53.1863C421.887 53.1863 420.791 55.4947 420.948 57.7053C421.3 62.9677 427.227 62.8112 429.321 60.2876ZM422.317 57.6075C422.317 56.3164 422.924 54.634 424.273 54.6535C427.423 54.6535 428.871 56.1208 428.871 57.7444C428.792 61.4418 422.063 63.359 422.317 57.6075ZM421.515 279.391C404.319 272.525 396.338 305.762 382.292 334.324C382.202 335.524 382.243 336.732 382.409 337.923C382.409 340.917 382.742 360.734 384.483 362.983C384.952 363.883 386.928 362.983 387.847 362.416C395.656 357.583 403.015 352.056 409.836 345.905C409.895 345.838 409.937 345.762 409.965 345.677C409.991 345.592 410.001 345.504 409.993 345.416C413.631 340.232 427.267 313.235 430.573 299.698C432.881 290.112 430.592 282.971 421.515 279.391ZM427.658 304.236C418.452 303.056 409.551 300.149 401.424 295.668C406.002 287.001 411.655 277.122 420.987 280.839C431.375 284.967 431.16 293.516 427.658 304.178V304.236ZM395.105 355.1C394.504 354.596 393.848 354.162 393.149 353.809C390.505 352.465 387.451 352.17 384.6 352.987C384.404 350.659 383.289 335.517 383.289 335.38C397.942 340.741 393.423 338.413 407.938 345.631C406.413 347.079 400.681 351.089 395.105 355.061V355.1ZM405.2 298.485C407.107 299.527 409.067 300.474 411.069 301.321C406.584 308.364 402.622 315.728 399.213 323.349C395.927 330.216 396.044 330.177 392.699 337.669C390.743 337.043 388.786 336.456 386.83 335.869C388.943 331.663 403.967 300.911 405.2 298.446V298.485ZM393.462 337.865C399.82 326.46 406.295 312.277 411.851 301.576C413.807 302.397 415.764 303.062 417.72 303.649C416.683 305.606 413.651 310.809 412.849 312.316C412.047 313.822 404.006 329.668 403.439 330.881C402.539 332.837 400.074 338.295 399.311 340.036C397.316 339.156 395.399 338.491 393.384 337.826L393.462 337.865ZM400.016 340.291C401.209 338.119 406.119 329.003 406.726 327.829C407.645 326.01 417.896 305.058 418.463 303.845C420.263 304.354 422.161 304.784 423.374 305.019C419.794 314.8 409.484 333.639 405.767 342.932C402.383 341.347 401.62 340.956 399.937 340.251L400.016 340.291ZM401.209 296.235L404.711 298.191C397.653 310.209 391.507 322.738 386.322 335.674L383.387 334.774C394.753 310.555 395.281 307.386 401.131 296.196L401.209 296.235ZM409.269 344.634L406.315 343.225C409.504 336.965 419.481 320.904 424.039 305.156C425.134 305.351 426.21 305.527 427.247 305.664C422.219 319.078 416.184 332.092 409.191 344.594L409.269 344.634ZM347.978 357.33C348.758 356.684 349.315 355.81 349.571 354.831C349.827 353.851 349.77 352.816 349.406 351.872C349.24 350.509 348.616 349.242 347.634 348.282C346.653 347.322 345.373 346.724 344.007 346.588C342.641 346.451 341.268 346.784 340.117 347.531C338.965 348.277 338.101 349.395 337.669 350.698C335.165 349.074 332.445 347.353 329.844 345.709C331.8 343.108 337.551 344.262 338.138 346.394C338.151 346.477 338.197 346.552 338.264 346.601C338.332 346.65 338.417 346.671 338.5 346.658C338.583 346.645 338.657 346.6 338.707 346.533C338.756 346.464 338.777 346.38 338.764 346.296C338.471 342.892 331.389 340.897 328.533 344.907C326.009 343.362 322.879 341.484 320.258 340.056C322.508 338.1 327.535 339.195 328.083 341.23C328.109 341.3 328.158 341.357 328.223 341.394C328.287 341.43 328.363 341.443 328.435 341.428C328.508 341.414 328.574 341.375 328.621 341.316C328.667 341.259 328.691 341.185 328.689 341.112C328.435 337.943 321.882 335.811 318.908 339.293C317.662 338.595 316.352 338.018 314.995 337.571C314.748 337.469 314.475 337.439 314.211 337.488C313.947 337.537 313.702 337.661 313.509 337.845C308.559 344.007 291.872 360.01 284.164 361.868C283.971 361.898 283.788 361.978 283.634 362.1C283.481 362.222 283.364 362.382 283.292 362.564C283.22 362.747 283.198 362.946 283.227 363.139C283.258 363.332 283.338 363.515 283.46 363.668C285.152 365.386 287.091 366.844 289.212 367.992C287.255 369.948 285.729 371.709 284.595 372.98C284.008 373.606 283.695 385.579 284.203 388.221C284.279 388.477 284.446 388.701 284.673 388.847C287.138 390.53 318.888 404.263 322.136 402.424C324.307 401.19 350.228 374.213 350.639 373.391C351.265 372.1 351.05 363.492 351.011 360.049C350.854 359.012 348.917 357.897 347.978 357.33ZM285.377 383.174V378.81C293.496 382.722 312.081 390.704 319.123 392.934C320.923 393.521 321.079 393.443 322.018 392.934C327.398 389.491 346.394 368.089 349.876 364.822V368.95C339.312 379.535 321.373 398.081 321.04 397.025C319.104 396.907 287.06 383.957 285.377 383.174ZM347.489 350.737C348.192 351.922 348.57 353.272 348.585 354.65C348.578 355.088 348.471 355.519 348.27 355.91C348.07 356.3 347.783 356.639 347.431 356.899C345.787 355.804 342.677 353.769 338.999 351.383C341.014 347.411 345.494 347.353 347.411 350.737H347.489ZM284.888 363.257C293.222 360.792 309.048 345.533 314.369 338.921C315.649 339.278 316.885 339.784 318.047 340.428C316.091 344.066 318.184 348.057 318.928 347.49C319.338 347.177 318.595 347.059 318.478 345.142C318.427 343.742 318.745 342.353 319.397 341.112C322.097 342.521 325.266 344.36 327.946 345.905C326.303 349.563 328.279 353.182 328.963 352.654C329.648 352.126 328.65 352.243 328.533 350.326C328.486 349.069 328.725 347.817 329.237 346.668C331.996 348.292 334.813 349.974 337.395 351.559C336.997 352.534 336.839 353.59 336.934 354.638C337.03 355.687 337.375 356.697 337.943 357.584C337.969 357.617 338 357.646 338.037 357.667C338.073 357.687 338.114 357.701 338.155 357.706C338.197 357.711 338.239 357.71 338.28 357.698C338.321 357.687 338.358 357.669 338.393 357.643C338.425 357.617 338.454 357.586 338.474 357.548C338.495 357.512 338.51 357.472 338.515 357.429C338.52 357.388 338.518 357.346 338.507 357.305C338.495 357.265 338.477 357.226 338.451 357.193C338.099 356.415 337.926 355.569 337.943 354.717C337.959 353.864 338.166 353.026 338.549 352.263C343.107 355.041 346.785 357.369 347.92 358.132C347.705 358.328 327.3 376.482 320.356 381.883C315.797 380.688 291.872 368.813 284.888 363.257ZM285.632 374.154C294.494 378.066 314.624 387.144 319.26 388.026C320.062 388.182 320.375 388.239 321.901 387.026C328.416 381.805 349.602 359.638 349.798 359.873C349.807 359.932 349.807 359.99 349.798 360.049V363.962C345.435 367.463 321.177 392.934 320.786 391.721C318.83 391.721 287.04 378.753 285.416 378.027C285.377 377.206 285.553 375.015 285.632 374.154ZM321.256 401.111C319.299 402.228 289.505 390.117 285.514 387.652C285.364 386.404 285.293 385.152 285.299 383.896C293.868 388.122 318.791 398.647 321.079 398.55C324.425 398.373 348.076 371.748 349.759 369.889C349.778 370.889 349.679 371.886 349.465 372.863C349.133 373.508 322.547 400.389 321.256 401.111ZM159.177 290.836C159.314 292.929 159.411 294.748 159.411 296.45C159.411 296.71 159.515 296.959 159.698 297.141C159.881 297.326 160.13 297.428 160.39 297.428C160.649 297.428 160.898 297.326 161.081 297.141C161.265 296.959 161.368 296.71 161.368 296.45C161.368 294.631 161.27 292.831 161.133 290.699C161.115 290.439 160.994 290.198 160.798 290.027C160.602 289.856 160.346 289.771 160.086 289.789C159.827 289.807 159.585 289.928 159.415 290.123C159.244 290.321 159.159 290.576 159.177 290.836ZM457.256 251.612C457.128 251.62 457.004 251.653 456.887 251.709C456.773 251.766 456.67 251.844 456.588 251.942C456.502 252.038 456.438 252.15 456.399 252.271C456.36 252.393 456.346 252.522 456.357 252.649C456.474 254.449 456.591 256.386 456.591 258.264C456.591 258.523 456.694 258.772 456.879 258.955C457.061 259.139 457.31 259.242 457.569 259.242C457.829 259.242 458.078 259.139 458.259 258.955C458.444 258.772 458.548 258.523 458.548 258.264C458.548 256.307 458.43 254.351 458.291 252.512C458.284 252.385 458.252 252.26 458.195 252.145C458.139 252.029 458.06 251.927 457.964 251.844C457.868 251.759 457.754 251.695 457.633 251.656C457.513 251.617 457.384 251.601 457.256 251.612ZM154.11 285.965C154.369 285.965 154.618 285.862 154.801 285.678C154.985 285.495 155.088 285.246 155.088 284.986C155.088 284.727 154.985 284.478 154.801 284.295C154.618 284.111 154.369 284.008 154.11 284.008C151.743 284.008 149.767 284.184 147.811 284.145C147.549 284.145 147.298 284.248 147.112 284.43C146.925 284.613 146.818 284.863 146.813 285.123C146.813 285.383 146.916 285.632 147.099 285.814C147.283 285.999 147.531 286.102 147.791 286.102C149.806 286.141 152.017 286.062 154.11 285.965ZM451.192 245.822C448.844 245.822 446.869 245.959 444.893 245.978C444.633 245.978 444.384 246.081 444.202 246.265C444.017 246.448 443.915 246.697 443.915 246.956C443.915 247.216 444.017 247.465 444.202 247.647C444.384 247.832 444.633 247.934 444.893 247.934C447.006 247.934 449.197 247.934 451.309 247.778C451.569 247.762 451.812 247.644 451.984 247.45C452.156 247.256 452.243 247 452.229 246.741C452.212 246.482 452.095 246.239 451.901 246.066C451.706 245.893 451.451 245.805 451.192 245.822ZM158.648 273.875C158.766 275.675 158.883 277.611 158.883 279.489C158.888 279.747 158.993 279.993 159.175 280.176C159.357 280.358 159.603 280.462 159.861 280.467C160.121 280.467 160.37 280.365 160.553 280.18C160.736 279.998 160.839 279.749 160.839 279.489C160.839 277.533 160.722 275.577 160.605 273.738C160.587 273.478 160.466 273.237 160.27 273.066C160.073 272.895 159.818 272.81 159.558 272.828C159.299 272.846 159.057 272.967 158.886 273.162C158.716 273.36 158.63 273.615 158.648 273.875ZM458.018 241.303C458.018 239.346 457.9 237.39 457.765 235.551C457.747 235.292 457.626 235.051 457.431 234.88C457.235 234.709 456.979 234.623 456.719 234.642C456.46 234.659 456.218 234.78 456.047 234.976C455.876 235.173 455.791 235.429 455.809 235.688C455.926 237.488 456.044 239.425 456.044 241.303C456.044 241.562 456.147 241.811 456.332 241.994C456.513 242.178 456.762 242.281 457.022 242.281C457.281 242.281 457.534 242.178 457.719 241.995C457.907 241.813 458.014 241.563 458.018 241.303ZM173.086 285.71C173.214 285.705 173.341 285.674 173.457 285.621C173.574 285.567 173.679 285.49 173.766 285.396C173.853 285.301 173.921 285.192 173.965 285.07C174.01 284.949 174.03 284.822 174.025 284.693C174.005 284.437 173.889 284.197 173.7 284.023C173.512 283.85 173.264 283.754 173.008 283.754C170.64 283.852 168.665 283.93 166.689 283.891C166.429 283.891 166.181 283.994 165.997 284.178C165.814 284.36 165.711 284.61 165.711 284.869C165.711 285.128 165.814 285.378 165.997 285.56C166.181 285.744 166.429 285.847 166.689 285.847C168.782 285.886 170.973 285.808 173.086 285.71ZM470.168 245.567C468.212 245.665 466.038 245.724 463.869 245.724C463.741 245.719 463.613 245.74 463.488 245.786C463.367 245.832 463.26 245.902 463.164 245.99C463.072 246.079 462.997 246.187 462.947 246.306C462.898 246.425 462.869 246.554 462.869 246.682C462.869 246.943 462.972 247.194 463.157 247.382C463.339 247.568 463.588 247.675 463.847 247.68C466.078 247.68 467.877 247.68 470.246 247.524C470.374 247.519 470.499 247.488 470.616 247.434C470.733 247.38 470.84 247.303 470.926 247.209C471.014 247.115 471.082 247.005 471.125 246.883C471.171 246.762 471.189 246.635 471.185 246.506C471.16 246.252 471.043 246.016 470.854 245.843C470.669 245.668 470.424 245.57 470.168 245.567ZM128.13 227.746C128.385 227.941 183.552 219.764 185.919 218.316C186.05 218.22 186.155 218.093 186.223 217.946C186.291 217.799 186.322 217.637 186.31 217.475C186.31 214.951 183.004 191.261 181.42 185.353C181.224 184.629 181.028 183.905 180.578 183.651C177.585 181.851 124.844 191.789 121.694 193.824C121.609 193.874 121.535 193.943 121.478 194.022C121.42 194.104 121.381 194.195 121.362 194.293C120.696 196.66 126.428 226.572 128.13 227.746ZM122.555 194.763C126.311 193.061 174.181 184.296 179.659 184.981C180.989 188.405 184.55 213.484 184.784 217.162C182.065 217.964 128.874 227.1 128.678 227.139C128.482 227.178 128.463 227.413 128.052 226.181C126.331 221.016 122.457 199.184 122.555 194.763Z" fill="white"/>
<path d="M190.223 220.057C190.33 219.86 190.377 219.635 190.36 219.412C190.36 216.301 185.9 181.773 184.315 179.015C184.191 178.811 184.015 178.644 183.806 178.531C183.596 178.417 183.36 178.361 183.122 178.369C176.568 177.567 121.284 188.366 117.645 190.889C117.136 191.241 117.215 192.122 117.273 193.061C117.586 198.206 123.142 232.049 125.098 231.854C125.314 231.854 125.235 231.697 124.727 232.734C121.675 239.014 115.884 259.124 116.002 263.174C116.002 264.876 116.393 267.086 118.075 266.969C130.146 265.482 189.323 256.092 206.343 252.59C207.008 252.453 207.438 251.847 207.419 250.849C207.218 249.186 206.714 247.576 205.932 246.095C203.545 241.616 193.647 223.872 190.223 220.057ZM125.216 231.247C123.69 229.291 118.075 195.584 118.506 191.848C122.81 189.618 177.351 179.073 183.063 179.934C184.628 184.238 188.678 215.323 188.932 219.06C182.007 221.446 134.058 229.193 125.216 231.247ZM126.077 231.834C127.72 231.423 183.689 222.053 188.815 220.703C191.612 223.305 204.25 245.782 205.071 247.7C193.842 249.656 127.231 260.787 117.43 262.274C117.567 256.346 123.651 235.629 126.077 231.834Z" fill="white"/>
<path d="M133.433 252.121C135.135 251.867 171.248 247.524 184.296 243.983C184.377 243.962 184.446 243.909 184.488 243.839C184.53 243.767 184.542 243.681 184.522 243.601C184.501 243.521 184.449 243.451 184.377 243.41C184.306 243.368 184.22 243.355 184.14 243.376C181.577 243.904 150.316 248.071 133.394 251.514C133.347 251.506 133.299 251.508 133.253 251.521C133.208 251.534 133.165 251.557 133.13 251.589C133.095 251.62 133.067 251.659 133.049 251.704C133.031 251.748 133.023 251.795 133.026 251.842C133.029 251.889 133.043 251.937 133.067 251.977C133.09 252.018 133.123 252.054 133.162 252.08C133.201 252.108 133.246 252.126 133.293 252.132C133.34 252.139 133.388 252.135 133.433 252.121ZM159.823 116.003C159.092 117.653 158.478 119.353 157.984 121.089C157.955 121.367 158.032 121.647 158.2 121.871C160.175 124.845 180.423 147.675 185.705 150.883C186.429 151.333 187.289 151.646 187.818 151.001C191.655 146.226 196.662 142.526 202.353 140.26C206.985 138.622 211.841 137.705 216.751 137.541C220.664 137.189 221.348 136.798 222.855 134.235C224.632 130.863 226.989 127.83 229.819 125.275C233.428 122.12 237.433 119.45 241.733 117.333C241.926 117.223 242.078 117.052 242.163 116.846C242.248 116.641 242.262 116.413 242.202 116.198C241.541 114.515 240.667 112.924 239.601 111.464C240.305 111.229 241.087 111.014 241.087 110.31C241.087 108.353 224.029 83.6652 219.294 79.0092C218.805 78.5202 218.101 77.8746 217.455 77.9137C207.674 78.4615 198.147 87.6951 192.63 95.755C186.311 95.5203 182.223 94.9529 175.024 97.9852C169.941 100.142 165.359 103.326 161.564 107.336C160.977 107.943 156.987 112.168 156.928 112.501C156.869 112.833 156.987 112.833 159.823 116.003ZM238.075 115.455C229.917 116.844 224.713 123.632 220.879 131.007C219.177 134.294 219.333 134.45 217.534 134.411C214.387 134.233 211.229 134.351 208.104 134.763C205.812 135.106 203.558 135.67 201.375 136.446C196.406 138.206 190.713 143.84 187.681 148.027C187.616 148.113 187.534 148.185 187.44 148.237C187.346 148.289 187.243 148.321 187.135 148.33C187.028 148.339 186.92 148.326 186.819 148.291C186.717 148.255 186.624 148.199 186.546 148.125C180.188 141.571 168.94 130.068 163.286 123.456C163.012 123.163 163.482 122.732 163.755 123.045C167.414 126.958 176.862 136.328 186.996 146.521C190.42 142.158 195.702 136.876 200.925 135.037C203.773 134.021 206.737 133.364 209.748 133.081C212.567 132.867 215.399 132.867 218.218 133.081C219.373 131.751 225.085 116.648 238.036 114.966C238.073 114.993 238.105 115.029 238.127 115.071C238.149 115.113 238.161 115.159 238.163 115.205C238.165 115.252 238.156 115.299 238.138 115.342C238.119 115.386 238.091 115.424 238.055 115.455H238.075ZM217.436 79.4983C221.348 82.2371 237.273 105.81 239.346 109.938C235.748 111.078 232.274 112.579 228.978 114.418C225.856 115.983 223.123 118.224 220.978 120.979C218.832 123.734 217.328 126.933 216.575 130.342C209.552 118.917 199.751 106.339 193.237 97.0853C193.628 96.831 204.622 80.2612 217.436 79.4983ZM175.454 99.0611C182.594 96.1854 186.546 96.8505 192.454 97.1049C198.323 107.121 208.867 121.245 215.812 130.499C209.402 128.982 202.657 129.91 196.895 133.1C193.432 135.057 189.207 139.752 186.605 142.667C182.849 139.654 161.173 116.57 157.691 112.657C163.051 106.593 168.001 102.035 175.454 98.9829V99.0611ZM139.654 148.809C139.171 148.47 138.599 148.278 138.009 148.258C137.418 148.237 136.834 148.388 136.328 148.692C135.96 148.856 135.627 149.092 135.349 149.385C135.072 149.678 134.854 150.023 134.71 150.4C134.566 150.776 134.497 151.178 134.508 151.582C134.518 151.985 134.609 152.383 134.773 152.752C134.937 153.12 135.173 153.453 135.466 153.73C135.759 154.008 136.103 154.225 136.481 154.37C136.858 154.514 137.259 154.583 137.663 154.572C138.066 154.561 138.464 154.471 138.832 154.307C139.421 154.178 139.957 153.873 140.369 153.433C140.781 152.992 141.049 152.437 141.138 151.841C141.227 151.245 141.133 150.636 140.868 150.095C140.603 149.553 140.18 149.105 139.654 148.809ZM138.363 152.722C136.993 153.152 136.172 152.722 135.839 152.057C135.213 150.668 135.996 148.536 138.03 149.162C139.458 149.69 140.613 152.096 138.363 152.82V152.722ZM239.131 59.2899C239.698 60.4441 242.339 60.0137 243.494 59.642C244.1 59.4464 244.491 59.2312 244.55 58.6443C244.726 57.1771 244.922 44.4613 244.256 43.2288C244.188 43.0995 244.083 42.9936 243.953 42.924C243.825 42.8544 243.679 42.8242 243.533 42.8376C241.445 42.8317 239.369 43.1351 237.37 43.7375C236.568 44.2265 238.427 57.9987 239.131 59.2899ZM237.781 44.207C239.588 43.9484 241.416 43.8633 243.239 43.9527C243.357 45.4003 243.044 57.9401 243.024 58.1357C242.197 58.432 241.315 58.539 240.442 58.4487C240.305 57.9987 240.07 56.7858 239.777 55.26C238.914 51.614 238.249 47.9242 237.781 44.207ZM137.756 132.298C137.944 132.395 138.152 132.445 138.363 132.445C138.574 132.445 138.781 132.395 138.969 132.298C139.725 131.832 140.324 131.151 140.691 130.342C140.741 130.213 140.756 130.073 140.735 129.936C140.715 129.798 140.659 129.669 140.573 129.56C139.634 128.445 129.383 116.57 128.131 117.313C126.594 118.308 125.136 119.42 123.769 120.639C123.714 120.688 123.67 120.749 123.639 120.816C123.609 120.883 123.593 120.956 123.593 121.03C123.554 122.047 134.939 131.164 137.756 132.298ZM128.366 117.822C129.794 118.859 134.607 124.806 139.067 130.068C138.875 130.37 138.638 130.641 138.363 130.87C133.673 127.869 129.196 124.548 124.962 120.932C126.024 119.818 127.161 118.779 128.366 117.822ZM159.099 74.6663C159.53 67.0759 163.951 63.5546 168.568 62.6547C167.257 67.4672 167.472 73.7273 172.226 74.5293C174.495 74.901 175.61 73.7273 177.254 72.3579C184.277 66.489 178.604 60.6202 170.681 61.031C173.635 52.932 180.462 46.3393 189.52 46.1241C189.603 46.1241 189.682 46.0912 189.741 46.0325C189.8 45.9737 189.833 45.8941 189.833 45.8111C189.833 45.7281 189.8 45.6484 189.741 45.5897C189.682 45.5311 189.603 45.4981 189.52 45.4981C179.738 45.3025 172.05 52.3451 169.018 61.1484C163.795 62.0482 158.61 65.9608 158.473 74.5489C158.466 74.5902 158.466 74.6321 158.475 74.673C158.483 74.7139 158.5 74.7527 158.524 74.7876C158.547 74.8221 158.577 74.8516 158.613 74.8744C158.647 74.8971 158.687 74.9131 158.728 74.9206C158.769 74.9284 158.811 74.9277 158.852 74.9192C158.893 74.9106 158.932 74.8939 158.966 74.8704C159.001 74.8466 159.03 74.8167 159.053 74.7815C159.076 74.7467 159.092 74.7075 159.099 74.6663ZM170.231 62.4199C173.146 62.2243 177.489 63.1242 178.682 65.7652C179.367 67.2715 178.682 69.13 176.256 71.1645C175.597 71.8243 174.846 72.3845 174.026 72.8274C171.091 74.0794 167.844 70.4603 170.231 62.4199ZM175.826 339.097C173.936 338.59 171.964 338.468 170.025 338.736C168.087 339.003 166.221 339.655 164.539 340.654C162.857 341.652 161.391 342.977 160.228 344.552C159.066 346.125 158.229 347.915 157.769 349.818C156.9 353.769 157.636 357.904 159.815 361.311C161.995 364.72 165.439 367.123 169.389 367.992C173.34 368.861 177.475 368.125 180.883 365.946C184.291 363.766 186.694 360.323 187.563 356.371C187.935 354.465 187.925 352.506 187.535 350.603C187.145 348.701 186.382 346.896 185.292 345.29C184.2 343.685 182.802 342.311 181.178 341.248C179.553 340.185 177.734 339.454 175.826 339.097ZM181.871 355.041C181.086 358.171 179.206 360.918 176.573 362.783C173.939 364.65 170.725 365.512 167.511 365.214C164.561 364.061 162.112 361.904 160.595 359.125C159.078 356.343 158.59 353.117 159.217 350.013C159.949 346.807 161.81 343.97 164.461 342.023C167.112 340.077 170.375 339.15 173.654 339.41C176.633 340.641 179.083 342.883 180.572 345.742C182.06 348.602 182.493 351.895 181.792 355.041H181.871Z" fill="white"/>
<path d="M201.884 344.673C200.181 344.086 198.355 343.944 196.582 344.262C195.847 342.576 194.943 340.97 193.882 339.469C195.154 338.315 198.636 335.106 197.795 333.6C194.801 330.018 191.247 326.947 187.27 324.503C185.61 323.573 183.781 322.981 181.89 322.762C180.638 322.938 177.665 327.81 176.999 328.905C176.569 328.905 175.043 328.416 174.926 328.357C174.926 326.949 174.515 321.862 173.244 321.276C171.822 320.752 170.345 320.39 168.842 320.2C167.453 319.984 154.952 322.273 154.033 323.956C153.427 325.09 154.835 329.375 155.246 330.568C154.191 331.148 153.178 331.802 152.214 332.524C150.257 333.913 150.786 333.854 150.433 333.698C150.008 333.494 149.552 333.362 149.084 333.307C147.521 332.39 145.689 332.045 143.899 332.329C142.1 332.915 137.854 342.579 137.17 345.064C136.946 345.69 136.885 346.363 136.994 347.02C137.463 348.311 140.593 349.348 141.904 349.759C141.542 352.276 141.542 354.832 141.904 357.349C140.182 357.819 136.602 358.875 136.798 360.636C136.993 362.397 141.571 374.017 143.469 374.936C144.508 375.518 145.658 375.875 146.844 375.986C148.03 376.097 149.225 375.96 150.355 375.582C150.991 375.264 151.606 374.905 152.194 374.506C152.977 375.093 153.798 375.621 154.639 376.13C154.033 377.636 152.683 381.001 153.114 382.527C153.329 383.331 153.974 383.583 154.874 383.918C157.359 384.817 170.74 388.026 172.774 387.674C173.537 387.556 173.948 386.752 174.183 385.991C174.617 384.252 174.873 382.477 174.945 380.688C175.95 380.588 176.949 380.439 177.939 380.24C178.543 381.3 179.316 382.26 180.228 383.075C181.225 383.779 182.067 383.427 183.201 382.705C183.749 383.409 184.571 384.387 185.451 384.483C187.661 384.739 196.797 376.13 197.736 374.369C198.519 372.902 195.663 370.28 194.391 369.126C195.767 367.056 196.846 364.805 197.599 362.436C199.01 362.648 200.439 362.728 201.864 362.671C202.51 362.671 203.253 362.436 203.527 361.829C204.72 359.11 204.368 348.8 203.527 346.179C203.41 345.416 202.529 344.907 201.884 344.673ZM202.353 346.472C203.018 349.016 203.233 358.621 202.255 361.106C200.564 361.272 198.857 361.194 197.188 360.871C197.01 360.84 196.827 360.877 196.675 360.975C196.523 361.073 196.413 361.225 196.367 361.399C195.588 364.043 194.378 366.542 192.787 368.794C192.673 368.944 192.622 369.129 192.644 369.317C192.666 369.503 192.76 369.673 192.904 369.791C194.277 370.879 195.443 372.204 196.347 373.704C195.369 375.308 187.72 382.313 185.607 382.9C185.294 382.9 184.434 381.727 184.218 381.413C183.496 380.325 182.843 379.198 182.262 378.027C182.177 377.857 182.032 377.725 181.855 377.657C181.677 377.586 181.481 377.586 181.303 377.657C175.63 379.788 173.478 378.536 173.478 379.945C173.481 382.054 173.137 384.149 172.461 386.148C167.864 385.646 163.337 384.636 158.963 383.135C159.174 381.044 159.757 379.009 160.684 377.127C161.271 375.817 158.924 376.188 154.542 371.728C154.4 371.598 154.215 371.524 154.023 371.524C153.831 371.524 153.646 371.598 153.505 371.728C151.548 373.332 149.005 374.897 148.497 374.643C147.499 374.154 142.902 363.727 142.628 361.614C144.019 360.644 145.599 359.977 147.264 359.658C147.442 359.607 147.595 359.495 147.696 359.34C147.796 359.185 147.838 358.999 147.812 358.817C147.333 356.047 147.333 353.213 147.812 350.444C147.842 350.273 147.806 350.098 147.712 349.953C147.617 349.808 147.471 349.704 147.303 349.661C145.828 349.275 144.409 348.703 143.078 347.959C142.647 347.646 142.687 347.666 142.726 347.333C143.992 342.767 146.023 338.447 148.731 334.559C149.788 334.265 152.644 336.358 153.622 337.102C153.724 337.201 153.861 337.257 154.003 337.257C154.146 337.257 154.283 337.201 154.385 337.102C155.284 336.169 156.252 335.307 157.28 334.52C160.254 332.27 161.056 332.563 160.802 331.781C159.902 329.818 159.397 327.697 159.315 325.54C159.618 325.288 159.962 325.09 160.332 324.953C162.159 324.231 164.035 323.643 165.947 323.193C168.264 322.547 170.646 322.159 173.048 322.038C173.459 322.215 173.831 323.995 173.928 324.543C174.652 328.455 174.163 329.257 174.73 329.316C180.306 329.864 181.441 331.409 181.832 330.724C182.917 328.827 184.181 327.038 185.607 325.384C186.018 324.973 185.999 324.777 187.231 325.482C190.913 327.888 194.211 330.835 197.013 334.226C197.306 334.735 194.763 337.434 192.904 339.019C192.259 339.586 193.178 339.841 194.861 343.049C196.543 346.257 196.151 347.157 197.051 346.962C198.786 346.546 200.572 346.381 202.353 346.472ZM473.864 183.005C469.763 181.33 465.466 180.193 461.074 179.621C457.865 179.112 454.088 178.604 450.899 178.193C453.971 173.85 463.065 162.856 464.591 160.176C465.022 159.452 464.204 158.434 463.595 157.828C460.192 154.189 453.618 152.82 448.571 152.037C445.676 151.568 433.586 150.081 431.532 151.059C429.067 152.233 410.834 179.621 410.287 183.788C410.287 184.492 410.521 184.766 411.206 185.02C414.082 186.077 427.052 187.72 429.947 188.405C426.035 195.252 408.643 218.395 406.941 221.662C406.531 222.483 406.785 222.972 407.274 223.129C409.035 223.828 410.846 224.391 412.693 224.811C413.397 225.026 414.943 224.068 417.192 222.698C427.287 216.634 470.599 188.033 473.925 184.336C474.017 184.249 474.088 184.144 474.138 184.026C474.184 183.909 474.206 183.783 474.198 183.657C474.195 183.531 474.159 183.407 474.102 183.295C474.046 183.183 473.964 183.084 473.864 183.005ZM431.825 206.481C415.197 217.456 409.582 220.664 409.387 220.801C412.067 216.712 428.715 193.902 431.571 188.444C431.62 188.338 431.646 188.224 431.646 188.106C431.646 187.991 431.618 187.875 431.568 187.771C431.517 187.665 431.444 187.573 431.353 187.5C431.263 187.427 431.157 187.374 431.043 187.348C429.087 186.644 414.845 185.118 411.48 183.925C411.91 180.286 429.673 152.781 431.825 151.685C433.977 150.59 454.851 153.074 458.765 155.872C456.709 159.882 445.363 173.928 443.524 177.195C443.152 177.86 443.035 178.506 443.759 178.682C444.483 178.858 462.87 181.01 466.882 182.321C461.991 186.409 437.303 202.803 431.825 206.403V206.481ZM306.33 86.8736C306.33 87.0496 306.447 87.2648 306.741 88.3995C306.817 88.6456 306.987 88.8522 307.213 88.9764C307.438 89.1002 307.704 89.1318 307.953 89.0646C308.203 88.992 308.413 88.8234 308.537 88.5958C308.663 88.3685 308.692 88.1007 308.619 87.8517C308.423 87.0887 308.247 86.4432 308.129 86.1302C308.015 85.9153 307.826 85.7506 307.596 85.6685C307.368 85.586 307.117 85.5917 306.892 85.6845C306.667 85.7773 306.484 85.9505 306.382 86.1704C306.277 86.3902 306.258 86.6409 306.33 86.8736Z" fill="white"/>
</g>
<defs>
<clipPath id="clip0_435_687">
<rect width="590" height="552" fill="white"/>
</clipPath>
</defs>
</svg>
