<svg width="290" height="377" viewBox="0 0 290 377" fill="none" xmlns="http://www.w3.org/2000/svg">
<path d="M101.071 2.50008C98.5599 2.50008 96.7218 4.31432 95.4525 6.18801C94.1095 8.17043 92.9018 10.9413 91.7919 14.2912C89.5609 21.0249 87.5329 30.7032 85.7482 42.6783C82.3438 65.5219 79.7705 97.1069 78.4676 133.501C51.8115 108.688 27.6579 88.1735 9.09774 74.4279C-0.631887 67.2222 -8.90948 61.8126 -15.2485 58.6288C-18.402 57.0448 -21.2153 55.9395 -23.5667 55.4874C-25.7891 55.06 -28.3717 55.0768 -30.1475 56.8527C-31.9233 58.6284 -31.9402 61.2111 -31.5128 63.4335C-31.0606 65.7848 -29.9554 68.5981 -28.3714 71.7517C-25.1876 78.0907 -19.778 86.3683 -12.5723 96.0979C1.17326 114.658 21.6876 138.812 46.5012 165.468C10.1066 166.771 -21.4783 169.344 -44.3219 172.748C-56.2969 174.533 -65.9752 176.561 -72.7089 178.792C-76.0588 179.902 -78.8297 181.11 -80.8121 182.453C-82.6858 183.722 -84.5 185.56 -84.5 188.071C-84.5 190.583 -82.6858 192.421 -80.8121 193.69C-78.8297 195.033 -76.0588 196.241 -72.7089 197.351C-65.9752 199.582 -56.2969 201.61 -44.3218 203.394C-21.4782 206.799 10.1067 209.372 46.5014 210.675C21.6877 237.331 1.1734 261.485 -12.5721 280.045C-19.7779 289.774 -25.1874 298.052 -28.3713 304.391C-29.9553 307.545 -31.0605 310.358 -31.5127 312.709C-31.9401 314.932 -31.9232 317.514 -30.1474 319.29C-28.3716 321.066 -25.789 321.083 -23.5666 320.655C-21.2152 320.203 -18.4019 319.098 -15.2484 317.514C-8.90939 314.33 -0.631808 308.921 9.09781 301.715C27.6579 287.969 51.8115 267.455 78.4676 242.641C79.7705 279.036 82.3438 310.621 85.7482 333.464C87.5329 345.44 89.5609 355.118 91.7919 361.851C92.9018 365.201 94.1095 367.972 95.4525 369.955C96.7218 371.828 98.5599 373.643 101.071 373.643C103.583 373.643 105.421 371.828 106.69 369.955C108.033 367.972 109.241 365.201 110.351 361.851C112.582 355.118 114.61 345.44 116.394 333.464C119.799 310.621 122.372 279.036 123.675 242.641C150.331 267.455 174.485 287.969 193.045 301.715C202.774 308.92 211.052 314.33 217.391 317.514C220.544 319.098 223.358 320.203 225.709 320.655C227.931 321.083 230.514 321.066 232.29 319.29C234.066 317.514 234.083 314.932 233.655 312.709C233.203 310.358 232.098 307.545 230.514 304.391C227.33 298.052 221.92 289.774 214.715 280.045C200.969 261.485 180.455 237.331 155.641 210.675C192.036 209.372 223.621 206.799 246.464 203.394C258.439 201.61 268.118 199.582 274.851 197.351C278.201 196.241 280.972 195.033 282.955 193.69C284.828 192.421 286.642 190.583 286.642 188.071C286.642 185.56 284.828 183.722 282.955 182.453C280.972 181.11 278.201 179.902 274.851 178.792C268.118 176.561 258.439 174.533 246.464 172.748C223.621 169.344 192.036 166.771 155.641 165.468C180.455 138.812 200.969 114.658 214.715 96.0979C221.92 86.3683 227.33 78.0907 230.514 71.7518C232.098 68.5982 233.203 65.7849 233.655 63.4335C234.083 61.2111 234.066 58.6285 232.29 56.8527C230.514 55.0769 227.932 55.06 225.709 55.4874C223.358 55.9396 220.544 57.0449 217.391 58.6288C211.052 61.8127 202.774 67.2223 193.045 74.428C174.485 88.1735 150.331 108.688 123.675 133.501C122.372 97.1069 119.799 65.5219 116.394 42.6783C114.61 30.7032 112.582 21.0249 110.351 14.2912C109.241 10.9413 108.033 8.17043 106.69 6.18801C105.421 4.31432 103.583 2.50008 101.071 2.50008Z" stroke="white" stroke-opacity="0.1" stroke-width="5"/>
</svg>
