<svg width="112" height="112" viewBox="0 0 112 112" fill="none" xmlns="http://www.w3.org/2000/svg">
<rect width="112" height="112" rx="56" fill="#171B16"/>
<g clip-path="url(#clip0_439_2266)">
<path fill-rule="evenodd" clip-rule="evenodd" d="M37.9011 28.1543C37.9011 26.5617 39.1922 25.2705 40.7849 25.2705H73.834C75.4266 25.2705 76.7178 26.5617 76.7178 28.1543V34.9099H84.8503C86.4429 34.9099 87.7338 36.201 87.7338 37.7937C87.7338 47.5631 82.0675 53.5906 75.3215 54.3634C72.8048 60.7774 67.1187 65.5705 60.1923 66.6244C60.1929 66.6531 60.1935 66.6825 60.1935 66.7115V69.336H64.254C65.2234 69.336 66.1279 69.8228 66.6615 70.6321L72.1106 78.8944C72.6947 79.78 72.7452 80.9149 72.2421 81.8491C71.7393 82.7833 70.7639 83.366 69.7031 83.366H44.9163C43.8717 83.366 42.9087 82.801 42.399 81.8892C41.8893 80.9774 41.9126 79.8611 42.4598 78.9713L47.5411 70.709C48.0659 69.8559 48.9958 69.336 49.9975 69.336H54.4258V66.7115C54.4258 66.6825 54.4264 66.6534 54.4272 66.6244C47.5003 65.5708 41.8141 60.7777 39.2972 54.3634C32.5513 53.5907 26.8848 47.5631 26.8848 37.7937C26.8848 36.201 28.1759 34.9099 29.7686 34.9099H37.9011V28.1543ZM57.2983 75.1037H51.6095L50.0753 77.5983H64.3467L62.7015 75.1037H57.321H57.3096H57.2983ZM70.9501 37.7641V37.7937V47.0138C70.9153 54.8641 64.7432 61.0737 57.3093 61.0737C49.8667 61.0737 43.6889 54.8493 43.6687 46.9855V37.7937L43.6687 37.7766V31.0382H70.9501V37.7641ZM76.7175 47.0253V48.053C78.9908 47.0347 81.0709 44.7179 81.7416 40.6775H76.7178V46.9469L76.7175 47.0253ZM37.9011 46.9469V40.6775H32.8772C33.5477 44.7179 35.6279 47.0347 37.9011 48.053V46.9925L37.9011 46.9469Z" fill="#39CFFE"/>
</g>
<defs>
<clipPath id="clip0_439_2266">
<rect width="63.9048" height="61" fill="white" transform="translate(24 25)"/>
</clipPath>
</defs>
</svg>
