<svg width="112" height="112" viewBox="0 0 112 112" fill="none" xmlns="http://www.w3.org/2000/svg">
<rect width="112" height="112" rx="56" fill="#E5E5E5"/>
<g clip-path="url(#clip0_436_2219)">
<path d="M33.8228 33.6111H44.1561C46.0575 33.6111 47.3887 33.432 47.3887 35.3333V31.8889C47.3887 29.9876 46.0575 28.4444 44.1561 28.4444H30.3783C26.9339 28.4444 24.2076 32.1042 25.2117 37.0556C25.2117 37.0556 28.2962 53.2014 28.5132 54.2054C29.0867 56.8611 32.1712 59.4444 35.4727 59.4444H47.4559C49.359 59.4444 47.3887 56.1791 47.3887 54.2778V50.8333C47.3887 52.7347 46.0575 54.2778 44.1561 54.2778H37.2672C35.3659 54.2778 34.1104 52.4832 33.8228 50.8333C33.5352 49.1834 31.0948 38.2043 31.0948 38.2043C30.5213 34.9028 31.9197 33.6111 33.8228 33.6111ZM78.2768 33.6111H67.9435C66.0421 33.6111 62.8887 33.432 62.8887 35.3333V31.8889C62.8887 29.9876 66.0421 28.4444 67.9435 28.4444H81.7212C85.1657 28.4444 87.8937 32.1042 86.8879 37.0556C86.8879 37.0556 84.0755 53.2772 83.8378 54.2778C83.2282 56.8611 80.3211 59.4444 76.949 59.4444H64.642C62.7406 59.4444 62.8887 56.1791 62.8887 54.2778V50.8333C62.8887 52.7347 66.0421 54.2778 67.9435 54.2778H74.8323C76.7337 54.2778 77.9909 52.4832 78.2768 50.8333C78.5627 49.1834 81.0048 38.2043 81.0048 38.2043C81.5766 34.9028 80.1798 33.6111 78.2768 33.6111V33.6111ZM60.8772 62.8889C60.8772 50.9057 56.2117 62.8889 56.2117 62.8889C56.2117 62.8889 51.045 50.9057 51.045 62.8889C51.045 74.8721 45.3772 80.1111 45.3772 80.1111H66.5467C66.545 80.1111 60.8772 74.8721 60.8772 62.8889Z" fill="#FFAC33"/>
<path d="M75.1565 36.3271C75.1565 47.9951 63.497 67.6577 56.212 67.6577C48.9253 67.6577 37.2676 47.9951 37.2676 36.3271C37.2676 27.3801 38.9898 25.4443 42.4342 25.4443C44.8006 25.4443 52.8106 25.3978 56.212 25.3978L68.2676 25.3961C73.2913 25.3944 75.1565 26.5741 75.1565 36.3271V36.3271Z" fill="#FFCC4D"/>
<path d="M71.5 81.8333C71.5 83.7347 71.8909 85.2778 69.9896 85.2778H42.4341C40.531 85.2778 40.5 83.7347 40.5 81.8333V80.1111C40.5 78.2098 42.5047 76.6667 44.2992 76.6667H68.2674C70.0619 76.6667 71.5 78.2098 71.5 80.1111V81.8333V81.8333Z" fill="#C1694F"/>
<path d="M74.9446 84.6319C74.9446 85.9408 75.2287 87 72.7883 87H39.6356C37.4104 87 37.0557 85.9408 37.0557 84.6319V84.2014C37.0557 82.8925 38.3267 81.8333 39.6356 81.8333H72.7883C74.0955 81.8333 74.9446 82.8925 74.9446 84.2014V84.6319V84.6319Z" fill="#C1694F"/>
</g>
<defs>
<clipPath id="clip0_436_2219">
<rect width="62" height="62" fill="white" transform="translate(25 25)"/>
</clipPath>
</defs>
</svg>
