<svg width="590" height="552" viewBox="0 0 590 552" fill="none" xmlns="http://www.w3.org/2000/svg">
<g clip-path="url(#clip0_435_1434)">
<rect width="590" height="552" fill="#171B16"/>
<rect width="45.1425" height="45.1425" transform="matrix(4.37114e-08 -1 -1 -4.37114e-08 45.582 177.858)" fill="#F60B0B"/>
<path d="M45.582 87.5727L45.582 102.62L30.5345 102.62L30.5345 117.668L15.487 117.668L15.487 132.715L0.439551 132.715L0.439552 87.5727L45.582 87.5727Z" fill="white"/>
<path d="M113.296 -2.71225L135.867 19.859L113.296 42.4302L90.7247 19.859L113.296 -2.71225Z" fill="#F60B0B"/>
<path d="M45.582 177.858C33.1163 177.858 23.0108 187.963 23.0108 200.429C23.0108 212.895 33.1163 223 45.582 223L45.582 209.31C40.6771 209.31 36.7009 205.334 36.7009 200.429C36.701 195.524 40.6771 191.548 45.582 191.548L45.582 177.858Z" fill="#F60B0B"/>
<path d="M0.439447 223C12.9052 223 23.0107 212.895 23.0107 200.429C23.0107 187.963 12.9052 177.858 0.439453 177.858L0.439451 191.548C5.34434 191.548 9.32053 195.524 9.32053 200.429C9.32053 205.334 5.34434 209.31 0.439449 209.31L0.439447 223Z" fill="#F60B0B"/>
<path d="M135.867 -2.71216C135.867 9.75359 145.973 19.8591 158.439 19.8591C170.904 19.8591 181.01 9.75359 181.01 -2.71216L167.32 -2.71216C167.32 2.19273 163.343 6.16892 158.439 6.16892C153.534 6.16892 149.557 2.19273 149.557 -2.71216L135.867 -2.71216Z" fill="#F60B0B"/>
<path d="M181.01 42.4302C181.01 29.9645 170.904 19.859 158.438 19.859C145.973 19.859 135.867 29.9645 135.867 42.4302L149.557 42.4302C149.557 37.5254 153.534 33.5492 158.438 33.5492C163.343 33.5492 167.32 37.5254 167.32 42.4302L181.01 42.4302Z" fill="#F60B0B"/>
<path d="M76.2713 118.262L68.1534 132.715L60.0354 118.262L45.5821 110.144L60.0354 102.026L68.1534 87.5727L76.2713 102.026L90.7246 110.144L76.2713 118.262Z" fill="#F60B0B"/>
<path fill-rule="evenodd" clip-rule="evenodd" d="M41.7434 61.1628C43.8634 61.1628 45.582 62.8814 45.582 65.0014C45.582 67.1215 43.8634 68.8401 41.7434 68.8401L37.5354 68.8401L41.1939 70.9191C43.0371 71.9665 43.6822 74.3099 42.6348 76.1531C41.5873 77.9963 39.244 78.6413 37.4008 77.5939L33.2373 75.2279L35.6034 79.3915C36.6508 81.2347 36.0057 83.5781 34.1625 84.6255C32.3193 85.6729 29.976 85.0278 28.9285 83.1846L26.8494 79.526L26.8494 83.7339C26.8494 85.854 25.1308 87.5726 23.0108 87.5726C20.8908 87.5726 19.1721 85.854 19.1721 83.7339L19.1721 79.5257L17.093 83.1844C16.0456 85.0276 13.7023 85.6727 11.8591 84.6253C10.0159 83.5778 9.37078 81.2345 10.4182 79.3913L12.7839 75.2282L8.6208 77.594C6.77759 78.6415 4.43427 77.9964 3.38684 76.1532C2.3394 74.31 2.98449 71.9667 4.8277 70.9192L8.4864 68.8401L4.2782 68.8401C2.15817 68.8401 0.439549 67.1215 0.439549 65.0014C0.43955 62.8814 2.15817 61.1628 4.2782 61.1628L8.48654 61.1628L4.8277 59.0836C2.98449 58.0362 2.3394 55.6928 3.38684 53.8496C4.43427 52.0064 6.77759 51.3613 8.6208 52.4088L12.7839 54.7746L10.4182 50.6115C9.37078 48.7683 10.0159 46.425 11.8591 45.3776C13.7023 44.3301 16.0456 44.9752 17.093 46.8184L19.1721 50.4771L19.1721 46.2687C19.1721 44.1487 20.8908 42.4301 23.0108 42.4301C25.1308 42.4301 26.8494 44.1487 26.8494 46.2687L26.8494 50.4768L28.9285 46.8182C29.976 44.975 32.3193 44.3299 34.1625 45.3773C36.0057 46.4247 36.6508 48.7681 35.6034 50.6113L33.2373 54.7749L37.4008 52.4089C39.244 51.3615 41.5873 52.0066 42.6348 53.8498C43.6822 55.693 43.0371 58.0363 41.1939 59.0837L37.5353 61.1628L41.7434 61.1628Z" fill="#F60B0B"/>
<path d="M68.1533 79.2626C65.8217 84.3343 62.2725 87.5727 58.2972 87.5727C51.2748 87.5727 45.582 77.4672 45.582 65.0015C45.582 52.5357 51.2748 42.4302 58.2972 42.4302C62.2724 42.4302 65.8217 45.6686 68.1533 50.7403C70.4849 45.6686 74.0341 42.4302 78.0094 42.4302C85.0317 42.4302 90.7245 52.5357 90.7245 65.0015C90.7245 77.4672 85.0318 87.5727 78.0094 87.5727C74.0341 87.5727 70.4849 84.3343 68.1533 79.2626Z" fill="white"/>
<path d="M70.6551 13.8193C70.3514 4.28619 69.3464 -2.71224 68.1534 -2.71224C66.9604 -2.71224 65.9554 4.28619 65.6516 13.8193C58.696 7.29314 53.0367 3.05515 52.1931 3.89873C51.3495 4.7423 55.5875 10.4016 62.1137 17.3573C52.5806 17.661 45.5821 18.666 45.5821 19.859C45.5821 21.052 52.5806 22.057 62.1137 22.3607C55.5875 29.3164 51.3495 34.9757 52.1931 35.8193C53.0367 36.6628 58.696 32.4249 65.6516 25.8987C65.9554 35.4318 66.9604 42.4302 68.1534 42.4302C69.3464 42.4302 70.3514 35.4318 70.6551 25.8987C77.6108 32.4249 83.2701 36.6629 84.1136 35.8193C84.9572 34.9757 80.7192 29.3164 74.193 22.3607C83.7262 22.057 90.7246 21.052 90.7246 19.859C90.7246 18.666 83.7262 17.661 74.1931 17.3573C80.7192 10.4016 84.9572 4.74229 84.1137 3.89872C83.2701 3.05515 77.6108 7.29314 70.6551 13.8193Z" fill="#F60B0B"/>
<path fill-rule="evenodd" clip-rule="evenodd" d="M101.003 52.8855L101.39 42.4303L113.571 54.1731L125.752 42.4302L126.14 52.8849L136.143 54.0706L124.804 65.0015L136.143 75.9323L126.14 77.1181L125.752 87.5728L113.571 75.8298L101.39 87.5727L101.003 77.1174L91.0001 75.9322L102.339 65.0015L91.0001 54.0707L101.003 52.8855Z" fill="#F60B0B"/>
<path fill-rule="evenodd" clip-rule="evenodd" d="M39.563 19.859C39.563 29.0005 32.1523 36.4112 23.0108 36.4112C13.8692 36.4112 6.45854 29.0005 6.45854 19.859C6.45855 10.7174 13.8692 3.30675 23.0108 3.30675C32.1523 3.30675 39.563 10.7174 39.563 19.859ZM23.0108 42.4302C35.4765 42.4302 45.582 32.3247 45.582 19.859C45.582 7.39324 35.4765 -2.71225 23.0108 -2.71225C10.545 -2.71225 0.439545 7.39324 0.439544 19.859C0.439544 32.3247 10.545 42.4302 23.0108 42.4302Z" fill="white"/>
<path fill-rule="evenodd" clip-rule="evenodd" d="M29.0065 19.8589C29.0065 23.1702 26.3222 25.8544 23.011 25.8544C19.6998 25.8544 17.0155 23.1702 17.0155 19.8589C17.0155 16.5477 19.6998 13.8635 23.011 13.8635C26.3222 13.8635 29.0065 16.5477 29.0065 19.8589ZM23.011 31.8499C29.6334 31.8499 35.002 26.4814 35.002 19.8589C35.002 13.2365 29.6334 7.86797 23.011 7.86797C16.3886 7.86797 11.02 13.2365 11.02 19.8589C11.02 26.4814 16.3886 31.8499 23.011 31.8499Z" fill="#F60B0B"/>
<path d="M45.3751 155.308C45.3751 142.842 55.4806 132.736 67.9463 132.736C80.4121 132.736 90.5176 142.842 90.5176 155.308L67.9463 155.308L67.9463 177.879C55.4806 177.879 45.3751 167.773 45.3751 155.308Z" fill="white"/>
<rect x="544.428" y="177.858" width="45.1425" height="45.1425" transform="rotate(-90 544.428 177.858)" fill="#F60B0B"/>
<path d="M544.428 87.5727L544.428 102.62L559.475 102.62L559.475 117.668L574.523 117.668L574.523 132.715L589.57 132.715L589.57 87.5727L544.428 87.5727Z" fill="white"/>
<path d="M476.714 -2.71225L454.143 19.859L476.714 42.4302L499.285 19.859L476.714 -2.71225Z" fill="#F60B0B"/>
<path d="M544.428 177.858C556.893 177.858 566.999 187.963 566.999 200.429C566.999 212.895 556.893 223 544.428 223L544.428 209.31C549.333 209.31 553.309 205.334 553.309 200.429C553.309 195.524 549.333 191.548 544.428 191.548L544.428 177.858Z" fill="#F60B0B"/>
<path d="M589.57 223C577.105 223 566.999 212.895 566.999 200.429C566.999 187.963 577.105 177.858 589.57 177.858L589.57 191.548C584.665 191.548 580.689 195.524 580.689 200.429C580.689 205.334 584.665 209.31 589.57 209.31L589.57 223Z" fill="#F60B0B"/>
<path d="M454.142 -2.71216C454.142 9.75359 444.037 19.8591 431.571 19.8591C419.105 19.8591 409 9.75359 409 -2.71216L422.69 -2.71216C422.69 2.19273 426.666 6.16892 431.571 6.16892C436.476 6.16892 440.452 2.19273 440.452 -2.71216L454.142 -2.71216Z" fill="#F60B0B"/>
<path d="M409 42.4302C409 29.9645 419.106 19.859 431.571 19.859C444.037 19.859 454.143 29.9645 454.143 42.4302L440.452 42.4302C440.452 37.5254 436.476 33.5492 431.571 33.5492C426.666 33.5492 422.69 37.5254 422.69 42.4302L409 42.4302Z" fill="#F60B0B"/>
<path d="M513.738 118.262L521.856 132.715L529.974 118.262L544.428 110.144L529.974 102.026L521.856 87.5727L513.738 102.026L499.285 110.144L513.738 118.262Z" fill="#F60B0B"/>
<path fill-rule="evenodd" clip-rule="evenodd" d="M548.266 61.1628C546.146 61.1628 544.428 62.8814 544.428 65.0014C544.428 67.1215 546.146 68.8401 548.266 68.8401L552.474 68.8401L548.816 70.9191C546.973 71.9665 546.328 74.3099 547.375 76.1531C548.422 77.9963 550.766 78.6413 552.609 77.5939L556.772 75.2279L554.406 79.3915C553.359 81.2347 554.004 83.5781 555.847 84.6255C557.69 85.6729 560.034 85.0278 561.081 83.1846L563.16 79.526L563.16 83.7339C563.16 85.854 564.879 87.5726 566.999 87.5726C569.119 87.5726 570.838 85.854 570.838 83.7339L570.838 79.5257L572.917 83.1844C573.964 85.0276 576.307 85.6727 578.151 84.6253C579.994 83.5778 580.639 81.2345 579.592 79.3913L577.226 75.2282L581.389 77.594C583.232 78.6415 585.575 77.9964 586.623 76.1532C587.67 74.31 587.025 71.9667 585.182 70.9192L581.523 68.8401L585.732 68.8401C587.852 68.8401 589.57 67.1215 589.57 65.0014C589.57 62.8814 587.852 61.1628 585.732 61.1628L581.523 61.1628L585.182 59.0836C587.025 58.0362 587.67 55.6928 586.623 53.8496C585.575 52.0064 583.232 51.3613 581.389 52.4088L577.226 54.7746L579.592 50.6115C580.639 48.7683 579.994 46.425 578.151 45.3776C576.307 44.3301 573.964 44.9752 572.917 46.8184L570.838 50.4771L570.838 46.2687C570.838 44.1487 569.119 42.4301 566.999 42.4301C564.879 42.4301 563.16 44.1487 563.16 46.2687L563.16 50.4768L561.081 46.8182C560.034 44.975 557.69 44.3299 555.847 45.3773C554.004 46.4247 553.359 48.7681 554.406 50.6113L556.772 54.7749L552.609 52.4089C550.766 51.3615 548.422 52.0066 547.375 53.8498C546.328 55.693 546.973 58.0363 548.816 59.0837L552.474 61.1628L548.266 61.1628Z" fill="#F60B0B"/>
<path d="M521.856 79.2626C524.188 84.3343 527.737 87.5727 531.713 87.5727C538.735 87.5727 544.428 77.4672 544.428 65.0015C544.428 52.5357 538.735 42.4302 531.713 42.4302C527.737 42.4302 524.188 45.6686 521.856 50.7403C519.525 45.6686 515.976 42.4302 512 42.4302C504.978 42.4302 499.285 52.5357 499.285 65.0015C499.285 77.4672 504.978 87.5727 512 87.5727C515.976 87.5727 519.525 84.3343 521.856 79.2626Z" fill="white"/>
<path d="M519.355 13.8193C519.658 4.28619 520.663 -2.71224 521.856 -2.71224C523.049 -2.71224 524.054 4.28619 524.358 13.8193C531.314 7.29314 536.973 3.05515 537.817 3.89873C538.66 4.7423 534.422 10.4016 527.896 17.3573C537.429 17.661 544.428 18.666 544.428 19.859C544.428 21.052 537.429 22.057 527.896 22.3607C534.422 29.3164 538.66 34.9757 537.817 35.8193C536.973 36.6628 531.314 32.4249 524.358 25.8987C524.054 35.4318 523.049 42.4302 521.856 42.4302C520.663 42.4302 519.658 35.4318 519.355 25.8987C512.399 32.4249 506.74 36.6629 505.896 35.8193C505.053 34.9757 509.291 29.3164 515.817 22.3607C506.284 22.057 499.285 21.052 499.285 19.859C499.285 18.666 506.284 17.661 515.817 17.3573C509.291 10.4016 505.053 4.74229 505.896 3.89872C506.74 3.05515 512.399 7.29314 519.355 13.8193Z" fill="#F60B0B"/>
<path fill-rule="evenodd" clip-rule="evenodd" d="M489.007 52.8855L488.62 42.4303L476.438 54.1731L464.257 42.4302L463.87 52.8849L453.867 54.0706L465.206 65.0015L453.867 75.9323L463.87 77.1181L464.257 87.5728L476.439 75.8298L488.62 87.5727L489.007 77.1174L499.01 75.9322L487.671 65.0015L499.01 54.0707L489.007 52.8855Z" fill="#F60B0B"/>
<path fill-rule="evenodd" clip-rule="evenodd" d="M550.447 19.859C550.447 29.0005 557.857 36.4112 566.999 36.4112C576.141 36.4112 583.551 29.0005 583.551 19.859C583.551 10.7174 576.141 3.30675 566.999 3.30675C557.857 3.30675 550.447 10.7174 550.447 19.859ZM566.999 42.4302C554.533 42.4302 544.428 32.3247 544.428 19.859C544.428 7.39324 554.533 -2.71225 566.999 -2.71225C579.465 -2.71225 589.57 7.39324 589.57 19.859C589.57 32.3247 579.465 42.4302 566.999 42.4302Z" fill="white"/>
<path fill-rule="evenodd" clip-rule="evenodd" d="M561.003 19.8589C561.003 23.1702 563.688 25.8544 566.999 25.8544C570.31 25.8544 572.994 23.1702 572.994 19.8589C572.994 16.5477 570.31 13.8635 566.999 13.8635C563.688 13.8635 561.003 16.5477 561.003 19.8589ZM566.999 31.8499C560.376 31.8499 555.008 26.4814 555.008 19.8589C555.008 13.2365 560.376 7.86797 566.999 7.86797C573.621 7.86797 578.99 13.2365 578.99 19.8589C578.99 26.4814 573.621 31.8499 566.999 31.8499Z" fill="#F60B0B"/>
<path d="M544.635 155.308C544.635 142.842 534.529 132.736 522.063 132.736C509.598 132.736 499.492 142.842 499.492 155.308L522.063 155.308L522.063 177.879C534.529 177.879 544.635 167.773 544.635 155.308Z" fill="white"/>
<path fill-rule="evenodd" clip-rule="evenodd" d="M358.06 73.9628C356.502 74.6679 356.966 74.7683 359.765 74.3335C363.289 73.7866 363.722 74.013 364.987 77.0641C365.746 78.8941 366.578 80.1803 366.835 79.9218C367.094 79.6632 366.536 77.9657 365.595 76.1486C363.853 72.7834 361.91 72.2194 358.06 73.9628ZM353.048 75.7106C353.819 76.0193 354.742 75.9808 355.097 75.6262C355.452 75.2715 354.821 75.0194 353.694 75.0653C352.449 75.1166 352.195 75.3698 353.048 75.7106ZM344.16 77.6922C339.944 79.1494 339.936 79.1611 343.626 78.5394C347.987 77.8044 352.447 76.1774 350.041 76.1988C349.159 76.2073 346.513 76.8782 344.16 77.6922ZM292.84 78.7338C279.791 81.1503 264.704 85.3305 238.848 93.6952C225.029 98.166 206.746 103.449 198.219 105.434C180.156 109.64 174.55 111.494 169.182 115.034L165.27 117.614L169.311 128.079C171.534 133.835 173.675 139.587 174.07 140.862L174.787 143.18L169.129 141.017C149.682 133.584 128.77 148.079 128.77 168.99C128.77 189.371 148.691 203.802 167.985 197.398C173.387 195.606 181.305 189.716 183.286 186.018C183.88 184.91 182.052 186.314 179.227 189.138C173.343 195.016 166.482 197.847 158.202 197.811C150.881 197.779 143.685 194.502 143.709 191.21C143.733 187.781 147.913 180.84 151.56 178.171L154.617 175.934L156.234 178.338C157.933 180.863 160.222 181.469 161.325 179.685C161.708 179.066 161.248 178.909 160.211 179.307C159.211 179.691 158.035 179.338 157.499 178.494C155.944 176.04 156.371 175.544 159.352 176.341C161.695 176.967 162.44 178.102 163.672 182.925C165.45 189.879 168.283 193.623 168.283 189.02C168.283 187.446 167.539 183.97 166.631 181.296C165.198 177.081 165.18 176.146 166.494 174.271C168 172.123 168.014 172.123 168.566 174.232C168.928 175.615 168.509 176.541 167.366 176.885C166.191 177.239 166.317 177.339 167.748 177.188C169.408 177.013 169.809 176.31 169.542 174.044C169.294 171.937 169.675 171.127 170.914 171.127C174.242 171.127 179.643 174.082 182.489 177.461C184.072 179.342 185.764 180.636 186.248 180.337C186.732 180.039 189.081 186.136 191.467 193.888L195.806 207.983L190.865 209.374C177.4 213.163 155.295 220.467 155.79 220.963C156.758 221.929 167.709 219.233 182.25 214.449C191.519 211.399 196.397 210.251 196.692 211.05C197.197 212.42 202.496 230.148 202.496 230.468C202.496 230.584 200.628 230.977 198.344 231.341C192.359 232.297 163.236 241.856 164.716 242.379C165.977 242.825 182.846 238.172 194.378 234.197C197.85 232.999 201.233 232.019 201.893 232.019C203.035 232.019 211.589 258.543 210.725 259.406C210.5 259.633 202.662 262.184 193.307 265.077C183.954 267.97 174.617 271.113 172.559 272.063L168.817 273.79L173.61 273.15C177.527 272.626 203.729 264.259 210.046 261.515C211.418 260.919 212.551 263.616 216.38 276.583C218.945 285.27 221.234 292.934 221.468 293.615C221.721 294.346 219.346 295.583 215.67 296.637C202.159 300.511 176.364 309.285 177.416 309.649C178.029 309.861 188.359 306.93 200.372 303.134C212.386 299.339 222.253 296.327 222.3 296.443C222.347 296.557 223.237 299.535 224.276 303.061C225.315 306.586 228.378 316.561 231.083 325.226C233.788 333.89 235.756 341.225 235.456 341.524C235.157 341.825 229.662 344.049 223.247 346.467C209.432 351.676 195.083 354.84 185.182 354.859L178.024 354.873L174.282 342.854C160.324 298.027 116.641 153.648 114.243 144.42C113.923 143.188 118.989 141.146 136.145 135.592C160.162 127.819 167.323 125.115 165.559 124.487C164.944 124.268 155.321 127.175 144.176 130.948C113.459 141.343 111.44 142.18 112.092 144.246C112.401 145.223 116.71 159.723 121.668 176.468C135.774 224.113 167.503 328.042 173.768 347.128L177.012 357.009L180.933 357.006C194.46 356.995 214.834 352.511 229.705 346.269C234.941 344.071 237.358 343.51 237.891 344.37C242.101 351.178 347.625 326.672 379.812 311.414C386.696 308.149 387.583 307.404 387.003 305.376C384.843 297.821 384.905 297.502 388.692 296.765C390.662 296.381 395.135 294.891 398.632 293.455C402.13 292.018 405.184 291.034 405.419 291.269C405.655 291.504 402.479 300.984 398.363 312.335C389.891 335.699 384.254 352.984 384.254 355.602C384.254 356.578 385.018 358.218 385.951 359.248C387.533 360.996 387.069 361.508 379.005 366.903C374.251 370.083 370.608 372.931 370.91 373.231C371.505 373.827 385.926 373.259 391.361 372.426C394.391 371.961 394.766 371.489 395.129 367.694C395.486 363.956 395.207 363.344 392.672 362.294C391.098 361.644 388.724 359.955 387.395 358.541L384.979 355.971L389.538 341.801C392.045 334.008 398.206 316.575 403.228 303.061C408.248 289.547 415.142 270.115 418.547 259.878L424.736 241.267L451.492 241.183C477.431 241.102 478.262 241.165 478.665 243.236C478.949 244.696 479.049 244.543 478.978 242.756L478.876 240.138L458.027 240.353C446.56 240.471 434.223 240.181 430.611 239.708L424.043 238.848L421.044 248.998C418.061 259.089 418.037 259.128 416.606 255.999L415.168 252.851L415.926 256.056C417.124 261.118 416.804 262.777 412.074 275.999L407.616 288.464L399.41 291.748C394.897 293.554 389.722 295.32 387.912 295.671L384.619 296.311L381.048 282.769C378.467 272.979 377.819 269.014 378.711 268.463C379.39 268.044 384.642 266.567 390.385 265.18C396.128 263.793 400.25 262.462 399.545 262.224C398.841 261.986 393.584 263.035 387.863 264.556C380.478 266.521 377.247 266.975 376.72 266.124C375.597 264.308 371.224 247.888 371.729 247.384C371.971 247.141 377.638 245.422 384.322 243.563C391.005 241.705 395.88 239.987 395.155 239.745C394.431 239.504 388.734 240.81 382.495 242.649C376.257 244.487 371.043 245.853 370.908 245.683C370.589 245.279 355.171 192.268 354.99 190.953C354.914 190.401 355.574 189.791 356.456 189.599C357.488 189.374 359.065 191.258 360.875 194.877C362.423 197.972 365.487 204.11 367.683 208.517C372.275 217.733 375.212 221.337 378.129 221.337C379.259 221.337 382.345 223.237 384.986 225.56C390.538 230.443 396.466 233.5 404.034 235.382C410.97 237.107 410.828 236.949 413.111 245.512C414.187 249.548 415.105 252.13 415.151 251.249C415.197 250.367 414.524 247.002 413.656 243.771C411.62 236.187 411.605 236.293 414.656 236.293C416.088 236.293 418.573 235.794 420.18 235.183C422.382 234.346 423.316 234.412 423.976 235.45C424.627 236.475 424.854 236.363 424.867 235.01C424.881 233.337 425.243 233.356 429.427 235.253C434.6 237.599 442.278 238.01 443.863 236.026C444.45 235.292 445.157 230.991 445.434 226.47C445.872 219.312 446.601 216.932 451.063 208.065C455.922 198.415 456.159 197.543 455.602 191.409C454.922 183.909 452.773 180.058 448.195 178.135L444.939 176.766L447.804 176.219C454.331 174.973 467.649 185.736 467.649 192.257C467.649 193.072 468.251 193.542 468.986 193.3C471.008 192.638 471.226 186.271 469.327 183.374C468.404 181.968 467.649 179.651 467.649 178.227C467.649 176.803 466.751 174.529 465.654 173.175C464.002 171.137 463.84 170.061 464.71 166.914C466.275 161.248 465.092 150.531 462.424 146.217C459.694 141.803 452.748 138.584 443.831 137.599C436.828 136.825 432.944 138.252 429.237 142.96C427.168 145.588 427.125 145.969 428.693 147.7C430.077 149.228 430.161 150.028 429.138 151.937C428.288 153.525 428.26 154.056 429.052 153.566C429.707 153.162 430.228 153.547 430.228 154.434C430.228 156.895 434.352 157.708 436.588 155.687C438.373 154.072 438.804 154.079 442.391 155.788C444.522 156.804 446.266 157.971 446.266 158.381C446.266 158.791 447.276 159.391 448.512 159.713C451.197 160.415 450.236 162.581 447.239 162.581C444.152 162.581 443.348 165.776 445.912 167.851C447.089 168.803 448.362 170.81 448.738 172.31C449.355 174.763 449.025 175.134 445.438 176.022C441.998 176.874 441.309 176.726 440.386 174.936C439.797 173.797 437.632 172.429 435.574 171.899C430.084 170.484 429.159 169.284 429.159 163.582C429.159 160.75 428.671 158.131 428.073 157.763C427.475 157.393 427.309 156.569 427.703 155.932C428.149 155.211 427.919 155.082 427.093 155.592C426.137 156.183 426.091 156.737 426.928 157.574C427.567 158.212 428.098 160.922 428.106 163.596C428.128 169.869 428.915 170.966 434.608 172.643C440.522 174.385 441.261 176.917 436.446 178.936C431.539 180.993 415.797 193.012 413.156 196.718C411.962 198.394 410.983 201.005 410.983 202.519C410.983 204.62 410.287 205.456 408.043 206.051C404.22 207.066 390.398 207.125 384.254 206.153C380.244 205.518 379.888 205.588 382.116 206.572C385.233 207.949 403.734 208.365 408.067 207.155C410.137 206.577 411.143 206.738 411.405 207.689C414.15 217.681 415.936 222.126 419.084 226.8C423.808 233.813 423.04 234.698 412.263 234.665C405.22 234.643 403.021 234.149 397.01 231.231C388.426 227.064 381.116 220.795 377.344 214.364C375.786 211.707 374.063 209.811 373.514 210.149C372.954 210.496 372.819 209.922 373.207 208.84C374.342 205.664 375.768 204.337 377.383 204.955C378.423 205.355 378.908 204.783 378.908 203.16C378.908 201.163 378.649 200.993 377.305 202.107C375.998 203.191 375.701 203.135 375.701 201.804C375.701 200.793 374.988 200.338 373.83 200.612C371.973 201.049 365.286 191.86 366.546 190.601C366.85 190.297 372.283 188.695 378.618 187.041C384.951 185.388 388.864 184.015 387.313 183.99C385.761 183.967 380.096 185.086 374.727 186.48C366.251 188.68 364.845 188.805 364.073 187.427C363.432 186.283 364.49 184.635 367.855 181.536C370.673 178.941 374.111 174.031 376.519 169.161C383.814 154.414 381.718 137.791 370.902 124.602C363.049 115.027 350.296 109.753 336.549 110.397L328.603 110.769L323.844 99.0174C321.227 92.5543 319.074 86.6659 319.06 85.9309C319.047 85.197 318.613 84.5955 318.095 84.5955C317.579 84.5955 316.551 83.1384 315.814 81.3565C315.075 79.5746 314.262 78.3257 314.008 78.58C313.753 78.8332 314.769 81.4537 316.264 84.4022C318.584 88.9766 327.588 110.674 327.588 111.689C327.588 111.879 325.785 112.583 323.579 113.253C318.101 114.922 309.76 121.481 305.409 127.542C283.868 157.546 310.451 199.929 346.164 192.521C349.565 191.815 352.556 191.445 352.809 191.698C353.446 192.334 383.927 299.165 384.803 303.829L385.51 307.598L376.129 310.991C352.423 319.56 312.73 330.675 286.351 336.129C271.748 339.148 239.837 344.488 239.399 343.986C238.363 342.796 221.337 288.957 206.861 241.1C185.611 170.837 187.328 176.132 186.317 177.764C185.706 178.753 184.54 178.207 181.961 175.721C177.437 171.36 173.274 169.828 168.418 170.737C164.718 171.429 164.614 171.368 166.144 169.425C167.629 167.54 167.608 167.498 165.864 168.865C164.565 169.883 164.307 170.737 165.037 171.614C165.743 172.466 165.677 173.303 164.836 174.144C163.055 175.923 158.709 175.704 157.978 173.798C157.639 172.916 156.43 172.195 155.29 172.195C154.149 172.195 152.014 170.993 150.544 169.525C149.074 168.056 147.412 166.854 146.851 166.854C144.331 166.854 146.184 163.53 149.467 162.159C151.468 161.324 154.187 159.178 155.51 157.39C157.726 154.396 158.089 154.262 160.129 155.689C161.347 156.542 163.67 157.239 165.292 157.239C168.166 157.239 168.229 157.368 167.754 162.314L167.267 167.388L168.274 162.727C170.55 152.196 161.649 145.655 151.558 150.44C147.319 152.449 144.96 156.346 144.581 161.961C144.294 166.229 147.289 169.701 153.849 172.699L157.056 174.166L154.359 175.198C150.078 176.837 144.804 182.955 143.336 187.985L141.986 192.607L139.32 190.511C133.976 186.312 130.339 177.789 130.363 169.525C130.427 147.631 151.275 134.011 171.161 142.873L175.643 144.871L180.76 160.069C183.575 168.43 186.057 175.088 186.279 174.868C186.825 174.322 179.965 153.72 172.843 134.516C168.167 121.912 167.246 118.425 168.268 117.195C170.301 114.748 180.274 111.463 196.179 108.002C204.282 106.239 219.724 101.98 230.493 98.5388C264.877 87.5515 276.99 84.2975 300.325 79.7775C312.227 77.4722 312.691 77.2938 306.74 77.3205C303.211 77.3354 296.957 77.9721 292.84 78.7338ZM337.011 79.9837C337.782 80.2924 338.705 80.254 339.059 79.8993C339.414 79.5446 338.784 79.2925 337.657 79.3385C336.411 79.3897 336.158 79.6429 337.011 79.9837ZM330.261 81.3907C328.913 81.9697 328.716 82.3083 329.727 82.3083C330.609 82.3083 332.293 81.896 333.469 81.3907C334.817 80.8116 335.014 80.473 334.003 80.473C333.121 80.473 331.437 80.8854 330.261 81.3907ZM367.681 83.2602C368.1 84.2889 369.168 87.1989 370.054 89.7276C370.94 92.2573 371.868 94.1225 372.117 93.8747C372.685 93.3074 368.269 81.3907 367.491 81.3907C367.176 81.3907 367.262 82.2314 367.681 83.2602ZM325.25 83.1886C326.021 83.4973 326.944 83.4589 327.299 83.1042C327.654 82.7495 327.023 82.4974 325.896 82.5433C324.65 82.5946 324.397 82.8478 325.25 83.1886ZM320.973 84.2569C321.744 84.5656 322.667 84.5271 323.022 84.1725C323.377 83.8178 322.746 83.5657 321.619 83.6116C320.374 83.6629 320.12 83.9161 320.973 84.2569ZM372.493 96.3467C372.493 97.1298 372.814 97.4502 373.207 97.0593C373.598 96.6672 373.598 96.0262 373.207 95.6342C372.814 95.2432 372.493 95.5636 372.493 96.3467ZM364.296 98.1275C364.688 98.5185 365.33 98.5185 365.722 98.1275C366.114 97.7355 365.793 97.415 365.009 97.415C364.226 97.415 363.905 97.7355 364.296 98.1275ZM346.523 101.924C339.59 103.706 334.133 105.379 334.397 105.643C334.942 106.187 362.871 99.5932 362.871 98.9202C362.871 98.0239 358.788 98.7739 346.523 101.924ZM373.725 99.5516C373.725 100.433 374.374 102.837 375.166 104.893C375.959 106.949 376.608 107.911 376.608 107.03C376.608 106.148 375.959 103.745 375.166 101.688C374.374 99.6317 373.725 98.6702 373.725 99.5516ZM270.923 109.132C253.03 115.078 251.936 116.248 269.319 110.847C283.446 106.456 290.205 103.974 288.029 103.977C287.147 103.979 279.449 106.298 270.923 109.132ZM376.901 109.7C376.856 110.288 377.764 114.134 378.92 118.247C380.076 122.36 380.782 124.008 380.486 121.909C379.904 117.748 377.032 107.972 376.901 109.7ZM208.376 112.733C193.808 117.555 185.389 128.768 185.389 143.351C185.389 154.896 192.017 166.33 201.514 171.172C207.819 174.385 207.987 173.633 201.761 170.065C180.535 157.902 181.659 126.144 203.677 115.909C217.827 109.331 235.646 114.549 243.119 127.458C243.986 128.955 243.325 128.897 238.278 127.04C235.063 125.857 232.433 124.31 232.433 123.603C232.433 121.316 228.611 118.781 225.164 118.781C223.318 118.781 219.881 117.778 217.526 116.551C213.84 114.632 212.729 114.494 209.51 115.555C205.637 116.832 200.358 122.108 200.358 124.702C200.358 125.52 198.691 127.853 196.655 129.888C191.673 134.865 191.055 137.925 193.861 143.717C195.68 147.473 195.916 148.987 195.038 151.292C192.994 156.666 193.722 160.195 197.809 164.714C202.573 169.983 202.927 169.992 204.459 164.88C205.138 162.618 206.93 159.435 208.441 157.803L211.191 154.839L214.061 157.556L216.93 160.274L218.867 157.666C219.933 156.232 221.33 155.384 221.973 155.78C222.654 156.201 222.836 156.01 222.411 155.322C222.009 154.672 222.657 153.62 223.849 152.982C225.041 152.344 226.032 152.2 226.05 152.662C226.068 153.123 226.572 152.659 227.172 151.631C229.444 147.734 244.201 150.699 245.042 155.221C245.569 158.054 238.626 166.079 232.436 169.792C229.252 171.701 227.107 173.261 227.668 173.259C229.267 173.253 235.863 169.065 239.19 165.944C244.399 161.057 249.212 151.501 246.145 152.138C245.267 152.32 244.851 151.619 245.051 150.295C245.228 149.12 245.708 145.755 246.119 142.817L246.864 137.476L247.482 144.42L248.101 151.364L248.285 144.343C248.528 135.141 246.2 128.6 240.384 122.137C232.564 113.446 218.609 109.346 208.376 112.733ZM276.268 119.798C267.742 122.646 261.487 124.999 262.369 125.028C263.251 125.056 270.949 122.749 279.476 119.9C288.002 117.052 294.257 114.699 293.375 114.67C292.493 114.642 284.795 116.949 276.268 119.798ZM349.069 118.118C351.662 118.929 354.704 119.972 355.829 120.437C357.422 121.094 357.681 120.945 356.995 119.764C356.472 118.864 356.509 118.609 357.087 119.137C357.621 119.627 358.06 120.548 358.06 121.184C358.06 121.821 358.728 122.565 359.545 122.836C360.535 123.166 360.748 122.873 360.182 121.959C359.609 121.033 359.757 120.849 360.638 121.394C361.357 121.837 361.68 122.463 361.358 122.786C361.035 123.108 362.493 125.276 364.598 127.604C366.703 129.932 369.576 134.307 370.983 137.326C372.391 140.346 373.547 142.198 373.552 141.439C373.568 139.362 369.42 131.61 365.715 126.793C363.542 123.968 363.224 123.206 364.775 124.544C372.121 130.877 377.541 145.708 376.316 156.123C374.952 167.713 367.445 178.89 357.68 183.867L353.469 186.014L342.335 152.131C335.006 129.826 331.588 117.978 332.335 117.461C334.214 116.16 344.042 116.546 349.069 118.118ZM340.207 151.09C347.414 172.634 350.659 183.756 349.946 184.469C347.681 186.731 332.781 186.413 326.252 183.964C322.871 182.694 320.104 181.314 320.104 180.895C320.104 180.478 324.76 178.737 330.451 177.029C336.141 175.321 340.294 173.756 339.681 173.552C339.067 173.348 333.821 174.699 328.02 176.556L317.475 179.931L312.742 174.727C310.139 171.866 308.556 170.558 309.224 171.819C311.418 175.961 320.209 182.764 326.362 185.082C331.328 186.953 334.081 187.278 341.874 186.919C348.131 186.63 350.491 186.804 348.823 187.432C347.435 187.955 342.209 188.223 337.211 188.028C322.817 187.468 312.944 181.361 306.13 168.804C302.685 162.457 302.463 161.431 302.463 151.898C302.463 139.836 305.232 132.819 312.793 125.725L317.348 121.452L312.75 126.605C305.682 134.528 303.578 140.072 303.552 150.829C303.526 162.683 306.18 170.461 309.747 168.98C311.033 168.447 316.997 166.533 323.002 164.728C329.005 162.924 334.188 161.008 334.521 160.473C335.17 159.422 324.549 162.189 314.323 165.733C310.851 166.937 307.857 167.922 307.671 167.922C307.486 167.922 306.54 165.193 305.569 161.856C301.887 149.198 305.87 134.77 315.351 126.432C319.997 122.345 325.891 118.853 328.226 118.805C328.87 118.791 334.261 133.32 340.207 151.09ZM320.104 120.32C320.104 120.58 319.548 121.134 318.869 121.553C318.105 122.026 317.925 121.847 318.399 121.083C319.16 119.851 320.104 119.429 320.104 120.32ZM381.163 127.327C381.122 128.208 381.758 131.333 382.576 134.271C383.394 137.209 384.097 138.891 384.138 138.01C384.179 137.129 383.543 134.004 382.725 131.066C381.907 128.128 381.204 126.446 381.163 127.327ZM318.816 132.127C312.008 136.749 307.324 147.739 308.804 155.619C309.776 160.798 311.166 160.358 310.658 155.032C309.959 147.708 312.455 141.278 318.243 135.495C324.178 129.564 324.386 128.345 318.816 132.127ZM224.575 146.554C223.604 148.498 222.81 150.685 222.81 151.414C222.81 152.141 222.049 153.029 221.119 153.386C218.713 154.309 215.326 154.188 215.326 153.181C215.326 152.711 213.613 151.708 211.519 150.951C206.098 148.993 204.379 144.893 207.875 142.259C209.78 140.823 210.695 140.634 211.283 141.556C211.846 142.44 212.093 142.339 212.108 141.215C212.12 140.334 212.618 137.859 213.213 135.716L214.296 131.82L220.318 137.42L226.339 143.02L224.575 146.554ZM217.82 139.791C218.213 140.182 218.854 140.182 219.247 139.791C219.638 139.399 219.317 139.078 218.533 139.078C217.75 139.078 217.429 139.399 217.82 139.791ZM214.257 141.686C214.257 142.533 214.693 143.495 215.226 143.824C215.759 144.154 215.944 143.46 215.636 142.284C214.983 139.79 214.257 139.475 214.257 141.686ZM384.467 141.749C384.467 142.924 384.853 145.087 385.323 146.556C386.001 148.672 386.18 148.783 386.18 147.09C386.18 145.915 385.794 143.752 385.323 142.283C384.646 140.168 384.467 140.057 384.467 141.749ZM373.811 146.556C373.811 148.613 374.031 149.455 374.299 148.426C374.569 147.397 374.569 145.716 374.299 144.687C374.031 143.658 373.811 144.5 373.811 146.556ZM215.04 147.757C215.766 148.488 216.629 148.816 216.957 148.487C217.287 148.158 216.693 147.56 215.639 147.159C214.116 146.58 213.993 146.702 215.04 147.757ZM386.605 151.364C386.605 152.539 386.991 154.702 387.462 156.171C388.14 158.286 388.318 158.397 388.318 156.705C388.318 155.53 387.932 153.367 387.462 151.898C386.784 149.783 386.605 149.671 386.605 151.364ZM436.276 152.243C436.623 152.59 436.609 153.651 436.245 154.602C435.344 156.944 432.271 156.169 431.223 153.335C430.485 151.336 430.719 151.072 433.008 151.323C434.458 151.481 435.928 151.896 436.276 152.243ZM443.914 152.111C446.343 154.539 445.488 156.257 442.524 154.908C439.796 153.667 439.296 152.808 440.564 151.542C441.595 150.512 442.461 150.66 443.914 152.111ZM433.436 152.966C433.436 153.749 433.757 154.07 434.149 153.679C434.54 153.287 434.54 152.646 434.149 152.253C433.757 151.862 433.436 152.183 433.436 152.966ZM373.722 156.171C373.355 164.693 365.52 176.276 356.456 181.7C354.398 182.93 353.232 183.94 353.867 183.942C356.256 183.951 365.061 177.216 368.151 173.016C372.04 167.732 374.944 159.458 374.331 155.405C373.938 152.793 373.863 152.886 373.722 156.171ZM218.228 156.934C216.497 158.663 216.293 158.663 214.562 156.934C212.831 155.204 212.933 155.103 216.395 155.103C219.857 155.103 219.959 155.204 218.228 156.934ZM224.235 156.883C224.628 157.274 225.269 157.274 225.662 156.883C226.053 156.491 225.732 156.171 224.948 156.171C224.165 156.171 223.844 156.491 224.235 156.883ZM388.652 160.444C388.612 161.325 389.488 165.412 390.598 169.525C391.706 173.637 392.647 176.281 392.687 175.4C392.726 174.519 391.851 170.433 390.741 166.32C389.632 162.207 388.691 159.563 388.652 160.444ZM156.858 162.497C156.968 163.92 157.778 165.278 158.66 165.516C159.72 165.802 159.852 165.649 159.051 165.065C158.384 164.58 157.574 163.222 157.25 162.046C156.786 160.362 156.703 160.457 156.858 162.497ZM432.901 162.581C431.491 163.186 431.309 163.519 432.367 163.557C433.249 163.59 434.692 163.15 435.574 162.581C437.529 161.319 435.84 161.319 432.901 162.581ZM447.335 165.849C447.335 167.058 446.854 167.751 446.266 167.388C445.678 167.025 445.197 166.035 445.197 165.188C445.197 164.341 445.678 163.649 446.266 163.649C446.854 163.649 447.335 164.639 447.335 165.849ZM158.125 167.922C156.715 168.528 156.533 168.86 157.591 168.898C158.473 168.932 159.916 168.491 160.798 167.922C162.753 166.66 161.065 166.66 158.125 167.922ZM208.711 173.993C209.482 174.302 210.404 174.263 210.759 173.909C211.114 173.554 210.484 173.302 209.357 173.348C208.111 173.399 207.858 173.652 208.711 173.993ZM223.679 173.993C224.45 174.302 225.373 174.263 225.728 173.909C226.083 173.554 225.452 173.302 224.325 173.348C223.079 173.399 222.826 173.652 223.679 173.993ZM214.539 175.099C216.164 175.343 218.57 175.337 219.885 175.084C221.2 174.831 219.87 174.63 216.93 174.637C213.989 174.646 212.914 174.853 214.539 175.099ZM289.633 176.571C278.028 179.807 233.376 194.859 233.881 195.364C234.725 196.207 290.97 179.408 299.033 175.905C302.207 174.526 302.264 174.418 299.79 174.449C298.32 174.469 293.749 175.423 289.633 176.571ZM392.871 178.357C392.779 180.341 400.086 202.364 401.46 204.244C402.405 205.537 402.481 205.434 401.853 203.71C401.425 202.535 399.243 196.045 397.004 189.288C394.765 182.531 392.905 177.613 392.871 178.357ZM364.368 190.462C366.123 193.433 366.156 193.94 364.69 195.407C363.223 196.873 362.83 196.601 360.87 192.762C357.672 186.497 360.805 184.437 364.368 190.462ZM218.68 191.682C218.077 193.596 217.058 197.206 216.414 199.704C215.113 204.748 214.367 205.061 209.911 202.431C206.79 200.588 204.877 200.976 206.238 203.176C207.227 204.775 215.38 210.654 216.61 210.654C218.253 210.654 220.425 204.036 221.211 196.63C222.04 188.816 220.518 185.839 218.68 191.682ZM469.503 195.27C468.626 196.145 470.8 200.946 473.69 204.515C476.052 207.433 478.035 207.172 476.148 204.193C475.608 203.34 475.159 201.415 475.149 199.917C475.126 196.004 471.639 193.135 469.503 195.27ZM369.871 198.999C371.888 202.898 371.269 205.312 368.25 205.312C365.604 205.312 365.316 203.203 367.949 203.108C369.322 203.058 369.148 202.771 367.293 202.029C365.084 201.146 364.949 200.791 366.224 199.226C367.493 197.666 367.447 197.522 365.866 198.114C364.567 198.6 364.218 198.352 364.644 197.246C365.628 194.681 368.056 195.495 369.871 198.999ZM296.048 205.938C278.875 210.876 250.721 220.174 247.401 222.005L244.728 223.48L247.935 222.783C256.356 220.955 312.62 203.378 312.62 202.575C312.62 201.541 308.278 202.422 296.048 205.938ZM372.613 206.735C370.808 208.54 370.12 208.707 369.03 207.611C367.944 206.517 368.018 206.382 369.413 206.911C370.601 207.363 371.332 206.847 371.746 205.265C372.115 203.855 372.834 203.26 373.599 203.732C374.477 204.274 374.185 205.166 372.613 206.735ZM476.411 211.188C476.432 212.95 476.672 213.542 476.944 212.503C477.215 211.463 477.197 210.021 476.904 209.298C476.611 208.575 476.39 209.425 476.411 211.188ZM371.424 210.654C371.424 211.241 371.213 211.722 370.953 211.722C370.693 211.722 370.184 211.241 369.82 210.654C369.457 210.066 369.67 209.585 370.292 209.585C370.914 209.585 371.424 210.066 371.424 210.654ZM376.782 215.194C379.305 219.329 379.415 220.268 377.377 220.268C375.442 220.268 371.064 214.237 371.955 212.798C373.128 210.899 374.61 211.635 376.782 215.194ZM477.603 220.802C477.609 224.328 477.808 225.641 478.047 223.721C478.284 221.801 478.28 218.917 478.036 217.311C477.791 215.706 477.597 217.277 477.603 220.802ZM225.974 221.604C225.245 224.688 224.234 228.324 223.73 229.684L222.811 232.156L218.546 229.761C212.439 226.332 211.817 228.307 217.464 233.193C222.778 237.789 225.395 238.383 227.015 235.358C228.214 233.12 230.28 218.047 229.561 216.796C228.411 214.802 227.198 216.429 225.974 221.604ZM309.947 234.116C288.741 239.665 249.561 253.075 253.901 253.299C258.838 253.552 316.821 235.53 320.825 232.498C323.362 230.576 323.622 230.538 309.947 234.116ZM236.81 247.777C236.231 249.981 235.425 253.225 235.017 254.988C233.879 259.904 233.637 260.008 229.159 257.493C223.145 254.116 222.542 256.089 228.081 261.019C234.281 266.537 236.818 266.239 238.495 259.795C240.035 253.871 240.283 243.771 238.889 243.771C238.324 243.771 237.388 245.574 236.81 247.777ZM477.356 251.871C477.408 253.116 477.661 253.369 478.002 252.518C478.311 251.746 478.273 250.825 477.918 250.47C477.563 250.115 477.31 250.745 477.356 251.871ZM476.203 257.658C476.203 258.441 476.523 258.762 476.916 258.371C477.307 257.979 477.307 257.338 476.916 256.946C476.523 256.555 476.203 256.875 476.203 257.658ZM475.218 262.554C475.269 263.799 475.523 264.052 475.864 263.201C476.173 262.429 476.134 261.507 475.779 261.153C475.424 260.798 475.172 261.428 475.218 262.554ZM473.097 269.136C472.376 271.343 471.541 273.87 471.241 274.751C470.755 276.175 470.82 276.175 471.829 274.751C472.789 273.393 472.985 273.475 473.112 275.285C473.194 276.46 473.645 274.78 474.112 271.55C475.139 264.47 474.847 263.775 473.097 269.136ZM317.431 272.157C297.542 277.917 264.594 288.703 264.013 289.644C262.664 291.822 289.187 284.686 314.116 276.163C337.372 268.212 339.364 265.806 317.431 272.157ZM468.622 279.291C467.016 282.405 448.91 307.591 442.32 315.88C439.516 319.406 438.115 321.581 439.205 320.713C441.094 319.21 441.157 319.384 440.555 324.452C438.785 339.34 438.563 357.953 440.118 361.068C441.632 364.101 441.58 364.268 438.555 366.053C436.835 367.069 435.673 368.146 435.973 368.447C436.275 368.748 437.946 367.98 439.687 366.74C441.43 365.5 444.703 364.422 446.965 364.342C449.675 364.246 450.166 364.053 448.404 363.776C446.934 363.544 444.584 363.104 443.182 362.796L440.634 362.239L441.135 340.507L441.637 318.777L451.779 305.043C465.852 285.983 471.867 276.888 470.397 276.888C470.103 276.888 469.304 277.969 468.622 279.291ZM472.174 281.161C472.174 283.217 472.394 284.058 472.663 283.03C472.932 282.001 472.932 280.32 472.663 279.291C472.394 278.262 472.174 279.104 472.174 281.161ZM249.215 281.962C248.968 282.402 248.432 284.205 248.024 285.968C247.616 287.731 246.804 290.993 246.221 293.219L245.159 297.264L240.946 294.898C233.155 290.522 234.896 295.638 242.874 300.566C245.987 302.488 246.721 302.595 248.004 301.314C250.682 298.637 252.996 281.161 250.671 281.161C250.118 281.161 249.463 281.522 249.215 281.962ZM471.105 288.639C471.105 290.695 471.325 291.536 471.593 290.508C471.863 289.481 471.863 287.797 471.593 286.769C471.325 285.742 471.105 286.582 471.105 288.639ZM470.036 296.117C470.036 298.173 470.256 299.014 470.524 297.986C470.794 296.959 470.794 295.275 470.524 294.247C470.256 293.22 470.036 294.06 470.036 296.117ZM468.966 303.595C468.966 305.651 469.187 306.492 469.455 305.464C469.725 304.437 469.725 302.753 469.455 301.725C469.187 300.698 468.966 301.538 468.966 303.595ZM467.858 310.539C467.879 312.301 468.119 312.893 468.39 311.854C468.662 310.814 468.644 309.372 468.351 308.649C468.058 307.926 467.836 308.776 467.858 310.539ZM466.789 316.948C466.81 318.711 467.049 319.303 467.321 318.263C467.593 317.224 467.574 315.782 467.281 315.059C466.989 314.335 466.767 315.186 466.789 316.948ZM465.68 322.824C465.68 324.293 465.923 324.894 466.219 324.159C466.516 323.425 466.516 322.224 466.219 321.489C465.923 320.755 465.68 321.355 465.68 322.824ZM433.869 326.296L431.832 328.7L434.238 326.665C436.498 324.752 437.13 323.892 436.275 323.892C436.071 323.892 434.989 324.973 433.869 326.296ZM464.611 328.165C464.611 329.634 464.853 330.236 465.15 329.501C465.447 328.767 465.447 327.565 465.15 326.83C464.853 326.096 464.611 326.697 464.611 328.165ZM429.078 332.172L426.486 335.109L429.427 332.52C432.174 330.099 432.858 329.234 432.018 329.234C431.827 329.234 430.504 330.556 429.078 332.172ZM462.898 335.169C462.495 337.312 462.379 339.28 462.64 339.542C462.902 339.802 463.445 338.262 463.847 336.118C464.25 333.975 464.366 332.007 464.105 331.745C463.843 331.485 463.3 333.025 462.898 335.169ZM421.09 341.252L416.864 345.792L421.408 341.569C425.633 337.642 426.444 336.712 425.634 336.712C425.46 336.712 423.415 338.755 421.09 341.252ZM461.319 342.676C461.37 343.921 461.623 344.174 461.965 343.322C462.274 342.551 462.235 341.629 461.88 341.274C461.525 340.92 461.273 341.55 461.319 342.676ZM460.25 346.949C460.301 348.194 460.554 348.447 460.895 347.595C461.204 346.824 461.166 345.902 460.811 345.548C460.456 345.193 460.204 345.823 460.25 346.949ZM458.124 353.902C457.401 356.313 457.006 358.482 457.246 358.723C457.487 358.963 458.276 357.187 458.999 354.775C459.721 352.364 460.117 350.195 459.876 349.954C459.636 349.714 458.847 351.49 458.124 353.902ZM405.556 356.742L402.965 359.68L405.905 357.09C407.521 355.665 408.845 354.344 408.845 354.153C408.845 353.314 407.979 353.997 405.556 356.742ZM399.656 361.448C399.182 362.212 399.362 362.391 400.126 361.918C400.805 361.499 401.361 360.945 401.361 360.685C401.361 359.794 400.417 360.216 399.656 361.448ZM455.252 361.448C454.779 362.212 454.958 362.391 455.723 361.918C456.955 361.157 457.378 360.214 456.486 360.214C456.226 360.214 455.671 360.77 455.252 361.448ZM393.877 365.651C393.877 367.73 384.834 370.374 380.121 369.672C377.857 369.334 378.184 368.884 383.224 365.385C388.04 362.042 389.218 361.641 391.366 362.619C392.747 363.248 393.877 364.612 393.877 365.651ZM451.612 365.556C451.612 367.374 451.033 368.788 450.275 368.825C449.541 368.859 446.533 369.287 443.593 369.774C440.455 370.295 437.466 370.248 436.356 369.662C434.445 368.654 428.09 371.423 428.09 373.264C428.09 374.265 440.56 374.239 447.335 373.222L452.146 372.499L452.73 367.425C453.051 364.634 452.931 362.351 452.463 362.351C451.995 362.351 451.612 363.793 451.612 365.556Z" fill="white"/>
</g>
<defs>
<clipPath id="clip0_435_1434">
<rect width="590" height="552" fill="white"/>
</clipPath>
</defs>
</svg>
